<svg xmlns="http://www.w3.org/2000/svg" width="16.957" height="12.024" viewBox="0 0 16.957 12.024">
  <g id="email_a" data-name="email a" opacity="0.6">
    <g id="_1" data-name="1" transform="translate(0 0)">
      <path id="Path_3115" data-name="Path 3115" d="M17.511,6.25H3.946a1.69,1.69,0,0,0-1.7,1.7v8.633a1.7,1.7,0,0,0,1.7,1.7H17.511a1.7,1.7,0,0,0,1.7-1.7V7.946A1.7,1.7,0,0,0,17.511,6.25ZM3.946,7.175H17.511a.771.771,0,0,1,.771.771v1.6l-7.554,4.07L3.175,9.543v-1.6a.765.765,0,0,1,.771-.771ZM17.511,17.349H3.946a.771.771,0,0,1-.771-.771V10.591l7.332,3.952a.469.469,0,0,0,.444,0l7.332-3.952v5.987A.771.771,0,0,1,17.511,17.349Z" transform="translate(-2.25 -6.25)"/>
    </g>
  </g>
</svg>
