<svg xmlns="http://www.w3.org/2000/svg" width="18.762" height="18.023" viewBox="0 0 18.762 18.023">
  <g id="subject" transform="translate(0 0)" opacity="0.6">
    <path id="Path_3116" data-name="Path 3116" d="M10.88,19.893H.494A.494.494,0,0,1,0,19.4V2.364A.494.494,0,0,1,.494,1.87H13.909a.494.494,0,0,1,.494.494V7.388a.494.494,0,0,1-.987,0V2.857H.987V18.905H10.88a.494.494,0,1,1,0,.987Z" transform="translate(0 -1.87)"/>
    <path id="Path_3117" data-name="Path 3117" d="M68.424,51.016a.492.492,0,0,1-.494-.494v-5.6a.494.494,0,1,1,.987,0v5.6a.492.492,0,0,1-.494.494Z" transform="translate(-54.515 -36.025)"/>
    <path id="Path_3118" data-name="Path 3118" d="M40.765,24.607a.488.488,0,0,1-.354-.146.5.5,0,0,1-.124-.492l.745-2.427a.488.488,0,0,1,.124-.2L48.191,14.3a1.69,1.69,0,1,1,2.392,2.39h0l-7.036,7.029a.5.5,0,0,1-.2.122l-2.441.748A.507.507,0,0,1,40.765,24.607Zm1.185-2.664-.434,1.428,1.428-.434,6.948-6.95h0A.7.7,0,0,0,48.9,15Zm8.294-5.607Z" transform="translate(-32.315 -11.444)"/>
    <path id="Path_3119" data-name="Path 3119" d="M76.81,23.485a.492.492,0,0,1-.35-.144l-1.69-1.685a.494.494,0,0,1,.7-.7l1.69,1.685a.494.494,0,0,1,0,.7A.484.484,0,0,1,76.81,23.485Z" transform="translate(-59.903 -17.089)"/>
    <path id="Path_3120" data-name="Path 3120" d="M46.216,53.888a.5.5,0,0,1-.474-.35A2.054,2.054,0,0,0,44.4,52.184a.495.495,0,0,1,.247-.958,3.063,3.063,0,0,1,2.04,2.026.494.494,0,0,1-.33.614A.517.517,0,0,1,46.216,53.888Z" transform="translate(-35.335 -41.466)"/>
    <path id="Path_3121" data-name="Path 3121" d="M16.224,13.047h-4.84a.494.494,0,1,1,0-.987h4.84a.494.494,0,1,1,0,.987Z" transform="translate(-8.739 -10.048)"/>
    <path id="Path_3122" data-name="Path 3122" d="M20.35,26.217H11.384a.494.494,0,1,1,0-.987H20.35a.494.494,0,0,1,0,.987Z" transform="translate(-8.739 -20.617)"/>
    <path id="Path_3123" data-name="Path 3123" d="M18.156,39.4H11.384a.494.494,0,1,1,0-.987h6.772a.494.494,0,1,1,0,.987Z" transform="translate(-8.739 -31.194)"/>
    <path id="Path_3124" data-name="Path 3124" d="M16.224,52.577h-4.84a.494.494,0,1,1,0-.987h4.84a.494.494,0,1,1,0,.987Z" transform="translate(-8.739 -41.771)"/>
    <path id="Path_3125" data-name="Path 3125" d="M17.19,64.507H11.384a.494.494,0,1,1,0-.987H17.19a.494.494,0,1,1,0,.987Z" transform="translate(-8.739 -51.345)"/>
    <path id="Path_3126" data-name="Path 3126" d="M53.084,76.8a.494.494,0,0,1-.494-.494V73.274a.494.494,0,0,1,.494-.494h3.031a.494.494,0,0,1,.348.843l-3.029,3.031A.5.5,0,0,1,53.084,76.8Zm.494-3.031v1.345l1.345-1.345Z" transform="translate(-42.204 -58.776)"/>
  </g>
</svg>
