<svg xmlns="http://www.w3.org/2000/svg" width="160.722" height="128.499" viewBox="0 0 160.722 128.499">
  <g id="interviews" transform="translate(-615.007 -455.5)">
    <path id="Path_3370" data-name="Path 3370" d="M-12455.379-4641.487s5.791-17.845,39.217-11.82,32.869,3.244,58.827-11.82,42.763-9.27,45.566,11.82-2.617,32.679,6.722,44.73,15.126,27.58-5.416,32.679-35.107,14.137-46.872,21.321-21.1,12.979-32.31-9.965-16.62-29.434-40.522-31.984-27.453-27.348-27.079-34.3A36.458,36.458,0,0,1-12455.379-4641.487Z" transform="translate(13072.278 5132.204)" fill="#219ebc" opacity="0.22"/>
    <ellipse id="Ellipse_427" data-name="Ellipse 427" cx="7.176" cy="6.578" rx="7.176" ry="6.578" transform="matrix(-0.839, 0.545, -0.545, -0.839, 690.952, 467.98)" fill="#219ebc"/>
    <ellipse id="Ellipse_430" data-name="Ellipse 430" cx="7.176" cy="6.578" rx="7.176" ry="6.578" transform="matrix(-0.839, 0.545, -0.545, -0.839, 757.533, 573.988)" fill="#219ebc"/>
    <ellipse id="Ellipse_428" data-name="Ellipse 428" cx="3.588" cy="4.186" rx="3.588" ry="4.186" transform="matrix(-0.839, 0.545, -0.545, -0.839, 705.946, 462.521)" fill="#219ebc"/>
    <ellipse id="Ellipse_429" data-name="Ellipse 429" cx="3.588" cy="4.186" rx="3.588" ry="4.186" transform="matrix(-0.839, 0.545, -0.545, -0.839, 738.332, 580.091)" fill="#219ebc"/>
    <g id="Group_1961" data-name="Group 1961" transform="translate(643.673 482.173)">
      <g id="Group_1944" data-name="Group 1944" transform="translate(25.637 0)">
        <path id="Path_3373" data-name="Path 3373" d="M170.936,352.672a15,15,0,0,1-13.569-.025c-3.759-2.17-3.778-5.678-.042-7.834a15,15,0,0,1,13.569.025C174.652,347.008,174.671,350.516,170.936,352.672Z" transform="translate(-140.821 -273.865)" fill="#02667e" style="mix-blend-mode: multiply;isolation: isolate"/>
        <g id="Group_1943" data-name="Group 1943">
          <g id="Group_1937" data-name="Group 1937" transform="translate(21.449 71.482)">
            <path id="Path_3374" data-name="Path 3374" d="M179.681,356.634c-.057.067-.109.225-.208.229a.249.249,0,0,1-.154-.071,1.8,1.8,0,0,0-.176,1.015,1.464,1.464,0,0,0,.311.948,1.751,1.751,0,0,0,.756.456,3.578,3.578,0,0,0,1.293.147,6.846,6.846,0,0,0,2.855-.756,2.99,2.99,0,0,0,1.3-1.279c.125-.277.18-.58.287-.864.18-.479.634-.728,1.025-1.011a2.29,2.29,0,0,0,.747-.832,2.468,2.468,0,0,0-.442-2.524c.02.024-.084.179-.1.2-.089.078-.114.04-.2-.023-.055-.041-.1-.123-.174-.121s-.114.089-.176.113c-.092.036-.187.025-.287.055a2.761,2.761,0,0,1-1.692.041c-.243-.085-.433-.306-.689-.242a1.584,1.584,0,0,0-.7.446,6.033,6.033,0,0,0-.59.758,12.721,12.721,0,0,1-1.056,1.273C180.973,355.277,180.293,355.921,179.681,356.634Z" transform="translate(-179.138 -351.443)" fill="#faf9ed"/>
            <path id="Path_3375" data-name="Path 3375" d="M187.848,351.717a1.612,1.612,0,0,1-.033.322c-.017.067-.028.139-.044.205a1.88,1.88,0,0,1-.722,1.127,2.5,2.5,0,0,0-1.027,1.01c-.094.25-.144.511-.239.755a.885.885,0,0,1-.044.111,2.988,2.988,0,0,1-1.3,1.277,6.848,6.848,0,0,1-2.858.76,3.647,3.647,0,0,1-1.293-.15,1.76,1.76,0,0,1-.755-.455,1.724,1.724,0,0,1,.228-2.12c.366-.427.755-.827,1.143-1.221.261-.272.527-.55.788-.827a12.37,12.37,0,0,0,1.054-1.271,6.072,6.072,0,0,1,.594-.76l.056-.056a1.552,1.552,0,0,1,.638-.388c.261-.067.449.155.694.239a2.719,2.719,0,0,0,1.692-.039,2.134,2.134,0,0,0,.283-.055c.078-.028.111-.122.205-.111a.212.212,0,0,1,.122.072,3.607,3.607,0,0,1,.449.522,1.994,1.994,0,0,1,.244.439c.022.05.039.105.056.155a1.3,1.3,0,0,1,.055.255A1.237,1.237,0,0,1,187.848,351.717Z" transform="translate(-179.214 -350.023)" fill="#101111"/>
            <path id="Path_3376" data-name="Path 3376" d="M187.329,352.168a1.435,1.435,0,0,1-.183.305c-.111.172-.228.344-.344.516-.111.155-.216.316-.327.466a.977.977,0,0,1-.139.189,1.411,1.411,0,0,1-.427.128,4.2,4.2,0,0,0-1.26.439.245.245,0,0,1-.083.028.1.1,0,0,1-.055-.022c-.006,0-.006-.005-.011-.005.261-.272.527-.55.788-.827a12.373,12.373,0,0,0,1.055-1.271,6.07,6.07,0,0,1,.594-.76l.056-.056a.715.715,0,0,0,.039.372,1.982,1.982,0,0,0,.128.266C187.174,351.963,187.329,352.152,187.329,352.168Z" transform="translate(-182.813 -350.896)" fill="#a4d7e3"/>
            <path id="Path_3377" data-name="Path 3377" d="M196.25,353.111a1.614,1.614,0,0,1-.033.322c-.017.067-.028.139-.044.205a1.88,1.88,0,0,1-.722,1.127,2.5,2.5,0,0,0-1.027,1.01c-.094.25-.144.511-.239.755a2.632,2.632,0,0,0-.794-.694,2.565,2.565,0,0,0-.816-.294,2.806,2.806,0,0,0-.433-.05c-.083,0-.311.055-.377.011a.075.075,0,0,1-.028-.05c-.067-.288-.133-.583-.2-.871a.814.814,0,0,1-.028-.305.708.708,0,0,1,.127-.261,10.614,10.614,0,0,1,.822-1.044c.05-.061.1-.122.15-.177a.651.651,0,0,0,.328.094,4.489,4.489,0,0,0,2.941-.833,1.994,1.994,0,0,1,.244.439c.022.05.039.105.056.155a1.3,1.3,0,0,1,.055.255A1.235,1.235,0,0,1,196.25,353.111Z" transform="translate(-187.617 -351.417)" fill="#a4d7e3"/>
            <g id="Group_1934" data-name="Group 1934" transform="translate(3.797 1.241)">
              <path id="Path_3378" data-name="Path 3378" d="M192.6,354.806a.1.1,0,0,1-.056,0c-.062-.023-.129-.107-.183-.147a2.308,2.308,0,0,0-.389-.234,1.88,1.88,0,0,0-.409-.14,2.075,2.075,0,0,0-.211-.027c-.11-.012-.175-.081-.13-.19a.155.155,0,0,1,.032-.051c.093-.093.3-.02.408.006a2.23,2.23,0,0,1,.44.157,2.59,2.59,0,0,1,.4.238c.095.069.282.174.2.318A.164.164,0,0,1,192.6,354.806Z" transform="translate(-191.214 -353.969)" fill="#faf9ed"/>
            </g>
            <g id="Group_1935" data-name="Group 1935" transform="translate(3.467 1.778)">
              <path id="Path_3379" data-name="Path 3379" d="M191.557,356.516a.1.1,0,0,1-.056,0c-.062-.023-.129-.107-.183-.147a2.315,2.315,0,0,0-.388-.234,1.886,1.886,0,0,0-.409-.14,2.066,2.066,0,0,0-.211-.027c-.11-.012-.175-.081-.13-.19a.154.154,0,0,1,.032-.051c.093-.093.3-.02.408.006a2.231,2.231,0,0,1,.44.157,2.587,2.587,0,0,1,.4.238c.095.069.282.174.2.318A.164.164,0,0,1,191.557,356.516Z" transform="translate(-190.166 -355.679)" fill="#faf9ed"/>
            </g>
            <g id="Group_1936" data-name="Group 1936" transform="translate(3.138 2.316)">
              <path id="Path_3380" data-name="Path 3380" d="M190.509,358.225a.1.1,0,0,1-.056,0c-.062-.023-.129-.107-.183-.147a2.317,2.317,0,0,0-.388-.234,1.884,1.884,0,0,0-.409-.14,2.07,2.07,0,0,0-.211-.027c-.11-.012-.175-.081-.13-.19a.152.152,0,0,1,.032-.051c.093-.093.3-.02.408.006a2.226,2.226,0,0,1,.44.157,2.585,2.585,0,0,1,.4.238c.095.068.282.173.2.318A.162.162,0,0,1,190.509,358.225Z" transform="translate(-189.118 -357.389)" fill="#faf9ed"/>
            </g>
          </g>
          <g id="Group_1941" data-name="Group 1941" transform="translate(15.676 69.764)">
            <path id="Path_3381" data-name="Path 3381" d="M169.464,348.1a1.611,1.611,0,0,1-.27.706,1.82,1.82,0,0,1-1.041.721,8.943,8.943,0,0,0-2.353.727,8.212,8.212,0,0,0-1.159.915,3.542,3.542,0,0,1-2.578,1.049,1.586,1.586,0,0,1-.833-.334,1.273,1.273,0,0,1-.4-.814,3.058,3.058,0,0,1,0-1.091,5.874,5.874,0,0,1,.276-.906c.013.258.261-.044.306-.1a2.549,2.549,0,0,1,.417-.4,8.22,8.22,0,0,1,1.8-.86,2.866,2.866,0,0,0,1.3-.978c.1-.16.155-.315.342-.394a1.015,1.015,0,0,1,.795.117,2.714,2.714,0,0,0,1.311.235,2.277,2.277,0,0,0,.7-.258,1.523,1.523,0,0,1,.523-.163c.1-.006.167.059.246.063s.177-.1.157-.172c.036.046.085.1.146.1,0-.009,0-.016,0-.024a1.754,1.754,0,0,1,.336,1.043A3.883,3.883,0,0,1,169.464,348.1Z" transform="translate(-160.775 -345.654)" fill="#faf9ed"/>
            <path id="Path_3382" data-name="Path 3382" d="M169.477,346.372a1.716,1.716,0,0,1-1.267,1.449,8.891,8.891,0,0,0-2.352.727,1.031,1.031,0,0,0-.135.088,8.607,8.607,0,0,0-1.023.826,3.553,3.553,0,0,1-2.576,1.049,1.605,1.605,0,0,1-.836-.332,1.687,1.687,0,0,1-.415-1.465,2.624,2.624,0,0,1,1.007-1.854,4.075,4.075,0,0,1,.935-.509c.285-.12.582-.224.867-.348a2.877,2.877,0,0,0,1.3-.982,2.291,2.291,0,0,1,.177-.275.005.005,0,0,1,.005-.005.437.437,0,0,1,.156-.109,1.018,1.018,0,0,1,.795.114,2.736,2.736,0,0,0,1.314.234,2.243,2.243,0,0,0,.7-.254c.047-.021.109-.047.176-.073a.837.837,0,0,1,.509-.078c.161.057.322.306.4.446A2.12,2.12,0,0,1,169.477,346.372Z" transform="translate(-160.833 -344.559)" fill="#101111"/>
            <path id="Path_3383" data-name="Path 3383" d="M169.357,346.233a15.933,15.933,0,0,1-1.459.784.56.56,0,0,1-.13-.005,3.309,3.309,0,0,1-.483-.182c-.068-.026-.135-.047-.208-.067.285-.12.582-.224.867-.348a2.877,2.877,0,0,0,1.3-.982,2.3,2.3,0,0,1,.177-.275A2.771,2.771,0,0,0,169.357,346.233Z" transform="translate(-165.096 -344.969)" fill="#a4d7e3"/>
            <path id="Path_3384" data-name="Path 3384" d="M176.072,346.372a1.716,1.716,0,0,1-1.267,1.449,8.891,8.891,0,0,0-2.352.727,1.032,1.032,0,0,0-.135.088,2.572,2.572,0,0,0-.566-.8,1.567,1.567,0,0,0-1.158-.447,4.777,4.777,0,0,1-.114-.6,9.085,9.085,0,0,0,1.2-.67.558.558,0,0,1,.156-.083.609.609,0,0,1,.239-.01,4.441,4.441,0,0,0,.7-.026,3.578,3.578,0,0,0,1.584-.717,1.962,1.962,0,0,0,.545-.623.837.837,0,0,1,.509-.078c.161.057.322.306.4.446A2.12,2.12,0,0,1,176.072,346.372Z" transform="translate(-167.428 -344.559)" fill="#a4d7e3"/>
            <g id="Group_1938" data-name="Group 1938" transform="translate(2.396 1.652)">
              <path id="Path_3385" data-name="Path 3385" d="M169.635,350.7a.094.094,0,0,1-.052-.007c-.056-.027-.111-.111-.158-.152a2.157,2.157,0,0,0-.342-.251,1.8,1.8,0,0,0-.369-.165,1.949,1.949,0,0,0-.194-.043c-.1-.02-.156-.09-.105-.188a.144.144,0,0,1,.034-.044c.095-.079.28.006.379.04a2.087,2.087,0,0,1,.4.184,2.439,2.439,0,0,1,.352.256c.083.072.248.186.158.314A.153.153,0,0,1,169.635,350.7Z" transform="translate(-168.396 -349.813)" fill="#faf9ed"/>
            </g>
            <g id="Group_1939" data-name="Group 1939" transform="translate(2.972 1.384)">
              <path id="Path_3386" data-name="Path 3386" d="M171.467,349.845a.1.1,0,0,1-.052-.007c-.056-.027-.111-.111-.158-.152a2.159,2.159,0,0,0-.342-.251,1.771,1.771,0,0,0-.369-.165,1.948,1.948,0,0,0-.194-.043c-.1-.02-.156-.09-.105-.188a.139.139,0,0,1,.034-.044c.094-.079.28.006.379.04a2.094,2.094,0,0,1,.4.184,2.415,2.415,0,0,1,.352.256c.082.072.247.186.158.313A.153.153,0,0,1,171.467,349.845Z" transform="translate(-170.228 -348.96)" fill="#faf9ed"/>
            </g>
            <g id="Group_1940" data-name="Group 1940" transform="translate(3.564 1.153)">
              <path id="Path_3387" data-name="Path 3387" d="M173.35,349.11a.091.091,0,0,1-.051-.007c-.056-.027-.111-.111-.158-.152a2.137,2.137,0,0,0-.342-.251,1.779,1.779,0,0,0-.369-.166,1.917,1.917,0,0,0-.194-.043c-.1-.02-.156-.091-.105-.188a.144.144,0,0,1,.034-.044c.095-.079.28.007.38.04a2.067,2.067,0,0,1,.4.184,2.418,2.418,0,0,1,.352.256c.082.072.247.186.158.314A.152.152,0,0,1,173.35,349.11Z" transform="translate(-172.111 -348.225)" fill="#faf9ed"/>
            </g>
          </g>
          <path id="Path_3388" data-name="Path 3388" d="M171.33,242.581a54.968,54.968,0,0,0-1.476-9.375,11.548,11.548,0,0,0-1.349-3.024,2.939,2.939,0,0,0-2.089-1.508c-.485-.03-.954.409-1.344.327a1.5,1.5,0,0,1-.8-1.048,81.312,81.312,0,0,0,.088,10.737c.133,1.786,2.346,20.731,2.439,22.588.053,1.06.1,2.12.138,3.18.032.81,1.277,1.373,1.974,1.463a2.752,2.752,0,0,0,2.084-.606.849.849,0,0,0,.426-.882c.095-1.263.3-6.72.293-8.188-.009-1.185.168-2.377.14-3.557-.025-1.054.173-2.115.169-3.183A58.769,58.769,0,0,0,171.33,242.581Z" transform="translate(-147.402 -194.85)" fill="#02667e"/>
          <path id="Path_3389" data-name="Path 3389" d="M184.881,232.566c-.218-2.572.165-5.192-1.216-7.544a11.186,11.186,0,0,1-3.5,3.622,4.3,4.3,0,0,1-3.231.841,13.725,13.725,0,0,1-1.517-.6c-3.808-1.408-1.917,7.059-1.149,8.593a19.115,19.115,0,0,1,1.334,2.809,59.543,59.543,0,0,1,3.119,20.286q-.069,1.658-.251,3.309a1.3,1.3,0,0,0,.071.772,1.048,1.048,0,0,0,.29.309,4.135,4.135,0,0,0,4,.307,1.458,1.458,0,0,0,.719-.5,1.645,1.645,0,0,0,.189-.819c.157-2.939.31-5.879.392-8.821a26.688,26.688,0,0,0-.351-4.121c-.417-3.252.257-6.337.5-9.561C184.507,238.576,185.127,235.471,184.881,232.566Z" transform="translate(-153.562 -192.841)" fill="#219ebc"/>
          <path id="Path_3390" data-name="Path 3390" d="M171.569,235.512a11.849,11.849,0,0,0,7.089-1.92.551.551,0,0,0,.144-.139.561.561,0,0,0,.058-.3c0-.424-.057-.845-.066-1.267-.005-.25-.166-.852-.059-1.068a4.652,4.652,0,0,1-1.025,1.361,2.731,2.731,0,0,1-.981.474,14.768,14.768,0,0,1-2.411.678,15.691,15.691,0,0,1-6.757-.2,4.076,4.076,0,0,1-1.544-.659,4.475,4.475,0,0,1-1.074-1.443c-.1-.185-.219-.354-.313-.539-.061-.12-.258-.619-.18-.743a.677.677,0,0,0-.073.348,10.546,10.546,0,0,0-.009,1.515,2.2,2.2,0,0,0,.255.828,5.1,5.1,0,0,0,.7,1.11,6.832,6.832,0,0,0,3.175,1.641A11.75,11.75,0,0,0,171.569,235.512Z" transform="translate(-147.544 -196.079)" fill="#343434"/>
          <path id="Path_3391" data-name="Path 3391" d="M116.533,227.484a1.52,1.52,0,0,0-.325-.185,2.331,2.331,0,0,0-.591-.082,2.191,2.191,0,0,1-.791-.233c-.22-.113-.471-.268-.694-.161a.491.491,0,0,0-.13.677,2.1,2.1,0,0,0,.56.527.583.583,0,0,1,.251.361.438.438,0,0,1-.191.378,1.414,1.414,0,0,1-.4.184,9.879,9.879,0,0,0-2.7,1.443,1.279,1.279,0,0,0-.355.358.474.474,0,0,0-.018.482.419.419,0,0,1,.064.109c.026.1-.066.186-.134.264a.653.653,0,0,0-.147.576.562.562,0,0,0,.418.411.354.354,0,0,0,.186.355.806.806,0,0,0,.413.085,2.369,2.369,0,0,0,.623-.086.3.3,0,0,0,.187.263.744.744,0,0,0,.337.043,6.782,6.782,0,0,0,1.908-.461c.657-.227,1.315-.456,1.947-.745a1.663,1.663,0,0,0,.51-.32,4.736,4.736,0,0,0,.382-.552,1.459,1.459,0,0,1,.64-.491,3.621,3.621,0,0,1-.29-1.611c.024-.466.041-.961-.5-1.113-.159-.044-.326-.01-.484-.056A2.654,2.654,0,0,1,116.533,227.484Z" transform="translate(-110.916 -194.051)" fill="#ffbf99"/>
          <path id="Path_3392" data-name="Path 3392" d="M141.831,169.21a5.429,5.429,0,0,1,.937-2.762,5.526,5.526,0,0,1,1.019-.863,12.121,12.121,0,0,0-2.466.8A2.93,2.93,0,0,0,139.909,168a10.461,10.461,0,0,0-.413,1.215,35.4,35.4,0,0,1-4.087,9.1,1.751,1.751,0,0,0-.158.29c-.833,1.216-1.6,2.478-2.483,3.664-.47.632-2.347,2.92-2.45,3.062-.082.113-.212.233-.208.381s.156.183.269.249a1.61,1.61,0,0,1,.728.816,2.878,2.878,0,0,1,.174,1.612,3.5,3.5,0,0,1-.108.446c-.027.087-.165.239-.137.327.017.053.084.07.14.069a1.266,1.266,0,0,0,.636-.309c.158-.107,2.779-2.641,3.27-3.092.982-.9,1.987-1.782,2.895-2.761q.1-.11.2-.222a15.477,15.477,0,0,0,1.084-1.291l2.051-2.139a1.5,1.5,0,0,0,.458-.714,1.613,1.613,0,0,0-.112-.745,13.521,13.521,0,0,1-.373-5.273C141.4,171.522,141.614,170.364,141.831,169.21Z" transform="translate(-124.075 -152.091)" fill="#219ebc"/>
          <path id="Path_3393" data-name="Path 3393" d="M181.587,165.7a4.851,4.851,0,0,1-.3.9,36.162,36.162,0,0,0-2.589,7.584c-.55,2.927-.4,5.94-.584,8.913a2.557,2.557,0,0,1-.16.882,2.42,2.42,0,0,1-1.1,1.026,13.1,13.1,0,0,1-8.947,1.449c-.257-.052-.51-.109-.767-.183-.189-.052-.378-.115-.567-.183a6.278,6.278,0,0,1-1.524-.779c-1.363-.968-1.512-2.211-1.609-3.769-.109-1.81-.275-12.768-.086-16.434.046-.934.149-1.845,1.094-2.205a37.966,37.966,0,0,1,5.161-1.684c1.484-.332,3.511-.716,5-.212a6.328,6.328,0,0,1,.991.447c.441.229.871.487,1.289.693a31.81,31.81,0,0,1,4.542,2.4.793.793,0,0,1,.315.344C181.827,165.138,181.644,165.453,181.587,165.7Z" transform="translate(-146.808 -148.783)" fill="#a4d7e3"/>
          <path id="Path_3394" data-name="Path 3394" d="M167.463,238.106c.033-.158.074-.31.111-.468a2.6,2.6,0,0,1-.313-.2c-.074-.059-.111-.1-.174,0a1.16,1.16,0,0,0-.1.425,2.139,2.139,0,0,0-.043.613,3.272,3.272,0,0,0,.185.738.269.269,0,0,0,.041.087.259.259,0,0,0,.063.05,2.719,2.719,0,0,0,.493.242,2.568,2.568,0,0,1-.257-.521,1.756,1.756,0,0,1-.041-.78C167.439,238.228,167.45,238.167,167.463,238.106Z" transform="translate(-149.325 -201.312)" fill="#404b63"/>
          <path id="Path_3395" data-name="Path 3395" d="M163.872,188.2a.155.155,0,0,1-.059.079c-.115.074-.322-.044-.421-.1a1.9,1.9,0,0,1-.715-.654,3.72,3.72,0,0,1-.18-1.72q.068-9.866.137-19.731a2.647,2.647,0,0,1,.156-1.071c.3-.678,1.177-.977,1.82-1.225a23.509,23.509,0,0,1,2.278-.765,2.2,2.2,0,0,1,.9-.014c.331.023.429-.111.687-.337a62.4,62.4,0,0,1-1.625,6.318,100.043,100.043,0,0,0-2.225,11.378c-.177,1.3-.347,2.6-.475,3.91-.111,1.139-.238,2.279-.266,3.425A1.711,1.711,0,0,1,163.872,188.2Z" transform="translate(-146.27 -150.091)" fill="#02667e"/>
          <path id="Path_3396" data-name="Path 3396" d="M173.4,162.949a1.723,1.723,0,0,0-.488,1.79,2.661,2.661,0,0,0-.971-.4,1.169,1.169,0,0,1,.187.811c-.016.677-.17,1.383-.237,2.064-.073.746-.133,1.493-.163,2.242a35.28,35.28,0,0,0,.112,3.74c.013.183.034.359.062.54.005.032.009.159.04.169a2.089,2.089,0,0,0,.1-.309c.03-.1.057-.206.083-.309.052-.206.1-.413.154-.619q.277-1.072.55-2.145.313-1.221.634-2.44c.188-.712.38-1.424.586-2.132a7.734,7.734,0,0,1,.407-1.216,12.294,12.294,0,0,0,.566-1.262,8.047,8.047,0,0,0,.591-1.338.288.288,0,0,0-.009-.172c-.139-.289-.98.131-1.169.235A4.6,4.6,0,0,0,173.4,162.949Z" transform="translate(-152.595 -149.54)" fill="#276787"/>
          <path id="Path_3397" data-name="Path 3397" d="M181.736,243.012a3.284,3.284,0,0,0,.287,1.251c.235-.035.475-.048.712-.068-.034,0-.142-.287-.156-.323a2.384,2.384,0,0,1-.109-.362,4.717,4.717,0,0,1-.091-.727c0-.078.056-.9.182-.9a4.73,4.73,0,0,1-.664-.069,2.271,2.271,0,0,0-.17,1Q181.731,242.916,181.736,243.012Z" transform="translate(-159.464 -204.356)" fill="#546282"/>
          <path id="Path_3398" data-name="Path 3398" d="M186.27,170.335q-.02.142-.041.284-.42,2.874-.675,5.77A101.232,101.232,0,0,0,185.2,188c.02.74-.253,1.439.426,1.886a6.669,6.669,0,0,0,2.357.9,7.4,7.4,0,0,0,4.926-.725,3.822,3.822,0,0,0,1.371-1.156c.923-1.366.065-3.023.249-4.491.074-.588.3-1.175.391-1.772.257-1.664.507-3.328.732-5a96.9,96.9,0,0,0,.911-9.932,5.627,5.627,0,0,1,.111-.946,3.9,3.9,0,0,1,.1-.612.5.5,0,0,1,.171-.221c.019-.013.221-.118.233-.083a1.232,1.232,0,0,0-.443-.573c-.237-.175-1.223-.852-1.487-.99q-1.161-.607-2.335-1.191c-.778-.387-1.559-.767-2.354-1.12-.214-.1-.43-.188-.648-.276-.036-.014-.485-.168-.484-.176-.15,1.46-1.564,2.341-2.107,3.666A21.516,21.516,0,0,0,186.27,170.335Z" transform="translate(-161.819 -149.308)" fill="#02667e"/>
          <path id="Path_3399" data-name="Path 3399" d="M189.032,162.952a10.011,10.011,0,0,0,1.514-1.712,1.5,1.5,0,0,0,.172-1.157q-.093-.45-.23-.89c.041.129.313.231.418.3a4.276,4.276,0,0,1,1.356,1.266,1.99,1.99,0,0,1,.261,1.619,2.961,2.961,0,0,1-.665,1.047c-.091.111-.79,1-.912.945l.881.367q-.379.37-.741.757a18.932,18.932,0,0,0-2.885,3.985,15.013,15.013,0,0,0-.974,2.241q-.2.578-.339,1.172c-.092.383-.157.756-.275,1.133a5.479,5.479,0,0,1-.025-.982c0-.365.013-.729.023-1.094q.033-1.148.16-2.291a28.2,28.2,0,0,1,.891-4.56,5.084,5.084,0,0,1,.494-1.206A7.835,7.835,0,0,1,189.032,162.952Z" transform="translate(-162.79 -147.709)" fill="#219ebc"/>
          <g id="Group_1942" data-name="Group 1942" transform="translate(19.765 14.849)">
            <path id="Path_3400" data-name="Path 3400" d="M177.624,170.044a97.2,97.2,0,0,0-3.276,22.489c-.189-.052-.378-.115-.567-.183a97.578,97.578,0,0,1,3.288-22.454Z" transform="translate(-173.781 -169.895)" fill="#faf9ed"/>
          </g>
          <path id="Path_3401" data-name="Path 3401" d="M174.051,179.895l-3.475,13.238,1.332,5.467,2.006-4.475,1.143-13.809Z" transform="translate(-151.818 -161.902)" fill="#02667e"/>
          <path id="Path_3402" data-name="Path 3402" d="M180.8,173.481a.527.527,0,0,0,.307.534,1.481,1.481,0,0,0,.734.236c.407.018.64-.4.839-.707a7.589,7.589,0,0,0,.648-1.226.819.819,0,0,0,.088-.429,1.083,1.083,0,0,0-.319-.494c-.228-.264-.426-.607-.767-.68-.472-.1-1.016.44-1.238.821A3.585,3.585,0,0,0,180.8,173.481Z" transform="translate(-158.817 -155.599)" fill="#02667e"/>
          <path id="Path_3403" data-name="Path 3403" d="M181.655,152.075l.013.013a.217.217,0,0,0,.146.033c.254-.006.507-.05.761-.045a4.9,4.9,0,0,1,1.285.3,2.453,2.453,0,0,0,1.3.118,2.522,2.522,0,0,0,1.18-.849,4.885,4.885,0,0,0,1.005-1.532,1.472,1.472,0,0,0,.065-.994,3.285,3.285,0,0,0-.367-.61,5.566,5.566,0,0,1-.548-2.167q-.23-1.307-.46-2.615a7.726,7.726,0,0,1-.591,1.4,19.612,19.612,0,0,1-1.186,2,4.617,4.617,0,0,1-1.1,1.232c-.553.39-1.2.6-1.445,1.3-.178.5.156,1.007.092,1.52-.031.248-.168.462-.185.726A.238.238,0,0,0,181.655,152.075Z" transform="translate(-159.387 -137.103)" fill="#ffbf99"/>
          <path id="Path_3404" data-name="Path 3404" d="M189.172,158.126c-.023.035-.047.069-.07.1a5.874,5.874,0,0,1-1.477,1.5,7.3,7.3,0,0,1-1.985.886,2.8,2.8,0,0,0,.462,1.179c.048.093.592,1.1.583,1.1a8.353,8.353,0,0,0,1.635-1.122,9.93,9.93,0,0,0,1.693-1.687,2.9,2.9,0,0,0,.52-1.018,1.459,1.459,0,0,0-.141-1.111,2.192,2.192,0,0,1-.161-.258,1.813,1.813,0,0,1-.1-.408,1.817,1.817,0,0,0-.632-1,3.077,3.077,0,0,1-.02,1.2A2.3,2.3,0,0,1,189.172,158.126Z" transform="translate(-162.146 -145.719)" fill="#faf9ed"/>
          <path id="Path_3405" data-name="Path 3405" d="M180.763,164.733a.681.681,0,0,0,.058.076,6.565,6.565,0,0,0,.679.538c.089.077.275.184.155.3-.1.091-.312.1-.432.158a1.951,1.951,0,0,0-.576.58,3.975,3.975,0,0,1-.949,1.032c.046-.03.066-.279.077-.335q.035-.179.057-.361a2.914,2.914,0,0,0,.02-.686,3.261,3.261,0,0,1,.025-1.388,2.144,2.144,0,0,1,.8-1.15,2.945,2.945,0,0,0-.081.66A1.135,1.135,0,0,0,180.763,164.733Z" transform="translate(-158.072 -150.658)" fill="#faf9ed"/>
          <path id="Path_3406" data-name="Path 3406" d="M170.764,137.578a2.353,2.353,0,0,1,.225.747,13.2,13.2,0,0,0,1.354,4.418,1.79,1.79,0,0,0,.326.534,1.273,1.273,0,0,0,1.191.258,5.164,5.164,0,0,0,1.159-.517c.522-.271,1.071-.492,1.572-.8a2.933,2.933,0,0,0,1.2-1.259,3.558,3.558,0,0,0,.23-1.346.247.247,0,0,1,.026-.128c.048-.077.157-.078.247-.086a1,1,0,0,0,.692-.429,2.338,2.338,0,0,0,.334-.765,7.239,7.239,0,0,0,.235-1.258,2.648,2.648,0,0,0-.039-.925,1.179,1.179,0,0,0-.525-.738,1.833,1.833,0,0,0-.82-.17l-1.132-.056a2.224,2.224,0,0,1-.881-.165c-.743-.365-.891-1.43-1.6-1.856a1.9,1.9,0,0,0-1.7.043,3.561,3.561,0,0,0-.609.332c-.114.079-.24.236-.387.249-.163.014-.882-.5-.743-.69a3.308,3.308,0,0,0-.486,1.515,9.4,9.4,0,0,0-.131,1.812,4.021,4.021,0,0,0,.208,1.122C170.723,137.475,170.744,137.527,170.764,137.578Z" transform="translate(-151.759 -129.649)" fill="#ffdfcc"/>
          <path id="Path_3407" data-name="Path 3407" d="M170.671,127.7a13.283,13.283,0,0,0,1.623-.418,3.134,3.134,0,0,1,2.06-.011.244.244,0,0,1,.119.088.259.259,0,0,1,.021.144,2.246,2.246,0,0,0,.349,1.638c.719.893,2.028,1.284,2.463,2.345a4.109,4.109,0,0,1,.229-1.174c.179-.437.714-1.122,1.065-.448a2.711,2.711,0,0,1,.2,1.309,6,6,0,0,0,.839-6.162,4.468,4.468,0,0,0-2.725-2.09,6.084,6.084,0,0,0-6.889,2.83c-.294.54-.934,2,.227,1.983A3.312,3.312,0,0,0,170.671,127.7Z" transform="translate(-151.136 -122.667)" fill="#023047"/>
          <path id="Path_3408" data-name="Path 3408" d="M203.75,259.779a7.272,7.272,0,0,0-.228,1.3,5.059,5.059,0,0,1-.287,1.061c-.049.126-.1.287,0,.382a.279.279,0,0,0,.231.053,1.015,1.015,0,0,0,.665-.433,3.018,3.018,0,0,0,.355-.732,3.458,3.458,0,0,1-.158.917,1.179,1.179,0,0,1-.59.69c-.1.046-.236.1-.239.211,0,.089.084.153.164.192a1.284,1.284,0,0,0,.542.127.6.6,0,0,1,.158.013.644.644,0,0,1,.121.057,2.177,2.177,0,0,0,1.417.054c.235-.044.5-.113.6-.33a.53.53,0,0,1,.074-.148.455.455,0,0,1,.176-.088c.263-.106.387-.406.61-.58.06-.047.127-.085.186-.134a1.073,1.073,0,0,0,.253-.358,6.477,6.477,0,0,0,.585-2.535c.048-.872,0-1.747.019-2.62a1.178,1.178,0,0,1-.788.35,1.793,1.793,0,0,1-.856-.181,2.087,2.087,0,0,0-.678-.261c-.537-.044-.675.628-.906.975-.294.442-.677.814-.993,1.239A2.955,2.955,0,0,0,203.75,259.779Z" transform="translate(-174.17 -214.617)" fill="#ffdfcc"/>
          <path id="Path_3409" data-name="Path 3409" d="M214.844,180.9a23.415,23.415,0,0,0-.954-6.536c-.612-1.67-1.853-.35-2.462.58a13.717,13.717,0,0,0-2.023,5.111,1.259,1.259,0,0,0-.018.49,1.6,1.6,0,0,0,.232.466,8.768,8.768,0,0,1,.82,4.168c.06,1.1.2,2.2.186,3.3s-.106,2.236-.176,3.314c-.044.675-.112,1.348-.192,2.02-.115.974-.616,5.171-.643,5.626a2.312,2.312,0,0,0-.024.712c.1.294.627.493.89.594a3.627,3.627,0,0,0,1.231.228,2.059,2.059,0,0,0,.834-.13.762.762,0,0,0,.547-.617c.089-.635,1.468-6.36,1.748-7.661a19.819,19.819,0,0,0,.41-5.926C215.082,184.747,214.973,182.816,214.844,180.9Z" transform="translate(-178.415 -157.563)" fill="#219ebc"/>
          <path id="Path_3410" data-name="Path 3410" d="M171.518,240.2a1.151,1.151,0,0,0,0,.287c.023.271.063.543.094.813s.018.482.3.6l1.032.415a2,2,0,0,0,.426.168c.168.022.149-.158.13-.28a6.211,6.211,0,0,1-.074-1,.693.693,0,0,0-.121-.478.877.877,0,0,0-.3-.2c-.376-.169-.791-.247-1.156-.439C171.627,239.963,171.545,240.054,171.518,240.2Z" transform="translate(-152.457 -203.126)" fill="#faf9ed"/>
        </g>
      </g>
      <g id="Group_1949" data-name="Group 1949" transform="translate(0 9.042)">
        <ellipse id="Ellipse_436" data-name="Ellipse 436" cx="5.539" cy="9.595" rx="5.539" ry="9.595" transform="matrix(0.005, -1, 1, 0.005, 4.952, 81.061)" fill="#80c7d8" style="mix-blend-mode: multiply;isolation: isolate"/>
        <g id="Group_1948" data-name="Group 1948" transform="translate(0)">
          <path id="Path_3411" data-name="Path 3411" d="M77.269,385.731a3.35,3.35,0,0,0-.119-.653c.039.135-.209.2-.286.183-.157-.031-.29-.155-.453-.184a3.2,3.2,0,0,0-.849,0,11.561,11.561,0,0,1-2.405.023,5.234,5.234,0,0,1-2.262-.765c-.185-.121-.426-.26-.608-.134a.585.585,0,0,0-.174.279,2.813,2.813,0,0,1-1.044,1.273c-.405.268-.857.452-1.271.706a2.857,2.857,0,0,0-.584.461c-.084.088-.13.208-.213.3s-.188.155-.235.291a1.379,1.379,0,0,0-.012.576,1.963,1.963,0,0,0,.2.9,1.667,1.667,0,0,0,1.656.647,15.445,15.445,0,0,0,1.815-.494c1.759-.431,3.638.044,5.33-.741a2.335,2.335,0,0,0,1.411-1.5A3.459,3.459,0,0,0,77.269,385.731Z" transform="translate(-54.983 -310.982)" fill="#404b63"/>
          <path id="Path_3412" data-name="Path 3412" d="M77.217,384.734a2.116,2.116,0,0,1-1.277,1.432,8.935,8.935,0,0,1-1.758.5,8.72,8.72,0,0,1-1.283.1,11.814,11.814,0,0,0-2.423.212,15.653,15.653,0,0,1-1.81.493A1.681,1.681,0,0,1,67,386.824a1.914,1.914,0,0,1,.075-1.85,3.245,3.245,0,0,1,1.174-.905c.286-.155.584-.3.865-.481a2.792,2.792,0,0,0,1.043-1.272.62.62,0,0,1,.178-.28c.183-.126.424.011.607.137a4.686,4.686,0,0,0,.47.263,5.6,5.6,0,0,0,1.747.493c.017,0,.029.006.046.006a11.66,11.66,0,0,0,2.406-.023,1.782,1.782,0,0,1,1.392.246A1.579,1.579,0,0,1,77.217,384.734Z" transform="translate(-55.034 -309.496)" fill="#546282"/>
          <path id="Path_3413" data-name="Path 3413" d="M83.532,384.44l-.114-.017c-.4-.052-.808-.08-1.214-.137a.908.908,0,0,1-.687-.424.733.733,0,0,1-.063-.441,5.6,5.6,0,0,0,1.747.493.39.39,0,0,0,.057.252A1.05,1.05,0,0,0,83.532,384.44Z" transform="translate(-65.073 -310.479)" fill="#faf9ed"/>
          <path id="Path_3414" data-name="Path 3414" d="M74.3,389.131a1.708,1.708,0,0,0-1.4.808,11.814,11.814,0,0,0-2.423.212,15.672,15.672,0,0,1-1.81.493A1.681,1.681,0,0,1,67,390a1.914,1.914,0,0,1,.075-1.85,3.244,3.244,0,0,1,1.174-.905,2.458,2.458,0,0,1,.292.012A2.525,2.525,0,0,0,69.9,387.2c.258-.131.447-.378.716-.5a2.248,2.248,0,0,1,1.26.023,12.57,12.57,0,0,0,1.65.269A2.337,2.337,0,0,0,74.3,389.131Z" transform="translate(-55.034 -312.668)" fill="#faf9ed"/>
          <g id="Group_1945" data-name="Group 1945" transform="translate(17.32 73.323)">
            <path id="Path_3415" data-name="Path 3415" d="M85.242,386.285a.114.114,0,0,1-.047-.042,1.145,1.145,0,0,1-.057-.259,2.616,2.616,0,0,0-.177-.481,2.136,2.136,0,0,0-.261-.413c-.05-.061-.11-.117-.167-.173-.088-.088-.1-.195.019-.259a.167.167,0,0,1,.064-.022c.147-.016.278.193.356.293a2.514,2.514,0,0,1,.276.449,2.9,2.9,0,0,1,.184.492c.035.127.125.352-.05.421A.183.183,0,0,1,85.242,386.285Z" transform="translate(-84.465 -384.636)" fill="#546282"/>
          </g>
          <g id="Group_1946" data-name="Group 1946" transform="translate(16.395 73.361)">
            <path id="Path_3416" data-name="Path 3416" d="M82.3,386.406a.112.112,0,0,1-.047-.042,1.129,1.129,0,0,1-.057-.258,2.6,2.6,0,0,0-.177-.481,2.137,2.137,0,0,0-.262-.412,2.272,2.272,0,0,0-.166-.173c-.088-.088-.1-.2.019-.26a.175.175,0,0,1,.064-.022c.148-.016.278.193.356.293a2.5,2.5,0,0,1,.276.449,2.927,2.927,0,0,1,.184.492c.035.128.125.352-.05.421A.183.183,0,0,1,82.3,386.406Z" transform="translate(-81.521 -384.757)" fill="#546282"/>
          </g>
          <path id="Path_3417" data-name="Path 3417" d="M53.234,382.966a2.342,2.342,0,0,0,.159.86,1.3,1.3,0,0,0,1.127.75,3.472,3.472,0,0,0,2.061-.444c.564-.325,1.03-.807,1.61-1.1.982-.5,2.223-.429,3.089-1.109a1.209,1.209,0,0,0,.3-.325,1.009,1.009,0,0,0,.125-.367,1.642,1.642,0,0,0-.873-1.576,1.983,1.983,0,0,0-1.723-.137,4.086,4.086,0,0,0-.8.508,8.162,8.162,0,0,1-1.984,1.106c-.517.189-1.074.254-1.6.407a3.408,3.408,0,0,0-.8.328,1.659,1.659,0,0,0-.31.235c-.037.036-.081.126-.114.15-.076.053-.1-.008-.186-.078A3.586,3.586,0,0,0,53.234,382.966Z" transform="translate(-45.733 -307.709)" fill="#404b63"/>
          <path id="Path_3418" data-name="Path 3418" d="M53.313,380.461a1.733,1.733,0,0,0,.322,1.179,1.465,1.465,0,0,0,.94.432,3.472,3.472,0,0,0,2.061-.444c.564-.325,1.03-.807,1.61-1.1.982-.5,2.223-.429,3.089-1.109a1.209,1.209,0,0,0,.3-.325,1.009,1.009,0,0,0,.125-.367,1.642,1.642,0,0,0-.873-1.576,1.983,1.983,0,0,0-1.723-.137,4.087,4.087,0,0,0-.8.508,8.165,8.165,0,0,1-1.984,1.106C55.418,378.978,53.3,379,53.313,380.461Z" transform="translate(-45.787 -305.992)" fill="#faf9ed"/>
          <path id="Path_3419" data-name="Path 3419" d="M43.746,272.944q.044.308.09.615a5.011,5.011,0,0,0,.416,1.383,5.391,5.391,0,0,0,.352.637c.088.137.369.4.393.543A4.9,4.9,0,0,1,45.459,274a7.464,7.464,0,0,0,.256-1.9,4.24,4.24,0,0,0-.144-1.457,1.686,1.686,0,0,0-.934-1.074.879.879,0,0,0-1.236.9Q43.571,271.711,43.746,272.944Z" transform="translate(-38.985 -232.379)" fill="#ffbf99"/>
          <g id="Group_1947" data-name="Group 1947" transform="translate(0 39.047)">
            <path id="Path_3420" data-name="Path 3420" d="M40.32,287.468a.831.831,0,0,1-.163.133,15.919,15.919,0,0,1-1.56.722c-1.093.517-4.119,1.606-5.264,2a1.71,1.71,0,0,1-1.653-.048c-.267-.23-.371-.6-.611-.857a1.085,1.085,0,0,0-1.288-.2c-.107-.073-.189-.14-.189-.269q0-1.632-.135-3.261a9.057,9.057,0,0,1-.047-1.856c.173-1.432,1.264-2.073,2.443-2.7a27.686,27.686,0,0,1,5.769-1.9,2.411,2.411,0,0,1,1.329.063c1.1.472,1.347,2.142,1.559,3.188a12.9,12.9,0,0,1,.191,3.873A1.88,1.88,0,0,1,40.32,287.468Z" transform="translate(-29.376 -278.056)" fill="#525252"/>
            <path id="Path_3421" data-name="Path 3421" d="M30.676,291.786a4.99,4.99,0,0,1,.126-.63,1.09,1.09,0,0,1,.468-.617.99.99,0,0,1,.925.2,2.34,2.34,0,0,1,.653,1.087,10.953,10.953,0,0,1,.609,3.992c-.018.52.014,1.484-.62,1.688a.449.449,0,0,1-.326-.006.718.718,0,0,1-.275-.329,1.409,1.409,0,0,0-.457-.526c-.242-.15-.563.049-.79-.137-.194-.159-.187-.379-.21-.607q-.043-.438-.074-.877-.063-.9-.074-1.8A8.235,8.235,0,0,1,30.676,291.786Z" transform="translate(-30.229 -285.813)" fill="#33322e"/>
            <path id="Path_3422" data-name="Path 3422" d="M36.78,280.056q-.246.081-.49.171c-1.048.382-2.108.779-3.124,1.24a4.044,4.044,0,0,0-1.689,1.25.353.353,0,0,0-.084.224.077.077,0,0,0,.012.037.07.07,0,0,0,.029.023c.079.038.17-.007.252-.04a1.24,1.24,0,0,1,.579-.074,1.2,1.2,0,0,1,.474.2,2.125,2.125,0,0,1,.736.813,1.417,1.417,0,0,0,.434.641,1.03,1.03,0,0,0,.759.024,63.512,63.512,0,0,0,6.182-2.536c.3-.158.717-.245.641-.639a2.632,2.632,0,0,0-.554-1.268,1.6,1.6,0,0,0-.428-.373,1.864,1.864,0,0,0-1.077-.265A9.933,9.933,0,0,0,36.78,280.056Z" transform="translate(-30.758 -278.268)" fill="#707070"/>
            <path id="Path_3423" data-name="Path 3423" d="M43.02,275.8a1.98,1.98,0,0,1,.957,1.149c.107.331.271.948-.143,1.133a.414.414,0,0,1-.459-.058.653.653,0,0,1-.127-.262,2.136,2.136,0,0,0-.371-.732,1.021,1.021,0,0,0-.705-.384,1.073,1.073,0,0,0-.923.56,2.844,2.844,0,0,0-.317,1.081c-.056.389-.055,1.054-.6,1.076-1.1.045-.533-1.882-.209-2.417A2.389,2.389,0,0,1,43.02,275.8Z" transform="translate(-36.447 -275.617)" fill="#33322e"/>
          </g>
          <path id="Path_3424" data-name="Path 3424" d="M37.182,198.321a4.924,4.924,0,0,0-.5.1c-1.56.4-2.032,1.915-2.284,3.369a25.147,25.147,0,0,0-.081,5.083,51.143,51.143,0,0,0,.806,7.817q.392,2.1.953,4.165c.221.813.36,1.65.653,2.442a1.508,1.508,0,0,0,.217.506,1.037,1.037,0,0,0,.512.172,1.573,1.573,0,0,0,1.786-1.23c.1-.461-.211-.879-.295-1.323a5.721,5.721,0,0,1-.114-1.855,19.505,19.505,0,0,0,.174-2.081,10.089,10.089,0,0,0-.042-1.969,7.986,7.986,0,0,0-.458-1.624,6.276,6.276,0,0,0-.789-1.546c-.066-.089-.141-.172-.215-.254a6.189,6.189,0,0,1-.167-.819,44.522,44.522,0,0,1-.4-4.909c-.03-.821-.025-1.646-.071-2.466a5.956,5.956,0,0,1,.409-2.43,2.361,2.361,0,0,1,.775-1.055,1.121,1.121,0,0,0,.231-.19C37.92,198.245,37.548,198.266,37.182,198.321Z" transform="translate(-32.704 -183.51)" fill="#faf9ed"/>
          <path id="Path_3425" data-name="Path 3425" d="M53.006,290.644v-.179q.027-3.957.19-7.911a27.76,27.76,0,0,0,.186-3.87c-.12-1.133-.421-2.253-.485-3.408-.1-1.751.133-3.5.1-5.257a17.571,17.571,0,0,0-1.5-6.781,4.379,4.379,0,0,0-1.047-1.587,2.16,2.16,0,0,0-1.85-.486,2.336,2.336,0,0,0-.881.389c-.111.079-.238.261-.361.308-.144.055-.283-.053-.412,0-.077.031-.1.124-.12.206-.146.717-.222,1.467-.417,2.164a12.817,12.817,0,0,0-.464,2.1,10.269,10.269,0,0,0,.123,3.021c.156.81.408,1.6.615,2.4a32.864,32.864,0,0,1,.841,5.166,22.885,22.885,0,0,1,.132,4.962c-.193,1.594-.467,3.195-.5,4.8-.031,1.35.069,2.821.123,4.157q.044,1.088.11,2.175c.073,1.2.491,6.333.528,6.805a1.012,1.012,0,0,0,.547.9,2.443,2.443,0,0,0,1.17.337,6.168,6.168,0,0,0,3.286-.986c.277-.157.224-.656.215-.919-.016-.433,0-.868-.018-1.3-.024-.49-.059-.98-.068-1.471Q52.989,293.514,53.006,290.644Z" transform="translate(-40.693 -226.632)" fill="#59242c"/>
          <path id="Path_3426" data-name="Path 3426" d="M66.932,265.88q-.136-4-.649-7.971-.127-.987-.278-1.97a4.428,4.428,0,0,1-.536,1.261,2.85,2.85,0,0,1-1.448.636,14.983,14.983,0,0,0-1.839.727,8.73,8.73,0,0,1-4.21.395,4.831,4.831,0,0,0-1.488-.122c-1.05.165-1.055,1.045-1.189,1.9a16.727,16.727,0,0,0-.25,3.271,7.345,7.345,0,0,0,1.227,3.973c.389.545.874,1.018,1.251,1.572a9.166,9.166,0,0,1,1.236,3.73,43.626,43.626,0,0,1,.268,11.072c-.1,1.113-.167,2.228-.207,3.345-.08,2.253-.053,4.508.014,6.76q.041,1.357.1,2.713a6.1,6.1,0,0,0,.072,1.1.98.98,0,0,0,.79.763,4.85,4.85,0,0,0,3.47-.378,1.318,1.318,0,0,0,.844-1.035c.081-.708.063-1.409.091-2.12.109-2.784.484-5.548.733-8.321.13-1.455.836-7.178,1.1-8.532a49.287,49.287,0,0,0,.942-9.063Q67,267.733,66.932,265.88Z" transform="translate(-46.968 -223.079)" fill="#7d444d"/>
          <path id="Path_3427" data-name="Path 3427" d="M40.651,193.583c-1.739.186-3.656.474-3.524,2.634a29.486,29.486,0,0,0,.632,4.067l2.563,12.6c.241,1.185.19,2.188,1.284,2.865a15.2,15.2,0,0,0,2.224,1.134,8.628,8.628,0,0,1,2.282.848c-.023-.063-.054-.122-.083-.183a16.152,16.152,0,0,0,5.589.165,10.949,10.949,0,0,0,1.719-.524c.269-.1.594-.171.711-.468a5.239,5.239,0,0,0,.153-1.785q.01-1.092-.013-2.184c-.082-3.762-.872-7.573-.208-11.321q.065-.365.149-.727a11.768,11.768,0,0,1,.344-1.19,1.8,1.8,0,0,1,.424-.79,1.193,1.193,0,0,1,.628-.194,27.593,27.593,0,0,0-3.914-2.3,4.893,4.893,0,0,1-2.569-2.411,1.155,1.155,0,0,0-.312-.611.971.971,0,0,0-.5-.137,10.871,10.871,0,0,1-2.336-.484c-.544-.176-1.429-.812-2-.7-.492.1-.819.789-1.22,1.064A4.4,4.4,0,0,1,40.651,193.583Z" transform="translate(-34.686 -179.159)" fill="#f3e7d1"/>
          <path id="Path_3428" data-name="Path 3428" d="M65.581,166.788c-.017.279-.017.56-.028.84a10.338,10.338,0,0,1-.234,1.808,2.206,2.206,0,0,1-.489,1.092,9.521,9.521,0,0,1-1.1.712,2.061,2.061,0,0,0-.75,1.117,1.953,1.953,0,0,0,.021.726c.039.194-.038.271-.269.2a17.647,17.647,0,0,0-4.18-1.134,8.411,8.411,0,0,1-1.062-.069A.366.366,0,0,1,57.3,172c-.143-.137.044-.528.079-.685a7.141,7.141,0,0,0,.113-2.38,7.636,7.636,0,0,1-.167-2.15.323.323,0,0,0,.378-.012c.022-.022.1-.318.179-.278a2.251,2.251,0,0,0,1.885-.16,9.456,9.456,0,0,0,4.065-3.419,2.252,2.252,0,0,1,.744-.827.593.593,0,0,1,.931.327,1.16,1.16,0,0,0,.339.521c.1.1.44.35.434.506a1.348,1.348,0,0,1-.022.98,16.577,16.577,0,0,0-.6,1.785A4.4,4.4,0,0,0,65.581,166.788Z" transform="translate(-48.481 -158.662)" fill="#ffdfcc"/>
          <path id="Path_3429" data-name="Path 3429" d="M55.49,162.9a2.547,2.547,0,0,0,2.472-.88,9.456,9.456,0,0,0,1.127-1.62c.236-.395.569-1.136,1.1-1.193a.659.659,0,0,1,.616.313,2.01,2.01,0,0,1,.129.9c0,.065.05.153.108.126a.1.1,0,0,0,.044-.068,5.265,5.265,0,0,0,.13-.657c.069-.444.1-.915.209-1.35a2.862,2.862,0,0,1,.591-.981,3.17,3.17,0,0,0,.012-3.77,4.84,4.84,0,0,0-2.9-2.066,5.684,5.684,0,0,0-6.54,2.412,5.765,5.765,0,0,0-.751,3.161,8.741,8.741,0,0,0,.783,3.156,4.3,4.3,0,0,0,2.227,2.325A3.661,3.661,0,0,0,55.49,162.9Z" transform="translate(-44.771 -151.426)" fill="#7d444d"/>
          <path id="Path_3430" data-name="Path 3430" d="M55.819,190.636c-.06.187-.135.472.057.609a.783.783,0,0,0,.25.109,12.271,12.271,0,0,0,1.656.281c.844.115,1.68.28,2.509.477A3.233,3.233,0,0,1,62.4,193.2a11.622,11.622,0,0,1-.144-1.542,1.259,1.259,0,0,0-.047-.381c-.146-.42-.782-.538-1.154-.625a9.978,9.978,0,0,0-1.563-.2,8.221,8.221,0,0,1-2.629-.456,1.461,1.461,0,0,1-.247-.128.628.628,0,0,1-.159-.181.14.14,0,0,0-.059-.064.105.105,0,0,0-.106.029.423.423,0,0,0-.087.13,7.571,7.571,0,0,0-.334.724C55.849,190.546,55.833,190.591,55.819,190.636Z" transform="translate(-47.46 -177.607)" fill="#faf9ed"/>
          <path id="Path_3431" data-name="Path 3431" d="M115.479,236.025a2.578,2.578,0,0,0,1.152-.4c.341-.213.63-.5.989-.689.215-.111.448-.181.663-.291a1,1,0,0,0,.5-.5c.025-.065.027-.158-.037-.183a.155.155,0,0,0-.067,0,4.111,4.111,0,0,1-1.677-.351,1.266,1.266,0,0,1-.477-.255c-.174-.171-.25-.443-.468-.552a2.172,2.172,0,0,1-.319-.126.4.4,0,0,1-.146-.328,1.953,1.953,0,0,1,.383-.843,2.292,2.292,0,0,0,.341-.916.534.534,0,0,0-.135-.443.428.428,0,0,0-.424-.062.849.849,0,0,0-.352.271,6.314,6.314,0,0,0-.568.99c-.345.616-.859,1.131-1.154,1.773a4.216,4.216,0,0,1-.793,1.558,2.515,2.515,0,0,1,.732.364,1.068,1.068,0,0,1,.423.679.783.783,0,0,0,.074.345c.116.172.392.157.574.139C114.96,236.182,115.214,236.059,115.479,236.025Z" transform="translate(-86.637 -205.337)" fill="#ffdfcc"/>
          <path id="Path_3432" data-name="Path 3432" d="M93.916,221.622a1.562,1.562,0,0,0-.8-.673c-.425-.151-.557-.063-.793.262a2.939,2.939,0,0,1-1.757.919,13.808,13.808,0,0,1-1.985.372c-.1-1.254-.307-2.5-.515-3.746-.2-1.205-.4-2.41-.646-3.608-.225-1.113-.54-4.422-2.464-3.065a6,6,0,0,0-1.386,1.535,6.57,6.57,0,0,0-.992,2.358,8.838,8.838,0,0,0,.287,3.975,22.684,22.684,0,0,0,2.046,5.155,4.866,4.866,0,0,0,1.36,1.73,2.662,2.662,0,0,0,2.481.118,13.537,13.537,0,0,0,4.83-2.758A2.005,2.005,0,0,0,93.916,221.622Z" transform="translate(-65.77 -192.79)" fill="#faf9ed"/>
          <path id="Path_3433" data-name="Path 3433" d="M48.083,265.175q0,.118.007.236c.038.815,1,1.19,1.62,1.549a15.574,15.574,0,0,0,6.444,1.868,9.6,9.6,0,0,0,4.974-.8,1.517,1.517,0,0,0,.762-.631,1.587,1.587,0,0,0,.068-.895,6.646,6.646,0,0,0-.251-1.1,7.336,7.336,0,0,1-5.536,1.49,20.979,20.979,0,0,1-3.655-.775,11.363,11.363,0,0,1-4.009-1.959.315.315,0,0,0-.2-.1C48.017,264.069,48.08,264.987,48.083,265.175Z" transform="translate(-42.196 -228.647)" fill="#33322e"/>
          <path id="Path_3434" data-name="Path 3434" d="M82.77,273.934a.114.114,0,0,0,.091-.129,8.613,8.613,0,0,0-.03-1.208,3.4,3.4,0,0,0-.12-.593c-.031-.1-.1-.44-.236-.452a.211.211,0,0,0-.084.016,4.572,4.572,0,0,0-.6.239.125.125,0,0,0-.055.043c-.029.05.114.249.138.311a4.413,4.413,0,0,1,.246.949,4.7,4.7,0,0,1,.024.655c0,.069-.033.287.01.341C82.23,274.207,82.684,273.971,82.77,273.934Z" transform="translate(-65.269 -233.783)" fill="#7d444d"/>
          <path id="Path_3435" data-name="Path 3435" d="M54.992,271.837a4.742,4.742,0,0,0,.078.479.219.219,0,0,0,.046.108.215.215,0,0,0,.1.049,3.192,3.192,0,0,0,.632.118c-.041,0-.1-.394-.112-.44a2.971,2.971,0,0,1-.043-.506,4.765,4.765,0,0,1,.716-2.7L56.1,268.8c-.064-.03-.208-.135-.278-.129-.136.012-.264.28-.318.385a4.848,4.848,0,0,0-.391,1.044A4.925,4.925,0,0,0,54.992,271.837Z" transform="translate(-46.918 -231.81)" fill="#7d444d"/>
        </g>
      </g>
      <g id="Group_1960" data-name="Group 1960" transform="translate(63.828 2.362)">
        <path id="Path_3436" data-name="Path 3436" d="M268.648,360.331a15,15,0,0,1-13.569-.025c-3.759-2.17-3.778-5.678-.042-7.834a15,15,0,0,1,13.569.025C272.364,354.667,272.383,358.175,268.648,360.331Z" transform="translate(-246.003 -281.478)" fill="#02667e" style="mix-blend-mode: multiply;isolation: isolate"/>
        <g id="Group_1959" data-name="Group 1959" transform="translate(0)">
          <path id="Path_3437" data-name="Path 3437" d="M250.62,177.508c.12-.2.245-.4.37-.6a9.338,9.338,0,0,1,1.423-1.784,3.8,3.8,0,0,1,1.775-1.05,8.768,8.768,0,0,0-4.61,1.852c-1.654,1.487-2,4.078-2.486,6.123-.526,2.193-2.287,10.515-2.662,11.743a1.135,1.135,0,0,0,.026.861c.135.34.4.379.735.384a4.565,4.565,0,0,1,1.437.256,1.3,1.3,0,0,1,.73.5,9.983,9.983,0,0,0,2.153-6.055,3.932,3.932,0,0,0-.116-.95c.119.023.238.044.356.073a31.857,31.857,0,0,1,.094-8.749,6.1,6.1,0,0,1,.274-1.655A9.314,9.314,0,0,1,250.62,177.508Z" transform="translate(-240.594 -160.275)" fill="#02667e"/>
          <path id="Path_3438" data-name="Path 3438" d="M236.17,236.27a5.86,5.86,0,0,0-1.581.3,8.773,8.773,0,0,1-1.569.372,1.453,1.453,0,0,0-.372.066.391.391,0,0,0-.253.261.37.37,0,0,0,.148.352.859.859,0,0,0,.37.149,2.722,2.722,0,0,0,1.216-.03.869.869,0,0,1,.507-.042.614.614,0,0,1,.295.677,4.778,4.778,0,0,1-.407,1.133,3.929,3.929,0,0,0-.275,1.364,1.088,1.088,0,0,0,.087.522.454.454,0,0,0,.427.265.6.6,0,0,1,.135-.014.344.344,0,0,1,.185.118.925.925,0,0,0,.35.235.411.411,0,0,0,.4-.068.43.43,0,0,0,.473.11,1.08,1.08,0,0,0,.414-.3.346.346,0,0,1,.174-.121.471.471,0,0,1,.119,0,1.042,1.042,0,0,0,.63-.217,4.044,4.044,0,0,0,1.693-2.184,2.15,2.15,0,0,0,.1-.87,1.216,1.216,0,0,0-.383-.773,2.716,2.716,0,0,0-.759-.383,7.907,7.907,0,0,1-.879-.614A2.4,2.4,0,0,0,236.17,236.27Z" transform="translate(-232.388 -202.914)" fill="#ffbf99"/>
          <g id="Group_1953" data-name="Group 1953" transform="translate(8.949 69.502)">
            <path id="Path_3439" data-name="Path 3439" d="M270.1,355a1.71,1.71,0,0,1-.287.751,1.94,1.94,0,0,1-1.108.768,9.522,9.522,0,0,0-2.5.774,8.735,8.735,0,0,0-1.234.975,3.771,3.771,0,0,1-2.745,1.117,1.686,1.686,0,0,1-.888-.356,1.358,1.358,0,0,1-.431-.867,3.257,3.257,0,0,1,0-1.162,6.273,6.273,0,0,1,.293-.964c.014.275.278-.047.326-.106a2.715,2.715,0,0,1,.444-.431,8.774,8.774,0,0,1,1.921-.915,3.053,3.053,0,0,0,1.383-1.041c.112-.171.165-.336.364-.419a1.08,1.08,0,0,1,.846.124,2.887,2.887,0,0,0,1.4.25,2.415,2.415,0,0,0,.74-.275,1.612,1.612,0,0,1,.557-.174c.1-.006.177.063.262.067s.188-.109.167-.183c.038.05.09.111.155.106,0-.009,0-.017,0-.026a1.873,1.873,0,0,1,.358,1.11A4.135,4.135,0,0,1,270.1,355Z" transform="translate(-260.852 -352.402)" fill="#faf9ed"/>
            <path id="Path_3440" data-name="Path 3440" d="M270.118,353.168a1.827,1.827,0,0,1-1.349,1.543,9.475,9.475,0,0,0-2.5.774,1.072,1.072,0,0,0-.144.094,9.157,9.157,0,0,0-1.089.879,3.783,3.783,0,0,1-2.743,1.117,1.709,1.709,0,0,1-.89-.354,1.8,1.8,0,0,1-.442-1.559,2.8,2.8,0,0,1,1.073-1.974,4.339,4.339,0,0,1,1-.542c.3-.127.619-.238.923-.371a3.063,3.063,0,0,0,1.388-1.045,2.471,2.471,0,0,1,.188-.293c0-.005.006-.005.006-.005a.468.468,0,0,1,.166-.116,1.084,1.084,0,0,1,.846.122,2.914,2.914,0,0,0,1.4.249,2.388,2.388,0,0,0,.741-.271c.05-.022.116-.05.188-.077a.892.892,0,0,1,.542-.083c.172.061.343.326.431.475A2.258,2.258,0,0,1,270.118,353.168Z" transform="translate(-260.914 -351.236)" fill="#101111"/>
            <path id="Path_3441" data-name="Path 3441" d="M269.99,353.019a17.016,17.016,0,0,1-1.554.835.584.584,0,0,1-.138-.006,3.556,3.556,0,0,1-.514-.193c-.072-.028-.144-.05-.221-.072.3-.127.619-.238.923-.371a3.063,3.063,0,0,0,1.388-1.045,2.462,2.462,0,0,1,.188-.293A2.957,2.957,0,0,0,269.99,353.019Z" transform="translate(-265.453 -351.674)" fill="#a4d7e3"/>
            <path id="Path_3442" data-name="Path 3442" d="M277.141,353.168a1.827,1.827,0,0,1-1.349,1.543,9.476,9.476,0,0,0-2.5.774,1.07,1.07,0,0,0-.144.094,2.745,2.745,0,0,0-.6-.857,1.668,1.668,0,0,0-1.233-.475,5.045,5.045,0,0,1-.122-.641,9.654,9.654,0,0,0,1.277-.713.6.6,0,0,1,.166-.089.657.657,0,0,1,.254-.011,4.754,4.754,0,0,0,.741-.028,3.808,3.808,0,0,0,1.686-.763,2.09,2.09,0,0,0,.581-.663.892.892,0,0,1,.542-.083c.172.061.343.326.431.475A2.257,2.257,0,0,1,277.141,353.168Z" transform="translate(-267.937 -351.236)" fill="#a4d7e3"/>
            <g id="Group_1950" data-name="Group 1950" transform="translate(2.551 1.759)">
              <path id="Path_3443" data-name="Path 3443" d="M270.286,357.772a.1.1,0,0,1-.055-.008c-.059-.028-.118-.118-.168-.163a2.294,2.294,0,0,0-.364-.267,1.873,1.873,0,0,0-.393-.176,2.043,2.043,0,0,0-.207-.046c-.108-.022-.166-.1-.112-.2a.156.156,0,0,1,.036-.048c.1-.084.3.007.4.043a2.216,2.216,0,0,1,.422.2,2.594,2.594,0,0,1,.374.273c.088.076.263.2.168.334A.161.161,0,0,1,270.286,357.772Z" transform="translate(-268.967 -356.831)" fill="#faf9ed"/>
            </g>
            <g id="Group_1951" data-name="Group 1951" transform="translate(3.165 1.474)">
              <path id="Path_3444" data-name="Path 3444" d="M272.237,356.865a.1.1,0,0,1-.055-.008c-.059-.028-.118-.118-.168-.162a2.29,2.29,0,0,0-.364-.267,1.9,1.9,0,0,0-.393-.176,2.11,2.11,0,0,0-.207-.046c-.108-.021-.166-.1-.112-.2a.15.15,0,0,1,.036-.047c.1-.084.3.007.4.043a2.2,2.2,0,0,1,.422.2,2.582,2.582,0,0,1,.374.272c.088.077.263.2.168.334A.163.163,0,0,1,272.237,356.865Z" transform="translate(-270.917 -355.923)" fill="#faf9ed"/>
            </g>
            <g id="Group_1952" data-name="Group 1952" transform="translate(3.795 1.227)">
              <path id="Path_3445" data-name="Path 3445" d="M274.243,356.082a.1.1,0,0,1-.055-.008c-.059-.028-.118-.118-.168-.162a2.262,2.262,0,0,0-.364-.267,1.889,1.889,0,0,0-.393-.176,2.082,2.082,0,0,0-.207-.046c-.108-.021-.166-.1-.112-.2a.149.149,0,0,1,.037-.047c.1-.084.3.007.4.043a2.215,2.215,0,0,1,.422.2,2.574,2.574,0,0,1,.375.273c.088.077.264.2.169.334A.162.162,0,0,1,274.243,356.082Z" transform="translate(-272.923 -355.14)" fill="#faf9ed"/>
            </g>
          </g>
          <g id="Group_1957" data-name="Group 1957" transform="translate(14.377 70.793)">
            <path id="Path_3446" data-name="Path 3446" d="M278.588,362.291c-.052.071-.091.233-.189.246a.25.25,0,0,1-.16-.058,1.8,1.8,0,0,0-.093,1.026,1.465,1.465,0,0,0,.387.92,1.751,1.751,0,0,0,.791.393,3.579,3.579,0,0,0,1.3.042,6.851,6.851,0,0,0,2.783-.986,2.992,2.992,0,0,0,1.2-1.381c.1-.286.133-.592.216-.884a2.461,2.461,0,0,1,.939-1.091,2.289,2.289,0,0,0,.676-.89,2.468,2.468,0,0,0-.645-2.48c.022.023-.069.185-.088.2-.083.085-.111.049-.2-.007-.059-.036-.112-.114-.183-.107s-.107.1-.166.127c-.089.043-.185.04-.282.078a2.758,2.758,0,0,1-1.683.179c-.25-.065-.456-.269-.707-.185a1.579,1.579,0,0,0-.66.5,6,6,0,0,0-.527.8,12.745,12.745,0,0,1-.949,1.355C279.765,360.832,279.14,361.529,278.588,362.291Z" transform="translate(-278.116 -356.58)" fill="#faf9ed"/>
            <path id="Path_3447" data-name="Path 3447" d="M286.4,356.909a1.6,1.6,0,0,1-.007.324c-.011.068-.016.14-.027.208a1.88,1.88,0,0,1-.628,1.182,2.5,2.5,0,0,0-.941,1.09c-.074.257-.1.521-.176.772a.9.9,0,0,1-.035.114,2.989,2.989,0,0,1-1.2,1.378,6.848,6.848,0,0,1-2.787.99,3.642,3.642,0,0,1-1.3-.044,1.758,1.758,0,0,1-.789-.392,1.725,1.725,0,0,1,.054-2.131c.33-.456.685-.886,1.04-1.31.238-.292.481-.591.718-.889a12.3,12.3,0,0,0,.947-1.352,6.062,6.062,0,0,1,.53-.806l.051-.06a1.549,1.549,0,0,1,.6-.439c.254-.088.461.118.711.181a2.717,2.717,0,0,0,1.684-.177,2.178,2.178,0,0,0,.278-.078c.075-.034.1-.131.2-.127a.215.215,0,0,1,.128.062,3.622,3.622,0,0,1,.49.483,2.015,2.015,0,0,1,.279.417c.026.048.047.1.068.15a1.3,1.3,0,0,1,.076.25A1.188,1.188,0,0,1,286.4,356.909Z" transform="translate(-278.149 -355.343)" fill="#101111"/>
            <path id="Path_3448" data-name="Path 3448" d="M285.409,358.22a1.422,1.422,0,0,1-.158.319c-.1.18-.2.362-.3.542-.1.164-.19.333-.288.491a.964.964,0,0,1-.123.2,1.413,1.413,0,0,1-.415.162,4.191,4.191,0,0,0-1.22.54.248.248,0,0,1-.081.034.1.1,0,0,1-.057-.018c-.005,0-.006-.005-.011,0,.238-.292.481-.591.718-.889a12.3,12.3,0,0,0,.947-1.352,6.055,6.055,0,0,1,.53-.806l.051-.06a.715.715,0,0,0,.069.367,1.939,1.939,0,0,0,.149.255C285.237,358.028,285.407,358.2,285.409,358.22Z" transform="translate(-281.296 -356.739)" fill="#a4d7e3"/>
            <path id="Path_3449" data-name="Path 3449" d="M294.263,358.1a1.6,1.6,0,0,1-.007.324c-.011.068-.016.14-.027.208a1.88,1.88,0,0,1-.628,1.182,2.5,2.5,0,0,0-.941,1.09c-.074.257-.1.521-.176.772a2.637,2.637,0,0,0-.847-.627,2.574,2.574,0,0,0-.837-.227,2.878,2.878,0,0,0-.435-.015c-.083.007-.305.08-.375.042a.076.076,0,0,1-.032-.047c-.09-.282-.18-.57-.27-.852a.811.811,0,0,1-.053-.3.709.709,0,0,1,.106-.27,10.578,10.578,0,0,1,.734-1.107c.045-.065.09-.13.135-.189a.646.646,0,0,0,.334.067,4.491,4.491,0,0,0,2.864-1.069,2.016,2.016,0,0,1,.279.417c.026.048.047.1.068.15a1.292,1.292,0,0,1,.076.25A1.185,1.185,0,0,1,294.263,358.1Z" transform="translate(-286.012 -356.532)" fill="#a4d7e3"/>
            <g id="Group_1954" data-name="Group 1954" transform="translate(3.406 1.492)">
              <path id="Path_3450" data-name="Path 3450" d="M290.392,360.825a.1.1,0,0,1-.056,0,1.029,1.029,0,0,1-.194-.131,2.288,2.288,0,0,0-.406-.2,1.912,1.912,0,0,0-.419-.106,1.993,1.993,0,0,0-.212-.01c-.11,0-.181-.066-.145-.179a.152.152,0,0,1,.028-.053c.085-.1.3-.045.407-.028a2.215,2.215,0,0,1,.451.121,2.607,2.607,0,0,1,.417.2c.1.061.295.15.225.3A.163.163,0,0,1,290.392,360.825Z" transform="translate(-288.95 -360.088)" fill="#faf9ed"/>
            </g>
            <g id="Group_1955" data-name="Group 1955" transform="translate(3.122 2.055)">
              <path id="Path_3451" data-name="Path 3451" d="M289.486,362.615a.1.1,0,0,1-.055,0,1,1,0,0,1-.194-.131,2.3,2.3,0,0,0-.406-.2,1.9,1.9,0,0,0-.419-.106,2.089,2.089,0,0,0-.212-.01c-.11,0-.181-.066-.146-.178a.154.154,0,0,1,.028-.053c.085-.1.3-.045.407-.028a2.2,2.2,0,0,1,.451.121,2.581,2.581,0,0,1,.417.2c.1.061.295.15.224.3A.163.163,0,0,1,289.486,362.615Z" transform="translate(-288.045 -361.878)" fill="#faf9ed"/>
            </g>
            <g id="Group_1956" data-name="Group 1956" transform="translate(2.837 2.617)">
              <path id="Path_3452" data-name="Path 3452" d="M288.581,364.4a.1.1,0,0,1-.056,0,1.043,1.043,0,0,1-.194-.131,2.283,2.283,0,0,0-.406-.2,1.908,1.908,0,0,0-.419-.106,2.078,2.078,0,0,0-.212-.01c-.11,0-.181-.066-.146-.179a.149.149,0,0,1,.028-.053c.085-.1.3-.045.407-.028a2.22,2.22,0,0,1,.451.121,2.6,2.6,0,0,1,.417.2c.1.061.295.15.224.3A.163.163,0,0,1,288.581,364.4Z" transform="translate(-287.139 -363.667)" fill="#faf9ed"/>
            </g>
          </g>
          <path id="Path_3453" data-name="Path 3453" d="M269.569,258.58a13.83,13.83,0,0,0-1.705-4.629,43.16,43.16,0,0,1-2.82-7.067,15.657,15.657,0,0,0-1.514-4.093,2.449,2.449,0,0,0-1.551-1.2c-.344-.076-1.266-.159-1.084-.8a20.2,20.2,0,0,0-.457,6.585,63.036,63.036,0,0,0,.8,6.975c.326,1.9.81,3.776,1.135,5.7q.43,2.536.855,5.072.558,3.32,1.112,6.64c.21,1.265.433,2.517.547,3.792a1,1,0,0,0,.2.62.979.979,0,0,0,.61.223,5.672,5.672,0,0,0,1.953-.012,3.888,3.888,0,0,0,1.792-1.025,1.042,1.042,0,0,0,.443-1.021c-.089-.538-.116-1.1-.174-1.638-.114-1.052-.219-2.107-.256-3.165-.05-1.462.034-2.923.076-4.384.026-.919-.065-1.835-.077-2.753C269.436,261.122,269.7,259.852,269.569,258.58Z" transform="translate(-251.571 -206.012)" fill="#02667e"/>
          <path id="Path_3454" data-name="Path 3454" d="M280.587,245.724a34.968,34.968,0,0,0-1.347-10.364,6.01,6.01,0,0,1-.185,3.058,3.757,3.757,0,0,1-2.3,1.272,9.741,9.741,0,0,1-2.781.037c-1.064-.088-2.128-.18-3.193-.263a1.952,1.952,0,0,1-1.552-.642,2.912,2.912,0,0,1-.412-1.461,17.772,17.772,0,0,0-.1,4.91,14.471,14.471,0,0,0,.553,3.529c.405,1.221,1.16,2.271,1.524,3.508l1.488,5.063a50.927,50.927,0,0,1,2.35,10.782c.124,1.776.142,3.557.131,5.336-.006,1.014-.023,2.027-.035,3.041a.99.99,0,0,0,.053.409.845.845,0,0,0,.306.331,3.225,3.225,0,0,0,2.362.495,4.661,4.661,0,0,0,2.2-1.061.926.926,0,0,0,.222-.239,1,1,0,0,0,.1-.421q.093-1.148.187-2.3a42.128,42.128,0,0,0-.008-10.342,29.54,29.54,0,0,1-.641-2.969,22.449,22.449,0,0,1,.471-5.174A43.614,43.614,0,0,0,280.587,245.724Z" transform="translate(-257.217 -202.29)" fill="#219ebc"/>
          <path id="Path_3455" data-name="Path 3455" d="M260.4,241.671a3.293,3.293,0,0,0,1.083.467,14.849,14.849,0,0,0,9.308-1.045,4.4,4.4,0,0,0,1.3-.817,2.086,2.086,0,0,0,.431-1.448c.156.6.295,1.2.425,1.8a1.2,1.2,0,0,1,.053.767c-.232.51-.943.834-1.407,1.1-.535.3-1.092.568-1.653.82a11.075,11.075,0,0,1-7.689.763,5.1,5.1,0,0,1-.911-.312A6.606,6.606,0,0,1,259.158,242a3.955,3.955,0,0,1-.753-1.53.6.6,0,0,0,.563-.307,9.049,9.049,0,0,0,.873,1.035A3.887,3.887,0,0,0,260.4,241.671Z" transform="translate(-250.225 -204.668)" fill="#333"/>
          <path id="Path_3456" data-name="Path 3456" d="M274.812,173.36a1.927,1.927,0,0,0-.922.046c-.5.2-.4.521-.378.922a9.507,9.507,0,0,1-.235,1.7c-.292,1.822-.607,3.649-.991,5.453a51.434,51.434,0,0,0-1.008,8.054,3.906,3.906,0,0,1-.241,1.409,3.041,3.041,0,0,1-1.134,1.214,12.618,12.618,0,0,1-9.308,1.26,4.737,4.737,0,0,1-.573-.189,5.855,5.855,0,0,1-1.776-1.048,1.847,1.847,0,0,1-.538-.687,2.3,2.3,0,0,1-.12-.55c-.12-1.008-.2-1.993-.275-3q-.318-4.468-.647-8.936c-.057-.819-.1-1.621-.1-2.44a12.584,12.584,0,0,1,.235-2.973,5.577,5.577,0,0,1,1.524-2.658,14.027,14.027,0,0,1,3.408-1.758c.527-.258,1.048-.544,1.587-.779a2.418,2.418,0,0,0,1.283-1,.629.629,0,0,1,.177-.241.394.394,0,0,1,.229-.057,2.677,2.677,0,0,1,1.346.475c.269,0,.825.476,1.065.613.361.206.711.424,1.071.618C269.313,169.259,274.027,171.848,274.812,173.36Z" transform="translate(-248.961 -155.495)" fill="#219ebc"/>
          <g id="Group_1958" data-name="Group 1958" transform="translate(11.06 15.436)">
            <path id="Path_3457" data-name="Path 3457" d="M271.123,179.419a94.01,94.01,0,0,0-2.984,22.34,4.739,4.739,0,0,1-.573-.189,94.561,94.561,0,0,1,3-22.294Z" transform="translate(-267.566 -179.276)" fill="#faf9ed"/>
          </g>
          <path id="Path_3458" data-name="Path 3458" d="M267.223,188.733l-3.157,13.318,1.463,5.434,2.176-4.677.533-13.677Z" transform="translate(-254.106 -170.324)" fill="#02667e"/>
          <path id="Path_3459" data-name="Path 3459" d="M273.236,182.266a.526.526,0,0,0,.319.526,1.484,1.484,0,0,0,.74.218c.407.008.63-.419.821-.728a7.588,7.588,0,0,0,.618-1.241.817.817,0,0,0,.077-.431,1.079,1.079,0,0,0-.331-.486c-.235-.258-.44-.6-.784-.662-.474-.09-1.005.464-1.218.85A3.582,3.582,0,0,0,273.236,182.266Z" transform="translate(-260.375 -163.962)" fill="#02667e"/>
          <path id="Path_3460" data-name="Path 3460" d="M262.048,246.863a3.594,3.594,0,0,0,.089.889.441.441,0,0,0,.067.17.469.469,0,0,0,.152.114l.433.242c-.112-.063-.127-.405-.147-.514a3.2,3.2,0,0,1,.111-1.892.367.367,0,0,1-.446-.131,2.883,2.883,0,0,0-.174.433,2.486,2.486,0,0,0-.077.521C262.052,246.751,262.049,246.807,262.048,246.863Z" transform="translate(-252.722 -209.408)" fill="#33322e"/>
          <path id="Path_3461" data-name="Path 3461" d="M279.3,157.062l-.014-.023a6.062,6.062,0,0,1-.7-2.721c-.051-.944.023-1.891.022-2.837a4.908,4.908,0,0,0-.124-1.26,6.267,6.267,0,0,1-.45.486,4.02,4.02,0,0,0-.4.618c-.106.2-.162.436-.271.635-.094.17-.22.325-.319.5a8.8,8.8,0,0,1-1.93,2.313,4.336,4.336,0,0,1-.974.65,2.423,2.423,0,0,0-.631.334,1.529,1.529,0,0,0-.386,1.134l-.02.27c-.009.125.169.393.2.531a2.336,2.336,0,0,1,.064.64,1.981,1.981,0,0,1-.1.6c-.063.171-.208.349-.1.538.09.158.306.178.488.178l.78,0a.6.6,0,0,1,.266.041c.156.076.214.266.335.39a.834.834,0,0,0,.734.159,2.456,2.456,0,0,0,1-.4,8.363,8.363,0,0,0,.833-.733,5.924,5.924,0,0,1,.812-.617,4.312,4.312,0,0,0,.821-.5.69.69,0,0,0,.209-.612A1.109,1.109,0,0,0,279.3,157.062Z" transform="translate(-260.302 -143.919)" fill="#ffbf99"/>
          <path id="Path_3462" data-name="Path 3462" d="M281.97,166.512a1.538,1.538,0,0,1-.127,1.136,4.216,4.216,0,0,1-.712.815,9.815,9.815,0,0,1-3.184,2.167.085.085,0,0,0-.064.124,15.792,15.792,0,0,0,.751,2.107,4.37,4.37,0,0,0,1.162-.619,16.206,16.206,0,0,0,2.183-1.807,3.145,3.145,0,0,0,1.088-1.821,1.1,1.1,0,0,0-.057-.507c-.105-.267-.345-.46-.466-.72a3.48,3.48,0,0,1-.154-.539.753.753,0,0,0-.3-.459.1.1,0,0,0-.067-.019C281.969,166.38,281.963,166.457,281.97,166.512Z" transform="translate(-263.574 -154.991)" fill="#faf9ed"/>
          <path id="Path_3463" data-name="Path 3463" d="M272.908,176.8a8.9,8.9,0,0,1-.521.755,1.877,1.877,0,0,1-.725.509,5.783,5.783,0,0,0,.324-1.133,9.368,9.368,0,0,0,.029-1.278c0-.413-.045-.9.294-1.2a.108.108,0,0,1,.1-.036,1.2,1.2,0,0,0,.047.629,2.2,2.2,0,0,0,.3.487,1.33,1.33,0,0,0,.734.58c.161.024.228.074.054.157a1.427,1.427,0,0,0-.357.214A1.946,1.946,0,0,0,272.908,176.8Z" transform="translate(-259.314 -160.506)" fill="#faf9ed"/>
          <path id="Path_3464" data-name="Path 3464" d="M268.459,140.174a4.163,4.163,0,0,0-2.068.358c-.473.211-1.25.579-1.439,1.1-.068.188-.118.4-.178.588a6.786,6.786,0,0,0-.277,1.436,2.191,2.191,0,0,0,.041.762c.056.2.16.391.22.594a5.007,5.007,0,0,1,.093,1.089,6.592,6.592,0,0,0,.274,1.324l.784,2.805a1.122,1.122,0,0,0,.24.507.9.9,0,0,0,.58.219,3.47,3.47,0,0,0,1.369-.224,7.881,7.881,0,0,0,2.639-1.518,2.454,2.454,0,0,0,.626-.743c.191-.391.2-.848.364-1.249a4.016,4.016,0,0,0,1.6-2.016,1.7,1.7,0,0,0-.092-1.587c-.363-.473-1.049-.561-1.494-.957a4.7,4.7,0,0,1-.684-.983A3.538,3.538,0,0,0,268.459,140.174Z" transform="translate(-254.392 -137.021)" fill="#ffdfcc"/>
          <path id="Path_3465" data-name="Path 3465" d="M274.777,134.807c-.033-3.226-3.247-5.059-6.215-4.541a5.512,5.512,0,0,0-3.479,2.094,2.767,2.767,0,0,0-.581,1.516c-.015.581.131.823.749.9l.076.009a6.458,6.458,0,0,0,1.409-.005,9.621,9.621,0,0,1,1.346-.136,1.767,1.767,0,0,1,1.656,1.579c.11.51.111,1.037.18,1.554a2.606,2.606,0,0,0,.569,1.432c-.114-.125.183-.688.244-.8a2.494,2.494,0,0,1,.627-.769,1.6,1.6,0,0,1,.935-.392,1.018,1.018,0,0,1,.351.031c.387.13.528.661.549,1.016a1.766,1.766,0,0,1-.1.668c.106-.107.231-.191.339-.293a3.314,3.314,0,0,0,.478-.511A5.549,5.549,0,0,0,274.777,134.807Z" transform="translate(-254.404 -130.18)" fill="#023047"/>
          <path id="Path_3466" data-name="Path 3466" d="M241.738,237.5a4.545,4.545,0,0,1-1.318.28,18.086,18.086,0,0,1-1.842-.254c-.449-.037-.9.012-1.352-.009a2.065,2.065,0,0,1-1.261-.416,1.418,1.418,0,0,0-.224-.179c-.323-.176-.776.066-1.07-.154-.085-.063-.145-.159-.242-.2-.067-.028-.142-.027-.211-.05a.323.323,0,0,1-.16-.46.589.589,0,0,1,.523-.266c0-.047-.031-.086-.051-.128-.166-.356.558-.51.767-.561a30.712,30.712,0,0,1,4.01-.7c-.047-.118-.188-.16-.307-.208a1.167,1.167,0,0,1-.582-1.662.377.377,0,0,1,.139-.154.323.323,0,0,1,.368.091,1.58,1.58,0,0,1,.213.346,3.174,3.174,0,0,0,1.479,1.145,3.855,3.855,0,0,0,3.1.388,1.063,1.063,0,0,0,.187.809,3.845,3.845,0,0,1,.427.738.78.78,0,0,1-.032.624c-.075.124-.185.142-.317.172a11.116,11.116,0,0,0-1.384.506C242.311,237.309,242.026,237.41,241.738,237.5Z" transform="translate(-233.502 -200.232)" fill="#ffdfcc"/>
          <path id="Path_3467" data-name="Path 3467" d="M278.493,184.669c-.323-.685-.808-1.324-1.424-1.359-1.25-.07-2.292,1.406-2.9,2.323a10.919,10.919,0,0,0-1.493,3.549c-.1.446-.382,1.32-.138,1.754.05.089.153.135.223.21a.684.684,0,0,1,.128.458,18.111,18.111,0,0,1-.558,4.013c-.129.63-.191,1.271-.306,1.9-.085.467-.392.549-.843.673-1.455.4-8.5,2.317-9.209,2.341a.325.325,0,0,0-.223.139.14.14,0,0,0,.005.17.262.262,0,0,0,.146.05c.413.077.55.709.634,1.053a4.268,4.268,0,0,1,.119.871c0,.075.018.156.016.23s-.022.09-.094.149a.148.148,0,0,0-.064.144.119.119,0,0,0,.077.071.334.334,0,0,0,.108.013c.39.005,2.224.052,2.755.052a25.428,25.428,0,0,0,6.236-.7,12.378,12.378,0,0,0,2.962-1.04c.116-.064.227-.13.335-.2a5.2,5.2,0,0,0,2.056-3.135c.338-1.413.719-2.832,1.024-4.265a43.65,43.65,0,0,0,.814-4.853,11.9,11.9,0,0,0,.031-3.362A5.539,5.539,0,0,0,278.493,184.669Z" transform="translate(-252.502 -166.604)" fill="#02667e"/>
          <path id="Path_3468" data-name="Path 3468" d="M276.56,251.356a2.162,2.162,0,0,0,0,1.032,2.106,2.106,0,0,0,.268.632c.088.138.125.114.284.113a2.382,2.382,0,0,1,.462.045,1.585,1.585,0,0,1-.452-.959,2.136,2.136,0,0,1,.169-1.056c-.022.053-.634-.1-.634-.1A2,2,0,0,0,276.56,251.356Z" transform="translate(-262.629 -213.054)" fill="#525252"/>
          <path id="Path_3469" data-name="Path 3469" d="M265.586,248.939a1.148,1.148,0,0,0,0,.287c.023.272.063.543.094.813s.018.483.3.6l1.032.415a2,2,0,0,0,.426.168c.168.022.149-.159.13-.28a6.218,6.218,0,0,1-.074-1,.693.693,0,0,0-.121-.478.879.879,0,0,0-.305-.2c-.376-.169-.791-.247-1.156-.439C265.695,248.7,265.613,248.795,265.586,248.939Z" transform="translate(-255.141 -211.481)" fill="#faf9ed"/>
        </g>
      </g>
    </g>
  </g>
</svg>
