<svg xmlns="http://www.w3.org/2000/svg" width="166.107" height="134.62" viewBox="0 0 166.107 134.62">
  <g id="jobs" transform="translate(-963.563 -466.161)">
    <path id="Path_3666" data-name="Path 3666" d="M-12243.051-4824.811s15.738-12.472,6.464-40.294-3.651-53.088,24.452-41.574,20.234,19.507,56.771,13.432,53.96-17.589,53.4,12.472-6.463,28.461-2.528,52.127-4.779,32.62-29.511,31.021-36.536,5.437-57.9,14.071-37.943,13.112-52.276,2.238-8.15-28.142-5.621-33.259A62.768,62.768,0,0,1-12243.051-4824.811Z" transform="translate(13231.622 5375.691)" fill="#eb5d60" opacity="0.22"/>
    <ellipse id="Ellipse_431" data-name="Ellipse 431" cx="7.257" cy="6.652" rx="7.257" ry="6.652" transform="translate(978.312 528.951) rotate(96)" fill="#eb5d60"/>
    <ellipse id="Ellipse_433" data-name="Ellipse 433" cx="7.257" cy="6.652" rx="7.257" ry="6.652" transform="translate(1100.904 594.767) rotate(164)" fill="#eb5d60"/>
    <ellipse id="Ellipse_432" data-name="Ellipse 432" cx="3.628" cy="4.233" rx="3.628" ry="4.233" transform="translate(983.563 513.692) rotate(96)" fill="#eb5d60"/>
    <ellipse id="Ellipse_434" data-name="Ellipse 434" cx="3.628" cy="4.233" rx="3.628" ry="4.233" transform="translate(1078.571 592.709) rotate(164)" fill="#eb5d60"/>
    <g id="Group_1996" data-name="Group 1996" transform="translate(769.804 256.738)">
      <g id="Group_1971" data-name="Group 1971">
        <path id="Path_3667" data-name="Path 3667" d="M284.277,257.218c1.119-3.421,4.01-9.285,2.324-10.308-2.2-1.334-8.526-2.16-8.526-2.16v.108s-6.384.525-8.586,1.853c-1.689,1.018,1.239,7.173,2.347,10.6.266.821.232,4.5.125,7.768a59.609,59.609,0,0,0-.577,6.039c.032.458,5.2,3.294,6.647,3.369v-.109c1.449-.07,6.623-2.891,6.657-3.348.114-1.531-.594-4.651-.618-5.456A52.17,52.17,0,0,1,284.277,257.218Z" fill="#ffbd95"/>
        <path id="Path_3668" data-name="Path 3668" d="M271.5,249.6c-1.039.771-2.763.188-4.169-1.771s-2.149-3.449-2.5-3.967c-.364-.535-2.7-3.478-3.2-4.363a1.935,1.935,0,0,1,.347-2.6c.7-.5,2.442.135,3.718,1.334S274.3,247.526,271.5,249.6Z" fill="#ffa47c"/>
        <path id="Path_3669" data-name="Path 3669" d="M270.547,254.469a39.759,39.759,0,0,0-1.836-4.3c-.637-1.2-5.165-7.2-5.165-7.2s3.127-3.512,3.325-3.626,5.765,6.167,5.765,6.167S272.139,253.169,270.547,254.469Z" fill="#cee0ff"/>
        <path id="Path_3670" data-name="Path 3670" d="M280.721,243.74c-.144-.652-.5-3.876-.5-3.876l-2.137,0v.108l-2.137,0s-.367,3.223-.513,3.874-1.906,1.633-1.906,1.633l4.547.007v-.109l4.548.007S280.865,244.392,280.721,243.74Z" fill="#ffbd95"/>
        <path id="Path_3671" data-name="Path 3671" d="M280.578,242.83c-.134-.988-.294-2.393-.343-2.83l-.138-.137-2.014,0v.108l-2.137,0s-.367,3.223-.513,3.874-1.906,1.633-1.906,1.633h.215c2.03-.538,4.049-1.075,4.32-1.152a18.59,18.59,0,0,0,2.516-1.492Z" fill="#ffa47c"/>
        <path id="Path_3672" data-name="Path 3672" d="M274.637,267.525c-2.608-.012-3.624,1.8-3.56,7.383s.886,11.627,1.247,12.5,4.056.894,4.419.387,1.286-12.076,1.289-13.887S277.477,267.538,274.637,267.525Z" fill="#ffbd95"/>
        <rect id="Rectangle_606" data-name="Rectangle 606" width="4.455" height="6.084" rx="1.883" transform="translate(272.382 285.722) rotate(1.457)" fill="#ffbd95"/>
        <path id="Path_3673" data-name="Path 3673" d="M274.425,288.456c-.8,0-2.753.259-2.652,5.459s2.21,12.823,2.21,12.823l1.884,0s1.022-10.124,1.029-11.97C276.912,290.57,276.942,288.46,274.425,288.456Z" fill="#ffbd95"/>
        <path id="Path_3674" data-name="Path 3674" d="M281.516,267.571c2.593-.28,3.791,1.423,4.3,6.978s.314,11.656.045,12.558-3.943,1.307-4.356.84-2.522-11.88-2.711-13.681S278.692,267.877,281.516,267.571Z" fill="#ffbd95"/>
        <rect id="Rectangle_607" data-name="Rectangle 607" width="4.455" height="6.084" rx="1.883" transform="translate(286.043 291.496) rotate(179.958)" fill="#ffbd95"/>
        <path id="Path_3675" data-name="Path 3675" d="M284.7,250c1.039.771,2.763.188,4.169-1.771s2.149-3.448,2.5-3.967c.363-.535,2.7-3.478,3.2-4.363a1.936,1.936,0,0,0-.346-2.6c-.7-.5-2.443.135-3.719,1.334S281.908,247.925,284.7,250Z" fill="#ffa47c"/>
        <path id="Path_3676" data-name="Path 3676" d="M283.924,287.765c-.793-.083-2.765-.025-3.2,5.157s.865,12.878.865,12.878l2.026-.185s1.92-9.478,2.117-11.315C286.181,290.123,286.427,288.028,283.924,287.765Z" fill="#ffbd95"/>
        <path id="Path_3677" data-name="Path 3677" d="M278.031,274.484l.012-7.877-6.234-.2a68.406,68.406,0,0,0-1.092,7.092c-.119,1.992.623,9.327.93,12.834h5.873C277.688,281.756,278.031,274.484,278.031,274.484Z" fill="#00233f"/>
        <path id="Path_3678" data-name="Path 3678" d="M287.153,246.977c-.242-.5-1.825-.871-3.244-1.313-1.25-.389-2.369-.882-2.369-.882a3.963,3.963,0,0,1-3.474,1.983c-1.868,0-3.469-1.994-3.469-1.994a25.245,25.245,0,0,1-2.372.875c-1.419.438-3,.8-3.248,1.3s2.283,10.259,2.567,11.088-.456,6.63.265,8.365l6.22.2h.014l6.168-.332c.571-1.988.048-7.5.335-8.325S287.4,247.486,287.153,246.977Z" fill="#cee0ff"/>
        <path id="Path_3679" data-name="Path 3679" d="M286.028,273.216a68.542,68.542,0,0,0-1.817-6.942l-6.168.333-.03,8.272s1.495,6.886,2.378,11.45h6.037C286.369,282.918,286.359,275.232,286.028,273.216Z" fill="#00233f"/>
        <path id="Path_3680" data-name="Path 3680" d="M277.052,263.06c-.394-5.067,5.757-4.475,6.207-5.259s-.577-2.682-1.073-2.849a20.959,20.959,0,0,0-4.41-.9c-.523.073-4.486.479-5.121-.008s-3.944-3.869-3.944-3.869a36.951,36.951,0,0,1,2.833,7.866c.284.83-.456,6.63.265,8.365l6.22.2h.014l6.168-.332S277.313,266.4,277.052,263.06Z" fill="#b8d1ff"/>
        <path id="Path_3681" data-name="Path 3681" d="M263.377,239.379c-.986.369-1.992.155-3.168-2.55s-3.091-9.327-3.091-9.327l1.6-.6s3.587,4.817,4.29,6.258S265.958,238.414,263.377,239.379Z" fill="#ffa47c"/>
        <path id="Path_3682" data-name="Path 3682" d="M281.978,237.3c0,2.748-2.085,5.483-3.848,5.48-1.685,0-3.836-2.743-3.832-5.492s1.727-4.974,3.847-4.97S281.982,234.548,281.978,237.3Z" fill="#ffbd95"/>
        <path id="Path_3683" data-name="Path 3683" d="M274.3,237.835a4.669,4.669,0,0,1-.616-2.144c.126-.574.267-1.79,1.026-2.193.161-.085.641-.011.685-.537.067-.806,1.661-.841,1.835-.855a7.791,7.791,0,0,1,1.72,0c.623.1,1.852.415,3.035,2.5a4.817,4.817,0,0,1,.5,1.571c-.051.15-.327,1.4-.352,1.5a2.472,2.472,0,0,1-.2.382s-1.033-2.626-1.057-2.875-5.26-.332-5.584-.158S274.3,237.835,274.3,237.835Z" fill="#8d3b26"/>
        <g id="Group_1969" data-name="Group 1969">
          <path id="Path_3684" data-name="Path 3684" d="M256.607,223.613h0a.358.358,0,0,1,.439.25l.406,1.476a.357.357,0,0,1-.251.44h0a.359.359,0,0,1-.438-.251l-.407-1.475A.36.36,0,0,1,256.607,223.613Z" fill="#ffa47c"/>
          <path id="Path_3685" data-name="Path 3685" d="M257.236,223.374h0a.359.359,0,0,1,.438.25l.407,1.476a.36.36,0,0,1-.252.441h0a.359.359,0,0,1-.439-.25l-.407-1.476A.36.36,0,0,1,257.236,223.374Z" fill="#ffa47c"/>
          <path id="Path_3686" data-name="Path 3686" d="M257.862,223.179h0a.358.358,0,0,1,.438.25l.407,1.476a.358.358,0,0,1-.252.44h0a.36.36,0,0,1-.439-.251l-.406-1.475A.358.358,0,0,1,257.862,223.179Z" fill="#ffa47c"/>
          <path id="Path_3687" data-name="Path 3687" d="M258.484,223.048h0a.358.358,0,0,1,.438.25l.407,1.476a.359.359,0,0,1-.252.44h0a.36.36,0,0,1-.439-.251l-.406-1.475A.358.358,0,0,1,258.484,223.048Z" fill="#ffa47c"/>
          <path id="Path_3688" data-name="Path 3688" d="M259.47,228.375a24.78,24.78,0,0,0,.3-2.994,15.511,15.511,0,0,0-.928-2.222s-.466.736-.906.793-1.586.1-1.586.1a10.955,10.955,0,0,0,.266,2.418,7.816,7.816,0,0,0,.673,1.409Z" fill="#ffa47c"/>
        </g>
        <path id="Path_3689" data-name="Path 3689" d="M285.615,254.041a20.937,20.937,0,0,1,1.878-3.47c.838-1.073,5.165-7.2,5.165-7.2s-3.127-3.512-3.325-3.626-5.847,6.028-5.847,6.028S284.023,252.74,285.615,254.041Z" fill="#cee0ff"/>
        <path id="Path_3690" data-name="Path 3690" d="M292.76,240.029c.963.426,1.979.272,3.314-2.359s3.635-9.128,3.635-9.128l-1.557-.69s-3.865,4.6-4.652,5.994S290.24,238.913,292.76,240.029Z" fill="#ffa47c"/>
        <g id="Group_1970" data-name="Group 1970">
          <path id="Path_3691" data-name="Path 3691" d="M300.83,224.683h0a.36.36,0,0,0-.467.194l-.585,1.414a.358.358,0,0,0,.195.468h0a.36.36,0,0,0,.467-.194l.585-1.414A.358.358,0,0,0,300.83,224.683Z" fill="#ffa47c"/>
          <path id="Path_3692" data-name="Path 3692" d="M300.236,224.368h0a.359.359,0,0,0-.466.194l-.586,1.415a.358.358,0,0,0,.2.468h0a.359.359,0,0,0,.467-.194l.586-1.414A.359.359,0,0,0,300.236,224.368Z" fill="#ffa47c"/>
          <path id="Path_3693" data-name="Path 3693" d="M299.639,224.1h0a.359.359,0,0,0-.466.194l-.586,1.414a.358.358,0,0,0,.2.468h0a.36.36,0,0,0,.467-.194l.586-1.414A.361.361,0,0,0,299.639,224.1Z" fill="#ffa47c"/>
          <path id="Path_3694" data-name="Path 3694" d="M299.038,223.89h0a.359.359,0,0,0-.466.194l-.586,1.414a.358.358,0,0,0,.195.468h0a.36.36,0,0,0,.467-.194l.586-1.414A.359.359,0,0,0,299.038,223.89Z" fill="#ffa47c"/>
          <path id="Path_3695" data-name="Path 3695" d="M297.4,229.054a24.788,24.788,0,0,1,.068-3.009,15.471,15.471,0,0,1,1.2-2.09s.371.787.8.9,1.562.3,1.562.3a10.94,10.94,0,0,1-.564,2.366,7.785,7.785,0,0,1-.841,1.315Z" fill="#ffa47c"/>
        </g>
        <path id="Path_3696" data-name="Path 3696" d="M281.435,305.465a8.048,8.048,0,0,0-.088,2.91c.083.235,5.851.915,6.7.6s1.548-.642,1.548-.642-.163-.872-.537-.913-3.9-1.06-4.265-1.576-.661-1.34-.873-1.042A3.221,3.221,0,0,1,281.435,305.465Z" fill="#375987"/>
        <path id="Path_3697" data-name="Path 3697" d="M288.046,308.97c.474-.178.9-.356,1.181-.479a4.561,4.561,0,0,1-1.344.172c-.666-.123-2.954-.865-4.468-1.375a2.5,2.5,0,0,1-1.7-1.795,2.386,2.386,0,0,1-.282-.028,8.048,8.048,0,0,0-.088,2.91C281.43,308.61,287.2,309.29,288.046,308.97Z" fill="#00233f"/>
        <path id="Path_3698" data-name="Path 3698" d="M289.594,308.328a11.687,11.687,0,0,1-1.785.7c-.236.015-3.554-.788-5.375-.985-.534-.057-.988-.17-1.2-.194-.1-.011.023.554.023.554l.152.4s6.183.577,6.4.562,2.025-.758,2.025-.758Z" fill="#22272c"/>
        <path id="Path_3699" data-name="Path 3699" d="M275.947,306.862l-2.445-.123a3.884,3.884,0,0,1-.659,1.513c-.419.655-1.061,1.331-1.039,1.849.014.336.177.687.491.726a6.366,6.366,0,0,0,2.787-.081,4.281,4.281,0,0,0,.911-1.191,2.309,2.309,0,0,0,.134-1.338C276.109,307.848,275.947,306.862,275.947,306.862Z" fill="#22272c"/>
        <path id="Path_3700" data-name="Path 3700" d="M275.947,306.59l-2.445-.123a3.878,3.878,0,0,1-.659,1.512c-.419.655-1.061,1.331-1.039,1.85.014.336.155.609.469.648a6.384,6.384,0,0,0,2.787-.087,3.7,3.7,0,0,0,.864-1.086,2.46,2.46,0,0,0,.2-1.36C276.109,307.576,275.947,306.59,275.947,306.59Z" fill="#375987"/>
        <path id="Path_3701" data-name="Path 3701" d="M274.073,306.1c-.283.169-.423,1.77-.423,1.865s.5.139.686.108c.757-.132,1.049-1.417.878-1.8C275.092,306,274.32,305.952,274.073,306.1Z" fill="#375987"/>
        <path id="Path_3702" data-name="Path 3702" d="M276.127,307.944c-.014-.279-.11-.909-.155-1.2.021.171.039.329.045.435a2.471,2.471,0,0,1-.2,1.36,3.707,3.707,0,0,1-.863,1.086,6.39,6.39,0,0,1-2.788.087.457.457,0,0,1-.306-.173.842.842,0,0,0-.052.291c.014.336.155.609.469.648a6.384,6.384,0,0,0,2.787-.087,3.7,3.7,0,0,0,.864-1.086A2.46,2.46,0,0,0,276.127,307.944Z" fill="#00233f"/>
        <rect id="Rectangle_608" data-name="Rectangle 608" width="6.454" height="1.814" rx="0.28" transform="translate(271.356 285.372)" fill="#002d56"/>
        <path id="Path_3703" data-name="Path 3703" d="M286.423,287.236h-5.887a.286.286,0,0,1-.286-.287l-.3-1.241a.286.286,0,0,1,.286-.286h6.184a.286.286,0,0,1,.286.286v1.241A.286.286,0,0,1,286.423,287.236Z" fill="#002d56"/>
        <path id="Path_3704" data-name="Path 3704" d="M277.611,231.445c1.118-.175,4.038.19,4.03,2.468a.943.943,0,0,1-.568.953s-.145-.7-1.287-.937-1.87,1.112-2.881,1.021-1.575.083-1.737-.592S276.322,231.648,277.611,231.445Z" fill="#8d3b26"/>
        <path id="Path_3705" data-name="Path 3705" d="M280.542,234.31s.986,0,1.266.474a.984.984,0,0,1,.1.87,1.673,1.673,0,0,0,.505-.907,1.483,1.483,0,0,0-.923-1.665Z" fill="#8d3b26"/>
      </g>
      <g id="Group_1975" data-name="Group 1975">
        <path id="Path_3706" data-name="Path 3706" d="M244.665,279.789a20.879,20.879,0,0,1,6.815-1.9c3.3-.184-4.913-20.98-4.913-20.98Z" fill="#5b0000"/>
        <g id="Group_1974" data-name="Group 1974">
          <path id="Path_3707" data-name="Path 3707" d="M263.9,292.678c-.686-.409-2.913-.745-5.491,3.789s-4.635,12.083-4.635,12.083l1.922.684s5.737-7.817,6.69-9.4C264.557,296.217,266.072,293.972,263.9,292.678Z" fill="#ffa47c"/>
          <path id="Path_3708" data-name="Path 3708" d="M253.722,308.556a8.075,8.075,0,0,0-.939,2.764c.01.25,5.341,2.6,6.248,2.539s1.672-.162,1.672-.162.1-.883-.246-1.033-3.429-2.161-3.627-2.763-.24-1.479-.53-1.256A3.227,3.227,0,0,1,253.722,308.556Z" fill="#cee0ff"/>
          <path id="Path_3709" data-name="Path 3709" d="M259.031,313.859c.506-.033.963-.079,1.273-.113a4.578,4.578,0,0,1-1.339-.23c-.6-.314-2.579-1.7-3.88-2.631a2.506,2.506,0,0,1-1.1-2.219,2.332,2.332,0,0,1-.262-.11,8.075,8.075,0,0,0-.939,2.764C252.793,311.57,258.124,313.916,259.031,313.859Z" fill="#b7a994"/>
          <path id="Path_3710" data-name="Path 3710" d="M260.7,313.7a11.693,11.693,0,0,1-1.916.146c-.231-.055-3.176-1.8-4.865-2.523-.494-.211-.9-.453-1.1-.539-.092-.039-.141.538-.141.538l.028.43s5.758,2.37,5.97,2.42,2.164-.133,2.164-.133Z" fill="#22272c"/>
          <path id="Path_3711" data-name="Path 3711" d="M260.513,263.9c.623-3.555,2.657-9.786.837-10.562-2.371-1.011-8.769-.928-8.769-.928l.015.107s-6.262,1.431-8.258,3.063c-1.531,1.252,2.252,6.943,3.841,10.183a31.23,31.23,0,0,1,1.918,7.612c.088.8.25,4.527.576,6.031.1.449,5.208,2.226,7.063,2.288,1.453.048,6.161-3.814,6.13-4.272-.106-1.536-1.566-5.076-1.7-5.872C261.6,268.321,260.364,264.751,260.513,263.9Z" fill="#ffbd95"/>
          <path id="Path_3712" data-name="Path 3712" d="M247.206,259.146c1-.834.829-2.651-.753-4.479s-2.862-2.9-3.285-3.366-2.761-3.447-3.509-4.138a1.939,1.939,0,0,0-2.611-.268c-.652.564-.438,2.413.434,3.937S244.534,261.385,247.206,259.146Z" fill="#ffbd95"/>
          <path id="Path_3713" data-name="Path 3713" d="M255.062,251.028c-.236-.627-1.05-3.776-1.05-3.776l-2.121.3.015.108-2.121.3s.1,3.251.043,3.919-1.659,1.892-1.659,1.892l9.375-1.174S255.3,251.655,255.062,251.028Z" fill="#ffbd95"/>
          <path id="Path_3714" data-name="Path 3714" d="M254.791,250.145c-.274-.961-.633-2.333-.745-2.76l-.155-.115-2,.284.015.108-2.121.3s.1,3.251.043,3.919-1.659,1.892-1.659,1.892l.214-.03c1.938-.823,3.865-1.644,4.124-1.759a18.7,18.7,0,0,0,2.284-1.84Z" fill="#ffa47c"/>
          <path id="Path_3715" data-name="Path 3715" d="M254.174,274.359c-2.614-.058-3.666,1.746-3.7,7.339a72.345,72.345,0,0,0,1.343,13.826c.346.879,3.522.546,3.9.045s1.718-12.939,1.753-14.754S257.021,274.423,254.174,274.359Z" fill="#ffbd95"/>
          <path id="Path_3716" data-name="Path 3716" d="M253.543,294.189c-.8,0-2.669,1.071-2.568,6.285s2.216,12.857,2.216,12.857l1.889,0s1.025-10.151,1.032-12C256.128,297.119,256.067,294.193,253.543,294.189Z" fill="#ffbd95"/>
          <path id="Path_3717" data-name="Path 3717" d="M260.328,274.916c2.594-.325,3.824,1.363,4.429,6.923a66.562,66.562,0,0,1,.153,13.133c-.255.909-3.35.889-3.772.429s-3.206-11.925-3.426-13.728S257.5,275.269,260.328,274.916Z" fill="#ffa47c"/>
          <path id="Path_3718" data-name="Path 3718" d="M259.281,257.517c-1.084-.714-1.128-2.538.234-4.535s2.51-3.21,2.877-3.721,2.348-3.741,3.011-4.514a1.94,1.94,0,0,1,2.563-.566c.712.486.713,2.348.021,3.962S262.192,259.435,259.281,257.517Z" fill="#ffbd95"/>
          <path id="Path_3719" data-name="Path 3719" d="M238.354,249.676c-.965.428-1.984.274-3.323-2.363s-3.65-9.152-3.65-9.152l1.561-.692s3.878,4.608,4.668,6.008S240.881,248.556,238.354,249.676Z" fill="#ffbd95"/>
          <path id="Path_3720" data-name="Path 3720" d="M255.574,244.516c.515,2.708-1.017,5.793-2.754,6.124-1.66.315-4.3-1.977-4.811-4.685s.761-5.224,2.85-5.621S255.06,241.809,255.574,244.516Z" fill="#ffbd95"/>
          <path id="Path_3721" data-name="Path 3721" d="M248.112,246.5a4.685,4.685,0,0,1-1.011-2c.015-.588-.075-1.812.6-2.352.143-.115.63-.132.573-.659-.086-.806,1.477-1.141,1.646-1.188a7.736,7.736,0,0,1,1.694-.322c.633-.019,1.9.059,3.46,1.886a4.822,4.822,0,0,1,.788,1.453c-.021.157-.057,1.436-.063,1.539a2.462,2.462,0,0,1-.13.416s-1.512-2.392-1.583-2.633-5.242.667-5.529.9S248.112,246.5,248.112,246.5Z" fill="#8d3b26"/>
          <g id="Group_1972" data-name="Group 1972">
            <path id="Path_3722" data-name="Path 3722" d="M230.836,234.124h0a.36.36,0,0,1,.44.25l.409,1.48a.361.361,0,0,1-.252.442h0a.36.36,0,0,1-.44-.251l-.409-1.479A.359.359,0,0,1,230.836,234.124Z" fill="#ffbd95"/>
            <path id="Path_3723" data-name="Path 3723" d="M231.466,233.884h0a.359.359,0,0,1,.44.25l.409,1.48a.36.36,0,0,1-.251.442h0a.359.359,0,0,1-.44-.251l-.409-1.479A.359.359,0,0,1,231.466,233.884Z" fill="#ffbd95"/>
            <path id="Path_3724" data-name="Path 3724" d="M232.094,233.688h0a.36.36,0,0,1,.44.251l.409,1.479a.36.36,0,0,1-.252.442h0a.362.362,0,0,1-.441-.251l-.409-1.479A.361.361,0,0,1,232.094,233.688Z" fill="#ffbd95"/>
            <path id="Path_3725" data-name="Path 3725" d="M232.717,233.556h0a.36.36,0,0,1,.44.251l.409,1.479a.359.359,0,0,1-.251.442h0a.361.361,0,0,1-.44-.251l-.409-1.48A.358.358,0,0,1,232.717,233.556Z" fill="#ffbd95"/>
            <path id="Path_3726" data-name="Path 3726" d="M233.711,238.9a24.777,24.777,0,0,0,.3-3,15.46,15.46,0,0,0-.933-2.226s-.466.738-.907.795-1.59.1-1.59.1a11.008,11.008,0,0,0,.269,2.424,7.838,7.838,0,0,0,.676,1.412Z" fill="#ffbd95"/>
          </g>
          <path id="Path_3727" data-name="Path 3727" d="M266.584,247.07c.965.428,1.984.275,3.325-2.362s3.655-9.149,3.655-9.149l-1.56-.693s-3.88,4.606-4.672,6.005S264.058,245.948,266.584,247.07Z" fill="#ffbd95"/>
          <g id="Group_1973" data-name="Group 1973">
            <path id="Path_3728" data-name="Path 3728" d="M274.821,232.282h0a.361.361,0,0,0-.484.15l-.717,1.357a.36.36,0,0,0,.15.486h0a.36.36,0,0,0,.484-.15l.717-1.357A.358.358,0,0,0,274.821,232.282Z" fill="#ffbd95"/>
            <path id="Path_3729" data-name="Path 3729" d="M274.257,231.912h0a.359.359,0,0,0-.483.15l-.718,1.357a.361.361,0,0,0,.151.486h0a.361.361,0,0,0,.484-.151l.717-1.357A.36.36,0,0,0,274.257,231.912Z" fill="#ffbd95"/>
            <path id="Path_3730" data-name="Path 3730" d="M273.686,231.585h0a.361.361,0,0,0-.484.15l-.717,1.357a.36.36,0,0,0,.15.486h0a.361.361,0,0,0,.484-.15l.717-1.357A.359.359,0,0,0,273.686,231.585Z" fill="#ffbd95"/>
            <path id="Path_3731" data-name="Path 3731" d="M273.106,231.322h0a.361.361,0,0,0-.484.15l-.717,1.357a.359.359,0,0,0,.151.486h0a.361.361,0,0,0,.484-.15l.717-1.357A.36.36,0,0,0,273.106,231.322Z" fill="#ffbd95"/>
            <path id="Path_3732" data-name="Path 3732" d="M270.988,236.324a24.693,24.693,0,0,1,.349-3,15.476,15.476,0,0,1,1.389-1.975s.3.821.715.972,1.532.441,1.532.441a10.973,10.973,0,0,1-.784,2.31,7.84,7.84,0,0,1-.963,1.234Z" fill="#ffbd95"/>
          </g>
          <path id="Path_3733" data-name="Path 3733" d="M255.16,313.456l-2.451-.123a3.892,3.892,0,0,1-.66,1.516c-.421.657-1.064,1.335-1.043,1.855.014.337.178.688.492.728a6.4,6.4,0,0,0,2.795-.082,4.29,4.29,0,0,0,.914-1.194,2.322,2.322,0,0,0,.134-1.342C255.322,314.445,255.16,313.456,255.16,313.456Z" fill="#22272c"/>
          <path id="Path_3734" data-name="Path 3734" d="M255.16,313.183l-2.451-.124a3.892,3.892,0,0,1-.66,1.517c-.421.657-1.064,1.334-1.043,1.855.014.336.156.61.47.65a6.388,6.388,0,0,0,2.795-.088,3.694,3.694,0,0,0,.866-1.088,2.468,2.468,0,0,0,.2-1.364C255.322,314.171,255.16,313.183,255.16,313.183Z" fill="#cee0ff"/>
          <path id="Path_3735" data-name="Path 3735" d="M253.281,312.692c-.283.169-.423,1.775-.423,1.869s.5.14.687.109c.76-.132,1.051-1.421.88-1.8C254.3,312.594,253.529,312.543,253.281,312.692Z" fill="#cee0ff"/>
          <path id="Path_3736" data-name="Path 3736" d="M255.341,314.541c-.014-.28-.11-.912-.156-1.2.022.17.04.329.045.436a2.464,2.464,0,0,1-.2,1.363,3.685,3.685,0,0,1-.866,1.089,6.4,6.4,0,0,1-2.795.088.463.463,0,0,1-.307-.174.846.846,0,0,0-.052.292c.014.336.156.61.47.65a6.388,6.388,0,0,0,2.795-.088,3.694,3.694,0,0,0,.866-1.088A2.468,2.468,0,0,0,255.341,314.541Z" fill="#b7a994"/>
          <path id="Path_3737" data-name="Path 3737" d="M250.647,240.744c1.056-.2,3.833.031,3.877,2.111.015.7-1.285,1.481-1.285,1.481s.614-1.224-.474-1.4-1.747,1.081-2.708,1.034-1.492.132-1.66-.479S249.43,240.974,250.647,240.744Z" fill="#8d3b26"/>
          <path id="Path_3738" data-name="Path 3738" d="M253.638,242.794a2.063,2.063,0,0,1,.63,1.139.932.932,0,0,1-.268.746,1.06,1.06,0,0,0,.667-.411,2.291,2.291,0,0,0,.2-1.5Z" fill="#8d3b26"/>
        </g>
        <path id="Path_3739" data-name="Path 3739" d="M250.172,274.358s-.032,4.12,0,6.717.8,11.671.8,11.671h5.447l1.294-11.073-.8-7.632Z" fill="#002d56"/>
        <path id="Path_3740" data-name="Path 3740" d="M262.412,272.408l-5.5,1.633.8,7.632,1.948,10.582,5.873-.2s-.159-7.6-.62-10.587A42.368,42.368,0,0,0,262.412,272.408Z" fill="#00233f"/>
        <path id="Path_3741" data-name="Path 3741" d="M250.172,274.358a58.978,58.978,0,0,0-2-7.309c-.989-2.466-2.431-6.874-3.585-7.549s1.607-5.13,1.607-5.13l2.529-1.054s2.445,1.518,4.407,1.272,3.333-2.5,3.333-2.5,3.055,1.125,3.055.9,2.59,3.778,2.344,4.523a28.431,28.431,0,0,0-.638,6.816c.184,1.978,1.191,8.087,1.191,8.087a13.613,13.613,0,0,1-5.5,1.633A42.181,42.181,0,0,1,250.172,274.358Z" fill="#cee0ff"/>
        <path id="Path_3742" data-name="Path 3742" d="M254.276,267.049c.427-1.744,6.745-3.652,6.071-4.443s-5.58,1.1-8.562.914a6.8,6.8,0,0,1-4.684-2.453l.38,4.193c.245.647.477,1.263.688,1.789a58.978,58.978,0,0,1,2,7.309,42.181,42.181,0,0,0,6.736-.317S253.848,268.793,254.276,267.049Z" fill="#b8d1ff"/>
        <path id="Path_3743" data-name="Path 3743" d="M240.837,248.3s4.871,5.259,5.117,5.224.669-.294.735.16,2.369-.682,2.369-.682a39.121,39.121,0,0,1,1.1,9.437c-.219,4.109-2.768,11.957-3.057,14.777s-.289,3.372-.289,3.372l-2.146-.532s-.084-19.333-.686-20.192-6.043-7.577-6.043-7.577a8.734,8.734,0,0,0,2.381-1.615A2.892,2.892,0,0,0,240.837,248.3Z" fill="#7e0000"/>
        <path id="Path_3744" data-name="Path 3744" d="M256.46,252.085s2.186,3.088,2.615,10.521,1.349,16.753,1.349,16.753l4.108-1.1s-2.215-19.27-2.12-20.212,3.162-5.178,4.02-6.125a5.142,5.142,0,0,0,1.116-2.059s-1.606-2.156-2.894-2.607-1.594-.266-1.594-.266a44.564,44.564,0,0,1-3.065,4.157c-.123-.172-.614-.258-.614,0s-.306,1.03-.429.643-.736-.024-.92.132A6.062,6.062,0,0,1,256.46,252.085Z" fill="#7e0000"/>
        <rect id="Rectangle_609" data-name="Rectangle 609" width="6.101" height="2.088" rx="0.312" transform="translate(250.675 291.765)" fill="#375987"/>
        <rect id="Rectangle_610" data-name="Rectangle 610" width="6.53" height="2.088" rx="0.322" transform="translate(259.259 291.765)" fill="#375987"/>
      </g>
      <g id="Group_1982" data-name="Group 1982">
        <g id="Group_1978" data-name="Group 1978">
          <path id="Path_3745" data-name="Path 3745" d="M302.869,239.17s1.378-1.9,2.826-.736a3.461,3.461,0,0,1,.584,4.388c-.734.759-2,4.128-1.769,4.183s-.082.626-.617.523a1.838,1.838,0,0,1-1.457-2.452,5.358,5.358,0,0,0,.164-3Z" fill="#8d3b26"/>
          <path id="Path_3746" data-name="Path 3746" d="M296.849,312.09a3.8,3.8,0,0,0-.506,1.6c.031.667.515,2.235,1.029,2.293s1.544-1.037,1.684-1.219a7.415,7.415,0,0,0,.923-3.5Z" fill="#8d3b26"/>
          <path id="Path_3747" data-name="Path 3747" d="M298.211,288.869c1.558,0,2.145.934,2.262,5.3s-.377,16.247-.8,16.322-2.132.214-2.007-1.223c.084-.973-.438-2.115-.814-4.322-.646-3.8-1.383-8.657-1.408-9.554C295.4,293.976,295.718,288.871,298.211,288.869Z" fill="#ffbd95"/>
          <path id="Path_3748" data-name="Path 3748" d="M306.361,289.179c-1.483.48-1.752,1.55-.513,5.743s5.376,15.336,5.807,15.275,2.074-.191,1.545-1.532c-.355-.9-.327-2.971-.722-5.6-.543-3.617-1.233-7.745-1.465-8.533C310.612,293.168,308.733,288.41,306.361,289.179Z" fill="#ffbd95"/>
          <path id="Path_3749" data-name="Path 3749" d="M296.866,252.339c.77-.762-1.025-3.7-3.593-6.188-4.462-4.319-5.279-6.377-6.766-5.153-1.348,1.111.392,2.949,3.7,7.14C292.784,251.414,295.271,253.917,296.866,252.339Z" fill="#ffa47c"/>
          <path id="Path_3750" data-name="Path 3750" d="M293.836,272.283c-.754,1.374-.719,3.849-.345,7.067a80.549,80.549,0,0,0,2.683,11.42c.813,2.843,3.631,2.723,4.059.465.118-.623.627-13.111.471-14.513s-.312-3.971-1.324-5.529C298.627,270.034,294.959,270.235,293.836,272.283Z" fill="#ffbd95"/>
          <path id="Path_3751" data-name="Path 3751" d="M308.895,250.123c-.4-.907-2.994-1.383-3.947-1.667a19.291,19.291,0,0,0-7.709,0c-.954.284-3.545.76-3.947,1.667-.609,1.37,3.566,10.159,3.021,15.212-.181,1.677-3.175,6.522-2.753,8.155.515,2,7.144,3.232,7.144,3.232h.779s6.629-1.235,7.144-3.232c.421-1.633-2.668-6.408-2.663-8.1C305.99,256.525,309.5,251.493,308.895,250.123Z" fill="#ffa47c"/>
          <path id="Path_3752" data-name="Path 3752" d="M307.813,271.291c1,1.208,1.429,3.645,1.666,6.876a80.59,80.59,0,0,1-.489,11.721c-.264,2.945-3.054,3.357-3.9,1.22-.233-.59-3.08-12.761-3.19-14.166s-.44-3.96.261-5.679C302.684,269.983,306.324,269.49,307.813,271.291Z" fill="#ffbd95"/>
          <path id="Path_3753" data-name="Path 3753" d="M303.176,246.587a18.164,18.164,0,0,1-.263-3.621h-3.64a18.164,18.164,0,0,1-.263,3.621,6.849,6.849,0,0,1-1.771,1.869h7.709A6.848,6.848,0,0,1,303.176,246.587Z" fill="#ffa47c"/>
          <path id="Path_3754" data-name="Path 3754" d="M288,243.321c.865-.487.592-2.555-.628-5.481-1.448-3.472-3.346-7.98-4.154-7.628-.379.165-.476.732-.168,1.465.645,1.54.952,4.431,1.467,6.758C285.311,242.025,286.337,244.258,288,243.321Z" fill="#ffa47c"/>
          <path id="Path_3755" data-name="Path 3755" d="M305.345,253.343c-.691-.728,1.237-3.569,3.877-5.975,4.59-4.184,5.516-6.168,6.866-5,1.225,1.059-.576,2.839-4.04,6.891C309.34,252.427,306.776,254.851,305.345,253.343Z" fill="#ffa47c"/>
          <path id="Path_3756" data-name="Path 3756" d="M314.2,244.091c-.836-.494-.171-3.16,1.924-5.957,2.413-3.223,5.8-7.889,6.52-7.41.979.653-1.685,4.831-3.351,8.436C317.609,242.812,315.936,245.114,314.2,244.091Z" fill="#ffa47c"/>
          <path id="Path_3757" data-name="Path 3757" d="M303.176,246.587l-.222-1.675c-.028-.535-.037-1.071-.04-1.446v-.005l-1.661-.495h-1.98a18.164,18.164,0,0,1-.263,3.621,6.849,6.849,0,0,1-1.771,1.869s2.5-.621,2.969-.787S303.176,246.587,303.176,246.587Z" fill="#ffa47c"/>
          <path id="Path_3758" data-name="Path 3758" d="M304.438,241.415c-.585,2.8-3.46,4.567-4.889,4.269-1.391-.291-2.8-2.973-2.473-5.855.32-2.842,2.388-4.3,4.5-3.864S305.023,238.616,304.438,241.415Z" fill="#ffbd95"/>
          <path id="Path_3759" data-name="Path 3759" d="M299.353,237.819c.271.8,1.03,1.321,2.74,1.542,1.224.159,1.936,1.9,1.89,2.576-.018.258-.373,1.487-.373,1.487a4.361,4.361,0,0,0,.55-5.78c-2.211-3.363-5.192-1.658-5.228-1.407A7.058,7.058,0,0,0,299.353,237.819Z" fill="#8d3b26"/>
          <path id="Path_3760" data-name="Path 3760" d="M300.087,237.194s-.055,1.183-1.074,1.371a5.557,5.557,0,0,0-2.03.982s-.061-2.813,1.949-3.31S300.087,237.194,300.087,237.194Z" fill="#8d3b26"/>
          <path id="Path_3761" data-name="Path 3761" d="M297.661,309.272s-.9,2.936-.9,3.284.376,1.683.867,1.683c1.372,0,2.431-2.4,2.365-3.236s-.123-1.731-.123-1.731Z" fill="#ffbd95"/>
          <path id="Path_3762" data-name="Path 3762" d="M314.758,310.866a3.809,3.809,0,0,1,.975,1.364c.177.644.2,2.284-.27,2.5s-1.789-.508-1.979-.639a7.408,7.408,0,0,1-1.957-3.041Z" fill="#8d3b26"/>
          <path id="Path_3763" data-name="Path 3763" d="M313.116,308.437s1.766,2.513,1.874,2.844.162,1.717-.3,1.869c-1.3.424-3.055-1.537-3.249-2.348s-.417-1.684-.417-1.684Z" fill="#ffbd95"/>
          <g id="Group_1976" data-name="Group 1976">
            <path id="Path_3764" data-name="Path 3764" d="M282.273,228.361h0a.286.286,0,0,1,.356.189l.36,1.168a.286.286,0,0,1-.19.358h0a.286.286,0,0,1-.356-.189l-.36-1.168A.286.286,0,0,1,282.273,228.361Z" fill="#ffa47c"/>
            <path id="Path_3765" data-name="Path 3765" d="M282.769,228.155h0a.286.286,0,0,1,.356.189l.36,1.168a.287.287,0,0,1-.19.358h0a.286.286,0,0,1-.356-.189l-.36-1.168A.287.287,0,0,1,282.769,228.155Z" fill="#ffa47c"/>
            <path id="Path_3766" data-name="Path 3766" d="M283.264,227.984h0a.286.286,0,0,1,.356.189l.36,1.168a.286.286,0,0,1-.19.358h0a.287.287,0,0,1-.357-.189l-.36-1.168A.287.287,0,0,1,283.264,227.984Z" fill="#ffa47c"/>
            <path id="Path_3767" data-name="Path 3767" d="M283.758,227.865h0a.287.287,0,0,1,.356.189l.36,1.169a.285.285,0,0,1-.19.357h0a.287.287,0,0,1-.356-.19l-.36-1.168A.285.285,0,0,1,283.758,227.865Z" fill="#ffa47c"/>
            <path id="Path_3768" data-name="Path 3768" d="M284.673,232.093a19.7,19.7,0,0,0,.171-2.4,12.358,12.358,0,0,0-.794-1.752s-.354.6-.7.655-1.264.118-1.264.118a8.809,8.809,0,0,0,.271,1.924,12.891,12.891,0,0,0,.925,1.677Z" fill="#ffa47c"/>
          </g>
          <g id="Group_1977" data-name="Group 1977">
            <path id="Path_3769" data-name="Path 3769" d="M323.9,228.531h0a.288.288,0,0,0-.373.155l-.467,1.13a.286.286,0,0,0,.155.374h0a.286.286,0,0,0,.372-.155l.468-1.129A.287.287,0,0,0,323.9,228.531Z" fill="#ffa47c"/>
            <path id="Path_3770" data-name="Path 3770" d="M323.421,228.28h0a.288.288,0,0,0-.373.155l-.467,1.129a.286.286,0,0,0,.155.374h0a.288.288,0,0,0,.372-.155l.468-1.13A.286.286,0,0,0,323.421,228.28Z" fill="#ffa47c"/>
            <path id="Path_3771" data-name="Path 3771" d="M322.944,228.063h0a.287.287,0,0,0-.372.155l-.468,1.13a.286.286,0,0,0,.155.374h0a.286.286,0,0,0,.372-.155l.468-1.129A.287.287,0,0,0,322.944,228.063Z" fill="#ffa47c"/>
            <path id="Path_3772" data-name="Path 3772" d="M322.464,227.9h0a.286.286,0,0,0-.372.155l-.468,1.129a.285.285,0,0,0,.155.374h0a.287.287,0,0,0,.372-.155l.468-1.13A.287.287,0,0,0,322.464,227.9Z" fill="#ffa47c"/>
            <path id="Path_3773" data-name="Path 3773" d="M321.157,232.022a19.7,19.7,0,0,1,.054-2.4,12.307,12.307,0,0,1,.955-1.669s.3.629.639.717,1.248.236,1.248.236a8.75,8.75,0,0,1-.451,1.89,19.122,19.122,0,0,1-1.044,1.679Z" fill="#ffa47c"/>
          </g>
        </g>
        <g id="Group_1980" data-name="Group 1980">
          <g id="Group_1979" data-name="Group 1979">
            <path id="Path_3774" data-name="Path 3774" d="M312.668,303.093c-.544-3.617-1.4-7.78-1.655-8.563-.73-2.289-1.845-4.529-1.83-4.7a89.906,89.906,0,0,0,.3-11.667c-.237-3.231-.668-5.668-1.666-6.876-1.489-1.8-5.129-1.308-5.651-.028-.7,1.719-.372,4.272-.261,5.679.107,1.366,2.764,12.77,2.945,14a33.5,33.5,0,0,0,1,3.985c.9,3.049,3.149,9.8,4.474,13.24a27.355,27.355,0,0,1,2.759-1.233C312.981,305.877,312.887,304.553,312.668,303.093Z" fill="#474747"/>
            <path id="Path_3775" data-name="Path 3775" d="M300.473,294.173c-.034-1.265.03-2.18.017-2.94-.017-.981.367-13.131.214-14.511-.156-1.4-.312-3.971-1.324-5.529-.753-1.159-4.421-.958-5.544,1.09-.754,1.374-.719,3.849-.345,7.067a93.528,93.528,0,0,0,2.388,11.374,12.419,12.419,0,0,0-.44,4.672c.025.9.762,5.755,1.408,9.554a28.06,28.06,0,0,1,.446,3.423,17.608,17.608,0,0,1,3.051.224C300.545,305.1,300.561,297.493,300.473,294.173Z" fill="#474747"/>
          </g>
          <path id="Path_3776" data-name="Path 3776" d="M294.927,268.944a12.038,12.038,0,0,0,5.806,1.171,28,28,0,0,0,6.53-1.073,16.877,16.877,0,0,1,1.272,3.23c.349,1.473.54,2.395.54,2.395L302,277.6a.794.794,0,0,0-.651-.771c-.644-.107-.615.953-.615.953l-7.461-3.083a11.93,11.93,0,0,1,.577-3.125C294.348,270.269,294.927,268.944,294.927,268.944Z" fill="#474747"/>
          <path id="Path_3777" data-name="Path 3777" d="M300.733,275.621c-.747-.042-1.468,1.1-1.637,2.161s-.128,12.745,0,13.6-1.06,1.03-.891,1.579a11.2,11.2,0,0,1,1.442,3.517c.185,1.522-.182,9.932-.276,12,.325.032.649.055.973.114.2-3.5.217-11.1.129-14.424-.034-1.265.03-2.18.017-2.94-.015-.864.281-10.377.247-13.586.017-.279.108-.9.611-.818a.718.718,0,0,1,.552.4S301.481,275.663,300.733,275.621Z" fill="#303030"/>
          <path id="Path_3778" data-name="Path 3778" d="M312.668,303.093c-.544-3.617-1.4-7.78-1.655-8.563-.73-2.289-1.845-4.529-1.83-4.7a89.906,89.906,0,0,0,.3-11.667,34.017,34.017,0,0,0-.411-3.5l.007,0s-.03-.145-.086-.4c-.034-.163-.068-.322-.105-.476-.088-.395-.2-.9-.349-1.516-.071-.3-.168-.605-.273-.909a72.9,72.9,0,0,1,.7,11.932,59.946,59.946,0,0,1-.705,7.186,78.74,78.74,0,0,1,2.758,7.631c.4,1.717.907,6.913,1.119,9.207.314-.135.628-.275.942-.39C312.981,305.877,312.887,304.553,312.668,303.093Z" fill="#303030"/>
        </g>
        <g id="Group_1981" data-name="Group 1981">
          <path id="Path_3779" data-name="Path 3779" d="M301.215,252.824a27.784,27.784,0,0,0-5.689.978,3.172,3.172,0,0,0-1.29.766c1.019,3.319,2.242,7.681,1.913,10.73-.035.323-1.4,3.9-1.512,4.3l6.035.894,7.232-.386c-.246-.639-1.8-4.324-1.8-4.712a34.773,34.773,0,0,1,1.687-10.818v-.007a3.609,3.609,0,0,0-1.148-.766A21.373,21.373,0,0,0,301.215,252.824Z" fill="#ff8626"/>
          <path id="Path_3780" data-name="Path 3780" d="M307.789,254.575s-1.878,4.057-2.419,4.051-7.313-.852-7.758,0,4.2,1.966,4.356,4.287-1.3,7.578-1.3,7.578l7.232-.386c-.246-.639-1.8-4.324-1.8-4.712A34.773,34.773,0,0,1,307.789,254.575Z" fill="#ff6e26"/>
        </g>
        <path id="Path_3781" data-name="Path 3781" d="M295.526,253.8a2.617,2.617,0,0,0,.494-1.1,23.579,23.579,0,0,0-.117-3.892l1.336-.351s.41,2.638.968,2.916,2.745,1.452,2.745,1.452Z" fill="#ff8626"/>
        <path id="Path_3782" data-name="Path 3782" d="M306.641,253.8a2.618,2.618,0,0,1-.494-1.1,23.691,23.691,0,0,1,.117-3.892l-1.336-.351s-.41,2.638-.968,2.916-2.745,1.452-2.745,1.452Z" fill="#ff8626"/>
      </g>
      <g id="Group_1990" data-name="Group 1990">
        <g id="Group_1987" data-name="Group 1987">
          <g id="Group_1983" data-name="Group 1983">
            <rect id="Rectangle_611" data-name="Rectangle 611" width="1.611" height="20.054" transform="translate(271.319 293.125)" fill="#6a6a6a"/>
            <rect id="Rectangle_612" data-name="Rectangle 612" width="1.549" height="20.054" transform="translate(288.327 293.125)" fill="#6a6a6a"/>
            <path id="Path_3783" data-name="Path 3783" d="M273.661,290.629l-.827.023-.676-14.279.827-.023Z" fill="#6a6a6a"/>
            <path id="Path_3784" data-name="Path 3784" d="M288.174,290.652l-.827-.023.66-14.28.827.023Z" fill="#6a6a6a"/>
            <path id="Path_3785" data-name="Path 3785" d="M289.6,293.125H271.144a1.242,1.242,0,0,1-1.242-1.241h0a1.242,1.242,0,0,1,1.242-1.242H289.6a1.242,1.242,0,0,1,1.242,1.242h0A1.242,1.242,0,0,1,289.6,293.125Z" fill="#303030"/>
            <path id="Rectangle_613" data-name="Rectangle 613" d="M1.695,0h15.9a1.694,1.694,0,0,1,1.694,1.694V5.7A1.695,1.695,0,0,1,17.593,7.4H1.695A1.695,1.695,0,0,1,0,5.7V1.695A1.695,1.695,0,0,1,1.695,0Z" transform="translate(270.898 272.989)" fill="#303030"/>
          </g>
          <g id="Group_1986" data-name="Group 1986">
            <path id="Path_3786" data-name="Path 3786" d="M278.105,267.154c.467-1.152-.49-2.614-2.649-3.449s-3.722-1.168-4.289-1.371c-.585-.21-3.883-1.676-4.825-1.925a1.859,1.859,0,0,0-2.329.946c-.3.77.713,2.238,2.135,3.135S276.85,270.247,278.105,267.154Z" fill="#ffbd95"/>
            <path id="Path_3787" data-name="Path 3787" d="M266.8,263.08c.741-.687.987-1.647-.849-3.844s-6.746-6.745-6.746-6.745l-1.2,1.112s2.633,5.2,3.578,6.434S264.863,264.88,266.8,263.08Z" fill="#ffbd95"/>
            <g id="Group_1984" data-name="Group 1984">
              <path id="Path_3788" data-name="Path 3788" d="M256.309,250.971h0a.345.345,0,0,1,.482.052l.923,1.145a.345.345,0,0,1-.053.484h0a.345.345,0,0,1-.482-.053l-.922-1.144A.344.344,0,0,1,256.309,250.971Z" fill="#ffbd95"/>
              <path id="Path_3789" data-name="Path 3789" d="M256.772,250.52h0a.344.344,0,0,1,.482.053l.922,1.144a.344.344,0,0,1-.053.484h0a.345.345,0,0,1-.482-.053L256.719,251A.344.344,0,0,1,256.772,250.52Z" fill="#ffbd95"/>
              <path id="Path_3790" data-name="Path 3790" d="M257.248,250.109h0a.345.345,0,0,1,.482.052l.922,1.144a.344.344,0,0,1-.053.484h0a.345.345,0,0,1-.482-.052l-.923-1.144A.344.344,0,0,1,257.248,250.109Z" fill="#ffbd95"/>
              <path id="Path_3791" data-name="Path 3791" d="M257.746,249.755h0a.345.345,0,0,1,.482.053l.923,1.144a.344.344,0,0,1-.053.484h0a.344.344,0,0,1-.482-.053l-.922-1.144A.345.345,0,0,1,257.746,249.755Z" fill="#ffbd95"/>
              <path id="Path_3792" data-name="Path 3792" d="M260.651,254.069a23.855,23.855,0,0,0-.876-2.753,14.869,14.869,0,0,0-1.667-1.6s-.129.826-.494,1.044-1.359.7-1.359.7a10.541,10.541,0,0,0,1.159,2.027,7.537,7.537,0,0,0,1.131.984Z" fill="#ffbd95"/>
            </g>
            <path id="Path_3793" data-name="Path 3793" d="M285.851,267.851c-.478-1.147.464-2.618,2.614-3.474s3.711-1.205,4.276-1.414c.582-.215,3.866-1.713,4.806-1.972a1.857,1.857,0,0,1,2.337.923c.306.767-.69,2.245-2.1,3.156S287.136,270.932,285.851,267.851Z" fill="#ffbd95"/>
            <path id="Path_3794" data-name="Path 3794" d="M297.008,263.353c-.73-.7-.959-1.663.914-3.83s6.857-6.631,6.857-6.631l1.18,1.132s-2.719,5.153-3.684,6.373S298.917,265.185,297.008,263.353Z" fill="#ffbd95"/>
            <path id="Path_3795" data-name="Path 3795" d="M287.936,274.865c1.24-3.129,4.3-8.444,2.734-9.483-2.042-1.354-8.068-2.444-8.068-2.444l-.005.1s-6.146.165-8.323,1.29c-1.669.863.836,6.744,1.73,9.989a37,37,0,0,1-.1,7.224c-.065.749-.632,4.193-.6,5.625.009.427,4.417,3.32,5.8,3.463l.005-.1c1.392.008,6.492-2.358,6.547-2.782a54.366,54.366,0,0,0-.239-5.655A41.843,41.843,0,0,1,287.936,274.865Z" fill="#ffbd95"/>
            <path id="Path_3796" data-name="Path 3796" d="M286.241,265.354a6.94,6.94,0,0,1,2.667-1.413,44.335,44.335,0,0,0,4.814-1.673,3.214,3.214,0,0,1,1.966,2,10.611,10.611,0,0,1,.672,2.413s-7.2,2.838-7.68,2.857S286.937,267.259,286.241,265.354Z" fill="#cee0ff"/>
            <path id="Path_3797" data-name="Path 3797" d="M285.19,262.1c-.105-.633-.285-3.742-.285-3.742l-2.048-.111-.006.1-2.048-.111s-.515,3.071-.688,3.689-1.91,1.469-1.91,1.469l4.359.236.006-.1,4.359.237S285.3,262.736,285.19,262.1Z" fill="#ffbd95"/>
            <path id="Path_3798" data-name="Path 3798" d="M285.1,261.224c-.079-.953-.161-2.309-.186-2.731l-.125-.137-1.931-.1-.006.1-2.048-.111s-.515,3.071-.688,3.689-1.91,1.469-1.91,1.469l.206.011c1.974-.413,3.936-.825,4.2-.886a17.926,17.926,0,0,0,2.487-1.3Z" fill="#ffa47c"/>
            <g id="Group_1985" data-name="Group 1985">
              <path id="Path_3799" data-name="Path 3799" d="M303.309,254.446a23.657,23.657,0,0,1,.923-2.738,14.77,14.77,0,0,1,1.693-1.573s.115.828.477,1.052,1.347.717,1.347.717a10.539,10.539,0,0,1-1.194,2.008,7.472,7.472,0,0,1-1.147.964Z" fill="#ffbd95"/>
              <path id="Path_3800" data-name="Path 3800" d="M307.7,251.421h0a.345.345,0,0,0-.483.045l-.941,1.128a.344.344,0,0,0,.045.485h0a.345.345,0,0,0,.483-.045l.941-1.128A.344.344,0,0,0,307.7,251.421Z" fill="#ffbd95"/>
              <path id="Path_3801" data-name="Path 3801" d="M307.247,250.962h0a.346.346,0,0,0-.483.045l-.941,1.129a.342.342,0,0,0,.045.484v0a.347.347,0,0,0,.483-.045l.941-1.129A.343.343,0,0,0,307.247,250.962Z" fill="#ffbd95"/>
              <path id="Path_3802" data-name="Path 3802" d="M306.778,250.543h0a.345.345,0,0,0-.483.045l-.941,1.128a.345.345,0,0,0,.045.485h0a.345.345,0,0,0,.483-.045l.941-1.128A.344.344,0,0,0,306.778,250.543Z" fill="#ffbd95"/>
              <path id="Path_3803" data-name="Path 3803" d="M306.286,250.182v0a.346.346,0,0,0-.483.045l-.941,1.129a.343.343,0,0,0,.044.484l0,0a.346.346,0,0,0,.483-.045l.941-1.129A.344.344,0,0,0,306.286,250.182Z" fill="#ffbd95"/>
            </g>
            <path id="Path_3804" data-name="Path 3804" d="M277.69,264.66a6.943,6.943,0,0,0-2.681-1.387,44.291,44.291,0,0,1-4.83-1.625,3.213,3.213,0,0,0-1.946,2.023,10.645,10.645,0,0,0-.649,2.42s7.229,2.767,7.709,2.781S277.013,266.572,277.69,264.66Z" fill="#cee0ff"/>
            <path id="Path_3805" data-name="Path 3805" d="M286.808,255.915c-.154,2.71-2.356,5.292-4.094,5.193-1.662-.1-3.633-2.915-3.479-5.625s1.975-4.81,4.066-4.691S286.963,253.2,286.808,255.915Z" fill="#ffbd95"/>
            <path id="Path_3806" data-name="Path 3806" d="M279.2,256.026a4.6,4.6,0,0,1-.489-2.148,10.986,10.986,0,0,1,1.131-2.106,8.024,8.024,0,0,1,2.561-1.235,7.683,7.683,0,0,1,1.7.1,3.168,3.168,0,0,1,1.884,1.119c.218.505.8,1.106.972,1.51a5.352,5.352,0,0,1,.406,1.577c-.057.145-.4,1.358-.428,1.455a2.417,2.417,0,0,1-.223.367s-.874-2.647-.885-2.894-5.168-.615-5.5-.461A11.749,11.749,0,0,0,279.2,256.026Z" fill="#8d3b26"/>
            <path id="Path_3807" data-name="Path 3807" d="M277.25,311.629l-3.634-.365a30.614,30.614,0,0,0-3.091,2.486,2.668,2.668,0,0,0-.824,2.267s3.083.807,4.388,0a30.267,30.267,0,0,1,3.161-1.613Z"/>
            <path id="Path_3808" data-name="Path 3808" d="M275.268,283.4l-3.048,5.11-.194,2.5h9.03l6.754-.212,1.242-2.085-1.734-5.311Z" fill="#00233f"/>
            <path id="Path_3809" data-name="Path 3809" d="M271.7,289.809l.918,22.182h5.628l.527-22.182a4.041,4.041,0,0,0-3.749-2.834C272.519,286.975,271.7,289.809,271.7,289.809Z" fill="#002d56"/>
            <path id="Path_3810" data-name="Path 3810" d="M275.023,286.975h0c-2.5,0-3.324,2.834-3.324,2.834l.918,22.182h2.41Z" fill="#00233f"/>
            <path id="Path_3811" data-name="Path 3811" d="M284.292,311.961l3.635-.364a30.5,30.5,0,0,1,3.09,2.486,2.668,2.668,0,0,1,.825,2.266s-3.084.807-4.39,0a30.19,30.19,0,0,0-3.16-1.613Z"/>
            <path id="Path_3812" data-name="Path 3812" d="M289.847,290.142l-.917,22.181H283.3l-.525-22.181a4.042,4.042,0,0,1,3.751-2.835C289.021,287.307,289.847,290.142,289.847,290.142Z" fill="#002d56"/>
            <path id="Path_3813" data-name="Path 3813" d="M286.309,287.333a4.088,4.088,0,0,0-3.539,2.809l.525,22.181h3.014Z" fill="#00233f"/>
            <path id="Path_3814" data-name="Path 3814" d="M291.179,265.506c-.18-.5-1.706-.928-3.043-1.423-1.179-.437-2.227-.966-2.227-.966l-3.431,1.725-3.225-2.086s-1.1.412-2.319.719c-1.383.347-2.92.618-3.179,1.085s1.669,9.951,1.9,10.76-.926,6.537-.323,8.238l6.107.3h.013l5.971-.138c.648-1.878.385-7.054.7-7.834S291.674,266.89,291.179,265.506Z" fill="#cee0ff"/>
            <path id="Path_3815" data-name="Path 3815" d="M282.829,283.255c-.565-.373-1.417-.754-1.931-1.09s.02-1.435.028-2.009,1.627-1.611,2.713-1.978,2.948-.177,3.4-.919-.68-1.489-1.183-1.5-3.707-1.027-4.211-.968-4.317.358-4.915-.124-3.409-9.333-3.409-9.333c.606,2.964,2.2,9.4,2.36,9.914.254.8-.985,6.657-.333,8.339l6.475.444h.013l5.589-.3s-.822-.23-1.356-.407S283.393,283.629,282.829,283.255Z" fill="#b8d1ff"/>
          </g>
        </g>
        <g id="Group_1988" data-name="Group 1988">
          <rect id="Rectangle_614" data-name="Rectangle 614" width="37.416" height="2.302" transform="translate(261.713 319.365) rotate(-90)" fill="#79858e"/>
          <rect id="Rectangle_615" data-name="Rectangle 615" width="37.416" height="2.302" transform="translate(302.05 319.565) rotate(-90)" fill="#79858e"/>
          <rect id="Rectangle_616" data-name="Rectangle 616" width="41.68" height="6.104" transform="translate(262.174 281.949)" fill="#79858e"/>
          <path id="Path_3816" data-name="Path 3816" d="M304.352,286.08l-42.647.608v-2.026l42.647.022Z" fill="#b9b9bd" style="mix-blend-mode: multiply;isolation: isolate"/>
          <rect id="Rectangle_617" data-name="Rectangle 617" width="48.098" height="3.779" transform="translate(259.02 281.047)" fill="#99a2a9"/>
        </g>
        <g id="Group_1989" data-name="Group 1989">
          <rect id="Rectangle_618" data-name="Rectangle 618" width="18.742" height="13.142" transform="translate(276.74 263.734)" fill="#303030"/>
          <rect id="Rectangle_619" data-name="Rectangle 619" width="4.259" height="12.644" transform="translate(284.485 268.25)" fill="#424242"/>
          <path id="Path_3817" data-name="Path 3817" d="M276.74,263.734l7.745,4.516h4.26l6.738-4.516Z" fill="#424242"/>
          <path id="Path_3818" data-name="Path 3818" d="M276.74,276.75l7.686-3.283.058-5.217-7.745-4.516Z" fill="#222"/>
          <path id="Path_3819" data-name="Path 3819" d="M295.482,263.734l-6.815,4.516.077,4.927,6.738,3.7-6.147-4.047.087-4.153Z" fill="#222"/>
          <rect id="Rectangle_620" data-name="Rectangle 620" width="7.899" height="0.793" transform="translate(283.13 280.254)" fill="#424242"/>
        </g>
      </g>
      <g id="Group_1995" data-name="Group 1995">
        <g id="Group_1994" data-name="Group 1994">
          <path id="Path_3820" data-name="Path 3820" d="M316,253.537a7.805,7.805,0,0,1,3.542-1.076,9.307,9.307,0,0,1,3.665.162l.321-3.945-.918-3.83-5.622.968L316,249.975Z" fill="#561d10"/>
          <g id="Group_1991" data-name="Group 1991">
            <path id="Path_3821" data-name="Path 3821" d="M323.087,311.941a3.451,3.451,0,0,0,.511,1.522,1.452,1.452,0,0,1-.045,1.336c-.568.531-1.22.337-1.9.764s-1.718,1.96-2.3,2.1-1.9.082-1.978-.194,1.3-1.285,1.3-1.285c2.075-2.548,2.3-3.75,2.3-3.75A14.985,14.985,0,0,1,323.087,311.941Z" fill="#ffa47c"/>
            <path id="Path_3822" data-name="Path 3822" d="M318.676,316.185s-.395.332-.333.435c.09.148.687.092.843.013a16.3,16.3,0,0,0,3.664-2.721,2.155,2.155,0,0,0,.457-1.037,1.728,1.728,0,0,1,.487,1.4,1.872,1.872,0,0,1-.241.521,15.4,15.4,0,0,1-1.7,1c-.684.426-1.636,1.966-2.214,2.106s-2.535.106-2.617-.171C316.957,317.52,318.029,316.632,318.676,316.185Z" fill="#4f2718"/>
            <path id="Path_3823" data-name="Path 3823" d="M323.808,314.168s-.411,1.1-.532,1.473a12.1,12.1,0,0,0-.308,1.759l-.253-.016s.332-2.26-.863-1.582C321.478,316.014,323.808,314.168,323.808,314.168Z" fill="#4f2718"/>
          </g>
          <path id="Path_3824" data-name="Path 3824" d="M317.983,295.624c1.939,1,3.427,4.709,3.794,6.194s.986,9.7,1.229,10.2-1.913.723-1.988.421a107.292,107.292,0,0,0-4.312-11.274c-.358-.733-1.842-4.125-1.953-4.47C314.183,294.915,316.875,295.05,317.983,295.624Z" fill="#ffa47c"/>
          <path id="Path_3825" data-name="Path 3825" d="M324.68,304.986a3.63,3.63,0,0,0-.224,1.586c.133.624.837,2.025,1.33,2s1.292-1.22,1.395-1.414a7.07,7.07,0,0,0,.318-3.44Z" fill="#8d3b26"/>
          <path id="Path_3826" data-name="Path 3826" d="M317.544,260.885c.827-.623-.495-3.638-2.607-6.319-3.671-4.661-4.181-6.714-5.745-5.746-1.42.879-.007,2.843,2.582,7.233C313.8,259.485,315.832,262.174,317.544,260.885Z" fill="#ffbd95"/>
          <path id="Path_3827" data-name="Path 3827" d="M329,255.173c-.529-.786-3.046-.805-3.99-.914a18.406,18.406,0,0,0-7.253,1.279c-.85.425-3.209,1.3-3.437,2.223-.345,1.39,4.883,7.82,3.131,12.347-.582,1.5-3.988,5.475-4,7.086-.019,1.97,5.793,4.748,5.793,4.748l.359.1.36.1s6.422.5,7.391-1.215c.793-1.4-.806-8.393-.607-10.329C327.258,265.619,329.8,256.361,329,255.173Z" fill="#ffbd95"/>
          <path id="Path_3828" data-name="Path 3828" d="M313.445,277.54c-.818,1.254-.964,3.614-.842,6.706a77.159,77.159,0,0,0,1.725,11.074c.568,2.767,3.261,2.858,3.834.738.157-.585,1.549-12.444,1.5-13.791s-.008-3.8-.859-5.362C318.172,275.746,314.664,275.671,313.445,277.54Z" fill="#ffa47c"/>
          <path id="Path_3829" data-name="Path 3829" d="M323.035,252.795a17.4,17.4,0,0,1-.848-3.363l-1.712.3-1.713.3a17.317,17.317,0,0,1,.354,3.45,6.536,6.536,0,0,1-1.357,2.052l3.627-.64,3.626-.639A6.536,6.536,0,0,1,323.035,252.795Z" fill="#ffbd95"/>
          <path id="Path_3830" data-name="Path 3830" d="M309.881,251.015c.923-.216,1.814-2.045,1.3-5.029-.591-3.439-1.358-8.379-2.194-8.271-.391.05-.631.544-.545,1.3.182,1.585-.306,4.318-.455,6.591C307.758,249.11,308.1,251.431,309.881,251.015Z" fill="#ffbd95"/>
          <path id="Path_3831" data-name="Path 3831" d="M327.867,258.485c.954.105,2-3,2.307-6.4.531-5.909,1.506-7.76-.162-8.112-1.514-.32-1.828,2.079-2.909,7.055C326.257,254.916,325.894,258.268,327.867,258.485Z" fill="#ffbd95"/>
          <path id="Path_3832" data-name="Path 3832" d="M330,247.192c.924-.077,1.46-2.647.821-5.923-.738-3.776-1.716-9.2-2.531-9.084-1.113.156-.558,4.856-.623,8.65C327.6,244.677,328.085,247.352,330,247.192Z" fill="#ffbd95"/>
          <path id="Path_3833" data-name="Path 3833" d="M323.035,252.795l-.487-1.539c-.114-.5-.213-1-.277-1.354v0l-1.645-.19-.15.027-1.713.3a17.317,17.317,0,0,1,.354,3.45,6.536,6.536,0,0,1-1.357,2.052s2.249-1,2.663-1.233S323.035,252.795,323.035,252.795Z" fill="#ffa47c"/>
          <path id="Path_3834" data-name="Path 3834" d="M316.363,247.758c-.041,2.566,2.126,4.681,3.436,4.7,1.275.02,3.036-2.05,3.321-4.636.282-2.551-1.24-4.24-3.178-4.271S316.4,245.192,316.363,247.758Z" fill="#ffbd95"/>
          <path id="Path_3835" data-name="Path 3835" d="M321.387,244.934c-.283.761-1.051,1.041-2.69,1.2a2.743,2.743,0,0,0-2.211,1.783,37.266,37.266,0,0,0-.488,5.617s-1.406-5.763.8-8.91,5.037-1.365,5.133-.9C321.984,243.97,321.524,244.568,321.387,244.934Z" fill="#8d3b26"/>
          <path id="Path_3836" data-name="Path 3836" d="M319.429,244.686s-.15,1.195,1.291,1.252c2.725.107,1.257,7.041,1.257,7.041s.975.282,1.228-.356c.937-2.367,1.947-8.662-1.934-9.023C318.461,243.338,319.429,244.686,319.429,244.686Z" fill="#8d3b26"/>
          <path id="Path_3837" data-name="Path 3837" d="M325,302.2s-.389,2.909-.334,3.237.62,1.527,1.082,1.45c1.293-.217,1.911-2.65,1.718-3.422-.112-.45-.207-.927-.3-1.239a4.636,4.636,0,0,0-.541-1.252Z" fill="#ffbd95"/>
          <path id="Path_3838" data-name="Path 3838" d="M317.132,294.316c-.9,1.185-.829,1.942,1.02,3.483s7.343,5.114,7.624,4.813,1.325-1.551.623-1.934c-.476-.259-.675-1.036-1.426-2.055a51.691,51.691,0,0,0-3.377-4.247C321,293.874,318.573,292.419,317.132,294.316Z" fill="#ffbd95"/>
          <path id="Path_3839" data-name="Path 3839" d="M327.5,279.3c.325,1.461-.366,3.722-1.567,6.575a77.208,77.208,0,0,1-5.5,9.762c-1.5,2.391-4.057,1.531-3.849-.655.058-.6,2.92-12.2,3.436-13.44s1.344-3.561,2.688-4.72C323.7,275.962,327.016,277.123,327.5,279.3Z" fill="#ffbd95"/>
          <g id="Group_1992" data-name="Group 1992">
            <path id="Path_3840" data-name="Path 3840" d="M308.461,235.806h0a.286.286,0,0,1,.3.269l.07,1.22a.286.286,0,0,1-.27.3h0a.287.287,0,0,1-.3-.269l-.07-1.22A.286.286,0,0,1,308.461,235.806Z" fill="#ffbd95"/>
            <path id="Path_3841" data-name="Path 3841" d="M308.992,235.725h0a.286.286,0,0,1,.3.269l.071,1.22a.288.288,0,0,1-.27.3h0a.286.286,0,0,1-.3-.269l-.071-1.221A.286.286,0,0,1,308.992,235.725Z" fill="#ffbd95"/>
            <path id="Path_3842" data-name="Path 3842" d="M309.514,235.677h0a.287.287,0,0,1,.3.269l.07,1.22a.286.286,0,0,1-.27.3h0a.286.286,0,0,1-.3-.269l-.07-1.22A.286.286,0,0,1,309.514,235.677Z" fill="#ffbd95"/>
            <path id="Path_3843" data-name="Path 3843" d="M310.022,235.679h0a.287.287,0,0,1,.3.269l.07,1.22a.287.287,0,0,1-.27.3h0a.287.287,0,0,1-.3-.269l-.07-1.22A.285.285,0,0,1,310.022,235.679Z" fill="#ffbd95"/>
            <path id="Path_3844" data-name="Path 3844" d="M309.9,240a19.719,19.719,0,0,0,.74-2.286,12.344,12.344,0,0,0-.353-1.891s-.487.5-.839.467-1.256-.187-1.256-.187a8.737,8.737,0,0,0-.2,1.932,12.9,12.9,0,0,0,.5,1.85Z" fill="#ffbd95"/>
          </g>
          <g id="Group_1993" data-name="Group 1993">
            <path id="Path_3845" data-name="Path 3845" d="M329.2,230.34h0a.286.286,0,0,0-.3.269l-.07,1.22a.286.286,0,0,0,.27.3h0a.287.287,0,0,0,.3-.269l.07-1.221A.285.285,0,0,0,329.2,230.34Z" fill="#ffbd95"/>
            <path id="Path_3846" data-name="Path 3846" d="M328.667,230.258h0a.287.287,0,0,0-.3.269l-.07,1.221a.287.287,0,0,0,.27.3h0a.288.288,0,0,0,.3-.269l.07-1.221A.288.288,0,0,0,328.667,230.258Z" fill="#ffbd95"/>
            <path id="Path_3847" data-name="Path 3847" d="M328.145,230.211h0a.287.287,0,0,0-.3.269l-.07,1.22a.286.286,0,0,0,.27.3h0a.287.287,0,0,0,.3-.269l.07-1.22A.286.286,0,0,0,328.145,230.211Z" fill="#ffbd95"/>
            <path id="Path_3848" data-name="Path 3848" d="M327.638,230.213h0a.286.286,0,0,0-.3.268l-.071,1.221a.287.287,0,0,0,.27.3h0a.288.288,0,0,0,.3-.269l.07-1.221A.286.286,0,0,0,327.638,230.213Z" fill="#ffbd95"/>
            <path id="Path_3849" data-name="Path 3849" d="M327.76,234.537a19.706,19.706,0,0,1-.739-2.287,12.249,12.249,0,0,1,.352-1.89s.487.5.84.467,1.255-.188,1.255-.188a8.747,8.747,0,0,1,.2,1.933,12.943,12.943,0,0,1-.5,1.85Z" fill="#ffbd95"/>
          </g>
        </g>
        <path id="Path_3850" data-name="Path 3850" d="M327.158,270.154c.3-2.061,1.525-10.377,1.525-10.377s-.556.468-1.365-.5c-1.082-1.291-.8-4.893-.8-4.893l-1.5-.127a24.06,24.06,0,0,1-.95,3.973,2.77,2.77,0,0,1-3.665,1.544c-2.267-1.233-2.459-4.438-2.459-4.438l-1.609.795.014,6.467s1.506,4.452.932,6.648-2.993,4.694-4.379,7.742,0,13.013,0,13.013,3.7,1.185,4.863-.025a2.937,2.937,0,0,1,3.627-.3c.666.494,2.347,2.141,2.347,2.141s3.363-5.415,4.074-10.481C328.375,277.285,326.859,272.214,327.158,270.154Z" fill="#27547c"/>
        <path id="Path_3851" data-name="Path 3851" d="M325.907,264.389c-.741-.494-5.374,1.05-7.21.679a3.272,3.272,0,0,1-2.276-2.226c.3.948,1.349,4.512.854,6.406-.575,2.2-2.993,4.694-4.379,7.742s0,13.013,0,13.013,3.7,1.185,4.863-.025c.021-.021.044-.033.065-.054l2.1-6.2s-3.409.989-3.358-1.976,2.976-9.637,3.828-11.367S326.648,264.883,325.907,264.389Z" fill="#002d56"/>
      </g>
    </g>
  </g>
</svg>
