<svg xmlns="http://www.w3.org/2000/svg" width="114" height="134.522" viewBox="0 0 114 134.522">
  <g id="users" transform="translate(-228 -455.093)">
    <path id="Path_3368" data-name="Path 3368" d="M6.626,68.481S25.724,49.528,25.435,36.8,17.911,5.111,29.341.915,52.779,8,64.065,13.5,85.044,19.434,97.2,19.434s15.77,11.14,6.365,26.043S93,86.711,93.58,101.614s-5.064,28.068-15.192,30.094-19.533-4.919-28.937-19.242S18.2,92.788,10.821,91.775-2.2,85.12.839,78.32,6.626,68.481,6.626,68.481Z" transform="translate(230.691 456.993) rotate(-1)" fill="#fb9a2c" opacity="0.22"/>
    <circle id="Ellipse_422" data-name="Ellipse 422" cx="5" cy="5" r="5" transform="translate(228 487.615)" fill="#fb8500" opacity="0.8"/>
    <circle id="Ellipse_424" data-name="Ellipse 424" cx="7" cy="7" r="7" transform="translate(261 575.615)" fill="#fb8500" opacity="0.8"/>
    <ellipse id="Ellipse_425" data-name="Ellipse 425" cx="3.5" cy="4" rx="3.5" ry="4" transform="translate(245 572.615)" fill="#fb8500" opacity="0.8"/>
    <ellipse id="Ellipse_426" data-name="Ellipse 426" cx="5" cy="5.5" rx="5" ry="5.5" transform="translate(332 543.615)" fill="#fb8500" opacity="0.8"/>
    <circle id="Ellipse_423" data-name="Ellipse 423" cx="2.5" cy="2.5" r="2.5" transform="translate(316.77 467.615)" fill="#fb8500" opacity="0.8"/>
    <g id="Group_1968" data-name="Group 1968" transform="translate(245.046 479.28)">
      <g id="Group_1962" data-name="Group 1962" transform="translate(0 85.103)">
        <path id="Path_3470" data-name="Path 3470" d="M183.858,376.235c0,1.6-12.429,2.906-27.762,2.906s-27.763-1.3-27.763-2.906,12.43-2.906,27.763-2.906S183.858,374.63,183.858,376.235Z" transform="translate(-117.733 -372.22)" fill="#5f5f64" opacity="0.07"/>
        <path id="Path_3471" data-name="Path 3471" d="M186.133,376.7c0,1.478-11.446,2.676-25.565,2.676S135,378.18,135,376.7s11.446-2.676,25.565-2.676S186.133,375.225,186.133,376.7Z" transform="translate(-122.206 -372.688)" fill="#5f5f64" opacity="0.07"/>
        <path id="Path_3472" data-name="Path 3472" d="M172.885,373.978c0,2.217-17.175,4.015-38.362,4.015s-38.362-1.8-38.362-4.015,17.175-4.015,38.362-4.015S172.885,371.76,172.885,373.978Z" transform="translate(-96.161 -369.963)" fill="#5f5f64" opacity="0.07"/>
        <path id="Path_3473" data-name="Path 3473" d="M176.029,374.624c0,2.042-15.816,3.7-35.326,3.7s-35.326-1.655-35.326-3.7,15.816-3.7,35.326-3.7S176.029,372.582,176.029,374.624Z" transform="translate(-102.341 -370.609)" fill="#5f5f64" opacity="0.07"/>
        <path id="Path_3474" data-name="Path 3474" d="M178.688,375.171c0,1.893-14.665,3.428-32.756,3.428s-32.757-1.535-32.757-3.428,14.665-3.428,32.757-3.428S178.688,373.278,178.688,375.171Z" transform="translate(-107.569 -371.157)" fill="#5f5f64" opacity="0.07"/>
        <ellipse id="Ellipse_437" data-name="Ellipse 437" cx="29.954" cy="3.135" rx="29.954" ry="3.135" transform="translate(8.408 0.88)" fill="#5f5f64" opacity="0.07"/>
        <path id="Path_3475" data-name="Path 3475" d="M199.762,379.507c0,.717-5.551,1.3-12.4,1.3s-12.4-.581-12.4-1.3,5.551-1.3,12.4-1.3S199.762,378.79,199.762,379.507Z" transform="translate(-149.001 -375.492)" fill="#5f5f64" opacity="0.07"/>
        <path id="Path_3476" data-name="Path 3476" d="M200.778,379.715c0,.66-5.112,1.195-11.418,1.195s-11.419-.535-11.419-1.195,5.112-1.2,11.419-1.2S200.778,379.055,200.778,379.715Z" transform="translate(-150.997 -375.701)" fill="#5f5f64" opacity="0.07"/>
        <path id="Path_3477" data-name="Path 3477" d="M201.638,379.893c0,.612-4.74,1.108-10.588,1.108s-10.588-.5-10.588-1.108,4.741-1.108,10.588-1.108S201.638,379.281,201.638,379.893Z" transform="translate(-152.688 -375.878)" fill="#5f5f64" opacity="0.07"/>
        <path id="Path_3478" data-name="Path 3478" d="M202.576,380.085c0,.56-4.334,1.013-9.682,1.013s-9.682-.454-9.682-1.013,4.334-1.013,9.682-1.013S202.576,379.526,202.576,380.085Z" transform="translate(-154.532 -376.071)" fill="#5f5f64" opacity="0.07"/>
        <path id="Path_3479" data-name="Path 3479" d="M194.995,378.526c0,.983-7.613,1.779-17,1.779s-17-.8-17-1.779,7.614-1.78,17-1.78S194.995,377.543,194.995,378.526Z" transform="translate(-139.628 -374.511)" fill="#5f5f64" opacity="0.07"/>
        <path id="Path_3480" data-name="Path 3480" d="M196.388,378.813c0,.905-7.011,1.639-15.659,1.639s-15.659-.734-15.659-1.639,7.011-1.639,15.659-1.639S196.388,377.907,196.388,378.813Z" transform="translate(-142.367 -374.798)" fill="#5f5f64" opacity="0.07"/>
        <ellipse id="Ellipse_438" data-name="Ellipse 438" cx="14.52" cy="1.52" rx="14.52" ry="1.52" transform="translate(23.842 2.495)" fill="#5f5f64" opacity="0.07"/>
        <path id="Path_3481" data-name="Path 3481" d="M198.853,379.32c0,.768-5.945,1.389-13.277,1.389s-13.278-.622-13.278-1.389,5.945-1.389,13.278-1.389S198.853,378.553,198.853,379.32Z" transform="translate(-147.214 -375.306)" fill="#5f5f64" opacity="0.07"/>
        <ellipse id="Ellipse_439" data-name="Ellipse 439" cx="23.497" cy="2.459" rx="23.497" ry="2.459" transform="translate(14.865 1.555)" fill="#5f5f64" opacity="0.07"/>
        <path id="Path_3482" data-name="Path 3482" d="M190.2,377.539c0,1.25-9.687,2.264-21.637,2.264s-21.637-1.014-21.637-2.264,9.687-2.264,21.637-2.264S190.2,376.289,190.2,377.539Z" transform="translate(-130.2 -373.525)" fill="#5f5f64" opacity="0.07"/>
        <path id="Path_3483" data-name="Path 3483" d="M191.828,377.874c0,1.16-8.983,2.1-20.064,2.1s-20.064-.94-20.064-2.1,8.983-2.1,20.064-2.1S191.828,376.714,191.828,377.874Z" transform="translate(-133.402 -373.859)" fill="#5f5f64" opacity="0.07"/>
        <path id="Path_3484" data-name="Path 3484" d="M193.605,378.24c0,1.06-8.214,1.92-18.347,1.92s-18.347-.86-18.347-1.92,8.214-1.92,18.347-1.92S193.605,377.18,193.605,378.24Z" transform="translate(-136.896 -374.226)" fill="#5f5f64" opacity="0.07"/>
        <path id="Path_3485" data-name="Path 3485" d="M203.747,380.327c0,.494-3.827.894-8.549.894s-8.55-.4-8.55-.894,3.828-.895,8.55-.895S203.747,379.833,203.747,380.327Z" transform="translate(-156.836 -376.312)" fill="#5f5f64" opacity="0.07"/>
        <path id="Path_3486" data-name="Path 3486" d="M204.529,380.488c0,.451-3.49.816-7.794.816s-7.795-.365-7.795-.816,3.49-.816,7.795-.816S204.529,380.037,204.529,380.488Z" transform="translate(-158.373 -376.473)" fill="#5f5f64" opacity="0.07"/>
        <path id="Path_3487" data-name="Path 3487" d="M205.076,380.6c0,.42-3.253.76-7.266.76s-7.266-.34-7.266-.76,3.253-.76,7.266-.76S205.076,380.18,205.076,380.6Z" transform="translate(-159.448 -376.586)" fill="#5f5f64" opacity="0.07"/>
        <path id="Path_3488" data-name="Path 3488" d="M205.672,380.723c0,.387-3,.7-6.691.7s-6.691-.314-6.691-.7,3-.7,6.691-.7S205.672,380.337,205.672,380.723Z" transform="translate(-160.619 -376.709)" fill="#5f5f64" opacity="0.07"/>
        <path id="Path_3489" data-name="Path 3489" d="M206.176,380.826c0,.358-2.778.649-6.2.649s-6.2-.291-6.2-.649,2.778-.649,6.2-.649S206.176,380.468,206.176,380.826Z" transform="translate(-161.609 -376.812)" fill="#5f5f64" opacity="0.07"/>
        <path id="Path_3490" data-name="Path 3490" d="M206.725,380.94c0,.328-2.54.594-5.673.594s-5.674-.266-5.674-.594,2.54-.594,5.674-.594S206.725,380.612,206.725,380.94Z" transform="translate(-162.69 -376.925)" fill="#5f5f64" opacity="0.07"/>
        <path id="Path_3491" data-name="Path 3491" d="M207.412,381.081c0,.289-2.243.524-5.01.524s-5.01-.235-5.01-.524,2.243-.524,5.01-.524S207.412,380.792,207.412,381.081Z" transform="translate(-164.04 -377.067)" fill="#5f5f64" opacity="0.07"/>
        <path id="Path_3492" data-name="Path 3492" d="M207.87,381.175c0,.264-2.045.478-4.567.478s-4.568-.214-4.568-.478,2.045-.478,4.568-.478S207.87,380.911,207.87,381.175Z" transform="translate(-164.941 -377.16)" fill="#5f5f64" opacity="0.07"/>
        <path id="Path_3493" data-name="Path 3493" d="M207.87,381.175c0,.264-2.045.478-4.567.478s-4.568-.214-4.568-.478,2.045-.478,4.568-.478S207.87,380.911,207.87,381.175Z" transform="translate(-164.941 -377.16)" fill="#5f5f64" opacity="0.07"/>
        <path id="Path_3494" data-name="Path 3494" d="M208.244,381.252c0,.243-1.883.44-4.206.44s-4.206-.2-4.206-.44,1.883-.44,4.206-.44S208.244,381.009,208.244,381.252Z" transform="translate(-165.676 -377.238)" fill="#5f5f64" opacity="0.07"/>
        <path id="Path_3495" data-name="Path 3495" d="M208.561,381.317c0,.225-1.746.408-3.9.408s-3.9-.183-3.9-.408,1.746-.408,3.9-.408S208.561,381.092,208.561,381.317Z" transform="translate(-166.299 -377.303)" fill="#5f5f64" opacity="0.07"/>
        <path id="Path_3496" data-name="Path 3496" d="M208.906,381.388c0,.206-1.6.373-3.566.373s-3.567-.167-3.567-.373,1.6-.373,3.567-.373S208.906,381.182,208.906,381.388Z" transform="translate(-166.978 -377.374)" fill="#5f5f64" opacity="0.07"/>
        <path id="Path_3497" data-name="Path 3497" d="M209.338,381.477c0,.182-1.41.33-3.149.33s-3.149-.148-3.149-.33,1.41-.329,3.149-.329S209.338,381.3,209.338,381.477Z" transform="translate(-167.827 -377.463)" fill="#5f5f64" opacity="0.07"/>
        <path id="Path_3498" data-name="Path 3498" d="M209.626,381.536a13.866,13.866,0,0,1-5.742,0,13.869,13.869,0,0,1,5.742,0Z" transform="translate(-168.393 -377.522)" fill="#5f5f64" opacity="0.07"/>
        <path id="Path_3499" data-name="Path 3499" d="M209.828,381.578a12.93,12.93,0,0,1-5.353,0,12.93,12.93,0,0,1,5.353,0Z" transform="translate(-168.789 -377.564)" fill="#5f5f64" opacity="0.07"/>
        <path id="Path_3500" data-name="Path 3500" d="M210.047,381.623a11.9,11.9,0,0,1-4.93,0,11.905,11.905,0,0,1,4.93,0Z" transform="translate(-169.22 -377.608)" fill="#5f5f64" opacity="0.07"/>
        <path id="Path_3501" data-name="Path 3501" d="M210.233,381.661a11.039,11.039,0,0,1-4.571,0,11.037,11.037,0,0,1,4.571,0Z" transform="translate(-169.585 -377.647)" fill="#5f5f64" opacity="0.07"/>
        <path id="Path_3502" data-name="Path 3502" d="M210.435,381.7a10.092,10.092,0,0,1-4.18,0,10.095,10.095,0,0,1,4.18,0Z" transform="translate(-169.983 -377.688)" fill="#5f5f64" opacity="0.07"/>
        <path id="Path_3503" data-name="Path 3503" d="M210.688,381.755a8.919,8.919,0,0,1-3.691,0,8.918,8.918,0,0,1,3.691,0Z" transform="translate(-170.48 -377.741)" fill="#5f5f64" opacity="0.07"/>
        <path id="Path_3504" data-name="Path 3504" d="M210.857,381.789a8.117,8.117,0,0,1-3.365,0,8.117,8.117,0,0,1,3.365,0Z" transform="translate(-170.812 -377.775)" fill="#5f5f64" opacity="0.07"/>
        <path id="Path_3505" data-name="Path 3505" d="M211.1,381.84a6.969,6.969,0,0,1-2.888,0,6.969,6.969,0,0,1,2.888,0Z" transform="translate(-171.298 -377.826)" fill="#5f5f64" opacity="0.07"/>
        <path id="Path_3506" data-name="Path 3506" d="M211.368,381.895a5.756,5.756,0,0,1-2.378,0,5.738,5.738,0,0,1,2.378,0Z" transform="translate(-171.817 -377.88)" fill="#5f5f64" opacity="0.07"/>
        <path id="Path_3507" data-name="Path 3507" d="M211.748,381.973a3.98,3.98,0,0,1-1.642,0,3.965,3.965,0,0,1,1.642,0Z" transform="translate(-172.565 -377.958)" fill="#5f5f64" opacity="0.07"/>
        <path id="Path_3508" data-name="Path 3508" d="M212.022,382.029a2.687,2.687,0,1,1-.556-.058A1.38,1.38,0,0,1,212.022,382.029Z" transform="translate(-173.104 -378.015)" fill="#5f5f64" opacity="0.07"/>
      </g>
      <g id="Group_1967" data-name="Group 1967" transform="translate(4.043 0)">
        <g id="Group_1965" data-name="Group 1965" transform="translate(0 0)">
          <path id="Path_3509" data-name="Path 3509" d="M118.229,330.983a10,10,0,0,0,3.972,4.163l1.083.653,2.125,1.282,1.25.753a.642.642,0,0,0,.98-.31c.1-.477-.269-.8-.59-1.067-.288-.236-.552-.506-.835-.75-.592-.51-1.157-1.052-1.747-1.564-.131-.113-.254-.241-.391-.348l.464.335,1.135.821q.714.518,1.429,1.036.676.491,1.354.981c.328.236.649.487.991.7a.837.837,0,0,0,1.049-.016.769.769,0,0,0,.1-.6,1.364,1.364,0,0,0-.382-.692c-.166-.152-.322-.3-.477-.469a17.352,17.352,0,0,0-1.36-1.243c-.51-.435-1.017-.873-1.534-1.3q-.645-.534-1.29-1.069c-.2-.168-.4-.341-.611-.5l-.013-.008,6.045,4.746c.4.317,1.392.847,1.815.156a1.279,1.279,0,0,0-.064-1,2.541,2.541,0,0,0-.592-.637c-.446-.4-.869-.823-1.331-1.211-.947-.8-1.886-1.6-2.86-2.362-.215-.168-.423-.349-.645-.51a22.891,22.891,0,0,0,2.279,1.684c.9.615,1.479,1.128,2.189,1.545a1.583,1.583,0,0,0,.655.3,1.105,1.105,0,0,0,.891-.315,1.121,1.121,0,0,0-.324-1.239,35.38,35.38,0,0,0-4.669-3.585s-1.393-.846-1.51-.988c0,0,2.68,1.467,4.434,1.141,0,0,2.311-1.163-1.445-1.946,0,0-2.12-.946-3.438-1.59a7.931,7.931,0,0,0-5.592-.455s-2.451-1.51-3.087-2.043l-2.352,3.045A43.6,43.6,0,0,1,118.229,330.983Z" transform="translate(-113.06 -253.687)" fill="#db996c"/>
          <path id="Path_3510" data-name="Path 3510" d="M277.447,323.346a10,10,0,0,1-1.4,5.581l-.62,1.1-1.216,2.163q-.359.636-.716,1.272a.642.642,0,0,1-1,.214c-.327-.363-.164-.833-.013-1.219.134-.348.231-.713.356-1.065.263-.735.488-1.485.748-2.222.058-.163.1-.335.168-.5-.079.174-.159.347-.238.52q-.293.638-.582,1.274c-.244.535-.49,1.07-.732,1.605-.231.508-.461,1.015-.695,1.521-.169.368-.324.745-.514,1.1-.162.306-.545.642-.922.5a.769.769,0,0,1-.383-.468,1.354,1.354,0,0,1-.008-.79c.07-.215.129-.424.183-.643a17.387,17.387,0,0,1,.57-1.752c.229-.63.453-1.261.692-1.888q.3-.783.595-1.566c.091-.245.182-.5.286-.736l.007-.013s-2.907,7.088-2.917,7.11c-.2.475-.793,1.423-1.5,1.031a1.279,1.279,0,0,1-.439-.9,2.526,2.526,0,0,1,.2-.846c.188-.571.349-1.145.56-1.71.431-1.159.851-2.321,1.322-3.465.1-.253.2-.513.309-.762a22.789,22.789,0,0,1-1.152,2.589c-.483.982-.73,1.712-1.142,2.425a1.583,1.583,0,0,1-.419.587,1.108,1.108,0,0,1-.931.166,1.122,1.122,0,0,1-.329-1.237,35.435,35.435,0,0,1,2.292-5.422s.8-1.423.826-1.6c0,0-1.607,2.6-3.294,3.18,0,0-2.584.128.3-2.406,0,0,1.377-1.868,2.205-3.078a7.931,7.931,0,0,1,4.641-3.155s1.387-2.523,1.677-3.3l5.091,2.135S277.324,321.9,277.447,323.346Z" transform="translate(-212.967 -249.042)" fill="#db996c"/>
          <g id="Group_1963" data-name="Group 1963">
            <path id="Path_3511" data-name="Path 3511" d="M190.02,203.8a5.4,5.4,0,0,1-2.253,5.98s7.907,8.122,18.285,0c0,0-3.954-.4-2.471-8.123Z" transform="translate(-161.629 -172.007)" fill="#c58258"/>
            <path id="Path_3512" data-name="Path 3512" d="M177.07,250.855l-7.18-18.767c-1.6-4.676-5.683-7.5-9.954-9.251q-3.482-1.426-6.969-2.841c-7.792,8.512-17.558,0-17.558,0-1.444.794-2.881,1.6-4.322,2.4-4.011,2.231-8.747,3.894-11.233,8l-11.423,20.016s1.044,7.523,3.994,9.43c0,0,.838-4.6,6.97-3.952l-.97-4.747,10.1-10.285,1.6,17.462h26.928l2.11-17.452,8.511,9.82-3.8,6.809c6.37-2.636,9.057,1.7,9.057,1.7a22.254,22.254,0,0,0,4.134-8.348" transform="translate(-108.431 -184.302)" fill="#fb8500"/>
            <path id="Path_3513" data-name="Path 3513" d="M197.734,137.871c-.015-10.066-5.521-15.544-12.308-15.544s-12.293,5.478-12.308,15.544c-.388.006-2.421.144-1.265,2.455a6.532,6.532,0,0,1,1.328,3.446s.439,1.041,1.091.565a20.035,20.035,0,0,0,7.012,9.113s4.593,3.012,8,.334a17,17,0,0,0,7.479-9.35c.55.186.909-.663.909-.663A6.532,6.532,0,0,1,199,140.327C200.153,138.015,198.123,137.877,197.734,137.871Z" transform="translate(-150.722 -118.811)" fill="#db996c"/>
            <path id="Path_3514" data-name="Path 3514" d="M199.736,130.766c-.4.856-2.26,2.033-2.059,3.142h0c-.249-.389.037-1.595,0-2.071a15.546,15.546,0,0,0-.412-2.391,13.376,13.376,0,0,0-1.872-4.631c-1.152-1.7-2.461-2.811-4.717-2.7-1.358.069-3.4.4-3.622,2.035-1.157-2.751-6.1-2.711-7.744-.433a9.594,9.594,0,0,0-1.582,4.43c-.136.961-.192,1.938-.377,2.883a6.654,6.654,0,0,1-.512,2.123,3.746,3.746,0,0,0-1.848-2.439c-1.508-.763-.145-8.184.18-9.287,1.555-5.3,6.186-8.391,11.5-8.953,2.669-.282,5.31-.983,8.039-.786a10.927,10.927,0,0,0-1.716,1.594,19.439,19.439,0,0,1,4.673-.614c-.877.643-.473,1.625-.913,2.587,1.921-.117,3.345,2.261,4.336,3.628-.92-.244-1.789-.717-2.7-.98C202.429,119.068,200.952,128.18,199.736,130.766Z" transform="translate(-152.594 -111.656)" fill="#311e0d"/>
            <path id="Path_3515" data-name="Path 3515" d="M183.958,220l-3.123,1.735s5.54,5.047,11.242,5.074h.185c5.766-.082,9.766-1.724,11.925-5.722L201.516,220s-4.38,3.886-8.135,3.782C193.382,223.778,189.379,223.977,183.958,220Z" transform="translate(-156.98 -184.302)" fill="#e8eaed"/>
          </g>
          <g id="Group_1964" data-name="Group 1964" transform="translate(7.412 50.325)">
            <path id="Rectangle_603" data-name="Rectangle 603" d="M5.938,0H39.313a5.936,5.936,0,0,1,5.936,5.936V28.124a5.938,5.938,0,0,1-5.937,5.938H5.938A5.938,5.938,0,0,1,0,28.124V5.938A5.938,5.938,0,0,1,5.938,0Z" transform="translate(4.599)" fill="#17100d"/>
            <path id="Path_3516" data-name="Path 3516" d="M146.517,271.6v16.866c0,7.68.854,13.906,1.908,13.906h40.324c1.054,0,1.908-6.226,1.908-13.906V271.6Z" transform="translate(-141.381 -269.228)" fill="#757479"/>
            <rect id="Rectangle_604" data-name="Rectangle 604" width="6.25" height="1.474" transform="translate(11.373 33.555)" fill="#757479"/>
            <rect id="Rectangle_605" data-name="Rectangle 605" width="6.249" height="1.474" transform="translate(35.715 33.555)" fill="#757479"/>
            <path id="Path_3517" data-name="Path 3517" d="M130.927,372.532h54.584a7.3,7.3,0,0,1-2.118,3.3H135.868S131.4,375.376,130.927,372.532Z" transform="translate(-130.927 -336.907)" fill="#17100d"/>
          </g>
        </g>
        <g id="Group_1966" data-name="Group 1966" transform="translate(23.006 18.092)">
          <path id="Path_3518" data-name="Path 3518" d="M197.723,166.76a8.971,8.971,0,0,0-1.905.346c-.153.047-.3.1-.449.155a9.713,9.713,0,0,1-6.119.055,5.943,5.943,0,0,0-.691-.284h0a8.712,8.712,0,0,0-2.114-.412c-5.293-.413-6.151,1.8-5.26,4.416.789,2.32,2.044,3.507,4.968,3.507s4.408-.79,4.968-3.507a3.82,3.82,0,0,0,.066-1.239,1.363,1.363,0,0,1,1.819-.025,3.724,3.724,0,0,0,.041,1.406c.56,2.717,2.045,3.507,4.968,3.507s4.179-1.188,4.968-3.507C203.874,168.56,203.015,166.347,197.723,166.76Zm-7.3,4.311c-.465,2.12-1.693,2.736-4.112,2.736s-3.459-.927-4.113-2.736c-.737-2.041-.026-3.768,4.355-3.446C188.962,167.8,190.9,168.862,190.419,171.071Zm11.554.142c-.653,1.81-1.693,2.736-4.112,2.736s-3.648-.616-4.113-2.736c-.483-2.209,1.458-3.268,3.871-3.446C202,167.445,202.71,169.172,201.973,171.213Z" transform="translate(-180.017 -166.568)" fill="#17100d"/>
          <path id="Path_3519" data-name="Path 3519" d="M180.036,172.026l-1.281.33-.494-3.313H180.3Z" transform="translate(-178.261 -168.227)" fill="#17100d"/>
          <path id="Path_3520" data-name="Path 3520" d="M245.717,172.026l1.281.33.492-3.313h-2.042Z" transform="translate(-223.312 -168.227)" fill="#17100d"/>
        </g>
      </g>
    </g>
  </g>
</svg>
