<svg xmlns="http://www.w3.org/2000/svg" width="73.691" height="62.354" viewBox="0 0 73.691 62.354">
  <g id="quote-right" opacity="0.1">
    <g id="Group_100" data-name="Group 100" transform="translate(0 0)">
      <path id="Path_276" data-name="Path 276" d="M8.5,70.556h9.92a4.234,4.234,0,0,1,4.252,4.252v1.416a10.923,10.923,0,0,1-3.322,8.016,10.925,10.925,0,0,1-8.016,3.321H8.5a2.725,2.725,0,0,0-1.993.841,2.724,2.724,0,0,0-.841,1.993v5.669a2.726,2.726,0,0,0,.841,1.993A2.726,2.726,0,0,0,8.5,98.9h2.834A22.1,22.1,0,0,0,20.128,97.1a22.459,22.459,0,0,0,12.09-12.09,22.086,22.086,0,0,0,1.794-8.791V45.048a8.466,8.466,0,0,0-8.5-8.5H8.5A8.2,8.2,0,0,0,2.48,39.024,8.2,8.2,0,0,0,0,45.048v17a8.2,8.2,0,0,0,2.481,6.023A8.2,8.2,0,0,0,8.5,70.556Z" transform="translate(39.679 -36.545)"/>
      <path id="Path_277" data-name="Path 277" d="M258.3,68.076a8.2,8.2,0,0,0,6.023,2.48h9.92a4.234,4.234,0,0,1,4.251,4.252v1.416a11.338,11.338,0,0,1-11.337,11.337h-2.833a2.874,2.874,0,0,0-2.835,2.834v5.669a2.874,2.874,0,0,0,2.835,2.835h2.833a22.1,22.1,0,0,0,8.792-1.794,22.466,22.466,0,0,0,12.089-12.09,22.092,22.092,0,0,0,1.794-8.791V45.048a8.467,8.467,0,0,0-8.5-8.5H264.322a8.466,8.466,0,0,0-8.5,8.5v17A8.2,8.2,0,0,0,258.3,68.076Z" transform="translate(-255.82 -36.545)"/>
    </g>
  </g>
</svg>
