<svg xmlns="http://www.w3.org/2000/svg" width="73.691" height="62.354" viewBox="0 0 73.691 62.354">
  <g id="quote-left" transform="translate(0 -36.545)" opacity="0.1">
    <g id="Group_100" data-name="Group 100" transform="translate(0 36.545)">
      <path id="Path_276" data-name="Path 276" d="M25.508,64.888h-9.92a4.234,4.234,0,0,1-4.252-4.252V59.22A10.923,10.923,0,0,1,14.658,51.2a10.925,10.925,0,0,1,8.016-3.321h2.834a2.873,2.873,0,0,0,2.834-2.834V39.38a2.873,2.873,0,0,0-2.834-2.835H22.674a22.1,22.1,0,0,0-8.791,1.794,22.46,22.46,0,0,0-12.09,12.09A22.086,22.086,0,0,0,0,59.219V90.4a8.2,8.2,0,0,0,2.48,6.024A8.2,8.2,0,0,0,8.5,98.9H25.509a8.466,8.466,0,0,0,8.5-8.5v-17a8.468,8.468,0,0,0-8.5-8.5Z" transform="translate(0 -36.545)"/>
      <path id="Path_277" data-name="Path 277" d="M287.352,67.367a8.2,8.2,0,0,0-6.023-2.48h-9.92a4.234,4.234,0,0,1-4.251-4.252V59.22A11.338,11.338,0,0,1,278.5,47.883h2.833a2.874,2.874,0,0,0,2.835-2.834V39.38a2.874,2.874,0,0,0-2.835-2.835H278.5a22.1,22.1,0,0,0-8.792,1.794,22.466,22.466,0,0,0-12.089,12.09,22.092,22.092,0,0,0-1.794,8.791V90.4a8.467,8.467,0,0,0,8.5,8.5h17.005a8.466,8.466,0,0,0,8.5-8.5v-17A8.2,8.2,0,0,0,287.352,67.367Z" transform="translate(-216.139 -36.545)"/>
    </g>
  </g>
</svg>
