<svg xmlns="http://www.w3.org/2000/svg" width="432.067" height="386.998" viewBox="0 0 432.067 386.998">
  <g id="Check_mai" data-name="Check mai" transform="translate(-66.093 -76.055)">
    <g id="Clouds" transform="translate(135.481 76.055)">
      <g id="Group_318" data-name="Group 318" transform="translate(141.409)">
        <path id="Path_1018" data-name="Path 1018" d="M412.185,119.7c-7.272-3.966-10.577-.661-13.221-3.966s7.271-11.9-12.559-20.492c0,0-1.323-18.508-28.424-19.17s-19.831,18.509-27.1,23.137-9.254-2.644-16.526,1.982-3.967,13.882-9.915,15.2-13.882-5.949-21.154-1.323-7.271,8.593-10.577,8.593-9.915-2.644-13.881,0-8.593,5.949-8.593,5.949H417.472S419.456,123.667,412.185,119.7Z" transform="translate(-250.233 -76.055)" fill="#3a6bea"/>
        <path id="Path_1019" data-name="Path 1019" d="M412.185,119.7c-7.272-3.966-10.577-.661-13.221-3.966s7.271-11.9-12.559-20.492c0,0-1.323-18.508-28.424-19.17s-19.831,18.509-27.1,23.137-9.254-2.644-16.526,1.982-3.967,13.882-9.915,15.2-13.882-5.949-21.154-1.323-7.271,8.593-10.577,8.593-9.915-2.644-13.881,0-8.593,5.949-8.593,5.949H417.472S419.456,123.667,412.185,119.7Z" transform="translate(-250.233 -76.055)" fill="#fff" opacity="0.5"/>
      </g>
      <g id="Group_319" data-name="Group 319" transform="translate(0 161.558)">
        <path id="Path_1020" data-name="Path 1020" d="M240.5,247.786c-5.106-2.785-7.428-.464-9.285-2.785s5.107-8.357-8.821-14.393c0,0-.929-13-19.964-13.464s-13.928,13-19.034,16.25-6.5-1.857-11.607,1.393-2.785,9.75-6.964,10.678-9.75-4.178-14.856-.928-5.107,6.035-7.429,6.035-6.964-1.857-9.75,0-6.035,4.178-6.035,4.178H244.212S245.6,250.572,240.5,247.786Z" transform="translate(-126.751 -217.133)" fill="#fff"/>
        <path id="Path_1021" data-name="Path 1021" d="M240.5,247.786c-5.106-2.785-7.428-.464-9.285-2.785s5.107-8.357-8.821-14.393c0,0-.929-13-19.964-13.464s-13.928,13-19.034,16.25-6.5-1.857-11.607,1.393-2.785,9.75-6.964,10.678-9.75-4.178-14.856-.928-5.107,6.035-7.429,6.035-6.964-1.857-9.75,0-6.035,4.178-6.035,4.178H244.212S245.6,250.572,240.5,247.786Z" transform="translate(-126.751 -217.133)" fill="#fff" opacity="0.5"/>
      </g>
    </g>
    <g id="Plants" transform="translate(343.714 176.129)">
      <g id="Group_320" data-name="Group 320" transform="translate(48.878 0)">
        <path id="Path_1022" data-name="Path 1022" d="M353.1,449.079h72.374c-1.39-8.855-7.075-7.3-7.83-21.012-.379-6.909,6.013-15.458,5.46-24.533-.455-7.475-7.826-15.139-8.4-23.689-.516-7.717,5.774-16.281,5.162-24.6-.577-7.863-8.047-15.407-8.709-23.578-.646-7.973,5.515-16.625,4.789-24.682s-8.331-15.469-9.137-23.414c-.828-8.167,5.133-16.961,4.221-24.78-.969-8.3-8.8-15.466-9.86-23.11-1.182-8.512,4.363-17.606,3.066-24.956-1.591-9.006-9.971-15.519-11.733-22.161-3.286-12.377-2.876-24.306-6.754-25.082-4.143-.829-5.087,10.864-8.227,23.935-1.576,6.565-9.773,13.22-11.12,22.229-1.09,7.3,4.7,16.168,3.754,24.645-.85,7.591-8.481,14.89-9.224,23.142-.7,7.763,5.5,16.323,4.886,24.439-.592,7.887-8,15.412-8.51,23.423-.511,7.994,5.876,16.407,5.44,24.319-.447,8.108-7.717,15.766-8.09,23.569-.394,8.25,6.116,16.574,5.8,24.231-.35,8.481-7.522,16.253-7.785,23.669-.32,9,6.289,17.309,6.085,24.16-.443,14.876-7.252,11.794-7.5,23.765Z" transform="translate(-351.268 -163.443)" fill="#3a6bea"/>
        <line id="Line_27" data-name="Line 27" y2="258.468" transform="translate(32.906 23.828)" fill="none" stroke="#000" stroke-miterlimit="10" stroke-width="1"/>
        <path id="Path_1023" data-name="Path 1023" d="M392.587,208.25,380.8,218.426l-9.64-12.854" transform="translate(-348.38 -157.327)" fill="none" stroke="#000" stroke-miterlimit="10" stroke-width="1"/>
        <path id="Path_1024" data-name="Path 1024" d="M392.587,247.535,380.8,257.711l-9.64-12.854" transform="translate(-348.38 -151.623)" fill="none" stroke="#000" stroke-miterlimit="10" stroke-width="1"/>
        <path id="Path_1025" data-name="Path 1025" d="M392.587,284.482,380.8,294.658l-9.64-12.854" transform="translate(-348.38 -146.26)" fill="none" stroke="#000" stroke-miterlimit="10" stroke-width="1"/>
        <path id="Path_1026" data-name="Path 1026" d="M392.587,328.444,380.8,338.62l-9.64-12.854" transform="translate(-348.38 -139.877)" fill="none" stroke="#000" stroke-miterlimit="10" stroke-width="1"/>
        <path id="Path_1027" data-name="Path 1027" d="M392.587,372.874,380.8,383.05l-9.64-12.854" transform="translate(-348.38 -133.427)" fill="none" stroke="#000" stroke-miterlimit="10" stroke-width="1"/>
      </g>
      <g id="Group_321" data-name="Group 321" transform="translate(0 65.149)">
        <path id="Path_1028" data-name="Path 1028" d="M310,440.82H365.87c-1.073-6.834-5.461-5.632-6.043-16.219-.293-5.333,4.641-11.932,4.214-18.938-.352-5.769-6.041-11.685-6.483-18.286-.4-5.957,4.458-12.567,3.986-18.987-.447-6.071-6.213-11.893-6.723-18.2-.5-6.154,4.257-12.833,3.7-19.052s-6.432-11.941-7.054-18.073c-.639-6.305,3.962-13.094,3.258-19.129-.747-6.4-6.791-11.938-7.611-17.838-.913-6.571,3.368-13.591,2.367-19.264-1.228-6.951-7.7-11.98-9.058-17.107-2.535-9.554-2.219-18.763-5.213-19.361-3.2-.639-3.927,8.387-6.35,18.477-1.217,5.067-7.544,10.2-8.584,17.158-.842,5.632,3.63,12.48,2.9,19.024-.656,5.86-6.547,11.494-7.121,17.865-.539,5.992,4.242,12.6,3.772,18.863-.457,6.089-6.174,11.9-6.569,18.081s4.535,12.666,4.2,18.773c-.345,6.258-5.957,12.169-6.245,18.192-.3,6.368,4.722,12.8,4.476,18.7-.27,6.547-5.806,12.547-6.009,18.27-.247,6.948,4.854,13.361,4.7,18.649-.342,11.483-5.6,9.1-5.788,18.345Z" transform="translate(-308.586 -220.333)" fill="#3a6bea"/>
        <line id="Line_28" data-name="Line 28" y2="199.514" transform="translate(25.4 18.394)" fill="none" stroke="#000" stroke-miterlimit="10" stroke-width="1"/>
        <path id="Path_1029" data-name="Path 1029" d="M340.48,254.921l-9.1,7.855-7.441-9.922" transform="translate(-306.356 -215.612)" fill="none" stroke="#000" stroke-miterlimit="10" stroke-width="1"/>
        <path id="Path_1030" data-name="Path 1030" d="M340.48,285.246l-9.1,7.855-7.441-9.922" transform="translate(-306.356 -211.209)" fill="none" stroke="#000" stroke-miterlimit="10" stroke-width="1"/>
        <path id="Path_1031" data-name="Path 1031" d="M340.48,313.766l-9.1,7.855-7.441-9.922" transform="translate(-306.356 -207.069)" fill="none" stroke="#000" stroke-miterlimit="10" stroke-width="1"/>
        <path id="Path_1032" data-name="Path 1032" d="M340.48,347.7l-9.1,7.855-7.441-9.922" transform="translate(-306.356 -202.143)" fill="none" stroke="#000" stroke-miterlimit="10" stroke-width="1"/>
        <path id="Path_1033" data-name="Path 1033" d="M340.48,382l-9.1,7.855-7.441-9.922" transform="translate(-306.356 -197.164)" fill="none" stroke="#000" stroke-miterlimit="10" stroke-width="1"/>
      </g>
    </g>
    <g id="Mailbox" transform="translate(149.508 115.948)">
      <g id="Group_326" data-name="Group 326" transform="translate(0)">
        <g id="Group_322" data-name="Group 322" transform="translate(139.711 113.754)">
          <path id="Path_1034" data-name="Path 1034" d="M266.333,441.752V210.224h12.215V441.752" transform="translate(-260.226 -210.224)" fill="#263238" stroke="#263238" stroke-linecap="round" stroke-linejoin="round" stroke-width="1"/>
          <path id="Path_1035" data-name="Path 1035" d="M261,441.752V210.224h12.215V441.752" transform="translate(-261 -210.224)" fill="#1f3c88" stroke="#263238" stroke-linecap="round" stroke-linejoin="round" stroke-width="1"/>
          <rect id="Rectangle_191" data-name="Rectangle 191" width="12.215" height="27.484" fill="#263238" opacity="0.3" style="mix-blend-mode: multiply;isolation: isolate"/>
        </g>
        <g id="Group_323" data-name="Group 323" transform="translate(101.309 23.355)">
          <path id="Path_1036" data-name="Path 1036" d="M318.013,131.285H227.466l39.468,96.932h90.548V170.755A39.47,39.47,0,0,0,318.013,131.285Z" transform="translate(-227.466 -131.285)" fill="#3a6bea"/>
          <path id="Path_1037" data-name="Path 1037" d="M255.9,206.576l6.908,16.967h90.548V166.08c0-.874-.039-1.738-.1-2.6H255.9Z" transform="translate(-223.338 -126.611)" fill="#1f3c88" opacity="0.3" style="mix-blend-mode: multiply;isolation: isolate"/>
          <line id="Line_29" data-name="Line 29" x1="9.528" transform="translate(80.354 36.871)" fill="none" stroke="#263238" stroke-linecap="round" stroke-linejoin="round" stroke-width="1"/>
          <line id="Line_30" data-name="Line 30" x1="28.831" transform="translate(101.091 36.871)" fill="none" stroke="#263238" stroke-linecap="round" stroke-linejoin="round" stroke-width="1"/>
        </g>
        <path id="Rectangle_192" data-name="Rectangle 192" d="M34.466,0H44.473A34.466,34.466,0,0,1,78.939,34.466V96.932a0,0,0,0,1,0,0H0a0,0,0,0,1,0,0V34.466A34.466,34.466,0,0,1,34.466,0Z" transform="translate(61.839 23.356)" fill="#263238" stroke="#263238" stroke-linecap="round" stroke-linejoin="round" stroke-width="1"/>
        <rect id="Rectangle_193" data-name="Rectangle 193" width="68.028" height="6.534" transform="translate(72.75 113.754)" fill="#c6ff00" stroke="#263238" stroke-linecap="round" stroke-linejoin="round" stroke-width="1"/>
        <g id="Group_324" data-name="Group 324" transform="translate(0 113.754)">
          <rect id="Rectangle_194" data-name="Rectangle 194" width="140.778" height="6.534" fill="#1f3c88" stroke="#263238" stroke-linecap="round" stroke-linejoin="round" stroke-width="1"/>
          <rect id="Rectangle_195" data-name="Rectangle 195" width="68.028" height="6.534" transform="translate(72.75)" opacity="0.3"/>
        </g>
        <g id="Group_325" data-name="Group 325" transform="translate(161.851)">
          <rect id="Rectangle_196" data-name="Rectangle 196" width="28.248" height="19.85" transform="translate(7.635)" fill="#263238" stroke="#263238" stroke-linecap="round" stroke-linejoin="round" stroke-width="1"/>
          <rect id="Rectangle_197" data-name="Rectangle 197" width="6.108" height="61.839" transform="translate(3.817)" fill="#fff" stroke="#263238" stroke-linecap="round" stroke-linejoin="round" stroke-width="1"/>
          <circle id="Ellipse_189" data-name="Ellipse 189" cx="6.871" cy="6.871" r="6.871" transform="translate(0 56.495)" fill="#263238" stroke="#263238" stroke-linecap="round" stroke-linejoin="round" stroke-width="1"/>
        </g>
      </g>
    </g>
    <g id="Paper_Planes" data-name="Paper Planes" transform="translate(66.619 100.204)">
      <g id="Group_333" data-name="Group 333">
        <g id="Group_330" data-name="Group 330" transform="translate(60.061)">
          <g id="Group_327" data-name="Group 327" transform="translate(77.407 47.888)">
            <path id="Path_1038" data-name="Path 1038" d="M198.34,145.152c15.945,8.1,43.656,21.072,69.219,27.6" transform="translate(-184.964 -138.061)" fill="none" stroke="#fff" stroke-linecap="round" stroke-linejoin="round" stroke-width="1" stroke-dasharray="2 4"/>
            <path id="Path_1039" data-name="Path 1039" d="M186.66,138.96s5.105,2.89,13.376,7.091" transform="translate(-186.66 -138.96)" fill="none" stroke="#263238" stroke-linecap="round" stroke-linejoin="round" stroke-width="1" stroke-dasharray="2 4"/>
          </g>
          <g id="Group_329" data-name="Group 329">
            <g id="Group_328" data-name="Group 328">
              <path id="Path_1040" data-name="Path 1040" d="M190.731,144.648l11.47-27.223L119.066,97.143Z" transform="translate(-119.066 -97.143)" fill="#fff" stroke="#263238" stroke-linecap="round" stroke-linejoin="round" stroke-width="1.263"/>
              <path id="Path_1041" data-name="Path 1041" d="M196.325,120.719l-5.594,23.929L119.066,97.143Z" transform="translate(-119.066 -97.143)" fill="#3a6bea" stroke="#263238" stroke-linecap="round" stroke-linejoin="round" stroke-width="1.263"/>
              <path id="Path_1042" data-name="Path 1042" d="M196.325,120.719l-13.043,11.174-64.217-34.75Z" transform="translate(-119.066 -97.143)" fill="#fff" stroke="#263238" stroke-linecap="round" stroke-linejoin="round" stroke-width="1.263"/>
              <path id="Path_1043" data-name="Path 1043" d="M202.2,117.425l11.608-4.726L119.066,97.143Z" transform="translate(-119.066 -97.143)" fill="#fff" stroke="#263238" stroke-linecap="round" stroke-linejoin="round" stroke-width="1.263"/>
            </g>
            <line id="Line_31" data-name="Line 31" x2="2.694" y2="1.651" transform="translate(55.519 43.268)" fill="none" stroke="#263238" stroke-linecap="round" stroke-linejoin="round" stroke-width="1"/>
            <line id="Line_32" data-name="Line 32" x2="9.016" y2="5.526" transform="translate(40.839 34.27)" fill="none" stroke="#263238" stroke-linecap="round" stroke-linejoin="round" stroke-width="1"/>
          </g>
        </g>
        <g id="Group_332" data-name="Group 332" transform="translate(81.917 61.24)">
          <g id="Group_331" data-name="Group 331">
            <path id="Path_1044" data-name="Path 1044" d="M145.89,187.9V158.358l84.487,13.589Z" transform="translate(-137.028 -149.496)" fill="#fff" stroke="#263238" stroke-linecap="round" stroke-linejoin="round" stroke-width="1.263"/>
            <path id="Path_1045" data-name="Path 1045" d="M150.026,163l-4.136,24.224,84.487-15.952Z" transform="translate(-137.028 -148.821)" fill="#3a6bea" stroke="#263238" stroke-linecap="round" stroke-linejoin="round" stroke-width="1.263"/>
            <path id="Path_1046" data-name="Path 1046" d="M149.5,163l7.681,15.361,72.671-7.09Z" transform="translate(-136.503 -148.821)" fill="#fff" stroke="#263238" stroke-linecap="round" stroke-linejoin="round" stroke-width="1.263"/>
            <path id="Path_1047" data-name="Path 1047" d="M147.013,159.481l-8.862-8.862L231.5,173.07Z" transform="translate(-138.151 -150.619)" fill="#fff" stroke="#263238" stroke-linecap="round" stroke-linejoin="round" stroke-width="1.263"/>
          </g>
          <line id="Line_33" data-name="Line 33" y1="1.49" x2="7.325" transform="translate(39.12 36.362)" fill="none" stroke="#263238" stroke-linecap="round" stroke-linejoin="round" stroke-width="1"/>
          <line id="Line_34" data-name="Line 34" y1="3.746" x2="18.417" transform="translate(13.379 39.342)" fill="none" stroke="#263238" stroke-linecap="round" stroke-linejoin="round" stroke-width="1"/>
        </g>
        <path id="Path_1048" data-name="Path 1048" d="M147.218,182.557s-66.42,11.452-79.017,71,53.823,62.985,65.275,34.355-38.936-40.081-50.388-12.6,22.9,74.436,69.856,76.727c39.016,1.9,148.408-43.638,216.472-55.146,0,0,50.353-13.946,128.225-10.892" transform="translate(-66.619 -84.743)" fill="none" stroke="#263238" stroke-linecap="round" stroke-linejoin="round" stroke-width="1" stroke-dasharray="2 4"/>
      </g>
    </g>
    <g id="Fence" transform="translate(73.163 314.688)">
      <g id="Group_336" data-name="Group 336">
        <g id="Group_334" data-name="Group 334">
          <line id="Line_35" data-name="Line 35" x2="19.086" transform="translate(401.956 69.994)" fill="#fff" stroke="#263238" stroke-linecap="round" stroke-linejoin="round" stroke-width="1"/>
          <line id="Line_36" data-name="Line 36" x2="19.086" transform="translate(401.956 98.242)" fill="#fff" stroke="#263238" stroke-linecap="round" stroke-linejoin="round" stroke-width="1"/>
          <path id="Path_1049" data-name="Path 1049" d="M72.333,372.945H472V346.224H72.333" transform="translate(-72.333 -275.466)" fill="#fff" stroke="#263238" stroke-linecap="round" stroke-linejoin="round" stroke-width="1"/>
          <path id="Path_1050" data-name="Path 1050" d="M96.586,431.157V296.693a2.425,2.425,0,0,1,.763-1.766l10.447-9.832a2.426,2.426,0,0,1,3.431.108l9.134,9.743a2.422,2.422,0,0,1,.655,1.658V431.157" transform="translate(-68.812 -284.436)" fill="#263238" stroke="#263238" stroke-linecap="round" stroke-linejoin="round" stroke-width="1"/>
          <path id="Path_1051" data-name="Path 1051" d="M94,432.3V296.693a2.425,2.425,0,0,1,.763-1.766l10.446-9.832a2.426,2.426,0,0,1,3.431.108l9.135,9.743a2.422,2.422,0,0,1,.655,1.658V432.3" transform="translate(-69.188 -284.436)" fill="#fff" stroke="#263238" stroke-linecap="round" stroke-linejoin="round" stroke-width="1"/>
          <path id="Path_1052" data-name="Path 1052" d="M173.488,431.157V296.693a2.426,2.426,0,0,1,.764-1.766l10.446-9.832a2.426,2.426,0,0,1,3.431.108l9.134,9.743a2.423,2.423,0,0,1,.656,1.658V431.157" transform="translate(-57.648 -284.436)" fill="#263238" stroke="#263238" stroke-linecap="round" stroke-linejoin="round" stroke-width="1"/>
          <path id="Path_1053" data-name="Path 1053" d="M171.333,432.3V296.693a2.422,2.422,0,0,1,.764-1.766l10.446-9.832a2.426,2.426,0,0,1,3.431.108l9.134,9.743a2.423,2.423,0,0,1,.656,1.658V432.3" transform="translate(-57.961 -284.436)" fill="#fff" stroke="#263238" stroke-linecap="round" stroke-linejoin="round" stroke-width="1"/>
          <path id="Path_1054" data-name="Path 1054" d="M250.822,431.157V296.693a2.425,2.425,0,0,1,.763-1.766l10.446-9.832a2.426,2.426,0,0,1,3.431.108l9.134,9.743a2.423,2.423,0,0,1,.656,1.658V432.3" transform="translate(-46.421 -284.436)" fill="#263238" stroke="#263238" stroke-linecap="round" stroke-linejoin="round" stroke-width="1"/>
          <path id="Path_1055" data-name="Path 1055" d="M248.667,432.3V296.693a2.425,2.425,0,0,1,.763-1.766l10.446-9.832a2.426,2.426,0,0,1,3.431.108l9.134,9.743a2.423,2.423,0,0,1,.656,1.658V432.3" transform="translate(-46.734 -284.436)" fill="#fff" stroke="#263238" stroke-linecap="round" stroke-linejoin="round" stroke-width="1"/>
          <path id="Path_1056" data-name="Path 1056" d="M328.155,431.157V296.693a2.425,2.425,0,0,1,.763-1.766l10.447-9.832a2.424,2.424,0,0,1,3.43.108l9.135,9.743a2.422,2.422,0,0,1,.655,1.658V431.157" transform="translate(-35.194 -284.436)" fill="#263238" stroke="#263238" stroke-linecap="round" stroke-linejoin="round" stroke-width="1"/>
          <path id="Path_1057" data-name="Path 1057" d="M326,432.3V296.693a2.425,2.425,0,0,1,.763-1.766l10.446-9.832a2.426,2.426,0,0,1,3.431.108l9.135,9.743a2.422,2.422,0,0,1,.655,1.658V432.3" transform="translate(-35.507 -284.436)" fill="#fff" stroke="#263238" stroke-linecap="round" stroke-linejoin="round" stroke-width="1"/>
          <path id="Path_1058" data-name="Path 1058" d="M405.488,431.157V296.693a2.426,2.426,0,0,1,.764-1.766l10.446-9.832a2.426,2.426,0,0,1,3.431.108l9.134,9.743a2.423,2.423,0,0,1,.656,1.658V431.157" transform="translate(-23.968 -284.436)" fill="#263238" stroke="#263238" stroke-linecap="round" stroke-linejoin="round" stroke-width="1"/>
          <path id="Path_1059" data-name="Path 1059" d="M403.333,432.3V296.693a2.422,2.422,0,0,1,.764-1.766l10.446-9.832a2.426,2.426,0,0,1,3.431.108l9.134,9.743a2.423,2.423,0,0,1,.656,1.658V432.3" transform="translate(-24.28 -284.436)" fill="#fff" stroke="#263238" stroke-linecap="round" stroke-linejoin="round" stroke-width="1"/>
        </g>
        <g id="Group_335" data-name="Group 335" transform="translate(7.863 0.659)">
          <line id="Line_37" data-name="Line 37" y2="9.794" transform="translate(31.59 0.107)" fill="none" stroke="#263238" stroke-linecap="round" stroke-linejoin="round" stroke-width="1"/>
          <line id="Line_38" data-name="Line 38" y2="23.203" transform="translate(35.514 5.166)" fill="none" stroke="#263238" stroke-linecap="round" stroke-linejoin="round" stroke-width="1"/>
          <line id="Line_39" data-name="Line 39" y2="29.359" transform="translate(110.332 7.06)" fill="none" stroke="#263238" stroke-linecap="round" stroke-linejoin="round" stroke-width="1"/>
          <line id="Line_40" data-name="Line 40" y2="12.785" transform="translate(114.12 3.272)" fill="none" stroke="#263238" stroke-linecap="round" stroke-linejoin="round" stroke-width="1"/>
          <line id="Line_41" data-name="Line 41" y2="28.842" transform="translate(205.279)" fill="none" stroke="#263238" stroke-linecap="round" stroke-linejoin="round" stroke-width="1"/>
          <line id="Line_42" data-name="Line 42" y2="42.617" transform="translate(210.719 2.325)" fill="none" stroke="#263238" stroke-linecap="round" stroke-linejoin="round" stroke-width="1"/>
          <line id="Line_43" data-name="Line 43" y2="32.2" transform="translate(286.957 7.06)" fill="none" stroke="#263238" stroke-linecap="round" stroke-linejoin="round" stroke-width="1"/>
          <line id="Line_44" data-name="Line 44" y2="8.05" transform="translate(299.268 3.272)" fill="none" stroke="#263238" stroke-linecap="round" stroke-linejoin="round" stroke-width="1"/>
          <line id="Line_45" data-name="Line 45" y2="17.047" transform="translate(379.294 2.798)" fill="none" stroke="#263238" stroke-linecap="round" stroke-linejoin="round" stroke-width="1"/>
          <line id="Line_46" data-name="Line 46" y2="49.247" transform="translate(389.712 4.692)" fill="none" stroke="#263238" stroke-linecap="round" stroke-linejoin="round" stroke-width="1"/>
          <line id="Line_47" data-name="Line 47" x1="10.418" transform="translate(360.353 76.668)" fill="none" stroke="#263238" stroke-linecap="round" stroke-linejoin="round" stroke-width="1"/>
          <line id="Line_48" data-name="Line 48" x1="36.462" transform="translate(334.309 84.718)" fill="none" stroke="#263238" stroke-linecap="round" stroke-linejoin="round" stroke-width="1"/>
          <line id="Line_49" data-name="Line 49" x1="16.573" transform="translate(218.295 84.718)" fill="none" stroke="#263238" stroke-linecap="round" stroke-linejoin="round" stroke-width="1"/>
          <line id="Line_50" data-name="Line 50" x1="16.573" transform="translate(131.167 84.718)" fill="none" stroke="#263238" stroke-linecap="round" stroke-linejoin="round" stroke-width="1"/>
          <line id="Line_51" data-name="Line 51" x1="16.573" transform="translate(0 80.456)" fill="none" stroke="#263238" stroke-linecap="round" stroke-linejoin="round" stroke-width="1"/>
          <line id="Line_52" data-name="Line 52" x1="6.629" transform="translate(9.944 88.033)" fill="none" stroke="#263238" stroke-linecap="round" stroke-linejoin="round" stroke-width="1"/>
          <line id="Line_53" data-name="Line 53" x1="8.05" transform="translate(218.295 80.456)" fill="none" stroke="#263238" stroke-linecap="round" stroke-linejoin="round" stroke-width="1"/>
          <line id="Line_54" data-name="Line 54" x1="8.05" transform="translate(130.22 89.453)" fill="none" stroke="#263238" stroke-linecap="round" stroke-linejoin="round" stroke-width="1"/>
          <line id="Line_55" data-name="Line 55" x1="8.05" transform="translate(96.599 89.453)" fill="none" stroke="#263238" stroke-linecap="round" stroke-linejoin="round" stroke-width="1"/>
          <line id="Line_56" data-name="Line 56" x1="7.103" transform="translate(395.868 84.718)" fill="none" stroke="#263238" stroke-linecap="round" stroke-linejoin="round" stroke-width="1"/>
          <line id="Line_57" data-name="Line 57" x1="4.262" transform="translate(408.179 84.718)" fill="none" stroke="#263238" stroke-linecap="round" stroke-linejoin="round" stroke-width="1"/>
          <path id="Path_1060" data-name="Path 1060" d="M115.912,315.995s-2.862,24.616-6.3,49.8,2.863,50.948,4.58,53.238" transform="translate(-74.93 -280.513)" fill="none" stroke="#263238" stroke-linecap="round" stroke-linejoin="round" stroke-width="1"/>
          <path id="Path_1061" data-name="Path 1061" d="M105.108,360.516c.55-4.913,1.008-8.03,1.008-8.03" transform="translate(-75.438 -275.216)" fill="none" stroke="#263238" stroke-linecap="round" stroke-linejoin="round" stroke-width="1"/>
          <path id="Path_1062" data-name="Path 1062" d="M113.793,408.834s-10.3-2.286-10.3-20.6c0-7.519.482-15.232,1.05-21.711" transform="translate(-75.673 -273.178)" fill="none" stroke="#263238" stroke-linecap="round" stroke-linejoin="round" stroke-width="1"/>
          <path id="Path_1063" data-name="Path 1063" d="M188.519,290.5s2.289,1.717-1.718,21.18-3.434,48.085,1.718,64.114" transform="translate(-63.96 -284.214)" fill="none" stroke="#263238" stroke-linecap="round" stroke-linejoin="round" stroke-width="1"/>
          <path id="Path_1064" data-name="Path 1064" d="M193.364,321.994s-5.724,17.173-1.717,41.216" transform="translate(-63.082 -279.642)" fill="none" stroke="#263238" stroke-linecap="round" stroke-linejoin="round" stroke-width="1"/>
          <path id="Path_1065" data-name="Path 1065" d="M250.025,331.491s2.863,16.6,5.725,33.775.573,41.216-1.718,47.513-4.58,11.448-4.58,11.448" transform="translate(-54.483 -278.264)" fill="none" stroke="#263238" stroke-linecap="round" stroke-linejoin="round" stroke-width="1"/>
          <path id="Path_1066" data-name="Path 1066" d="M260.138,405.293c-2.55,7.832-5.687-1.323-5.687-1.323" transform="translate(-53.757 -267.741)" fill="none" stroke="#263238" stroke-linecap="round" stroke-linejoin="round" stroke-width="1"/>
          <path id="Path_1067" data-name="Path 1067" d="M259.333,354s5.395,27.844,2.343,48.8" transform="translate(-53.049 -274.996)" fill="none" stroke="#263238" stroke-linecap="round" stroke-linejoin="round" stroke-width="1"/>
          <path id="Path_1068" data-name="Path 1068" d="M248.952,361.984s5.725,12.021.573,23.469" transform="translate(-54.556 -273.837)" fill="none" stroke="#263238" stroke-linecap="round" stroke-linejoin="round" stroke-width="1"/>
          <path id="Path_1069" data-name="Path 1069" d="M342.3,363.483a78.851,78.851,0,0,0,3,10.3" transform="translate(-41.003 -273.619)" fill="none" stroke="#263238" stroke-linecap="round" stroke-linejoin="round" stroke-width="1"/>
          <path id="Path_1070" data-name="Path 1070" d="M347.316,311.5a159.031,159.031,0,0,0-6.869,35.491,82.294,82.294,0,0,0,1.015,18.246" transform="translate(-41.293 -281.166)" fill="none" stroke="#263238" stroke-linecap="round" stroke-linejoin="round" stroke-width="1"/>
          <path id="Path_1071" data-name="Path 1071" d="M336.93,357.485s5.152,19.462,8.015,26.332,1.717,23.47-1.718,31.484" transform="translate(-41.783 -274.49)" fill="none" stroke="#263238" stroke-linecap="round" stroke-linejoin="round" stroke-width="1"/>
          <path id="Path_1072" data-name="Path 1072" d="M404.414,318.994s11.448,20.609.571,54.383" transform="translate(-31.986 -280.078)" fill="none" stroke="#263238" stroke-linecap="round" stroke-linejoin="round" stroke-width="1"/>
          <path id="Path_1073" data-name="Path 1073" d="M414.932,349.737c.071,6.439-.5,14.6-3.077,21.466-5.152,13.739-7.441,18.318-7.441,18.318" transform="translate(-31.986 -275.615)" fill="none" stroke="#263238" stroke-linecap="round" stroke-linejoin="round" stroke-width="1"/>
          <path id="Path_1074" data-name="Path 1074" d="M412.911,339.989s.373,2.464.608,6.26" transform="translate(-30.753 -277.03)" fill="none" stroke="#263238" stroke-linecap="round" stroke-linejoin="round" stroke-width="1"/>
        </g>
      </g>
    </g>
  </g>
</svg>
