<svg xmlns="http://www.w3.org/2000/svg" width="356.867" height="450.056" viewBox="0 0 356.867 450.056">
  <g id="Forget_password" data-name="Forget password" transform="translate(0.5 0)">
    <g id="Background_Complete" data-name="Background Complete" transform="translate(0 0)">
      <g id="Group_338" data-name="Group 338" transform="translate(0 49.592)">
        <rect id="Rectangle_198" data-name="Rectangle 198" width="29.953" height="12.657" transform="translate(278.935 338.296)" fill="#ebebeb"/>
        <rect id="Rectangle_199" data-name="Rectangle 199" width="29.953" height="12.657" transform="translate(295.643 354.256)" fill="#ebebeb"/>
        <rect id="Rectangle_200" data-name="Rectangle 200" width="29.952" height="12.657" transform="translate(262.226 354.256)" fill="#ebebeb"/>
        <rect id="Rectangle_201" data-name="Rectangle 201" width="29.953" height="12.657" transform="translate(16.708)" fill="#ebebeb"/>
        <rect id="Rectangle_202" data-name="Rectangle 202" width="29.953" height="12.657" transform="translate(0 15.96)" fill="#ebebeb"/>
        <rect id="Rectangle_203" data-name="Rectangle 203" width="29.953" height="12.657" transform="translate(295.643 0.014)" fill="#ebebeb"/>
        <rect id="Rectangle_204" data-name="Rectangle 204" width="29.952" height="12.657" transform="translate(27.499 338.207)" fill="#ebebeb"/>
        <rect id="Rectangle_205" data-name="Rectangle 205" width="29.953" height="12.657" transform="translate(71.514 192.357)" fill="#ebebeb"/>
        <rect id="Rectangle_206" data-name="Rectangle 206" width="29.952" height="12.657" transform="translate(54.805 176.397)" fill="#ebebeb"/>
      </g>
      <g id="Group_343" data-name="Group 343" transform="translate(153.662)">
        <g id="Group_340" data-name="Group 340" transform="translate(80.448)">
          <line id="Line_58" data-name="Line 58" y1="121.044" transform="translate(42.031)" fill="none" stroke="#c7c7c7" stroke-miterlimit="10" stroke-width="1"/>
          <g id="Group_339" data-name="Group 339" transform="translate(0 116.828)">
            <path id="Path_1075" data-name="Path 1075" d="M55.518,145.474l3.381,7.432H136.21l3.371-7.432-32.915-22.782H88.432Z" transform="translate(-55.518 -100.742)" fill="#ebebeb"/>
            <path id="Path_1076" data-name="Path 1076" d="M82.6,103.286l2.284,21.95h18.234l2.285-21.95Z" transform="translate(-51.967 -103.286)" fill="#dbdbdb"/>
            <path id="Path_1077" data-name="Path 1077" d="M55.515,142.836l3.381,7.432h77.312l3.371-7.432Z" transform="translate(-55.511 -98.101)" fill="#dbdbdb"/>
          </g>
        </g>
        <g id="Group_342" data-name="Group 342" transform="translate(0)">
          <line id="Line_59" data-name="Line 59" y1="97.069" transform="translate(42.032)" fill="none" stroke="#c7c7c7" stroke-miterlimit="10" stroke-width="1"/>
          <g id="Group_341" data-name="Group 341" transform="translate(0 92.853)">
            <path id="Path_1078" data-name="Path 1078" d="M126.64,124.278l3.381,7.432h77.312l3.371-7.432L177.789,101.5H159.555Z" transform="translate(-126.64 -79.546)" fill="#ebebeb"/>
            <path id="Path_1079" data-name="Path 1079" d="M153.72,82.09,156,104.04h18.234l2.284-21.95Z" transform="translate(-123.09 -82.09)" fill="#dbdbdb"/>
            <path id="Path_1080" data-name="Path 1080" d="M126.637,121.64l3.381,7.432H207.33l3.37-7.432Z" transform="translate(-126.634 -76.904)" fill="#dbdbdb"/>
          </g>
        </g>
      </g>
    </g>
    <g id="Shadow" transform="translate(113.358 400.319)">
      <g id="Group_344" data-name="Group 344">
        <path id="Path_1081" data-name="Path 1081" d="M51.686,429.63c0,12.334,54.4,22.334,121.5,22.334s121.5-10,121.5-22.334S240.3,407.3,173.191,407.3,51.686,417.295,51.686,429.63Z" transform="translate(-51.686 -407.296)" fill="#ebebeb"/>
      </g>
    </g>
    <g id="Plant" transform="translate(12.953 311.508)">
      <g id="Group_355" data-name="Group 355">
        <g id="Group_346" data-name="Group 346" transform="translate(43.524)">
          <path id="Path_1082" data-name="Path 1082" d="M243.695,300.661a44.574,44.574,0,0,0,.866,17.145,47.191,47.191,0,0,0,2.628,7.581c1.364,3.137,2.789,6.2,2.445,9.633-.331.221.806.184.843-.149,9.173-5.221,20.936-6.178,28-14.718,3.344-4.043,5.03-9.168,5.83-14.294.869-5.581,1.108-11.761-.331-17.262-1.213-4.653-3.932-9.141-8.3-11.421-4.513-2.346-10.423-2.151-15.175-.675C250.242,279.685,245.144,290.745,243.695,300.661Z" transform="translate(-235.638 -275.399)" fill="#3a6bea"/>
          <g id="Group_345" data-name="Group 345" transform="translate(0 10.11)">
            <path id="Path_1083" data-name="Path 1083" d="M253.441,367.39c1.252-4.172,2.5-8.344,3.787-12.507,2.518-8.152,5.134-16.274,8.03-24.3q2.6-7.212,5.49-14.285a86.518,86.518,0,0,0-1.095-8.867c-.767-3.556-1.881-6.991-2.918-10.471-.064-.215.283-.327.37-.124,2.06,4.795,4.747,10.93,4.814,16.608q3.359-8,7.21-15.78a67.557,67.557,0,0,0-.4-13.142.157.157,0,0,1,.309-.06,46.539,46.539,0,0,1,.9,11.6q2.957-5.838,6.258-11.524c.2-.342.671.007.5.343-3.448,6.637-6.645,13.415-9.644,20.281a44.126,44.126,0,0,1,14.381-8.328c.228-.081.4.249.167.346a52.377,52.377,0,0,0-15.555,10.3q-3.234,7.542-6.166,15.2c5.739-5.626,13.594-9.327,21.191-11.312.259-.068.327.328.078.4-8.792,2.648-15.622,7.633-22.308,13.621q-1.166,3.1-2.287,6.206-4.248,11.792-8.092,23.724-1.853,5.716-3.642,11.45c-1.283,4.114-2.285,8.457-3.955,12.429-.16.38-.84.293-.754-.162A118.857,118.857,0,0,1,253.441,367.39Z" transform="translate(-250.093 -284.338)" fill="#263238"/>
            <path id="Path_1084" data-name="Path 1084" d="M267.984,290.648a22.8,22.8,0,0,1,3.3,8.233c.015.076-.1.121-.131.044a71.1,71.1,0,0,0-3.582-8.08C267.437,290.578,267.829,290.411,267.984,290.648Z" transform="translate(-249.422 -283.525)" fill="#263238"/>
            <path id="Path_1085" data-name="Path 1085" d="M248.779,307.852a24.167,24.167,0,0,1,8.231-2.772c.075-.009.122.1.044.132-1.323.549-2.714.932-4.053,1.447s-2.657,1.145-4.017,1.617A.236.236,0,0,1,248.779,307.852Z" transform="translate(-213.853 -281.618)" fill="#263238"/>
            <path id="Path_1086" data-name="Path 1086" d="M249.472,287.4a16.2,16.2,0,0,1,2.649-1.634.14.14,0,0,1,.152.232,16.19,16.19,0,0,1-2.609,1.693C249.494,287.788,249.307,287.506,249.472,287.4Z" transform="translate(-209.936 -284.153)" fill="#263238"/>
          </g>
        </g>
        <g id="Group_348" data-name="Group 348" transform="translate(0 6.32)">
          <path id="Path_1087" data-name="Path 1087" d="M302.614,331.083c6.606,1.961,13.246,3.773,19.851,5.712.573.172,11.742-21.229,7.706-32.253-3.73-10.2-12.271-17.841-22.455-21.307-4.717-1.6-10.516-2.948-15.5-1.849-4.429.981-7.559,4.607-9,8.774-1.961,5.664-1.308,12.419-.241,18.2a31.8,31.8,0,0,0,6.5,14.855C292.987,327.385,297.464,329.556,302.614,331.083Z" transform="translate(-281.957 -280.987)" fill="#3a6bea"/>
          <g id="Group_347" data-name="Group 347" transform="translate(4.714 6.109)">
            <path id="Path_1088" data-name="Path 1088" d="M281.166,309.221a88.091,88.091,0,0,0,12.954,5.1,54.368,54.368,0,0,1,8.646,3.131c-2.789-6.22-5.85-12.31-9.1-18.344-4.268-1.235-8.756-3.161-11.974-6.182a.184.184,0,0,1,.24-.278c3.521,2.487,7.4,3.982,11.3,5.662-.88-1.623-1.765-3.245-2.669-4.864-.252-.449.368-.9.671-.459a139.654,139.654,0,0,1,9.387,15.764,72.122,72.122,0,0,0,.679-14.444.1.1,0,0,1,.192-.014,48.105,48.105,0,0,1-.163,15.872c2.317,4.624,4.428,9.361,6.324,14.158.753-2.882,1.733-5.719,2.387-8.624a39.68,39.68,0,0,0,.949-12.718c-.012-.124.171-.133.191-.014a44.84,44.84,0,0,1-2.771,23.345c1.1,2.888,2.158,5.787,3.121,8.689a173.148,173.148,0,0,1,8.77,45.837.28.28,0,0,1-.559.04,227.31,227.31,0,0,0-9.845-45.3c-1.916-5.76-4.121-11.352-6.54-16.84-3.9-1.153-7.789-2.718-11.621-4.045-3.741-1.3-7.572-2.794-10.712-5.252C280.9,309.35,281.03,309.152,281.166,309.221Z" transform="translate(-274.801 -285.571)" fill="#263238"/>
            <path id="Path_1089" data-name="Path 1089" d="M310.6,301.8c4.04,1.437,7.87,3.449,11.907,4.906.188.068.078.368-.112.328-4.271-.881-8.507-2.2-11.948-5C310.316,301.923,310.462,301.75,310.6,301.8Z" transform="translate(-310.396 -284.367)" fill="#263238"/>
            <path id="Path_1090" data-name="Path 1090" d="M290.394,294.119c-.049-.214.265-.337.33-.117,1.107,3.724,1.872,7.676.794,11.483a.145.145,0,0,1-.285-.018C291.039,301.632,291.254,297.9,290.394,294.119Z" transform="translate(-257.198 -285.404)" fill="#263238"/>
            <path id="Path_1091" data-name="Path 1091" d="M305.545,286.5a9.862,9.862,0,0,1,1.753,6.333c-.007.143-.233.225-.271.058-.493-2.131-1.316-4.073-1.969-6.142A.277.277,0,0,1,305.545,286.5Z" transform="translate(-289.043 -286.387)" fill="#263238"/>
          </g>
        </g>
        <g id="Group_350" data-name="Group 350" transform="translate(43.801 52.607)">
          <path id="Path_1092" data-name="Path 1092" d="M279.924,335.157c-1.938,6.146-6.539,14.643-13.827,14.711-4.725.044-9.483-.515-14.219-.583-5.071-.078-10.154-.067-15.215.235-.414.023.607-15.186,12.8-22.593,3.415-2.074,7.591-2.732,11.465-3.571a53.055,53.055,0,0,1,13.546-1.412c2.8.112,5.128.706,6.125,3.572C281.636,328.517,280.852,332.235,279.924,335.157Z" transform="translate(-224.487 -321.909)" fill="#3a6bea"/>
          <g id="Group_349" data-name="Group 349" transform="translate(0 2.652)">
            <path id="Path_1093" data-name="Path 1093" d="M292.116,327.156c-2.961.762-5.95,1.637-8.922,2.581a31.086,31.086,0,0,1,2.456-2.4c1.277-1.062,2.682-1.909,4.052-2.839.114-.078.045-.3-.1-.24a16.71,16.71,0,0,0-7.188,5.717c-3.7,1.2-7.374,2.518-10.906,3.967a41.116,41.116,0,0,0-6.982,3.677,28.068,28.068,0,0,1,2.526-4.4c1.617-2.1,3.807-3.266,5.925-4.754a.188.188,0,0,0-.19-.325,17.331,17.331,0,0,0-9.506,10.308,40.624,40.624,0,0,0-6.914,6.279c-8.065,9.16-14.416,21.348-14.439,33.784,0,.3.475.38.533.072a68.93,68.93,0,0,1,15.379-33.035c.577-.673,1.17-1.316,1.774-1.935a55.481,55.481,0,0,1,6.662-.494c2.6.038,5.17.381,7.754.59,4.254.346,8.96.4,12.8-1.744.169-.094.054-.389-.135-.32-8.557,3.112-17.531-.835-26.108,1.02a40.094,40.094,0,0,1,12.648-8.158c.262-.109.525-.209.787-.314,5.492.659,11.29,2.09,16.638.305a.132.132,0,0,0-.07-.253c-5.168,1.292-10.123-.333-15.223-.59,5.553-2.162,11.212-3.882,16.782-6.029C292.613,327.455,292.623,327.026,292.116,327.156Z" transform="translate(-241.924 -324.254)" fill="#263238"/>
            <path id="Path_1094" data-name="Path 1094" d="M248.05,331.6a73.656,73.656,0,0,1-7.992.605c-.061,0-.081.1-.016.112a16.582,16.582,0,0,0,8.065-.515A.105.105,0,0,0,248.05,331.6Z" transform="translate(-195.436 -323.291)" fill="#263238"/>
            <path id="Path_1095" data-name="Path 1095" d="M259.815,326.94a13.11,13.11,0,0,0-3.956,2.751c-.139.123.048.373.2.261.671-.489,1.361-.949,2.057-1.4a19.356,19.356,0,0,0,1.927-1.218C260.227,327.185,260.032,326.866,259.815,326.94Z" transform="translate(-225.253 -323.903)" fill="#263238"/>
          </g>
        </g>
        <g id="Group_352" data-name="Group 352" transform="translate(1.447 58.535)">
          <path id="Path_1096" data-name="Path 1096" d="M327.991,346.7c.089.2-.2.391-.313.179-.011,0-.011,0-.011-.01a.287.287,0,0,1-.19.122,122.392,122.392,0,0,1-14.891,2.6c-4.03.357-8.676.581-12.2-1.758-4.781-3.168-7.927-11.644-5.341-17.029,3.057-6.393,12.271-2.923,16.894-.649A33.913,33.913,0,0,1,327.991,346.7Z" transform="translate(-294.113 -327.149)" fill="#3a6bea"/>
          <g id="Group_351" data-name="Group 351" transform="translate(3.033 3.74)">
            <path id="Path_1097" data-name="Path 1097" d="M309.759,349.225a47.5,47.5,0,0,0-8.891-6.769,30.452,30.452,0,0,0-9.016-9.189c-.175-.12-.325.156-.164.281a40.7,40.7,0,0,1,7.6,7.991,83.6,83.6,0,0,0-11.155-5.073,14.86,14.86,0,0,0-5.992-6.005c-.05-.025-.113.044-.063.083a24.654,24.654,0,0,1,5.412,5.679c-2.267-.845-4.556-1.633-6.843-2.392-.207-.068-.284.244-.089.321,4.073,1.591,8.237,3.269,12.273,5.205a47.234,47.234,0,0,1-14.862-.044.11.11,0,0,0-.058.211,29.3,29.3,0,0,0,15.768.235,73.815,73.815,0,0,1,7.48,4.188,18.747,18.747,0,0,0-6.046.494,45.926,45.926,0,0,1-10.622,1.2c-.136,0-.171.216-.033.24,6.162,1.061,11.99-1.74,18.1-1.011a47.18,47.18,0,0,1,6.361,5.2,47.8,47.8,0,0,1,9.279,13.09c2.57,5.233,3.966,10.78,6.044,16.186a.2.2,0,0,0,.379-.105C322.835,368.581,317.526,356.823,309.759,349.225Z" transform="translate(-275.34 -330.455)" fill="#263238"/>
            <path id="Path_1098" data-name="Path 1098" d="M310.862,334.5a7,7,0,0,0-1.579-1.915,6.2,6.2,0,0,0-1.819-1.362c-.062-.024-.1.061-.06.1.506.575,1.209.994,1.754,1.543s1,1.2,1.56,1.743A.092.092,0,0,0,310.862,334.5Z" transform="translate(-295.028 -330.355)" fill="#263238"/>
            <path id="Path_1099" data-name="Path 1099" d="M321.961,337.191c-.913-.229-1.881-.213-2.81-.4a26.471,26.471,0,0,1-2.725-.816.11.11,0,0,0-.084.2,9.051,9.051,0,0,0,5.618,1.305A.15.15,0,0,0,321.961,337.191Z" transform="translate(-316.291 -329.733)" fill="#263238"/>
          </g>
        </g>
        <g id="Group_354" data-name="Group 354" transform="translate(29.601 95.419)">
          <g id="Group_353" data-name="Group 353" transform="translate(2.405 2.505)">
            <path id="Path_1100" data-name="Path 1100" d="M300.8,361.973,300,371.159l-2.745,31.016H272.96l-3.429-31.016-1.013-9.186Z" transform="translate(-268.518 -361.973)" fill="#023047"/>
            <path id="Path_1101" data-name="Path 1101" d="M300.8,361.973,300,371.159H269.531l-1.013-9.186Z" transform="translate(-268.518 -361.973)" fill="#263238"/>
          </g>
          <rect id="Rectangle_207" data-name="Rectangle 207" width="37.097" height="7.452" transform="translate(0 0)" fill="#023047"/>
        </g>
      </g>
    </g>
    <g id="Floor" transform="translate(0 449.555)">
      <line id="Line_60" data-name="Line 60" x1="327.824" fill="none" stroke="#263238" stroke-linecap="round" stroke-linejoin="round" stroke-width="1"/>
    </g>
    <g id="Speech_Bubble" data-name="Speech Bubble" transform="translate(128.506 118.73)">
      <g id="Group_428" data-name="Group 428">
        <path id="Path_1198" data-name="Path 1198" d="M164.015,166.186a6.978,6.978,0,1,0,7.554-6.35A6.979,6.979,0,0,0,164.015,166.186Z" transform="translate(-110.971 -97.777)" fill="#fff" stroke="#263238" stroke-miterlimit="10" stroke-width="1"/>
        <path id="Path_1199" data-name="Path 1199" d="M156.108,177.226a3.883,3.883,0,1,0,4.2-3.534A3.884,3.884,0,0,0,156.108,177.226Z" transform="translate(-87.955 -95.959)" fill="#fff" stroke="#263238" stroke-miterlimit="10" stroke-width="1"/>
        <g id="Group_424" data-name="Group 424" transform="translate(0)">
          <path id="Path_1200" data-name="Path 1200" d="M156.978,140.928a20.379,20.379,0,0,0,28.146,21.236,17.092,17.092,0,0,0,27.191-.06,13.454,13.454,0,0,0,2.287.478,13.86,13.86,0,0,0,13.019-21.722,20.373,20.373,0,0,0-27.43-29.478,17.1,17.1,0,0,0-29.349,4.658,10.955,10.955,0,0,0-2.193-.494,11.185,11.185,0,0,0-9.616,18.634A19.859,19.859,0,0,0,156.978,140.928Z" transform="translate(-156.118 -104.968)" fill="#fff" stroke="#263238" stroke-miterlimit="10" stroke-width="1"/>
        </g>
        <g id="Group_427" data-name="Group 427" transform="translate(17.281 15.034)">
          <g id="Group_425" data-name="Group 425">
            <path id="Path_1201" data-name="Path 1201" d="M201.568,138.63l.644,3.089a2.322,2.322,0,0,0,2.813,1.843,2.381,2.381,0,0,0,1.844-2.813l-1.029-4.942c-.009-.048-.057-.037-.067-.085.037-.058.037-.058.027-.105a2.448,2.448,0,0,0-2.813-1.844,5.437,5.437,0,1,1-2.217-10.644,5.361,5.361,0,0,1,5.106,1.664,2.4,2.4,0,0,0,3.409.182,2.365,2.365,0,0,0,.145-3.351,10.2,10.2,0,1,0-7.861,17.006Zm2.168,10.407.178.855a2.322,2.322,0,0,0,2.813,1.843,2.382,2.382,0,0,0,1.844-2.813l-.178-.855a2.415,2.415,0,0,0-2.814-1.844A2.351,2.351,0,0,0,203.737,149.038Z" transform="translate(-191.638 -118.259)" fill="#3a6bea"/>
          </g>
          <g id="Group_426" data-name="Group 426" transform="translate(21.519 0.014)">
            <path id="Path_1202" data-name="Path 1202" d="M184.525,132.358l.388-3.131a2.322,2.322,0,0,0-2.069-2.652,2.382,2.382,0,0,0-2.652,2.068l-.62,5.01c-.006.049.042.054.036.1-.054.042-.054.042-.06.09a2.448,2.448,0,0,0,2.069,2.652,5.437,5.437,0,1,1-1.336,10.79,5.363,5.363,0,0,1-4.3-3.221,2.4,2.4,0,0,0-3.168-1.273,2.365,2.365,0,0,0-1.218,3.126,10.2,10.2,0,1,0,12.926-13.562Zm1.305-10.55.107-.866a2.322,2.322,0,0,0-2.069-2.652,2.382,2.382,0,0,0-2.652,2.068l-.107.868a2.415,2.415,0,0,0,2.069,2.652A2.352,2.352,0,0,0,185.83,121.808Z" transform="translate(-171.397 -118.271)" fill="#3a6bea"/>
          </g>
        </g>
      </g>
    </g>
    <g id="male_02" data-name="male 02" transform="translate(-169.55 -829.104)">
      <g id="Group_836" data-name="Group 836" transform="translate(309.008 1080.978)">
        <path id="Path_2488" data-name="Path 2488" d="M405.371,1206.953c-9.476,9.591-17.748,19.034-25.7,36.585-2.2-5.716-1.663-4.461-6.976-17.033-2.444-5.91-18.24-2.568-18.638,2.632,0,0-2.837,36.214,13.887,50.475s63.871-45.285,63.871-45.285C446.875,1213.751,421.575,1194.092,405.371,1206.953Z" transform="translate(-336.738 -1179.417)" fill="#3362cc"/>
        <g id="Group_827" data-name="Group 827" transform="translate(17.359 122.524)">
          <path id="Path_2489" data-name="Path 2489" d="M527.1,1495.065c-17.776,34.684-147.444,22.334-169.763,3.458-16.494-24.212,43.255-36.044,44.579-36.081,29.367-.8,69.831,1.81,84.743,1.81C521.329,1469.58,531,1481.861,527.1,1495.065Z" transform="translate(-354.456 -1462.29)" fill="#407bff"/>
          <path id="Path_2490" data-name="Path 2490" d="M477.985,1509.991c24.119,5.717,45.52,7.591,71.826,3.558,0,0-40.291,17.809-40.51,18.467S477.985,1509.991,477.985,1509.991Z" transform="translate(-430.804 -1491.772)" fill="#3362cc"/>
          <path id="Path_2491" data-name="Path 2491" d="M607.091,1521.393c-25.973,28.758-136.817,25.993-115.5-.155,19.349-2.419,72.515-15.346,77.2-17.885C585.135,1490.11,617.655,1505.829,607.091,1521.393Z" transform="translate(-437.543 -1484.599)" fill="#407bff"/>
          <g id="Group_826" data-name="Group 826" transform="translate(1.779 10.307)">
            <g id="Group_824" data-name="Group 824" transform="translate(106.637 32.604)">
              <path id="Path_2492" data-name="Path 2492" d="M716.679,1593.348c-1.286-5.786-7.957-9.473-15.083-11.794-3.466,4.054-8.186,12.047-8.486,23.988C708.922,1609.092,718.889,1603.288,716.679,1593.348Z" transform="translate(-672.18 -1578.913)" fill="#3a6bea"/>
              <path id="Path_2493" data-name="Path 2493" d="M647.664,1574.694s-6.628-1.132-8.568,6.79c-.659,2.689-2.586,8.083,3.88,12.286,6.45,3.552,10.912,6.3,16.265,7.5.3-11.941,5.02-19.934,8.486-23.987C658.47,1574.264,647.664,1574.694,647.664,1574.694Z" transform="translate(-638.31 -1574.639)" fill="#a0bdff"/>
            </g>
            <path id="Path_2494" data-name="Path 2494" d="M473.029,1522.849c12.648,3.032,6.151,18.625-.363,17.7,7.1,1.005-125.606,1.021-112.661-39.116h.052c4.948-8.453,20.41-15.758,32.934-10.244C422,1506.589,449.376,1517.271,473.029,1522.849Z" transform="translate(-359.115 -1489.276)" fill="#407bff"/>
            <g id="Group_825" data-name="Group 825" transform="translate(110.455 35.159)">
              <path id="Path_2495" data-name="Path 2495" d="M656.5,1596.583s-11.286-.882-7.373-9.953,11.853-3.75,11.853-3.75S665.22,1592.137,656.5,1596.583Z" transform="translate(-648.307 -1581.329)" fill="#a0bdff"/>
              <path id="Path_2496" data-name="Path 2496" d="M670.341,1599.778a.516.516,0,0,1-.515-.5,20.2,20.2,0,0,1,5.023-13.885.515.515,0,0,1,.742.715,19.518,19.518,0,0,0-4.735,13.134.516.516,0,0,1-.5.533Z" transform="translate(-661.6 -1583.745)" fill="#fff"/>
              <path id="Path_2497" data-name="Path 2497" d="M678.693,1602.971a.515.515,0,0,1-.514-.5,20.2,20.2,0,0,1,5.023-13.885.515.515,0,0,1,.742.715,19.517,19.517,0,0,0-4.735,13.134.515.515,0,0,1-.5.533Z" transform="translate(-666.762 -1585.719)" fill="#fff"/>
              <path id="Path_2498" data-name="Path 2498" d="M687.536,1605.182a.515.515,0,0,1-.515-.5,20.2,20.2,0,0,1,5.023-13.886.515.515,0,0,1,.742.715,19.522,19.522,0,0,0-4.735,13.135.515.515,0,0,1-.5.533Z" transform="translate(-672.228 -1587.085)" fill="#fff"/>
            </g>
          </g>
          <path id="Path_2499" data-name="Path 2499" d="M471.95,1558.63c-2.7,1.5-71.09,4.677-109.159-19.842-12.389-7.979-5.872-19.431-5.872-19.431S365.786,1552.551,471.95,1558.63Z" transform="translate(-354.919 -1497.561)" fill="#3362cc"/>
          <path id="Path_2500" data-name="Path 2500" d="M523.088,1525.684a.768.768,0,0,1-.22-.032c-49.293-14.6-72-29.721-72.224-29.872a.773.773,0,0,1,.865-1.281c.222.15,22.765,15.147,71.8,29.671a.773.773,0,0,1-.219,1.515Z" transform="translate(-413.695 -1482.115)" fill="#051733"/>
          <path id="Path_2501" data-name="Path 2501" d="M557.877,1527.395a.773.773,0,0,1-.135-1.534c.313-.056,31.391-5.647,43.425-10.8a.773.773,0,0,1,.609,1.421c-12.2,5.227-42.479,10.676-43.762,10.905A.79.79,0,0,1,557.877,1527.395Z" transform="translate(-479.705 -1494.864)" fill="#051733"/>
        </g>
        <path id="Path_2502" data-name="Path 2502" d="M552.838,1296.77c1.082,8.292-57.945,10.27-88.135-1.749-4.515-18.718-20.1-103.91,26.454-103.653C541.422,1191.646,548.061,1274.173,552.838,1296.77Z" transform="translate(-401.433 -1172.32)" fill="#a0bdff"/>
        <path id="Path_2503" data-name="Path 2503" d="M357.849,1251.013l-.7-10.547,11.087-1.671,4.189,9.483C372.9,1251.083,358.322,1253.818,357.849,1251.013Z" transform="translate(-338.764 -1201.634)" fill="#f7a594"/>
        <g id="Group_829" data-name="Group 829" transform="translate(0 5.826)">
          <path id="Path_2504" data-name="Path 2504" d="M374.739,1215.247l2.686-17.093s-3.907-1.1-4.273,3.541-7.936,7.57-5.983,12.087S374.739,1215.247,374.739,1215.247Z" transform="translate(-344.756 -1182.271)" fill="#f7a594"/>
          <path id="Path_2505" data-name="Path 2505" d="M343.475,1206.634s-8.314-12.7-9.035-19.9c-.075-2.637,1.1-3.418,1.1-3.418l18.924,18.558s1.221,3.785-.244,5.372S347.26,1211.151,343.475,1206.634Z" transform="translate(-324.724 -1173.169)" fill="#f7a594"/>
          <path id="Path_2506" data-name="Path 2506" d="M377.573,1222.031s.191,3.007-1.531,2.388c-5.056-1.481-5.355-8.906-5.355-8.906Z" transform="translate(-347.129 -1193.07)" fill="#cc7767"/>
          <g id="Group_828" data-name="Group 828">
            <path id="Path_2507" data-name="Path 2507" d="M347.931,1189.456l-35.2-32.7a3.619,3.619,0,0,0-2.014.448l37.124,34.046A4.511,4.511,0,0,0,347.931,1189.456Z" transform="translate(-310.063 -1156.753)" fill="#404040"/>
            <path id="Path_2508" data-name="Path 2508" d="M309.66,1157.942c-.536.369-.876,1.026-.479,2.237.982,2.995,32.056,31.625,35.2,32.7,1.535.522,2.158-.108,2.4-.887Z" transform="translate(-309.008 -1157.488)"/>
          </g>
          <path id="Path_2509" data-name="Path 2509" d="M334.475,1185.8s.358-2.94,5.657.668c6.435,4.382,10.757,12.2,9.306,14.2C347.588,1203.224,333.072,1191.664,334.475,1185.8Z" transform="translate(-324.689 -1174.01)" fill="#f7a594"/>
        </g>
        <path id="Path_2510" data-name="Path 2510" d="M478.638,1195.063c-33.387,7.323-24.387,87.06-22.048,104.34,6.314,2.514,26.7,7.483,34.725,8.843C475.265,1270.277,466.839,1198.686,478.638,1195.063Z" transform="translate(-398.45 -1174.604)" fill="#3362cc"/>
        <path id="Path_2511" data-name="Path 2511" d="M528.625,1163.092c-3.711,18.089-23.6,17.625-23.863,7.473a4.433,4.433,0,0,1-.052-.824l-1.6-21.956-.206-2.679,1.752-.361,15.822-3.143.568-.1.463,1.392,2.011,5.72Z" transform="translate(-428.849 -1141.498)" fill="#f7a594"/>
        <path id="Path_2512" data-name="Path 2512" d="M565.395,1194.427c-6.29,14.784,2.025,91.983,7.785,115.023,15.573,5.263,39.063-2.432,45.341-10.33C614.066,1278.051,606.942,1204.446,565.395,1194.427Z" transform="translate(-466.081 -1174.211)" fill="#3362cc"/>
        <g id="Group_835" data-name="Group 835" transform="translate(57.791 33.172)">
          <path id="Path_2513" data-name="Path 2513" d="M563.838,1242.249c-2.426,13.293,2.2,36.348,5.791,48.33,9.54,7.018,24.365,3.4,24.365-7.389a144.66,144.66,0,0,0-2.789-33C588.9,1222.42,565.036,1222.677,563.838,1242.249Z" transform="translate(-523.881 -1228.35)" fill="#3362cc"/>
          <g id="Group_830" data-name="Group 830" transform="translate(14.246 31.231)">
            <path id="Path_2514" data-name="Path 2514" d="M508.707,1310.682c-9.827-3.544-14.887,10.568-7.732,15.465,17.012,11.479,43.433,26.917,48.132,17.079C555.981,1328.84,531.1,1317.777,508.707,1310.682Z" transform="translate(-497.614 -1310.117)" fill="#3362cc"/>
          </g>
          <g id="Group_834" data-name="Group 834" transform="translate(0 12.626)">
            <path id="Path_2515" data-name="Path 2515" d="M488.95,1318.6l-7.274-3.847c-4.573-3.544,3.479-10.834,6.744-9.659l5.658,3.55C496.944,1311.361,492.871,1318.3,488.95,1318.6Z" transform="translate(-472.67 -1288.331)" fill="#f7a594"/>
            <g id="Group_833" data-name="Group 833">
              <g id="Group_831" data-name="Group 831" transform="translate(5.686 5.97)">
                <path id="Path_2516" data-name="Path 2516" d="M479.218,1297.651c-5.954-1.269-3.9-7.281-2.554-14.149C471.871,1262.9,498.088,1298.2,479.218,1297.651Z" transform="translate(-475.202 -1277.039)" fill="#f7a594"/>
              </g>
              <path id="Path_2517" data-name="Path 2517" d="M479.4,1271.2s-1.943-3.029-6.223-9.792c-1.928.365-2.959,3.751-.367,6.715C475.089,1270.727,478.385,1272.492,479.4,1271.2Z" transform="translate(-467.081 -1261.408)" fill="#f7a594"/>
              <g id="Group_832" data-name="Group 832" transform="translate(0 7.494)">
                <path id="Path_2518" data-name="Path 2518" d="M466.786,1281.522c-4.3-2.436-7.363,4.655-6.234,10.192,1.728,8.473,8.033,4.288,9.917,2.026C473.915,1289.6,472.055,1284.506,466.786,1281.522Z" transform="translate(-460.316 -1281.028)" fill="#f7a594"/>
              </g>
            </g>
          </g>
          <path id="Path_2519" data-name="Path 2519" d="M563.617,1274.55a.515.515,0,0,1-.508-.431c-.031-.188-3.08-18.972.689-31.665a.515.515,0,0,1,.988.293c-3.7,12.464-.691,31.017-.66,31.2a.515.515,0,0,1-.424.592A.5.5,0,0,1,563.617,1274.55Z" transform="translate(-523.11 -1236.839)" fill="#003331"/>
          <path id="Path_2520" data-name="Path 2520" d="M581.875,1336.385c-8.49,0-18.553-5.335-19.141-5.651a.515.515,0,1,1,.488-.908c.195.1,19.565,10.374,26.648,2.6,6.214-6.815,1.585-36.333,1.538-36.63a.515.515,0,0,1,1.018-.163c.2,1.234,4.752,30.308-1.794,37.487C588.447,1335.522,585.287,1336.385,581.875,1336.385Z" transform="translate(-523.448 -1269.669)" fill="#003331"/>
          <path id="Path_2521" data-name="Path 2521" d="M548.856,1319.975a.514.514,0,0,1-.209-.044c-12.411-5.516-27.952-10.515-28.107-10.565a.515.515,0,1,1,.314-.981c.156.05,15.748,5.065,28.211,10.6a.515.515,0,0,1-.21.986Z" transform="translate(-497.316 -1277.8)" fill="#fff"/>
        </g>
        <path id="Path_2522" data-name="Path 2522" d="M505.168,1170.253c-.462-4.851-3.128-23.119-.044-25.342l15.822-3.143C524.572,1161.706,511.057,1171.661,505.168,1170.253Z" transform="translate(-429.312 -1141.665)" fill="#d97661"/>
      </g>
      <g id="Group_838" data-name="Group 838" transform="translate(343.629 1043.578)">
        <path id="Path_2523" data-name="Path 2523" d="M484.362,1082.761c-.768,16.3-15.286,28.956-26.086,28.358s-24.073-14.38-23.306-30.684,12.447-29,26.086-28.358S485.13,1066.457,484.362,1082.761Z" transform="translate(-421.462 -1048.817)" fill="#f7a594"/>
        <path id="Path_2524" data-name="Path 2524" d="M447.871,1049.143c-13.655-11.2-22.9-3.389-31.423,5.058-5.985,5.928-10.232,10.194-16.795,10.387,10.464,17.155,36.515,9.9,46.252-4.8-.33,9.01,9.268,17.689,16.649,17.734C466.134,1067.893,461.734,1046.992,447.871,1049.143Z" transform="translate(-399.653 -1043.578)" fill="#0e0e0e"/>
        <circle id="Ellipse_384" data-name="Ellipse 384" cx="5.63" cy="5.63" r="5.63" transform="translate(53.421 30.68) rotate(-15.268)" fill="#f7a594"/>
        <g id="Group_837" data-name="Group 837" transform="translate(17.563 29.611)">
          <path id="Path_2525" data-name="Path 2525" d="M475.748,1155.455a1.933,1.933,0,0,1-1.135-.32c-1.413-1-.026-9.362.433-11.9a.333.333,0,1,1,.656.118c-.9,5.006-1.43,10.726-.7,11.239.953.672,3.2-.523,3.992-1.041a.334.334,0,0,1,.367.558A8.055,8.055,0,0,1,475.748,1155.455Z" transform="translate(-463.163 -1134.613)" fill="#bd4a31"/>
          <path id="Path_2526" data-name="Path 2526" d="M504.517,1134.428c.288,1.3,1.044,2.244,1.689,2.1s.936-1.314.648-2.617-1.044-2.243-1.689-2.1S504.229,1133.125,504.517,1134.428Z" transform="translate(-481.959 -1127.713)" fill="#0e0e0e"/>
          <path id="Path_2527" data-name="Path 2527" d="M450.457,1148.046c.268,1.216.974,2.094,1.577,1.961s.874-1.226.605-2.443-.974-2.094-1.577-1.961S450.188,1146.83,450.457,1148.046Z" transform="translate(-448.551 -1136.238)" fill="#0e0e0e"/>
          <path id="Path_2528" data-name="Path 2528" d="M501.777,1170.393a7.471,7.471,0,0,1-.914-.049.333.333,0,0,1,.088-.661,8.314,8.314,0,0,0,5.82-1.616c1.542-1.3,2.372-3.335,2.467-6.034a.323.323,0,0,1,.345-.322.332.332,0,0,1,.321.344c-.1,2.9-1.013,5.093-2.708,6.524A8.484,8.484,0,0,1,501.777,1170.393Z" transform="translate(-479.59 -1146.202)" fill="#803221"/>
          <path id="Path_2529" data-name="Path 2529" d="M497.837,1124.452h-.015a.333.333,0,0,1-.318-.348,3.112,3.112,0,0,1,2.351-2.836,3.228,3.228,0,0,1,3.614,1.082.333.333,0,1,1-.54.391,2.571,2.571,0,0,0-2.883-.834,2.478,2.478,0,0,0-1.876,2.228A.334.334,0,0,1,497.837,1124.452Z" transform="translate(-477.693 -1121.105)" fill="#803221"/>
          <path id="Path_2530" data-name="Path 2530" d="M445.97,1136.85l-.03,0a.333.333,0,0,1-.3-.361c.177-2,1.362-2.853,2.413-2.984a2.823,2.823,0,0,1,2.957,1.99.333.333,0,1,1-.629.22,2.16,2.16,0,0,0-2.245-1.548c-.792.1-1.689.777-1.831,2.381A.333.333,0,0,1,445.97,1136.85Z" transform="translate(-445.636 -1128.756)" fill="#803221"/>
        </g>
      </g>
    </g>
  </g>
</svg>
