<svg xmlns="http://www.w3.org/2000/svg" width="501.495" height="439.465" viewBox="0 0 501.495 439.465">
  <g id="Log-in-as_a_employer-or-_Jobseekers_1" data-name="Log-in-as a employer-or- Jobseekers – 1" transform="translate(0 0)">
    <g id="Background_Complete" data-name="Background Complete" transform="translate(0 0)">
      <g id="Group_647" data-name="Group 647">
        <rect id="Rectangle_403" data-name="Rectangle 403" width="39.473" height="0.298" transform="translate(10.866 409.409)" fill="#ebebeb"/>
        <rect id="Rectangle_404" data-name="Rectangle 404" width="10.36" height="0.298" transform="translate(152.302 412.643)" fill="#ebebeb"/>
        <rect id="Rectangle_405" data-name="Rectangle 405" width="22.872" height="0.298" transform="translate(51.531 398.343)" fill="#ebebeb"/>
        <rect id="Rectangle_406" data-name="Rectangle 406" width="51.475" height="0.298" transform="translate(433.036 400.345)" fill="#ebebeb"/>
        <rect id="Rectangle_407" data-name="Rectangle 407" width="7.547" height="0.298" transform="translate(414.878 400.345)" fill="#ebebeb"/>
        <rect id="Rectangle_408" data-name="Rectangle 408" width="111.636" height="0.298" transform="translate(278.713 405.377)" fill="#ebebeb"/>
        <path id="Path_1627" data-name="Path 1627" d="M45.008,392.031H275.13a6.811,6.811,0,0,0,6.8-6.8V61.754a6.81,6.81,0,0,0-6.8-6.8H45.008a6.809,6.809,0,0,0-6.8,6.8V385.229A6.81,6.81,0,0,0,45.008,392.031ZM275.13,55.251a6.511,6.511,0,0,1,6.5,6.5V385.229a6.511,6.511,0,0,1-6.5,6.5H45.008a6.511,6.511,0,0,1-6.5-6.5V61.754a6.511,6.511,0,0,1,6.5-6.5Z" transform="translate(219.562 -54.953)" fill="#ebebeb"/>
        <path id="Path_1628" data-name="Path 1628" d="M261.307,392.031H491.43a6.81,6.81,0,0,0,6.8-6.8V61.754a6.809,6.809,0,0,0-6.8-6.8H261.307a6.81,6.81,0,0,0-6.8,6.8V385.229A6.811,6.811,0,0,0,261.307,392.031ZM491.43,55.251a6.511,6.511,0,0,1,6.5,6.5V385.229a6.511,6.511,0,0,1-6.5,6.5H261.307a6.512,6.512,0,0,1-6.5-6.5V61.754a6.512,6.512,0,0,1,6.5-6.5Z" transform="translate(-254.505 -54.953)" fill="#ebebeb"/>
        <rect id="Rectangle_409" data-name="Rectangle 409" width="498.188" height="0.249" transform="translate(0 390.252)" fill="#ebebeb"/>
      </g>
      <g id="Group_650" data-name="Group 650" transform="translate(347.665 246.541)">
        <g id="Group_648" data-name="Group 648" transform="translate(46.44 0)">
          <path id="Path_1629" data-name="Path 1629" d="M132.8,343.1c.145.162-.658,1.282,2.608.791,5.133-.771,14.285-5.75,20.234-9.25a4.549,4.549,0,0,0,.649-7.355c-3.077-2.7-6.36-6.4-6.037-9.676.34-3.45,7.581-7.478,13.724-10.3a4.557,4.557,0,0,0,.79-7.834c-1.963-1.434-3.541-3.075-3.606-4.67-.1-2.336,5.246-5.42,10.169-7.761a4.593,4.593,0,0,0,1.484-7.127,2.833,2.833,0,0,1-.653-2.8c.5-1.5,1.653-5.271,2.895-9.4a4.561,4.561,0,0,0-7.266-4.835c-4.865,4.011-9.865,7.991-11.939,9.17a2.571,2.571,0,0,1-2.843-.138,4.58,4.58,0,0,0-7.119,2.853c-1.523,8.3-4.092,18.144-7.961,20.535a8.951,8.951,0,0,1-6.111,1.225,4.579,4.579,0,0,0-5.259,3.967C125.361,310.965,124.032,333.3,132.8,343.1Z" transform="translate(-125.691 -261.829)" fill="#f5f5f5"/>
          <path id="Path_1630" data-name="Path 1630" d="M157.045,292.883a27.613,27.613,0,0,0-6.95,1.428,52.43,52.43,0,0,1,4.946-6.353.6.6,0,0,0-.85-.838c-.056.057-4.757,4.9-9.9,14.371-2.529-15.239,3.854-28.56,3.921-28.7a.447.447,0,0,0-.8-.392c-.07.143-6.883,14.358-3.794,30.349-.822,1.57-1.651,3.246-2.469,5.048a112.631,112.631,0,0,0-6.8,19.917,40.919,40.919,0,0,1-4.747-18.188.448.448,0,0,0-.46-.434.453.453,0,0,0-.434.461,41.133,41.133,0,0,0,5.332,19.412,138.877,138.877,0,0,0-3.026,41.064.6.6,0,0,0,.636.553.506.506,0,0,0,.074-.01.6.6,0,0,0,.479-.624c-1.475-21.418,1.728-38.634,6.159-51.669a16.379,16.379,0,0,1,9.51-5.425.47.47,0,0,0,.372-.512.448.448,0,0,0-.511-.372,16.806,16.806,0,0,0-8.672,4.31,99.619,99.619,0,0,1,10.16-20.654,24.613,24.613,0,0,1,7.9-1.854.456.456,0,0,0,.409-.483A.449.449,0,0,0,157.045,292.883Z" transform="translate(-125.113 -259.85)" fill="#e0e0e0"/>
        </g>
        <g id="Group_649" data-name="Group 649" transform="translate(0 20.887)">
          <path id="Path_1631" data-name="Path 1631" d="M129.966,344.306c-4.221.081-12.12-4.775-17.365-8.364a3.913,3.913,0,0,1-.156-6.3c1.394-1.139,2.4-2.666,1.872-4.591-.661-2.425-6.342-3.264-11.814-3.5a3.957,3.957,0,0,1-2.916-6.456c1.023-1.243,1.686-2.46,1.56-3.445-.266-2.07-6.991-6.442-12.491-9.695a3.964,3.964,0,0,1,.119-6.879c1.829-1.028,3.122-2.223,2.5-3.39-.573-1.068-1.878-3.668-3.331-6.593a3.96,3.96,0,0,1,5.517-5.2,102.253,102.253,0,0,0,10.334,5.441c1.61.586,3.561-.362,5.332-1.724a3.944,3.944,0,0,1,6.245,2.475c1.575,8.6,4.6,21.6,8.743,23.279a5.833,5.833,0,0,0,4.048.077,3.92,3.92,0,0,1,4.99,3.943C132.8,324.568,131.91,344.269,129.966,344.306Z" transform="translate(-86.723 -279.355)" fill="#e6e6e6"/>
        </g>
        <path id="Path_1632" data-name="Path 1632" d="M125.9,335a.428.428,0,0,0,.236-.2c.157-.3,3.82-7.383,3-17.915a.447.447,0,0,0-.891.069,35.721,35.721,0,0,1-2.705,17.027,137.11,137.11,0,0,0-10.177-21.529c1.182-14.351-6.171-26.1-6.246-26.219a.447.447,0,1,0-.754.48c.07.111,6.824,10.915,6.195,24.355a125.225,125.225,0,0,0-17.093-22.847.6.6,0,0,0-.834.852,116.081,116.081,0,0,1,13.042,16.492,34.981,34.981,0,0,0-12.635-2.225.447.447,0,0,0,.01.894h.008a34.319,34.319,0,0,1,13.476,2.623,142.142,142.142,0,0,1,7.272,12.506,15.111,15.111,0,0,0-12.467-2.2.447.447,0,1,0,.228.864,14.406,14.406,0,0,1,13.178,3.187,121.025,121.025,0,0,1,12.954,49,.6.6,0,0,0,.595.572h.024a.6.6,0,0,0,.572-.619A117.6,117.6,0,0,0,125.9,335Z" transform="translate(-84.859 -257.188)" fill="#f5f5f5"/>
        <path id="Path_1633" data-name="Path 1633" d="M132.417,348.841H109.774l5.331,35.444a4.91,4.91,0,0,0,4.856,4.181h22.548a4.911,4.911,0,0,0,4.856-4.181l5.331-35.444Z" transform="translate(-82.303 -245.146)" fill="#f0f0f0"/>
        <path id="Path_1634" data-name="Path 1634" d="M151.636,355.881l1.059-7.04H109.774l1.059,7.04Z" transform="translate(-82.303 -245.146)" fill="#e0e0e0"/>
        <path id="Path_1635" data-name="Path 1635" d="M157.083,352.3H107.071a1.688,1.688,0,0,1-1.567-2.314l1.033-2.584a1.687,1.687,0,0,1,1.567-1.061H156.05a1.687,1.687,0,0,1,1.567,1.061l1.033,2.584A1.688,1.688,0,0,1,157.083,352.3Z" transform="translate(-83.145 -245.625)" fill="#f0f0f0"/>
      </g>
      <g id="Group_652" data-name="Group 652" transform="translate(388.191 113.621)">
        <path id="Path_1636" data-name="Path 1636" d="M83.989,207.28l18.739-2.773c11.009-1.149,17.546,3.52,21.347,10.423a44.988,44.988,0,0,1-56.141,8.422C70.134,207.024,83.989,207.28,83.989,207.28Z" transform="translate(-46.198 -139.933)" fill="#e0e0e0"/>
        <path id="Path_1637" data-name="Path 1637" d="M99.882,187.009c-.286,6.207.164,17.42,4.984,20.82,0,0-6.074,12.05-15.031,16.066-5.5-3.741-3.707-13.293-3.707-13.293,6.481-2.6,5.568-7.56,3.707-12.1Z" transform="translate(-48.336 -143.255)" fill="#f5f5f5"/>
        <path id="Path_1638" data-name="Path 1638" d="M98.87,190.952l-5.954,6.811a19.393,19.393,0,0,1,1.1,3.246c2.509-.748,5.623-4.094,5.5-6.823A9.063,9.063,0,0,0,98.87,190.952Z" transform="translate(-51.418 -142.499)" fill="#e6e6e6" style="isolation: isolate"/>
        <path id="Path_1639" data-name="Path 1639" d="M115.475,179.922c-.8,10.156-.925,14.481-6.152,19.609-7.868,7.7-20.181,4.512-22.426-5.689-2.025-9.178-.374-24.209,9.661-28.137a13.91,13.91,0,0,1,18.916,14.217Z" transform="translate(-59.352 -147.523)" fill="#f5f5f5"/>
        <path id="Path_1640" data-name="Path 1640" d="M107.592,180.484a21.674,21.674,0,0,1-3.047,5.226,3.574,3.574,0,0,0,2.948.617Z" transform="translate(-73.345 -144.506)" fill="#e0e0e0"/>
        <path id="Path_1641" data-name="Path 1641" d="M99.127,188.413a7.726,7.726,0,0,1-1.386-.122.242.242,0,0,1-.2-.278l0-.008a.24.24,0,0,1,.274-.2,6.6,6.6,0,0,0,5.712-1.6.245.245,0,1,1,.362.33A6.838,6.838,0,0,1,99.127,188.413Z" transform="translate(-61.359 -143.423)" fill="#e0e0e0"/>
        <path id="Path_1642" data-name="Path 1642" d="M100.922,177.412a.51.51,0,0,1-.386-.063,3.86,3.86,0,0,0-3.481-.483.5.5,0,0,1-.383-.9,4.833,4.833,0,0,1,4.386.529.5.5,0,0,1,.141.67A.464.464,0,0,1,100.922,177.412Z" transform="translate(-57.363 -145.43)" fill="#e0e0e0"/>
        <path id="Path_1643" data-name="Path 1643" d="M105.168,177.363a.4.4,0,0,1-.274-.17.428.428,0,0,1,.089-.6h0a4.3,4.3,0,0,1,3.868-.707.447.447,0,0,1,.254.559.427.427,0,0,1-.549.254,3.38,3.38,0,0,0-3.063.592A.389.389,0,0,1,105.168,177.363Z" transform="translate(-75.198 -145.422)" fill="#e0e0e0"/>
        <g id="Group_651" data-name="Group 651">
          <path id="Path_1644" data-name="Path 1644" d="M102.61,240.742a45.224,45.224,0,1,0-45.224-45.224A45.275,45.275,0,0,0,102.61,240.742Zm0-88.987a43.763,43.763,0,1,1-43.764,43.763A43.812,43.812,0,0,1,102.61,151.755Z" transform="translate(-57.386 -150.294)" fill="#e0e0e0"/>
        </g>
        <path id="Path_1645" data-name="Path 1645" d="M100.056,180.2c-.012.675-.372,1.214-.813,1.2s-.783-.554-.771-1.23.373-1.2.814-1.2S100.069,179.535,100.056,180.2Z" transform="translate(-58.572 -144.794)" fill="#e0e0e0"/>
        <path id="Path_1646" data-name="Path 1646" d="M107.271,180.2c-.012.675-.372,1.214-.813,1.2s-.783-.554-.771-1.23.373-1.2.814-1.2S107.284,179.535,107.271,180.2Z" transform="translate(-74.385 -144.794)" fill="#e0e0e0"/>
        <path id="Path_1647" data-name="Path 1647" d="M109.356,188.9a6.246,6.246,0,0,1-3.533-7.107s-6.183-2.234-5.475-7.3c0,0-9.571,2.234-10.167-1.49,0,0-8.64,3.873-9.236,0s3.79-5.214,3.79-5.214-.473-8.788,7.9-5.81c0,0,4.872-5.065,10.593.745,0,0,5.767-2.532,8.426,5.363,0,0,5.49,2.681,3.852,8.491,0,0,3.823,3.656,1.043,7.267C116.548,183.845,117.359,194.07,109.356,188.9Z" transform="translate(-55.124 -148.446)" fill="#e0e0e0"/>
        <path id="Path_1648" data-name="Path 1648" d="M92.246,186.048a7.885,7.885,0,0,1-4.939,3.383c-2.7.539-3.852-1.912-2.935-4.356.82-2.19,3.216-5.126,5.841-4.577S93.619,183.893,92.246,186.048Z" transform="translate(-34.255 -144.516)" fill="#f5f5f5"/>
      </g>
      <g id="Group_654" data-name="Group 654" transform="translate(55.169 189.748)">
        <path id="Path_1649" data-name="Path 1649" d="M362.853,264.355s29.514-5.834,28.872,0c0,0,2.534-5.984-.135-17.5s-3.573-13.9-3.573-13.9l-16.359-1.564-12.53,7.373-.745,12.215,1.118,7.523Z" transform="translate(-328.051 -210.873)" fill="#e0e0e0"/>
        <path id="Path_1650" data-name="Path 1650" d="M395.155,271.158l-18.74-2.772c-11.008-1.15-17.545,3.519-21.346,10.422a44.984,44.984,0,0,0,56.141,8.422C409.01,270.9,395.155,271.158,395.155,271.158Z" transform="translate(-342.499 -203.812)" fill="#e0e0e0"/>
        <path id="Path_1651" data-name="Path 1651" d="M372.988,250.888c.286,6.205-.164,17.418-4.985,20.82,0,0,5.253,10.967,15.033,10.107,6.627-.584,3.708-7.335,3.708-7.335-6.481-2.6-5.568-7.559-3.708-12.1Z" transform="translate(-334.087 -207.134)" fill="#f5f5f5"/>
        <path id="Path_1652" data-name="Path 1652" d="M372.3,254.83l5.954,6.812a19.356,19.356,0,0,0-1.1,3.246c-2.509-.748-5.623-4.094-5.5-6.823A9.071,9.071,0,0,1,372.3,254.83Z" transform="translate(-329.31 -206.378)" fill="#e6e6e6" style="isolation: isolate"/>
        <path id="Path_1653" data-name="Path 1653" d="M359.366,243.8c.8,10.157.925,14.482,6.152,19.61,7.868,7.7,20.181,4.512,22.426-5.689,2.025-9.178.374-24.209-9.661-28.137A13.909,13.909,0,0,0,359.366,243.8Z" transform="translate(-325.041 -211.402)" fill="#f5f5f5"/>
        <path id="Path_1654" data-name="Path 1654" d="M363.01,244.362a21.682,21.682,0,0,0,3.047,5.227,3.574,3.574,0,0,1-2.948.616Z" transform="translate(-306.809 -208.385)" fill="#e0e0e0"/>
        <path id="Path_1655" data-name="Path 1655" d="M372.017,252.291a7.612,7.612,0,0,0,1.386-.12.242.242,0,0,0,.2-.278l0-.008a.24.24,0,0,0-.274-.2,6.605,6.605,0,0,1-5.712-1.6.245.245,0,1,0-.362.33A6.837,6.837,0,0,0,372.017,252.291Z" transform="translate(-319.338 -207.302)" fill="#e0e0e0"/>
        <path id="Path_1656" data-name="Path 1656" d="M369.968,241.29a.506.506,0,0,0,.386-.063,3.864,3.864,0,0,1,3.48-.483.5.5,0,0,0,.384-.9,4.835,4.835,0,0,0-4.386.528.5.5,0,0,0-.141.67A.464.464,0,0,0,369.968,241.29Z" transform="translate(-323.079 -209.309)" fill="#e0e0e0"/>
        <path id="Path_1657" data-name="Path 1657" d="M365.639,241.241a.4.4,0,0,0,.274-.169.428.428,0,0,0-.089-.6h0a4.306,4.306,0,0,0-3.868-.707.447.447,0,0,0-.254.559.428.428,0,0,0,.549.255,3.38,3.38,0,0,1,3.063.592A.387.387,0,0,0,365.639,241.241Z" transform="translate(-305.161 -209.302)" fill="#e0e0e0"/>
        <g id="Group_653" data-name="Group 653">
          <path id="Path_1658" data-name="Path 1658" d="M427.278,259.4a45.224,45.224,0,1,0-45.224,45.224A45.274,45.274,0,0,0,427.278,259.4Zm-1.461,0a43.763,43.763,0,1,1-43.763-43.764A43.812,43.812,0,0,1,425.817,259.4Z" transform="translate(-336.83 -214.173)" fill="#e0e0e0"/>
        </g>
        <path id="Path_1659" data-name="Path 1659" d="M370.311,244.079c.012.675.372,1.214.813,1.2s.783-.555.771-1.23-.373-1.2-.814-1.2S370.3,243.414,370.311,244.079Z" transform="translate(-321.348 -208.673)" fill="#e0e0e0"/>
        <path id="Path_1660" data-name="Path 1660" d="M363.1,244.079c.012.675.372,1.214.813,1.2s.783-.555.771-1.23-.373-1.2-.814-1.2S363.083,243.414,363.1,244.079Z" transform="translate(-305.534 -208.673)" fill="#e0e0e0"/>
        <path id="Path_1661" data-name="Path 1661" d="M369.617,242.9a2.123,2.123,0,0,0,1.641-.269s-.11.931-1.618.745Z" transform="translate(-319.884 -208.716)" fill="#e0e0e0"/>
        <path id="Path_1662" data-name="Path 1662" d="M362.407,242.9a2.123,2.123,0,0,0,1.641-.269s-.11.931-1.62.745Z" transform="translate(-304.081 -208.716)" fill="#e0e0e0"/>
        <path id="Path_1663" data-name="Path 1663" d="M371.587,251.723s6.926,1.148,6.33-8.029,5.065-4.038,6.332-8.656c0,0,2.5-.3,1.733,2.681,0,0,12.259,3.426,12.6-.149s-5.395-12.737-16.418-9.981c0,0-13.109-2.012-16.61,10.428s-.819,20.184-5.437,23.909,11.768,4.1,11.768,4.1Z" transform="translate(-334.922 -211.698)" fill="#e0e0e0"/>
        <path id="Path_1664" data-name="Path 1664" d="M379.29,249.927a7.885,7.885,0,0,0,4.939,3.383c2.7.539,3.852-1.912,2.935-4.356-.82-2.192-3.216-5.126-5.841-4.577S377.917,247.771,379.29,249.927Z" transform="translate(-346.833 -208.395)" fill="#f5f5f5"/>
      </g>
      <g id="Group_656" data-name="Group 656" transform="translate(76.746 45.64)">
        <g id="Group_655" data-name="Group 655">
          <path id="Path_1665" data-name="Path 1665" d="M378.09,141.992a24.371,24.371,0,1,0-24.37-24.371A24.4,24.4,0,0,0,378.09,141.992Zm0-46.954a22.583,22.583,0,1,1-22.582,22.583A22.609,22.609,0,0,1,378.09,95.038Z" transform="translate(-353.72 -93.25)" fill="#e6e6e6"/>
        </g>
        <path id="Path_1666" data-name="Path 1666" d="M376.089,136.07a23.328,23.328,0,0,1-11.93-3.283c.168-2.631.367-5.73.471-7.252a6.52,6.52,0,0,1,6.512-6.06h9.895a6.52,6.52,0,0,1,6.512,6.06c.1,1.522.3,4.62.472,7.252A23.332,23.332,0,0,1,376.089,136.07Z" transform="translate(-351.719 -88.222)" fill="#e6e6e6"/>
        <path id="Path_1667" data-name="Path 1667" d="M369.17,110.684c0,3.29,2.667,7.15,5.959,7.15s5.959-3.86,5.959-7.15a5.959,5.959,0,1,0-11.917,0Z" transform="translate(-350.758 -91.05)" fill="#e6e6e6"/>
      </g>
    </g>
    <g id="Shadow" transform="translate(23.777 412.476)">
      <ellipse id="_Path_" data-name="&lt;Path&gt;" cx="231.064" cy="13.494" rx="231.064" ry="13.494" fill="#f5f5f5"/>
    </g>
    <g id="Table" transform="translate(107.612 287.327)">
      <g id="Group_666" data-name="Group 666" transform="translate(0 0)">
        <g id="Group_662" data-name="Group 662" transform="translate(0 27.861)">
          <g id="Group_657" data-name="Group 657">
            <path id="Rectangle_410" data-name="Rectangle 410" d="M0,0H89.38a0,0,0,0,1,0,0V8.7a4.473,4.473,0,0,1-4.473,4.473H4.473A4.473,4.473,0,0,1,0,8.7V0A0,0,0,0,1,0,0Z" fill="#407bff"/>
            <path id="Rectangle_411" data-name="Rectangle 411" d="M0,0H89.38a0,0,0,0,1,0,0V8.7a4.473,4.473,0,0,1-4.473,4.473H4.473A4.473,4.473,0,0,1,0,8.7V0A0,0,0,0,1,0,0Z" fill="#fff" opacity="0.3"/>
          </g>
          <g id="Group_661" data-name="Group 661" transform="translate(3.206 1.827)">
            <path id="Path_1668" data-name="Path 1668" d="M305.683,329.577h64.423a2.291,2.291,0,0,1,2.285,2.121l6.984,93.95a1.789,1.789,0,0,1-1.651,1.916h0a1.788,1.788,0,0,1-1.915-1.651L369,334.275a1.212,1.212,0,0,0-1.21-1.123H308a1.213,1.213,0,0,0-1.21,1.123l-6.811,91.639a1.789,1.789,0,0,1-1.915,1.651h0a1.788,1.788,0,0,1-1.651-1.916L303.4,331.7A2.29,2.29,0,0,1,305.683,329.577Z" transform="translate(-296.41 -319.314)" fill="#263238"/>
            <g id="Group_658" data-name="Group 658" transform="translate(39.697 12.314)">
              <path id="Path_1669" data-name="Path 1669" d="M331.508,427.24h0a1.788,1.788,0,0,0,1.788-1.788V331.3H329.72v94.154A1.787,1.787,0,0,0,331.508,427.24Z" transform="translate(-329.72 -331.298)" fill="#263238"/>
            </g>
            <g id="Group_660" data-name="Group 660" transform="translate(22.358)">
              <path id="Path_1670" data-name="Path 1670" d="M316.96,333.279h0a1.787,1.787,0,0,1-1.788-1.788v-8.739a1.787,1.787,0,0,1,1.788-1.788h0a1.787,1.787,0,0,1,1.788,1.788v8.739A1.787,1.787,0,0,1,316.96,333.279Z" transform="translate(-280.496 -320.965)" fill="#263238"/>
              <g id="Group_659" data-name="Group 659">
                <path id="Path_1671" data-name="Path 1671" d="M346.057,333.279h0a1.787,1.787,0,0,1-1.788-1.788v-8.739a1.787,1.787,0,0,1,1.788-1.788h0a1.787,1.787,0,0,1,1.788,1.788v8.739A1.787,1.787,0,0,1,346.057,333.279Z" transform="translate(-344.269 -320.965)" fill="#263238"/>
              </g>
            </g>
          </g>
        </g>
        <g id="Group_665" data-name="Group 665" transform="translate(31.836)">
          <g id="Group_663" data-name="Group 663" transform="translate(6.677)">
            <path id="Path_1672" data-name="Path 1672" d="M338.206,299.3c-.082,0-.162.008-.243.011v-.93a2.332,2.332,0,0,0-2.332-2.331H322.2a2.331,2.331,0,0,0-2.331,2.331v14.43a8.2,8.2,0,0,0,8.2,8.2h1.7a8.2,8.2,0,0,0,8.007-6.452c.144.006.287.019.434.019,4.98,0,8.044-4.394,8.044-8.613S343.186,299.3,338.206,299.3Zm-.169,12.619-.074,0V301.96c.025,0,.049,0,.074,0,3.25,0,5.247,1.6,5.247,4.347A5.427,5.427,0,0,1,338.037,311.922Z" transform="translate(-319.871 -296.053)" fill="#407bff"/>
            <path id="Path_1673" data-name="Path 1673" d="M338.206,299.3c-.082,0-.162.008-.243.011v-.93a2.332,2.332,0,0,0-2.332-2.331H322.2a2.331,2.331,0,0,0-2.331,2.331v14.43a8.2,8.2,0,0,0,8.2,8.2h1.7a8.2,8.2,0,0,0,8.007-6.452c.144.006.287.019.434.019,4.98,0,8.044-4.394,8.044-8.613S343.186,299.3,338.206,299.3Zm-.169,12.619-.074,0V301.96c.025,0,.049,0,.074,0,3.25,0,5.247,1.6,5.247,4.347A5.427,5.427,0,0,1,338.037,311.922Z" transform="translate(-319.871 -296.053)" fill="#fff" opacity="0.7"/>
            <path id="Path_1674" data-name="Path 1674" d="M335.157,309.449c-.025,0-.049-.006-.074-.006v.9a8.137,8.137,0,0,1-.191,1.741c.145.006.287.023.434.023a7.872,7.872,0,0,0,2.032-.271v-2.88A4.99,4.99,0,0,1,335.157,309.449Z" transform="translate(-316.991 -293.58)" opacity="0.1"/>
            <path id="Path_1675" data-name="Path 1675" d="M320.287,312.453a8.191,8.191,0,0,0,7.7,5.413h1.7a8.194,8.194,0,0,0,7.7-5.413Z" transform="translate(-319.791 -292.909)" opacity="0.1"/>
            <path id="Path_1676" data-name="Path 1676" d="M335.3,298.78c-.082,0-.162.011-.243.012v2.649c.025,0,.049-.007.074-.007a7.669,7.669,0,0,1,2.2.3v-2.793A13.054,13.054,0,0,0,335.3,298.78Z" transform="translate(-316.96 -295.53)" opacity="0.1"/>
          </g>
          <g id="Group_664" data-name="Group 664" transform="translate(0 20.94)">
            <path id="Path_1677" data-name="Path 1677" d="M344.161,313.624H315.423a1.154,1.154,0,0,0-.484,2.2l6.317,2.923v1.8h17.073v-1.8l6.317-2.923A1.154,1.154,0,0,0,344.161,313.624Z" transform="translate(-314.268 -313.624)" fill="#407bff"/>
            <path id="Path_1678" data-name="Path 1678" d="M344.161,313.624H315.423a1.154,1.154,0,0,0-.484,2.2l6.317,2.923v1.8h17.073v-1.8l6.317-2.923A1.154,1.154,0,0,0,344.161,313.624Z" transform="translate(-314.268 -313.624)" fill="#fff" opacity="0.6"/>
          </g>
        </g>
      </g>
    </g>
    <g id="Speech_bubble" data-name="Speech bubble" transform="translate(185.021 49.781)">
      <g id="Group_671" data-name="Group 671" transform="translate(0 0)">
        <g id="Group_669" data-name="Group 669" transform="translate(0)">
          <g id="Group_667" data-name="Group 667">
            <path id="Path_1679" data-name="Path 1679" d="M285.795,145.66a24.417,24.417,0,0,1-12.169-3.246l-11.234,2.167,2.167-11.234a24.457,24.457,0,1,1,38.52,5.155h0A24.413,24.413,0,0,1,285.795,145.66Zm-11.846-5.129.292.173a22.655,22.655,0,0,0,27.573-3.466h0a22.684,22.684,0,1,0-35.546-4.508l.173.292-1.794,9.3Z" transform="translate(-261.312 -96.725)" fill="#407bff"/>
          </g>
          <g id="Group_668" data-name="Group 668" opacity="0.5">
            <path id="Path_1680" data-name="Path 1680" d="M285.795,145.66a24.417,24.417,0,0,1-12.169-3.246l-11.234,2.167,2.167-11.234a24.457,24.457,0,1,1,38.52,5.155h0A24.413,24.413,0,0,1,285.795,145.66Zm-11.846-5.129.292.173a22.655,22.655,0,0,0,27.573-3.466h0a22.684,22.684,0,1,0-35.546-4.508l.173.292-1.794,9.3Z" transform="translate(-261.312 -96.725)" fill="#fff"/>
          </g>
        </g>
        <g id="Group_670" data-name="Group 670" transform="translate(9.168 7.929)">
          <path id="Path_1681" data-name="Path 1681" d="M282.848,132.5l-13.2-14.469a2.753,2.753,0,0,1,.338-3.862h0a2.73,2.73,0,0,1,3.862,0l9.677,10.606,22.4-20.6a2.729,2.729,0,0,1,3.862,0h0a2.754,2.754,0,0,1-.338,3.862Z" transform="translate(-269.005 -103.379)" fill="#407bff"/>
        </g>
      </g>
    </g>
    <g id="Character_4" data-name="Character 4" transform="translate(96.011 88.911)">
      <g id="Group_680" data-name="Group 680" transform="translate(0 0)">
        <g id="Group_677" data-name="Group 677">
          <g id="Group_675" data-name="Group 675">
            <circle id="Ellipse_202" data-name="Ellipse 202" cx="39.815" cy="39.815" r="39.815" transform="translate(56.306 112.613) rotate(-135)" fill="#407bff"/>
            <circle id="Ellipse_203" data-name="Ellipse 203" cx="39.815" cy="39.815" r="39.815" transform="translate(56.306 112.613) rotate(-135)" fill="#fff" opacity="0.5"/>
            <g id="Group_674" data-name="Group 674" transform="translate(11.082 11.082)">
              <g id="Group_672" data-name="Group 672">
                <path id="Path_1682" data-name="Path 1682" d="M383.708,184.083a45.224,45.224,0,1,0-45.224,45.224A45.274,45.274,0,0,0,383.708,184.083Zm-1.46,0a43.763,43.763,0,1,1-43.764-43.763A43.814,43.814,0,0,1,382.248,184.083Z" transform="translate(-293.26 -138.859)" fill="#407bff"/>
              </g>
              <g id="Group_673" data-name="Group 673" opacity="0.5">
                <path id="Path_1683" data-name="Path 1683" d="M383.708,184.083a45.224,45.224,0,1,0-45.224,45.224A45.274,45.274,0,0,0,383.708,184.083Zm-1.46,0a43.763,43.763,0,1,1-43.764-43.763A43.814,43.814,0,0,1,382.248,184.083Z" transform="translate(-293.26 -138.859)" fill="#fff"/>
              </g>
            </g>
          </g>
          <path id="Path_1684" data-name="Path 1684" d="M362.3,199.69c-3.308-3.892-17.683-2.6-17.683-2.6l-14.055-1.344c-11.516-2.374-17.56.795-21.249,5.188-.018.02-.032.044-.05.066a39.777,39.777,0,0,0,54.764,2.333A11.106,11.106,0,0,0,362.3,199.69Z" transform="translate(-281.568 -117.024)" fill="#263238"/>
          <path id="Path_1685" data-name="Path 1685" d="M318.739,155.828s8.379.769,3.261,12.183L316.26,164.7l-.937-6.924Z" transform="translate(-248.419 -124.523)" fill="#263238"/>
          <path id="Path_1686" data-name="Path 1686" d="M318.739,155.828s8.379.769,3.261,12.183L316.26,164.7l-.937-6.924Z" transform="translate(-248.419 -124.523)" opacity="0.6"/>
          <path id="Path_1687" data-name="Path 1687" d="M321.552,199.524c1.347,2.743,5.109,7.527,15.042,7.527,6.028,0,6.453-2.478,4.664-5.285-5.835-2.828-5.875-8.578-4.318-13.539l-13-12.5c.863,6.406,1.449,17.459-2.056,23.058A3.3,3.3,0,0,0,321.552,199.524Z" transform="translate(-274.371 -120.708)" fill="#ffc3bd"/>
          <path id="Path_1688" data-name="Path 1688" d="M327.106,180.026l7.713,7.353a23.835,23.835,0,0,0-.808,3.928c-3.031-.624-6.813-3.431-7.815-6.855C325.543,182.357,326.305,180.219,327.106,180.026Z" transform="translate(-272.246 -119.884)" opacity="0.2" style="isolation: isolate"/>
          <path id="Path_1689" data-name="Path 1689" d="M315.143,169.218c.684,9.735,1.9,15.462,6.868,20.4,7.463,7.451,18.148,2.847,20.365-6.869,2.009-8.812.53-23.208-9.037-26.987a13.294,13.294,0,0,0-18.2,13.451Z" transform="translate(-267.651 -124.719)" fill="#ffc3bd"/>
          <path id="Path_1690" data-name="Path 1690" d="M324.227,169.369c.01.8.431,1.437.952,1.429s.93-.649.92-1.448-.433-1.426-.953-1.418S324.216,168.583,324.227,169.369Z" transform="translate(-261.474 -122.203)" fill="#263238"/>
          <path id="Path_1691" data-name="Path 1691" d="M316.713,169.3c.012.787.434,1.428.955,1.419s.93-.651.918-1.437-.43-1.438-.951-1.43S316.7,168.5,316.713,169.3Z" transform="translate(-245.005 -122.218)" fill="#263238"/>
          <path id="Path_1692" data-name="Path 1692" d="M317.829,169.346a28.254,28.254,0,0,0,3.862,6.733c-1.425,1.322-3.788.754-3.788.754Z" transform="translate(-249.441 -121.931)" fill="#ed847e"/>
          <path id="Path_1693" data-name="Path 1693" d="M325.568,166.473a.58.58,0,0,1-.232-.048.486.486,0,0,1-.1-.654,4.673,4.673,0,0,1,3.769-1.957.468.468,0,1,1-.054.934h0a3.7,3.7,0,0,0-2.966,1.58A.461.461,0,0,1,325.568,166.473Z" transform="translate(-265.931 -122.992)" fill="#263238"/>
          <path id="Path_1694" data-name="Path 1694" d="M318.314,166.529a.452.452,0,0,1-.362-.259,3.7,3.7,0,0,0-2.618-2.072.465.465,0,0,1,.11-.924,4.644,4.644,0,0,1,3.375,2.6.453.453,0,0,1-.2.609l-.012.006A.436.436,0,0,1,318.314,166.529Z" transform="translate(-243.156 -123.096)" fill="#263238"/>
          <path id="Path_1695" data-name="Path 1695" d="M325.087,178.813s4.445.691,4.169-1.166-2.588-8.284-2.078-11.047c.238-1.286,1.606-3.848,2.776-4.433,4.264-2.139,36.886,3.027,10.225-16.112v2.487s-5.341-3.672-6.487-2.379c-.846.953,2.317,4.542,2.317,4.542s-7-3.848-8.05-2.055c-.679,1.163,3.725,3.892,3.725,3.892S300.217,161.41,325.087,178.813Z" transform="translate(-275.553 -126.429)" fill="#263238"/>
          <g id="Group_676" data-name="Group 676" transform="translate(59.313 55.131)">
            <path id="Path_1696" data-name="Path 1696" d="M325.122,176.269s-9.56-1.708-9.166,1.7,1.964,12.654,5.4,12.654c1.448,0,.587-1.337.587-1.337a5.951,5.951,0,0,0,3.175,1.337c1.416,0,.15-2.027.15-2.027s1.72,1.591,3.149,1.217c.6-.156-.164-1.125.276-2.47,1.049-3.2,2.857-8.527,2.339-10.181C330.3,174.809,325.122,176.269,325.122,176.269Z" transform="translate(-315.945 -175.821)" fill="#263238"/>
            <path id="Path_1697" data-name="Path 1697" d="M325.122,176.269s-9.56-1.708-9.166,1.7,1.964,12.654,5.4,12.654c1.448,0,.587-1.337.587-1.337a5.951,5.951,0,0,0,3.175,1.337c1.416,0,.15-2.027.15-2.027s1.72,1.591,3.149,1.217c.6-.156-.164-1.125.276-2.47,1.049-3.2,2.857-8.527,2.339-10.181C330.3,174.809,325.122,176.269,325.122,176.269Z" transform="translate(-315.945 -175.821)" fill="#fff" opacity="0.5"/>
          </g>
          <path id="Path_1698" data-name="Path 1698" d="M327.968,177.669a57.106,57.106,0,0,0-9.746.477c1.073,1.822,2.839,3.219,6.471,2.81S327.968,177.669,327.968,177.669Z" transform="translate(-256.196 -120.344)" fill="#fff"/>
          <path id="Path_1699" data-name="Path 1699" d="M334.4,165.2a15.465,15.465,0,0,0,3.744,5.568,15.115,15.115,0,0,0,8.3-1.428,30.554,30.554,0,0,1-.9-4.564C339.337,165.922,336.029,165.623,334.4,165.2Z" transform="translate(-293.947 -122.807)" fill="#fff" opacity="0.5"/>
          <path id="Path_1700" data-name="Path 1700" d="M335.182,175.627A9.318,9.318,0,0,0,341,179.659c3.187.655,4.564-2.232,3.5-5.127-.953-2.594-3.766-6.079-6.87-5.45S333.574,173.071,335.182,175.627Z" transform="translate(-292.359 -121.996)" fill="#ffc3bd"/>
        </g>
        <g id="Group_679" data-name="Group 679" transform="translate(7.948 23.476)">
          <path id="Path_1701" data-name="Path 1701" d="M363.718,149.259l3.092,2.991,4.26-.6.743,4.238,3.8,2.016-1.889,3.865,1.889,3.865-3.8,2.016-.743,4.238-4.26-.6-3.092,2.991-3.092-2.991-4.26.6-.743-4.238-3.8-2.016,1.889-3.865-1.889-3.865,3.8-2.016.743-4.238,4.26.6Z" transform="translate(-351.822 -149.259)" fill="#407bff"/>
          <g id="Group_678" data-name="Group 678" transform="translate(4.943 7.62)" opacity="0.9">
            <path id="Path_1702" data-name="Path 1702" d="M360.617,165.43l-4.432-4.858a.926.926,0,0,1,.113-1.3h0a.916.916,0,0,1,1.3,0l3.249,3.561,7.521-6.916a.917.917,0,0,1,1.3,0h0a.926.926,0,0,1-.113,1.3Z" transform="translate(-355.97 -155.653)" fill="#fff"/>
          </g>
        </g>
      </g>
    </g>
    <g id="Character_3" data-name="Character 3" transform="translate(299.768 44.328)">
      <g id="Group_690" data-name="Group 690" transform="translate(0)">
        <g id="Group_684" data-name="Group 684" transform="translate(0 13.78)">
          <ellipse id="Ellipse_204" data-name="Ellipse 204" cx="39.815" cy="39.815" rx="39.815" ry="39.815" transform="translate(18.295 95.794) rotate(-103.283)" fill="#407bff"/>
          <ellipse id="Ellipse_205" data-name="Ellipse 205" cx="39.815" cy="39.815" rx="39.815" ry="39.815" transform="translate(18.295 95.794) rotate(-103.283)" fill="#fff" opacity="0.5"/>
          <g id="Group_683" data-name="Group 683" transform="translate(2.673 2.673)">
            <g id="Group_681" data-name="Group 681">
              <path id="Path_1703" data-name="Path 1703" d="M174.564,196.4a45.224,45.224,0,1,0-45.224-45.224A45.274,45.274,0,0,0,174.564,196.4Zm0-88.987A43.763,43.763,0,1,1,130.8,151.179,43.813,43.813,0,0,1,174.564,107.416Z" transform="translate(-129.34 -105.955)" fill="#407bff"/>
            </g>
            <g id="Group_682" data-name="Group 682" opacity="0.5">
              <path id="Path_1704" data-name="Path 1704" d="M174.564,196.4a45.224,45.224,0,1,0-45.224-45.224A45.274,45.274,0,0,0,174.564,196.4Zm0-88.987A43.763,43.763,0,1,1,130.8,151.179,43.813,43.813,0,0,1,174.564,107.416Z" transform="translate(-129.34 -105.955)" fill="#fff"/>
            </g>
          </g>
        </g>
        <g id="Group_685" data-name="Group 685" transform="translate(24.986 71.189)">
          <path id="Path_1705" data-name="Path 1705" d="M162.9,182.187a39.623,39.623,0,0,1-22.911-7.262c1.715-5.058,3.87-11.164,5.207-14.051,3.083-6.653,6.622-8.768,33.2-8.988,12.415-.1,16.359,6.433,17.037,13.428A39.754,39.754,0,0,1,162.9,182.187Z" transform="translate(-139.991 -151.885)" fill="#407bff"/>
          <path id="Path_1706" data-name="Path 1706" d="M162.9,182.187a39.623,39.623,0,0,1-22.911-7.262c1.715-5.058,3.87-11.164,5.207-14.051,3.083-6.653,6.622-8.768,33.2-8.988,12.415-.1,16.359,6.433,17.037,13.428A39.754,39.754,0,0,1,162.9,182.187Z" transform="translate(-139.991 -151.885)" fill="#fff" opacity="0.8"/>
        </g>
        <g id="Group_686" data-name="Group 686" transform="translate(29.543 28.684)">
          <path id="Path_1707" data-name="Path 1707" d="M183.478,121.315s-6.82-.928-4.369-4.847a.543.543,0,0,1,1,.23A5.81,5.81,0,0,0,183.478,121.315Z" transform="translate(-178.577 -116.218)" fill="#263238"/>
        </g>
        <g id="Group_687" data-name="Group 687" transform="translate(57.525 18.103)">
          <path id="Path_1708" data-name="Path 1708" d="M152.516,112.771s9.57,1.336,7.745-4.891a.763.763,0,0,0-1.435-.069C158.148,109.556,156.5,111.878,152.516,112.771Z" transform="translate(-152.516 -107.339)" fill="#263238"/>
        </g>
        <path id="Path_1709" data-name="Path 1709" d="M150.813,132.251s3.539,8.992,8.067,4.343a.762.762,0,0,0-.646-1.282C156.382,135.577,153.551,135.286,150.813,132.251Z" transform="translate(-91.563 -84.46)" fill="#263238"/>
        <path id="Path_1710" data-name="Path 1710" d="M158.047,113.947s-7.489-.956-5.6-6.535,3.8-8.768,3.107-12.221c0,0,1.814.176,1.624,3.188,0,0,2.025-6.731,7.782-6.2s3.719,5.668,8.5,4.96c0,0-1.949,2.213-3.985.354,0,0,.532,3.985,5.756,1.771a8.357,8.357,0,0,0-3.213,6.288c-.081,6.919.046,11.182-4.757,9.5Z" transform="translate(-109.276 -92.149)" fill="#263238"/>
        <path id="Path_1711" data-name="Path 1711" d="M170.557,114.32s2.609-3.843-5.621-4.9-7.267,2.542-7.267,2.542Z" transform="translate(-111.547 -88.875)" fill="#407bff"/>
        <path id="Path_1712" data-name="Path 1712" d="M172.084,135.432c-.871,6.377-1.562,15.655,3.1,19.609a59.894,59.894,0,0,0-15.006,13.975,1.828,1.828,0,0,1-2.565.324,1.855,1.855,0,0,1-.422-.462c-5.4-8.5-1.626-12.679-1.626-12.679,4.113-.914,3.613-4.57,2.125-9.405Z" transform="translate(-111.797 -83.85)" fill="#7f3e3b"/>
        <path id="Path_1713" data-name="Path 1713" d="M170.407,139.561l-7.992,4.5L159.95,146a15.522,15.522,0,0,1,1.062,6.291C166.23,150.8,172.214,143.855,170.407,139.561Z" transform="translate(-114.095 -83.058)" opacity="0.2" style="isolation: isolate"/>
        <path id="Path_1714" data-name="Path 1714" d="M184.906,124.89c1.679,10.447,2.613,14.879-1.4,21.256-6.047,9.713-19.246,9.49-24.007-.245-4.251-8.768-6.376-24.379,2.848-30.744a14.433,14.433,0,0,1,22.563,9.734Z" transform="translate(-124.831 -88.239)" fill="#7f3e3b"/>
        <path id="Path_1715" data-name="Path 1715" d="M172.345,128.5c.181.84-.106,1.616-.659,1.743s-1.148-.456-1.329-1.3.1-1.615.648-1.742S172.154,127.661,172.345,128.5Z" transform="translate(-128.095 -85.431)" fill="#263238"/>
        <path id="Path_1716" data-name="Path 1716" d="M180.309,130.284c.191.84-.107,1.626-.648,1.742s-1.149-.456-1.34-1.3.106-1.616.648-1.743S180.117,129.445,180.309,130.284Z" transform="translate(-145.548 -85.089)" fill="#263238"/>
        <path id="Path_1717" data-name="Path 1717" d="M181.347,129l-2.126-.128S180.593,130.219,181.347,129Z" transform="translate(-147.671 -85.108)" fill="#263238"/>
        <path id="Path_1718" data-name="Path 1718" d="M171.1,139.492a9.015,9.015,0,0,1-1.264.148.255.255,0,0,1,0-.5,6.855,6.855,0,0,0,5.431-2.922.255.255,0,0,1,.34-.1.275.275,0,0,1,.1.35A7.1,7.1,0,0,1,171.1,139.492Z" transform="translate(-130.629 -83.723)" fill="#263238"/>
        <path id="Path_1719" data-name="Path 1719" d="M175.717,122.586a.51.51,0,0,1-.595,0c-1.923-1.329-4.761-.319-4.782-.309a.5.5,0,1,1-.35-.946c.137,0,3.358-1.2,5.706.415a.51.51,0,0,1,.128.7A.388.388,0,0,1,175.717,122.586Z" transform="translate(-130.84 -86.636)" fill="#263238"/>
        <path id="Path_1720" data-name="Path 1720" d="M180.507,127.612a.524.524,0,0,1-.471.188.511.511,0,0,1-.427-.566,5.006,5.006,0,0,1,2.543-3.85.507.507,0,1,1,.441.913,4.021,4.021,0,0,0-1.977,3.072A.577.577,0,0,1,180.507,127.612Z" transform="translate(-149.663 -86.17)" fill="#263238"/>
        <path id="Path_1721" data-name="Path 1721" d="M173.383,127.214l-2.125-.128S172.618,128.435,173.383,127.214Z" transform="translate(-130.217 -85.45)" fill="#263238"/>
        <path id="Path_1722" data-name="Path 1722" d="M176.129,130.4a23.82,23.82,0,0,1-2.034,6.469,4.438,4.438,0,0,0,3.548-.113Z" transform="translate(-137.858 -84.814)" fill="#630f0f"/>
        <path id="Path_1723" data-name="Path 1723" d="M168.093,129.867a3.745,3.745,0,0,0,7.374-1.307Z" transform="translate(-128.589 -85.168)" fill="#407bff"/>
        <path id="Path_1724" data-name="Path 1724" d="M175.785,131.233a3.745,3.745,0,1,0,7.374-1.309Z" transform="translate(-145.447 -84.906)" fill="#407bff"/>
        <g id="Group_688" data-name="Group 688" transform="translate(29.551 41.238)">
          <path id="Path_1725" data-name="Path 1725" d="M160.422,135.33a4.148,4.148,0,0,0,4.14-4.471l1.044-.185a4.149,4.149,0,0,0,4.716,2.966,4.15,4.15,0,0,0,3.406-4.408l1.914-.342,12.089-1.344-.088-.794L175.527,128.1l-2.7.483.05.284a3.48,3.48,0,0,1-.2,2.014,3.347,3.347,0,0,1-2.82,2.015,3.467,3.467,0,0,1-3.584-2.926l-.007-.037a.183.183,0,0,0-.212-.149l-2.215.393a.182.182,0,0,0-.149.212h0a3.525,3.525,0,0,1-2.765,4.107,3.35,3.35,0,0,1-3.787-2.727l-.784.139a4.147,4.147,0,0,0,4.07,3.42Z" transform="translate(-156.352 -126.752)" fill="#263238"/>
        </g>
        <path id="Path_1726" data-name="Path 1726" d="M183.462,133.332s9.459-20.882-10.084-22.564c-2.611-.224-7.935-.61-10.482,0-3.289.788-11.4,5.793-8.231,10.735,0,0,2.885-4.092,12.526-3.163S175.615,135.306,183.462,133.332Z" transform="translate(-121.95 -88.642)" fill="#263238"/>
        <path id="Path_1727" data-name="Path 1727" d="M160.7,129.96A7.726,7.726,0,0,1,157.612,135c-2.2,1.584-4.252-.169-4.39-2.731-.137-2.306.829-5.909,3.412-6.472a3.476,3.476,0,0,1,4.071,4.166Z" transform="translate(-96.113 -85.711)" fill="#7f3e3b"/>
        <g id="Group_689" data-name="Group 689" transform="translate(56.046 47.791)">
          <path id="Path_1728" data-name="Path 1728" d="M156.982,140.613a4.207,4.207,0,0,0,2.575-7.885l-.372.7a3.411,3.411,0,1,1-1.78-.386l-.044-.8a4.207,4.207,0,0,0-.379,8.362Z" transform="translate(-153.39 -132.251)" fill="#407bff"/>
        </g>
      </g>
      <g id="Group_692" data-name="Group 692" transform="translate(1.194 24.656)">
        <path id="Path_1729" data-name="Path 1729" d="M198.409,112.838l3.092,2.991,4.26-.6.743,4.238,3.8,2.016-1.889,3.865,1.889,3.865-3.8,2.016-.743,4.238-4.26-.6-3.092,2.991-3.092-2.991-4.26.6-.743-4.238-3.8-2.016,1.889-3.865-1.889-3.865,3.8-2.016.743-4.238,4.26.6Z" transform="translate(-186.513 -112.838)" fill="#407bff"/>
        <g id="Group_691" data-name="Group 691" transform="translate(4.943 7.62)" opacity="0.9">
          <path id="Path_1730" data-name="Path 1730" d="M195.308,129.009l-4.432-4.857a.925.925,0,0,1,.114-1.3h0a.917.917,0,0,1,1.3,0l3.249,3.561,7.52-6.916a.917.917,0,0,1,1.3,0h0a.925.925,0,0,1-.113,1.3Z" transform="translate(-190.661 -119.232)" fill="#fff"/>
        </g>
      </g>
    </g>
    <g id="Character_2" data-name="Character 2" transform="translate(323.81 172.272)">
      <g id="Group_697" data-name="Group 697" transform="translate(0 0)">
        <g id="Group_696" data-name="Group 696">
          <circle id="Ellipse_206" data-name="Ellipse 206" cx="39.815" cy="39.815" r="39.815" transform="translate(56.306 112.613) rotate(-135)" fill="#407bff"/>
          <circle id="Ellipse_207" data-name="Ellipse 207" cx="39.815" cy="39.815" r="39.815" transform="translate(56.306 112.613) rotate(-135)" fill="#fff" opacity="0.5"/>
          <path id="Path_1731" data-name="Path 1731" d="M123.316,268.5c-5.676-6.042-4.431-13.905-2.162-23.7,1.179-5.054-5.316-8.695-.779-16.115,4.246-7.118,29.193-14.051,29.835-1.179,8.764,2.522,9,10.4,8.141,22.96-.328,4.791,1.04,7.13,2.848,8.824a7.766,7.766,0,0,1-3.777,13.356C146.6,274.683,130.445,276.091,123.316,268.5Z" transform="translate(-82.008 -195.521)" fill="#263238"/>
          <path id="Path_1732" data-name="Path 1732" d="M129.577,264l16.582-2.454c9.741-1.017,15.525,3.115,18.889,9.223a39.805,39.805,0,0,1-49.677,7.452C117.317,263.777,129.577,264,129.577,264Z" transform="translate(-79.32 -187.644)" fill="#407bff"/>
          <path id="Path_1733" data-name="Path 1733" d="M143.638,246.067c-.254,5.492.145,15.413,4.411,18.422,0,0-5.375,10.662-13.3,14.216-4.868-3.311-3.281-11.762-3.281-11.762,5.735-2.3,4.927-6.689,3.281-10.711Z" transform="translate(-81.21 -190.583)" fill="#ffb573"/>
          <path id="Path_1734" data-name="Path 1734" d="M142.744,249.555l-5.267,6.028a17.053,17.053,0,0,1,.974,2.872c2.22-.661,4.975-3.622,4.868-6.037A7.973,7.973,0,0,0,142.744,249.555Z" transform="translate(-83.939 -189.914)" opacity="0.2" style="isolation: isolate"/>
          <path id="Path_1735" data-name="Path 1735" d="M157.438,239.8c-.711,8.987-.819,12.814-5.444,17.35-6.962,6.817-17.857,3.992-19.844-5.034-1.792-8.12-.331-21.421,8.549-24.9A12.308,12.308,0,0,1,157.438,239.8Z" transform="translate(-90.959 -194.36)" fill="#ffb573"/>
          <path id="Path_1736" data-name="Path 1736" d="M129.915,226.432c-11.685,3.836,10.088,20.73,9.834,30.623C144.453,245.448,142.749,222.234,129.915,226.432Z" transform="translate(-69.64 -194.443)" fill="#263238"/>
          <path id="Path_1737" data-name="Path 1737" d="M150.463,239.407a19.241,19.241,0,0,1-2.7,4.626,3.17,3.17,0,0,0,2.61.545Z" transform="translate(-103.342 -191.86)" fill="#ed893e"/>
          <path id="Path_1738" data-name="Path 1738" d="M142.971,246.424a6.826,6.826,0,0,1-1.226-.107.213.213,0,0,1-.176-.245v-.007a.213.213,0,0,1,.243-.175,5.844,5.844,0,0,0,5.054-1.412.217.217,0,1,1,.321.292A6.056,6.056,0,0,1,142.971,246.424Z" transform="translate(-92.734 -190.901)" fill="#263238"/>
          <path id="Path_1739" data-name="Path 1739" d="M158.315,227.17c3.612,6.612-6.817,2.853-15.21,5.589-7.789,2.522-11.733,7.575-10.876.243C133.28,223.956,152.638,216.751,158.315,227.17Z" transform="translate(-93.277 -195.191)" fill="#263238"/>
          <path id="Path_1740" data-name="Path 1740" d="M143.819,236.779a.444.444,0,0,1-.292-.185,3.419,3.419,0,0,0-2.668-1.6.438.438,0,0,1,0-.866,4.27,4.27,0,0,1,3.388,1.947.437.437,0,0,1-.117.593A.4.4,0,0,1,143.819,236.779Z" transform="translate(-88.52 -192.871)" fill="#263238"/>
          <path id="Path_1741" data-name="Path 1741" d="M142.324,238.313a.224.224,0,0,1,.185.058,2.077,2.077,0,0,0,1.791.516.258.258,0,0,1,.148.493l-.011,0a2.562,2.562,0,0,1-2.269-.622.255.255,0,0,1,0-.359l0,0A.226.226,0,0,1,142.324,238.313Z" transform="translate(-90.743 -192.07)" fill="#263238"/>
          <path id="Path_1742" data-name="Path 1742" d="M149.182,237.978a.253.253,0,0,1,.185.068,2.042,2.042,0,0,0,1.782.545.263.263,0,0,1,.312.186.254.254,0,0,1-.179.31h-.006a2.543,2.543,0,0,1-2.25-.663.254.254,0,0,1,0-.358l0,0A.3.3,0,0,1,149.182,237.978Z" transform="translate(-105.761 -192.134)" fill="#263238"/>
          <path id="Path_1743" data-name="Path 1743" d="M148.591,235.473a.4.4,0,0,1-.282-.156.429.429,0,0,1,.057-.6h0a4.3,4.3,0,0,1,3.827-.906.449.449,0,0,1,.282.546.429.429,0,0,1-.535.282,3.377,3.377,0,0,0-3.028.75A.391.391,0,0,1,148.591,235.473Z" transform="translate(-105.903 -192.957)" fill="#263238"/>
          <g id="Group_695" data-name="Group 695" transform="translate(11.082 11.083)">
            <g id="Group_693" data-name="Group 693">
              <path id="Path_1744" data-name="Path 1744" d="M147.334,299.257a45.224,45.224,0,1,0-45.224-45.224A45.274,45.274,0,0,0,147.334,299.257Zm0-88.988a43.763,43.763,0,1,1-43.763,43.764A43.814,43.814,0,0,1,147.334,210.269Z" transform="translate(-102.11 -208.809)" fill="#407bff"/>
            </g>
            <g id="Group_694" data-name="Group 694" opacity="0.5">
              <path id="Path_1745" data-name="Path 1745" d="M147.334,299.257a45.224,45.224,0,1,0-45.224-45.224A45.274,45.274,0,0,0,147.334,299.257Zm0-88.988a43.763,43.763,0,1,1-43.763,43.764A43.814,43.814,0,0,1,147.334,210.269Z" transform="translate(-102.11 -208.809)" fill="#fff"/>
            </g>
          </g>
        </g>
      </g>
    </g>
    <g id="Character_1" data-name="Character 1" transform="translate(210.318 97.778)">
      <g id="Group_700" data-name="Group 700">
        <path id="Path_1746" data-name="Path 1746" d="M238.24,281.709l10.422,152.233-8.534,2.152s-16.413-52.781-17.069-82.458.074-35.963-9.318-52.723Z" transform="translate(-166.672 -109.254)" fill="#ffb573"/>
        <path id="Path_1747" data-name="Path 1747" d="M274.894,283.443,263.146,435.762l-8.928-.057s-9.586-54.523-5.859-83.953,8.675-35.255,1.691-53.355Z" transform="translate(-233.135 -108.922)" fill="#ffb573"/>
        <path id="Path_1748" data-name="Path 1748" d="M256.084,409.763l-9.293.2a.866.866,0,0,0-.832.691l-1.782,8.77a1.438,1.438,0,0,0,1.111,1.7,1.36,1.36,0,0,0,.3.031c3.87-.137,7.308-.412,12.126-.493,5.687-.1,4.257.6,10.944.577,4.029-.02,4.684-4.612,2.971-4.806-7.836-.841-10.134-3.187-13.2-5.93A3.457,3.457,0,0,0,256.084,409.763Z" transform="translate(-226.764 -84.703)" fill="#263238"/>
        <path id="Path_1749" data-name="Path 1749" d="M209.391,408.656l-9.167,1.541a.865.865,0,0,0-.723.8l-.491,8.937a1.434,1.434,0,0,0,1.649,1.51c3.809-.7,7.171-1.467,11.927-2.246,5.612-.925,4.3-.019,10.912-1.014,3.984-.6,3.965-5.244,2.243-5.186-7.875.3-10.488-1.685-13.921-3.954A3.456,3.456,0,0,0,209.391,408.656Z" transform="translate(-127.296 -84.928)" fill="#263238"/>
        <path id="Path_1750" data-name="Path 1750" d="M271.875,283.443l-4.412,57.2c-5.991-.77-12.629-1.847-19.965-3.306,2.047-11.992,3.7-18.891,2.787-26.678a43.816,43.816,0,0,0-1.788-13.148Z" transform="translate(-230.116 -108.922)" opacity="0.2" style="isolation: isolate"/>
        <path id="Path_1751" data-name="Path 1751" d="M228.188,341.6c-.424-19.793-1.111-26.48-9.074-40.691l24.5-19.2,4.017,58.682A117.931,117.931,0,0,1,228.188,341.6Z" transform="translate(-172.046 -109.254)" opacity="0.2" style="isolation: isolate"/>
        <path id="Path_1752" data-name="Path 1752" d="M274.808,241.952s6.285,52.373,8.03,101.954c0,0-17.109,4.887-62.149-2.1a75.781,75.781,0,0,0,.963-19.621c-1.319-17.934-6.611-37.408-.963-56.146,6.243-20.722,12.918-26.536,12.918-26.536l39.106-1.746Z" transform="translate(-206.086 -117.68)" fill="#263238"/>
        <path id="Path_1753" data-name="Path 1753" d="M259.241,182.151,226.608,183a3.6,3.6,0,0,0-3.338,4.718c3.386,10.41,10.449,37.184,5.009,66.291h45.74l.7-42.946s3.57-9.091-11.2-26.957A5.384,5.384,0,0,0,259.241,182.151Z" transform="translate(-204.249 -128.343)" fill="#407bff"/>
        <path id="Path_1754" data-name="Path 1754" d="M259.241,182.151,226.608,183a3.6,3.6,0,0,0-3.338,4.718c3.386,10.41,10.449,37.184,5.009,66.291h45.74l.7-42.946s3.57-9.091-11.2-26.957A5.384,5.384,0,0,0,259.241,182.151Z" transform="translate(-204.249 -128.343)" fill="#fff" opacity="0.9"/>
        <path id="Path_1755" data-name="Path 1755" d="M182.441,212.186l9.079-3.4,3-6.924a2.385,2.385,0,0,1,.363-.59l7.613-9.133a1.263,1.263,0,0,1,1.658-.25h0a1.264,1.264,0,0,1,.31,1.835l-4.044,5.2,1.522,7.191a3.859,3.859,0,0,1-.871,3.338l-.691.79a3.871,3.871,0,0,1-1.136.889l-5.109,2.631-8.728,4.364Z" transform="translate(-85.443 -126.515)" fill="#ffb573"/>
        <path id="Path_1756" data-name="Path 1756" d="M195.282,182.15s13.138,4.22,18.784,33.03a3.117,3.117,0,0,0,3.974,2.407l20-6.263,2.615,7.312s-19.988,14.2-29.327,12.122S195.282,182.15,195.282,182.15Z" transform="translate(-136.665 -128.343)" fill="#407bff"/>
        <path id="Path_1757" data-name="Path 1757" d="M235.4,205.419a41.3,41.3,0,0,1,.582,10.491,106.571,106.571,0,0,0-.251,14.951c-.209-.03-.42-.057-.62-.1-9.34-2.076-16.042-48.61-16.042-48.61S229.1,185.375,235.4,205.419Z" transform="translate(-160.453 -128.343)" opacity="0.1"/>
        <path id="Path_1758" data-name="Path 1758" d="M226.712,163.273c.839-2.9-.025-5.881,2.145-8.579a8.87,8.87,0,0,0,1.77-5.11c.552-9.548,12.264-12.537,20.847-12.584,9.472-.05,5.731,3.852,13.725,5.736s3.643,11.742,1.478,14.558-.179,7.681,4.259,15.184c0,0,4.79,8.826-20.057,4.869C250.879,177.347,220.41,185.047,226.712,163.273Z" transform="translate(-203.754 -137)" fill="#263238"/>
        <path id="Path_1759" data-name="Path 1759" d="M237.812,165.7c1.621,5.646,3.636,16.074-.062,20.246,0,0,5.39,3.886,15.541,7.447,5.935-5.82,2.457-8.086,2.457-8.086-6.534-1.027-6.914-6.63-6.234-11.176Z" transform="translate(-203.386 -131.497)" fill="#ffb573"/>
        <path id="Path_1760" data-name="Path 1760" d="M243.934,171.337a11.446,11.446,0,0,1,.01-3.133l7.556,5.444a20.734,20.734,0,0,0-.237,2.758C248.505,176.122,244.443,174.084,243.934,171.337Z" transform="translate(-205.37 -131.017)" opacity="0.2" style="isolation: isolate"/>
        <path id="Path_1761" data-name="Path 1761" d="M232.341,159.916c2.586,9.294,3.475,13.284,9.259,17.1,8.7,5.749,19.549.548,19.8-9.332.224-8.892-4.034-22.589-14.045-24.378a13.156,13.156,0,0,0-15.013,16.608Z" transform="translate(-200.964 -135.832)" fill="#ffb573"/>
        <path id="Path_1762" data-name="Path 1762" d="M251.1,164.636a7.026,7.026,0,0,0,4.194,3.376c2.379.675,3.578-1.447,2.927-3.7-.584-2.019-2.528-4.813-4.923-4.5a3.185,3.185,0,0,0-2.2,4.823Z" transform="translate(-220.369 -132.63)" fill="#ffb573"/>
        <path id="Path_1763" data-name="Path 1763" d="M231.628,141.683c-1.623,2.894,2.622,8.137,11.362,7.492,6.587-.484,14.967,6.47,14.18-1.175C256.5,141.044,239.875,137.967,231.628,141.683Z" transform="translate(-196.145 -136.407)" fill="#263238"/>
        <path id="Path_1764" data-name="Path 1764" d="M261.243,143.263c4.619,3.423,1.682,9.851-.472,12.752s-5.5,5.639-2.81,9.845,3.771,9.456-4.627,7.537-7.34-9.475-5.008-15.957S255.743,139.2,261.243,143.263Z" transform="translate(-220.939 -135.959)" fill="#263238"/>
        <path id="Path_1765" data-name="Path 1765" d="M235.022,156.832a20.864,20.864,0,0,0,3.773,4.318,3.355,3.355,0,0,1-2.617,1.1Z" transform="translate(-182.168 -133.197)" fill="#ed893e"/>
        <path id="Path_1766" data-name="Path 1766" d="M244.826,154.763a.433.433,0,0,1-.192-.05.382.382,0,0,1-.139-.522l0-.007a4.471,4.471,0,0,1,3.427-2.293.391.391,0,0,1,.4.365.383.383,0,0,1-.355.4,3.744,3.744,0,0,0-2.816,1.922A.381.381,0,0,1,244.826,154.763Z" transform="translate(-202.926 -134.144)" fill="#263238"/>
        <path id="Path_1767" data-name="Path 1767" d="M237.534,151.717a.45.45,0,0,1-.192-.05,3.738,3.738,0,0,0-3.39-.172.38.38,0,0,1-.52-.147l0,0a.392.392,0,0,1,.162-.523,4.508,4.508,0,0,1,4.122.169.383.383,0,0,1-.18.726Z" transform="translate(-179.352 -134.43)" fill="#263238"/>
        <g id="Group_698" data-name="Group 698" transform="translate(47.125 19.266)">
          <path id="Path_1768" data-name="Path 1768" d="M241.44,156.994c.161.762.7,1.3,1.208,1.192s.773-.808.6-1.581-.7-1.3-1.2-1.192S241.279,156.22,241.44,156.994Z" transform="translate(-241.394 -152.738)" fill="#263238"/>
          <path id="Path_1769" data-name="Path 1769" d="M234.175,155.447c.161.762.7,1.3,1.2,1.192s.773-.808.613-1.581-.7-1.3-1.2-1.192S234,154.673,234.175,155.447Z" transform="translate(-225.46 -153.035)" fill="#263238"/>
          <path id="Path_1770" data-name="Path 1770" d="M233.9,154.085l1.728-.919S234.98,154.8,233.9,154.085Z" transform="translate(-224.78 -153.166)" fill="#263238"/>
          <path id="Path_1771" data-name="Path 1771" d="M241.17,155.632l1.728-.919S242.253,156.348,241.17,155.632Z" transform="translate(-240.723 -152.869)" fill="#263238"/>
        </g>
        <path id="Path_1772" data-name="Path 1772" d="M259.5,181.011a3.052,3.052,0,0,1,2.536,1.045c2.959,3.45,11.034,14.823,11.034,36.211,0,17.066-.988,33.191-1.677,42.354a6.517,6.517,0,0,1-8.173,5.812l-18.781-4.986s7.421-18.661,5.7-38.466c-1.2-13.782-5.123-28.082-7.4-35.5a4.3,4.3,0,0,1,3.818-5.558Z" transform="translate(-225.416 -128.563)" fill="#407bff"/>
        <path id="Path_1773" data-name="Path 1773" d="M222.483,180.923a.823.823,0,0,0-.586,1.407c3.368,3.319,10.734,13.248,11.939,37.349,1.036,20.708,1.919,35.3,2.4,42.844a4.12,4.12,0,0,0,5.8,3.494l1.573-.705s-2.383-11.24-1.716-35.856,4.408-25.793-5.617-39.281c-.975-1.312-3.12-4.009-4.838-6.154a8.271,8.271,0,0,0-6.457-3.1Z" transform="translate(-171.05 -128.578)" fill="#407bff"/>
        <path id="Path_1774" data-name="Path 1774" d="M234.872,182.7l20.879-.545c1.435,5.62,3.674,16.918.617,23.668C256.368,205.826,244.958,193.135,234.872,182.7Z" transform="translate(-201.089 -128.341)" fill="#ffb573"/>
        <path id="Path_1775" data-name="Path 1775" d="M262.476,238.127l-14.49-2.269-.595,1.238a2.533,2.533,0,0,0,1.934,3.6l9.571,1.335a2.531,2.531,0,0,0,2.721-1.618Z" transform="translate(-220.291 -118.045)" fill="#407bff"/>
        <path id="Path_1776" data-name="Path 1776" d="M262.476,238.127l-14.49-2.269-.595,1.238a2.533,2.533,0,0,0,1.934,3.6l9.571,1.335a2.531,2.531,0,0,0,2.721-1.618Z" transform="translate(-220.291 -118.045)" opacity="0.2"/>
        <g id="Group_699" data-name="Group 699" transform="translate(68.197 120.082)">
          <path id="Path_1777" data-name="Path 1777" d="M224.438,237.762h-3.667l.3,2.437a3.28,3.28,0,0,0,3.779,2.84l1.334-.215Z" transform="translate(-220.771 -237.762)" fill="#407bff"/>
          <path id="Path_1778" data-name="Path 1778" d="M224.438,237.762h-3.667l.3,2.437a3.28,3.28,0,0,0,3.779,2.84l1.334-.215Z" transform="translate(-220.771 -237.762)" opacity="0.2"/>
        </g>
        <path id="Path_1779" data-name="Path 1779" d="M266.159,233.08l3.433,7.681,7.1,5.071a2.73,2.73,0,0,1,1.052,2.925h0a2.732,2.732,0,0,1-1.435,1.747l-3.843,1.888a2.73,2.73,0,0,1-3.476-.937l-2.664-4a5.672,5.672,0,0,1-.866-2.158l-.352-1.972-4.772-7.8Z" transform="translate(-251.385 -118.578)" fill="#ffb573"/>
        <path id="Path_1780" data-name="Path 1780" d="M263.047,189.42l3.383,1.571s3.723,9.816-1.138,22.861a190.033,190.033,0,0,0-4.849-22.308Z" transform="translate(-241.462 -126.949)" opacity="0.1"/>
        <path id="Path_1781" data-name="Path 1781" d="M253.548,194.213c-5.962-1.91-9.7.486-9.7.486-2.431-7.122-.767-10.444-.371-13.543l2.07-.145a3.052,3.052,0,0,1,2.536,1.045c2.959,3.45,11.034,14.823,11.034,36.211,0,5.425-.1,10.752-.259,15.794-2.946-23.317-10.474-32.029-10.474-32.029A10.385,10.385,0,0,1,253.548,194.213Z" transform="translate(-211.459 -128.563)" fill="#407bff"/>
        <path id="Path_1782" data-name="Path 1782" d="M228.918,180.923h1.91c3.406,1.977,8.054,5.427,9.442,10.126a3.464,3.464,0,0,0-4.169.872,15.234,15.234,0,0,1,6.264,5.936s.287,15.678-1.748,28.627c-.113-2.192-.229-4.454-.347-6.8-1.2-24.1-8.571-34.03-11.94-37.349A.824.824,0,0,1,228.918,180.923Z" transform="translate(-177.484 -128.578)" fill="#407bff"/>
        <path id="Path_1783" data-name="Path 1783" d="M253.548,194.213c-5.962-1.91-9.7.486-9.7.486-2.431-7.122-.767-10.444-.371-13.543l2.07-.145a3.052,3.052,0,0,1,2.536,1.045c2.959,3.45,11.034,14.823,11.034,36.211,0,5.425-.1,10.752-.259,15.794-2.946-23.317-10.474-32.029-10.474-32.029A10.385,10.385,0,0,1,253.548,194.213Z" transform="translate(-211.459 -128.563)" opacity="0.2"/>
        <path id="Path_1784" data-name="Path 1784" d="M228.918,180.923h1.91c3.406,1.977,8.054,5.427,9.442,10.126a3.464,3.464,0,0,0-4.169.872,15.234,15.234,0,0,1,6.264,5.936s.287,15.678-1.748,28.627c-.113-2.192-.229-4.454-.347-6.8-1.2-24.1-8.571-34.03-11.94-37.349A.824.824,0,0,1,228.918,180.923Z" transform="translate(-177.484 -128.578)" opacity="0.2"/>
        <path id="Path_1785" data-name="Path 1785" d="M280.427,182.5s-4.413.22-12.269,17.5-11,29.247,4.015,49.19l6.546-3.1S272,230.2,272.349,222.171s7.8-16.029,11.546-21.129C286.483,197.517,289.555,191.529,280.427,182.5Z" transform="translate(-261.587 -128.276)" fill="#407bff"/>
        <path id="Path_1786" data-name="Path 1786" d="M248.9,274.083c-2.592,39.2-.131,57,1.688,64.346q-4.238-.175-9.211-.564c.863-22.728,5.394-52.87,7.131-63.783Z" transform="translate(-201.535 -110.716)" opacity="0.4"/>
        <path id="Path_1787" data-name="Path 1787" d="M242.16,165.268a6.566,6.566,0,0,0,1.2-.1.211.211,0,0,0,.173-.241l0-.007a.21.21,0,0,0-.238-.172,5.717,5.717,0,0,1-4.948-1.382.213.213,0,0,0-.315.286A5.927,5.927,0,0,0,242.16,165.268Z" transform="translate(-190.433 -131.959)" fill="#263238"/>
      </g>
    </g>
  </g>
</svg>
