<svg xmlns="http://www.w3.org/2000/svg" xmlns:xlink="http://www.w3.org/1999/xlink" width="85.877" height="85.833" viewBox="0 0 85.877 85.833">
  <defs>
    <linearGradient id="linear-gradient" x1="-0.415" x2="2.188" y2="2.573" gradientUnits="objectBoundingBox">
      <stop offset="0" stop-color="#3a6bea"/>
      <stop offset="1" stop-color="#219ebc"/>
    </linearGradient>
  </defs>
  <g id="team" transform="translate(0 -0.132)">
    <path id="Path_890" data-name="Path 890" d="M167.317,42.952c7.317,0,12.627-3.607,15.356-10.43,2.094-5.237,2.376-11.414,2.376-16.766,0-9.783-6.629-15.623-17.732-15.623s-17.732,5.84-17.732,15.623c0,5.352.282,11.53,2.376,16.766,2.729,6.823,8.038,10.43,15.356,10.43Z" transform="translate(-124.495)" fill="url(#linear-gradient)"/>
    <path id="Path_891" data-name="Path 891" d="M114.435,282.981H101.172a23.059,23.059,0,0,0-23.033,23.033v1.574a13.8,13.8,0,0,0,13.784,13.784h31.762a13.8,13.8,0,0,0,13.784-13.784v-1.574a23.059,23.059,0,0,0-23.033-23.033Z" transform="translate(-65.033 -235.407)" fill="url(#linear-gradient)"/>
    <path id="Path_892" data-name="Path 892" d="M359.2,65.843c0,8.924-.889,18.709-6.815,25.533a13.486,13.486,0,0,0,4.956.877,11.747,11.747,0,0,0,11.63-7.9c1.537-3.843,1.744-8.323,1.744-12.2,0-6.8-4.317-11.412-12.136-11.841A24,24,0,0,1,359.2,65.843Z" transform="translate(-293.283 -50.088)" fill="url(#linear-gradient)"/>
    <path id="Path_893" data-name="Path 893" d="M64.131,92.35a13.624,13.624,0,0,0,4.727-.787c-6-6.833-6.892-16.708-6.892-25.623a24,24,0,0,1,.617-5.51c-7.21.5-11.826,4.727-11.826,11.822,0,3.876.207,8.357,1.744,12.2A11.747,11.747,0,0,0,64.131,92.35Z" transform="translate(-42.244 -50.184)" fill="url(#linear-gradient)"/>
    <path id="Path_894" data-name="Path 894" d="M7.739,299.328a28.41,28.41,0,0,1,13.85-24.38H17.14A17.16,17.16,0,0,0,0,292.088v1.118a10.588,10.588,0,0,0,7.907,10.229A27.244,27.244,0,0,1,7.739,299.328Z" transform="translate(0 -228.722)" fill="url(#linear-gradient)"/>
    <path id="Path_895" data-name="Path 895" d="M386.085,274.948H381.3a28.413,28.413,0,0,1,13.847,24.38,26.9,26.9,0,0,1-.179,4.189,10.585,10.585,0,0,0,8.254-10.311v-1.118A17.16,17.16,0,0,0,386.085,274.948Z" transform="translate(-317.348 -228.722)" fill="url(#linear-gradient)"/>
  </g>
</svg>
