<svg xmlns="http://www.w3.org/2000/svg" width="489.963" height="279.607" viewBox="0 0 489.963 279.607">
  <g id="Sign-up-as-Personal" transform="translate(-25.254 -186.393)">
    <g id="Background_Complete" data-name="Background Complete">
      <g id="Group_498" data-name="Group 498" transform="translate(166.884 293.177)">
        <path id="Path_1318" data-name="Path 1318" d="M86.981,383.841H372.607l2.351-8.078H84.63Z" transform="translate(-68.827 -263.635)" fill="#e0e0e0"/>
        <g id="Group_497" data-name="Group 497">
          <g id="Group_492" data-name="Group 492">
            <rect id="Rectangle_314" data-name="Rectangle 314" width="155.535" height="53.688" transform="translate(163.683 2.406)" fill="#ebebeb"/>
            <rect id="Rectangle_315" data-name="Rectangle 315" width="155.535" height="53.688" transform="translate(163.683 56.094)" fill="#ebebeb"/>
            <rect id="Rectangle_316" data-name="Rectangle 316" width="5.432" height="155.535" transform="translate(319.219 5.231) rotate(90)" fill="#e0e0e0"/>
            <rect id="Rectangle_317" data-name="Rectangle 317" width="5.432" height="155.535" transform="translate(319.219 58.5) rotate(90)" fill="#e0e0e0"/>
            <path id="Path_1319" data-name="Path 1319" d="M233.112,287.177V399.305H72.145V287.177ZM77.576,393.874h150.1V346.109H77.576Zm0-53.2h150.1V292.915H77.576Z" transform="translate(88.822 -287.177)" fill="#f5f5f5"/>
            <g id="Group_491" data-name="Group 491">
              <rect id="Rectangle_318" data-name="Rectangle 318" width="155.535" height="53.688" transform="translate(2.716 2.406)" fill="#ebebeb"/>
              <rect id="Rectangle_319" data-name="Rectangle 319" width="155.535" height="53.688" transform="translate(2.716 56.094)" fill="#ebebeb"/>
              <rect id="Rectangle_320" data-name="Rectangle 320" width="5.432" height="155.535" transform="translate(158.252 5.231) rotate(90)" fill="#e0e0e0"/>
              <rect id="Rectangle_321" data-name="Rectangle 321" width="5.432" height="155.535" transform="translate(158.252 58.5) rotate(90)" fill="#e0e0e0"/>
              <path id="Path_1320" data-name="Path 1320" d="M360.283,287.177V399.305H199.316V287.177Zm-155.535,106.7h150.1V346.109h-150.1Zm0-53.2h150.1V292.915h-150.1Z" transform="translate(-199.316 -287.177)" fill="#f5f5f5"/>
            </g>
          </g>
          <g id="Group_493" data-name="Group 493" transform="translate(75.815 28.297)">
            <path id="Path_1321" data-name="Path 1321" d="M259.212,315.245a4.669,4.669,0,1,0,4.669-4.671A4.668,4.668,0,0,0,259.212,315.245Z" transform="translate(-259.212 -309.256)" fill="#e0e0e0"/>
            <path id="Path_1322" data-name="Path 1322" d="M259.212,314.2a4.669,4.669,0,1,0,4.669-4.671A4.669,4.669,0,0,0,259.212,314.2Z" transform="translate(-259.212 -309.533)" fill="#fafafa"/>
          </g>
          <g id="Group_494" data-name="Group 494" transform="translate(75.815 77.61)">
            <path id="Path_1323" data-name="Path 1323" d="M259.212,354.2a4.669,4.669,0,1,0,4.669-4.669A4.668,4.668,0,0,0,259.212,354.2Z" transform="translate(-259.212 -348.215)" fill="#e0e0e0"/>
            <path id="Path_1324" data-name="Path 1324" d="M259.212,353.161a4.669,4.669,0,1,0,4.669-4.669A4.668,4.668,0,0,0,259.212,353.161Z" transform="translate(-259.212 -348.492)" fill="#fafafa"/>
          </g>
          <g id="Group_495" data-name="Group 495" transform="translate(236.782 28.297)">
            <path id="Path_1325" data-name="Path 1325" d="M132.041,315.245a4.669,4.669,0,1,0,4.669-4.671A4.668,4.668,0,0,0,132.041,315.245Z" transform="translate(-132.041 -309.256)" fill="#e0e0e0"/>
            <path id="Path_1326" data-name="Path 1326" d="M132.041,314.2a4.669,4.669,0,1,0,4.669-4.671A4.669,4.669,0,0,0,132.041,314.2Z" transform="translate(-132.041 -309.533)" fill="#fafafa"/>
          </g>
          <g id="Group_496" data-name="Group 496" transform="translate(236.782 77.61)">
            <path id="Path_1327" data-name="Path 1327" d="M132.041,354.2a4.669,4.669,0,1,0,4.669-4.669A4.668,4.668,0,0,0,132.041,354.2Z" transform="translate(-132.041 -348.215)" fill="#e0e0e0"/>
            <path id="Path_1328" data-name="Path 1328" d="M132.041,353.161a4.669,4.669,0,1,0,4.669-4.669A4.668,4.668,0,0,0,132.041,353.161Z" transform="translate(-132.041 -348.492)" fill="#fafafa"/>
          </g>
        </g>
      </g>
      <g id="Group_502" data-name="Group 502" transform="translate(42.624 245.471)">
        <g id="Group_499" data-name="Group 499" transform="translate(43.558 20.631)">
          <path id="Path_1329" data-name="Path 1329" d="M394.834,275.025c-2.806-3.129-6.852-6.536-11.108-7.214-13.054-2.078-11.6,24.7-11.47,31.548a.95.95,0,0,1-1.9,0c-.148-8.077-1.583-33.407,11.947-33.572,5.287-.063,10.508,4.144,13.871,7.895.814.908-.524,2.254-1.342,1.343Z" transform="translate(-370.244 -265.786)" fill="#e0e0e0"/>
        </g>
        <g id="Group_500" data-name="Group 500" transform="translate(26.358 13.393)">
          <path id="Path_1330" data-name="Path 1330" d="M394.623,260.082c2.695.424,4.815,3.562,6.06,5.665,6,10.125,6.4,23.762,6.783,35.131.042,1.221-1.858,1.22-1.9,0-.367-10.9-.711-23.7-6.16-33.527-1.04-1.876-2.856-5.055-5.29-5.439-1.2-.19-.692-2.019.505-1.83Z" transform="translate(-393.432 -260.068)" fill="#e0e0e0"/>
        </g>
        <path id="Path_1331" data-name="Path 1331" d="M372.6,274.493s11.758-19.433,20.386-1.915a29.854,29.854,0,0,1,2.7,8.8c-3.61-1.585-11.307-4.5-11.413-.544-.086,3.182,4.411,8.425,7.878,11.982a7.9,7.9,0,0,1,1.933,7.635,61.073,61.073,0,0,1-4.564,11.709s-2.586-.981-6.383-2.788a8.335,8.335,0,0,1-4.595-5.983c-.537-2.853-1.456-5.877-2.992-6.773s-2.769.781-3.612,2.719a2.7,2.7,0,0,1-4.069,1.137,61.119,61.119,0,0,1-5.435-4.4,2.675,2.675,0,0,1-.311-3.611c1.871-2.391,3.611-5.24,2.9-6.884-.685-1.577-3.878-1.606-6.953-1.227a4.63,4.63,0,0,1-5.166-4.058l-.006-.048C350.7,261.354,372.6,274.493,372.6,274.493Z" transform="translate(-303.778 -245.296)" fill="#ebebeb"/>
        <path id="Path_1332" data-name="Path 1332" d="M414.5,258.722s-11.758-19.434-20.386-1.916a29.864,29.864,0,0,0-2.7,8.8c3.61-1.585,11.306-4.5,11.413-.543.086,3.181-4.411,8.424-7.878,11.982a7.9,7.9,0,0,0-1.934,7.635,61.123,61.123,0,0,0,4.566,11.71s2.586-.981,6.382-2.79a8.327,8.327,0,0,0,4.595-5.982c.538-2.854,1.456-5.877,2.992-6.773s2.771.78,3.614,2.718a2.7,2.7,0,0,0,4.069,1.138,61.549,61.549,0,0,0,5.434-4.4,2.674,2.674,0,0,0,.313-3.611c-1.871-2.392-3.612-5.241-2.9-6.886.686-1.577,3.878-1.6,6.954-1.225a4.632,4.632,0,0,0,5.166-4.058l.006-.049C436.4,245.583,414.5,258.722,414.5,258.722Z" transform="translate(-391.414 -249.487)" fill="#e6e6e6"/>
        <g id="Group_501" data-name="Group 501" transform="translate(1.27 52.32)">
          <path id="Path_1333" data-name="Path 1333" d="M389.605,373.819c0,8.558-1.342,14.092-3.6,17.642a9.342,9.342,0,0,1-7.922,4.174H365.691a9.342,9.342,0,0,1-7.922-4.174c-2.262-3.55-3.6-9.084-3.6-17.642,0-12.411,5.411-22.347,7.179-30.281.635-2.857-1.483-11.613-1.483-11.613h24.049s-2.119,8.757-1.482,11.613C384.2,351.472,389.605,361.408,389.605,373.819Z" transform="translate(-300.778 -279.899)" fill="#e6e6e6"/>
          <path id="Path_1334" data-name="Path 1334" d="M429.053,334.513c0-10.775-16.893-6.3-21.151-23.019-1.613-6.335,12.127-20.672,12.127-20.672H377.189s13.74,14.337,12.126,20.672c-4.257,16.717-21.151,12.244-21.151,23.019,0,11.868,23.83,36.585,24.98,64.4.1,2.487-4.482,7.641-4.482,7.641h19.9s-4.585-5.154-4.482-7.641C405.224,371.1,429.053,346.381,429.053,334.513Z" transform="translate(-357.947 -290.822)" fill="#f0f0f0"/>
          <path id="Path_1335" data-name="Path 1335" d="M410.536,352.3c2.491-5.238-2.658-23.043-2.658-23.043h18.564s-5.148,17.805-2.658,23.043c1.758,3.7,5.757,6.058,5.757,10.432v26.292c0,6.809-5.571,7.317-12.38,7.317s-12.38-.509-12.38-7.317V362.734C404.779,358.36,408.779,356,410.536,352.3Z" transform="translate(-404.779 -280.607)" fill="#e6e6e6"/>
        </g>
        <path id="Path_1336" data-name="Path 1336" d="M401.975,287.978s-12.2-9.2-14.369,3.648a18.107,18.107,0,0,0,.028,6.064c2.134-1.833,6.783-5.452,7.7-3.039.738,1.942-1.223,6.24-2.838,9.255a4.8,4.8,0,0,0,.305,5.166,37.66,37.66,0,0,0,5.622,6.14s1.562-1.218,3.776-3.233a5.551,5.551,0,0,0,1.871-4.777c-.242-1.887-.257-3.969.6-4.886s2.063-.175,3.054.82a2.063,2.063,0,0,0,3.029-.262,44.019,44.019,0,0,0,2.783-4,1.623,1.623,0,0,0-.556-2.3c-1.792-1.032-3.592-2.376-3.453-3.559.133-1.135,2.314-1.909,4.5-2.4a3.3,3.3,0,0,0,2.672-3.725l-.006-.032C414.167,274.689,401.975,287.978,401.975,287.978Z" transform="translate(-368.687 -240.92)" fill="#e0e0e0"/>
      </g>
    </g>
    <g id="Shadow" transform="translate(25.254 437.335)">
      <ellipse id="_Path_" data-name="&lt;Path&gt;" cx="244.982" cy="14.333" rx="244.982" ry="14.333" fill="#f5f5f5"/>
    </g>
    <g id="Character_2" data-name="Character 2" transform="translate(136.911 186.393)">
      <g id="Group_553" data-name="Group 553" transform="translate(0 76.202)">
        <g id="Group_549" data-name="Group 549" transform="translate(36.765 84.589)">
          <g id="Group_547" data-name="Group 547" transform="translate(30.848)">
            <path id="Path_1441" data-name="Path 1441" d="M294.788,429.7h0a3.124,3.124,0,0,0,3.11-2.829l.994-10.432V329.844h-8.208v86.593l.994,10.432A3.125,3.125,0,0,0,294.788,429.7Z" transform="translate(-290.683 -329.844)" fill="#263238"/>
            <path id="Path_1442" data-name="Path 1442" d="M294.788,429.7h0a3.124,3.124,0,0,0,3.11-2.829l.994-10.432V329.844h-8.208v86.593l.994,10.432A3.125,3.125,0,0,0,294.788,429.7Z" transform="translate(-290.683 -329.844)" fill="#fff" opacity="0.3"/>
            <rect id="Rectangle_349" data-name="Rectangle 349" width="8.209" height="10.084" transform="translate(0 9.774)" opacity="0.1"/>
          </g>
          <g id="Group_548" data-name="Group 548" transform="translate(0 82.489)">
            <path id="Path_1443" data-name="Path 1443" d="M294.249,400.571v-3.254a2.3,2.3,0,0,1,2.3-2.3h9.426a2.3,2.3,0,0,1,2.3,2.3v3.254l23.175,6.371a6.479,6.479,0,0,1,4.762,6.246h-69.9a6.479,6.479,0,0,1,4.762-6.246Z" transform="translate(-266.312 -395.014)" fill="#263238"/>
            <path id="Path_1444" data-name="Path 1444" d="M294.249,400.571v-3.254a2.3,2.3,0,0,1,2.3-2.3h9.426a2.3,2.3,0,0,1,2.3,2.3v3.254l23.175,6.371a6.479,6.479,0,0,1,4.762,6.246h-69.9a6.479,6.479,0,0,1,4.762-6.246Z" transform="translate(-266.312 -395.014)" fill="#fff" opacity="0.2"/>
            <path id="Path_1445" data-name="Path 1445" d="M288.383,400.068V396.9a2.283,2.283,0,0,1,.033-.324h13.965a2.283,2.283,0,0,1,.033.324v3.167Z" transform="translate(-260.447 -394.599)" opacity="0.1"/>
          </g>
        </g>
        <path id="Path_1446" data-name="Path 1446" d="M329.214,263.034c15.443.547,28.792,13.659,30.41,29.053l5.763,54.836a8,8,0,0,1-8.106,9.058H310.7a10.309,10.309,0,0,1-10.011-9.058l-5.835-55.517c-1.683-16.023,10.232-28.947,26.444-28.372Z" transform="translate(-294.699 -263.015)" fill="#263238"/>
        <path id="Path_1447" data-name="Path 1447" d="M329.214,263.034c15.443.547,28.792,13.659,30.41,29.053l5.763,54.836a8,8,0,0,1-8.106,9.058H310.7a10.309,10.309,0,0,1-10.011-9.058l-5.835-55.517c-1.683-16.023,10.232-28.947,26.444-28.372Z" transform="translate(-294.699 -263.015)" fill="#fff" opacity="0.2"/>
        <path id="Path_1448" data-name="Path 1448" d="M294.857,291.406c-1.683-16.023,10.232-28.947,26.444-28.372,15.443.547,28.792,13.659,30.41,29.053l5.763,54.836a8,8,0,0,1-8.106,9.058H310.7a10.309,10.309,0,0,1-10.011-9.058Z" transform="translate(-286.787 -263.015)" fill="#263238"/>
        <g id="Group_552" data-name="Group 552" transform="translate(16.892 79.769)">
          <path id="Path_1449" data-name="Path 1449" d="M359.172,330.409a118.641,118.641,0,0,0-28.4-4.242c-9.862-.268-46.777-.041-55.544-.044a118.781,118.781,0,0,0-31.695,4.286c-6.508,1.8-4.5,11.985,1.376,12.1.519.01,112.11-.027,112.521-.006C363.581,342.808,365.824,332.248,359.172,330.409Z" transform="translate(-239.492 -326.037)" fill="#263238"/>
          <g id="Group_550" data-name="Group 550" transform="translate(0 0.078)">
            <path id="Path_1450" data-name="Path 1450" d="M287.834,342.278a107.663,107.663,0,0,1,57.346,0c7.092,1.961,10.117-9.924,3.023-11.885a119.1,119.1,0,0,0-63.39,0c-7.083,1.958-4.081,13.85,3.021,11.885Z" transform="translate(-280.77 -326.098)" fill="#263238"/>
          </g>
          <g id="Group_551" data-name="Group 551" transform="translate(0 0.078)" opacity="0.2">
            <path id="Path_1451" data-name="Path 1451" d="M287.834,342.278a107.663,107.663,0,0,1,57.346,0c7.092,1.961,10.117-9.924,3.023-11.885a119.1,119.1,0,0,0-63.39,0c-7.083,1.958-4.081,13.85,3.021,11.885Z" transform="translate(-280.77 -326.098)" fill="#fff"/>
          </g>
        </g>
      </g>
      <g id="Group_562" data-name="Group 562" transform="translate(39.99)">
        <path id="Path_1452" data-name="Path 1452" d="M220.1,362.1,228,385.152l6.63-1.894-5.367-24.311Z" transform="translate(-109.461 -161.32)" fill="#b97964"/>
        <g id="Group_554" data-name="Group 554" transform="translate(116.311 220.031)">
          <path id="Path_1453" data-name="Path 1453" d="M216.1,376.783l-8.153,2.461a.785.785,0,0,0-.586.785l.3,8.106A1.3,1.3,0,0,0,209,389.4a1.328,1.328,0,0,0,.273-.037c3.38-.945,6.349-1.92,10.577-3.019,4.987-1.3,3.878-.373,9.763-1.823,3.544-.876,3.143-5.06,1.592-4.867-7.081.928-9.6-.956-12.882-2.719A3.141,3.141,0,0,0,216.1,376.783Z" transform="translate(-207.361 -376.647)" fill="#263238"/>
        </g>
        <path id="Path_1454" data-name="Path 1454" d="M226.258,374.67l7.878-2.02-3.025-13.7-9.156,3.157Z" transform="translate(-111.311 -161.32)" opacity="0.1"/>
        <g id="Group_555" data-name="Group 555" transform="translate(109.223 202.047)">
          <path id="Path_1455" data-name="Path 1455" d="M220.977,367.332l2.21,4.262,12.629-4.262v-4.894Z" transform="translate(-220.977 -362.439)" fill="#3a6bea"/>
          <path id="Path_1456" data-name="Path 1456" d="M220.977,367.332l2.21,4.262,12.629-4.262v-4.894Z" transform="translate(-220.977 -362.439)" fill="#fff" opacity="0.3"/>
        </g>
        <g id="Group_561" data-name="Group 561" transform="translate(0)">
          <path id="Path_1457" data-name="Path 1457" d="M266.351,383.764l-2.627,20.4,7.418.193,5.358-19.679Z" transform="translate(-206.543 -154.724)" fill="#b97964"/>
          <g id="Group_556" data-name="Group 556" transform="translate(53.691 248.498)">
            <path id="Path_1458" data-name="Path 1458" d="M267.244,399.14l-8.469.025a.785.785,0,0,0-.763.615l-1.738,7.922a1.3,1.3,0,0,0,.981,1.558,1.336,1.336,0,0,0,.275.033c3.509-.071,6.627-.271,11-.277,5.154-.011,3.848.609,9.908.678,3.65.039,4.309-4.112,2.759-4.314-7.088-.873-9.092-3.01-11.832-5.539A3.134,3.134,0,0,0,267.244,399.14Z" transform="translate(-256.241 -399.137)" fill="#263238"/>
          </g>
          <path id="Path_1459" data-name="Path 1459" d="M272.283,396.094l3.108-11.415-10.149-.915-1.519,11.793Z" transform="translate(-205.435 -154.724)" opacity="0.1"/>
          <path id="Path_1460" data-name="Path 1460" d="M280.89,287.017h11.985a66.609,66.609,0,0,1,3.788,16.691c.632,8.525-15.774,2.21-15.774,2.21l-1.433-11.683Z" transform="translate(-246.64 -180.435)" fill="#3a6bea"/>
          <path id="Path_1461" data-name="Path 1461" d="M280.89,287.017h11.985a66.609,66.609,0,0,1,3.788,16.691c.632,8.525-15.774,2.21-15.774,2.21l-1.433-11.683Z" transform="translate(-246.64 -180.435)" opacity="0.1"/>
          <path id="Path_1462" data-name="Path 1462" d="M292.395,287.017c-3.328,17.478,3.081,16.59,3.081,16.59l-3.631,2.526-6.588-1.616-1.261-10.282,1.433-7.219Z" transform="translate(-251.178 -180.435)" opacity="0.1"/>
          <path id="Path_1463" data-name="Path 1463" d="M232.7,286.152s-12.208,20.417-10.1,37.466,17.875,26.068,78.5-2.98c0,0,12.433,12.873,33.061,68.02l10.525-3.158s-11.893-63.746-22.523-81.879c-10.735-18.312-57.883,3.158-61.461-.42-3.186-3.186-.421-15.786-.421-15.786Z" transform="translate(-222.349 -180.665)" fill="#3a6bea"/>
          <path id="Path_1464" data-name="Path 1464" d="M243.913,318.456l3.315-2.563s11.685,6.325,5.868,24.334h0a210.688,210.688,0,0,0-10.316-19.288Z" transform="translate(-158.255 -172.761)" opacity="0.2"/>
          <path id="Path_1465" data-name="Path 1465" d="M244.778,330.164c11.016-2.638,25.281-7.934,43.714-16.766,0,0,14.223.191,15.17,10.768s-23.995,83.723-23.995,83.723l-11.525-1s6.788-72.933,8.367-76.722Z" transform="translate(-209.753 -173.424)" fill="#3a6bea"/>
          <path id="Path_1466" data-name="Path 1466" d="M244.778,330.164c11.016-2.638,25.281-7.934,43.714-16.766,0,0,14.223.191,15.17,10.768s-23.995,83.723-23.995,83.723l-11.525-1s6.788-72.933,8.367-76.722Z" transform="translate(-209.753 -173.424)" opacity="0.1"/>
          <path id="Path_1467" data-name="Path 1467" d="M296.647,313.4a24.171,24.171,0,0,1,4.874.7,102.328,102.328,0,0,1-25.708,16.067H252.933C263.949,327.526,278.214,322.23,296.647,313.4Z" transform="translate(-217.907 -173.424)" opacity="0.1"/>
          <g id="Group_557" data-name="Group 557" transform="translate(56.698 231.571)">
            <path id="Path_1468" data-name="Path 1468" d="M262.4,385.764l-.31,4.733,13.414,1.054,1.908-4.506Z" transform="translate(-262.093 -385.764)" fill="#3a6bea"/>
            <path id="Path_1469" data-name="Path 1469" d="M262.4,385.764l-.31,4.733,13.414,1.054,1.908-4.506Z" transform="translate(-262.093 -385.764)" fill="#fff" opacity="0.3"/>
          </g>
          <g id="Group_558" data-name="Group 558" transform="translate(45.177 50.943)">
            <path id="Path_1470" data-name="Path 1470" d="M253.747,270.04l13.544,7.6,9.06-.438a2.276,2.276,0,0,1,2.026,1.046l2.594,4.055a2.275,2.275,0,0,1,.26,1.891l-.062.2a2.274,2.274,0,0,1-2.71,1.544l-3.954-.958-7.857-1.5L247.419,275.1Z" transform="translate(-235.913 -235.89)" fill="#b97964"/>
            <path id="Path_1471" data-name="Path 1471" d="M287.6,277.635a9.222,9.222,0,0,0-5.921,7.179s-9.873-3.431-11.594-8.944-6.31-32.765,1.123-32.811S274.609,275.665,287.6,277.635Z" transform="translate(-267.105 -243.06)" fill="#263238"/>
            <path id="Path_1472" data-name="Path 1472" d="M287.6,277.635a9.222,9.222,0,0,0-5.921,7.179s-9.873-3.431-11.594-8.944-6.31-32.765,1.123-32.811S274.609,275.665,287.6,277.635Z" transform="translate(-267.105 -243.06)" fill="#fff" opacity="0.6"/>
            <path id="Path_1473" data-name="Path 1473" d="M276.107,271.19a25.618,25.618,0,0,0-5.773,8.641l-5.216-2.576s2.1-5.935,6.353-8.331Z" transform="translate(-253.093 -236.186)" fill="#263238"/>
            <path id="Path_1474" data-name="Path 1474" d="M276.107,271.19a25.618,25.618,0,0,0-5.773,8.641l-5.216-2.576s2.1-5.935,6.353-8.331Z" transform="translate(-253.093 -236.186)" fill="#fff" opacity="0.7"/>
          </g>
          <path id="Path_1475" data-name="Path 1475" d="M320.239,300.829a189.028,189.028,0,0,1-38.57-1.133,77.062,77.062,0,0,0,1.22-32.262c-3.142-17.686-19.781-28.182,21.525-27.461,5.979.1,23.7-.692,21.668,11.926C323.912,265.378,320.239,300.829,320.239,300.829Z" transform="translate(-273.006 -192.946)" fill="#263238"/>
          <path id="Path_1476" data-name="Path 1476" d="M320.239,300.829a189.028,189.028,0,0,1-38.57-1.133,77.062,77.062,0,0,0,1.22-32.262c-3.142-17.686-19.781-28.182,21.525-27.461,5.979.1,23.7-.692,21.668,11.926C323.912,265.378,320.239,300.829,320.239,300.829Z" transform="translate(-273.006 -192.946)" fill="#fff" opacity="0.5"/>
          <path id="Path_1477" data-name="Path 1477" d="M281,271.7l19.28,5.695,8.244-1.444a2.334,2.334,0,0,1,2.277.91l2.776,3.745a2.333,2.333,0,0,1,.4,1.919l-.028.123a2.335,2.335,0,0,1-2.667,1.771l-3.954-.676-7.941-.959-24.352-5.607Z" transform="translate(-258.388 -184.504)" fill="#b97964"/>
          <path id="Path_1478" data-name="Path 1478" d="M321.366,279.022a9.366,9.366,0,0,0-5.492,7.62s-10.167-2.238-12.261-7.62-8.722-35.492-1.311-36.046S308.267,277.946,321.366,279.022Z" transform="translate(-295.911 -192.141)" fill="#263238"/>
          <path id="Path_1479" data-name="Path 1479" d="M321.366,279.022a9.366,9.366,0,0,0-5.492,7.62s-10.167-2.238-12.261-7.62-8.722-35.492-1.311-36.046S308.267,277.946,321.366,279.022Z" transform="translate(-295.911 -192.141)" fill="#fff" opacity="0.6"/>
          <path id="Path_1480" data-name="Path 1480" d="M307.652,272.251a23.665,23.665,0,0,0-5.716,8.638l-5.323-1.513s2.176-6.387,6.258-9.069Z" transform="translate(-279.326 -184.876)" fill="#263238"/>
          <path id="Path_1481" data-name="Path 1481" d="M307.652,272.251a23.665,23.665,0,0,0-5.716,8.638l-5.323-1.513s2.176-6.387,6.258-9.069Z" transform="translate(-279.326 -184.876)" fill="#fff" opacity="0.7"/>
          <g id="Group_560" data-name="Group 560" transform="translate(8.644)">
            <path id="Path_1482" data-name="Path 1482" d="M313.816,212.969s5.769-11.534-3.077-10.02-3.607,24.458-11.753,27.587C298.987,230.537,308.4,232.879,313.816,212.969Z" transform="translate(-298.987 -202.813)" fill="#263238"/>
            <path id="Path_1483" data-name="Path 1483" d="M306.84,207.005a21.582,21.582,0,0,1-1.661,4.85,38.72,38.72,0,0,1-5.063,11.831c-1.328-4.2-1.862-11.044,2.066-14.971C303.7,207.2,305.274,207.61,306.84,207.005Z" transform="translate(-290.35 -201.699)" opacity="0.6"/>
            <path id="Path_1484" data-name="Path 1484" d="M304.186,209.153s-2.9-3.262-5.381.927,1.615,5.188,1.615,5.188Z" transform="translate(-286.266 -201.449)" fill="#3a6bea"/>
            <path id="Path_1485" data-name="Path 1485" d="M305.319,226.188s-1.306,4.73-4.681,1.486S303.367,227.83,305.319,226.188Z" transform="translate(-289.468 -196.601)" fill="#263238"/>
            <path id="Path_1486" data-name="Path 1486" d="M297.754,239.763s8.27-2.852,11.8,4.176l-3.269,1.289,1.794,2.2-6.749,4.895L289.8,248.378l.635-1.629-5.548-1.511S283.441,237.144,297.754,239.763Z" transform="translate(-274.978 -193.145)" fill="#263238"/>
            <path id="Path_1487" data-name="Path 1487" d="M297.754,239.763s8.27-2.852,11.8,4.176l-3.269,1.289,1.794,2.2-6.749,4.895L289.8,248.378l.635-1.629-5.548-1.511S283.441,237.144,297.754,239.763Z" transform="translate(-274.978 -193.145)" fill="#fff" opacity="0.7"/>
            <path id="Path_1488" data-name="Path 1488" d="M297.859,240.21s13.784-3.025,4.1,10.7C301.959,250.915,274.4,239.927,297.859,240.21Z" transform="translate(-275.328 -192.949)" fill="#b97964"/>
            <path id="Path_1489" data-name="Path 1489" d="M292.909,227.656l9.373,9.21c-.833,4.01.335,6.083,1.616,7.157v2.983a13.874,13.874,0,0,1-4.878.435c-6.8-.363-9.015-1.083-9.015-1.083C294.09,243.089,293.507,233.137,292.909,227.656Z" transform="translate(-275.851 -196.211)" fill="#b97964"/>
            <path id="Path_1490" data-name="Path 1490" d="M300.38,240.918a9.928,9.928,0,0,1,.085-4.261l-8.362-8.216-.821.952S292.964,239.858,300.38,240.918Z" transform="translate(-274.035 -196.002)" opacity="0.1"/>
            <path id="Path_1491" data-name="Path 1491" d="M279.84,220.452c-.684,9.027-1.172,12.832,2.713,18.047,5.844,7.85,17.076,6.721,20.449-1.916,3.035-7.776,3.65-21.222-4.612-25.995a12.346,12.346,0,0,0-18.55,9.864Z" transform="translate(-263.565 -201.195)" fill="#b97964"/>
            <path id="Path_1492" data-name="Path 1492" d="M283.92,225.236a19.648,19.648,0,0,0,1.952,5.014,3.153,3.153,0,0,1-2.661.138Z" transform="translate(-249.226 -196.854)" fill="#a24e3f"/>
            <path id="Path_1493" data-name="Path 1493" d="M287.3,220.72a.391.391,0,0,1-.153-.105.358.358,0,0,1,.043-.505l.005-.005a4.194,4.194,0,0,1,3.755-.93.367.367,0,0,1,.235.449.36.36,0,0,1-.44.239,3.515,3.515,0,0,0-3.1.8A.355.355,0,0,1,287.3,220.72Z" transform="translate(-259.439 -198.496)" fill="#2e353a"/>
            <path id="Path_1494" data-name="Path 1494" d="M282.729,221.786a.4.4,0,0,1-.153-.105,3.508,3.508,0,0,0-2.938-1.233.357.357,0,0,1-.411-.295v-.005a.37.37,0,0,1,.31-.41,4.235,4.235,0,0,1,3.583,1.466.359.359,0,0,1-.39.582Z" transform="translate(-241.525 -198.319)" fill="#2e353a"/>
            <g id="Group_559" data-name="Group 559" transform="translate(29.697 25.019)">
              <path id="Path_1495" data-name="Path 1495" d="M287.331,223.977c-.1.723.2,1.366.686,1.437s.94-.466,1.035-1.2-.2-1.367-.676-1.434S287.437,223.243,287.331,223.977Z" transform="translate(-287.312 -222.528)" fill="#2e353a"/>
              <path id="Path_1496" data-name="Path 1496" d="M280.822,224.877c-.1.724.2,1.366.676,1.434s.94-.467,1.044-1.2-.2-1.366-.676-1.434S280.916,224.14,280.822,224.877Z" transform="translate(-272.563 -222.289)" fill="#2e353a"/>
              <path id="Path_1497" data-name="Path 1497" d="M280.085,223.738l1.818-.258S280.813,224.717,280.085,223.738Z" transform="translate(-270.996 -222.34)" fill="#2e353a"/>
              <path id="Path_1498" data-name="Path 1498" d="M286.594,222.838l1.816-.259S287.322,223.816,286.594,222.838Z" transform="translate(-285.743 -222.579)" fill="#2e353a"/>
            </g>
            <path id="Path_1499" data-name="Path 1499" d="M287,229.778a5.188,5.188,0,0,1-.372-.8.174.174,0,0,1,.092-.228h.005a.184.184,0,0,1,.227.111,4.764,4.764,0,0,0,3.1,2.964.176.176,0,0,1-.075.344A4.907,4.907,0,0,1,287,229.778Z" transform="translate(-257.858 -195.923)" fill="#263238"/>
            <path id="Path_1500" data-name="Path 1500" d="M284.664,231.456s4.939-2.688,5.249-10.136,11.629-8.956,18.594-4.595c0,0,2-6.567-5.293-7.153,0,0-10.664-7.8-19.39.927C276.122,218.2,284.664,231.456,284.664,231.456Z" transform="translate(-268.813 -201.869)" fill="#263238"/>
            <path id="Path_1501" data-name="Path 1501" d="M296.758,224.143a6.6,6.6,0,0,0,2.624,4.317c1.883,1.354,3.619-.134,3.763-2.329.129-1.968-.694-5.055-2.907-5.543a2.989,2.989,0,0,0-3.48,3.554Z" transform="translate(-283.577 -198.103)" fill="#b97964"/>
            <path id="Path_1502" data-name="Path 1502" d="M277.683,214.055s2.219,4.958,4.081,0S279.537,215.172,277.683,214.055Z" transform="translate(-238.595 -200.35)" fill="#263238"/>
          </g>
        </g>
      </g>
    </g>
    <g id="Device" transform="translate(216.958 248.166)">
      <g id="Group_563" data-name="Group 563">
        <path id="Path_1503" data-name="Path 1503" d="M235.089,281.012h64.669a1.9,1.9,0,0,1,0,3.8H235.089a1.9,1.9,0,1,1,0-3.8Z" transform="translate(-233.189 -243.487)" fill="#3a6bea"/>
        <path id="Path_1504" data-name="Path 1504" d="M235.089,281.012h64.669a1.9,1.9,0,0,1,0,3.8H235.089a1.9,1.9,0,1,1,0-3.8Z" transform="translate(-233.189 -243.487)" fill="#fff" opacity="0.3"/>
        <path id="Path_1505" data-name="Path 1505" d="M293.906,284.812a1.9,1.9,0,0,0,0-3.8h-36.8a1.9,1.9,0,1,0,0,3.8Z" transform="translate(-255.206 -243.487)" fill="#fff" opacity="0.2"/>
        <path id="Path_1506" data-name="Path 1506" d="M247.935,291.528H224.156a.9.9,0,0,1-.849-1.2l13.04-37.252a2.559,2.559,0,0,1,2.415-1.714h23.78a.9.9,0,0,1,.849,1.2L250.35,289.816A2.557,2.557,0,0,1,247.935,291.528Z" transform="translate(-182.4 -251.366)" fill="#3a6bea"/>
        <path id="Path_1507" data-name="Path 1507" d="M247.029,291.528H223.25a.9.9,0,0,1-.849-1.2l13.04-37.252a2.561,2.561,0,0,1,2.416-1.714h23.778a.9.9,0,0,1,.849,1.2l-13.04,37.252A2.558,2.558,0,0,1,247.029,291.528Z" transform="translate(-180.347 -251.366)" fill="#3a6bea"/>
        <path id="Path_1508" data-name="Path 1508" d="M247.029,291.528H223.25a.9.9,0,0,1-.849-1.2l13.04-37.252a2.561,2.561,0,0,1,2.416-1.714h23.778a.9.9,0,0,1,.849,1.2l-13.04,37.252A2.558,2.558,0,0,1,247.029,291.528Z" transform="translate(-180.347 -251.366)" fill="#fff" opacity="0.5"/>
        <path id="Path_1509" data-name="Path 1509" d="M240.03,267.774c-.3,1.428-1.291,2.585-2.2,2.585s-1.41-1.157-1.106-2.585,1.29-2.585,2.2-2.585S240.334,266.346,240.03,267.774Z" transform="translate(-176.006 -247.692)" fill="#fff"/>
      </g>
    </g>
    <g id="Plant" transform="translate(313.345 229.054)">
      <g id="Group_570" data-name="Group 570">
        <g id="Group_565" data-name="Group 565" transform="translate(10.109)">
          <path id="Path_1510" data-name="Path 1510" d="M199.353,274.431s8.121-7.53,3.861-10.787,5.062-8.293,1.7-10.739,1.654-8.769-1.278-9.825.718-4.743-1.408-6.524c-2.782-2.332-2.215,9.593-4.979,9.789s2.73,6.771-.708,7.608,1.24,8.283-1.98,8.419S194.262,270.6,199.353,274.431Z" transform="translate(-193.213 -236.255)" fill="#3a6bea"/>
          <path id="Path_1511" data-name="Path 1511" d="M199.353,274.431s8.121-7.53,3.861-10.787,5.062-8.293,1.7-10.739,1.654-8.769-1.278-9.825.718-4.743-1.408-6.524c-2.782-2.332-2.215,9.593-4.979,9.789s2.73,6.771-.708,7.608,1.24,8.283-1.98,8.419S194.262,270.6,199.353,274.431Z" transform="translate(-193.213 -236.255)" fill="#fff" opacity="0.5"/>
          <g id="Group_564" data-name="Group 564" transform="translate(4.624 2.699)" opacity="0.2">
            <path id="Path_1512" data-name="Path 1512" d="M200.272,239.045q-1.228,7.4-2.037,14.875c-.665,6.1-2.075,13.813-.157,19.807.206.643-.805.918-1.01.277-1.975-6.169-.563-13.814.12-20.084q.83-7.6,2.073-15.154c.11-.663,1.12-.381,1.01.278Z" transform="translate(-196.058 -238.388)"/>
          </g>
        </g>
        <g id="Group_567" data-name="Group 567" transform="translate(16.332 7.153)">
          <path id="Path_1513" data-name="Path 1513" d="M189.1,271.621s8.378-4.043,5.759-7.708,6.11-5.411,4.015-8.2,3.491-6.633,1.4-8.2,2.383-5.345.478-5.585c-3.048-.384-4.144,7.155-6.412,6.631s.523,6.11-2.444,5.935-1.047,6.957-3.664,6.271S185.954,267.287,189.1,271.621Z" transform="translate(-186.475 -241.907)" fill="#3a6bea"/>
          <g id="Group_566" data-name="Group 566" transform="translate(2.109 2.775)" opacity="0.2">
            <path id="Path_1514" data-name="Path 1514" d="M198.6,244.9c-4.012,8.232-8.074,17.159-9.4,26.282-.1.664-1.105.382-1.01-.278,1.334-9.2,5.454-18.223,9.5-26.532.295-.606,1.2-.076.9.528Z" transform="translate(-188.19 -244.099)"/>
          </g>
        </g>
        <g id="Group_569" data-name="Group 569" transform="translate(0 6.681)">
          <path id="Path_1515" data-name="Path 1515" d="M211.464,271.72s-8.377-4.043-5.759-7.708-6.109-5.411-4.014-8.2-3.491-6.633-1.4-8.2-1.747-2.99-.48-5.585c1.349-2.761,4.144,7.155,6.414,6.631s-.524,6.11,2.443,5.935,1.048,6.957,3.666,6.271S214.607,267.386,211.464,271.72Z" transform="translate(-199.552 -241.534)" fill="#3a6bea"/>
          <path id="Path_1516" data-name="Path 1516" d="M211.464,271.72s-8.377-4.043-5.759-7.708-6.109-5.411-4.014-8.2-3.491-6.633-1.4-8.2-1.747-2.99-.48-5.585c1.349-2.761,4.144,7.155,6.414,6.631s-.524,6.11,2.443,5.935,1.048,6.957,3.666,6.271S214.607,267.386,211.464,271.72Z" transform="translate(-199.552 -241.534)" fill="#fff" opacity="0.2"/>
          <g id="Group_568" data-name="Group 568" transform="translate(2.03 3.247)" opacity="0.2">
            <path id="Path_1517" data-name="Path 1517" d="M201.214,244.9c4.012,8.232,8.076,17.159,9.4,26.282.1.664,1.106.382,1.01-.278-1.333-9.2-5.454-18.223-9.5-26.532-.3-.606-1.2-.076-.9.528Z" transform="translate(-201.156 -244.099)"/>
          </g>
        </g>
        <path id="Path_1518" data-name="Path 1518" d="M193.936,289.453H208.83l2.793-25.085H191.144Z" transform="translate(-186.447 -228.784)" fill="#3a6bea"/>
        <path id="Path_1519" data-name="Path 1519" d="M193.936,289.453H208.83l2.793-25.085H191.144Z" transform="translate(-186.447 -228.784)" fill="#fff" opacity="0.3"/>
      </g>
    </g>
    <g id="Desk" transform="translate(183.262 289.174)">
      <g id="Group_575" data-name="Group 575">
        <g id="Group_573" data-name="Group 573" transform="translate(64.76 1.655)">
          <g id="Group_571" data-name="Group 571" transform="translate(30.846)">
            <path id="Path_1520" data-name="Path 1520" d="M235.942,441.53h0a3.125,3.125,0,0,0,3.111-2.829l.994-10.432V285.322h-8.21V428.269l.994,10.432A3.125,3.125,0,0,0,235.942,441.53Z" transform="translate(-231.837 -285.322)" fill="#263238"/>
            <path id="Path_1521" data-name="Path 1521" d="M235.942,441.53h0a3.125,3.125,0,0,0,3.111-2.829l.994-10.432V285.322h-8.21V428.269l.994,10.432A3.125,3.125,0,0,0,235.942,441.53Z" transform="translate(-231.837 -285.322)" fill="#fff" opacity="0.3"/>
            <rect id="Rectangle_350" data-name="Rectangle 350" width="8.209" height="10.084" transform="translate(0.001 1.396)" opacity="0.1"/>
          </g>
          <g id="Group_572" data-name="Group 572" transform="translate(0 138.843)">
            <path id="Path_1522" data-name="Path 1522" d="M235.4,400.571v-3.254a2.3,2.3,0,0,1,2.3-2.3h9.427a2.3,2.3,0,0,1,2.3,2.3v3.254l23.176,6.371a6.478,6.478,0,0,1,4.76,6.246h-69.9a6.479,6.479,0,0,1,4.76-6.246Z" transform="translate(-207.467 -395.014)" fill="#3a6bea"/>
            <path id="Path_1523" data-name="Path 1523" d="M229.538,400.068V396.9a2.283,2.283,0,0,1,.032-.324h13.966a2.283,2.283,0,0,1,.032.324v3.167Z" transform="translate(-201.602 -394.599)" opacity="0.1"/>
            <path id="Path_1524" data-name="Path 1524" d="M235.4,400.571v-3.254a2.3,2.3,0,0,1,2.3-2.3h9.427a2.3,2.3,0,0,1,2.3,2.3v3.254l23.176,6.371a6.478,6.478,0,0,1,4.76,6.246h-69.9a6.479,6.479,0,0,1,4.76-6.246Z" transform="translate(-207.467 -395.014)" opacity="0.2"/>
          </g>
        </g>
        <g id="Group_574" data-name="Group 574">
          <rect id="Rectangle_351" data-name="Rectangle 351" width="177.953" height="4.801" transform="translate(10.735 4.801)" fill="#263238"/>
          <rect id="Rectangle_352" data-name="Rectangle 352" width="177.953" height="4.801" transform="translate(10.735 4.801)" fill="#fff" opacity="0.3"/>
          <rect id="Rectangle_353" data-name="Rectangle 353" width="88.732" height="4.801" transform="translate(10.735 4.801)" opacity="0.2"/>
          <rect id="Rectangle_354" data-name="Rectangle 354" width="199.423" height="4.801" fill="#3a6bea"/>
          <rect id="Rectangle_355" data-name="Rectangle 355" width="110.202" height="4.801" transform="translate(0)" opacity="0.3"/>
        </g>
      </g>
    </g>
  </g>
</svg>
