<svg xmlns="http://www.w3.org/2000/svg" xmlns:xlink="http://www.w3.org/1999/xlink" width="513.282" height="526" viewBox="0 0 513.282 526">
  <defs>
    <linearGradient id="linear-gradient" y1="0.5" x2="1" y2="0.5" gradientUnits="objectBoundingBox">
      <stop offset="0" stop-color="#fff" stop-opacity="0.2"/>
      <stop offset="1" stop-color="#fff" stop-opacity="0.702"/>
    </linearGradient>
    <clipPath id="clip-path">
      <ellipse id="Ellipse_136" data-name="Ellipse 136" cx="37.261" cy="24.944" rx="37.261" ry="24.944" transform="matrix(0.774, -0.633, 0.633, 0.774, 0, 47.19)" fill="none"/>
    </clipPath>
    <clipPath id="clip-path-2">
      <ellipse id="Ellipse_138" data-name="Ellipse 138" cx="38.08" cy="25.492" rx="38.08" ry="25.492" transform="translate(0 48.227) rotate(-39.289)" fill="none"/>
    </clipPath>
  </defs>
  <g id="Sign-up_as_a_employer-or-_Jobseekers" data-name="Sign-up as a employer-or- Jobseekers" transform="translate(-362.287 -132.543)">
    <path id="Path_667" data-name="Path 667" d="M420.014,293.374c16.492-72.5,91.871-116.005,162.65-93.242q2.133.687,4.3,1.432c92.523,31.8,62.164,125.774,108.425,154.687s79.513,70.837,59.273,125.774S611.542,589,514.68,529.731C438.542,483.139,399.027,385.629,420.014,293.374Z" transform="translate(49.239 58.819)" fill="none" stroke="#bfd9ff" stroke-miterlimit="10" stroke-width="1.109"/>
    <circle id="Ellipse_132" data-name="Ellipse 132" cx="59.996" cy="59.996" r="59.996" transform="translate(362.922 306.533) rotate(-80.912)" fill="none" stroke="#bfd9ff" stroke-miterlimit="10" stroke-width="1.109"/>
    <g id="Group_197" data-name="Group 197" transform="translate(402.406 132.543)">
      <path id="Path_668" data-name="Path 668" d="M651.3,504.211H441.465a6.5,6.5,0,0,1-5.941-9.154L584.411,161.1a6.5,6.5,0,0,1,5.94-3.855H800.187a6.505,6.505,0,0,1,5.943,9.154L657.242,500.355A6.507,6.507,0,0,1,651.3,504.211Z" transform="translate(-333.538 -108.922)" fill="url(#linear-gradient)"/>
      <path id="Path_669" data-name="Path 669" d="M682.139,292.271l67.718-151.89a5.57,5.57,0,0,0-5.088-7.838h-190a17.859,17.859,0,0,0-16.314,10.588L469.7,297.327a5.571,5.571,0,0,0,5.088,7.838H662.271A21.75,21.75,0,0,0,682.139,292.271Z" transform="translate(-300.78 -132.543)" fill="#fff"/>
      <path id="Path_670" data-name="Path 670" d="M669.575,345.484l67.718-151.89a5.57,5.57,0,0,0-5.088-7.838H542.2a17.862,17.862,0,0,0-16.312,10.588l-68.747,154.2a5.57,5.57,0,0,0,5.088,7.838H649.707A21.752,21.752,0,0,0,669.575,345.484Z" transform="translate(-312.792 -81.667)" fill="none" stroke="#fff" stroke-miterlimit="10" stroke-width="1.109"/>
      <path id="Path_671" data-name="Path 671" d="M597.526,239.978H606.2l-23.312,45.539H441.935l5.689-11.115" transform="translate(-326.863 -29.826)" fill="none" stroke="#a1c2ff" stroke-miterlimit="10" stroke-width="0.554" opacity="0.39"/>
      <g id="Group_158" data-name="Group 158" transform="translate(212.645 7.404)">
        <g id="Group_153" data-name="Group 153" transform="translate(0 0)">
          <ellipse id="Ellipse_133" data-name="Ellipse 133" cx="42.79" cy="32.154" rx="42.79" ry="32.154" transform="translate(0 56.055) rotate(-40.92)" fill="#e6f4ff"/>
          <g id="Group_152" data-name="Group 152" transform="translate(6.282 6.156)">
            <ellipse id="Ellipse_134" data-name="Ellipse 134" cx="37.756" cy="28.371" rx="37.756" ry="28.371" transform="translate(0 49.46) rotate(-40.92)" fill="#94c3ff"/>
          </g>
        </g>
        <g id="Group_157" data-name="Group 157" transform="translate(22.468 26.861)">
          <g id="Group_156" data-name="Group 156">
            <g id="Group_155" data-name="Group 155" transform="translate(0 3.954)">
              <g id="Group_154" data-name="Group 154">
                <path id="Path_672" data-name="Path 672" d="M534.829,166.427s-17.2,2.842-24.539,5.737c-4.986,3-5.778,5.389-6.969,8.973l-.018.035c4,6.989,11.607,11.431,21.542,11.431,12.834,0,26.038-7.406,34.484-18.162C554.73,167.689,534.829,166.427,534.829,166.427Z" transform="translate(-503.303 -138.366)" fill="#4361c4"/>
                <path id="Path_673" data-name="Path 673" d="M517.821,166.413l-2.966,12.529a2.377,2.377,0,0,0,1.892,3.12,14.083,14.083,0,0,0,9.964-2.175,4.441,4.441,0,0,0,2.075-3.267c.417-5.847,1.6-17.834,1.6-17.834Z" transform="translate(-492.345 -145.671)" fill="#ff8d68"/>
                <path id="Path_674" data-name="Path 674" d="M518.239,159.547s-8.077,16.353-6.5,20.746c1.817,3,18.057-3.736,20.717-8.12s8.769-12.325,4.01-17.292S524.35,151.605,518.239,159.547Z" transform="translate(-495.435 -152.081)" fill="#ff8d68"/>
              </g>
            </g>
            <path id="Path_675" data-name="Path 675" d="M515.055,161.48s-1.422-5.778,3.466-9.182,11.163-2.723,13.421.681a37.349,37.349,0,0,1,2.451,3.914,4.6,4.6,0,0,1,3.206,3.063c.8,2.553-4.288,9.02-6.357,10.891s-1.641,1.921-1.641,1.921l-.692-.9a40.659,40.659,0,0,1,1.393-7.828c.27-1.532-1.479-3.744-4.565-4.254S521.514,162.15,515.055,161.48Z" transform="translate(-492.251 -150.06)" fill="#7e3636"/>
            <path id="Path_676" data-name="Path 676" d="M523.822,160.485s1.123-2.087,3.122-1.5c1.985.663-1.98,6.913-4.082,6.479C520.85,164.953,523.822,160.485,523.822,160.485Z" transform="translate(-485.271 -141.624)" fill="#ff8d68"/>
            <path id="Path_677" data-name="Path 677" d="M530.071,166.69s-4.317,4.765-8.564,6.126c-.745.227-1.85,1.7-1.85,1.7l-.775-2.042s-2.917-1.7-2.07-4.652l-.585.454-1.559,3.857a23.755,23.755,0,0,0-1.091,4.992l3.908-2.156a7.618,7.618,0,0,0,4.278.113s.808,2.723,1.537,2.95,6.633-5.332,7.527-7.261a7.246,7.246,0,0,0,.767-3.857Z" transform="translate(-493.482 -134.16)" fill="#fff"/>
          </g>
        </g>
      </g>
      <g id="Group_159" data-name="Group 159" transform="translate(310.814 32.837)">
        <path id="Path_678" data-name="Path 678" d="M627.515,190.484H545.2c-2.525,0-3.826-2.046-2.907-4.573l11.65-32.009a7.232,7.232,0,0,1,6.236-4.571h82.31c2.525,0,3.828,2.046,2.909,4.571l-11.65,32.009A7.233,7.233,0,0,1,627.515,190.484Z" transform="translate(-542.003 -149.33)" fill="#a1c2ff" opacity="0.39"/>
        <path id="Path_679" data-name="Path 679" d="M622.793,158.409H551.916l1.248-3.43h70.878Z" transform="translate(-532.526 -143.929)" fill="#94c3ff"/>
        <path id="Path_680" data-name="Path 680" d="M593.106,162.5H550.427l1.248-3.429h42.679Z" transform="translate(-533.95 -140.018)" fill="#94c3ff"/>
        <path id="Path_681" data-name="Path 681" d="M560.13,166.2H549.079l1.248-3.43h11.051Z" transform="translate(-535.238 -136.479)" fill="#94c3ff"/>
      </g>
      <g id="Group_162" data-name="Group 162" transform="translate(293.703 83.566)">
        <path id="Path_682" data-name="Path 682" d="M550.822,180.412a8.57,8.57,0,0,1-7.23,5.15c-2.846,0-4.219-2.3-3.071-5.15a8.576,8.576,0,0,1,7.232-5.148C550.6,175.264,551.972,177.568,550.822,180.412Z" transform="translate(-526.697 -175.264)" fill="#94c3ff"/>
        <path id="Path_683" data-name="Path 683" d="M559.968,180.412a8.57,8.57,0,0,1-7.23,5.15c-2.846,0-4.219-2.3-3.071-5.15a8.576,8.576,0,0,1,7.232-5.148C559.743,175.264,561.118,177.568,559.968,180.412Z" transform="translate(-517.953 -175.264)" fill="#94c3ff"/>
        <path id="Path_684" data-name="Path 684" d="M569.114,180.412a8.569,8.569,0,0,1-7.229,5.15c-2.846,0-4.219-2.3-3.071-5.15a8.576,8.576,0,0,1,7.232-5.148C568.889,175.264,570.264,177.568,569.114,180.412Z" transform="translate(-509.209 -175.264)" fill="#94c3ff"/>
        <path id="Path_685" data-name="Path 685" d="M578.26,180.412a8.57,8.57,0,0,1-7.23,5.15c-2.846,0-4.219-2.3-3.071-5.15a8.577,8.577,0,0,1,7.232-5.148C578.035,175.264,579.41,177.568,578.26,180.412Z" transform="translate(-500.464 -175.264)" fill="#ff8d02"/>
        <path id="Path_686" data-name="Path 686" d="M587.406,180.412a8.57,8.57,0,0,1-7.232,5.15c-2.844,0-4.217-2.3-3.069-5.15a8.577,8.577,0,0,1,7.232-5.148C587.181,175.264,588.556,177.568,587.406,180.412Z" transform="translate(-491.72 -175.264)" fill="#a1c2ff" opacity="0.39"/>
        <g id="Group_161" data-name="Group 161" transform="translate(0 13.824)">
          <g id="Group_160" data-name="Group 160" transform="translate(4.412 3.686)">
            <path id="Path_687" data-name="Path 687" d="M583.044,185.9l-22.71,23.6L536.8,218.833l26.671,19.578,26.805-22.871Z" transform="translate(-534.276 -182.606)" fill="#a1c2ff" opacity="0.39"/>
            <path id="Path_688" data-name="Path 688" d="M573.325,192.909,556,202.8l-14.656,9.264,19.878,14.276,18.794-17.167Z" transform="translate(-529.939 -175.904)" fill="#a1c2ff" opacity="0.7"/>
            <path id="Path_689" data-name="Path 689" d="M583.044,185.9l-22.71,23.6L536.8,218.833l26.6,19.761,26.879-23.054Z" transform="translate(-534.276 -182.606)" fill="none" stroke="#4361c4" stroke-miterlimit="10" stroke-width="0.281"/>
            <path id="Path_690" data-name="Path 690" d="M556.663,202.98a2.743,2.743,0,0,1-2.312,1.647c-.91,0-1.35-.737-.982-1.647a2.742,2.742,0,0,1,2.312-1.647C556.59,201.333,557.03,202.07,556.663,202.98Z" transform="translate(-518.562 -167.85)" fill="#4361c4"/>
            <path id="Path_691" data-name="Path 691" d="M551.281,193.85l20.1,15.918-35.869,1.83" transform="translate(-535.511 -175.004)" fill="none" stroke="#4361c4" stroke-miterlimit="10" stroke-width="0.281"/>
            <path id="Path_692" data-name="Path 692" d="M549.64,229.864,558.6,203.15l23.649-2.379" transform="translate(-522.002 -168.386)" fill="none" stroke="#4361c4" stroke-miterlimit="10" stroke-width="0.281"/>
            <line id="Line_9" data-name="Line 9" x1="13.497" y2="34.764" transform="translate(36.601)" fill="none" stroke="#4361c4" stroke-miterlimit="10" stroke-width="0.281"/>
          </g>
          <path id="Path_693" data-name="Path 693" d="M547.316,195.045a4.6,4.6,0,0,1-3.881,2.764c-1.526,0-2.263-1.238-1.647-2.764a4.6,4.6,0,0,1,3.881-2.764C547.195,192.281,547.932,193.519,547.316,195.045Z" transform="translate(-525.306 -172.818)" fill="#94c3ff"/>
          <path id="Path_694" data-name="Path 694" d="M539,204.282a4.6,4.6,0,0,1-3.879,2.764c-1.528,0-2.265-1.236-1.649-2.764a4.6,4.6,0,0,1,3.881-2.762C538.882,201.52,539.619,202.756,539,204.282Z" transform="translate(-533.256 -163.985)" fill="#ff8d02"/>
          <path id="Path_695" data-name="Path 695" d="M553.783,217.217a4.606,4.606,0,0,1-3.881,2.764c-1.526,0-2.263-1.238-1.647-2.764a4.6,4.6,0,0,1,3.881-2.764C553.662,214.453,554.4,215.691,553.783,217.217Z" transform="translate(-519.123 -151.62)" fill="#94c3ff"/>
          <path id="Path_696" data-name="Path 696" d="M570.765,202.14a4.606,4.606,0,0,1-3.881,2.764c-1.526,0-2.263-1.238-1.647-2.764a4.6,4.6,0,0,1,3.881-2.764C570.644,199.376,571.381,200.612,570.765,202.14Z" transform="translate(-502.887 -166.035)" fill="#94c3ff"/>
          <path id="Path_697" data-name="Path 697" d="M565.5,185.095a4.6,4.6,0,0,1-3.881,2.764c-1.526,0-2.263-1.238-1.647-2.764a4.6,4.6,0,0,1,3.881-2.764C565.378,182.331,566.115,183.567,565.5,185.095Z" transform="translate(-507.922 -182.331)" fill="#ff8d02"/>
        </g>
      </g>
      <g id="Group_163" data-name="Group 163" transform="translate(207.776 110.18)">
        <path id="Path_698" data-name="Path 698" d="M564.287,201.905h-68.9l5.267-13.035h68.9Z" transform="translate(-483.536 -188.87)" fill="#4361c4"/>
        <path id="Path_699" data-name="Path 699" d="M528.589,213.259H489.328l2.257-5.587h39.261Z" transform="translate(-489.328 -170.894)" fill="#a1c2ff" opacity="0.39"/>
        <path id="Path_700" data-name="Path 700" d="M520.5,211.187H491.635l5.267-13.036h28.864Z" transform="translate(-487.121 -179.996)" fill="#a1c2ff" opacity="0.39"/>
      </g>
      <g id="Group_171" data-name="Group 171" transform="translate(288.169 199.509)">
        <path id="Path_701" data-name="Path 701" d="M636.437,314.783l33.717-75.624a2.774,2.774,0,0,0-2.533-3.9h-94.6a8.894,8.894,0,0,0-8.122,5.272L530.67,317.3a2.774,2.774,0,0,0,2.533,3.9h93.344A10.83,10.83,0,0,0,636.437,314.783Z" transform="translate(-530.427 -233.849)" fill="#fff"/>
        <g id="Group_170" data-name="Group 170" transform="translate(26.409 0)">
          <ellipse id="Ellipse_135" data-name="Ellipse 135" cx="37.261" cy="24.944" rx="37.261" ry="24.944" transform="matrix(0.774, -0.633, 0.633, 0.774, 0, 47.19)" fill="#a1c2ff" opacity="0.39"/>
          <g id="Group_169" data-name="Group 169" transform="translate(0)">
            <g id="Group_168" data-name="Group 168" transform="translate(0)" clip-path="url(#clip-path)">
              <g id="Group_167" data-name="Group 167" transform="translate(-2.031 20.001)">
                <path id="Path_702" data-name="Path 702" d="M592.081,258.092s15.34,7.623,16.963,14.608-5.184,25.406-5.184,25.406H542.889s9.994-21.6,17.763-26.675,22.767-8.961,22.767-8.961Z" transform="translate(-542.889 -232.017)" fill="#4385ff"/>
                <g id="Group_166" data-name="Group 166" transform="translate(31.23)">
                  <g id="Group_165" data-name="Group 165">
                    <g id="Group_164" data-name="Group 164" transform="translate(2.999 4.349)">
                      <path id="Path_703" data-name="Path 703" d="M567.3,258.161,562.517,268.5c-.6,1.293-.243,2.474.872,2.811a11.044,11.044,0,0,0,8.243-.949,4.508,4.508,0,0,0,2.269-2.578c1.475-4.912,4.757-14.95,4.757-14.95Z" transform="translate(-558.627 -241.394)" fill="#94c3ff"/>
                      <path id="Path_704" data-name="Path 704" d="M569.572,252.276s-9.544,13.117-9.174,16.977c.837,2.7,14.9-1.543,17.845-5.015s9.3-9.645,6.539-14.275S575.923,246.1,569.572,252.276Z" transform="translate(-560.388 -246.985)" fill="#94c3ff"/>
                    </g>
                    <path id="Path_705" data-name="Path 705" d="M571.441,252.475a5.836,5.836,0,0,0-.34.516c-.554.933-1.375,2.815.917,2.938l3.059.164s4.912-2.8,6.84.164c1.434,2.96-3.243,4.769-2.854,6.25s.192,1.15-.469,1.972a7.548,7.548,0,0,1-3.4,3.126c-2.208.986-3.949.822-6.06,1.974s-6.183-.166-6.606-1.152c-.984-.822-1.549.986-2.179,2.138s-2.572,1.481-.7,2.96,3.249,2.138,6.512.164,3.363-1.807,6.654-2.631,5.739-2.484,6.995-4.53,1.659-4.679,2.717-5.665,1.643,0,1.179,1.15,4.016-.986,5.082-4.44-.81-3.288-1-5.262,2.056-4.276-.338-6.083-4.64.493-5.489-.659-4.568-1.314-7.537,1.152a8.99,8.99,0,0,0-3.14,5.96" transform="translate(-558.854 -244.762)" fill="#4361c4"/>
                    <path id="Path_706" data-name="Path 706" d="M571.7,253.69s1.289-1.665,2.742-.986c1.428.739-2.909,5.673-4.473,5.119C568.5,257.205,571.7,253.69,571.7,253.69Z" transform="translate(-548.596 -237.324)" fill="#94c3ff"/>
                    <path id="Path_707" data-name="Path 707" d="M560.211,259.984s1.4-5.1,4.957-5.755,5.156,1.479,4.919,3.288a3.019,3.019,0,0,0,1.336,2.8S562.46,264.589,560.211,259.984Z" transform="translate(-557.557 -235.826)" fill="#4361c4"/>
                  </g>
                </g>
              </g>
            </g>
          </g>
        </g>
      </g>
      <g id="Group_172" data-name="Group 172" transform="translate(245.757 303.009)">
        <path id="Path_708" data-name="Path 708" d="M614.757,366.975l33.715-75.624a2.773,2.773,0,0,0-2.533-3.9h-94.6a8.9,8.9,0,0,0-8.124,5.272l-34.228,76.772a2.774,2.774,0,0,0,2.533,3.9h93.344A10.833,10.833,0,0,0,614.757,366.975Z" transform="translate(-508.745 -287.449)" fill="#fff"/>
      </g>
      <g id="Group_179" data-name="Group 179" transform="translate(270.949 300.125)">
        <ellipse id="Ellipse_137" data-name="Ellipse 137" cx="38.08" cy="25.492" rx="38.08" ry="25.492" transform="translate(0 48.227) rotate(-39.289)" fill="#a1c2ff" opacity="0.39"/>
        <g id="Group_178" data-name="Group 178" transform="translate(0 0)">
          <g id="Group_177" data-name="Group 177" clip-path="url(#clip-path-2)">
            <g id="Group_176" data-name="Group 176" transform="translate(-17.539 20.725)">
              <path id="Path_709" data-name="Path 709" d="M555.863,304.28s4.644-2.21,5.266.471a5.13,5.13,0,0,1-1.428,4.595s4.2-1.154,5.315,2.427-2.251,5.289-.855,6.565,4.29,4.006.243,8.544-9.966,9.743-16.828,6.391S542.9,313.6,542.9,313.6l1.676-4.765Z" transform="translate(-484.059 -290.016)" fill="#4361c4"/>
              <path id="Path_710" data-name="Path 710" d="M554.173,296.864s-10.34.87-13.6,8.114,3.226,7.752,3.226,7.752Z" transform="translate(-486.849 -296.289)" fill="#4361c4"/>
              <path id="Path_711" data-name="Path 711" d="M512.78,332.406l.665,1.2a160.57,160.57,0,0,0,15.062,15.59h14.766c7.7-7.02,18.215-19.256,18.262-19.754.068-.712,9.262-10.71,7.235-14.786s-4.655-3.423-4.655-3.423-3,.411-6.361,3.895S537.8,344.338,537.8,344.338a24.084,24.084,0,0,0-6.052-6.774c-3.924-2.932-15.4-9.113-15.4-9.113s.7-4.965.638-5.915-2.922-5.283-3.789-4.352,1.16,5.006,1.16,5.006S512.117,331.205,512.78,332.406Z" transform="translate(-512.657 -282.589)" fill="#94c3ff"/>
              <path id="Path_712" data-name="Path 712" d="M533.989,343.246s.438,3.163,1.285,7.206h29.318c.649-6.617,2.019-19.921,2.838-23.078,1.1-4.245.129-13.28.479-15.762s-6.737-1.571-6.737-1.571l-9.235.155-1.49.638a11.755,11.755,0,0,0-5.107,4.27c-1.144,1.751-2.829,4.3-5.094,7.644-3.646,2.766-11.687,7.572-11.095,13.632S533.989,343.246,533.989,343.246Z" transform="translate(-496.917 -283.846)" fill="#4385ff"/>
              <path id="Path_713" data-name="Path 713" d="M547.479,308.7s-8.2,10.138-10.453,22.9c2.674-.822,10.805-8.282,15.6-12.83,2.023-1.919,2.21-2.966,1.837-4.933-.184-.968.667-3.65,1.8-6.721C557.017,302.86,547.479,308.7,547.479,308.7Z" transform="translate(-489.358 -287.974)" fill="#94c3ff"/>
              <path id="Path_714" data-name="Path 714" d="M565.7,345.395s1.276,1.76,3.38,4.4H582.2c-2.527-3.351-4.538-6.056-5.162-7-2.144-3.249-17.141-35.953-26.278-31.882-1.69.751-7.793,5.876-5.3,11.623S565.7,345.395,565.7,345.395Z" transform="translate(-481.862 -283.191)" fill="#94c3ff"/>
              <g id="Group_175" data-name="Group 175" transform="translate(50.524)">
                <g id="Group_174" data-name="Group 174" transform="translate(0 0.955)">
                  <g id="Group_173" data-name="Group 173">
                    <path id="Path_715" data-name="Path 715" d="M545.715,303.451a68.005,68.005,0,0,0-6.455,9.608c-1.684,3.271-.532,6.265,2.606,6.6,4.509.481,11.386-.636,13.648-3.22,3.355-3.838,10.553-10.629,7.631-15.907-2.836-5.123-9.3-4.591-16.263,1.665A10.351,10.351,0,0,0,545.715,303.451Z" transform="translate(-538.486 -297.058)" fill="#94c3ff"/>
                  </g>
                </g>
                <path id="Path_716" data-name="Path 716" d="M544.116,300.566s-4.526,7.4,8.327,12.124l1.618.73s5.614-4.458,5.7-9.178-2.351-6.439-4.806-7.466S545.831,298.8,544.116,300.566Z" transform="translate(-533.843 -296.57)" fill="#4361c4"/>
              </g>
              <path id="Path_717" data-name="Path 717" d="M548.759,305.869s3.253-2.244,3.216-.172-4.6,4.288-5.082,3.423S548.759,305.869,548.759,305.869Z" transform="translate(-479.987 -288.683)" fill="#94c3ff"/>
            </g>
          </g>
        </g>
      </g>
      <g id="Group_180" data-name="Group 180" transform="translate(140.866 289.954)">
        <path id="Path_718" data-name="Path 718" d="M563.225,310.685h-104.2c-3.2,0-4.742-2.594-3.449-5.79l7.406-18.33c1.291-3.2,4.931-5.79,8.128-5.79h104.2c3.2,0,4.742,2.592,3.449,5.79l-7.406,18.33C570.062,308.092,566.422,310.685,563.225,310.685Z" transform="translate(-455.121 -280.775)" fill="#4385ff"/>
        <path id="Path_719" data-name="Path 719" d="M553.827,291.282H464.1l1.754-4.342h89.726Z" transform="translate(-446.536 -274.88)" fill="#fff"/>
      </g>
      <g id="Group_185" data-name="Group 185" transform="translate(132.523 12.184)">
        <g id="Group_181" data-name="Group 181" transform="translate(27.89)">
          <path id="Path_720" data-name="Path 720" d="M469.4,144.554h-3.525c-.624,0-.925-.5-.673-1.129l1.424-3.525a1.88,1.88,0,0,1,1.586-1.129h3.523c.624,0,.925.5.673,1.129l-1.424,3.525A1.875,1.875,0,0,1,469.4,144.554Z" transform="translate(-465.114 -138.772)" fill="#f9fbfc"/>
          <path id="Path_721" data-name="Path 721" d="M487.878,144.554h-3.525c-.624,0-.925-.5-.673-1.129L485.1,139.9a1.88,1.88,0,0,1,1.584-1.129h3.525c.624,0,.925.5.673,1.129l-1.424,3.525A1.88,1.88,0,0,1,487.878,144.554Z" transform="translate(-447.449 -138.772)" fill="#bfd9ff"/>
        </g>
        <g id="Group_182" data-name="Group 182" transform="translate(21.173 16.625)">
          <path id="Path_722" data-name="Path 722" d="M465.967,153.055h-3.525c-.624,0-.925-.507-.673-1.131l1.424-3.523a1.883,1.883,0,0,1,1.587-1.131H468.3c.624,0,.925.507.673,1.131l-1.422,3.523A1.883,1.883,0,0,1,465.967,153.055Z" transform="translate(-461.68 -147.271)" fill="#bfd9ff"/>
          <path id="Path_723" data-name="Path 723" d="M475.2,153.055h-3.523c-.624,0-.925-.507-.673-1.131l1.422-3.523a1.883,1.883,0,0,1,1.586-1.131h3.525c.624,0,.925.507.673,1.131l-1.424,3.523A1.882,1.882,0,0,1,475.2,153.055Z" transform="translate(-452.847 -147.271)" fill="#f9fbfc"/>
          <path id="Path_724" data-name="Path 724" d="M484.444,153.055h-3.525c-.624,0-.925-.507-.673-1.131l1.424-3.523a1.883,1.883,0,0,1,1.586-1.131h3.523c.624,0,.925.507.673,1.131l-1.424,3.523A1.882,1.882,0,0,1,484.444,153.055Z" transform="translate(-444.015 -147.271)" fill="#f9fbfc"/>
          <path id="Path_725" data-name="Path 725" d="M491.833,153.055H488.31c-.624,0-.925-.507-.673-1.131l1.424-3.523a1.877,1.877,0,0,1,1.584-1.131h3.525c.624,0,.925.507.673,1.131l-1.424,3.523A1.882,1.882,0,0,1,491.833,153.055Z" transform="translate(-436.948 -147.271)" fill="#f9fbfc"/>
        </g>
        <g id="Group_183" data-name="Group 183" transform="translate(0 33.251)">
          <path id="Path_726" data-name="Path 726" d="M462.533,161.553h-3.525c-.622,0-.925-.507-.673-1.129l1.424-3.525a1.88,1.88,0,0,1,1.586-1.129h3.523c.624,0,.925.5.673,1.129l-1.422,3.525A1.884,1.884,0,0,1,462.533,161.553Z" transform="translate(-443.791 -155.771)" fill="#f9fbfc"/>
          <path id="Path_727" data-name="Path 727" d="M455.141,161.553h-3.523c-.624,0-.925-.507-.673-1.129l1.422-3.525a1.88,1.88,0,0,1,1.586-1.129h3.525c.624,0,.925.5.673,1.129l-1.424,3.525A1.884,1.884,0,0,1,455.141,161.553Z" transform="translate(-450.856 -155.771)" fill="#f9fbfc"/>
          <path id="Path_728" data-name="Path 728" d="M471.77,161.553h-3.523c-.624,0-.925-.507-.673-1.129L469,156.9a1.875,1.875,0,0,1,1.584-1.129h3.525c.624,0,.925.5.673,1.129l-1.424,3.525A1.884,1.884,0,0,1,471.77,161.553Z" transform="translate(-434.958 -155.771)" fill="#f9fbfc"/>
          <path id="Path_729" data-name="Path 729" d="M481.01,161.553h-3.525c-.624,0-.925-.507-.673-1.129l1.424-3.525a1.88,1.88,0,0,1,1.586-1.129h3.523c.624,0,.925.5.673,1.129l-1.424,3.525A1.881,1.881,0,0,1,481.01,161.553Z" transform="translate(-426.125 -155.771)" fill="#bfd9ff"/>
        </g>
        <g id="Group_184" data-name="Group 184" transform="translate(7.739 49.876)">
          <path id="Path_730" data-name="Path 730" d="M459.1,170.052h-3.523c-.624,0-.925-.5-.675-1.129l1.424-3.525a1.88,1.88,0,0,1,1.586-1.129h3.523c.624,0,.925.5.675,1.129l-1.424,3.525A1.88,1.88,0,0,1,459.1,170.052Z" transform="translate(-454.813 -164.27)" fill="#f9fbfc"/>
        </g>
      </g>
      <g id="Group_190" data-name="Group 190" transform="translate(120.782 336.186)">
        <g id="Group_186" data-name="Group 186" transform="translate(39.311)">
          <path id="Path_731" data-name="Path 731" d="M470.993,312.561h-4.968c-.878,0-1.3-.712-.949-1.592L467.083,306a2.653,2.653,0,0,1,2.236-1.592h4.966c.88,0,1.3.714.949,1.592l-2.007,4.966A2.647,2.647,0,0,1,470.993,312.561Z" transform="translate(-464.951 -304.41)" fill="#4385ff"/>
          <path id="Path_732" data-name="Path 732" d="M497.035,312.561h-4.966c-.878,0-1.3-.712-.949-1.592L493.126,306a2.651,2.651,0,0,1,2.236-1.592h4.967c.878,0,1.3.714.949,1.592l-2.007,4.966A2.65,2.65,0,0,1,497.035,312.561Z" transform="translate(-440.052 -304.41)" fill="#4385ff"/>
        </g>
        <g id="Group_187" data-name="Group 187" transform="translate(29.844 23.434)">
          <path id="Path_733" data-name="Path 733" d="M466.151,324.541h-4.967c-.878,0-1.3-.714-.949-1.592l2.007-4.967a2.65,2.65,0,0,1,2.236-1.592h4.966c.878,0,1.3.712.949,1.592l-2.007,4.967A2.651,2.651,0,0,1,466.151,324.541Z" transform="translate(-460.111 -316.39)" fill="#bfd9ff"/>
          <path id="Path_734" data-name="Path 734" d="M479.174,324.541h-4.966c-.88,0-1.3-.714-.949-1.592l2.007-4.967a2.647,2.647,0,0,1,2.234-1.592h4.966c.88,0,1.3.712.949,1.592l-2.007,4.967A2.651,2.651,0,0,1,479.174,324.541Z" transform="translate(-447.662 -316.39)" fill="#ff8d02"/>
          <path id="Path_735" data-name="Path 735" d="M492.195,324.541h-4.967c-.88,0-1.3-.714-.949-1.592l2.007-4.967a2.647,2.647,0,0,1,2.234-1.592h4.968c.878,0,1.3.712.949,1.592l-2.007,4.967A2.654,2.654,0,0,1,492.195,324.541Z" transform="translate(-435.212 -316.39)" fill="#bfd9ff"/>
          <path id="Path_736" data-name="Path 736" d="M502.612,324.541h-4.966c-.878,0-1.3-.714-.949-1.592l2.007-4.967a2.647,2.647,0,0,1,2.234-1.592h4.968c.878,0,1.3.712.949,1.592l-2.007,4.967A2.653,2.653,0,0,1,502.612,324.541Z" transform="translate(-425.253 -316.39)" fill="#bfd9ff"/>
        </g>
        <g id="Group_188" data-name="Group 188" transform="translate(0 46.868)">
          <path id="Path_737" data-name="Path 737" d="M461.311,336.519h-4.966c-.878,0-1.3-.712-.949-1.592l2.007-4.966a2.651,2.651,0,0,1,2.236-1.59h4.967c.878,0,1.3.712.949,1.59l-2.007,4.966A2.65,2.65,0,0,1,461.311,336.519Z" transform="translate(-434.895 -328.37)" fill="#bfd9ff"/>
          <path id="Path_738" data-name="Path 738" d="M450.894,336.519h-4.966c-.878,0-1.3-.712-.949-1.592l2.007-4.966a2.651,2.651,0,0,1,2.236-1.59h4.966c.878,0,1.3.712.949,1.59l-2.007,4.966A2.65,2.65,0,0,1,450.894,336.519Z" transform="translate(-444.854 -328.37)" fill="#bfd9ff"/>
          <path id="Path_739" data-name="Path 739" d="M474.334,336.519h-4.967c-.88,0-1.3-.712-.949-1.592l2-4.966a2.654,2.654,0,0,1,2.236-1.59h4.966c.88,0,1.3.712.949,1.59l-2.007,4.966A2.647,2.647,0,0,1,474.334,336.519Z" transform="translate(-422.445 -328.37)" fill="#bfd9ff"/>
          <path id="Path_740" data-name="Path 740" d="M487.355,336.519h-4.966c-.88,0-1.3-.712-.949-1.592l2.007-4.966a2.648,2.648,0,0,1,2.234-1.59h4.969c.878,0,1.3.712.949,1.59l-2.007,4.966A2.652,2.652,0,0,1,487.355,336.519Z" transform="translate(-409.996 -328.37)" fill="#ff8d02"/>
        </g>
        <g id="Group_189" data-name="Group 189" transform="translate(10.909 70.3)">
          <path id="Path_741" data-name="Path 741" d="M456.471,348.5H451.5c-.878,0-1.3-.712-.949-1.592l2.007-4.967a2.65,2.65,0,0,1,2.236-1.592h4.966c.878,0,1.3.712.949,1.592l-2.007,4.967A2.65,2.65,0,0,1,456.471,348.5Z" transform="translate(-450.431 -340.349)" fill="#ff8d02"/>
        </g>
      </g>
      <g id="Group_196" data-name="Group 196" transform="translate(0 63.506)">
        <path id="Path_742" data-name="Path 742" d="M581.226,280.39H440.272l23.311-45.539H604.537Z" transform="translate(-328.453 -98.235)" fill="#a1c2ff" opacity="0.39"/>
        <g id="Group_191" data-name="Group 191" transform="translate(203.577 133.06)">
          <ellipse id="Ellipse_139" data-name="Ellipse 139" cx="20.971" cy="16.354" rx="20.971" ry="16.354" transform="translate(0 27.763) rotate(-41.447)" fill="#73a5ff"/>
          <path id="Path_743" data-name="Path 743" d="M501.519,259.221a1.754,1.754,0,0,1-1.444-.667l-4.787-6.375a2.436,2.436,0,0,1,.8-3.22,2.263,2.263,0,0,1,3.222,0l3.576,4.765,12.781-10.23a2.26,2.26,0,0,1,3.22,0,2.434,2.434,0,0,1-.8,3.22L503.3,258.554A2.894,2.894,0,0,1,501.519,259.221Z" transform="translate(-479.749 -223.67)" fill="#fff"/>
        </g>
        <g id="Group_195" data-name="Group 195">
          <path id="Path_744" data-name="Path 744" d="M449.667,193.719c0,3.576-2.615,6.475-5.841,6.475s-5.839-2.9-5.839-6.475,2.613-6.475,5.839-6.475S449.667,190.143,449.667,193.719Z" transform="translate(-330.637 -143.751)" fill="none" stroke="#505e83" stroke-miterlimit="10" stroke-width="0.519"/>
          <path id="Path_745" data-name="Path 745" d="M421.63,208.438s-9.325.622-16.3,10.037,3.138,43.928,33.122,57.875c19.524,7.67,20.918-9.763,16.038-21.965S435.487,211.3,421.63,208.438Z" transform="translate(-363.876 -123.488)" fill="#fff"/>
          <path id="Path_746" data-name="Path 746" d="M574.132,401.267c0,4.431-42.764,8.022-95.513,8.022s-95.511-3.591-95.511-8.022,42.762-8.02,95.511-8.02S574.132,396.838,574.132,401.267Z" transform="translate(-383.107 53.205)" fill="#bfd9ff"/>
          <g id="Group_192" data-name="Group 192" transform="translate(51.01 303.452)">
            <path id="Path_747" data-name="Path 747" d="M415.432,385.73s2.026-4.341,9.552-3.185,8.4,2.605,9.264,6.369,3.472,7.816,5.209,8.685,8.106,5.209,13.317,6.077,5.788,4.053,4.63,5.5-20.842,2.606-25.183,2.027c0,0-14.763-.289-18.237-1.447S415.143,387.178,415.432,385.73Z" transform="translate(-405.826 -260.666)" fill="#16142a"/>
            <path id="Path_748" data-name="Path 748" d="M434.712,385.73s2.027-4.341,9.554-3.185,8.393,2.605,9.262,6.369,3.474,7.816,5.211,8.685,8.1,5.209,13.315,6.077,5.79,4.053,4.632,5.5-20.842,2.606-25.185,2.027c0,0-14.763-.289-18.237-1.447S434.423,387.178,434.712,385.73Z" transform="translate(-387.392 -260.666)" fill="#16142a"/>
            <path id="Path_749" data-name="Path 749" d="M411.822,337.426s-2.2-11.987,10.459-16.01,15.056,1.827,18.888,12.76-3.237,114.186-3.237,114.186-15.428.352-19.166-1.856c0,0-10.312-68.514-9.54-85.2S411.822,337.426,411.822,337.426Z" transform="translate(-409.185 -320.142)" fill="#2b3554"/>
          </g>
          <path id="Path_750" data-name="Path 750" d="M441.35,192.8s2.963,4.01,2.963,6.1S440.3,201,440.3,201Z" transform="translate(-328.422 -138.435)" fill="#ff7759"/>
          <path id="Path_751" data-name="Path 751" d="M451.916,173.417s8.564,2.191,13.417,15.342,1.616,41.1-1.618,44.383-13.059,2.03-26.683-2.467c-14.4-4.751-19.26-19.717-21.832-29.588C410.273,182.185,426.712,162.731,451.916,173.417Z" transform="translate(-353.257 -159.878)" fill="#ff8d68"/>
          <path id="Path_752" data-name="Path 752" d="M417.841,221.638l6.946-24.893s13.894-4.053,22.579,5.209l2.9,4.053v16.21A92.714,92.714,0,0,1,417.841,221.638Z" transform="translate(-349.898 -135.512)" fill="#ff8d68"/>
          <path id="Path_753" data-name="Path 753" d="M409.058,281.219a229.273,229.273,0,0,0,0,65.13c5.209,34.736,15.631,38.21,25.183,38.21s12.157-27.788,13.894-39.947,8.685-53.841-4.341-63.393S416,270.8,409.058,281.219Z" transform="translate(-360.51 -61.068)" fill="#2b3554"/>
          <path id="Path_754" data-name="Path 754" d="M428.021,321.686s-10.422-27.79,7.815-39.947,32.131-10.422,36.473,9.552,5.211,88.577-.868,102.473S443.652,385.947,428.021,321.686Z" transform="translate(-343 -60.719)" fill="#2b3f63"/>
          <path id="Path_755" data-name="Path 755" d="M415.961,212.995s1.94-6.815,3.677-7.394,23.156-2.895,34.736,4.051C459.583,213.7,459,216.6,459,216.6S424.443,209.969,415.961,212.995Z" transform="translate(-351.696 -127)" fill="#fff"/>
          <path id="Path_756" data-name="Path 756" d="M488.459,277.555s1.743,4.184.7,5.579c-1.395,1.395-40.79,15.34-82.279,5.231-.7,0,1.045-6.973,1.045-6.973Z" transform="translate(-360.539 -57.406)" fill="#6060e7"/>
          <path id="Path_757" data-name="Path 757" d="M408.406,281.2c-1.158-8.1-4.632-48.051-3.474-53.841,1.082-5.411,5.7-15.373,15.285-18.544a19.564,19.564,0,0,1,2.083-.561s35.894-2.316,61.368,8.685c0,0,8.718,7.243,10.332,44.149,0,0-.479,6.224-1.874,19.473s.7,23.011,2.789,36.26,6.275,26.5-9.065,29.286c-14.643,2.789-55.087,9.761-78.795,2.789-4.88-3.488,2.093-19.526,2.093-32.076S408.406,281.2,408.406,281.2Z" transform="translate(-362.463 -123.861)" fill="#8182ee"/>
          <path id="Path_758" data-name="Path 758" d="M437.986,337.45s-.869-12.157,12.157-14.763,14.763,3.474,17.368,14.763-12.84,109.744-12.84,109.744-17.045.982-20.519-1.623c0,0-3.983-68.173-1.377-84.673S437.986,337.45,437.986,337.45Z" transform="translate(-336.466 -14.828)" fill="#2b3f63"/>
          <path id="Path_759" data-name="Path 759" d="M424.8,295.092s12.157,39.079,21.276,58.184" transform="translate(-343.249 -40.639)" fill="none" stroke="#2a2e59" stroke-miterlimit="10" stroke-width="0.666"/>
          <path id="Path_760" data-name="Path 760" d="M437.448,329.775s7.382-4.342,14.764,0" transform="translate(-331.153 -9.325)" fill="none" stroke="#2a2e59" stroke-miterlimit="10" stroke-width="0.666"/>
          <path id="Path_761" data-name="Path 761" d="M436.782,331.673s6.08-3.474,16.5,3.908" transform="translate(-331.789 -6.446)" fill="none" stroke="#2a2e59" stroke-miterlimit="10" stroke-width="0.666"/>
          <path id="Path_762" data-name="Path 762" d="M413.475,327.051s4.777-4.34,15.631.434" transform="translate(-354.073 -11.811)" fill="none" stroke="#2a2e59" stroke-miterlimit="10" stroke-width="0.666"/>
          <path id="Path_763" data-name="Path 763" d="M415.251,328.942a13.056,13.056,0,0,1,13.46,1.737" transform="translate(-352.375 -9.36)" fill="none" stroke="#2a2e59" stroke-miterlimit="10" stroke-width="0.666"/>
          <line id="Line_10" data-name="Line 10" x1="2.605" y2="88.577" transform="translate(76.336 326.53)" fill="none" stroke="#2a2e59" stroke-miterlimit="10" stroke-width="0.666"/>
          <path id="Path_764" data-name="Path 764" d="M441.814,295.68s9.841,5.79,13.894-3.474" transform="translate(-326.978 -43.399)" fill="none" stroke="#2a2e59" stroke-miterlimit="10" stroke-width="0.666"/>
          <path id="Path_765" data-name="Path 765" d="M446.845,294.574s4.632,35.894,3.474,59.631" transform="translate(-322.168 -41.135)" fill="none" stroke="#2a2e59" stroke-miterlimit="10" stroke-width="0.666"/>
          <path id="Path_766" data-name="Path 766" d="M431.566,199.531s3.04,7.816,13.243,6.514" transform="translate(-336.776 -132.003)" fill="none" stroke="#e66657" stroke-miterlimit="10" stroke-width="0.666"/>
          <path id="Path_767" data-name="Path 767" d="M461.687,179.61s4.947,6.8,5.256,10.819-6.183,8.038-7.11,10.512,1.2,5.579.27,7.126a14.475,14.475,0,0,0-1.221,4.706l.319,3.5a2.514,2.514,0,0,1-2.013,2.694l-.741.147a2.241,2.241,0,0,1-2.531-1.367c-1.113-2.793-3.409-8.01-5.211-8.46-2.474-.618-4.947,3.709-5.874,5.872-.522,1.221-1.837,4.517-2.883,7.159a6.462,6.462,0,0,1-5.557,4.063c-2.674.192-5.88.325-7.059-.012-2.163-.618-13.249-21.1-13.56-30.994s6.492-19.784,13.6-22.876S448.4,166.627,461.687,179.61Z" transform="translate(-353.799 -160.321)" fill="#7e3636"/>
          <path id="Path_768" data-name="Path 768" d="M412.66,218.8c0,2.784,11.65,44.747,9.8,52.167s-6.973,59.269-6.973,59.269" transform="translate(-354.852 -113.577)" fill="none" stroke="#6060e7" stroke-miterlimit="10" stroke-width="0.666"/>
          <path id="Path_769" data-name="Path 769" d="M412.677,209.113" transform="translate(-354.836 -122.842)" fill="none" stroke="#a6d0f4" stroke-miterlimit="10" stroke-width="0.535"/>
          <path id="Path_770" data-name="Path 770" d="M446.039,170.83s6.8.26,9.152-3.138,9.937-4.184,15.428,1.307,5.229,15.69.522,19.35c0,0,5.491-1.046,6.275,2.877s-6.013,9.935-14.119,11.766c0,0-13.074-3.66-17-1.307s-30.333-.262-30.333-.262-5.753-5.231-4.184-9.937,3.14.262,3.14.262-1.309-6.537,7.322-15.95S442.9,171.615,446.039,170.83Z" transform="translate(-355.948 -165.009)" fill="#7e3636"/>
          <path id="Path_771" data-name="Path 771" d="M494.8,239.636l18.565.784s-.524,1.829-3.4,2.353-13.6,1.831-13.6,1.831Z" transform="translate(-276.319 -93.66)" fill="#eb7754"/>
          <path id="Path_772" data-name="Path 772" d="M496.643,242.045s6.275-1.047,7.582-.784,2.615,7.844,2.615,7.844l-4.969,5.231s-1.831-.784,0-3.662l1.047-1.831-7.584-2.875Z" transform="translate(-275.809 -92.147)" fill="#ff8d68"/>
          <g id="Group_194" data-name="Group 194" transform="translate(104.201 93.074)">
            <path id="Path_773" data-name="Path 773" d="M486.779,248.023l7.844-1.045s6.537-6.537,7.846-7.322,7.844,9.413,8.628,10.719c0,1.047-3.922,4.446-7.844,4.968s-5.23-.522-5.23-.522l-8.628,3.4Z" transform="translate(-388.189 -186.755)" fill="#ff8d68"/>
            <g id="Group_193" data-name="Group 193">
              <path id="Path_774" data-name="Path 774" d="M453.381,212.591s-17.517-.18-16.993,21.263,37.13,56.48,47.067,60.664,52.3-7.322,55.956-9.415,2.615-10.981-3.138-13.072l-43.405-2.093S465.665,214.338,453.381,212.591Z" transform="translate(-436.377 -212.591)" fill="#fff"/>
              <path id="Path_775" data-name="Path 775" d="M465.613,243.69s5.23,5.579,3.836,12.9" transform="translate(-408.425 -182.858)" fill="none" stroke="#a6d0f4" stroke-miterlimit="10" stroke-width="0.535"/>
              <path id="Path_776" data-name="Path 776" d="M467.039,243.156s8.716,2.789,9.415,12.2" transform="translate(-407.062 -183.368)" fill="none" stroke="#a6d0f4" stroke-miterlimit="10" stroke-width="0.535"/>
            </g>
          </g>
          <line id="Line_11" data-name="Line 11" x1="18.13" transform="translate(100.9 49.968)" fill="none" stroke="#505e83" stroke-miterlimit="10" stroke-width="0.519"/>
          <path id="Path_777" data-name="Path 777" d="M439.443,193.381s-1.232-5.344-5.753-2.877.822,15.2,4.521,14.383S440.265,195.435,439.443,193.381Z" transform="translate(-336.401 -141.256)" fill="#ff7759"/>
          <path id="Path_778" data-name="Path 778" d="M416.465,179.015s12.55-2.877,21.44,6.535" transform="translate(-351.214 -152.014)" fill="none" stroke="#663136" stroke-miterlimit="10" stroke-width="0.535"/>
          <path id="Path_779" data-name="Path 779" d="M417.311,179.746s5.4-5.753,14.643-3.312" transform="translate(-350.405 -154.663)" fill="none" stroke="#663136" stroke-miterlimit="10" stroke-width="0.535"/>
          <path id="Path_780" data-name="Path 780" d="M416.688,180.06a9.208,9.208,0,0,1,6.449,4.706" transform="translate(-351.001 -150.619)" fill="none" stroke="#663136" stroke-miterlimit="10" stroke-width="0.535"/>
          <path id="Path_781" data-name="Path 781" d="M436.115,167.316s12.552,3.924,9.675,15.428" transform="translate(-332.427 -162.804)" fill="none" stroke="#663136" stroke-miterlimit="10" stroke-width="0.535"/>
        </g>
      </g>
    </g>
  </g>
</svg>
