<svg xmlns="http://www.w3.org/2000/svg" width="531.776" height="466" viewBox="0 0 531.776 466">
  <g id="Sign-up-as-company" transform="translate(-38.207 -54.953)">
    <g id="Background_Complete" data-name="Background Complete" transform="translate(38.207 54.953)">
      <g id="Group_490" data-name="Group 490">
        <rect id="Rectangle_307" data-name="Rectangle 307" width="41.924" height="0.316" transform="translate(478.311 434.078)" fill="#ebebeb"/>
        <rect id="Rectangle_308" data-name="Rectangle 308" width="11.004" height="0.316" transform="translate(359.28 437.513)" fill="#ebebeb"/>
        <rect id="Rectangle_309" data-name="Rectangle 309" width="24.293" height="0.316" transform="translate(452.751 422.324)" fill="#ebebeb"/>
        <rect id="Rectangle_310" data-name="Rectangle 310" width="54.672" height="0.316" transform="translate(18.04 424.451)" fill="#ebebeb"/>
        <rect id="Rectangle_311" data-name="Rectangle 311" width="8.016" height="0.316" transform="translate(83.981 424.451)" fill="#ebebeb"/>
        <rect id="Rectangle_312" data-name="Rectangle 312" width="118.571" height="0.316" transform="translate(117.802 429.795)" fill="#ebebeb"/>
        <path id="Path_1316" data-name="Path 1316" d="M289.848,412.968H45.432a7.234,7.234,0,0,1-7.225-7.225V62.177a7.233,7.233,0,0,1,7.225-7.224H289.848a7.232,7.232,0,0,1,7.224,7.224V405.743A7.233,7.233,0,0,1,289.848,412.968ZM45.432,55.269a6.915,6.915,0,0,0-6.908,6.907V405.743a6.916,6.916,0,0,0,6.908,6.908H289.848a6.915,6.915,0,0,0,6.907-6.908V62.177a6.915,6.915,0,0,0-6.907-6.907Z" transform="translate(-38.207 -54.953)" fill="#ebebeb"/>
        <path id="Path_1317" data-name="Path 1317" d="M506.145,412.968H261.729a7.233,7.233,0,0,1-7.224-7.225V62.177a7.232,7.232,0,0,1,7.224-7.224H506.145a7.233,7.233,0,0,1,7.225,7.224V405.743A7.234,7.234,0,0,1,506.145,412.968ZM261.729,55.269a6.915,6.915,0,0,0-6.907,6.907V405.743a6.915,6.915,0,0,0,6.907,6.908H506.145a6.916,6.916,0,0,0,6.909-6.908V62.177a6.916,6.916,0,0,0-6.909-6.907Z" transform="translate(18.406 -54.953)" fill="#ebebeb"/>
        <rect id="Rectangle_313" data-name="Rectangle 313" transform="translate(267.641 413.862)" fill="#ebebeb"/>
      </g>
      <g id="Group_498" data-name="Group 498" transform="translate(42.957 293.177)">
        <path id="Path_1318" data-name="Path 1318" d="M372.607,383.841H86.981l-2.351-8.078H374.958Z" transform="translate(-68.827 -263.635)" fill="#e0e0e0"/>
        <g id="Group_497" data-name="Group 497">
          <g id="Group_492" data-name="Group 492">
            <rect id="Rectangle_314" data-name="Rectangle 314" width="155.535" height="53.688" transform="translate(2.716 2.406)" fill="#ebebeb"/>
            <rect id="Rectangle_315" data-name="Rectangle 315" width="155.535" height="53.688" transform="translate(2.716 56.094)" fill="#ebebeb"/>
            <rect id="Rectangle_316" data-name="Rectangle 316" width="5.432" height="155.535" transform="translate(158.251 5.231) rotate(90)" fill="#e0e0e0"/>
            <rect id="Rectangle_317" data-name="Rectangle 317" width="5.432" height="155.535" transform="translate(158.251 58.5) rotate(90)" fill="#e0e0e0"/>
            <path id="Path_1319" data-name="Path 1319" d="M72.145,287.177V399.305H233.112V287.177Zm155.536,106.7H77.576V346.109h150.1Zm0-53.2H77.576V292.915h150.1Z" transform="translate(-72.145 -287.177)" fill="#f5f5f5"/>
            <g id="Group_491" data-name="Group 491" transform="translate(160.967)">
              <rect id="Rectangle_318" data-name="Rectangle 318" width="155.535" height="53.688" transform="translate(2.715 2.406)" fill="#ebebeb"/>
              <rect id="Rectangle_319" data-name="Rectangle 319" width="155.535" height="53.688" transform="translate(2.715 56.094)" fill="#ebebeb"/>
              <rect id="Rectangle_320" data-name="Rectangle 320" width="5.432" height="155.535" transform="translate(158.251 5.231) rotate(90)" fill="#e0e0e0"/>
              <rect id="Rectangle_321" data-name="Rectangle 321" width="5.432" height="155.535" transform="translate(158.251 58.5) rotate(90)" fill="#e0e0e0"/>
              <path id="Path_1320" data-name="Path 1320" d="M199.316,287.177V399.305H360.283V287.177Zm155.535,106.7h-150.1V346.109h150.1Zm0-53.2h-150.1V292.915h150.1Z" transform="translate(-199.316 -287.177)" fill="#f5f5f5"/>
            </g>
          </g>
          <g id="Group_493" data-name="Group 493" transform="translate(236.781 28.297)">
            <path id="Path_1321" data-name="Path 1321" d="M268.551,315.245a4.669,4.669,0,1,1-4.669-4.671A4.668,4.668,0,0,1,268.551,315.245Z" transform="translate(-259.212 -309.256)" fill="#e0e0e0"/>
            <path id="Path_1322" data-name="Path 1322" d="M268.551,314.2a4.669,4.669,0,1,1-4.669-4.671A4.669,4.669,0,0,1,268.551,314.2Z" transform="translate(-259.212 -309.533)" fill="#fafafa"/>
          </g>
          <g id="Group_494" data-name="Group 494" transform="translate(236.781 77.61)">
            <path id="Path_1323" data-name="Path 1323" d="M268.551,354.2a4.669,4.669,0,1,1-4.669-4.669A4.668,4.668,0,0,1,268.551,354.2Z" transform="translate(-259.212 -348.215)" fill="#e0e0e0"/>
            <path id="Path_1324" data-name="Path 1324" d="M268.551,353.161a4.669,4.669,0,1,1-4.669-4.669A4.668,4.668,0,0,1,268.551,353.161Z" transform="translate(-259.212 -348.492)" fill="#fafafa"/>
          </g>
          <g id="Group_495" data-name="Group 495" transform="translate(75.814 28.297)">
            <path id="Path_1325" data-name="Path 1325" d="M141.38,315.245a4.669,4.669,0,1,1-4.669-4.671A4.668,4.668,0,0,1,141.38,315.245Z" transform="translate(-132.041 -309.256)" fill="#e0e0e0"/>
            <path id="Path_1326" data-name="Path 1326" d="M141.38,314.2a4.669,4.669,0,1,1-4.669-4.671A4.669,4.669,0,0,1,141.38,314.2Z" transform="translate(-132.041 -309.533)" fill="#fafafa"/>
          </g>
          <g id="Group_496" data-name="Group 496" transform="translate(75.814 77.61)">
            <path id="Path_1327" data-name="Path 1327" d="M141.38,354.2a4.669,4.669,0,1,1-4.669-4.669A4.668,4.668,0,0,1,141.38,354.2Z" transform="translate(-132.041 -348.215)" fill="#e0e0e0"/>
            <path id="Path_1328" data-name="Path 1328" d="M141.38,353.161a4.669,4.669,0,1,1-4.669-4.669A4.668,4.668,0,0,1,141.38,353.161Z" transform="translate(-132.041 -348.492)" fill="#fafafa"/>
          </g>
        </g>
      </g>
      <g id="Group_502" data-name="Group 502" transform="translate(397.246 245.471)">
        <g id="Group_499" data-name="Group 499" transform="translate(22.162 20.631)">
          <path id="Path_1329" data-name="Path 1329" d="M371.839,275.025c2.806-3.129,6.852-6.536,11.108-7.214,13.054-2.078,11.6,24.7,11.47,31.548a.95.95,0,0,0,1.9,0c.148-8.077,1.583-33.407-11.947-33.572-5.287-.063-10.508,4.144-13.871,7.895-.814.908.524,2.254,1.342,1.343Z" transform="translate(-370.244 -265.786)" fill="#e0e0e0"/>
        </g>
        <g id="Group_500" data-name="Group 500" transform="translate(51.512 13.393)">
          <path id="Path_1330" data-name="Path 1330" d="M406.276,260.082c-2.695.424-4.815,3.562-6.06,5.665-6,10.125-6.4,23.762-6.783,35.131-.042,1.221,1.858,1.22,1.9,0,.367-10.9.711-23.7,6.16-33.527,1.04-1.876,2.856-5.055,5.29-5.439,1.2-.19.692-2.019-.505-1.83Z" transform="translate(-393.432 -260.068)" fill="#e0e0e0"/>
        </g>
        <path id="Path_1331" data-name="Path 1331" d="M375.821,274.493s-11.758-19.433-20.386-1.915a29.854,29.854,0,0,0-2.7,8.8c3.61-1.585,11.307-4.5,11.413-.544.086,3.182-4.411,8.425-7.878,11.982a7.9,7.9,0,0,0-1.933,7.635,61.073,61.073,0,0,0,4.564,11.709s2.586-.981,6.383-2.788a8.335,8.335,0,0,0,4.595-5.983c.537-2.853,1.456-5.877,2.992-6.773s2.769.781,3.612,2.719a2.7,2.7,0,0,0,4.069,1.137,61.119,61.119,0,0,0,5.435-4.4,2.675,2.675,0,0,0,.311-3.611c-1.871-2.391-3.611-5.24-2.9-6.884.685-1.577,3.878-1.606,6.953-1.227a4.63,4.63,0,0,0,5.166-4.058l.006-.048C397.719,261.354,375.821,274.493,375.821,274.493Z" transform="translate(-352.735 -245.296)" fill="#ebebeb"/>
        <path id="Path_1332" data-name="Path 1332" d="M411.275,258.722s11.758-19.434,20.386-1.916a29.864,29.864,0,0,1,2.7,8.8c-3.61-1.585-11.306-4.5-11.413-.543-.086,3.181,4.411,8.424,7.878,11.982a7.9,7.9,0,0,1,1.934,7.635,61.123,61.123,0,0,1-4.566,11.71s-2.586-.981-6.382-2.79a8.327,8.327,0,0,1-4.595-5.982c-.538-2.854-1.456-5.877-2.992-6.773s-2.771.78-3.614,2.718a2.7,2.7,0,0,1-4.069,1.138,61.549,61.549,0,0,1-5.434-4.4,2.674,2.674,0,0,1-.313-3.611c1.871-2.392,3.612-5.241,2.9-6.886-.686-1.577-3.878-1.6-6.954-1.225a4.632,4.632,0,0,1-5.166-4.058l-.006-.049C389.379,245.583,411.275,258.722,411.275,258.722Z" transform="translate(-342.456 -249.487)" fill="#e6e6e6"/>
        <g id="Group_501" data-name="Group 501" transform="translate(1.809 52.32)">
          <path id="Path_1333" data-name="Path 1333" d="M354.164,373.819c0,8.558,1.342,14.092,3.6,17.642a9.342,9.342,0,0,0,7.922,4.174h12.388A9.342,9.342,0,0,0,386,391.461c2.262-3.55,3.6-9.084,3.6-17.642,0-12.411-5.411-22.347-7.179-30.281-.635-2.857,1.483-11.613,1.483-11.613H359.86s2.119,8.757,1.482,11.613C359.574,351.472,354.164,361.408,354.164,373.819Z" transform="translate(-354.164 -279.899)" fill="#e6e6e6"/>
          <path id="Path_1334" data-name="Path 1334" d="M368.164,334.513c0-10.775,16.893-6.3,21.151-23.019,1.613-6.335-12.127-20.672-12.127-20.672h42.841s-13.74,14.337-12.126,20.672c4.257,16.717,21.151,12.244,21.151,23.019,0,11.868-23.83,36.585-24.98,64.4-.1,2.487,4.482,7.641,4.482,7.641h-19.9s4.585-5.154,4.482-7.641C391.993,371.1,368.164,346.381,368.164,334.513Z" transform="translate(-350.443 -290.822)" fill="#f0f0f0"/>
          <path id="Path_1335" data-name="Path 1335" d="M423.783,352.3c-2.491-5.238,2.658-23.043,2.658-23.043H407.878s5.148,17.805,2.658,23.043c-1.758,3.7-5.757,6.058-5.757,10.432v26.292c0,6.809,5.571,7.317,12.38,7.317s12.38-.509,12.38-7.317V362.734C429.54,358.36,425.54,356,423.783,352.3Z" transform="translate(-340.713 -280.607)" fill="#e6e6e6"/>
        </g>
        <path id="Path_1336" data-name="Path 1336" d="M402.149,287.978s12.2-9.2,14.369,3.648a18.107,18.107,0,0,1-.028,6.064c-2.134-1.833-6.783-5.452-7.7-3.039-.738,1.942,1.223,6.24,2.838,9.255a4.8,4.8,0,0,1-.305,5.166,37.66,37.66,0,0,1-5.622,6.14s-1.562-1.218-3.776-3.233a5.551,5.551,0,0,1-1.871-4.777c.242-1.887.257-3.969-.6-4.886s-2.063-.175-3.054.82a2.063,2.063,0,0,1-3.029-.262,44.019,44.019,0,0,1-2.783-4,1.623,1.623,0,0,1,.556-2.3c1.792-1.032,3.592-2.376,3.453-3.559-.133-1.135-2.314-1.909-4.5-2.4a3.3,3.3,0,0,1-2.672-3.725l.006-.032C389.958,274.689,402.149,287.978,402.149,287.978Z" transform="translate(-343.532 -240.92)" fill="#e0e0e0"/>
      </g>
    </g>
    <g id="Shadow" transform="translate(54.765 492.288)">
      <ellipse id="_Path_" data-name="&lt;Path&gt;" cx="244.982" cy="14.333" rx="244.982" ry="14.333" fill="#f5f5f5"/>
    </g>
    <g id="Character_3" data-name="Character 3" transform="translate(318.497 81.397)">
      <g id="Group_531" data-name="Group 531">
        <g id="Group_503" data-name="Group 503" transform="translate(112.904 85.249)">
          <rect id="Rectangle_322" data-name="Rectangle 322" width="5.571" height="16.222" transform="translate(39.946 33.358) rotate(180)" fill="#263238"/>
          <path id="Path_1337" data-name="Path 1337" d="M364.554,151.108a8.915,8.915,0,0,1,8.959-7.911c.559-.01,4.311.018,5,0a11.11,11.11,0,0,1,1.773.1c1.825.251,3.366.414,4.82.508,1.477-.094,3.057-.257,4.945-.508.677-.09,6.04-.1,6.509-.105,4.644-.04,7.82,2.914,7.3,7.912l-.025.256c-.567,5.5-5.5,11.434-11.036,12.171a48.756,48.756,0,0,1-10.183.523,47.03,47.03,0,0,1-10.055-.523c-5.359-.738-8.831-6.669-8.046-12.173Z" transform="translate(-345.58 -143.195)" fill="#263238"/>
          <path id="Path_1338" data-name="Path 1338" d="M406.635,162.553c-.728.028-4.154-.058-5.229,0a13.217,13.217,0,0,0-2.72.448,66.336,66.336,0,0,1-12.907,2.368A58.17,58.17,0,0,1,373.455,163a11.361,11.361,0,0,0-3.419-.459c-.767.02-4.023,0-4.886,0-4.056.028-7.25,2.519-7.952,7.154q-3.833,25.309-7.665,50.619h47.3a21.717,21.717,0,0,0,12.04-3.628q2.212-23.5,4.425-46.991C413.75,164.886,410.95,162.386,406.635,162.553Z" transform="translate(-349.533 -138.056)" fill="#263238"/>
          <path id="Path_1339" data-name="Path 1339" d="M372.564,163.535a47.249,47.249,0,0,0,15.176,0c5.54-.738,10.469-6.669,11.036-12.171l.027-.256c.567-5.5-3.34-8.527-8.753-7.807a46.171,46.171,0,0,1-14.827,0c-5.236-.72-9.886,2.3-10.669,7.807l-.037.254C363.732,156.866,367.2,162.8,372.564,163.535Z" transform="translate(-345.58 -143.195)" fill="#fff" opacity="0.2"/>
          <path id="Path_1340" data-name="Path 1340" d="M398.686,163c-12.293,3.28-18.805,3.281-30.292,0-5.509-1.573-10.315.88-11.2,6.7q-3.833,25.309-7.665,50.619h47.3a21.756,21.756,0,0,0,6.738-1.072q2.333-24.773,4.666-49.547C408.784,163.88,404.581,161.428,398.686,163Z" transform="translate(-349.533 -138.056)" fill="#fff" opacity="0.2"/>
        </g>
        <g id="Group_505" data-name="Group 505" transform="translate(59.224 55.831)">
          <path id="Path_1341" data-name="Path 1341" d="M334.043,188.9l-8.72.836-13.357-3.148-4.843,7.994,3.107,1.588,4.358-1.337,6.016,1.187,5.413-.841,10.283.249Z" transform="translate(-307.123 -102.246)" fill="#ffc3bd"/>
          <path id="Path_1342" data-name="Path 1342" d="M325.6,196.3l2.071,7.454s15.041,2.045,20.947-.542,1.447-46.219-4.235-45.738-2.558,24.619-2.558,32.2C341.828,195.466,325.6,196.3,325.6,196.3Z" transform="translate(-302.212 -109.984)" fill="#3a6bea"/>
          <path id="Path_1343" data-name="Path 1343" d="M325.6,196.3l2.071,7.454s15.041,2.045,20.947-.542,1.447-46.219-4.235-45.738-2.558,24.619-2.558,32.2C341.828,195.466,325.6,196.3,325.6,196.3Z" transform="translate(-302.212 -109.984)" fill="#fff" opacity="0.7"/>
          <path id="Path_1344" data-name="Path 1344" d="M339.855,159.145c-5.7,8.148,7.4,20.936,7.668,64.133h42.26c1.23-11.668,5.6-57.393-.491-66.022C382.3,147.348,345.283,151.38,339.855,159.145Z" transform="translate(-298.806 -111.599)" fill="#3a6bea"/>
          <g id="Group_504" data-name="Group 504" transform="translate(49.93 38.35)">
            <path id="Path_1345" data-name="Path 1345" d="M351.358,151.725s-10.1,3.824-.961,12.765l4.878-2.006,7.02,2.006S380.113,144.809,351.358,151.725Z" transform="translate(-346.57 -150.252)" fill="#3a6bea"/>
            <path id="Path_1346" data-name="Path 1346" d="M351.358,151.725s-10.1,3.824-.961,12.765l4.878-2.006,7.02,2.006S380.113,144.809,351.358,151.725Z" transform="translate(-346.57 -150.252)" fill="#fff" opacity="0.7"/>
          </g>
          <path id="Path_1347" data-name="Path 1347" d="M352.272,160.571c-2.483-2.033-5.377-5.153-2.924-7.195a74.36,74.36,0,0,1,15.33-1.961c1.423.938.625,3.393-7.006,9.232A4.35,4.35,0,0,1,352.272,160.571Z" transform="translate(-296.149 -111.593)" fill="#ffc3bd"/>
          <path id="Path_1348" data-name="Path 1348" d="M349.414,150.4l8.479-9.211c.806,7.064,4.569,12.855,5.325,13.09l-.929,3.234c-10.275,11.555-12.647.462-12.647.462C352.143,155.877,349.414,150.4,349.414,150.4Z" transform="translate(-295.884 -114.311)" fill="#ffc3bd"/>
          <path id="Path_1349" data-name="Path 1349" d="M354.5,144.185l3.953-.395s-.172,11.846-8.278,12.863c1.5-2.391-.757-6.946-.757-6.946Z" transform="translate(-295.884 -113.62)" fill="#263238" opacity="0.2"/>
          <path id="Path_1350" data-name="Path 1350" d="M360.025,135.086c1.834,8.374,3.339,13.164.438,18.7a11.136,11.136,0,0,1-19.724.229c-3.853-6.807-6.212-19.356.806-25.186a11.266,11.266,0,0,1,18.48,6.258Z" transform="translate(-299.172 -118.34)" fill="#ffc3bd"/>
          <path id="Path_1351" data-name="Path 1351" d="M346.334,138.349c.2.663-.01,1.315-.453,1.419s-.932-.289-1.129-.952.005-1.325.463-1.424S346.147,137.681,346.334,138.349Z" transform="translate(-297.143 -115.324)" fill="#263238"/>
          <path id="Path_1352" data-name="Path 1352" d="M340.432,140.258c.2.665,0,1.311-.453,1.42s-.932-.289-1.133-.963.009-1.315.462-1.423S340.24,139.58,340.432,140.258Z" transform="translate(-298.713 -114.82)" fill="#263238"/>
          <path id="Path_1353" data-name="Path 1353" d="M348.065,135.941a.346.346,0,0,0,.109-.648l-.014-.01a3.95,3.95,0,0,0-3.658-.658.4.4,0,0,0-.233.518l.005.011a.4.4,0,0,0,.518.233l.011,0a3.148,3.148,0,0,1,2.85.5A.38.38,0,0,0,348.065,135.941Z" transform="translate(-297.259 -116.106)" fill="#263238"/>
          <path id="Path_1354" data-name="Path 1354" d="M337.083,139.559a.391.391,0,0,0,.229-.3,3.409,3.409,0,0,1,1.7-2.494.413.413,0,0,0-.352-.734h0a4.186,4.186,0,0,0-2.133,3.087.4.4,0,0,0,.324.467h.006A.356.356,0,0,0,337.083,139.559Z" transform="translate(-299.312 -115.687)" fill="#263238"/>
          <path id="Path_1355" data-name="Path 1355" d="M346.746,147.192a6.713,6.713,0,0,1-1.138.229.225.225,0,0,1-.261-.186v-.008a.241.241,0,0,1,.211-.254,6.244,6.244,0,0,0,4.726-3.053.231.231,0,1,1,.415.2A6.431,6.431,0,0,1,346.746,147.192Z" transform="translate(-296.966 -113.62)" fill="#263238"/>
          <path id="Path_1356" data-name="Path 1356" d="M342.456,139.707a26.318,26.318,0,0,1-1.521,6.74c1.477.727,3.338-.391,3.338-.391Z" transform="translate(-298.138 -114.705)" fill="#ed893e"/>
          <path id="Path_1357" data-name="Path 1357" d="M355.834,123.443c-26.991-5.181-19.091,16.8-19.091,16.8s.206-3.759,3.72-3.759,6.609-2.758,6.609-2.758a10.574,10.574,0,0,1-4.736,3.259,14.178,14.178,0,0,0,12.01-6.468,13.224,13.224,0,0,1,.237,1.872c0,3.091,2.506,4.763,3.759,8.968s6.268,0,6.268,0C371.627,123.33,355.834,123.443,355.834,123.443Z" transform="translate(-299.538 -119.237)" fill="#263238"/>
          <path id="Path_1358" data-name="Path 1358" d="M360.561,138.621a7.61,7.61,0,0,1-2.123,5.128c-1.756,1.789-3.771.44-4.223-1.918-.408-2.138.019-5.625,2.239-6.517S360.584,136.252,360.561,138.621Z" transform="translate(-294.645 -115.933)" fill="#ffc3bd"/>
          <path id="Path_1359" data-name="Path 1359" d="M354.162,125.383s-5.7-6.969-9.66-5.115S351.736,122.574,354.162,125.383Z" transform="translate(-297.413 -119.954)" fill="#263238"/>
          <path id="Path_1360" data-name="Path 1360" d="M357.545,190.324l-8.72.836-13.357-4.485-6.18,6.657,3.107,1.588h5.7l6.016,2.524,5.413-.841,10.283.249Z" transform="translate(-301.233 -102.223)" fill="#ffc3bd"/>
          <path id="Path_1361" data-name="Path 1361" d="M384.393,155.59c-2.8-1.914-5.807-.057-8.843,17.418-3.6,20.733-6,21.67-26.725,25.4l2.252,7.454s17.689,2.183,26.253-3.387S391.954,160.752,384.393,155.59Z" transform="translate(-296.041 -110.643)" fill="#3a6bea"/>
          <path id="Path_1362" data-name="Path 1362" d="M384.393,155.59c-2.8-1.914-5.807-.057-8.843,17.418-3.6,20.733-6,21.67-26.725,25.4l2.252,7.454s17.689,2.183,26.253-3.387S391.954,160.752,384.393,155.59Z" transform="translate(-296.041 -110.643)" fill="#fff" opacity="0.7"/>
        </g>
        <g id="Group_506" data-name="Group 506" transform="translate(6.684 153.135)">
          <path id="Path_1363" data-name="Path 1363" d="M381.273,196.828H265.615A21.752,21.752,0,0,0,268.7,202.5h112.57a2.838,2.838,0,1,0,0-5.677Z" transform="translate(-265.615 -196.828)" fill="#263238"/>
          <path id="Path_1364" data-name="Path 1364" d="M381.273,196.828H265.615A21.752,21.752,0,0,0,268.7,202.5h112.57a2.838,2.838,0,1,0,0-5.677Z" transform="translate(-265.615 -196.828)" fill="#fff" opacity="0.6"/>
          <path id="Path_1365" data-name="Path 1365" d="M285.467,210.011h92.514v-8.7H268.055A21.779,21.779,0,0,0,285.467,210.011Z" transform="translate(-264.967 -195.636)" fill="#263238"/>
          <path id="Path_1366" data-name="Path 1366" d="M285.467,210.011h92.514v-8.7H268.055A21.779,21.779,0,0,0,285.467,210.011Z" transform="translate(-264.967 -195.636)" fill="#fff" opacity="0.4"/>
        </g>
        <g id="Group_509" data-name="Group 509" transform="translate(21.984 113.095)">
          <path id="Path_1367" data-name="Path 1367" d="M357.45,193.919h-67.4a1.841,1.841,0,0,0,0,3.682h67.4a1.841,1.841,0,0,0,0-3.682Z" transform="translate(-274.911 -157.561)" fill="#263238"/>
          <path id="Path_1368" data-name="Path 1368" d="M357.45,193.919h-67.4a1.841,1.841,0,0,0,0,3.682h67.4a1.841,1.841,0,0,0,0-3.682Z" transform="translate(-274.911 -157.561)" fill="#fff" opacity="0.3"/>
          <g id="Group_507" data-name="Group 507" transform="translate(1.111)">
            <path id="Path_1369" data-name="Path 1369" d="M293.606,204.109h23.039a.871.871,0,0,0,.823-1.159l-12.634-36.094a2.48,2.48,0,0,0-2.34-1.661H279.453a.872.872,0,0,0-.823,1.159l12.635,36.094A2.48,2.48,0,0,0,293.606,204.109Z" transform="translate(-278.581 -165.195)" fill="#263238"/>
            <path id="Path_1370" data-name="Path 1370" d="M293.606,204.109h23.039a.871.871,0,0,0,.823-1.159l-12.634-36.094a2.48,2.48,0,0,0-2.34-1.661H279.453a.872.872,0,0,0-.823,1.159l12.635,36.094A2.48,2.48,0,0,0,293.606,204.109Z" transform="translate(-278.581 -165.195)" fill="#fff" opacity="0.5"/>
          </g>
          <g id="Group_508" data-name="Group 508">
            <path id="Path_1371" data-name="Path 1371" d="M292.728,204.109h23.039a.871.871,0,0,0,.823-1.159l-12.635-36.094a2.478,2.478,0,0,0-2.339-1.661H278.575a.872.872,0,0,0-.823,1.159l12.635,36.094A2.479,2.479,0,0,0,292.728,204.109Z" transform="translate(-277.703 -165.195)" fill="#263238"/>
            <path id="Path_1372" data-name="Path 1372" d="M292.728,204.109h23.039a.871.871,0,0,0,.823-1.159l-12.635-36.094a2.478,2.478,0,0,0-2.339-1.661H278.575a.872.872,0,0,0-.823,1.159l12.635,36.094A2.479,2.479,0,0,0,292.728,204.109Z" transform="translate(-277.703 -165.195)" fill="#fff" opacity="0.7"/>
          </g>
          <path id="Path_1373" data-name="Path 1373" d="M291.625,181.093c.295,1.383,1.251,2.5,2.137,2.5s1.366-1.121,1.072-2.5-1.251-2.5-2.137-2.5S291.331,179.709,291.625,181.093Z" transform="translate(-274.026 -161.635)" fill="#fff"/>
          <path id="Path_1374" data-name="Path 1374" d="M311.378,197.6a1.841,1.841,0,0,1,0-3.682h40.4a1.841,1.841,0,0,1,0,3.682Z" transform="translate(-269.242 -157.561)" fill="#fff" opacity="0.2"/>
        </g>
        <g id="Group_527" data-name="Group 527" transform="translate(12.867 39.807)">
          <g id="Group_510" data-name="Group 510" transform="translate(5.702 52.626)">
            <rect id="Rectangle_323" data-name="Rectangle 323" width="4.621" height="10.065" fill="#3a6bea"/>
            <rect id="Rectangle_324" data-name="Rectangle 324" width="4.621" height="10.065" transform="translate(55.337)" fill="#3a6bea"/>
          </g>
          <g id="Group_525" data-name="Group 525" transform="translate(11.202)">
            <g id="Group_521" data-name="Group 521" transform="translate(13.909 9.059)">
              <g id="Group_515" data-name="Group 515">
                <g id="Group_511" data-name="Group 511" transform="translate(6.06)">
                  <path id="Path_1375" data-name="Path 1375" d="M301.862,138.561l-.542-.035c1.091-16.162-1.314-21.413-3.524-22.971a2.649,2.649,0,0,0-2.456-.43l-.215-.5a3.171,3.171,0,0,1,2.983.484C300.433,116.75,302.97,122.149,301.862,138.561Z" transform="translate(-295.126 -114.451)" fill="#3a6bea"/>
                </g>
                <g id="Group_512" data-name="Group 512" transform="translate(9.65 0.69)">
                  <path id="Path_1376" data-name="Path 1376" d="M298.038,136.782c-.533-13.749,1.851-18.879,3.944-20.76A3.29,3.29,0,0,1,304.468,115l-.077.537a2.8,2.8,0,0,0-2.076.911c-1.992,1.82-4.257,6.821-3.734,20.308Z" transform="translate(-297.962 -114.996)" fill="#3a6bea"/>
                </g>
                <g id="Group_513" data-name="Group 513" transform="translate(0 7.474)">
                  <path id="Path_1377" data-name="Path 1377" d="M302.382,135.365l-.542-.037c.56-8.26-.459-13.175-2.948-14.214-3.247-1.356-8.1,4.076-8.146,4.13l-.408-.359c.209-.237,5.157-5.776,8.763-4.271C301.863,121.767,302.966,126.73,302.382,135.365Z" transform="translate(-290.338 -120.355)" fill="#3a6bea"/>
                </g>
                <g id="Group_514" data-name="Group 514" transform="translate(10.675 13.274)">
                  <path id="Path_1378" data-name="Path 1378" d="M298.772,134.672c-.005-5.077,1.051-8.207,3.135-9.306,2.348-1.237,5.059.592,5.173.671l-.308.447c-.025-.016-2.559-1.724-4.615-.637-1.891,1-2.848,3.967-2.843,8.824Z" transform="translate(-298.772 -124.938)" fill="#3a6bea"/>
                </g>
              </g>
              <g id="Group_520" data-name="Group 520" opacity="0.2">
                <g id="Group_516" data-name="Group 516" transform="translate(6.06)">
                  <path id="Path_1379" data-name="Path 1379" d="M301.862,138.561l-.542-.035c1.091-16.162-1.314-21.413-3.524-22.971a2.649,2.649,0,0,0-2.456-.43l-.215-.5a3.171,3.171,0,0,1,2.983.484C300.433,116.75,302.97,122.149,301.862,138.561Z" transform="translate(-295.126 -114.451)"/>
                </g>
                <g id="Group_517" data-name="Group 517" transform="translate(9.65 0.69)">
                  <path id="Path_1380" data-name="Path 1380" d="M298.038,136.782c-.533-13.749,1.851-18.879,3.944-20.76A3.29,3.29,0,0,1,304.468,115l-.077.537a2.8,2.8,0,0,0-2.076.911c-1.992,1.82-4.257,6.821-3.734,20.308Z" transform="translate(-297.962 -114.996)"/>
                </g>
                <g id="Group_518" data-name="Group 518" transform="translate(0 7.474)">
                  <path id="Path_1381" data-name="Path 1381" d="M302.382,135.365l-.542-.037c.56-8.26-.459-13.175-2.948-14.214-3.247-1.356-8.1,4.076-8.146,4.13l-.408-.359c.209-.237,5.157-5.776,8.763-4.271C301.863,121.767,302.966,126.73,302.382,135.365Z" transform="translate(-290.338 -120.355)"/>
                </g>
                <g id="Group_519" data-name="Group 519" transform="translate(10.675 13.274)">
                  <path id="Path_1382" data-name="Path 1382" d="M298.772,134.672c-.005-5.077,1.051-8.207,3.135-9.306,2.348-1.237,5.059.592,5.173.671l-.308.447c-.025-.016-2.559-1.724-4.615-.637-1.891,1-2.848,3.967-2.843,8.824Z" transform="translate(-298.772 -124.938)"/>
                </g>
              </g>
            </g>
            <path id="Path_1383" data-name="Path 1383" d="M289.08,131.478l2.333,13.251a6.347,6.347,0,0,0,6.252,5.248h9.267a6.348,6.348,0,0,0,6.253-5.248l2.331-13.251Z" transform="translate(-276.763 -100.867)" fill="#263238"/>
            <path id="Path_1384" data-name="Path 1384" d="M289.08,131.478l2.333,13.251a6.347,6.347,0,0,0,6.252,5.248h9.267a6.348,6.348,0,0,0,6.253-5.248l2.331-13.251Z" transform="translate(-276.763 -100.867)" fill="#fff" opacity="0.3"/>
            <g id="Group_522" data-name="Group 522">
              <path id="Path_1385" data-name="Path 1385" d="M300.506,116.672s5.5-9.241-4.178-9.377a14.637,14.637,0,0,0-4.122.568c1.244.857,3.291,2.423,2.249,2.819-1.089.415-5.015-.375-6.912-.8a30.644,30.644,0,0,0-8.193,7.382,54.112,54.112,0,0,0,6.25,4.991c.966-.959,2.425-2.167,3.254-1.687s1.733,3.056,2.286,4.888a19.956,19.956,0,0,0,5.739,1.778c-.052-1.476-.021-3.868.689-4.247.73-.389,3.273,2.063,4.716,3.55C309.673,123.346,300.506,116.672,300.506,116.672Z" transform="translate(-279.349 -107.294)" fill="#3a6bea"/>
              <path id="Path_1386" data-name="Path 1386" d="M300.506,116.672s5.5-9.241-4.178-9.377a14.637,14.637,0,0,0-4.122.568c1.244.857,3.291,2.423,2.249,2.819-1.089.415-5.015-.375-6.912-.8a30.644,30.644,0,0,0-8.193,7.382,54.112,54.112,0,0,0,6.25,4.991c.966-.959,2.425-2.167,3.254-1.687s1.733,3.056,2.286,4.888a19.956,19.956,0,0,0,5.739,1.778c-.052-1.476-.021-3.868.689-4.247.73-.389,3.273,2.063,4.716,3.55C309.673,123.346,300.506,116.672,300.506,116.672Z" transform="translate(-279.349 -107.294)" fill="#fff" opacity="0.1"/>
              <path id="Path_1387" data-name="Path 1387" d="M300.506,116.672s5.5-9.241-4.178-9.377a14.637,14.637,0,0,0-4.122.568c1.244.857,3.291,2.423,2.249,2.819-1.089.415-5.015-.375-6.912-.8a30.644,30.644,0,0,0-8.193,7.382C289.9,112.787,300.506,116.672,300.506,116.672Z" transform="translate(-279.349 -107.294)" fill="#fff" opacity="0.3"/>
            </g>
            <g id="Group_523" data-name="Group 523" transform="translate(26.439 2.657)">
              <path id="Path_1388" data-name="Path 1388" d="M306.4,122.366c1.024-.292,2.286,1.739,2.943,2.964a22.289,22.289,0,0,0,5.814-3.763c-.47-1.034-1-2.458-.666-3,.349-.567,2.183-.116,3.491.294a42.078,42.078,0,0,0,3.338-3.974,26.635,26.635,0,0,0-3.185-2.206c-1.9.215-4.581.386-5.235-.268-.7-.7.795-1.206,1.847-1.466a20.449,20.449,0,0,0-5.547-1.548c-.251.861-.8,2.185-1.832,2.185-.958,0-2.1-1.151-2.811-2-7.929,1.709-1.634,7.383-1.634,7.383s-6.826,8.1,1.285,9.183C304.638,124.748,305.437,122.64,306.4,122.366Z" transform="translate(-300.237 -109.393)" fill="#3a6bea"/>
              <path id="Path_1389" data-name="Path 1389" d="M306.4,122.366c1.024-.292,2.286,1.739,2.943,2.964a22.289,22.289,0,0,0,5.814-3.763c-.47-1.034-1-2.458-.666-3,.349-.567,2.183-.116,3.491.294a42.078,42.078,0,0,0,3.338-3.974,26.635,26.635,0,0,0-3.185-2.206c-1.9.215-4.581.386-5.235-.268-.7-.7.795-1.206,1.847-1.466a20.449,20.449,0,0,0-5.547-1.548c-.251.861-.8,2.185-1.832,2.185-.958,0-2.1-1.151-2.811-2-7.929,1.709-1.634,7.383-1.634,7.383s-6.826,8.1,1.285,9.183C304.638,124.748,305.437,122.64,306.4,122.366Z" transform="translate(-300.237 -109.393)" fill="#fff" opacity="0.2"/>
              <path id="Path_1390" data-name="Path 1390" d="M312.833,112.407c-.7-.7.795-1.206,1.847-1.466a20.449,20.449,0,0,0-5.547-1.548c-.251.861-.8,2.185-1.832,2.185-.958,0-2.1-1.151-2.811-2-7.929,1.709-1.634,7.383-1.634,7.383s10.289-3.753,18.4-2.077a26.635,26.635,0,0,0-3.185-2.206C316.171,112.89,313.488,113.061,312.833,112.407Z" transform="translate(-300.17 -109.393)" fill="#fff" opacity="0.3"/>
            </g>
            <path id="Path_1391" data-name="Path 1391" d="M318.162,127.11c-1.108.6-3.216,1.554-4.066.7-.921-.921.448-4.425,1.085-5.9a10.127,10.127,0,0,0-3.639-2.885c-8.613-3.824-5.687,8.55-5.687,8.55s-10.873,2.62-3.858,9.288a13.985,13.985,0,0,0,1.618,1.316c.544-1.3,1.6-3.4,2.667-3.107,1.043.285.656,3.039.31,4.743a21.729,21.729,0,0,0,5.72,1.476c.252-1.209.733-2.8,1.508-2.761.818.046,1.9,1.786,2.549,2.978a29.079,29.079,0,0,0,4.866-.442A50.5,50.5,0,0,0,318.162,127.11Z" transform="translate(-273.957 -104.371)" fill="#3a6bea"/>
            <path id="Path_1392" data-name="Path 1392" d="M305.855,125.629s-10.873,2.62-3.858,9.288a13.985,13.985,0,0,0,1.618,1.316c.544-1.3,1.6-3.4,2.667-3.107,1.043.285.656,3.039.31,4.743a21.729,21.729,0,0,0,5.72,1.476c.252-1.209.733-2.8,1.508-2.761.818.046,1.9,1.786,2.549,2.978a29.079,29.079,0,0,0,4.866-.442A25.817,25.817,0,0,0,305.855,125.629Z" transform="translate(-273.957 -102.421)" fill="#fff" opacity="0.2"/>
            <g id="Group_524" data-name="Group 524" transform="translate(3.571 16.003)">
              <path id="Path_1393" data-name="Path 1393" d="M293.612,124.514s-5.828-9.632-10.1-.949a14.81,14.81,0,0,0-1.338,4.359c1.79-.785,5.6-2.229,5.657-.27.058,2.134-4.043,6.138-5.41,7.412a30.92,30.92,0,0,0,2.81,8.113,52.244,52.244,0,0,0,5.163-2.382c.156-1.553.606-4.649,1.761-5.321,1.214-.709,2.026,1.8,2.324,2.93a30.84,30.84,0,0,0,5.088-4.077c-1.116-1.273-2.644-3.285-2.192-4.324.495-1.139,3.635-.647,5.381-.276a9.031,9.031,0,0,0,.629-2.367C304.465,118,293.612,124.514,293.612,124.514Z" transform="translate(-282.17 -119.937)" fill="#3a6bea"/>
              <path id="Path_1394" data-name="Path 1394" d="M284.585,142.682a52.241,52.241,0,0,0,5.163-2.382c.156-1.553.606-4.649,1.761-5.321,1.214-.709,2.026,1.8,2.324,2.93a30.842,30.842,0,0,0,5.088-4.077c-1.116-1.273-2.644-3.285-2.192-4.324.495-1.139,3.635-.647,5.381-.276a9.03,9.03,0,0,0,.629-2.367c1.085-9.362-9.768-2.849-9.768-2.849S286.548,129.994,284.585,142.682Z" transform="translate(-281.528 -119.439)" fill="#fff" opacity="0.2"/>
            </g>
          </g>
          <g id="Group_526" data-name="Group 526" transform="translate(0 48.012)">
            <rect id="Rectangle_325" data-name="Rectangle 325" width="71.362" height="5.679" fill="#3a6bea"/>
            <rect id="Rectangle_326" data-name="Rectangle 326" width="71.362" height="5.679" fill="#fff" opacity="0.3"/>
          </g>
        </g>
        <g id="Group_528" data-name="Group 528">
          <path id="Path_1395" data-name="Path 1395" d="M420.538,75.845H287.519a27.216,27.216,0,0,0-27.185,27.185V221.518A27.216,27.216,0,0,0,287.519,248.7H420.538a27.216,27.216,0,0,0,27.185-27.185V103.03A27.216,27.216,0,0,0,420.538,75.845Zm21.837,145.673a21.837,21.837,0,0,1-21.837,21.837H287.519a21.837,21.837,0,0,1-21.837-21.837V103.03a21.837,21.837,0,0,1,21.837-21.837H420.538a21.837,21.837,0,0,1,21.837,21.837Z" transform="translate(-260.334 -75.845)" fill="#3a6bea"/>
          <path id="Path_1396" data-name="Path 1396" d="M420.538,75.845H287.519a27.216,27.216,0,0,0-27.185,27.185V221.518A27.216,27.216,0,0,0,287.519,248.7H420.538a27.216,27.216,0,0,0,27.185-27.185V103.03A27.216,27.216,0,0,0,420.538,75.845Zm21.837,145.673a21.837,21.837,0,0,1-21.837,21.837H287.519a21.837,21.837,0,0,1-21.837-21.837V103.03a21.837,21.837,0,0,1,21.837-21.837H420.538a21.837,21.837,0,0,1,21.837,21.837Z" transform="translate(-260.334 -75.845)" fill="#fff" opacity="0.4"/>
        </g>
        <g id="Group_529" data-name="Group 529" transform="translate(123.969 31.458)">
          <rect id="Rectangle_327" data-name="Rectangle 327" width="23.123" height="9.393" rx="2.548" transform="translate(0 11.62)" fill="#3a6bea"/>
          <rect id="Rectangle_328" data-name="Rectangle 328" width="23.123" height="9.393" rx="2.548" transform="translate(14.534)" fill="#3a6bea"/>
          <rect id="Rectangle_329" data-name="Rectangle 329" width="23.123" height="9.393" rx="2.548" transform="translate(9.312 23.24)" fill="#3a6bea"/>
          <rect id="Rectangle_330" data-name="Rectangle 330" width="23.123" height="9.393" rx="2.548" transform="translate(26.095 11.62)" fill="#3a6bea"/>
          <rect id="Rectangle_331" data-name="Rectangle 331" width="23.123" height="9.393" rx="2.548" transform="translate(0 11.62)" fill="#fff" opacity="0.7"/>
          <rect id="Rectangle_332" data-name="Rectangle 332" width="23.123" height="9.393" rx="2.548" transform="translate(14.534)" fill="#fff" opacity="0.8"/>
          <rect id="Rectangle_333" data-name="Rectangle 333" width="23.123" height="9.393" rx="2.548" transform="translate(9.312 23.24)" fill="#fff" opacity="0.8"/>
          <rect id="Rectangle_334" data-name="Rectangle 334" width="23.123" height="9.393" rx="2.548" transform="translate(26.095 11.62)" fill="#fff" opacity="0.7"/>
        </g>
        <g id="Group_530" data-name="Group 530" transform="translate(73.153 20.951)">
          <rect id="Rectangle_335" data-name="Rectangle 335" width="23.123" height="9.393" rx="2.548" transform="translate(49.218 9.393) rotate(180)" fill="#3a6bea"/>
          <rect id="Rectangle_336" data-name="Rectangle 336" width="23.123" height="9.393" rx="2.548" transform="translate(39.906 21.013) rotate(180)" fill="#3a6bea"/>
          <rect id="Rectangle_337" data-name="Rectangle 337" width="23.123" height="9.393" rx="2.548" transform="translate(23.123 9.393) rotate(180)" fill="#3a6bea"/>
          <rect id="Rectangle_338" data-name="Rectangle 338" width="23.123" height="9.393" rx="2.548" transform="translate(49.218 9.393) rotate(180)" fill="#fff" opacity="0.8"/>
          <rect id="Rectangle_339" data-name="Rectangle 339" width="23.123" height="9.393" rx="2.548" transform="translate(39.906 21.013) rotate(180)" fill="#fff" opacity="0.8"/>
          <rect id="Rectangle_340" data-name="Rectangle 340" width="23.123" height="9.393" rx="2.548" transform="translate(23.123 9.393) rotate(180)" fill="#fff" opacity="0.7"/>
        </g>
      </g>
    </g>
    <g id="Character_1" data-name="Character 1" transform="translate(106.105 109.148)">
      <g id="Group_546" data-name="Group 546">
        <g id="Group_535" data-name="Group 535" transform="translate(86.774 25.802)">
          <rect id="Rectangle_341" data-name="Rectangle 341" width="75.762" height="85.572" transform="translate(6.072)" fill="#263238"/>
          <g id="Group_532" data-name="Group 532" transform="translate(0 85.572)">
            <rect id="Rectangle_342" data-name="Rectangle 342" width="87.906" height="6.902" fill="#263238"/>
          </g>
          <g id="Group_533" data-name="Group 533" transform="translate(0 85.572)" opacity="0.4">
            <rect id="Rectangle_343" data-name="Rectangle 343" width="87.906" height="6.902" fill="#fff"/>
          </g>
          <rect id="Rectangle_344" data-name="Rectangle 344" width="75.762" height="85.572" transform="translate(6.072)" fill="#fff" opacity="0.6"/>
          <rect id="Rectangle_345" data-name="Rectangle 345" width="65.066" height="74.876" transform="translate(11.42 5.348)" fill="#fff" opacity="0.5"/>
          <g id="Group_534" data-name="Group 534" transform="translate(11.42 5.348)" opacity="0.2">
            <path id="Path_1397" data-name="Path 1397" d="M169.426,122.379v74.876h.465l17.887-74.876Z" transform="translate(-169.426 -122.379)" fill="#fff"/>
            <path id="Path_1398" data-name="Path 1398" d="M217.977,122.379H214.63l-17.887,74.876h3.348Z" transform="translate(-162.167 -122.379)" fill="#fff"/>
            <path id="Path_1399" data-name="Path 1399" d="M214.012,122.379H199.974l-17.887,74.876h14.038Z" transform="translate(-166.062 -122.379)" fill="#fff"/>
          </g>
        </g>
        <g id="Group_536" data-name="Group 536" transform="translate(6.748 78.271)">
          <path id="Path_1400" data-name="Path 1400" d="M139.5,176.135c-2.569.186-5.815-1.876-7.392-4.557-.495-.842-.746-1.261-1.258-2.1-3.658-5.969-11.675-10.251-17.209-9.85l-1.389.1-3.888.282-1.387.1c-5.534.4-6.787,5.355-3.5,11.353.459.838.686,1.259,1.129,2.1,1.411,2.692.361,5.067-2.207,5.253-4.435.322-6.3,4.414-4.588,9.255,5.626,19.932,7.172,36.749,5.014,54.957a21.732,21.732,0,0,0,14.794,5.809h44.938c1.738-22.808-1.537-41.817-10.6-64.69C149.7,179.353,143.932,175.814,139.5,176.135Z" transform="translate(-97.18 -159.606)" fill="#3a6bea"/>
          <path id="Path_1401" data-name="Path 1401" d="M139.5,176.135c-2.569.186-5.815-1.876-7.392-4.557-.495-.842-.746-1.261-1.258-2.1-3.658-5.969-11.675-10.251-17.209-9.85l-1.389.1-3.888.282-1.387.1c-5.534.4-6.787,5.355-3.5,11.353.459.838.686,1.259,1.129,2.1,1.411,2.692.361,5.067-2.207,5.253-4.435.322-6.3,4.414-4.588,9.255,5.626,19.932,7.172,36.749,5.014,54.957a21.732,21.732,0,0,0,14.794,5.809h44.938c1.738-22.808-1.537-41.817-10.6-64.69C149.7,179.353,143.932,175.814,139.5,176.135Z" transform="translate(-97.18 -159.606)" opacity="0.1"/>
          <path id="Path_1402" data-name="Path 1402" d="M138.332,176.135c-2.569.186-5.815-1.876-7.392-4.557-.495-.842-.746-1.261-1.258-2.1-3.658-5.969-11.675-10.251-17.209-9.85l-1.389.1c-5.534.4-6.727,5.352-3.366,11.342.47.838.7,1.258,1.153,2.1,1.446,2.691.42,5.063-2.148,5.25-4.435.32-6.253,4.41-4.486,9.248,6.295,21.413,7.84,39.25,5.116,59.166a21.728,21.728,0,0,0,9.1,2h44.938c1.738-22.808-1.537-41.817-10.6-64.69C148.534,179.353,142.766,175.814,138.332,176.135Z" transform="translate(-96.014 -159.606)" opacity="0.2"/>
        </g>
        <g id="Group_540" data-name="Group 540" transform="translate(23.116 57.554)">
          <g id="Group_538" data-name="Group 538" transform="translate(44.416 43.684)">
            <g id="Group_537" data-name="Group 537" transform="translate(0.524 16.151)">
              <path id="Path_1403" data-name="Path 1403" d="M157.024,190.511s-1.963,25.938,4.545,25.671,19.318-.175,19.318-.175l10.577-4.729a1.5,1.5,0,0,1,1.666.3l4.792,4.752a1.5,1.5,0,0,1-1.094,2.559l-2.929-.076a22.155,22.155,0,0,1-12.9,2.469c1.51-.465-26.769,4.79-29.676.78-3.977-5.49-5.711-28.411-5.711-28.411Z" transform="translate(-145.616 -190.511)" fill="#b55b52"/>
              <path id="Path_1404" data-name="Path 1404" d="M157.024,190.511s-1.963,25.938,4.545,25.671,19.318-.175,19.318-.175l10.577-4.729a1.5,1.5,0,0,1,1.666.3l4.792,4.752a1.5,1.5,0,0,1-1.094,2.559l-2.929-.076a22.155,22.155,0,0,1-12.9,2.469c1.51-.465-26.769,4.79-29.676.78-3.977-5.49-5.711-28.411-5.711-28.411Z" transform="translate(-145.616 -190.511)" opacity="0.1"/>
            </g>
            <path id="Path_1405" data-name="Path 1405" d="M151.006,177.753c4.41-.133,9.384,5.587,7.189,20.8l-12.122,2.34S142.135,178.023,151.006,177.753Z" transform="translate(-145.202 -177.751)" fill="#263238"/>
            <path id="Path_1406" data-name="Path 1406" d="M151.006,177.753c4.41-.133,9.384,5.587,7.189,20.8l-12.122,2.34S142.135,178.023,151.006,177.753Z" transform="translate(-145.202 -177.751)" opacity="0.2"/>
          </g>
          <path id="Path_1407" data-name="Path 1407" d="M115.568,179.18c-6.631,8.545-5.544,53.486-5.12,65.679a21.844,21.844,0,0,0,3.733.343h38.54c3.29-43.2,17.278-55.987,12.151-64.135C159.987,173.3,123.256,169.272,115.568,179.18Z" transform="translate(-110.111 -135.246)" fill="#263238"/>
          <g id="Group_539" data-name="Group 539" transform="translate(27.247)">
            <path id="Path_1408" data-name="Path 1408" d="M141.839,184.513s9.606-5.968,5.709-9.212a74.366,74.366,0,0,0-15.331-1.961C130.645,174.375,131.782,177.261,141.839,184.513Z" transform="translate(-131.637 -135.24)" fill="#b55b52"/>
            <path id="Path_1409" data-name="Path 1409" d="M146.843,172.321l-8.479-9.211c-.806,7.065-4.569,12.855-5.324,13.092l.928,3.234c10.275,11.555,12.649.462,12.649.462C144.114,177.8,146.843,172.321,146.843,172.321Z" transform="translate(-131.265 -137.958)" fill="#b55b52"/>
            <path id="Path_1410" data-name="Path 1410" d="M140.76,166.109l-3.953-.395s.172,11.846,8.278,12.863c-1.5-2.391.757-6.948.757-6.948Z" transform="translate(-130.264 -137.266)" fill="#263238" opacity="0.2"/>
            <path id="Path_1411" data-name="Path 1411" d="M138.593,157.01c-1.834,8.373-3.339,13.163-.438,18.7a11.135,11.135,0,0,0,19.724.23c3.853-6.808,6.212-19.356-.806-25.186a11.266,11.266,0,0,0-18.48,6.258Z" transform="translate(-130.338 -141.987)" fill="#b55b52"/>
            <path id="Path_1412" data-name="Path 1412" d="M147.39,160.273c-.2.663.009,1.315.452,1.419s.933-.289,1.129-.953-.005-1.325-.463-1.423S147.576,159.6,147.39,160.273Z" transform="translate(-127.471 -138.971)" fill="#263238"/>
            <path id="Path_1413" data-name="Path 1413" d="M153.292,162.182c-.2.665,0,1.311.453,1.419s.932-.289,1.133-.962-.009-1.315-.462-1.424S153.484,161.5,153.292,162.182Z" transform="translate(-125.903 -138.467)" fill="#263238"/>
            <path id="Path_1414" data-name="Path 1414" d="M146.152,157.865a.347.347,0,0,1-.109-.648l.014-.01a3.954,3.954,0,0,1,3.658-.659.4.4,0,0,1,.233.519l-.005.011a.4.4,0,0,1-.518.233l-.011-.005a3.145,3.145,0,0,0-2.85.5A.38.38,0,0,1,146.152,157.865Z" transform="translate(-127.85 -139.753)" fill="#263238"/>
            <path id="Path_1415" data-name="Path 1415" d="M156.836,161.483a.4.4,0,0,1-.229-.3,3.407,3.407,0,0,0-1.695-2.494.412.412,0,0,1,.351-.734h0a4.189,4.189,0,0,1,2.134,3.087.4.4,0,0,1-.325.466h-.006A.357.357,0,0,1,156.836,161.483Z" transform="translate(-125.499 -139.333)" fill="#263238"/>
            <path id="Path_1416" data-name="Path 1416" d="M147.742,169.116a6.834,6.834,0,0,0,1.138.229.227.227,0,0,0,.262-.186v-.008a.242.242,0,0,0-.213-.254,6.247,6.247,0,0,1-4.726-3.054.231.231,0,1,0-.415.2A6.434,6.434,0,0,0,147.742,169.116Z" transform="translate(-128.414 -137.266)" fill="#263238"/>
            <path id="Path_1417" data-name="Path 1417" d="M151.6,161.631a26.261,26.261,0,0,0,1.52,6.74c-1.477.725-3.338-.391-3.338-.391Z" transform="translate(-126.814 -138.351)" fill="#a02724"/>
            <path id="Path_1418" data-name="Path 1418" d="M139.91,162.932s8.132.084,5.792-4.6c0,0,11.28,2.173,9.359-2.089,0,0,7.639,6.007,5.664.334,0,0,5.2,4.429,5.366,1.587s-2.695-4.66-2.695-4.66,6.348-5.157-2.854-5.147c0,0,2.183-7.74-8.324-1.557,0,0,1.4-8.022-6.433,0,0,0-10.615.084-8.107,3.594,0,0-6.683,2.172-2.5,4.512,0,0-5.087,4.6-1.375,6.478,0,0-4.809,6.615,2.21,5.792,0,0-2.506,6.112.585,4.859S139.91,162.932,139.91,162.932Z" transform="translate(-131.49 -143.239)" fill="#263238"/>
            <path id="Path_1419" data-name="Path 1419" d="M134.159,160.545a7.6,7.6,0,0,0,2.123,5.126c1.756,1.79,3.771.442,4.223-1.916.409-2.138-.019-5.626-2.239-6.517S134.136,158.176,134.159,160.545Z" transform="translate(-130.967 -139.58)" fill="#b55b52"/>
          </g>
          <path id="Path_1420" data-name="Path 1420" d="M153.29,229.245q.564-3.868,1.227-7.331l-4.035-.808-22.395-13.2-8.021-18.55-3.343-7.187-3.139,1.672s-.035,37.142,15.674,43.89C135.868,230.569,144.248,229.677,153.29,229.245Z" transform="translate(-109.189 -132.894)" opacity="0.3"/>
          <path id="Path_1421" data-name="Path 1421" d="M126.746,189.429s4.6,22.928,18.918,25.5,16.5,2.526,16.5,2.526l11.608-3.786a1.738,1.738,0,0,1,1.911.585l2.933,3.764a1.74,1.74,0,0,1-1.261,2.8l-4.964.32a12.631,12.631,0,0,1-9.762,2.621s-23.222,2.544-31.316-2.11-14.5-23.69-14.5-23.69Z" transform="translate(-108.331 -130.964)" fill="#b55b52"/>
          <path id="Path_1422" data-name="Path 1422" d="M117.335,207.64s-8.125-26.026-.462-30.167S129.591,191.6,131.485,198.5Z" transform="translate(-109.189 -134.301)" fill="#263238"/>
        </g>
        <g id="Group_543" data-name="Group 543" transform="translate(79.598 90.746)">
          <g id="Group_541" data-name="Group 541" transform="translate(0 57.071)">
            <path id="Path_1423" data-name="Path 1423" d="M182.769,214.55l-28.034,1.337v3.981h46.083V214.55Z" transform="translate(-154.735 -214.55)" fill="#3a6bea"/>
            <path id="Path_1424" data-name="Path 1424" d="M182.769,219.869H154.735v-3.981l28.034-1.337Z" transform="translate(-154.735 -214.55)" fill="#fff" opacity="0.3"/>
            <rect id="Rectangle_346" data-name="Rectangle 346" width="18.049" height="5.318" transform="translate(28.034)" fill="#fff" opacity="0.6"/>
          </g>
          <g id="Group_542" data-name="Group 542" transform="translate(30.431)">
            <path id="Path_1425" data-name="Path 1425" d="M238,218.144H178.777l5.977-48.682h59.219Z" transform="translate(-178.777 -169.462)" fill="#3a6bea"/>
            <path id="Path_1426" data-name="Path 1426" d="M238,218.144H178.777l5.977-48.682h59.219Z" transform="translate(-178.777 -169.462)" fill="#fff" opacity="0.3"/>
            <path id="Path_1427" data-name="Path 1427" d="M187.451,169.462l-5.977,48.682h55.806l5.978-48.682Z" transform="translate(-178.06 -169.462)" fill="#3a6bea"/>
            <path id="Path_1428" data-name="Path 1428" d="M187.451,169.462l-5.977,48.682h55.806l5.978-48.682Z" transform="translate(-178.06 -169.462)" fill="#fff" opacity="0.6"/>
            <path id="Path_1429" data-name="Path 1429" d="M213.245,222.855h-12.6l-1.266-20.088h10.2Z" transform="translate(-173.301 -160.611)" fill="#3a6bea"/>
            <path id="Path_1430" data-name="Path 1430" d="M213.245,222.855h-12.6l-1.266-20.088h10.2Z" transform="translate(-173.301 -160.611)" fill="#fff" opacity="0.3"/>
            <path id="Path_1431" data-name="Path 1431" d="M215.018,222.855h-12.6l-1.266-20.088h10.2Z" transform="translate(-172.829 -160.611)" fill="#3a6bea"/>
            <path id="Path_1432" data-name="Path 1432" d="M215.018,222.855h-12.6l-1.266-20.088h10.2Z" transform="translate(-172.829 -160.611)" fill="#fff" opacity="0.5"/>
            <path id="Path_1433" data-name="Path 1433" d="M209.291,215.872H189.853v3.646H226.7v-3.646Z" transform="translate(-175.833 -157.128)" fill="#3a6bea"/>
            <path id="Path_1434" data-name="Path 1434" d="M209.291,215.872H189.853v3.646H226.7v-3.646Z" transform="translate(-175.833 -157.128)" fill="#fff" opacity="0.3"/>
            <rect id="Rectangle_347" data-name="Rectangle 347" width="19.438" height="3.646" transform="translate(31.426 58.744)" fill="#3a6bea"/>
            <rect id="Rectangle_348" data-name="Rectangle 348" width="19.438" height="3.646" transform="translate(31.426 58.744)" fill="#fff" opacity="0.6"/>
          </g>
        </g>
        <g id="Group_544" data-name="Group 544" transform="translate(62.683 153.135)">
          <path id="Path_1435" data-name="Path 1435" d="M145.7,223.237v8.7H237.74a21.781,21.781,0,0,0,17.413-8.7Z" transform="translate(-140.22 -217.56)" fill="#263238"/>
          <path id="Path_1436" data-name="Path 1436" d="M145.7,223.237v8.7H237.74a21.781,21.781,0,0,0,17.413-8.7Z" transform="translate(-140.22 -217.56)" fill="#fff" opacity="0.3"/>
          <path id="Path_1437" data-name="Path 1437" d="M259.393,218.752H141.371v5.677H256.3A21.788,21.788,0,0,0,259.393,218.752Z" transform="translate(-141.371 -218.752)" fill="#263238"/>
          <path id="Path_1438" data-name="Path 1438" d="M259.393,218.752H141.371v5.677H256.3A21.788,21.788,0,0,0,259.393,218.752Z" transform="translate(-141.371 -218.752)" fill="#fff" opacity="0.5"/>
        </g>
        <g id="Group_545" data-name="Group 545">
          <path id="Path_1439" data-name="Path 1439" d="M252.053,97.769H119.034a27.215,27.215,0,0,0-27.185,27.185V243.441a27.216,27.216,0,0,0,27.185,27.186H252.053a27.216,27.216,0,0,0,27.185-27.186V124.954A27.215,27.215,0,0,0,252.053,97.769Zm21.835,145.672a21.836,21.836,0,0,1-21.837,21.838H119.034A21.837,21.837,0,0,1,97.2,243.441V124.954a21.837,21.837,0,0,1,21.837-21.837H252.052a21.836,21.836,0,0,1,21.837,21.837Z" transform="translate(-91.849 -97.769)" fill="#3a6bea"/>
          <path id="Path_1440" data-name="Path 1440" d="M252.053,97.769H119.034a27.215,27.215,0,0,0-27.185,27.185V243.441a27.216,27.216,0,0,0,27.185,27.186H252.053a27.216,27.216,0,0,0,27.185-27.186V124.954A27.215,27.215,0,0,0,252.053,97.769Zm21.835,145.672a21.836,21.836,0,0,1-21.837,21.838H119.034A21.837,21.837,0,0,1,97.2,243.441V124.954a21.837,21.837,0,0,1,21.837-21.837H252.052a21.836,21.836,0,0,1,21.837,21.837Z" transform="translate(-91.849 -97.769)" fill="#fff" opacity="0.4"/>
        </g>
      </g>
    </g>
    <g id="Character_2" data-name="Character 2" transform="translate(251.784 241.346)">
      <g id="Group_553" data-name="Group 553" transform="translate(40.671 76.202)">
        <g id="Group_549" data-name="Group 549" transform="translate(33.947 84.589)">
          <g id="Group_547" data-name="Group 547" transform="translate(30.847)">
            <path id="Path_1441" data-name="Path 1441" d="M294.787,429.7h0a3.124,3.124,0,0,1-3.11-2.829l-.994-10.432V329.844h8.208v86.593l-.994,10.432A3.125,3.125,0,0,1,294.787,429.7Z" transform="translate(-290.682 -329.844)" fill="#263238"/>
            <path id="Path_1442" data-name="Path 1442" d="M294.787,429.7h0a3.124,3.124,0,0,1-3.11-2.829l-.994-10.432V329.844h8.208v86.593l-.994,10.432A3.125,3.125,0,0,1,294.787,429.7Z" transform="translate(-290.682 -329.844)" fill="#fff" opacity="0.3"/>
            <rect id="Rectangle_349" data-name="Rectangle 349" width="8.209" height="10.084" transform="translate(0 9.774)" opacity="0.1"/>
          </g>
          <g id="Group_548" data-name="Group 548" transform="translate(0 82.489)">
            <path id="Path_1443" data-name="Path 1443" d="M308.279,400.571v-3.254a2.3,2.3,0,0,0-2.3-2.3h-9.426a2.3,2.3,0,0,0-2.3,2.3v3.254l-23.175,6.371a6.479,6.479,0,0,0-4.762,6.246h69.9a6.479,6.479,0,0,0-4.762-6.246Z" transform="translate(-266.312 -395.014)" fill="#263238"/>
            <path id="Path_1444" data-name="Path 1444" d="M308.279,400.571v-3.254a2.3,2.3,0,0,0-2.3-2.3h-9.426a2.3,2.3,0,0,0-2.3,2.3v3.254l-23.175,6.371a6.479,6.479,0,0,0-4.762,6.246h69.9a6.479,6.479,0,0,0-4.762-6.246Z" transform="translate(-266.312 -395.014)" fill="#fff" opacity="0.2"/>
            <path id="Path_1445" data-name="Path 1445" d="M302.414,400.068V396.9a2.283,2.283,0,0,0-.033-.324H288.416a2.283,2.283,0,0,0-.033.324v3.167Z" transform="translate(-260.447 -394.599)" opacity="0.1"/>
          </g>
        </g>
        <path id="Path_1446" data-name="Path 1446" d="M330.922,263.034c-15.443.547-28.792,13.659-30.41,29.053l-5.763,54.836a8,8,0,0,0,8.106,9.058h46.577a10.309,10.309,0,0,0,10.011-9.058l5.835-55.517c1.683-16.023-10.232-28.947-26.444-28.372Z" transform="translate(-224.821 -263.015)" fill="#263238"/>
        <path id="Path_1447" data-name="Path 1447" d="M330.922,263.034c-15.443.547-28.792,13.659-30.41,29.053l-5.763,54.836a8,8,0,0,0,8.106,9.058h46.577a10.309,10.309,0,0,0,10.011-9.058l5.835-55.517c1.683-16.023-10.232-28.947-26.444-28.372Z" transform="translate(-224.821 -263.015)" fill="#fff" opacity="0.2"/>
        <path id="Path_1448" data-name="Path 1448" d="M357.367,291.406c1.683-16.023-10.232-28.947-26.444-28.372-15.443.547-28.792,13.659-30.41,29.053l-5.763,54.836a8,8,0,0,0,8.106,9.058h38.665a10.309,10.309,0,0,0,10.011-9.058Z" transform="translate(-224.821 -263.015)" fill="#263238"/>
        <g id="Group_552" data-name="Group 552" transform="translate(0 79.769)">
          <path id="Path_1449" data-name="Path 1449" d="M243.536,330.409a118.641,118.641,0,0,1,28.4-4.242c9.862-.268,46.777-.041,55.544-.044a118.781,118.781,0,0,1,31.695,4.286c6.508,1.8,4.5,11.985-1.376,12.1-.519.01-112.11-.027-112.521-.006C239.127,342.808,236.885,332.248,243.536,330.409Z" transform="translate(-239.492 -326.037)" fill="#263238"/>
          <g id="Group_550" data-name="Group 550" transform="translate(52.248 0.078)">
            <path id="Path_1450" data-name="Path 1450" d="M345.183,342.278a107.663,107.663,0,0,0-57.346,0c-7.092,1.961-10.117-9.924-3.023-11.885a119.1,119.1,0,0,1,63.39,0c7.083,1.958,4.081,13.85-3.021,11.885Z" transform="translate(-280.77 -326.098)" fill="#263238"/>
          </g>
          <g id="Group_551" data-name="Group 551" transform="translate(52.248 0.078)" opacity="0.2">
            <path id="Path_1451" data-name="Path 1451" d="M345.183,342.278a107.663,107.663,0,0,0-57.346,0c-7.092,1.961-10.117-9.924-3.023-11.885a119.1,119.1,0,0,1,63.39,0c7.083,1.958,4.081,13.85-3.021,11.885Z" transform="translate(-280.77 -326.098)" fill="#fff"/>
          </g>
        </g>
      </g>
      <g id="Group_562" data-name="Group 562">
        <path id="Path_1452" data-name="Path 1452" d="M234.628,362.1l-7.893,23.048-6.63-1.894,5.367-24.311Z" transform="translate(-203.974 -161.32)" fill="#b97964"/>
        <g id="Group_554" data-name="Group 554" transform="translate(0 220.031)">
          <path id="Path_1453" data-name="Path 1453" d="M223.608,376.783l8.153,2.461a.785.785,0,0,1,.586.785l-.3,8.106a1.3,1.3,0,0,1-1.34,1.263,1.328,1.328,0,0,1-.273-.037c-3.38-.945-6.349-1.92-10.577-3.019-4.987-1.3-3.878-.373-9.763-1.823-3.544-.876-3.143-5.06-1.592-4.867,7.081.928,9.6-.956,12.882-2.719A3.141,3.141,0,0,1,223.608,376.783Z" transform="translate(-207.361 -376.647)" fill="#263238"/>
        </g>
        <path id="Path_1454" data-name="Path 1454" d="M229.833,374.67l-7.878-2.02,3.025-13.7,9.156,3.157Z" transform="translate(-203.482 -161.32)" opacity="0.1"/>
        <g id="Group_555" data-name="Group 555" transform="translate(17.236 202.047)">
          <path id="Path_1455" data-name="Path 1455" d="M235.817,367.332l-2.21,4.262-12.629-4.262v-4.894Z" transform="translate(-220.977 -362.439)" fill="#3a6bea"/>
          <path id="Path_1456" data-name="Path 1456" d="M235.817,367.332l-2.21,4.262-12.629-4.262v-4.894Z" transform="translate(-220.977 -362.439)" fill="#fff" opacity="0.3"/>
        </g>
        <g id="Group_561" data-name="Group 561" transform="translate(18.972)">
          <path id="Path_1457" data-name="Path 1457" d="M273.872,383.764l2.627,20.4-7.418.193-5.358-19.679Z" transform="translate(-211.354 -154.724)" fill="#b97964"/>
          <g id="Group_556" data-name="Group 556" transform="translate(42.899 248.498)">
            <path id="Path_1458" data-name="Path 1458" d="M270.974,399.14l8.469.025a.785.785,0,0,1,.763.615l1.738,7.922a1.3,1.3,0,0,1-.981,1.558,1.336,1.336,0,0,1-.275.033c-3.509-.071-6.627-.271-11-.277-5.154-.011-3.848.609-9.908.678-3.65.039-4.309-4.112-2.759-4.314,7.088-.873,9.092-3.01,11.832-5.539A3.134,3.134,0,0,1,270.974,399.14Z" transform="translate(-256.241 -399.137)" fill="#263238"/>
          </g>
          <path id="Path_1459" data-name="Path 1459" d="M266.831,396.094l-3.108-11.415,10.149-.915,1.519,11.793Z" transform="translate(-211.354 -154.724)" opacity="0.1"/>
          <path id="Path_1460" data-name="Path 1460" d="M295.249,287.017H283.263a66.609,66.609,0,0,0-3.788,16.691c-.632,8.525,15.774,2.21,15.774,2.21l1.433-11.683Z" transform="translate(-207.172 -180.435)" fill="#3a6bea"/>
          <path id="Path_1461" data-name="Path 1461" d="M295.249,287.017H283.263a66.609,66.609,0,0,0-3.788,16.691c-.632,8.525,15.774,2.21,15.774,2.21l1.433-11.683Z" transform="translate(-207.172 -180.435)" opacity="0.1"/>
          <path id="Path_1462" data-name="Path 1462" d="M287.076,287.017c3.328,17.478-3.081,16.59-3.081,16.59l3.631,2.526,6.588-1.616,1.261-10.282-1.433-7.219Z" transform="translate(-205.966 -180.435)" opacity="0.1"/>
          <path id="Path_1463" data-name="Path 1463" d="M334.328,286.152s12.208,20.417,10.1,37.466-17.875,26.068-78.5-2.98c0,0-12.433,12.873-33.061,68.02L222.349,385.5s11.893-63.746,22.523-81.879c10.735-18.312,57.883,3.158,61.461-.42,3.186-3.186.421-15.786.421-15.786Z" transform="translate(-222.349 -180.665)" fill="#3a6bea"/>
          <path id="Path_1464" data-name="Path 1464" d="M253.587,318.456l-3.315-2.563s-11.685,6.325-5.868,24.334h0a210.688,210.688,0,0,1,10.316-19.288Z" transform="translate(-216.919 -172.761)" opacity="0.2"/>
          <path id="Path_1465" data-name="Path 1465" d="M303.689,330.164c-11.016-2.638-25.281-7.934-43.714-16.766,0,0-14.223.191-15.17,10.768S268.8,407.889,268.8,407.889l11.525-1s-6.788-72.933-8.367-76.722Z" transform="translate(-216.388 -173.424)" fill="#3a6bea"/>
          <path id="Path_1466" data-name="Path 1466" d="M303.689,330.164c-11.016-2.638-25.281-7.934-43.714-16.766,0,0-14.223.191-15.17,10.768S268.8,407.889,268.8,407.889l11.525-1s-6.788-72.933-8.367-76.722Z" transform="translate(-216.388 -173.424)" opacity="0.1"/>
          <path id="Path_1467" data-name="Path 1467" d="M257.807,313.4a24.171,24.171,0,0,0-4.874.7,102.328,102.328,0,0,0,25.708,16.067h22.881C290.506,327.526,276.241,322.23,257.807,313.4Z" transform="translate(-214.221 -173.424)" opacity="0.1"/>
          <g id="Group_557" data-name="Group 557" transform="translate(50.306 231.571)">
            <path id="Path_1468" data-name="Path 1468" d="M277.1,385.764l.31,4.733L264,391.55l-1.908-4.506Z" transform="translate(-262.093 -385.764)" fill="#3a6bea"/>
            <path id="Path_1469" data-name="Path 1469" d="M277.1,385.764l.31,4.733L264,391.55l-1.908-4.506Z" transform="translate(-262.093 -385.764)" fill="#fff" opacity="0.3"/>
          </g>
          <g id="Group_558" data-name="Group 558" transform="translate(31.732 50.943)">
            <path id="Path_1470" data-name="Path 1470" d="M275,270.04l-13.544,7.6-9.06-.438a2.276,2.276,0,0,0-2.026,1.046l-2.594,4.055a2.275,2.275,0,0,0-.259,1.891l.062.2a2.274,2.274,0,0,0,2.71,1.544l3.954-.958,7.857-1.5L281.33,275.1Z" transform="translate(-247.419 -235.89)" fill="#b97964"/>
            <path id="Path_1471" data-name="Path 1471" d="M267.105,277.635a9.222,9.222,0,0,1,5.921,7.179s9.873-3.431,11.594-8.944,6.31-32.765-1.123-32.811S280.1,275.665,267.105,277.635Z" transform="translate(-242.187 -243.06)" fill="#263238"/>
            <path id="Path_1472" data-name="Path 1472" d="M267.105,277.635a9.222,9.222,0,0,1,5.921,7.179s9.873-3.431,11.594-8.944,6.31-32.765-1.123-32.811S280.1,275.665,267.105,277.635Z" transform="translate(-242.187 -243.06)" fill="#fff" opacity="0.6"/>
            <path id="Path_1473" data-name="Path 1473" d="M265.118,271.19a25.618,25.618,0,0,1,5.773,8.641l5.216-2.576s-2.1-5.935-6.353-8.331Z" transform="translate(-242.715 -236.186)" fill="#263238"/>
            <path id="Path_1474" data-name="Path 1474" d="M265.118,271.19a25.618,25.618,0,0,1,5.773,8.641l5.216-2.576s-2.1-5.935-6.353-8.331Z" transform="translate(-242.715 -236.186)" fill="#fff" opacity="0.7"/>
          </g>
          <path id="Path_1475" data-name="Path 1475" d="M282.937,300.829a189.028,189.028,0,0,0,38.57-1.133,77.062,77.062,0,0,1-1.22-32.262c3.142-17.686,19.781-28.182-21.525-27.461-5.979.1-23.7-.692-21.668,11.926C279.264,265.378,282.937,300.829,282.937,300.829Z" transform="translate(-207.843 -192.946)" fill="#263238"/>
          <path id="Path_1476" data-name="Path 1476" d="M282.937,300.829a189.028,189.028,0,0,0,38.57-1.133,77.062,77.062,0,0,1-1.22-32.262c3.142-17.686,19.781-28.182-21.525-27.461-5.979.1-23.7-.692-21.668,11.926C279.264,265.378,282.937,300.829,282.937,300.829Z" transform="translate(-207.843 -192.946)" fill="#fff" opacity="0.5"/>
          <path id="Path_1477" data-name="Path 1477" d="M308.065,271.7l-19.28,5.695-8.244-1.444a2.334,2.334,0,0,0-2.277.91l-2.776,3.745a2.333,2.333,0,0,0-.4,1.919l.028.123a2.335,2.335,0,0,0,2.667,1.771l3.954-.676,7.941-.959,24.352-5.607Z" transform="translate(-208.349 -184.504)" fill="#b97964"/>
          <path id="Path_1478" data-name="Path 1478" d="M298.881,279.022a9.366,9.366,0,0,1,5.492,7.62s10.167-2.238,12.261-7.62,8.722-35.492,1.311-36.046S311.98,277.946,298.881,279.022Z" transform="translate(-202.01 -192.141)" fill="#263238"/>
          <path id="Path_1479" data-name="Path 1479" d="M298.881,279.022a9.366,9.366,0,0,1,5.492,7.62s10.167-2.238,12.261-7.62,8.722-35.492,1.311-36.046S311.98,277.946,298.881,279.022Z" transform="translate(-202.01 -192.141)" fill="#fff" opacity="0.6"/>
          <path id="Path_1480" data-name="Path 1480" d="M296.613,272.251a23.665,23.665,0,0,1,5.716,8.638l5.323-1.513s-2.176-6.387-6.258-9.069Z" transform="translate(-202.613 -184.876)" fill="#263238"/>
          <path id="Path_1481" data-name="Path 1481" d="M296.613,272.251a23.665,23.665,0,0,1,5.716,8.638l5.323-1.513s-2.176-6.387-6.258-9.069Z" transform="translate(-202.613 -184.876)" fill="#fff" opacity="0.7"/>
          <g id="Group_560" data-name="Group 560" transform="translate(70.039)">
            <path id="Path_1482" data-name="Path 1482" d="M300.835,212.969s-5.769-11.534,3.077-10.02,3.607,24.458,11.753,27.587C315.665,230.537,306.253,232.879,300.835,212.969Z" transform="translate(-272.021 -202.813)" fill="#263238"/>
            <path id="Path_1483" data-name="Path 1483" d="M299.135,207.005a21.582,21.582,0,0,0,1.661,4.85,38.72,38.72,0,0,0,5.063,11.831c1.328-4.2,1.862-11.044-2.066-14.971C302.277,207.2,300.7,207.61,299.135,207.005Z" transform="translate(-271.982 -201.699)" opacity="0.6"/>
            <path id="Path_1484" data-name="Path 1484" d="M298.006,209.153s2.9-3.262,5.381.927-1.615,5.188-1.615,5.188Z" transform="translate(-272.282 -201.449)" fill="#3a6bea"/>
            <path id="Path_1485" data-name="Path 1485" d="M299.64,226.188s1.306,4.73,4.681,1.486S301.592,227.83,299.64,226.188Z" transform="translate(-271.848 -196.601)" fill="#263238"/>
            <path id="Path_1486" data-name="Path 1486" d="M296.646,239.763s-8.27-2.852-11.8,4.176l3.269,1.289-1.794,2.2,6.749,4.895,11.523-3.947-.635-1.629,5.548-1.511S310.959,237.144,296.646,239.763Z" transform="translate(-275.778 -193.145)" fill="#263238"/>
            <path id="Path_1487" data-name="Path 1487" d="M296.646,239.763s-8.27-2.852-11.8,4.176l3.269,1.289-1.794,2.2,6.749,4.895,11.523-3.947-.635-1.629,5.548-1.511S310.959,237.144,296.646,239.763Z" transform="translate(-275.778 -193.145)" fill="#fff" opacity="0.7"/>
            <path id="Path_1488" data-name="Path 1488" d="M295.947,240.21s-13.784-3.025-4.1,10.7C291.847,250.915,319.409,239.927,295.947,240.21Z" transform="translate(-274.835 -192.949)" fill="#b97964"/>
            <path id="Path_1489" data-name="Path 1489" d="M300.994,227.656l-9.373,9.21c.833,4.01-.335,6.083-1.616,7.157v2.983a13.874,13.874,0,0,0,4.878.435c6.8-.363,9.015-1.083,9.015-1.083C299.813,243.089,300.4,233.137,300.994,227.656Z" transform="translate(-274.408 -196.211)" fill="#b97964"/>
            <path id="Path_1490" data-name="Path 1490" d="M291.367,240.918a9.928,9.928,0,0,0-.085-4.261l8.362-8.216.821.952S298.783,239.858,291.367,240.918Z" transform="translate(-274.069 -196.002)" opacity="0.1"/>
            <path id="Path_1491" data-name="Path 1491" d="M304.6,220.452c.684,9.027,1.172,12.832-2.713,18.047-5.844,7.85-17.076,6.721-20.449-1.916-3.035-7.776-3.65-21.222,4.612-25.995a12.346,12.346,0,0,1,18.55,9.864Z" transform="translate(-277.234 -201.195)" fill="#b97964"/>
            <path id="Path_1492" data-name="Path 1492" d="M285.163,225.236a19.648,19.648,0,0,1-1.952,5.014,3.153,3.153,0,0,0,2.661.138Z" transform="translate(-276.214 -196.854)" fill="#a24e3f"/>
            <path id="Path_1493" data-name="Path 1493" d="M290.967,220.72a.391.391,0,0,0,.153-.105.358.358,0,0,0-.043-.505l-.005-.005a4.194,4.194,0,0,0-3.755-.93.367.367,0,0,0-.235.449.36.36,0,0,0,.44.239,3.515,3.515,0,0,1,3.1.8A.355.355,0,0,0,290.967,220.72Z" transform="translate(-275.189 -198.496)" fill="#2e353a"/>
            <path id="Path_1494" data-name="Path 1494" d="M279.713,221.786a.4.4,0,0,0,.153-.105,3.508,3.508,0,0,1,2.938-1.233.357.357,0,0,0,.411-.295v-.005a.37.37,0,0,0-.31-.41,4.235,4.235,0,0,0-3.583,1.466.359.359,0,0,0,.39.582Z" transform="translate(-277.274 -198.319)" fill="#2e353a"/>
            <g id="Group_559" data-name="Group 559" transform="translate(3.041 25.019)">
              <path id="Path_1495" data-name="Path 1495" d="M289.051,223.977c.1.723-.2,1.366-.686,1.437s-.94-.466-1.035-1.2.2-1.367.676-1.434S288.946,223.243,289.051,223.977Z" transform="translate(-278.164 -222.528)" fill="#2e353a"/>
              <path id="Path_1496" data-name="Path 1496" d="M282.542,224.877c.1.724-.2,1.366-.676,1.434s-.94-.467-1.044-1.2.2-1.366.676-1.434S282.448,224.14,282.542,224.877Z" transform="translate(-279.895 -222.289)" fill="#2e353a"/>
              <path id="Path_1497" data-name="Path 1497" d="M281.9,223.738l-1.818-.258S281.175,224.717,281.9,223.738Z" transform="translate(-280.085 -222.34)" fill="#2e353a"/>
              <path id="Path_1498" data-name="Path 1498" d="M288.41,222.838l-1.816-.259S287.683,223.816,288.41,222.838Z" transform="translate(-278.355 -222.579)" fill="#2e353a"/>
            </g>
            <path id="Path_1499" data-name="Path 1499" d="M289.81,229.778a5.188,5.188,0,0,0,.372-.8.174.174,0,0,0-.092-.228h-.005a.184.184,0,0,0-.227.111,4.764,4.764,0,0,1-3.1,2.964.176.176,0,0,0,.075.344A4.907,4.907,0,0,0,289.81,229.778Z" transform="translate(-275.309 -195.923)" fill="#263238"/>
            <path id="Path_1500" data-name="Path 1500" d="M304.7,231.456s-4.939-2.688-5.249-10.136-11.629-8.956-18.594-4.595c0,0-2-6.567,5.293-7.153,0,0,10.664-7.8,19.39.927C313.241,218.2,304.7,231.456,304.7,231.456Z" transform="translate(-276.906 -201.869)" fill="#263238"/>
            <path id="Path_1501" data-name="Path 1501" d="M303.094,224.143a6.6,6.6,0,0,1-2.624,4.317c-1.883,1.354-3.619-.134-3.763-2.329-.129-1.968.694-5.055,2.907-5.543a2.989,2.989,0,0,1,3.48,3.554Z" transform="translate(-272.631 -198.103)" fill="#b97964"/>
            <path id="Path_1502" data-name="Path 1502" d="M282.239,214.055s-2.219,4.958-4.081,0S280.384,215.172,282.239,214.055Z" transform="translate(-277.683 -200.35)" fill="#263238"/>
          </g>
        </g>
      </g>
    </g>
    <g id="Device" transform="translate(270.837 303.119)">
      <g id="Group_563" data-name="Group 563">
        <path id="Path_1503" data-name="Path 1503" d="M299.758,281.012H235.089a1.9,1.9,0,1,0,0,3.8h64.669a1.9,1.9,0,0,0,0-3.8Z" transform="translate(-219.469 -243.487)" fill="#3a6bea"/>
        <path id="Path_1504" data-name="Path 1504" d="M299.758,281.012H235.089a1.9,1.9,0,1,0,0,3.8h64.669a1.9,1.9,0,0,0,0-3.8Z" transform="translate(-219.469 -243.487)" fill="#fff" opacity="0.3"/>
        <path id="Path_1505" data-name="Path 1505" d="M257.106,284.812a1.9,1.9,0,1,1,0-3.8h36.8a1.9,1.9,0,0,1,0,3.8Z" transform="translate(-213.618 -243.487)" fill="#fff" opacity="0.2"/>
        <path id="Path_1506" data-name="Path 1506" d="M238.763,291.528h23.778a.9.9,0,0,0,.849-1.2l-13.04-37.252a2.559,2.559,0,0,0-2.415-1.714h-23.78a.9.9,0,0,0-.849,1.2l13.041,37.252A2.557,2.557,0,0,0,238.763,291.528Z" transform="translate(-222.109 -251.366)" fill="#3a6bea"/>
        <path id="Path_1507" data-name="Path 1507" d="M237.856,291.528h23.78a.9.9,0,0,0,.849-1.2l-13.04-37.252a2.561,2.561,0,0,0-2.416-1.714H223.25a.9.9,0,0,0-.849,1.2l13.04,37.252A2.558,2.558,0,0,0,237.856,291.528Z" transform="translate(-222.349 -251.366)" fill="#3a6bea"/>
        <path id="Path_1508" data-name="Path 1508" d="M237.856,291.528h23.78a.9.9,0,0,0,.849-1.2l-13.04-37.252a2.561,2.561,0,0,0-2.416-1.714H223.25a.9.9,0,0,0-.849,1.2l13.04,37.252A2.558,2.558,0,0,0,237.856,291.528Z" transform="translate(-222.349 -251.366)" fill="#fff" opacity="0.5"/>
        <path id="Path_1509" data-name="Path 1509" d="M236.719,267.774c.3,1.428,1.291,2.585,2.2,2.585s1.41-1.157,1.106-2.585-1.29-2.585-2.2-2.585S236.415,266.346,236.719,267.774Z" transform="translate(-218.554 -247.692)" fill="#fff"/>
      </g>
    </g>
    <g id="Plant" transform="translate(225.552 284.007)">
      <g id="Group_570" data-name="Group 570">
        <g id="Group_565" data-name="Group 565" transform="translate(8.529)">
          <path id="Path_1510" data-name="Path 1510" d="M199.522,274.431s-8.121-7.53-3.861-10.787-5.062-8.293-1.7-10.739-1.654-8.769,1.278-9.825-.718-4.743,1.408-6.524c2.782-2.332,2.215,9.593,4.979,9.789s-2.73,6.771.708,7.608-1.24,8.283,1.98,8.419S204.612,270.6,199.522,274.431Z" transform="translate(-193.213 -236.255)" fill="#3a6bea"/>
          <path id="Path_1511" data-name="Path 1511" d="M199.522,274.431s-8.121-7.53-3.861-10.787-5.062-8.293-1.7-10.739-1.654-8.769,1.278-9.825-.718-4.743,1.408-6.524c2.782-2.332,2.215,9.593,4.979,9.789s-2.73,6.771.708,7.608-1.24,8.283,1.98,8.419S204.612,270.6,199.522,274.431Z" transform="translate(-193.213 -236.255)" fill="#fff" opacity="0.5"/>
          <g id="Group_564" data-name="Group 564" transform="translate(3.601 2.699)" opacity="0.2">
            <path id="Path_1512" data-name="Path 1512" d="M196.067,239.045q1.228,7.4,2.037,14.875c.665,6.1,2.075,13.813.157,19.807-.206.643.805.918,1.01.277,1.975-6.169.563-13.814-.12-20.084q-.83-7.6-2.073-15.154c-.11-.663-1.12-.381-1.01.278Z" transform="translate(-196.058 -238.388)"/>
          </g>
        </g>
        <g id="Group_567" data-name="Group 567" transform="translate(0 7.153)">
          <path id="Path_1513" data-name="Path 1513" d="M198.607,271.621s-8.378-4.043-5.759-7.708-6.11-5.411-4.015-8.2-3.491-6.633-1.4-8.2-2.383-5.345-.478-5.585c3.048-.384,4.144,7.155,6.412,6.631s-.523,6.11,2.444,5.935,1.047,6.957,3.664,6.271S201.749,267.287,198.607,271.621Z" transform="translate(-186.475 -241.907)" fill="#3a6bea"/>
          <g id="Group_566" data-name="Group 566" transform="translate(2.171 2.775)" opacity="0.2">
            <path id="Path_1514" data-name="Path 1514" d="M188.248,244.9c4.012,8.232,8.074,17.159,9.4,26.282.1.664,1.105.382,1.01-.278-1.334-9.2-5.454-18.223-9.5-26.532-.295-.606-1.2-.076-.9.528Z" transform="translate(-188.19 -244.099)"/>
          </g>
        </g>
        <g id="Group_569" data-name="Group 569" transform="translate(16.553 6.681)">
          <path id="Path_1515" data-name="Path 1515" d="M202.173,271.72s8.377-4.043,5.759-7.708,6.109-5.411,4.014-8.2,3.491-6.633,1.4-8.2,1.747-2.99.48-5.585c-1.349-2.761-4.144,7.155-6.414,6.631s.524,6.11-2.443,5.935-1.048,6.957-3.666,6.271S199.03,267.386,202.173,271.72Z" transform="translate(-199.552 -241.534)" fill="#3a6bea"/>
          <path id="Path_1516" data-name="Path 1516" d="M202.173,271.72s8.377-4.043,5.759-7.708,6.109-5.411,4.014-8.2,3.491-6.633,1.4-8.2,1.747-2.99.48-5.585c-1.349-2.761-4.144,7.155-6.414,6.631s.524,6.11-2.443,5.935-1.048,6.957-3.666,6.271S199.03,267.386,202.173,271.72Z" transform="translate(-199.552 -241.534)" fill="#fff" opacity="0.2"/>
          <g id="Group_568" data-name="Group 568" transform="translate(2.03 3.247)" opacity="0.2">
            <path id="Path_1517" data-name="Path 1517" d="M211.571,244.9c-4.012,8.232-8.076,17.159-9.4,26.282-.1.664-1.106.382-1.01-.278,1.333-9.2,5.454-18.223,9.5-26.532.3-.606,1.2-.076.9.528Z" transform="translate(-201.156 -244.099)"/>
          </g>
        </g>
        <path id="Path_1518" data-name="Path 1518" d="M208.83,289.453H193.936l-2.793-25.085h20.479Z" transform="translate(-185.234 -228.784)" fill="#3a6bea"/>
        <path id="Path_1519" data-name="Path 1519" d="M208.83,289.453H193.936l-2.793-25.085h20.479Z" transform="translate(-185.234 -228.784)" fill="#fff" opacity="0.3"/>
      </g>
    </g>
    <g id="Desk" transform="translate(187.299 344.127)">
      <g id="Group_575" data-name="Group 575">
        <g id="Group_573" data-name="Group 573" transform="translate(64.76 1.655)">
          <g id="Group_571" data-name="Group 571" transform="translate(30.846)">
            <path id="Path_1520" data-name="Path 1520" d="M235.942,441.53h0a3.125,3.125,0,0,1-3.111-2.829l-.994-10.432V285.322h8.21V428.269l-.994,10.432A3.125,3.125,0,0,1,235.942,441.53Z" transform="translate(-231.837 -285.322)" fill="#263238"/>
            <path id="Path_1521" data-name="Path 1521" d="M235.942,441.53h0a3.125,3.125,0,0,1-3.111-2.829l-.994-10.432V285.322h8.21V428.269l-.994,10.432A3.125,3.125,0,0,1,235.942,441.53Z" transform="translate(-231.837 -285.322)" fill="#fff" opacity="0.3"/>
            <rect id="Rectangle_350" data-name="Rectangle 350" width="8.209" height="10.084" transform="translate(0 1.396)" opacity="0.1"/>
          </g>
          <g id="Group_572" data-name="Group 572" transform="translate(0 138.843)">
            <path id="Path_1522" data-name="Path 1522" d="M249.433,400.571v-3.254a2.3,2.3,0,0,0-2.3-2.3H237.7a2.3,2.3,0,0,0-2.3,2.3v3.254l-23.176,6.371a6.478,6.478,0,0,0-4.76,6.246h69.9a6.479,6.479,0,0,0-4.76-6.246Z" transform="translate(-207.467 -395.014)" fill="#3a6bea"/>
            <path id="Path_1523" data-name="Path 1523" d="M243.568,400.068V396.9a2.283,2.283,0,0,0-.032-.324H229.57a2.283,2.283,0,0,0-.032.324v3.167Z" transform="translate(-201.602 -394.599)" opacity="0.1"/>
            <path id="Path_1524" data-name="Path 1524" d="M249.433,400.571v-3.254a2.3,2.3,0,0,0-2.3-2.3H237.7a2.3,2.3,0,0,0-2.3,2.3v3.254l-23.176,6.371a6.478,6.478,0,0,0-4.76,6.246h69.9a6.479,6.479,0,0,0-4.76-6.246Z" transform="translate(-207.467 -395.014)" opacity="0.2"/>
          </g>
        </g>
        <g id="Group_574" data-name="Group 574">
          <rect id="Rectangle_351" data-name="Rectangle 351" width="177.953" height="4.801" transform="translate(10.735 4.801)" fill="#263238"/>
          <rect id="Rectangle_352" data-name="Rectangle 352" width="177.953" height="4.801" transform="translate(10.735 4.801)" fill="#fff" opacity="0.3"/>
          <rect id="Rectangle_353" data-name="Rectangle 353" width="88.732" height="4.801" transform="translate(99.955 4.801)" opacity="0.2"/>
          <rect id="Rectangle_354" data-name="Rectangle 354" width="199.423" height="4.801" fill="#3a6bea"/>
          <rect id="Rectangle_355" data-name="Rectangle 355" width="110.202" height="4.801" transform="translate(89.22)" opacity="0.3"/>
        </g>
      </g>
    </g>
  </g>
</svg>
