<svg id="Sign-up-as-job_seeker" data-name="Sign-up-as-job seeker" xmlns="http://www.w3.org/2000/svg" width="595.779" height="435.989" viewBox="0 0 595.779 435.989">
  <g id="Background_Complete" data-name="Background Complete">
    <g id="Group_430" data-name="Group 430">
      <rect id="Rectangle_208" data-name="Rectangle 208" width="39.467" height="0.298" transform="translate(59.696 409.349)" fill="#ebebeb"/>
      <rect id="Rectangle_209" data-name="Rectangle 209" width="10.359" height="0.298" transform="translate(201.111 412.583)" fill="#ebebeb"/>
      <rect id="Rectangle_210" data-name="Rectangle 210" width="22.869" height="0.298" transform="translate(100.355 398.284)" fill="#ebebeb"/>
      <rect id="Rectangle_211" data-name="Rectangle 211" width="51.467" height="0.298" transform="translate(481.803 400.286)" fill="#ebebeb"/>
      <rect id="Rectangle_212" data-name="Rectangle 212" width="7.546" height="0.298" transform="translate(463.649 400.286)" fill="#ebebeb"/>
      <rect id="Rectangle_213" data-name="Rectangle 213" width="111.62" height="0.298" transform="translate(327.503 405.317)" fill="#ebebeb"/>
      <path id="Path_1203" data-name="Path 1203" d="M45.007,391.981H275.1a6.81,6.81,0,0,0,6.8-6.8V61.753a6.809,6.809,0,0,0-6.8-6.8H45.007a6.808,6.808,0,0,0-6.8,6.8V385.18A6.809,6.809,0,0,0,45.007,391.981ZM275.1,55.251a6.51,6.51,0,0,1,6.5,6.5V385.18a6.51,6.51,0,0,1-6.5,6.5H45.007a6.51,6.51,0,0,1-6.5-6.5V61.753a6.51,6.51,0,0,1,6.5-6.5Z" transform="translate(268.356 -54.953)" fill="#ebebeb"/>
      <path id="Path_1204" data-name="Path 1204" d="M261.306,391.981H491.4a6.809,6.809,0,0,0,6.8-6.8V61.753a6.808,6.808,0,0,0-6.8-6.8H261.306a6.809,6.809,0,0,0-6.8,6.8V385.18A6.81,6.81,0,0,0,261.306,391.981ZM491.4,55.251a6.51,6.51,0,0,1,6.5,6.5V385.18a6.51,6.51,0,0,1-6.5,6.5H261.306a6.511,6.511,0,0,1-6.5-6.5V61.753a6.511,6.511,0,0,1,6.5-6.5Z" transform="translate(-205.674 -54.953)" fill="#ebebeb"/>
      <rect id="Rectangle_214" data-name="Rectangle 214" width="595.779" height="0.298" transform="translate(0 390.17)" fill="#ebebeb"/>
    </g>
    <g id="Group_447" data-name="Group 447" transform="translate(57.293 125.346)">
      <g id="Group_432" data-name="Group 432" transform="translate(404.303 0)">
        <path id="Rectangle_215" data-name="Rectangle 215" d="M1.316,0H3.084A1.316,1.316,0,0,1,4.4,1.316V239.794a0,0,0,0,1,0,0H0a0,0,0,0,1,0,0V1.316A1.316,1.316,0,0,1,1.316,0Z" transform="translate(34.302 4.877)" fill="#ebebeb"/>
        <ellipse id="Ellipse_190" data-name="Ellipse 190" cx="26.674" cy="26.674" rx="26.674" ry="26.674" transform="translate(49.288 71.353) rotate(-157.5)" fill="#e0e0e0"/>
        <ellipse id="Ellipse_191" data-name="Ellipse 191" cx="26.674" cy="26.674" rx="26.674" ry="26.674" transform="translate(50.938 69.703) rotate(-157.5)" fill="#f0f0f0"/>
        <g id="Group_431" data-name="Group 431" transform="translate(17.986 25.282)">
          <path id="Path_1205" data-name="Path 1205" d="M88.315,195.39a2.59,2.59,0,1,0,2.59-2.589A2.59,2.59,0,0,0,88.315,195.39Z" transform="translate(-82.531 -179.174)" fill="#e0e0e0"/>
          <path id="Path_1206" data-name="Path 1206" d="M70.61,195.39A2.59,2.59,0,1,0,73.2,192.8,2.59,2.59,0,0,0,70.61,195.39Z" transform="translate(-43.729 -179.174)" fill="#e0e0e0"/>
          <path id="Path_1207" data-name="Path 1207" d="M69.519,181.365h32.357a1.662,1.662,0,0,1,1.662,1.662v14.554H99.695a4.144,4.144,0,1,0-8.287,0H78.6a4.144,4.144,0,1,0-8.287,0h-4.23V184.8A3.438,3.438,0,0,1,69.519,181.365Z" transform="translate(-66.08 -181.365)" fill="#e0e0e0"/>
          <rect id="Rectangle_216" data-name="Rectangle 216" width="3.959" height="7.613" transform="translate(31.595 3.35)" fill="#f5f5f5"/>
          <rect id="Rectangle_217" data-name="Rectangle 217" width="3.959" height="3.959" transform="translate(25.512 3.35)" fill="#f5f5f5"/>
          <rect id="Rectangle_218" data-name="Rectangle 218" width="3.959" height="3.959" transform="translate(19.43 3.35)" fill="#f5f5f5"/>
          <rect id="Rectangle_219" data-name="Rectangle 219" width="3.959" height="3.959" transform="translate(13.347 3.35)" fill="#f5f5f5"/>
          <rect id="Rectangle_220" data-name="Rectangle 220" width="3.959" height="3.959" transform="translate(0 3.35)" fill="#f5f5f5"/>
          <rect id="Rectangle_221" data-name="Rectangle 221" width="3.959" height="7.613" transform="translate(7.265 3.35)" fill="#f5f5f5"/>
        </g>
      </g>
      <g id="Group_441" data-name="Group 441" transform="translate(38.611 40.817)">
        <g id="Group_433" data-name="Group 433" transform="translate(150.316 80.11)">
          <rect id="Rectangle_222" data-name="Rectangle 222" width="36.157" height="124.089" transform="translate(0)" fill="#f5f5f5"/>
        </g>
        <g id="Group_434" data-name="Group 434" transform="translate(107.639 83.976)">
          <rect id="Rectangle_223" data-name="Rectangle 223" width="44.763" height="120.224" transform="translate(0)" fill="#e6e6e6"/>
          <rect id="Rectangle_224" data-name="Rectangle 224" width="6.207" height="6.208" transform="translate(19.278 6.414)" fill="#fefefe"/>
          <rect id="Rectangle_225" data-name="Rectangle 225" width="6.208" height="6.208" transform="translate(32.635 17.71)" fill="#fefefe"/>
          <rect id="Rectangle_226" data-name="Rectangle 226" width="6.207" height="6.208" transform="translate(19.278 29.007)" fill="#fefefe"/>
          <rect id="Rectangle_227" data-name="Rectangle 227" width="6.208" height="6.208" transform="translate(5.92 29.007)" fill="#fefefe"/>
          <rect id="Rectangle_228" data-name="Rectangle 228" width="6.208" height="6.208" transform="translate(32.635 40.303)" fill="#fefefe"/>
          <rect id="Rectangle_229" data-name="Rectangle 229" width="6.208" height="6.208" transform="translate(5.92 40.303)" fill="#fefefe"/>
          <rect id="Rectangle_230" data-name="Rectangle 230" width="6.207" height="6.208" transform="translate(19.278 51.6)" fill="#fefefe"/>
          <rect id="Rectangle_231" data-name="Rectangle 231" width="6.207" height="6.208" transform="translate(19.278 74.193)" fill="#fefefe"/>
          <rect id="Rectangle_232" data-name="Rectangle 232" width="6.208" height="6.208" transform="translate(5.92 74.193)" fill="#fefefe"/>
          <rect id="Rectangle_233" data-name="Rectangle 233" width="6.208" height="6.208" transform="translate(32.635 85.489)" fill="#fefefe"/>
          <rect id="Rectangle_234" data-name="Rectangle 234" width="6.208" height="6.208" transform="translate(5.92 85.489)" fill="#fefefe"/>
        </g>
        <g id="Group_436" data-name="Group 436" transform="translate(180.548 98.578)">
          <path id="Path_1208" data-name="Path 1208" d="M226.564,382.755h49.364V295.813l-49.364-18.68Z" transform="translate(-226.564 -277.133)" fill="#ebebeb"/>
          <g id="Group_435" data-name="Group 435" transform="translate(5.377 18.035)">
            <rect id="Rectangle_235" data-name="Rectangle 235" width="7.28" height="7.28" transform="translate(15.665)" fill="#fff"/>
            <rect id="Rectangle_236" data-name="Rectangle 236" width="7.28" height="7.28" transform="translate(0)" fill="#fff"/>
            <rect id="Rectangle_237" data-name="Rectangle 237" width="7.28" height="7.28" transform="translate(31.33 13.248)" fill="#fff"/>
            <rect id="Rectangle_238" data-name="Rectangle 238" width="7.28" height="7.28" transform="translate(15.665 26.496)" fill="#fff"/>
            <rect id="Rectangle_239" data-name="Rectangle 239" width="7.28" height="7.28" transform="translate(0 26.496)" fill="#fff"/>
            <rect id="Rectangle_240" data-name="Rectangle 240" width="7.28" height="7.28" transform="translate(31.33 39.744)" fill="#fff"/>
            <rect id="Rectangle_241" data-name="Rectangle 241" width="7.28" height="7.28" transform="translate(15.665 55.956)" fill="#fff"/>
            <rect id="Rectangle_242" data-name="Rectangle 242" width="7.28" height="7.28" transform="translate(31.33 55.956)" fill="#fff"/>
            <rect id="Rectangle_243" data-name="Rectangle 243" width="7.28" height="7.28" transform="translate(0 69.204)" fill="#fff"/>
          </g>
        </g>
        <g id="Group_438" data-name="Group 438" transform="translate(47.085)">
          <path id="Path_1209" data-name="Path 1209" d="M341.791,257.608V233.492h5.776V206.565h4.86V194.4h19.525v12.162h4.86v26.927h5.776v24.117h5.849V398.6h-52.5V257.608Z" transform="translate(-335.942 -194.403)" fill="#f0f0f0"/>
          <g id="Group_437" data-name="Group 437" transform="translate(6.943 70.727)">
            <rect id="Rectangle_244" data-name="Rectangle 244" width="7.28" height="7.28" transform="translate(15.665)" fill="#fefefe"/>
            <rect id="Rectangle_245" data-name="Rectangle 245" width="7.28" height="7.28" transform="translate(0)" fill="#fefefe"/>
            <rect id="Rectangle_246" data-name="Rectangle 246" width="7.28" height="7.28" transform="translate(31.33 26.496)" fill="#fefefe"/>
            <rect id="Rectangle_247" data-name="Rectangle 247" width="7.28" height="7.28" transform="translate(0 26.496)" fill="#fefefe"/>
            <rect id="Rectangle_248" data-name="Rectangle 248" width="7.28" height="7.28" transform="translate(15.665 39.744)" fill="#fefefe"/>
            <rect id="Rectangle_249" data-name="Rectangle 249" width="7.28" height="7.28" transform="translate(31.33 52.992)" fill="#fefefe"/>
            <rect id="Rectangle_250" data-name="Rectangle 250" width="7.28" height="7.28" transform="translate(15.665 52.992)" fill="#fefefe"/>
            <rect id="Rectangle_251" data-name="Rectangle 251" width="7.28" height="7.28" transform="translate(0 66.24)" fill="#fefefe"/>
            <rect id="Rectangle_252" data-name="Rectangle 252" width="7.28" height="7.28" transform="translate(31.33 79.489)" fill="#fefefe"/>
            <rect id="Rectangle_253" data-name="Rectangle 253" width="7.28" height="7.28" transform="translate(15.665 92.737)" fill="#fefefe"/>
            <rect id="Rectangle_254" data-name="Rectangle 254" width="7.28" height="7.28" transform="translate(0 92.737)" fill="#fefefe"/>
          </g>
        </g>
        <g id="Group_440" data-name="Group 440" transform="translate(0 74.385)">
          <path id="Path_1210" data-name="Path 1210" d="M386.762,386.644h39.026V256.83l-39.026,18.577Z" transform="translate(-386.762 -256.83)" fill="#f5f5f5"/>
          <g id="Group_439" data-name="Group 439" transform="translate(9.284 19.855)">
            <rect id="Rectangle_255" data-name="Rectangle 255" width="7.28" height="7.28" transform="translate(15.665)" fill="#fff"/>
            <rect id="Rectangle_256" data-name="Rectangle 256" width="7.28" height="7.28" transform="translate(0 13.248)" fill="#fff"/>
            <rect id="Rectangle_257" data-name="Rectangle 257" width="7.28" height="7.28" transform="translate(15.665 26.496)" fill="#fff"/>
            <rect id="Rectangle_258" data-name="Rectangle 258" width="7.28" height="7.28" transform="translate(0 39.744)" fill="#fff"/>
            <rect id="Rectangle_259" data-name="Rectangle 259" width="7.28" height="7.28" transform="translate(0 52.992)" fill="#fff"/>
            <rect id="Rectangle_260" data-name="Rectangle 260" width="7.28" height="7.28" transform="translate(15.665 66.24)" fill="#fff"/>
            <rect id="Rectangle_261" data-name="Rectangle 261" width="7.28" height="7.28" transform="translate(0 92.737)" fill="#fff"/>
          </g>
        </g>
      </g>
      <g id="Group_445" data-name="Group 445" transform="translate(379.313 162.978)">
        <g id="Group_443" data-name="Group 443">
          <rect id="Rectangle_262" data-name="Rectangle 262" width="42.548" height="18.57" transform="translate(5.927 23.18)" fill="#f0f0f0"/>
          <path id="Rectangle_263" data-name="Rectangle 263" d="M0,0H3.85A2.077,2.077,0,0,1,5.927,2.077V3.85A2.077,2.077,0,0,1,3.85,5.927H0a0,0,0,0,1,0,0V0A0,0,0,0,1,0,0Z" transform="translate(48.475 29.501)" fill="#f0f0f0"/>
          <path id="Rectangle_264" data-name="Rectangle 264" d="M2.077,0h3.85a0,0,0,0,1,0,0V5.927a0,0,0,0,1,0,0H2.077A2.077,2.077,0,0,1,0,3.85V2.077A2.077,2.077,0,0,1,2.077,0Z" transform="translate(0 29.501)" fill="#f0f0f0"/>
          <rect id="Rectangle_265" data-name="Rectangle 265" width="5.927" height="23.708" transform="translate(45.512 20.611)" fill="#e0e0e0"/>
          <rect id="Rectangle_266" data-name="Rectangle 266" width="5.927" height="23.708" transform="translate(2.964 20.611)" fill="#e0e0e0"/>
          <g id="Group_442" data-name="Group 442" transform="translate(11.642)">
            <path id="Path_1211" data-name="Path 1211" d="M101.162,372.519h22.862V308.356a11.431,11.431,0,0,0-11.432-11.431h0a11.431,11.431,0,0,0-11.431,11.431Z" transform="translate(-97.035 -296.925)" fill="#e6e6e6"/>
            <path id="Rectangle_267" data-name="Rectangle 267" d="M6.148,0H24.97a6.148,6.148,0,0,1,6.148,6.148v5.567a0,0,0,0,1,0,0H0a0,0,0,0,1,0,0V6.148A6.148,6.148,0,0,1,6.148,0Z" transform="translate(0 71.77)" fill="#e0e0e0"/>
          </g>
          <circle id="Ellipse_192" data-name="Ellipse 192" cx="9.782" cy="9.782" r="9.782" transform="translate(19.928 44.196) rotate(-103.283)" fill="#fafafa"/>
          <path id="Path_1212" data-name="Path 1212" d="M108.8,324.514a2.329,2.329,0,1,0,2.328-2.328A2.329,2.329,0,0,0,108.8,324.514Z" transform="translate(-83.929 -292.086)" fill="#ebebeb"/>
          <path id="Path_1213" data-name="Path 1213" d="M128.816,309.724h0a2.963,2.963,0,0,0-2.963-2.963H100.661a2.963,2.963,0,0,0-2.963,2.963h0a2.963,2.963,0,0,0,2.963,2.963h25.191A2.963,2.963,0,0,0,128.816,309.724Z" transform="translate(-86.056 -295.041)" fill="#e0e0e0"/>
        </g>
        <g id="Group_444" data-name="Group 444" transform="translate(19.264 47.526)">
          <path id="Path_1214" data-name="Path 1214" d="M107.057,336.811h0a2.964,2.964,0,0,0-2.963,2.965V355.09a2.964,2.964,0,0,0,2.963,2.963h0a2.963,2.963,0,0,0,2.963-2.963V339.776A2.964,2.964,0,0,0,107.057,336.811Z" transform="translate(-94.146 -336.811)" fill="#f5f5f5"/>
          <path id="Path_1215" data-name="Path 1215" d="M115.406,336.811h0a2.964,2.964,0,0,0-2.963,2.965V355.09a2.963,2.963,0,0,0,2.963,2.963h0a2.964,2.964,0,0,0,2.963-2.963V339.776A2.964,2.964,0,0,0,115.406,336.811Z" transform="translate(-112.443 -336.811)" fill="#f5f5f5"/>
        </g>
      </g>
      <g id="Group_446" data-name="Group 446" transform="translate(0 244.93)">
        <rect id="Rectangle_268" data-name="Rectangle 268" width="49.303" height="19.895" transform="translate(431.89)" fill="#e6e6e6"/>
        <rect id="Rectangle_269" data-name="Rectangle 269" width="49.303" height="19.895" transform="translate(384.01)" fill="#f5f5f5"/>
        <rect id="Rectangle_270" data-name="Rectangle 270" width="49.303" height="19.895" transform="translate(335.888)" fill="#e6e6e6"/>
        <rect id="Rectangle_271" data-name="Rectangle 271" width="49.303" height="19.895" transform="translate(288.007)" fill="#f5f5f5"/>
        <rect id="Rectangle_272" data-name="Rectangle 272" width="49.303" height="19.895" transform="translate(239.885)" fill="#e6e6e6"/>
        <rect id="Rectangle_273" data-name="Rectangle 273" width="49.303" height="19.895" transform="translate(192.005)" fill="#f5f5f5"/>
        <rect id="Rectangle_274" data-name="Rectangle 274" width="49.303" height="19.895" transform="translate(143.883)" fill="#e6e6e6"/>
        <rect id="Rectangle_275" data-name="Rectangle 275" width="49.303" height="19.895" transform="translate(96.002)" fill="#f5f5f5"/>
        <rect id="Rectangle_276" data-name="Rectangle 276" width="49.303" height="19.895" transform="translate(47.88)" fill="#e6e6e6"/>
        <rect id="Rectangle_277" data-name="Rectangle 277" width="49.303" height="19.895" fill="#f5f5f5"/>
      </g>
    </g>
  </g>
  <g id="Shadow" transform="translate(122.869 50.732)">
    <ellipse id="_Path_" data-name="&lt;Path&gt;" cx="172.614" cy="10.081" rx="172.614" ry="10.081" transform="translate(0 365.095)" fill="#f5f5f5"/>
    <text id="_01" data-name="01" transform="translate(139.022 13.682)" fill="#407bff" font-size="13" font-family="Barlow-Black, Barlow" font-weight="800"><tspan x="0" y="0">01</tspan></text>
  </g>
  <g id="Icons" transform="translate(238.41 28.991)">
    <g id="Group_449" data-name="Group 449">
      <path id="Path_1216" data-name="Path 1216" d="M264.647,133.1h29.118a7.829,7.829,0,0,0,7.923-8.683L299.14,95.3a9.666,9.666,0,0,0-9.442-8.683H260.58a7.829,7.829,0,0,0-7.923,8.683l2.548,29.117A9.666,9.666,0,0,0,264.647,133.1Z" transform="translate(-245.368 -77.878)" fill="#407bff"/>
      <path id="Path_1217" data-name="Path 1217" d="M265.994,131.861h29.117a7.83,7.83,0,0,0,7.924-8.683L300.487,94.06a9.667,9.667,0,0,0-9.443-8.683H261.927A7.83,7.83,0,0,0,254,94.06l2.548,29.118A9.667,9.667,0,0,0,265.994,131.861Z" transform="translate(-248.319 -78.116)" fill="#407bff"/>
      <path id="Path_1218" data-name="Path 1218" d="M265.994,131.861h29.117a7.83,7.83,0,0,0,7.924-8.683L300.487,94.06a9.667,9.667,0,0,0-9.443-8.683H261.927A7.83,7.83,0,0,0,254,94.06l2.548,29.118A9.667,9.667,0,0,0,265.994,131.861Z" transform="translate(-248.319 -78.116)" fill="#fff" opacity="0.5"/>
      <path id="Path_1219" data-name="Path 1219" d="M276.083,93.862c9.1,0,16.986,5.865,17.618,13.1.369,4.223-1.825,7.969-5.518,10.364a23.725,23.725,0,0,0,4.25,5.65,17.437,17.437,0,0,1-7.074-1.543,18.634,18.634,0,0,1-3.089-1.762,20.006,20.006,0,0,1-3.9.391c-9.1,0-16.986-5.865-17.618-13.1S266.986,93.862,276.083,93.862Z" transform="translate(-247.032 -76.49)" fill="#fff"/>
      <g id="Group_448" data-name="Group 448">
        <path id="Path_1220" data-name="Path 1220" d="M294.25,99.424a9.081,9.081,0,0,0,9.189-10.07,11.212,11.212,0,0,0-10.952-10.071H290.56a9.081,9.081,0,0,0-9.189,10.071,11.212,11.212,0,0,0,10.952,10.07Z" transform="translate(-281.331 -79.283)" fill="#407bff"/>
      </g>
    </g>
  </g>
  <g id="Character" transform="translate(213.75 84.254)">
    <g id="Group_451" data-name="Group 451" transform="translate(122.144 310.915)">
      <path id="Path_1221" data-name="Path 1221" d="M209.457,386.594l8.983,18.425-7.222,5.89-13.233-19.948Z" transform="translate(-194.467 -386.594)" fill="#b97964"/>
      <g id="Group_450" data-name="Group 450" transform="translate(0 17.326)">
        <path id="Path_1222" data-name="Path 1222" d="M214.1,405.7a.276.276,0,0,0,.143-.266.261.261,0,0,0-.2-.225c-.191-.045-4.505-1.064-6.128-.056a1.363,1.363,0,0,0-.616.821.981.981,0,0,0,.3,1.1c.6.437,2.034.276,3.349-.112A19.4,19.4,0,0,0,214.1,405.7Zm-.91-.1c-1.9.826-4.572,1.6-5.267,1.053-.1-.064-.206-.2-.112-.562a.726.726,0,0,1,.388-.5,1.716,1.716,0,0,1,.461-.2A12.075,12.075,0,0,1,213.191,405.607Z" transform="translate(-201.302 -400.449)" fill="#407bff"/>
        <path id="Path_1223" data-name="Path 1223" d="M212.27,406.147a.255.255,0,0,0,.045-.26c-.052-.129-1.178-2.9-2.854-3.609a1.934,1.934,0,0,0-1.522-.017c-.671.273-.783.686-.724.981.126,1.257,3.348,2.8,4.779,2.987a.148.148,0,0,0,.107-.021A.247.247,0,0,0,212.27,406.147Zm-4.023-3.46a1.373,1.373,0,0,1,.959.06,6.141,6.141,0,0,1,2.364,2.83c-1.541-.388-3.738-1.691-3.886-2.427,0-.07-.024-.261.416-.433l.147-.03Z" transform="translate(-199.342 -400.947)" fill="#407bff"/>
        <path id="Path_1224" data-name="Path 1224" d="M205.371,404.587l11.552-3.413a.969.969,0,0,1,1.122.458l4.865,8.782a1.612,1.612,0,0,1-.612,2.2,1.672,1.672,0,0,1-.315.136c-4.186,1.158-7.956,2.023-13.138,3.563-6.117,1.81-4.349,2.083-11.512,4.31-4.317,1.338-6.567-3.354-4.8-4.139,8.1-3.544,8.222-6.34,10.576-10.311A3.882,3.882,0,0,1,205.371,404.587Z" transform="translate(-191.928 -401.134)" fill="#263238"/>
      </g>
      <path id="Path_1225" data-name="Path 1225" d="M217.992,399.3l-8.737,5.122-8.931-13.463,11.472-4.367Z" transform="translate(-196.806 -386.594)" opacity="0.1"/>
    </g>
    <g id="Group_453" data-name="Group 453" transform="translate(0 311.673)">
      <path id="Path_1226" data-name="Path 1226" d="M307.149,393.935l-9.611,18.105-8.717-4.247,8.047-20.564Z" transform="translate(-269.266 -387.23)" fill="#b97964"/>
      <g id="Group_452" data-name="Group 452" transform="translate(0 14.175)">
        <path id="Path_1227" data-name="Path 1227" d="M311.317,404.752a.274.274,0,0,0,.282-.1.262.262,0,0,0,0-.3c-.112-.16-2.666-3.784-4.549-4.107a1.361,1.361,0,0,0-1,.2.982.982,0,0,0-.5,1.02c.161.727,1.339,1.556,2.581,2.139A19.4,19.4,0,0,0,311.317,404.752Zm-.617-.677c-1.968-.641-4.481-1.837-4.64-2.706-.029-.112-.024-.282.29-.494a.723.723,0,0,1,.62-.114,1.777,1.777,0,0,1,.48.154A12.12,12.12,0,0,1,310.7,404.075Z" transform="translate(-293.68 -398.917)" fill="#407bff"/>
        <path id="Path_1228" data-name="Path 1228" d="M307.124,405.006a.26.26,0,0,0,.206-.164c.045-.132,1.041-2.951.259-4.595a1.936,1.936,0,0,0-1.127-1.021c-.683-.241-1.041-.006-1.193.254-.74,1.024.647,4.316,1.593,5.4a.151.151,0,0,0,.094.055A.243.243,0,0,0,307.124,405.006Zm-.715-5.257a1.362,1.362,0,0,1,.678.68,6.147,6.147,0,0,1-.108,3.685c-.895-1.313-1.675-3.745-1.3-4.394.046-.052.155-.211.6-.048l.13.076Z" transform="translate(-289.354 -399.126)" fill="#407bff"/>
        <path id="Path_1229" data-name="Path 1229" d="M314.094,403.32,325,408.432a.969.969,0,0,1,.536,1.088l-2.186,9.8a1.612,1.612,0,0,1-1.916,1.237,1.567,1.567,0,0,1-.324-.107c-3.9-1.91-7.3-3.764-12.194-6.052-5.778-2.7-4.635-1.327-11.472-4.412-4.118-1.864-2.687-6.867-.845-6.283,8.41,2.723,10.358.711,14.754-.7A3.876,3.876,0,0,1,314.094,403.32Z" transform="translate(-294.782 -398.406)" fill="#263238"/>
      </g>
      <path id="Path_1230" data-name="Path 1230" d="M288.82,401.857l4.834-12.354,5.841.409L305,393.5l-7.043,13.267Z" transform="translate(-267.113 -386.794)" opacity="0.1"/>
    </g>
    <path id="Path_1231" data-name="Path 1231" d="M300.127,194.108l-3.308-7.918L292.906,173.9a3.586,3.586,0,0,0-2.194-2.282l-4.6-1.667a3.583,3.583,0,0,0-4.336,1.6l-2.689,4.729a3.585,3.585,0,0,0,1.152,4.771l9.895,6.474,1.317,9.236Z" transform="translate(-250.085 -117.22)" fill="#b97964"/>
    <g id="Group_454" data-name="Group 454" transform="translate(69.527 140.767)">
      <path id="Path_1232" data-name="Path 1232" d="M220.675,243.8h-18.33s-6.642,23.854,21.4,122.495a12.358,12.358,0,0,0,1.512,3.329l37.889,58.358,10.729-6.258s-10.568-27.891-21.714-48.935c-2.608-4.925-5.076-8.9-6.45-13.2-.85-2.66-1.43-4.475-1.617-11.168-.421-15.074-1.342-41.4-2.875-53.18,0,0,14.774-26.847,8.516-51.435Z" transform="translate(-201.659 -243.799)" fill="#3a6bea"/>
      <path id="Path_1233" data-name="Path 1233" d="M220.675,243.8h-18.33s-6.642,23.854,21.4,122.495a12.358,12.358,0,0,0,1.512,3.329l37.889,58.358,10.729-6.258s-10.568-27.891-21.714-48.935c-2.608-4.925-5.076-8.9-6.45-13.2-.85-2.66-1.43-4.475-1.617-11.168-.421-15.074-1.342-41.4-2.875-53.18,0,0,14.774-26.847,8.516-51.435Z" transform="translate(-201.659 -243.799)" fill="#3a6bea" opacity="0.2"/>
    </g>
    <g id="Group_455" data-name="Group 455" transform="translate(39.702 59.803)">
      <path id="Path_1234" data-name="Path 1234" d="M287.577,176.435c-3.155,2.192-9.145,9.8-17.355,29.428a1.938,1.938,0,0,1-3.637-.157L261.005,188l-9.7,1.8s3.441,40.119,15.328,40.431,26.9-35.661,26.9-35.661,2.1-11.724-1.259-17.139A3.323,3.323,0,0,0,287.577,176.435Z" transform="translate(-251.308 -175.851)" fill="#407bff"/>
      <path id="Path_1235" data-name="Path 1235" d="M287.577,176.435c-3.155,2.192-9.145,9.8-17.355,29.428a1.938,1.938,0,0,1-3.637-.157L261.005,188l-9.7,1.8s3.441,40.119,15.328,40.431,26.9-35.661,26.9-35.661,2.1-11.724-1.259-17.139A3.323,3.323,0,0,0,287.577,176.435Z" transform="translate(-251.308 -175.851)" opacity="0.2"/>
    </g>
    <path id="Path_1236" data-name="Path 1236" d="M316.669,243.8H280.012l-3.353,17L217.9,426.135l11.622,6.259s25.006-41.409,36.863-69.268c1.926-4.523,2.835-8.887,4.474-12.066,1.367-2.651,2.875-3.635,7.134-9.565,6.98-9.718,16.544-23.336,24.374-39.468,1.1-2.273,1.765-4.76,3.123-6.819a61.575,61.575,0,0,0,4.08-5.516C314.505,281.826,321.571,265.857,316.669,243.8Z" transform="translate(-195.939 -103.032)" fill="#407bff"/>
    <path id="Path_1237" data-name="Path 1237" d="M306.255,400.576l-15.629-8.359-1.806,5.676,13.858,7.6Z" transform="translate(-268.372 -74.601)" fill="#407bff"/>
    <path id="Path_1238" data-name="Path 1238" d="M306.255,400.576l-15.629-8.359-1.806,5.676,13.858,7.6Z" transform="translate(-268.372 -74.601)" fill="#fff" opacity="0.5"/>
    <path id="Path_1239" data-name="Path 1239" d="M214.264,389.524l-15.047,9.364,4.015,4.4,13.506-8.21Z" transform="translate(-72.086 -75.117)" fill="#407bff"/>
    <path id="Path_1240" data-name="Path 1240" d="M214.264,389.524l-15.047,9.364,4.015,4.4,13.506-8.21Z" transform="translate(-72.086 -75.117)" fill="#fff" opacity="0.5"/>
    <g id="Group_456" data-name="Group 456" transform="translate(67.089 53.335)">
      <path id="Path_1241" data-name="Path 1241" d="M272.887,181.311a7.13,7.13,0,0,1,2.306,7.783c-3.264,9.873-10.892,33.515-12.248,42.8-.859,5.882,2.257,18.276,0,23.774a11.653,11.653,0,0,1-5.335,4.909c-11.524,3.615-48.31,0-48.31,0s-3.184-1.66-3.531-2.719c-.988-3.017,3.531-12.2,3.531-12.2s-.381-22.766,0-30.342c.32-6.37,1.358-19.844,2.057-28.631a14.148,14.148,0,0,1,9.094-12.162C232,170.2,253.534,165.716,272.887,181.311Z" transform="translate(-205.627 -170.423)" fill="#407bff"/>
      <path id="Path_1242" data-name="Path 1242" d="M272.891,181.316a7.119,7.119,0,0,1,2.3,7.771c-3.262,9.868-10.893,33.52-12.25,42.8-.859,5.882,2.257,18.276,0,23.774a11.653,11.653,0,0,1-5.335,4.909c-9.832,3.084-38.052.906-46.128.2a8.811,8.811,0,0,1-4.862-1.917,2.653,2.653,0,0,1-.852-1c-.988-3.017,3.531-12.2,3.531-12.2s-.381-22.766,0-30.342c.321-6.372,1.36-19.853,2.058-28.639a14.138,14.138,0,0,1,9.086-12.151C231.992,170.2,253.534,165.712,272.891,181.316Z" transform="translate(-205.626 -170.423)" fill="#fff" opacity="0.5"/>
    </g>
    <g id="Group_457" data-name="Group 457" transform="translate(86.933 48.121)">
      <path id="Path_1243" data-name="Path 1243" d="M225.1,193.628s23.774-3.546,27.736-17.518-26.485-12.513-32.323-1.043S225.1,193.628,225.1,193.628Z" transform="translate(-218.74 -166.047)" fill="#407bff"/>
      <path id="Path_1244" data-name="Path 1244" d="M225.1,193.628s23.774-3.546,27.736-17.518-26.485-12.513-32.323-1.043S225.1,193.628,225.1,193.628Z" transform="translate(-218.74 -166.047)" opacity="0.2"/>
    </g>
    <path id="Path_1245" data-name="Path 1245" d="M229.26,188.811s15.851-2.717,18.352-11.887-16.155-7.925-20.646,0C223.471,183.095,229.26,188.811,229.26,188.811Z" transform="translate(-134.92 -117.072)" fill="#b97964"/>
    <path id="Path_1246" data-name="Path 1246" d="M237.954,245.112l-7.8,6.152a53.3,53.3,0,0,0-7.532.155,33.4,33.4,0,0,0-4.383,1.789l8.56,10.881s2.413-1.312,3.128-1.877c1.425-1.125,5.081-5.188,5.081-5.188l7.64-4.3Z" transform="translate(-120.659 -102.781)" fill="#b97964"/>
    <g id="Group_458" data-name="Group 458" transform="translate(79.16)">
      <path id="Path_1247" data-name="Path 1247" d="M247.7,135.71s-4.557,6.331,2.753,6.014S247.7,135.71,247.7,135.71Z" transform="translate(-243.725 -123.737)" fill="#263238"/>
      <path id="Path_1248" data-name="Path 1248" d="M245.775,177.657l-.956,2.623q-7.326,3.795-14.976,6.91c-2.646-1.41-1.663-2.919-2.544-4.194l-.486-2.944c4.025-2.057,5.075-6.884,4.671-10.6a27.7,27.7,0,0,0-.559-3.395l8.354-6.983,6.131-5.087C243.9,160.751,242.236,171.962,245.775,177.657Z" transform="translate(-213.169 -120.237)" fill="#b97964"/>
      <path id="Path_1249" data-name="Path 1249" d="M231.859,165.236a27.245,27.245,0,0,1,.56,3.395c3.141-.623,7.846-3.421,8.279-6.956a14.3,14.3,0,0,0-.484-3.421Z" transform="translate(-214.103 -119.419)" opacity="0.2" style="isolation: isolate"/>
      <path id="Path_1250" data-name="Path 1250" d="M254.245,143.306c1.271,10.034,2.543,15.82-1.526,21.975-6.028,9.245-18.986,7.313-23.171-2.072-3.814-8.431-5.163-23.426,3.7-29.428a13.354,13.354,0,0,1,21,9.525Z" transform="translate(-222.626 -124.577)" fill="#b97964"/>
      <path id="Path_1251" data-name="Path 1251" d="M241.781,146.72c.152.814-.153,1.551-.674,1.666s-1.068-.444-1.271-1.271.152-1.551.674-1.666S241.629,145.919,241.781,146.72Z" transform="translate(-224.66 -121.875)" fill="#2e353a"/>
      <path id="Path_1252" data-name="Path 1252" d="M249.679,148.227c.152.8-.153,1.551-.674,1.654s-1.068-.446-1.271-1.273.153-1.551.674-1.666S249.527,147.413,249.679,148.227Z" transform="translate(-241.969 -121.588)" fill="#2e353a"/>
      <path id="Path_1253" data-name="Path 1253" d="M245.5,147.922a30.9,30.9,0,0,1-2.085,6.651,4.289,4.289,0,0,0,3.509,0Z" transform="translate(-234.105 -121.398)" fill="#a24e3f"/>
      <path id="Path_1254" data-name="Path 1254" d="M239.192,158.563a7.045,7.045,0,0,0,4.934-2.4.253.253,0,0,0,0-.343.229.229,0,0,0-.323-.007l-.007.007a6.726,6.726,0,0,1-5.481,2.264.229.229,0,0,0-.254.2v.027a.256.256,0,0,0,.229.255A8.166,8.166,0,0,0,239.192,158.563Z" transform="translate(-224.986 -119.899)" fill="#2e353a"/>
      <path id="Path_1255" data-name="Path 1255" d="M241.638,144.116a.461.461,0,0,0,.216-.076.47.47,0,0,0,.116-.655l-.013-.019a4.643,4.643,0,0,0-3.815-2,.471.471,0,0,0-.434.505v.017a.484.484,0,0,0,.509.446,3.635,3.635,0,0,1,3.027,1.59A.448.448,0,0,0,241.638,144.116Z" transform="translate(-222.425 -122.653)" fill="#2e353a"/>
      <path id="Path_1256" data-name="Path 1256" d="M248.782,145.936a.513.513,0,0,0,.381-.241,3.955,3.955,0,0,1,2.874-2.048.482.482,0,0,0,.444-.518v0a.5.5,0,0,0-.509-.446h0a4.831,4.831,0,0,0-3.624,2.544.483.483,0,0,0,.164.661A.558.558,0,0,0,248.782,145.936Z" transform="translate(-245.456 -122.402)" fill="#2e353a"/>
      <path id="Path_1257" data-name="Path 1257" d="M252.678,151.836s-9.14,4.405-5.58-10.729c0,0-10.281,3.945-14.6-.809,0,0-14.449,1.71-12.5-4.471,0,0-.95-3.834,4.746-2.4,0,0-.352-4.562,5.492-4.006,0,0,1.407-3.228,6.742-1.781,0,0,.549-4.2,7.67-.373,0,0,9.014-.072,7.568,5.938,0,0,12.018.111,7.079,7.47,0,0,3.715,3.212-.689,5.487C258.607,146.164,260.822,154.75,252.678,151.836Z" transform="translate(-219.819 -125.662)" fill="#263238"/>
      <path id="Path_1258" data-name="Path 1258" d="M231.121,149.339a10.718,10.718,0,0,1-3.917,6.131c-2.543,1.87-4.464-.394-4.324-3.587.128-2.874,1.6-7.313,4.414-7.9S231.809,146.274,231.121,149.339Z" transform="translate(-193.971 -122.167)" fill="#b97964"/>
    </g>
    <g id="Group_459" data-name="Group 459" transform="translate(111.814 61.466)">
      <path id="Path_1259" data-name="Path 1259" d="M216.785,180.657a12.365,12.365,0,0,1,3.887,4.166c3.788,6.686,13.708,26.277,12.439,46.074-1.565,24.4-35.012,38.141-35.012,38.141l-4.983-8.149s32.725-25.881,17.84-52.53C210.956,208.359,193.416,165,216.785,180.657Z" transform="translate(-193.116 -177.247)" fill="#407bff"/>
      <path id="Path_1260" data-name="Path 1260" d="M216.785,180.657a12.365,12.365,0,0,1,3.887,4.166c3.788,6.686,13.708,26.277,12.439,46.074-1.565,24.4-35.012,38.141-35.012,38.141l-4.983-8.149s32.725-25.881,17.84-52.53C210.956,208.359,193.416,165,216.785,180.657Z" transform="translate(-193.116 -177.247)" opacity="0.2"/>
    </g>
    <path id="Path_1261" data-name="Path 1261" d="M240.2,188.045l-1.486.221,1.564,14.389,1.955.2Z" transform="translate(-144.638 -113.712)" fill="#407bff"/>
    <path id="Path_1262" data-name="Path 1262" d="M250.2,187.6l-1.245-1.1a20.375,20.375,0,0,0-6.028,14.545l1.638.7S245.507,191.038,250.2,187.6Z" transform="translate(-157.631 -114.008)" fill="#407bff"/>
    <g id="Group_460" data-name="Group 460" transform="translate(93.408 148.275)">
      <path id="Path_1263" data-name="Path 1263" d="M232.921,250.1l12.089,16.058-5.123,2.92L227.661,252.6Z" transform="translate(-227.661 -250.1)" fill="#407bff"/>
      <path id="Path_1264" data-name="Path 1264" d="M232.921,250.1l12.089,16.058-5.123,2.92L227.661,252.6Z" transform="translate(-227.661 -250.1)" opacity="0.2"/>
    </g>
    <path id="Path_1265" data-name="Path 1265" d="M229.92,234.089s17.459,3.152,34.431,1.94C264.351,236.029,236.468,243.06,229.92,234.089Z" transform="translate(-156.286 -104.892)" opacity="0.1"/>
    <g id="Group_461" data-name="Group 461" transform="translate(29.063 45.146)">
      <path id="Path_1266" data-name="Path 1266" d="M292.9,186.7h5.211a1.1,1.1,0,0,0,.985-1.576l-9.8-20.1a2.615,2.615,0,0,0-2.352-1.469h-5.211a1.1,1.1,0,0,0-.985,1.576l9.8,20.1A2.616,2.616,0,0,0,292.9,186.7Z" transform="translate(-280.632 -163.55)" fill="#407bff"/>
      <path id="Path_1267" data-name="Path 1267" d="M282.774,164.2a1.082,1.082,0,0,1,.993-.649h5.211a2.615,2.615,0,0,1,2.352,1.469l7.364,15.1Z" transform="translate(-282.669 -163.55)" fill="#fff" opacity="0.2"/>
      <path id="Path_1268" data-name="Path 1268" d="M281.734,163.55h.17a1.077,1.077,0,0,0,.1.325l9.8,20.1a2.615,2.615,0,0,0,2.352,1.469h5.04a1.094,1.094,0,0,1-1.081,1.252H292.9a2.616,2.616,0,0,1-2.352-1.47l-9.8-20.1A1.1,1.1,0,0,1,281.734,163.55Z" transform="translate(-280.636 -163.55)" fill="#407bff"/>
      <path id="Path_1269" data-name="Path 1269" d="M281.734,163.55h.17a1.077,1.077,0,0,0,.1.325l9.8,20.1a2.615,2.615,0,0,0,2.352,1.469h5.04a1.094,1.094,0,0,1-1.081,1.252H292.9a2.616,2.616,0,0,1-2.352-1.47l-9.8-20.1A1.1,1.1,0,0,1,281.734,163.55Z" transform="translate(-280.636 -163.55)" opacity="0.2"/>
    </g>
    <path id="Path_1270" data-name="Path 1270" d="M288.911,171.472l1.534-.926a2.555,2.555,0,0,1,3.863,1.94l.8,8.207a2.561,2.561,0,0,1-.566,1.866l-.747.91a.921.921,0,0,1-1.584-.281l-3.69-10.625A.921.921,0,0,1,288.911,171.472Z" transform="translate(-256.809 -117.135)" fill="#b97964"/>
  </g>
</svg>
