<svg xmlns="http://www.w3.org/2000/svg" width="500" height="466" viewBox="0 0 500 466">
  <g id="sign-up-OTP-as-company" transform="translate(0 -54.953)">
    <g id="Background_Complete" data-name="Background Complete" transform="translate(0 54.953)">
      <g id="Group_234" data-name="Group 234">
        <rect id="Rectangle_126" data-name="Rectangle 126" width="500" height="0.25" transform="translate(0 420.837)" fill="#ebebeb"/>
        <rect id="Rectangle_127" data-name="Rectangle 127" width="33.122" height="0.25" transform="translate(104.545 427.647)" fill="#ebebeb"/>
        <rect id="Rectangle_128" data-name="Rectangle 128" width="40.749" height="0.25" transform="translate(171.14 436.808)" fill="#ebebeb"/>
        <rect id="Rectangle_129" data-name="Rectangle 129" width="51.085" height="0.25" transform="translate(52.459 433.674)" fill="#ebebeb"/>
        <rect id="Rectangle_130" data-name="Rectangle 130" width="93.14" height="0.25" transform="translate(356.762 429.327)" fill="#ebebeb"/>
        <rect id="Rectangle_131" data-name="Rectangle 131" width="6.333" height="0.25" transform="translate(341.525 429.327)" fill="#ebebeb"/>
        <rect id="Rectangle_132" data-name="Rectangle 132" width="42.231" height="0.25" transform="translate(277.213 433.549)" fill="#ebebeb"/>
        <path id="Path_896" data-name="Path 896" d="M237.014,337.8H43.915a5.715,5.715,0,0,1-5.708-5.708V60.66a5.714,5.714,0,0,1,5.708-5.707h193.1a5.714,5.714,0,0,1,5.707,5.707V332.092A5.715,5.715,0,0,1,237.014,337.8ZM43.915,55.2a5.463,5.463,0,0,0-5.458,5.457V332.092a5.464,5.464,0,0,0,5.458,5.458h193.1a5.463,5.463,0,0,0,5.457-5.458V60.66a5.463,5.463,0,0,0-5.457-5.457Z" transform="translate(0 -54.953)" fill="#ebebeb"/>
        <path id="Path_897" data-name="Path 897" d="M453.31,337.8h-193.1a5.714,5.714,0,0,1-5.707-5.708V60.66a5.713,5.713,0,0,1,5.707-5.707h193.1a5.714,5.714,0,0,1,5.709,5.707V332.092A5.715,5.715,0,0,1,453.31,337.8ZM260.212,55.2a5.463,5.463,0,0,0-5.457,5.457V332.092a5.463,5.463,0,0,0,5.457,5.458h193.1a5.464,5.464,0,0,0,5.459-5.458V60.66A5.464,5.464,0,0,0,453.31,55.2Z" transform="translate(0 -54.953)" fill="#ebebeb"/>
      </g>
      <g id="Group_240" data-name="Group 240" transform="translate(127.718 219.661)">
        <g id="Group_239" data-name="Group 239">
          <rect id="Rectangle_133" data-name="Rectangle 133" width="201.176" height="80.748" transform="translate(102.673) rotate(90)" fill="#f0f0f0"/>
          <rect id="Rectangle_134" data-name="Rectangle 134" width="59.22" height="71.884" transform="translate(98.241 5.046) rotate(90)" fill="#e6e6e6"/>
          <rect id="Rectangle_135" data-name="Rectangle 135" width="59.22" height="71.884" transform="translate(98.241 69.581) rotate(90)" fill="#e6e6e6"/>
          <rect id="Rectangle_136" data-name="Rectangle 136" width="59.22" height="71.884" transform="translate(98.241 134.116) rotate(90)" fill="#e6e6e6"/>
          <rect id="Rectangle_137" data-name="Rectangle 137" width="59.22" height="28.274" transform="translate(98.241 5.046) rotate(90)" fill="#e0e0e0"/>
          <rect id="Rectangle_138" data-name="Rectangle 138" width="59.22" height="28.274" transform="translate(98.241 69.581) rotate(90)" fill="#e0e0e0"/>
          <g id="Group_238" data-name="Group 238" transform="translate(29.454 81.491)">
            <g id="Group_235" data-name="Group 235" transform="translate(0 23.655)">
              <rect id="Rectangle_139" data-name="Rectangle 139" width="19.585" height="23.655" transform="translate(8.269)" fill="#fafafa"/>
              <rect id="Rectangle_140" data-name="Rectangle 140" width="8.269" height="23.655" transform="translate(8.269 23.655) rotate(180)" fill="#f0f0f0"/>
            </g>
            <g id="Group_236" data-name="Group 236" transform="translate(31.641 23.655)">
              <rect id="Rectangle_141" data-name="Rectangle 141" width="19.585" height="23.655" transform="translate(8.269)" fill="#fafafa"/>
              <rect id="Rectangle_142" data-name="Rectangle 142" width="8.269" height="23.655" transform="translate(8.269 23.655) rotate(180)" fill="#f0f0f0"/>
            </g>
            <g id="Group_237" data-name="Group 237" transform="translate(16.166)">
              <rect id="Rectangle_143" data-name="Rectangle 143" width="19.585" height="23.655" transform="translate(8.269 0)" fill="#fafafa"/>
              <rect id="Rectangle_144" data-name="Rectangle 144" width="8.269" height="23.655" transform="translate(8.269 23.655) rotate(180)" fill="#f0f0f0"/>
            </g>
          </g>
          <rect id="Rectangle_145" data-name="Rectangle 145" width="59.22" height="28.274" transform="translate(98.241 134.116) rotate(90)" fill="#e0e0e0"/>
          <rect id="Rectangle_146" data-name="Rectangle 146" width="201.176" height="21.925" transform="translate(21.925) rotate(90)" fill="#f5f5f5"/>
        </g>
        <rect id="Rectangle_147" data-name="Rectangle 147" width="58.368" height="50.682" transform="translate(34.994 142.654)" fill="#f0f0f0"/>
        <rect id="Rectangle_148" data-name="Rectangle 148" width="8.637" height="50.682" transform="translate(34.994 193.336) rotate(180)" fill="#e0e0e0"/>
        <rect id="Rectangle_149" data-name="Rectangle 149" width="58.368" height="50.682" transform="translate(34.994 13.583)" fill="#f0f0f0"/>
        <rect id="Rectangle_150" data-name="Rectangle 150" width="8.637" height="50.682" transform="translate(34.994 64.266) rotate(180)" fill="#e0e0e0"/>
      </g>
      <g id="Group_241" data-name="Group 241" transform="translate(286.361 32.714)">
        <rect id="Rectangle_151" data-name="Rectangle 151" width="388.123" height="139.118" transform="translate(139.639 0) rotate(90)" fill="#fafafa"/>
        <rect id="Rectangle_152" data-name="Rectangle 152" width="388.123" height="0.521" transform="translate(0.521 0) rotate(90)" fill="#f0f0f0"/>
        <rect id="Rectangle_153" data-name="Rectangle 153" width="113.56" height="378.447" transform="translate(10.58 9.676)" fill="#e6e6e6"/>
        <rect id="Rectangle_154" data-name="Rectangle 154" width="116.799" height="378.447" transform="translate(13.421 9.676)" fill="#f0f0f0"/>
        <path id="Path_898" data-name="Path 898" d="M408.07,242.243v3.588l3.59-3.588Z" transform="translate(-286.361 -38.082)" fill="#e0e0e0"/>
        <rect id="Rectangle_155" data-name="Rectangle 155" width="361.423" height="99.775" transform="translate(121.709 18.188) rotate(90)" fill="#fafafa"/>
        <path id="Path_899" data-name="Path 899" d="M389.52,240.78a2.759,2.759,0,1,0,0,5.519h17.469V240.78Z" transform="translate(-286.361 -38.224)" fill="#f5f5f5"/>
        <path id="Path_900" data-name="Path 900" d="M330.18,467.278l30.451-361.423h20.514L350.694,467.278Z" transform="translate(-286.361 -87.667)" fill="#fff"/>
        <path id="Path_901" data-name="Path 901" d="M355.1,467.278l30.451-361.423h8L363.1,467.278Z" transform="translate(-286.361 -87.667)" fill="#fff"/>
        <rect id="Rectangle_156" data-name="Rectangle 156" width="361.423" height="1.081" transform="translate(121.709 18.188) rotate(90)" fill="#e6e6e6"/>
        <path id="Path_902" data-name="Path 902" d="M410.714,242.63h-17.47a2.759,2.759,0,0,1-2.759-2.759h0a2.76,2.76,0,0,1,2.759-2.76h17.47a2.76,2.76,0,0,1,2.759,2.76h0A2.759,2.759,0,0,1,410.714,242.63Z" transform="translate(-286.361 -39.409)" fill="#ebebeb"/>
      </g>
      <g id="Group_246" data-name="Group 246" transform="translate(63.968 29.216)">
        <g id="Group_243" data-name="Group 243" transform="translate(0 37.677)">
          <g id="Group_242" data-name="Group 242">
            <rect id="Rectangle_157" data-name="Rectangle 157" width="49.086" height="78.088" fill="#e0e0e0"/>
            <rect id="Rectangle_158" data-name="Rectangle 158" width="50.753" height="78.088" transform="translate(1.293)" fill="#f5f5f5"/>
            <rect id="Rectangle_159" data-name="Rectangle 159" width="66.7" height="42.25" transform="translate(5.544 72.394) rotate(-90)" fill="#fff"/>
          </g>
        </g>
        <g id="Group_245" data-name="Group 245" transform="translate(69.315)">
          <g id="Group_244" data-name="Group 244">
            <rect id="Rectangle_160" data-name="Rectangle 160" width="49.086" height="78.088" fill="#e0e0e0"/>
            <rect id="Rectangle_161" data-name="Rectangle 161" width="50.753" height="78.088" transform="translate(1.293)" fill="#f5f5f5"/>
            <rect id="Rectangle_162" data-name="Rectangle 162" width="66.7" height="42.249" transform="translate(5.544 72.394) rotate(-90)" fill="#fff"/>
          </g>
        </g>
      </g>
    </g>
    <g id="Shadow" transform="translate(56.111 498.306)">
      <ellipse id="_Path_" data-name="&lt;Path&gt;" cx="193.889" cy="11.323" rx="193.889" ry="11.323" fill="#f5f5f5"/>
    </g>
    <g id="Nessage" transform="translate(145.311 144.887)">
      <g id="Group_253" data-name="Group 253">
        <g id="Group_250" data-name="Group 250" transform="translate(12.806 91.698)">
          <g id="Group_247" data-name="Group 247" transform="translate(0 47.282)">
            <path id="Path_903" data-name="Path 903" d="M332.032,271.487l6.959,81.085c.566,6.6-3.471,12.382-8.973,12.854L176.16,378.631c-5.5.472-10.465-4.54-11.031-11.138l-6.959-81.085a13.815,13.815,0,0,1,.349-4.541c1.106-4.526,4.439-7.954,8.623-8.313L321,260.35c4.177-.359,8.053,2.451,9.914,6.712A13.891,13.891,0,0,1,332.032,271.487Z" transform="translate(-158.117 -260.319)" fill="#407bff"/>
            <path id="Path_904" data-name="Path 904" d="M332.032,271.487l6.959,81.085c.566,6.6-3.471,12.382-8.973,12.854L176.16,378.631c-5.5.472-10.465-4.54-11.031-11.138l-6.959-81.085a13.815,13.815,0,0,1,.349-4.541c1.106-4.526,4.439-7.954,8.623-8.313L321,260.35c4.177-.359,8.053,2.451,9.914,6.712A13.891,13.891,0,0,1,332.032,271.487Z" transform="translate(-158.117 -260.319)" opacity="0.1"/>
          </g>
          <rect id="Rectangle_163" data-name="Rectangle 163" width="1.096" height="3.679" transform="translate(191.107 106.336) rotate(-6.895)" fill="#407bff"/>
          <rect id="Rectangle_164" data-name="Rectangle 164" width="1.096" height="13.707" transform="matrix(0.993, -0.12, 0.12, 0.993, 188.975, 88.705)" fill="#407bff"/>
          <path id="Path_905" data-name="Path 905" d="M338.921,256.987l10.059,83.157c.818,6.766-3.128,12.86-8.77,13.543L182.42,372.772c-5.641.683-10.927-4.3-11.745-11.061l-10.059-83.157a14.244,14.244,0,0,1,.2-4.684c.976-4.7,4.282-8.34,8.573-8.859l157.79-19.086c4.282-.518,8.371,2.233,10.436,6.55A14.288,14.288,0,0,1,338.921,256.987Z" transform="translate(-158.117 -213.037)" fill="#407bff"/>
          <path id="Path_906" data-name="Path 906" d="M337.612,252.475l-71.57,48.193A26.436,26.436,0,0,1,241.8,303.6l-80.987-29.73c.976-4.7,4.282-8.34,8.573-8.859l157.79-19.086C331.458,245.407,335.547,248.158,337.612,252.475Z" transform="translate(-158.117 -213.037)" opacity="0.1"/>
          <g id="Group_249" data-name="Group 249" transform="translate(26.767)">
            <path id="Path_907" data-name="Path 907" d="M310.914,270.45l-20.565,13.842-6.724,4.533-17.587,11.838a26.323,26.323,0,0,1-23.609,3.142c-.208-.054-.416-.131-.624-.208l-9.867-3.624-22.2-8.147-10.382-3.811L187.6,283.7l-.844-20.794-1.872-46.2,90.331-3.668,34.429,26.094.361,8.87Z" transform="translate(-184.884 -213.037)" fill="#407bff"/>
            <path id="Path_908" data-name="Path 908" d="M310.914,270.45l-20.565,13.842-6.724,4.533-17.587,11.838a26.323,26.323,0,0,1-23.609,3.142c-.208-.054-.416-.131-.624-.208l-9.867-3.624-22.2-8.147-10.382-3.811L187.6,283.7l-.844-20.794-1.872-46.2,90.331-3.668,34.429,26.094.361,8.87Z" transform="translate(-184.884 -213.037)" fill="#fafafa" opacity="0.7"/>
            <g id="Group_248" data-name="Group 248" transform="translate(11.081 31.027)" opacity="0.9">
              <path id="Path_909" data-name="Path 909" d="M298.178,248.321l-100,4.06a2.135,2.135,0,0,1-2.214-2.041h0a2.136,2.136,0,0,1,2.041-2.214l100-4.06a2.135,2.135,0,0,1,2.214,2.041h0A2.136,2.136,0,0,1,298.178,248.321Z" transform="translate(-195.965 -244.064)" fill="#fff"/>
              <path id="Path_910" data-name="Path 910" d="M298.717,261.605l-100,4.06a2.136,2.136,0,0,1-2.214-2.041h0a2.136,2.136,0,0,1,2.041-2.214l100-4.06a2.136,2.136,0,0,1,2.214,2.041h0A2.136,2.136,0,0,1,298.717,261.605Z" transform="translate(-195.965 -244.064)" fill="#fff"/>
              <path id="Path_911" data-name="Path 911" d="M299.257,274.889l-100,4.061a2.135,2.135,0,0,1-2.213-2.042h0a2.134,2.134,0,0,1,2.041-2.213l100-4.061a2.136,2.136,0,0,1,2.214,2.041h0A2.135,2.135,0,0,1,299.257,274.889Z" transform="translate(-195.965 -244.064)" fill="#fff"/>
              <path id="Path_912" data-name="Path 912" d="M290.349,284.292l-6.724,4.533-73.883,3-10.382-3.811a1.083,1.083,0,0,1,.263-.033Z" transform="translate(-195.965 -244.064)" fill="#fff"/>
              <path id="Path_913" data-name="Path 913" d="M262.983,300.838v.077a2.143,2.143,0,0,1-2.037,2.146l-18.517.744c-.208-.054-.416-.131-.624-.208l-9.867-3.624,28.833-1.172A2.136,2.136,0,0,1,262.983,300.838Z" transform="translate(-195.965 -244.064)" fill="#fff"/>
            </g>
            <path id="Path_914" data-name="Path 914" d="M309.645,239.131,285.721,238.1,275.216,213.04Z" transform="translate(-184.884 -213.037)" fill="#263238" opacity="0.1"/>
            <path id="Path_915" data-name="Path 915" d="M309.645,239.131l-23.211-3.978L275.216,213.04Z" transform="translate(-184.884 -213.037)" fill="#407bff"/>
          </g>
        </g>
        <g id="Group_251" data-name="Group 251" transform="translate(164.145)">
          <path id="Path_916" data-name="Path 916" d="M325.264,137.078c-4.638,5.092-10.937,6.906-14.071,4.052s-1.913-9.295,2.725-14.387,10.938-6.907,14.071-4.053S329.9,131.985,325.264,137.078Z" transform="translate(-309.455 -121.339)" fill="#fff" opacity="0.1"/>
          <path id="Path_917" data-name="Path 917" d="M311.593,157.564c-.61-1.517-.45-3.011.358-3.336s1.958.641,2.569,2.158.45,3.01-.358,3.335S312.2,159.081,311.593,157.564Z" transform="translate(-309.455 -121.339)" fill="#fff" opacity="0.1"/>
        </g>
        <g id="Group_252" data-name="Group 252" transform="translate(0 16.015)">
          <ellipse id="Ellipse_154" data-name="Ellipse 154" cx="12.471" cy="7.674" rx="12.471" ry="7.674" transform="translate(0 18.44) rotate(-47.672)" fill="#fff" opacity="0.1"/>
          <path id="Path_918" data-name="Path 918" d="M151.384,177.4c-.611-1.517-.451-3.01.358-3.336s1.958.641,2.569,2.158.45,3.011-.358,3.336S151.995,178.912,151.384,177.4Z" transform="translate(-145.311 -137.354)" fill="#fff" opacity="0.1"/>
        </g>
      </g>
    </g>
  </g>
</svg>
