<svg xmlns="http://www.w3.org/2000/svg" width="89" height="89" viewBox="0 0 89 89">
  <g id="Art_Design" data-name="Art &amp;Design" transform="translate(-328 -2394)">
    <rect id="Rectangle_44" data-name="Rectangle 44" width="89" height="89" rx="12" transform="translate(328 2394)" fill="#219ebc" opacity="0.1"/>
    <g id="pantone" transform="translate(355 2421)">
      <path id="Path_79" data-name="Path 79" d="M26.674,13.18h-4.5l-3.1,3.335-5.936,6.37-2.351,2.534-.784.8H26.674a1.667,1.667,0,0,0,1.667-1.667v-9.7A1.667,1.667,0,0,0,26.674,13.18Z" transform="translate(4.658 6.781)" fill="#219ebc"/>
      <path id="Path_80" data-name="Path 80" d="M22.482,12.052l-6.9-6.436a1.484,1.484,0,0,0-1.184-.434,1.667,1.667,0,0,0-1.167.517L11.86,7.183V25.041a8.72,8.72,0,0,1-.1.95L22.565,14.4A1.667,1.667,0,0,0,22.482,12.052Z" transform="translate(5.833 1.453)" fill="#219ebc"/>
      <path id="Path_81" data-name="Path 81" d="M16.039,4.667A1.667,1.667,0,0,0,14.372,3h-9.7A1.667,1.667,0,0,0,3,4.667V26.483a6.52,6.52,0,0,0,13.039,0ZM12.7,26.483a3.185,3.185,0,0,1-6.37,0V23H12.7Zm0-6.817H6.335v-5H12.7Zm0-8.333H6.335v-5H12.7Z" transform="translate(0 0)" fill="#219ebc"/>
    </g>
  </g>
</svg>
