<svg xmlns="http://www.w3.org/2000/svg" width="89" height="89" viewBox="0 0 89 89">
  <g id="Industry" transform="translate(-1183 -2104)">
    <rect id="Rectangle_42" data-name="Rectangle 42" width="89" height="89" rx="12" transform="translate(1183 2104)" fill="#eb5d60" opacity="0.1"/>
    <g id="car" transform="translate(1209.002 2131)">
      <path id="Path_78" data-name="Path 78" d="M34.626,16.682l-7.657-6.159V6.329A3.179,3.179,0,0,0,23.956,3H4.981A3.179,3.179,0,0,0,2,6.329V22.974A3.329,3.329,0,0,0,4,26.1a4.993,4.993,0,1,0,9.321.2H23.906a4.993,4.993,0,1,0,9.388,0h.333a1.664,1.664,0,0,0,1.664-1.664V17.98a1.664,1.664,0,0,0-.666-1.3Zm-2.663,2.1v4.195H26.969V14.785ZM10.324,27.967A1.664,1.664,0,1,1,8.66,26.3,1.664,1.664,0,0,1,10.324,27.967Zm19.974,0A1.664,1.664,0,1,1,28.633,26.3,1.664,1.664,0,0,1,30.3,27.967Z" transform="translate(0 0)" fill="#eb5d60"/>
    </g>
  </g>
</svg>
