<svg xmlns="http://www.w3.org/2000/svg" width="77.726" height="80" viewBox="0 0 77.726 80">
  <g id="amazon" transform="translate(-5.034 -5)">
    <path id="Path_109" data-name="Path 109" d="M75.942,43.289c-8.624,6.375-21.538,10.276-32,10.276A57.347,57.347,0,0,1,5.374,38.36c-.821-.828,0-1.646.825-1.237a74.2,74.2,0,0,0,37.53,10.066,84,84,0,0,0,30.978-6.166C76.143,40.615,77.374,42.261,75.942,43.289Zm3.077-4.32c-1.026-1.437-7.179-.608-9.848-.409-.827,0-1.026-.617-.209-1.227,4.72-3.5,12.718-2.474,13.543-1.237s-.209,9.248-4.72,12.948c-.615.621-1.436.2-1.026-.407,1.026-2.474,3.286-8.221,2.261-9.668Z" transform="translate(0 31.435)" fill="#ffb300"/>
    <path id="Path_110" data-name="Path 110" d="M63.063,55.969c-2.055-2.672-4.11-4.937-4.11-10.075V28.845c0-7.193,0-13.568-5.138-18.5C49.7,6.437,42.93,5,37.582,5c-11.3,0-21.169,4.521-23.635,17.26a1.949,1.949,0,0,0,1.644,2.265l10.477,1.237c1.028,0,1.646-1.028,1.856-2.055.818-4.32,4.31-6.375,8.42-6.375,2.265,0,6.585,1.237,6.585,6.166v6.166c-6.585,0-13.568,0-19.325,2.466C16.823,35.01,12.1,40.966,12.1,49.8c0,11.3,6.984,16.853,16.022,16.853,7.612,0,12.132-1.846,18.088-7.81,1.856,2.881,2.674,4.517,6.166,7.6a2.134,2.134,0,0,0,2.466-.2c2.055-1.856,5.964-5.348,8.221-7.193,1.028-.828.826-2.055,0-3.083ZM42.72,40.15c0,4.11-.21,14.177-10.276,14.177-6.166,0-6.166-6.166-6.166-6.166,0-9.248,8.632-10.276,16.442-10.276Z" transform="translate(7.375 0)" fill="#37474f"/>
  </g>
</svg>
