<svg xmlns="http://www.w3.org/2000/svg" xmlns:xlink="http://www.w3.org/1999/xlink" width="80.765" height="80.089" viewBox="0 0 80.765 80.089">
  <defs>
    <linearGradient id="linear-gradient" x1="0.5" y1="0.635" x2="0.5" y2="-0.365" gradientUnits="objectBoundingBox">
      <stop offset="0" stop-color="#f7e830"/>
      <stop offset="1" stop-color="#fdcb06"/>
    </linearGradient>
    <radialGradient id="radial-gradient" cx="0.496" cy="3.536" r="4.378" gradientTransform="matrix(0.154, 0, 0, -1, 0.419, 4.088)" gradientUnits="objectBoundingBox">
      <stop offset="0.596" stop-color="#f29405"/>
      <stop offset="0.736" stop-color="#f7d01e"/>
      <stop offset="1" stop-color="#fdcb06"/>
    </radialGradient>
    <linearGradient id="linear-gradient-2" x1="0.491" y1="11.655" x2="0.499" y2="10.674" gradientUnits="objectBoundingBox">
      <stop offset="0" stop-color="#fada1c"/>
      <stop offset="1" stop-color="#fdcb06"/>
    </linearGradient>
    <linearGradient id="linear-gradient-3" x1="101.001" y1="11.748" x2="101.009" y2="10.768" xlink:href="#linear-gradient-2"/>
    <clipPath id="clip-path">
      <path id="Path_108" data-name="Path 108" d="M274.63,189.307a1.206,1.206,0,0,1-.1-.569l-.091.011a1.293,1.293,0,0,0-1.1-1c-.409-.034-.921-.023-1.16.364-.455.614-.239,1.4-.262,2.092,0,.045.011.125.011.171a7.947,7.947,0,0,1-.136,1.376.978.978,0,0,0-.1.443,10.485,10.485,0,0,1-1.1,3.093,1.147,1.147,0,0,0-.216.443,15.366,15.366,0,0,1-1.171,1.683,1.461,1.461,0,0,0-.182.193,11.1,11.1,0,0,1-.944.989c-.079.045-.136.1-.2.148a7.406,7.406,0,0,1-1.285,1.012c-.057.034-.114.08-.182.125a18.282,18.282,0,0,1-9.892,2.752,18.477,18.477,0,0,1-8.505-1.8c-.045-.023-.159-.068-.2-.091a11.375,11.375,0,0,1-1.308-.739c-.091-.045-.182-.1-.284-.148a8.689,8.689,0,0,1-1.194-.841c-.125-.114-.262-.2-.4-.307a9.637,9.637,0,0,1-1.182-1.08c-.091-.1-.182-.193-.273-.284a11.333,11.333,0,0,1-2.717-4.559,14.043,14.043,0,0,1-.478-4.252,1.524,1.524,0,0,0-1.956-.591c-.284.2-.318.58-.534.841a13.355,13.355,0,0,0,3.809,10.2.184.184,0,0,0,.125.182c.455.421.9.853,1.353,1.262a1.81,1.81,0,0,0,.273.227c.455.375.944.716,1.421,1.069a2.419,2.419,0,0,0,.284.182,12.789,12.789,0,0,0,1.887,1.046,1.486,1.486,0,0,0,.171.114,20.5,20.5,0,0,0,6.879,1.967,3.674,3.674,0,0,1,.785.08c1.137.068,2.274.034,3.411.011a20.456,20.456,0,0,0,10.074-3.229l.034.045c.091-.08.171-.148.262-.216.466-.341.921-.7,1.376-1.08a3.456,3.456,0,0,0,.318-.273,15,15,0,0,0,1.5-1.671l.068.034c.034-.057.091-.171.125-.227.386-.523.739-1.069,1.08-1.615.023-.034.079-.091.1-.125l-.045-.045c.034-.045.114-.136.148-.182a13.34,13.34,0,0,0,1.376-4.014.2.2,0,0,0,.125-.182A10.709,10.709,0,0,0,274.54,191a7.744,7.744,0,0,0,.09-1.694Z" transform="translate(-237.424 -187.737)"/>
    </clipPath>
  </defs>
  <g id="flipkart" transform="translate(-44.437 -47.015)">
    <path id="Path_94" data-name="Path 94" d="M125.208,166.939c-.034-.113-.068-.226-.113-.339q-40.192.017-80.361.011a.467.467,0,0,0-.124.26q0,31.133-.012,62.254a5.035,5.035,0,0,0,1.6,2.87c.034.011.113.022.147.034a3.935,3.935,0,0,0,1.583.859c.418-.022.826.158,1.244.113H82.421a2.691,2.691,0,0,0,.95-.079c.012-.045.023-.124.034-.169s.023-.181.034-.248c.713-3.977,1.4-7.965,2.16-11.942l.068-.508c-3.076-.012-6.164,0-9.241-.012-.747-.022-1.515,0-2.262-.09-1.278-.057-2.567-.011-3.845-.135-1.583,0-3.156-.147-4.739-.147-1.244-.124-2.5-.079-3.755-.135-.814-.1-1.651-.057-2.477-.091-1.346-.147-2.715-.045-4.06-.192-1.425.012-2.85-.113-4.275-.147a.161.161,0,0,0,.023-.068c.475.011.939-.022,1.414-.034,1.052-.136,2.115-.045,3.167-.192,1.1,0,2.183-.147,3.28-.147.973-.136,1.957-.056,2.929-.192,1.143,0,2.262-.147,3.4-.158.939-.124,1.889-.057,2.828-.181,1.1.011,2.183-.158,3.28-.147,1.075-.125,2.171-.091,3.246-.2-.1-.418-.181-.836-.271-1.254-.079-.26-.4-.2-.6-.237q-3.682-.526-7.341-1.039c.158-.125.373-.068.554-.09,1.9-.147,3.789-.316,5.689-.452.43-.022.848-.1,1.278-.113a14.751,14.751,0,0,0-.566-1.774c-4.06-.621-8.121-1.175-12.17-1.842,1.052-.169,2.115-.248,3.167-.361l.09-.034c3.359-.35,6.73-.746,10.089-1.073,4.264-.022,8.517-.012,12.781,0,.136-.022.373.045.4-.147.351-1.83.69-3.66,1.04-5.491a27.393,27.393,0,0,1,2.443-7.366,21.734,21.734,0,0,1,8.415-8.993,24.268,24.268,0,0,1,11.118-3.1,17.485,17.485,0,0,1,3.766.079,5.267,5.267,0,0,1,2.3.972,3.846,3.846,0,0,1,1.086,1.695,26.947,26.947,0,0,1,1.063,4.632,3.576,3.576,0,0,1-.215,1.921,2.432,2.432,0,0,1-1.549,1.006c-2.183.565-4.468.034-6.651.565a8.094,8.094,0,0,0-4.615,2.813,13.1,13.1,0,0,0-2.454,5.83c-.305,1.853-.69,3.706-1,5.57,2.149.012,4.309-.011,6.47.012a2.277,2.277,0,0,1,2.092,1.288,6.206,6.206,0,0,1,.2,3.311,12.039,12.039,0,0,1-1.029,3.581,4.047,4.047,0,0,1-2.285,2.181,4.566,4.566,0,0,1-1.708.169c-1.9,0-3.8.022-5.7,0-.305,1.39-.509,2.813-.78,4.226-.5,2.745-.984,5.5-1.482,8.259-.011.09-.023.282-.023.384.894.045,1.787,0,2.681.022,6.628,0,13.267-.012,19.906,0a3.966,3.966,0,0,0,2.059-.5c.373-.135.6-.463.927-.644s.407-.553.679-.791a3.763,3.763,0,0,0,.622-1.672,1.016,1.016,0,0,0,.17-.022C125.2,208.517,125.231,187.728,125.208,166.939Z" transform="translate(-0.108 -105.949)" stroke="#fcd109" stroke-width="0.094" fill="url(#linear-gradient)"/>
    <path id="Path_95" data-name="Path 95" d="M55.043,47.234A12.206,12.206,0,0,1,58,47.063q27.705.017,55.41,0a9.287,9.287,0,0,1,3.076.9c.814.33,1.663.591,2.477.944a1.348,1.348,0,0,1,.418.341c-.011,1.5,0,3.013,0,4.525a3.851,3.851,0,0,0,.079,1.194c.238.034.362.216.521.364a15.315,15.315,0,0,1,2.058,1.353c1.018.728,2.1,1.364,3.1,2.115a1.9,1.9,0,0,1-.079.876,4.759,4.759,0,0,0-.068.978q-40.192.017-80.361.011a3.975,3.975,0,0,0-.113-1.1c-.023-.3-.124-.682.158-.887,1.131-.8,2.33-1.512,3.438-2.354.69-.443,1.357-.9,2.025-1.353a1.453,1.453,0,0,0,.09-.762c0-1.649,0-3.3.011-4.946.385-.5,1.052-.557,1.583-.807,1.075-.409,2.161-.807,3.224-1.217m.068.193c-1.448.557-2.907,1.092-4.355,1.649-.192.034-.294.2-.4.352.011.091.023.25.023.341-.012,1.364,0,2.729-.012,4.093a2.868,2.868,0,0,0,.09.989,2.81,2.81,0,0,1-.486.409c-1.64,1.069-3.223,2.229-4.864,3.286-.283.171-.6.4-.509.773-.057.2.045.375.26.318,3.552-.023,7.092.023,10.643-.034,5.282,0,10.553.011,15.835,0l.079-.034a3.063,3.063,0,0,0,.724.034q14.353,0,28.717,0c3.009.011,6.029,0,9.048,0,4.977,0,9.965.045,14.941.023.147-.034.192-.136.136-.318-.012-.182.057-.432-.136-.546-.792-.375-1.47-.955-2.228-1.41-.271-.227-.622-.352-.826-.659-.78-.443-1.5-.989-2.274-1.478a2.31,2.31,0,0,1-.384-.364,2.784,2.784,0,0,0,.09-.75c-.011-1.444,0-2.888-.011-4.332a.63.63,0,0,0-.181-.637c-1.357-.489-2.7-1.012-4.049-1.512a4.607,4.607,0,0,0-1.335-.387H55.846a4.393,4.393,0,0,0-.735.193Z" fill="#f8f3b5" stroke="#f8f3b5" stroke-width="0.094"/>
    <path id="Path_96" data-name="Path 96" d="M96.61,70.9c.994.421,2.056.659,3.062,1.069.542.216.712.807.949,1.285a4.71,4.71,0,0,1-.8.614c-1.04.7-2.1,1.387-3.13,2.115a2.87,2.87,0,0,1-.09-.989C96.61,73.629,96.6,72.264,96.61,70.9Zm65.711,1.069c1.006-.4,2.057-.671,3.063-1.069.011,1.444,0,2.888.011,4.332a2.786,2.786,0,0,1-.09.75c-.881-.614-1.774-1.194-2.656-1.8a10.415,10.415,0,0,1-1.288-.944C161.6,72.765,161.778,72.185,162.321,71.969Z" transform="translate(-46.195 -21.13)" fill="#f7b402" stroke="#f7b402" stroke-width="0.094"/>
    <path id="Path_97" data-name="Path 97" d="M236.19,84.014a2.142,2.142,0,0,1,2.547,2.126,2.165,2.165,0,0,1-2.581,2.035,2.472,2.472,0,0,1-1.285-.876,2.134,2.134,0,0,1-.171-2.069A2.033,2.033,0,0,1,236.19,84.014Zm32.439.716a2.186,2.186,0,0,1,2.126-.7,2.127,2.127,0,0,1,.534,3.923,2.2,2.2,0,0,1-2.615-.443A2.164,2.164,0,0,1,268.63,84.73Z" transform="translate(-168.638 -32.709)" fill="#bda727" stroke="#bda727" stroke-width="0.094"/>
    <path id="Path_98" data-name="Path 98" d="M54.468,92.125a4.713,4.713,0,0,0,.8-.614l.079.08c.079.591.023,1.194.045,1.785-.034,1.774.034,3.559-.045,5.333-3.291,0-6.582-.023-9.874,0-.09-.375.226-.6.509-.773,1.64-1.057,3.223-2.217,4.863-3.286a2.81,2.81,0,0,0,.486-.409C52.364,93.513,53.428,92.83,54.468,92.125Zm61.483-.227a.71.71,0,0,1,.113-.4,10.439,10.439,0,0,0,1.289.944c.882.6,1.776,1.183,2.658,1.8a2.328,2.328,0,0,0,.384.364c.769.489,1.493,1.035,2.273,1.478.2.307.554.432.826.659.758.455,1.436,1.035,2.228,1.41.192.114.124.364.136.546-3.292.011-6.572-.011-9.863.011-.057-.455-.023-.91-.034-1.353C115.963,95.536,115.94,93.717,115.951,91.9Z" transform="translate(-0.872 -39.388)" fill="#f7e62d" stroke="#f7e62d" stroke-width="0.094"/>
    <path id="Path_99" data-name="Path 99" d="M125.858,60.675c-3.292.011-6.572-.011-9.863.011-.057-.455-.023-.91-.034-1.353,0-1.819-.023-3.638-.012-5.458a.71.71,0,0,1,.113-.4c.238-.478.418-1.057.961-1.273,1.007-.4,2.058-.671,3.065-1.069a.63.63,0,0,0-.181-.637c-1.357-.489-2.7-1.012-4.049-1.512a4.607,4.607,0,0,0-1.335-.387H56.718a4.387,4.387,0,0,0-.735.193c-1.448.557-2.907,1.092-4.354,1.649-.192.034-.294.2-.4.352.011.091.023.25.023.341,1,.421,2.058.659,3.065,1.069.543.216.713.807.95,1.285l.079.08c.079.591.023,1.194.045,1.785-.034,1.774.034,3.559-.045,5.333-3.291,0-6.582-.023-9.874,0-.057.2.045.375.26.318,3.551-.023,7.092.023,10.643-.034,5.282,0,10.553.011,15.834,0l.079-.034a3.063,3.063,0,0,0,.724.034q14.353,0,28.717,0c3.009.011,6.029,0,9.048,0,4.977,0,9.965.045,14.941.023.147-.034.193-.136.136-.318ZM67.033,53.887a2.024,2.024,0,0,1,1.482-1.217A2.135,2.135,0,0,1,71.048,54.8a2.156,2.156,0,0,1-2.567,2.035,2.458,2.458,0,0,1-1.278-.876A2.144,2.144,0,0,1,67.033,53.887Zm33.75-.5a2.119,2.119,0,1,1,.045,2.774A2.167,2.167,0,0,1,100.783,53.387Z" transform="translate(-0.871 -1.366)" stroke="#fcd109" stroke-width="0.094" fill="url(#radial-gradient)"/>
    <path id="Path_100" data-name="Path 100" d="M554.939,189.062c.159.034-.829-.949-.635-.994a2.122,2.122,0,0,1,1.706-.076c.834.437.627,1.459.532,1.838a2.056,2.056,0,0,1-.627.966,1.1,1.1,0,0,1-.576.25c.1-.557-.227-.648-.25-1.217Z" transform="translate(-452.15 -124.844)" stroke="#fcd109" stroke-width="0.094" fill="url(#linear-gradient-2)"/>
    <path id="Path_101" data-name="Path 101" d="M228.358,188.5c-.023.569-.353.659-.25,1.217a1.1,1.1,0,0,1-.576-.25,2.058,2.058,0,0,1-.627-.966c-.095-.379-.3-1.4.532-1.838a2.12,2.12,0,0,1,1.706.076c.193.045-.794,1.029-.635.994Z" transform="translate(-161.715 -123.661)" stroke="#fcd109" stroke-width="0.094" fill="url(#linear-gradient-3)"/>
    <path id="Path_102" data-name="Path 102" d="M295.734,261.648a.628.628,0,0,1,.512-.148,26.5,26.5,0,0,1-5.35,8.214,8.023,8.023,0,0,1-.809.634c-.274.2-.543.389-.81.58s-.521.364-.775.555a10.638,10.638,0,0,1-1.933,1.057,18.158,18.158,0,0,1-4.139,1.342,12.133,12.133,0,0,1-1.694.239,9.9,9.9,0,0,1-2.172.1c-.4.068-.751-.159-1.137-.114q-.5-.071-1-.171t-1.005-.239c-5.212-1.626-10.329-5.606-11.82-10.988a6.047,6.047,0,0,1-.1-1.1q.239.478.495.948a16.674,16.674,0,0,0,11.3,9.359c.4.184.84.12,1.227.279a3.176,3.176,0,0,1,1.035.1c1.171.023,2.342.011,3.513.011a1.721,1.721,0,0,0,.466-.1,14.976,14.976,0,0,0,5.645-1.406q.534-.242,1.052-.516.453-.238.883-.516t.821-.579a18.834,18.834,0,0,0,5.16-6.312C295.329,262.435,295.544,262.021,295.734,261.648Z" transform="translate(-194.339 -190.211)" fill="#bda727" stroke="#bda727" stroke-width="0.094"/>
    <path id="Path_103" data-name="Path 103" d="M254.441,326.894a24.376,24.376,0,0,1,11.177-3.115,17.559,17.559,0,0,1,3.786.08,5.291,5.291,0,0,1,2.308.978,4.9,4.9,0,0,1-.978-.171,16.951,16.951,0,0,0-2.843-.136,29.859,29.859,0,0,0-8.152.966,19.14,19.14,0,0,0-4.036,1.637,20.147,20.147,0,0,0-5.742,4.707,24.642,24.642,0,0,0-5.321,11.62c-.387,2.262-.83,4.514-1.182,6.788-.569.057-1.148.023-1.717.023q-3.752-.017-7.5-.045c-.534.022-1.058-.1-1.592-.068-4.548.023-9.1-.011-13.644-.011l.091-.034c3.377-.353,6.765-.751,10.142-1.08,4.286-.023,8.562-.012,12.848,0,.136-.023.375.045.4-.148.352-1.842.694-3.684,1.046-5.526a27.6,27.6,0,0,1,2.456-7.413A21.863,21.863,0,0,1,254.441,326.894Z" transform="translate(-155.105 -245.443)" fill="#0d69b3" stroke="#0d69b3" stroke-width="0.094"/>
    <path id="Path_104" data-name="Path 104" d="M155.09,331.866a29.5,29.5,0,0,1,8.1-.966,16.738,16.738,0,0,1,2.825.136,4.837,4.837,0,0,0,.972.171,3.874,3.874,0,0,1,1.085,1.706,27.288,27.288,0,0,1,1.062,4.662,3.624,3.624,0,0,1-.215,1.933,2.429,2.429,0,0,1-1.548,1.012c-2.181.569-4.463.034-6.644.569a8.076,8.076,0,0,0-4.61,2.831,13.233,13.233,0,0,0-2.452,5.867c-.3,1.865-.689,3.729-.994,5.605a10.158,10.158,0,0,0-.294,1.319c2.135.034,4.271,0,6.407.023.813-.023,1.627.023,2.441-.034a6.289,6.289,0,0,1,.2,3.332,12.184,12.184,0,0,1-1.028,3.6,4.057,4.057,0,0,1-2.282,2.195,4.53,4.53,0,0,1-1.706.171c-1.9,0-3.8.023-5.695,0-.305,1.4-.508,2.831-.78,4.252-.5,2.763-.983,5.537-1.48,8.312-.011.091-.023.284-.023.387v.011c-4.938,0-9.864.012-14.8,0,.011-.045.023-.125.034-.171s.023-.182.034-.25c.011.091.022.262.034.341.3.034.859.193.938-.25.768-4.184,1.48-8.391,2.271-12.576a2.364,2.364,0,0,0-.938-.011c-.045.159-.09.318-.147.477l.068-.512c-3.073-.012-6.158,0-9.231-.012-.746-.022-1.514,0-2.26-.091-1.277-.057-2.565-.011-3.842-.137-1.582,0-3.153-.148-4.734-.148-1.243-.125-2.5-.08-3.751-.137-.813-.1-1.65-.057-2.474-.091-1.345-.148-2.712-.045-4.056-.193-1.424.012-2.847-.114-4.271-.148a.162.162,0,0,0,.023-.068c.475.011.938-.023,1.412-.034,1.051-.136,2.113-.046,3.164-.193,1.1,0,2.181-.148,3.277-.148.972-.136,1.955-.057,2.926-.193,1.141,0,2.26-.148,3.4-.159.938-.125,1.887-.057,2.825-.182,1.1.011,2.181-.159,3.277-.148,1.073-.125,2.169-.091,3.243-.2-.1-.421-.181-.841-.271-1.262-.079-.262-.4-.2-.6-.239q-3.678-.529-7.333-1.046c.158-.125.373-.068.554-.091,1.9-.148,3.785-.319,5.684-.455.429-.023.847-.1,1.277-.114a14.933,14.933,0,0,0-.565-1.785c-4.056-.625-8.113-1.182-12.158-1.853,1.051-.171,2.113-.25,3.164-.364,4.52,0,9.039.034,13.559.011.531-.034,1.051.091,1.582.068q3.729.034,7.458.045c.565,0,1.141.034,1.706-.023.35-2.274.791-4.525,1.175-6.788a24.71,24.71,0,0,1,5.288-11.62,20.046,20.046,0,0,1,5.706-4.707A18.952,18.952,0,0,1,155.09,331.866Z" transform="translate(-50.368 -251.99)" fill="#107bd4" stroke="#107bd4" stroke-width="0.094"/>
    <path id="Path_105" data-name="Path 105" d="M407.091,546.3c2.16.012,4.332-.011,6.5.012a2.289,2.289,0,0,1,2.1,1.3c-.819.057-1.637.012-2.456.034-2.149-.023-4.3.012-6.447-.023A10.055,10.055,0,0,1,407.091,546.3ZM390.32,556.953a2.394,2.394,0,0,1,.944.011c-.8,4.184-1.512,8.391-2.285,12.576-.08.443-.637.284-.944.25-.012-.079-.023-.25-.034-.341.716-4,1.41-8.016,2.172-12.018.057-.16.1-.318.148-.478Z" transform="translate(-304.775 -442.898)" fill="#0d69b3" stroke="#0d69b3" stroke-width="0.094"/>
    <path id="Path_106" data-name="Path 106" d="M274.63,189.307a1.206,1.206,0,0,1-.1-.569l-.091.011a1.293,1.293,0,0,0-1.1-1c-.409-.034-.921-.023-1.16.364-.455.614-.239,1.4-.262,2.092,0,.045.011.125.011.171a7.947,7.947,0,0,1-.136,1.376.978.978,0,0,0-.1.443,10.485,10.485,0,0,1-1.1,3.093,1.147,1.147,0,0,0-.216.443,15.366,15.366,0,0,1-1.171,1.683,1.461,1.461,0,0,0-.182.193,11.1,11.1,0,0,1-.944.989c-.079.045-.136.1-.2.148a7.406,7.406,0,0,1-1.285,1.012c-.057.034-.114.08-.182.125a18.282,18.282,0,0,1-9.892,2.752,18.477,18.477,0,0,1-8.505-1.8c-.045-.023-.159-.068-.2-.091a11.375,11.375,0,0,1-1.308-.739c-.091-.045-.182-.1-.284-.148a8.689,8.689,0,0,1-1.194-.841c-.125-.114-.262-.2-.4-.307a9.637,9.637,0,0,1-1.182-1.08c-.091-.1-.182-.193-.273-.284a11.333,11.333,0,0,1-2.717-4.559,14.043,14.043,0,0,1-.478-4.252,1.524,1.524,0,0,0-1.956-.591c-.284.2-.318.58-.534.841a13.355,13.355,0,0,0,3.809,10.2.184.184,0,0,0,.125.182c.455.421.9.853,1.353,1.262a1.81,1.81,0,0,0,.273.227c.455.375.944.716,1.421,1.069a2.419,2.419,0,0,0,.284.182,12.789,12.789,0,0,0,1.887,1.046,1.486,1.486,0,0,0,.171.114,20.5,20.5,0,0,0,6.879,1.967,3.674,3.674,0,0,1,.785.08c1.137.068,2.274.034,3.411.011a20.456,20.456,0,0,0,10.074-3.229l.034.045c.091-.08.171-.148.262-.216.466-.341.921-.7,1.376-1.08a3.456,3.456,0,0,0,.318-.273,15,15,0,0,0,1.5-1.671l.068.034c.034-.057.091-.171.125-.227.386-.523.739-1.069,1.08-1.615.023-.034.079-.091.1-.125l-.045-.045c.034-.045.114-.136.148-.182a13.34,13.34,0,0,0,1.376-4.014.2.2,0,0,0,.125-.182A10.709,10.709,0,0,0,274.54,191a7.744,7.744,0,0,0,.09-1.694Z" transform="translate(-171.222 -124.79)" fill="#fff" stroke="#fff" stroke-width="0.094"/>
    <g id="Group_5" data-name="Group 5" transform="translate(66.202 62.947)" clip-path="url(#clip-path)">
      <path id="Path_107" data-name="Path 107" d="M230.167,188.124c.922.289,3.039-.438,3.638.227m-3.108,2.577c.883-.307,2.777-1.035,3.563-.606m-2.653,3.411c.427.138,1.269-.612,1.687-.832a6.209,6.209,0,0,1,1.952-.684m-2.274,4.472a6.428,6.428,0,0,1,1.6-1.59c.631-.44,2.356-1.617,3.1-1.215m-3.411,4.927c.5-.4.7-1.1,1.228-1.518a10.714,10.714,0,0,1,2.259-.908m-1.346,4c.15-1.1,1.266-2.426,2.331-2.331m-.682,3.866c.563-.056,1.039-1.316,1.42-1.743a3.624,3.624,0,0,1,1.916-1.062m-.076,4.169c-.036-.8.786-3.076,1.744-2.956m.682,3.714c-.04-.94.446-3.768,1.592-3.866m.91,5.382c-.217-1.315-.2-3.216.834-4.169m2.274,4.472c-.116-1.1-1.2-3.311,0-4.169m3.335,3.411a6.311,6.311,0,0,1-.606-3.638m3.79,3.108a7.556,7.556,0,0,1-1.05-2.257c-.091-.505.068-1.225-.012-1.609m3.714,2.729c-.87-.569-1.111-2.66-.834-3.563m3.411,2.426a8.841,8.841,0,0,1-1.289-3.866m3.79,1.44c-.961-.647-2.188-1.822-2.047-3.108m4.7,1.061a8.162,8.162,0,0,1-4.093-2.8m5.306.3c-1.054-.226-4.535-1.584-4.321-2.956m5.458.3c-1.468-.538-3.6-1.022-4.776-2.047m5.533-.379a14.834,14.834,0,0,1-3.189-.531c-1.044-.18-2.011-.532-3.027-.758m5.306-1.061a13.257,13.257,0,0,1-5.079-1.061" transform="translate(-230.992 -186.938)" fill="none" stroke="#d1d1d1" stroke-width="2"/>
    </g>
  </g>
</svg>
