<svg xmlns="http://www.w3.org/2000/svg" width="80.991" height="80.995" viewBox="0 0 80.991 80.995">
  <g id="google" transform="translate(-2.75 -2.75)">
    <path id="Path_84" data-name="Path 84" d="M63.775,16a23.669,23.669,0,0,1-45.943,8.025L4.285,34.864A40.477,40.477,0,0,0,80.585,16" transform="translate(3.156 27.246)" fill="#00ac47"/>
    <path id="Path_85" data-name="Path 85" d="M30.436,16A23.651,23.651,0,0,1,20.5,35.25L33.892,45.965A40.355,40.355,0,0,0,47.246,16" transform="translate(36.495 27.246)" fill="#4285f4"/>
    <path id="Path_86" data-name="Path 86" d="M19.559,28.691a23.527,23.527,0,0,1,1.429-8.025L7.441,9.828a40.272,40.272,0,0,0,0,37.727L20.989,36.717a23.527,23.527,0,0,1-1.429-8.025Z" transform="translate(0 14.554)" fill="#ffba00"/>
    <path id="Path_87" data-name="Path 87" d="M8.718,13.374Z" transform="translate(12.272 21.846)" fill="#2ab2db"/>
    <path id="Path_88" data-name="Path 88" d="M40.089,19.56a23.53,23.53,0,0,1,13.93,4.572L66.428,12.55A40.389,40.389,0,0,0,4.285,24.382L17.833,35.22A23.7,23.7,0,0,1,40.089,19.56Z" transform="translate(3.156 0)" fill="#ea4435"/>
    <path id="Path_89" data-name="Path 89" d="M8.718,18.626Z" transform="translate(12.272 32.645)" fill="#2ab2db"/>
    <path id="Path_90" data-name="Path 90" d="M55.467,17.056v3.056l-6.877,10.7H16.5V14H52.411A3.056,3.056,0,0,1,55.467,17.056Z" transform="translate(28.273 23.133)" fill="#4285f4"/>
  </g>
</svg>
