<svg id="yahoo" xmlns="http://www.w3.org/2000/svg" width="112.686" height="80.995" viewBox="0 0 112.686 80.995">
  <path id="Path_91" data-name="Path 91" d="M41.793,0C65.485,0,83.586,17.532,83.586,40.491s-18.1,40.5-41.793,40.5S0,63.45,0,40.491,18.1,0,41.793,0ZM0,0ZM83.592,81Z" fill="#6b0094"/>
  <path id="Path_92" data-name="Path 92" d="M46.662,43.966c.1-1.405.2-2.8.4-4.2H15.266v4.2c3.194.2,6.3.5,9.5.7,6,7.3,11.993,14.6,18.093,21.993v11.3c-3.4.3-6.8.5-10.2.8v3.694h31.4V78.761c-3.4-.206-6.8-.3-10.2-.4.1-4,.2-8.094.3-12.1,5.893-5.2,11.7-10.4,17.5-15.6,2.995-.2,6-.4,9.094-.7v-4.9c-8.9.1-17.7.2-26.591.4v4.106c3.3.2,6.6.295,9.9.4-4.3,3.7-8.6,7.3-12.9,11-4.4-5.4-8.8-10.9-13.2-16.3,2.9-.3,5.8-.5,8.7-.7Z" transform="translate(-6.665 -17.36)" fill="#fff"/>
  <path id="Path_93" data-name="Path 93" d="M178.615,6.182c-8.1-.4-16.1-.8-24.1-1.206-.4,19.1-.8,38.3-1.2,57.4,3.8.4,7.7.8,11.493,1.2q6.9-28.794,13.8-57.392Zm-26.4,76.883h13.8V71.571q-7.494-.605-15-1.2C151.413,74.669,151.818,78.871,152.216,83.065Z" transform="translate(-65.929 -2.172)" fill="#6b0094"/>
</svg>
