<svg id="youtube" xmlns="http://www.w3.org/2000/svg" width="205.696" height="80" viewBox="0 0 205.696 80">
  <path id="Path_111" data-name="Path 111" d="M171.129,59.654A20.355,20.355,0,0,1,150.768,80H70.189A20.355,20.355,0,0,1,49.828,59.654V20.346A20.355,20.355,0,0,1,70.189,0h80.577a20.355,20.355,0,0,1,20.361,20.346V59.654Z" transform="translate(34.567)" fill="#ec2027"/>
  <path id="Path_113" data-name="Path 113" d="M65.2,58.54V16.034H56.8V7.626H80.9v8.408h-8.4V58.54ZM103.684,20.3V58.54H97.006v-3.8q-2.113,4.818-6.183,4.817-6.561,0-6.563-9.22V20.3h6.577V45.288a19.056,19.056,0,0,0,.353,4.4q.634,2.28,2.532,2.282,2.051,0,2.735-2.479a20.955,20.955,0,0,0,.378-4.759V20.3h6.85Zm5.874,38.235V7.626h6.813V23.54q1.71-4.256,5.778-4.254,5.192,0,6.8,7.4.82,3.734.816,12.918,0,8.918-.889,12.751-1.677,7.2-6.863,7.2-4.324,0-5.974-5.017v4l-6.475,0Zm10.171-31.827q-2.792,0-3.431,5.883-.13,1.191-.127,8.43A59.86,59.86,0,0,0,116.4,48q.664,4.261,3.331,4.264,2.487,0,3.02-5.223.13-1.092.129-7.5,0-6.64-.1-7.568Q122.239,26.711,119.729,26.713ZM147.838,45.42h6.4q0,.265.025.743c.02.319.027.568.027.743q0,6.61-2.44,9.631t-7.576,3.02q-5.314,0-7.652-3.667-1.858-2.912-2.369-8.489-.229-2.446-.229-9.22,0-5.452.229-7.761a16.467,16.467,0,0,1,2.011-7.135q2.545-4,8.187-4a8.535,8.535,0,0,1,7.955,4.323q2.036,3.5,2.033,14.127v2.9H141.069c-.049.421-.076,1.237-.076,2.447a35.659,35.659,0,0,0,.356,6.086q.738,3.739,3.051,3.738,3.439,0,3.438-7.493Zm-6.824-10.846h6.6V32.959a16.569,16.569,0,0,0-.46-4.683,2.819,2.819,0,0,0-2.871-2.209,2.652,2.652,0,0,0-2.569,1.517,11.433,11.433,0,0,0-.762,5.375l.036.528Q141.013,34.047,141.013,34.574Z" transform="translate(39.423 5.286)" fill="#fff"/>
  <path id="Path_114" data-name="Path 114" d="M10.328,58.828V37.119L0,7.626H8.131l5.957,19.262L19.968,7.626h7.9L17.725,37.118v21.71h-7.4ZM30.4,39.621q0-9.934,1.508-14.09,2.247-6.177,8.893-6.18t8.918,6.18q1.509,4.121,1.508,14.09T49.719,53.706q-2.273,6.147-8.918,6.147t-8.893-6.18Q30.4,49.555,30.4,39.621Zm7.023.5q0,7.142.076,7.77.532,5.146,3.251,5.146t3.327-4.415q.127-.965.127-7.206V37.661q0-5.846-.151-7.04-.639-4.383-3.253-4.383-2.543,0-3.178,3.853a58.164,58.164,0,0,0-.2,6.473l0,3.553Zm38.359-19.74V58.828H69.066V55.007q-2.125,4.846-6.217,4.844-6.6,0-6.6-9.27v-30.2h6.614V45.5a19.186,19.186,0,0,0,.355,4.418q.636,2.3,2.545,2.3,2.062,0,2.75-2.493a21.036,21.036,0,0,0,.382-4.785V20.377h6.889Z" transform="translate(0 5.286)"/>
</svg>
