<svg xmlns="http://www.w3.org/2000/svg" width="109.382" height="229.499" viewBox="0 0 109.382 229.499">
  <g id="banner-pattern" transform="translate(234.424 -65.659) rotate(90)">
    <g id="Group_110" data-name="Group 110" transform="translate(65.659 125.041)" opacity="0.45">
      <path id="Path_324" data-name="Path 324" d="M69.913,127.169a2.127,2.127,0,1,1-2.127-2.127A2.127,2.127,0,0,1,69.913,127.169Z" transform="translate(-65.659 -125.041)" fill="#8ecae6"/>
      <path id="Path_325" data-name="Path 325" d="M79.3,127.169a2.126,2.126,0,1,1-2.127-2.127A2.127,2.127,0,0,1,79.3,127.169Z" transform="translate(-60.031 -125.041)" fill="#8ecae6"/>
      <circle id="Ellipse_18" data-name="Ellipse 18" cx="2.127" cy="2.127" r="2.127" transform="translate(30.033)" fill="#8ecae6"/>
      <circle id="Ellipse_19" data-name="Ellipse 19" cx="2.127" cy="2.127" r="2.127" transform="translate(45.049)" fill="#8ecae6"/>
      <circle id="Ellipse_20" data-name="Ellipse 20" cx="2.127" cy="2.127" r="2.127" transform="translate(60.065)" fill="#8ecae6"/>
      <path id="Path_326" data-name="Path 326" d="M116.861,127.169a2.128,2.128,0,1,1-2.129-2.127A2.129,2.129,0,0,1,116.861,127.169Z" transform="translate(-37.524 -125.041)" fill="#8ecae6"/>
      <circle id="Ellipse_21" data-name="Ellipse 21" cx="2.127" cy="2.127" r="2.127" transform="translate(90.099)" fill="#8ecae6"/>
      <path id="Path_327" data-name="Path 327" d="M135.638,127.169a2.127,2.127,0,1,1-2.127-2.127A2.128,2.128,0,0,1,135.638,127.169Z" transform="translate(-26.27 -125.041)" fill="#8ecae6"/>
      <path id="Path_328" data-name="Path 328" d="M69.913,136.558a2.127,2.127,0,1,1-2.127-2.127A2.126,2.126,0,0,1,69.913,136.558Z" transform="translate(-65.659 -119.414)" fill="#8ecae6"/>
      <path id="Path_329" data-name="Path 329" d="M79.3,136.558a2.126,2.126,0,1,1-2.127-2.127A2.126,2.126,0,0,1,79.3,136.558Z" transform="translate(-60.031 -119.414)" fill="#8ecae6"/>
      <path id="Path_330" data-name="Path 330" d="M88.692,136.558a2.127,2.127,0,1,1-2.127-2.127A2.127,2.127,0,0,1,88.692,136.558Z" transform="translate(-54.405 -119.414)" fill="#8ecae6"/>
      <path id="Path_331" data-name="Path 331" d="M98.081,136.558a2.127,2.127,0,1,1-2.127-2.127A2.126,2.126,0,0,1,98.081,136.558Z" transform="translate(-48.778 -119.414)" fill="#8ecae6"/>
      <path id="Path_332" data-name="Path 332" d="M107.47,136.558a2.127,2.127,0,1,1-2.127-2.127A2.127,2.127,0,0,1,107.47,136.558Z" transform="translate(-43.151 -119.414)" fill="#8ecae6"/>
      <path id="Path_333" data-name="Path 333" d="M116.861,136.558a2.128,2.128,0,1,1-2.129-2.127A2.127,2.127,0,0,1,116.861,136.558Z" transform="translate(-37.524 -119.414)" fill="#8ecae6"/>
      <path id="Path_334" data-name="Path 334" d="M126.249,136.558a2.127,2.127,0,1,1-2.127-2.127A2.126,2.126,0,0,1,126.249,136.558Z" transform="translate(-31.896 -119.414)" fill="#8ecae6"/>
      <path id="Path_335" data-name="Path 335" d="M135.638,136.558a2.127,2.127,0,1,1-2.127-2.127A2.127,2.127,0,0,1,135.638,136.558Z" transform="translate(-26.27 -119.414)" fill="#8ecae6"/>
      <path id="Path_336" data-name="Path 336" d="M69.913,145.947a2.127,2.127,0,1,1-2.127-2.127A2.127,2.127,0,0,1,69.913,145.947Z" transform="translate(-65.659 -113.787)" fill="#8ecae6"/>
      <path id="Path_337" data-name="Path 337" d="M79.3,145.947a2.126,2.126,0,1,1-2.127-2.127A2.127,2.127,0,0,1,79.3,145.947Z" transform="translate(-60.031 -113.787)" fill="#8ecae6"/>
      <circle id="Ellipse_22" data-name="Ellipse 22" cx="2.127" cy="2.127" r="2.127" transform="translate(30.033 30.032)" fill="#8ecae6"/>
      <circle id="Ellipse_23" data-name="Ellipse 23" cx="2.127" cy="2.127" r="2.127" transform="translate(45.049 30.032)" fill="#8ecae6"/>
      <circle id="Ellipse_24" data-name="Ellipse 24" cx="2.127" cy="2.127" r="2.127" transform="translate(60.065 30.032)" fill="#8ecae6"/>
      <path id="Path_338" data-name="Path 338" d="M116.861,145.947a2.128,2.128,0,1,1-2.129-2.127A2.129,2.129,0,0,1,116.861,145.947Z" transform="translate(-37.524 -113.787)" fill="#8ecae6"/>
      <circle id="Ellipse_25" data-name="Ellipse 25" cx="2.127" cy="2.127" r="2.127" transform="translate(90.099 30.032)" fill="#8ecae6"/>
      <path id="Path_339" data-name="Path 339" d="M135.638,145.947a2.127,2.127,0,1,1-2.127-2.127A2.128,2.128,0,0,1,135.638,145.947Z" transform="translate(-26.27 -113.787)" fill="#8ecae6"/>
      <path id="Path_340" data-name="Path 340" d="M69.913,155.338a2.127,2.127,0,1,1-2.127-2.129A2.127,2.127,0,0,1,69.913,155.338Z" transform="translate(-65.659 -108.161)" fill="#8ecae6"/>
      <path id="Path_341" data-name="Path 341" d="M79.3,155.338a2.126,2.126,0,1,1-2.127-2.129A2.127,2.127,0,0,1,79.3,155.338Z" transform="translate(-60.031 -108.161)" fill="#8ecae6"/>
      <path id="Path_342" data-name="Path 342" d="M88.692,155.338a2.127,2.127,0,1,1-2.127-2.129A2.128,2.128,0,0,1,88.692,155.338Z" transform="translate(-54.405 -108.161)" fill="#8ecae6"/>
      <path id="Path_343" data-name="Path 343" d="M98.081,155.338a2.127,2.127,0,1,1-2.127-2.129A2.127,2.127,0,0,1,98.081,155.338Z" transform="translate(-48.778 -108.161)" fill="#8ecae6"/>
      <path id="Path_344" data-name="Path 344" d="M107.47,155.338a2.127,2.127,0,1,1-2.127-2.129A2.128,2.128,0,0,1,107.47,155.338Z" transform="translate(-43.151 -108.161)" fill="#8ecae6"/>
      <path id="Path_345" data-name="Path 345" d="M116.861,155.338a2.128,2.128,0,1,1-2.129-2.129A2.129,2.129,0,0,1,116.861,155.338Z" transform="translate(-37.524 -108.161)" fill="#8ecae6"/>
      <path id="Path_346" data-name="Path 346" d="M126.249,155.338a2.127,2.127,0,1,1-2.127-2.129A2.127,2.127,0,0,1,126.249,155.338Z" transform="translate(-31.896 -108.161)" fill="#8ecae6"/>
      <path id="Path_347" data-name="Path 347" d="M135.638,155.338a2.127,2.127,0,1,1-2.127-2.129A2.128,2.128,0,0,1,135.638,155.338Z" transform="translate(-26.27 -108.161)" fill="#8ecae6"/>
      <circle id="Ellipse_26" data-name="Ellipse 26" cx="2.127" cy="2.127" r="2.127" transform="translate(120.131)" fill="#8ecae6"/>
      <path id="Path_348" data-name="Path 348" d="M154.416,127.169a2.126,2.126,0,1,1-2.127-2.127A2.127,2.127,0,0,1,154.416,127.169Z" transform="translate(-15.015 -125.041)" fill="#8ecae6"/>
      <path id="Path_349" data-name="Path 349" d="M163.806,127.169a2.127,2.127,0,1,1-2.127-2.127A2.128,2.128,0,0,1,163.806,127.169Z" transform="translate(-9.388 -125.041)" fill="#8ecae6"/>
      <circle id="Ellipse_27" data-name="Ellipse 27" cx="2.127" cy="2.127" r="2.127" transform="translate(165.18)" fill="#8ecae6"/>
      <path id="Path_350" data-name="Path 350" d="M182.584,127.169a2.127,2.127,0,1,1-2.127-2.127A2.128,2.128,0,0,1,182.584,127.169Z" transform="translate(1.866 -125.041)" fill="#8ecae6"/>
      <circle id="Ellipse_28" data-name="Ellipse 28" cx="2.127" cy="2.127" r="2.127" transform="translate(195.213)" fill="#8ecae6"/>
      <path id="Path_351" data-name="Path 351" d="M201.363,127.169a2.127,2.127,0,1,1-2.129-2.127A2.127,2.127,0,0,1,201.363,127.169Z" transform="translate(13.12 -125.041)" fill="#8ecae6"/>
      <circle id="Ellipse_29" data-name="Ellipse 29" cx="2.127" cy="2.127" r="2.127" transform="translate(225.245 0)" fill="#8ecae6"/>
      <path id="Path_352" data-name="Path 352" d="M145.029,136.558a2.128,2.128,0,1,1-2.129-2.127A2.127,2.127,0,0,1,145.029,136.558Z" transform="translate(-20.643 -119.414)" fill="#8ecae6"/>
      <path id="Path_353" data-name="Path 353" d="M154.416,136.558a2.126,2.126,0,1,1-2.127-2.127A2.126,2.126,0,0,1,154.416,136.558Z" transform="translate(-15.015 -119.414)" fill="#8ecae6"/>
      <path id="Path_354" data-name="Path 354" d="M163.806,136.558a2.127,2.127,0,1,1-2.127-2.127A2.127,2.127,0,0,1,163.806,136.558Z" transform="translate(-9.388 -119.414)" fill="#8ecae6"/>
      <path id="Path_355" data-name="Path 355" d="M173.2,136.558a2.128,2.128,0,1,1-2.129-2.127A2.127,2.127,0,0,1,173.2,136.558Z" transform="translate(-3.761 -119.414)" fill="#8ecae6"/>
      <path id="Path_356" data-name="Path 356" d="M182.584,136.558a2.127,2.127,0,1,1-2.127-2.127A2.127,2.127,0,0,1,182.584,136.558Z" transform="translate(1.866 -119.414)" fill="#8ecae6"/>
      <path id="Path_357" data-name="Path 357" d="M191.974,136.558a2.127,2.127,0,1,1-2.127-2.127A2.127,2.127,0,0,1,191.974,136.558Z" transform="translate(7.493 -119.414)" fill="#8ecae6"/>
      <path id="Path_358" data-name="Path 358" d="M201.363,136.558a2.127,2.127,0,1,1-2.129-2.127A2.126,2.126,0,0,1,201.363,136.558Z" transform="translate(13.12 -119.414)" fill="#8ecae6"/>
      <path id="Path_359" data-name="Path 359" d="M210.752,136.558a2.127,2.127,0,1,1-2.127-2.127A2.127,2.127,0,0,1,210.752,136.558Z" transform="translate(18.747 -119.414)" fill="#8ecae6"/>
      <circle id="Ellipse_30" data-name="Ellipse 30" cx="2.127" cy="2.127" r="2.127" transform="translate(120.131 30.032)" fill="#8ecae6"/>
      <path id="Path_360" data-name="Path 360" d="M154.416,145.947a2.126,2.126,0,1,1-2.127-2.127A2.127,2.127,0,0,1,154.416,145.947Z" transform="translate(-15.015 -113.787)" fill="#8ecae6"/>
      <path id="Path_361" data-name="Path 361" d="M163.806,145.947a2.127,2.127,0,1,1-2.127-2.127A2.128,2.128,0,0,1,163.806,145.947Z" transform="translate(-9.388 -113.787)" fill="#8ecae6"/>
      <circle id="Ellipse_31" data-name="Ellipse 31" cx="2.127" cy="2.127" r="2.127" transform="translate(165.18 30.032)" fill="#8ecae6"/>
      <path id="Path_362" data-name="Path 362" d="M182.584,145.947a2.127,2.127,0,1,1-2.127-2.127A2.128,2.128,0,0,1,182.584,145.947Z" transform="translate(1.866 -113.787)" fill="#8ecae6"/>
      <circle id="Ellipse_32" data-name="Ellipse 32" cx="2.127" cy="2.127" r="2.127" transform="translate(195.213 30.032)" fill="#8ecae6"/>
      <path id="Path_363" data-name="Path 363" d="M201.363,145.947a2.127,2.127,0,1,1-2.129-2.127A2.127,2.127,0,0,1,201.363,145.947Z" transform="translate(13.12 -113.787)" fill="#8ecae6"/>
      <circle id="Ellipse_33" data-name="Ellipse 33" cx="2.127" cy="2.127" r="2.127" transform="translate(225.245 30.032)" fill="#8ecae6"/>
      <path id="Path_364" data-name="Path 364" d="M145.029,155.338a2.128,2.128,0,1,1-2.129-2.129A2.129,2.129,0,0,1,145.029,155.338Z" transform="translate(-20.643 -108.161)" fill="#8ecae6"/>
      <path id="Path_365" data-name="Path 365" d="M154.416,155.338a2.126,2.126,0,1,1-2.127-2.129A2.127,2.127,0,0,1,154.416,155.338Z" transform="translate(-15.015 -108.161)" fill="#8ecae6"/>
      <path id="Path_366" data-name="Path 366" d="M163.806,155.338a2.127,2.127,0,1,1-2.127-2.129A2.128,2.128,0,0,1,163.806,155.338Z" transform="translate(-9.388 -108.161)" fill="#8ecae6"/>
      <path id="Path_367" data-name="Path 367" d="M173.2,155.338a2.128,2.128,0,1,1-2.129-2.129A2.129,2.129,0,0,1,173.2,155.338Z" transform="translate(-3.761 -108.161)" fill="#8ecae6"/>
      <path id="Path_368" data-name="Path 368" d="M182.584,155.338a2.127,2.127,0,1,1-2.127-2.129A2.128,2.128,0,0,1,182.584,155.338Z" transform="translate(1.866 -108.161)" fill="#8ecae6"/>
      <path id="Path_369" data-name="Path 369" d="M191.974,155.338a2.127,2.127,0,1,1-2.127-2.129A2.128,2.128,0,0,1,191.974,155.338Z" transform="translate(7.493 -108.161)" fill="#8ecae6"/>
      <path id="Path_370" data-name="Path 370" d="M201.363,155.338a2.127,2.127,0,1,1-2.129-2.129A2.127,2.127,0,0,1,201.363,155.338Z" transform="translate(13.12 -108.161)" fill="#8ecae6"/>
      <path id="Path_371" data-name="Path 371" d="M210.752,155.338a2.127,2.127,0,1,1-2.127-2.129A2.128,2.128,0,0,1,210.752,155.338Z" transform="translate(18.747 -108.161)" fill="#8ecae6"/>
    </g>
    <g id="Group_111" data-name="Group 111" transform="translate(65.659 185.119)" opacity="0.45">
      <path id="Path_372" data-name="Path 372" d="M69.913,164.733a2.127,2.127,0,1,1-2.127-2.127A2.127,2.127,0,0,1,69.913,164.733Z" transform="translate(-65.659 -162.606)" fill="#8ecae6"/>
      <path id="Path_373" data-name="Path 373" d="M79.3,164.733a2.126,2.126,0,1,1-2.127-2.127A2.127,2.127,0,0,1,79.3,164.733Z" transform="translate(-60.031 -162.606)" fill="#8ecae6"/>
      <circle id="Ellipse_34" data-name="Ellipse 34" cx="2.127" cy="2.127" r="2.127" transform="translate(30.033 0.001)" fill="#8ecae6"/>
      <circle id="Ellipse_35" data-name="Ellipse 35" cx="2.127" cy="2.127" r="2.127" transform="translate(45.049 0.001)" fill="#8ecae6"/>
      <circle id="Ellipse_36" data-name="Ellipse 36" cx="2.127" cy="2.127" r="2.127" transform="translate(60.065 0.001)" fill="#8ecae6"/>
      <path id="Path_374" data-name="Path 374" d="M116.861,164.733a2.128,2.128,0,1,1-2.129-2.127A2.129,2.129,0,0,1,116.861,164.733Z" transform="translate(-37.524 -162.606)" fill="#8ecae6"/>
      <circle id="Ellipse_37" data-name="Ellipse 37" cx="2.127" cy="2.127" r="2.127" transform="translate(90.099 0.001)" fill="#8ecae6"/>
      <path id="Path_375" data-name="Path 375" d="M135.638,164.733a2.127,2.127,0,1,1-2.127-2.127A2.129,2.129,0,0,1,135.638,164.733Z" transform="translate(-26.27 -162.606)" fill="#8ecae6"/>
      <path id="Path_376" data-name="Path 376" d="M69.913,174.123A2.127,2.127,0,1,1,67.786,172,2.127,2.127,0,0,1,69.913,174.123Z" transform="translate(-65.659 -156.979)" fill="#8ecae6"/>
      <path id="Path_377" data-name="Path 377" d="M79.3,174.123A2.126,2.126,0,1,1,77.174,172,2.127,2.127,0,0,1,79.3,174.123Z" transform="translate(-60.031 -156.979)" fill="#8ecae6"/>
      <circle id="Ellipse_38" data-name="Ellipse 38" cx="2.127" cy="2.127" r="2.127" transform="translate(30.033 15.018)" fill="#8ecae6"/>
      <circle id="Ellipse_39" data-name="Ellipse 39" cx="2.127" cy="2.127" r="2.127" transform="translate(45.049 15.018)" fill="#8ecae6"/>
      <circle id="Ellipse_40" data-name="Ellipse 40" cx="2.127" cy="2.127" r="2.127" transform="translate(60.065 15.018)" fill="#8ecae6"/>
      <path id="Path_378" data-name="Path 378" d="M116.861,174.123A2.128,2.128,0,1,1,114.732,172,2.129,2.129,0,0,1,116.861,174.123Z" transform="translate(-37.524 -156.979)" fill="#8ecae6"/>
      <circle id="Ellipse_41" data-name="Ellipse 41" cx="2.127" cy="2.127" r="2.127" transform="translate(90.099 15.018)" fill="#8ecae6"/>
      <path id="Path_379" data-name="Path 379" d="M135.638,174.123A2.127,2.127,0,1,1,133.511,172,2.128,2.128,0,0,1,135.638,174.123Z" transform="translate(-26.27 -156.979)" fill="#8ecae6"/>
      <path id="Path_380" data-name="Path 380" d="M69.913,183.512a2.127,2.127,0,1,1-2.127-2.127A2.127,2.127,0,0,1,69.913,183.512Z" transform="translate(-65.659 -151.352)" fill="#8ecae6"/>
      <path id="Path_381" data-name="Path 381" d="M79.3,183.512a2.126,2.126,0,1,1-2.127-2.127A2.127,2.127,0,0,1,79.3,183.512Z" transform="translate(-60.031 -151.352)" fill="#8ecae6"/>
      <path id="Path_382" data-name="Path 382" d="M88.692,183.512a2.127,2.127,0,1,1-2.127-2.127A2.128,2.128,0,0,1,88.692,183.512Z" transform="translate(-54.405 -151.352)" fill="#8ecae6"/>
      <path id="Path_383" data-name="Path 383" d="M98.081,183.512a2.127,2.127,0,1,1-2.127-2.127A2.127,2.127,0,0,1,98.081,183.512Z" transform="translate(-48.778 -151.352)" fill="#8ecae6"/>
      <path id="Path_384" data-name="Path 384" d="M107.47,183.512a2.127,2.127,0,1,1-2.127-2.127A2.128,2.128,0,0,1,107.47,183.512Z" transform="translate(-43.151 -151.352)" fill="#8ecae6"/>
      <path id="Path_385" data-name="Path 385" d="M116.861,183.512a2.128,2.128,0,1,1-2.129-2.127A2.129,2.129,0,0,1,116.861,183.512Z" transform="translate(-37.524 -151.352)" fill="#8ecae6"/>
      <path id="Path_386" data-name="Path 386" d="M126.249,183.512a2.127,2.127,0,1,1-2.127-2.127A2.127,2.127,0,0,1,126.249,183.512Z" transform="translate(-31.896 -151.352)" fill="#8ecae6"/>
      <path id="Path_387" data-name="Path 387" d="M135.638,183.512a2.127,2.127,0,1,1-2.127-2.127A2.128,2.128,0,0,1,135.638,183.512Z" transform="translate(-26.27 -151.352)" fill="#8ecae6"/>
      <path id="Path_388" data-name="Path 388" d="M69.913,192.9a2.127,2.127,0,1,1-2.127-2.129A2.127,2.127,0,0,1,69.913,192.9Z" transform="translate(-65.659 -145.725)" fill="#8ecae6"/>
      <path id="Path_389" data-name="Path 389" d="M79.3,192.9a2.126,2.126,0,1,1-2.127-2.129A2.127,2.127,0,0,1,79.3,192.9Z" transform="translate(-60.031 -145.725)" fill="#8ecae6"/>
      <circle id="Ellipse_42" data-name="Ellipse 42" cx="2.127" cy="2.127" r="2.127" transform="translate(30.033 45.05)" fill="#8ecae6"/>
      <circle id="Ellipse_43" data-name="Ellipse 43" cx="2.127" cy="2.127" r="2.127" transform="translate(45.049 45.05)" fill="#8ecae6"/>
      <circle id="Ellipse_44" data-name="Ellipse 44" cx="2.127" cy="2.127" r="2.127" transform="translate(60.065 45.05)" fill="#8ecae6"/>
      <path id="Path_390" data-name="Path 390" d="M116.861,192.9a2.128,2.128,0,1,1-2.129-2.129A2.129,2.129,0,0,1,116.861,192.9Z" transform="translate(-37.524 -145.725)" fill="#8ecae6"/>
      <circle id="Ellipse_45" data-name="Ellipse 45" cx="2.127" cy="2.127" r="2.127" transform="translate(90.099 45.05)" fill="#8ecae6"/>
      <path id="Path_391" data-name="Path 391" d="M135.638,192.9a2.127,2.127,0,1,1-2.127-2.129A2.128,2.128,0,0,1,135.638,192.9Z" transform="translate(-26.27 -145.725)" fill="#8ecae6"/>
      <circle id="Ellipse_46" data-name="Ellipse 46" cx="2.127" cy="2.127" r="2.127" transform="translate(120.131 0.001)" fill="#8ecae6"/>
      <path id="Path_392" data-name="Path 392" d="M154.416,164.733a2.126,2.126,0,1,1-2.127-2.127A2.127,2.127,0,0,1,154.416,164.733Z" transform="translate(-15.015 -162.606)" fill="#8ecae6"/>
      <path id="Path_393" data-name="Path 393" d="M163.806,164.733a2.127,2.127,0,1,1-2.127-2.127A2.129,2.129,0,0,1,163.806,164.733Z" transform="translate(-9.388 -162.606)" fill="#8ecae6"/>
      <circle id="Ellipse_47" data-name="Ellipse 47" cx="2.127" cy="2.127" r="2.127" transform="translate(165.18 0.001)" fill="#8ecae6"/>
      <path id="Path_394" data-name="Path 394" d="M182.584,164.733a2.127,2.127,0,1,1-2.127-2.127A2.129,2.129,0,0,1,182.584,164.733Z" transform="translate(1.866 -162.606)" fill="#8ecae6"/>
      <circle id="Ellipse_48" data-name="Ellipse 48" cx="2.127" cy="2.127" r="2.127" transform="translate(195.213 0.001)" fill="#8ecae6"/>
      <path id="Path_395" data-name="Path 395" d="M201.363,164.733a2.127,2.127,0,1,1-2.129-2.127A2.128,2.128,0,0,1,201.363,164.733Z" transform="translate(13.12 -162.606)" fill="#8ecae6"/>
      <circle id="Ellipse_49" data-name="Ellipse 49" cx="2.127" cy="2.127" r="2.127" transform="translate(225.245 0.001)" fill="#8ecae6"/>
      <circle id="Ellipse_50" data-name="Ellipse 50" cx="2.127" cy="2.127" r="2.127" transform="translate(120.131 15.018)" fill="#8ecae6"/>
      <path id="Path_396" data-name="Path 396" d="M154.416,174.123A2.126,2.126,0,1,1,152.288,172,2.127,2.127,0,0,1,154.416,174.123Z" transform="translate(-15.015 -156.979)" fill="#8ecae6"/>
      <path id="Path_397" data-name="Path 397" d="M163.806,174.123A2.127,2.127,0,1,1,161.679,172,2.128,2.128,0,0,1,163.806,174.123Z" transform="translate(-9.388 -156.979)" fill="#8ecae6"/>
      <circle id="Ellipse_51" data-name="Ellipse 51" cx="2.127" cy="2.127" r="2.127" transform="translate(165.18 15.018)" fill="#8ecae6"/>
      <path id="Path_398" data-name="Path 398" d="M182.584,174.123A2.127,2.127,0,1,1,180.457,172,2.128,2.128,0,0,1,182.584,174.123Z" transform="translate(1.866 -156.979)" fill="#8ecae6"/>
      <circle id="Ellipse_52" data-name="Ellipse 52" cx="2.127" cy="2.127" r="2.127" transform="translate(195.213 15.018)" fill="#8ecae6"/>
      <path id="Path_399" data-name="Path 399" d="M201.363,174.123A2.127,2.127,0,1,1,199.234,172,2.127,2.127,0,0,1,201.363,174.123Z" transform="translate(13.12 -156.979)" fill="#8ecae6"/>
      <circle id="Ellipse_53" data-name="Ellipse 53" cx="2.127" cy="2.127" r="2.127" transform="translate(225.245 15.018)" fill="#8ecae6"/>
      <path id="Path_400" data-name="Path 400" d="M145.029,183.512a2.128,2.128,0,1,1-2.129-2.127A2.129,2.129,0,0,1,145.029,183.512Z" transform="translate(-20.643 -151.352)" fill="#8ecae6"/>
      <path id="Path_401" data-name="Path 401" d="M154.416,183.512a2.126,2.126,0,1,1-2.127-2.127A2.127,2.127,0,0,1,154.416,183.512Z" transform="translate(-15.015 -151.352)" fill="#8ecae6"/>
      <path id="Path_402" data-name="Path 402" d="M163.806,183.512a2.127,2.127,0,1,1-2.127-2.127A2.128,2.128,0,0,1,163.806,183.512Z" transform="translate(-9.388 -151.352)" fill="#8ecae6"/>
      <path id="Path_403" data-name="Path 403" d="M173.2,183.512a2.128,2.128,0,1,1-2.129-2.127A2.129,2.129,0,0,1,173.2,183.512Z" transform="translate(-3.761 -151.352)" fill="#8ecae6"/>
      <path id="Path_404" data-name="Path 404" d="M182.584,183.512a2.127,2.127,0,1,1-2.127-2.127A2.128,2.128,0,0,1,182.584,183.512Z" transform="translate(1.866 -151.352)" fill="#8ecae6"/>
      <path id="Path_405" data-name="Path 405" d="M191.974,183.512a2.127,2.127,0,1,1-2.127-2.127A2.128,2.128,0,0,1,191.974,183.512Z" transform="translate(7.493 -151.352)" fill="#8ecae6"/>
      <path id="Path_406" data-name="Path 406" d="M201.363,183.512a2.127,2.127,0,1,1-2.129-2.127A2.127,2.127,0,0,1,201.363,183.512Z" transform="translate(13.12 -151.352)" fill="#8ecae6"/>
      <path id="Path_407" data-name="Path 407" d="M210.752,183.512a2.127,2.127,0,1,1-2.127-2.127A2.128,2.128,0,0,1,210.752,183.512Z" transform="translate(18.747 -151.352)" fill="#8ecae6"/>
      <circle id="Ellipse_54" data-name="Ellipse 54" cx="2.127" cy="2.127" r="2.127" transform="translate(120.131 45.05)" fill="#8ecae6"/>
      <path id="Path_408" data-name="Path 408" d="M154.416,192.9a2.126,2.126,0,1,1-2.127-2.129A2.127,2.127,0,0,1,154.416,192.9Z" transform="translate(-15.015 -145.725)" fill="#8ecae6"/>
      <path id="Path_409" data-name="Path 409" d="M163.806,192.9a2.127,2.127,0,1,1-2.127-2.129A2.128,2.128,0,0,1,163.806,192.9Z" transform="translate(-9.388 -145.725)" fill="#8ecae6"/>
      <circle id="Ellipse_55" data-name="Ellipse 55" cx="2.127" cy="2.127" r="2.127" transform="translate(165.18 45.05)" fill="#8ecae6"/>
      <path id="Path_410" data-name="Path 410" d="M182.584,192.9a2.127,2.127,0,1,1-2.127-2.129A2.128,2.128,0,0,1,182.584,192.9Z" transform="translate(1.866 -145.725)" fill="#8ecae6"/>
      <circle id="Ellipse_56" data-name="Ellipse 56" cx="2.127" cy="2.127" r="2.127" transform="translate(195.213 45.05)" fill="#8ecae6"/>
      <path id="Path_411" data-name="Path 411" d="M201.363,192.9a2.127,2.127,0,1,1-2.129-2.129A2.127,2.127,0,0,1,201.363,192.9Z" transform="translate(13.12 -145.725)" fill="#8ecae6"/>
      <circle id="Ellipse_57" data-name="Ellipse 57" cx="2.127" cy="2.127" r="2.127" transform="translate(225.245 45.05)" fill="#8ecae6"/>
    </g>
  </g>
</svg>
