<svg xmlns="http://www.w3.org/2000/svg" xmlns:xlink="http://www.w3.org/1999/xlink" width="1600" height="563" viewBox="0 0 1600 563">
  <defs>
    <linearGradient id="linear-gradient" x1="0.059" y1="-0.101" x2="0.995" y2="1.174" gradientUnits="objectBoundingBox">
      <stop offset="0" stop-color="#219cff"/>
      <stop offset="1" stop-color="#031a9b"/>
    </linearGradient>
    <clipPath id="clip-path">
      <rect id="Rectangle_76" data-name="Rectangle 76" width="1600" height="563" transform="translate(0 0)" fill="url(#linear-gradient)"/>
    </clipPath>
    <clipPath id="clip-path-2">
      <rect id="Rectangle_96" data-name="Rectangle 96" width="2076" height="1383" transform="translate(0 0.249)" fill="none"/>
    </clipPath>
    <linearGradient id="linear-gradient-3" x1="1.321" y1="1.864" x2="-0.731" y2="-1.546" gradientUnits="objectBoundingBox">
      <stop offset="0" stop-color="#3bb7ff"/>
      <stop offset="1" stop-color="#004fd4"/>
    </linearGradient>
    <filter id="Path_1788" x="139.123" y="128.666" width="167.583" height="167.583" filterUnits="userSpaceOnUse">
      <feOffset dx="5" dy="5" input="SourceAlpha"/>
      <feGaussianBlur stdDeviation="2.5" result="blur"/>
      <feFlood flood-color="#1c3391" flood-opacity="0.149"/>
      <feComposite operator="in" in2="blur"/>
      <feComposite in="SourceGraphic"/>
    </filter>
    <filter id="Path_1789" x="1117.859" y="305.518" width="128.48" height="128.48" filterUnits="userSpaceOnUse">
      <feOffset dx="5" dy="5" input="SourceAlpha"/>
      <feGaussianBlur stdDeviation="2.5" result="blur-2"/>
      <feFlood flood-color="#1c3391" flood-opacity="0.149"/>
      <feComposite operator="in" in2="blur-2"/>
      <feComposite in="SourceGraphic"/>
    </filter>
    <filter id="Path_1790" x="1089.589" y="277.252" width="185.012" height="185.012" filterUnits="userSpaceOnUse">
      <feOffset dx="5" dy="5" input="SourceAlpha"/>
      <feGaussianBlur stdDeviation="2.5" result="blur-3"/>
      <feFlood flood-color="#1c3391" flood-opacity="0.149"/>
      <feComposite operator="in" in2="blur-3"/>
      <feComposite in="SourceGraphic"/>
    </filter>
    <linearGradient id="linear-gradient-5" x1="17.835" y1="-2.285" x2="15.784" y2="-5.695" xlink:href="#linear-gradient-3"/>
    <filter id="Path_1791" x="1642.031" y="-867.31" width="251.402" height="251.402" filterUnits="userSpaceOnUse">
      <feOffset dx="5" dy="5" input="SourceAlpha"/>
      <feGaussianBlur stdDeviation="2.5" result="blur-4"/>
      <feFlood flood-color="#1c3391" flood-opacity="0.149"/>
      <feComposite operator="in" in2="blur-4"/>
      <feComposite in="SourceGraphic"/>
    </filter>
    <filter id="Path_1792" x="1583.914" y="-925.434" width="367.651" height="367.651" filterUnits="userSpaceOnUse">
      <feOffset dx="5" dy="5" input="SourceAlpha"/>
      <feGaussianBlur stdDeviation="2.5" result="blur-5"/>
      <feFlood flood-color="#1c3391" flood-opacity="0.149"/>
      <feComposite operator="in" in2="blur-5"/>
      <feComposite in="SourceGraphic"/>
    </filter>
    <linearGradient id="linear-gradient-6" x1="0.364" y1="2.375" x2="-1.687" y2="-1.035" xlink:href="#linear-gradient-3"/>
    <filter id="Path_1793" x="24.955" y="-537.797" width="438.467" height="438.467" filterUnits="userSpaceOnUse">
      <feOffset dx="5" dy="5" input="SourceAlpha"/>
      <feGaussianBlur stdDeviation="2.5" result="blur-6"/>
      <feFlood flood-color="#1c3391" flood-opacity="0.149"/>
      <feComposite operator="in" in2="blur-6"/>
      <feComposite in="SourceGraphic"/>
    </filter>
    <filter id="Path_1794" x="-78.588" y="-641.356" width="645.586" height="645.586" filterUnits="userSpaceOnUse">
      <feOffset dx="5" dy="5" input="SourceAlpha"/>
      <feGaussianBlur stdDeviation="2.5" result="blur-7"/>
      <feFlood flood-color="#1c3391" flood-opacity="0.149"/>
      <feComposite operator="in" in2="blur-7"/>
      <feComposite in="SourceGraphic"/>
    </filter>
    <linearGradient id="linear-gradient-7" x1="28.937" y1="7.918" x2="26.886" y2="4.507" xlink:href="#linear-gradient-3"/>
    <filter id="Path_1795" x="1473.119" y="-209.154" width="133.007" height="133.007" filterUnits="userSpaceOnUse">
      <feOffset dx="5" dy="5" input="SourceAlpha"/>
      <feGaussianBlur stdDeviation="2.5" result="blur-8"/>
      <feFlood flood-color="#1c3391" flood-opacity="0.149"/>
      <feComposite operator="in" in2="blur-8"/>
      <feComposite in="SourceGraphic"/>
    </filter>
    <filter id="Path_1796" x="1443.755" y="-238.523" width="191.744" height="191.744" filterUnits="userSpaceOnUse">
      <feOffset dx="5" dy="5" input="SourceAlpha"/>
      <feGaussianBlur stdDeviation="2.5" result="blur-9"/>
      <feFlood flood-color="#1c3391" flood-opacity="0.149"/>
      <feComposite operator="in" in2="blur-9"/>
      <feComposite in="SourceGraphic"/>
    </filter>
    <linearGradient id="linear-gradient-8" x1="9.551" y1="0.088" x2="7.499" y2="-3.322" xlink:href="#linear-gradient-3"/>
    <filter id="Path_1797" x="622.623" y="-516.116" width="115.719" height="115.719" filterUnits="userSpaceOnUse">
      <feOffset dx="5" dy="5" input="SourceAlpha"/>
      <feGaussianBlur stdDeviation="2.5" result="blur-10"/>
      <feFlood flood-color="#1c3391" flood-opacity="0.149"/>
      <feComposite operator="in" in2="blur-10"/>
      <feComposite in="SourceGraphic"/>
    </filter>
    <filter id="Path_1798" x="597.456" y="-541.286" width="166.06" height="166.06" filterUnits="userSpaceOnUse">
      <feOffset dx="5" dy="5" input="SourceAlpha"/>
      <feGaussianBlur stdDeviation="2.5" result="blur-11"/>
      <feFlood flood-color="#1c3391" flood-opacity="0.149"/>
      <feComposite operator="in" in2="blur-11"/>
      <feComposite in="SourceGraphic"/>
    </filter>
    <linearGradient id="linear-gradient-9" x1="22.009" y1="5.634" x2="19.957" y2="2.224" xlink:href="#linear-gradient-3"/>
    <filter id="Path_1799" x="1583.601" y="-255.56" width="191.639" height="191.639" filterUnits="userSpaceOnUse">
      <feOffset dx="5" dy="5" input="SourceAlpha"/>
      <feGaussianBlur stdDeviation="2.5" result="blur-12"/>
      <feFlood flood-color="#1c3391" flood-opacity="0.149"/>
      <feComposite operator="in" in2="blur-12"/>
      <feComposite in="SourceGraphic"/>
    </filter>
    <filter id="Path_432" x="1540" y="-299.1" width="278.852" height="278.705" filterUnits="userSpaceOnUse">
      <feOffset dx="5" dy="5" input="SourceAlpha"/>
      <feGaussianBlur stdDeviation="2.5" result="blur-13"/>
      <feFlood flood-color="#1c3391" flood-opacity="0.149"/>
      <feComposite operator="in" in2="blur-13"/>
      <feComposite in="SourceGraphic"/>
    </filter>
    <linearGradient id="linear-gradient-10" x1="6.013" y1="3.149" x2="3.962" y2="-0.261" xlink:href="#linear-gradient-3"/>
    <filter id="Path_1800" x="584.655" y="-410.703" width="191.64" height="191.64" filterUnits="userSpaceOnUse">
      <feOffset dx="5" dy="5" input="SourceAlpha"/>
      <feGaussianBlur stdDeviation="2.5" result="blur-14"/>
      <feFlood flood-color="#1c3391" flood-opacity="0.149"/>
      <feComposite operator="in" in2="blur-14"/>
      <feComposite in="SourceGraphic"/>
    </filter>
    <filter id="Path_433" x="541.055" y="-454.241" width="278.852" height="278.704" filterUnits="userSpaceOnUse">
      <feOffset dx="5" dy="5" input="SourceAlpha"/>
      <feGaussianBlur stdDeviation="2.5" result="blur-15"/>
      <feFlood flood-color="#1c3391" flood-opacity="0.149"/>
      <feComposite operator="in" in2="blur-15"/>
      <feComposite in="SourceGraphic"/>
    </filter>
    <linearGradient id="linear-gradient-11" x1="75.116" y1="49.305" x2="73.064" y2="45.895" xlink:href="#linear-gradient-3"/>
    <filter id="Path_1801" x="1733.775" y="457.825" width="67.905" height="67.905" filterUnits="userSpaceOnUse">
      <feOffset dx="5" dy="5" input="SourceAlpha"/>
      <feGaussianBlur stdDeviation="2.5" result="blur-16"/>
      <feFlood flood-color="#1c3391" flood-opacity="0.149"/>
      <feComposite operator="in" in2="blur-16"/>
      <feComposite in="SourceGraphic"/>
    </filter>
    <filter id="Path_1802" x="1720.22" y="444.269" width="95.017" height="95.017" filterUnits="userSpaceOnUse">
      <feOffset dx="5" dy="5" input="SourceAlpha"/>
      <feGaussianBlur stdDeviation="2.5" result="blur-17"/>
      <feFlood flood-color="#1c3391" flood-opacity="0.149"/>
      <feComposite operator="in" in2="blur-17"/>
      <feComposite in="SourceGraphic"/>
    </filter>
    <linearGradient id="linear-gradient-12" x1="5.088" y1="4.531" x2="6.539" y2="6.943" xlink:href="#linear-gradient-3"/>
    <filter id="Path_434" x="50.15" y="-722.925" width="121.918" height="121.861" filterUnits="userSpaceOnUse">
      <feOffset dx="5" dy="5" input="SourceAlpha"/>
      <feGaussianBlur stdDeviation="2.5" result="blur-18"/>
      <feFlood flood-color="#1c3391" flood-opacity="0.149"/>
      <feComposite operator="in" in2="blur-18"/>
      <feComposite in="SourceGraphic"/>
    </filter>
    <filter id="Path_1803" x="23.484" y="-749.624" width="175.268" height="175.268" filterUnits="userSpaceOnUse">
      <feOffset dx="5" dy="5" input="SourceAlpha"/>
      <feGaussianBlur stdDeviation="2.5" result="blur-19"/>
      <feFlood flood-color="#1c3391" flood-opacity="0.149"/>
      <feComposite operator="in" in2="blur-19"/>
      <feComposite in="SourceGraphic"/>
    </filter>
    <linearGradient id="linear-gradient-13" x1="-9.607" y1="42.245" x2="-11.658" y2="38.835" xlink:href="#linear-gradient-3"/>
    <filter id="Path_1804" x="194.126" y="183.671" width="57.578" height="57.578" filterUnits="userSpaceOnUse">
      <feOffset dx="5" dy="5" input="SourceAlpha"/>
      <feGaussianBlur stdDeviation="2.5" result="blur-20"/>
      <feFlood flood-color="#1c3391" flood-opacity="0.149"/>
      <feComposite operator="in" in2="blur-20"/>
      <feComposite in="SourceGraphic"/>
    </filter>
    <filter id="Path_1805" x="183.078" y="172.622" width="79.675" height="79.675" filterUnits="userSpaceOnUse">
      <feOffset dx="5" dy="5" input="SourceAlpha"/>
      <feGaussianBlur stdDeviation="2.5" result="blur-21"/>
      <feFlood flood-color="#1c3391" flood-opacity="0.149"/>
      <feComposite operator="in" in2="blur-21"/>
      <feComposite in="SourceGraphic"/>
    </filter>
  </defs>
  <g id="Mask_Group_1" data-name="Mask Group 1" transform="translate(0 0)" clip-path="url(#clip-path)">
    <g id="Group_148" data-name="Group 148" transform="translate(-212 -777.249)" opacity="0.5">
      <rect id="Rectangle_77" data-name="Rectangle 77" width="2076" height="1383" transform="translate(0 0.249)" fill="url(#linear-gradient)"/>
      <g id="Group_138" data-name="Group 138" transform="translate(0 0)">
        <g id="Group_137" data-name="Group 137" clip-path="url(#clip-path-2)">
          <g id="Group_125" data-name="Group 125" transform="translate(-43.198 -27.628)">
            <g id="Group_123" data-name="Group 123">
              <g id="Group_113" data-name="Group 113" transform="translate(0)" opacity="0.2" style="mix-blend-mode: overlay;isolation: isolate">
                <path id="Path_412" data-name="Path 412" d="M441.642,608.44l2.573-.636c23.8-5.895,50.391-8.759,81.293-8.759,29.037,0,58.132,2.383,88.934,4.908q7.913.651,15.869,1.288c12.969,1.031,24.724,1.532,35.931,1.532,80.709,0,132.144-27.419,166.775-88.9,9.813-17.418,17.91-36.817,26.484-57.354,21.6-51.738,43.932-105.244,95.471-126.9,18.972-7.971,40.075-11.845,64.514-11.845,37.862,0,77.586,9.359,116,18.411,25.582,6.027,49.741,11.72,72.814,14.637a253.565,253.565,0,0,0,31.621,2.1c37.951,0,66.534-10.194,82.657-29.476,14.654-17.529,19.213-42.324,13.547-73.7C1314.082,131.734,1205.475,32.988,1159.8-3.8c-1.726-1.388-3.483-2.732-5.242-4.075l-2.955-2.267H540l-.457.243C506.513,7.776,473.891,27,442.591,47.23l-.949.614ZM525.508,594.9c-30.133,0-56.248,2.7-79.716,8.256V50.1C476.563,30.248,508.6,11.378,541.047-6h609.146l1.851,1.416c1.729,1.322,3.461,2.64,5.157,4.009,45.309,36.5,153.044,134.421,174.833,255.059,5.439,30.112,1.184,53.765-12.646,70.3-15.31,18.309-42.792,27.988-79.473,27.988a249.044,249.044,0,0,1-31.1-2.065c-22.848-2.889-46.908-8.56-72.377-14.56-38.645-9.107-78.6-18.522-116.95-18.522-25,0-46.632,3.979-66.124,12.168-53.108,22.312-75.771,76.611-97.693,129.124-8.523,20.421-16.574,39.709-26.265,56.914-33.812,60.022-84.129,86.788-163.162,86.788-11.1,0-22.74-.5-35.6-1.518q-7.951-.634-15.857-1.288C583.892,597.289,554.714,594.9,525.508,594.9Z" transform="translate(-441.642 10.146)" fill="#46d5ff"/>
              </g>
              <g id="Group_114" data-name="Group 114" transform="translate(1209.222 947.159)" opacity="0.2" style="mix-blend-mode: overlay;isolation: isolate">
                <path id="Path_413" data-name="Path 413" d="M80.346,828.442H937.034V416.218L935.211,416a236.421,236.421,0,0,0-28.65-1.728c-53.839,0-103.978,17.449-157.061,35.918-36.529,12.707-74.3,25.849-114.283,33.314-30.719,5.737-57.944,8.521-83.229,8.521-41.815,0-77.849-7.57-110.158-23.142-30.523-14.706-58.281-35.127-85.125-54.874-28.849-21.226-58.683-43.173-92.259-58.338-34.149-15.422-66.761-23.241-96.935-23.241-49.678,0-93.081,21.4-125.515,61.894C-9.633,458.772-28.683,564.184-6.535,662.869,7.92,727.276,36.946,782.767,79.732,827.8Zm852.538-4.147H82.131C40.2,779.93,11.732,725.319-2.485,661.963c-21.548-96-2.371-202.522,47.719-265.051,31.618-39.474,73.9-60.337,122.276-60.337,29.579,0,61.618,7.694,95.225,22.873,33.178,14.985,62.832,36.8,91.51,57.9,27,19.857,54.912,40.394,85.783,55.272,32.885,15.845,69.5,23.548,111.959,23.551,25.543,0,53.017-2.809,83.993-8.59,40.291-7.523,78.211-20.717,114.884-33.477,52.743-18.35,102.559-35.686,155.7-35.686a232.9,232.9,0,0,1,26.323,1.485Z" transform="translate(15.64 -332.427)" fill="#46d5ff"/>
              </g>
              <g id="Group_115" data-name="Group 115" transform="translate(13.915)" opacity="0.2" style="mix-blend-mode: overlay;isolation: isolate">
                <path id="Path_414" data-name="Path 414" d="M2132.341,707.233V-10.146H-15.64l.553,2.519a289.5,289.5,0,0,0,35.27,87.7C53.791,134.486,99.614,180.02,152.709,211.76c54.843,32.788,116.508,50.118,178.325,50.118h.017c6.983,0,14.054-.218,21.025-.653,60.284-3.749,119.249-19.08,176.274-33.908,68.042-17.689,138.393-36,211.647-34.8,119.681,1.935,196.06,83.623,269.923,162.622,23.748,25.4,48.3,51.658,73.92,74.864,97.884,88.668,184.057,131.769,263.449,131.769,35.474,0,69.989-8.784,102.578-26.108,22.9-12.174,45.171-26.473,66.717-40.306,48.159-30.922,97.961-62.892,156.848-72.14a219.928,219.928,0,0,1,34.014-2.651c64.387,0,132.141,28.807,201.378,85.621q2.569,2.107,5.1,4.233c24.849,20.877,46.654,47.987,69.743,76.686,41.395,51.465,84.2,104.68,146.117,119.516ZM2128.191-6V701.949c-59.175-15.356-100.913-67.241-141.3-117.439-22.2-27.593-45.143-56.123-70.3-77.266q-2.544-2.136-5.135-4.263c-70-57.44-138.639-86.562-204.011-86.562a224.053,224.053,0,0,0-34.656,2.7c-59.753,9.381-109.926,41.594-158.45,72.746-21.473,13.785-43.677,28.041-66.42,40.132-31.983,17-65.842,25.624-100.631,25.624-78.314,0-163.579-42.75-260.661-130.694-25.493-23.092-49.988-49.289-73.677-74.623C938.5,272.675,861.508,190.335,740.06,188.369,666.331,187.2,595.611,205.545,527.3,223.3c-56.835,14.778-115.6,30.059-175.489,33.784-6.883.429-13.869.644-20.765.644-122.887.008-237.779-67.219-307.334-179.836A285.185,285.185,0,0,1-10.467-6Z" transform="translate(15.64 10.146)" fill="#46d5ff"/>
              </g>
              <g id="Group_116" data-name="Group 116" transform="translate(0 135.668)" opacity="0.15" style="mix-blend-mode: overlay;isolation: isolate">
                <path id="Path_415" data-name="Path 415" d="M135.663,1346.429H1878.927l.033-2.041c.885-54.763-25.145-104.439-71.419-136.284-41.359-28.467-86.937-42.3-139.334-42.3-31.92,0-66.359,5.143-105.292,15.727-22.846,6.21-45.132,14.128-66.681,21.787-45.94,16.327-89.332,31.746-137.309,31.743a213.889,213.889,0,0,1-37.621-3.324c-50.143-8.98-81.069-39.805-113.816-72.439-6.374-6.354-12.967-12.926-19.772-19.412-41.184-39.252-87.315-57.536-145.182-57.536-41.688,0-84.776,9.185-130.4,18.906l-7.046,1.5a299.871,299.871,0,0,1-62.108,6.854c-49.7,0-89.894-14.079-119.468-41.84-46.217-43.375-63.042-128.289-75.331-190.29l-.941-4.761c-6.164-31.08-13.83-69.763-29.145-97.093-28.227-50.375-88.649-64.462-141.962-76.887-7.262-1.692-14.386-3.354-21.271-5.071-64.672-16.13-112.607-36.115-151.678-85.846C273.21,569.664,262.5,528.269,268.476,473.6c2.592-23.733,7.846-47.945,13.409-73.575l2.1-9.688c3.644-16.91,7.8-32.774,11.819-48.116,17.772-67.871,31.812-121.479-17.47-187.658-45.268-60.785-87.1-95.061-139.871-114.6l-2.8-1.034Zm1739.167-4.147H139.813V44.9C190.467,64.315,231.054,98.021,275,157.037c48.093,64.578,34.277,117.337,16.781,184.13-4.031,15.386-8.2,31.3-11.86,48.3l-2.1,9.68c-5.583,25.741-10.861,50.055-13.476,74-4.105,37.591-3.771,87.156,35.574,137.233,39.8,50.663,88.411,70.968,153.932,87.311,6.908,1.72,14.053,3.387,21.335,5.085,52.477,12.232,111.954,26.095,139.287,74.872,14.991,26.758,22.588,65.082,28.691,95.876l.943,4.761c12.4,62.552,29.372,148.217,76.56,192.508,30.37,28.505,71.519,42.96,122.309,42.963a304.011,304.011,0,0,0,62.971-6.945l7.049-1.5c45.4-9.677,88.281-18.815,129.532-18.815,56.732,0,101.956,17.919,142.319,56.392,6.77,6.453,13.346,13.006,19.706,19.345,33.22,33.106,64.594,64.374,116.015,73.584a217.967,217.967,0,0,0,38.352,3.39c48.693,0,92.411-15.533,138.7-31.984,21.479-7.631,43.686-15.524,66.379-21.693,38.573-10.484,72.659-15.58,104.2-15.58,51.529,0,96.337,13.6,136.982,41.572C1849.721,1242.17,1875.024,1289.736,1874.83,1342.282Z" transform="translate(-135.663 -38.923)" fill="#46d5ff"/>
              </g>
              <g id="Group_117" data-name="Group 117" transform="translate(702.121)" opacity="0.15" style="mix-blend-mode: overlay;isolation: isolate">
                <path id="Path_416" data-name="Path 416" d="M1436.236,510.639c1.934,0,3.9-.019,5.868-.064l2.031-.044V-10.146H-15.64l3.007,3.437C35.205,48,94.651,72.407,180.1,72.407h.017c40.991,0,82.765-5.344,127-11q11.271-1.439,22.594-2.862c20.146-2.5,46.723-5.375,73.663-5.375,40.64,0,73.683,6.519,101.021,19.932,28.865,14.164,47.918,37.2,68.086,61.6,9.019,10.91,18.347,22.191,28.586,32.528,47.213,47.658,104.172,70.824,174.128,70.824,56.049,0,114.9-15.218,159.905-28.481,24.121-7.106,47.2-10.711,68.584-10.711,65.427,0,118.591,31.674,172.382,102.7,8.844,11.679,17.73,24.414,27.167,38.937C1267.976,440.119,1322.587,510.639,1436.236,510.639Zm3.749-4.172q-1.888.025-3.749.025c-111.558,0-165.5-69.735-229.524-168.257-9.492-14.6-18.433-27.422-27.338-39.178-54.652-72.162-108.839-104.345-175.691-104.345-21.783,0-45.254,3.663-69.757,10.882-44.74,13.18-103.215,28.309-158.732,28.309-68.791,0-124.785-22.763-171.179-69.6-10.106-10.2-19.374-21.411-28.337-32.249-19.562-23.659-39.788-48.122-69.455-62.679-27.919-13.7-61.563-20.358-102.85-20.358-27.167,0-53.913,2.889-74.178,5.408q-11.32,1.406-22.608,2.864C262.5,62.931,220.847,68.257,180.122,68.259,97.777,68.259,40.011,45.319-6.452-6H1439.985Z" transform="translate(15.64 10.146)" fill="#46d5ff"/>
              </g>
              <g id="Group_118" data-name="Group 118" transform="translate(0)" opacity="0.07" style="mix-blend-mode: overlay;isolation: isolate">
                <path id="Path_417" data-name="Path 417" d="M101.711,678.258l2.714-.879c65.2-21.09,123.366-75.5,179.622-128.112,39.691-37.126,77.179-72.19,116.588-96,24.052-14.532,48.953-21.6,76.133-21.6,37.522,0,74.731,13.136,119.056,32.857,14.447,6.428,29.136,13.172,43.345,19.691,78.256,35.915,159.175,73.053,247.29,80.377,8.808.73,17.636,1.1,26.234,1.1,84.447,0,157.189-34.541,216.2-102.667,15.155-17.5,29.267-36.844,42.911-55.551,33.223-45.545,67.574-92.641,120.173-117.663,34.6-16.459,74.991-24.123,127.12-24.123,30.868,0,62.119,2.638,92.339,5.187,11.727.99,23.853,2.016,35.494,2.834,32.49,2.289,67,4.526,100.285,4.526,85.194,0,191.487-13.288,257.806-116.917,34.221-53.475,42.612-110.668,24.94-169.985l-.443-1.482H101.711ZM476.768,427.522c-27.958,0-53.562,7.26-78.277,22.193-39.782,24.037-77.426,59.245-117.279,96.52-55.133,51.57-112.123,104.868-175.35,126.3V-6H1926.42c16.737,57.583,8.363,113.115-24.9,165.086-64.852,101.34-164.949,115-254.309,115-33.153,0-67.577-2.231-99.994-4.515-11.611-.818-23.183-1.794-35.436-2.828-30.307-2.557-61.646-5.2-92.688-5.2-52.771,0-93.728,7.794-128.9,24.524-53.551,25.475-88.218,73-121.745,118.968-13.6,18.638-27.656,37.911-42.7,55.277-58.187,67.174-129.87,101.235-213.06,101.235-8.485,0-17.2-.365-25.889-1.089-87.39-7.26-167.975-44.246-245.9-80.009-14.22-6.525-28.921-13.271-43.389-19.711C552.7,440.8,515.02,427.522,476.768,427.522Z" transform="translate(-101.711 10.146)" fill="#46d5ff"/>
              </g>
              <g id="Group_119" data-name="Group 119" transform="translate(1149.157 760.128)" opacity="0.1" style="mix-blend-mode: overlay;isolation: isolate">
                <path id="Path_418" data-name="Path 418" d="M-15.64,947.827H997.1v-681.7l-1.826-.218a160.084,160.084,0,0,0-23.216-1.081c-115.714,3.008-209.14,117.732-277.608,217.341-6.747,9.821-13.42,20.017-19.625,29.576l-3.978,6.138c-38.349,59.168-78,120.348-150.9,142.367-34.744,10.5-72.869,15.384-119.979,15.384-32.019,0-64.877-2.259-96.65-4.446-31.665-2.179-64.409-4.427-96.207-4.427-14.2,0-27.186.431-39.691,1.322C39.247,677.221,5.41,756.312-5.96,872.25c-2.177,22.2-4.98,48.246-9.265,73.152ZM992.949,943.68H-10.721c4.075-24.292,6.778-49.471,8.892-71.023C4.652,806.544,17.6,763.316,40.16,732.479c26.569-36.322,68.291-56.032,127.551-60.254,12.4-.885,25.291-1.313,39.395-1.313,31.657,0,64.329,2.245,95.922,4.418,31.845,2.187,64.772,4.454,96.935,4.454,47.528,0,86.035-4.944,121.177-15.561,74.36-22.459,114.433-84.286,153.185-144.081l3.978-6.135c6.191-9.533,12.845-19.705,19.565-29.484,67.909-98.8,160.456-212.586,274.3-215.544a154.143,154.143,0,0,1,20.785.84Z" transform="translate(15.64 -264.78)" fill="#46d5ff"/>
              </g>
              <g id="Group_120" data-name="Group 120" transform="translate(0 677.355)" opacity="0.05" style="mix-blend-mode: overlay;isolation: isolate">
                <path id="Path_419" data-name="Path 419" d="M365.379,1000.662H1498.141l.6-.558c41.284-38.611,70.15-76.539,85.794-112.725,20.193-46.7,17.434-89.078-8.194-125.961-53.346-76.766-172.188-88.945-269.765-90.98-5.372-.111-11.06-.163-17.9-.163q-5.366,0-10.74.033l-5.915.033c-5.525.036-11.041.072-16.555.069-52.566,0-103.286-2.95-145.973-38.614-44.972-37.569-74.554-90.137-103.165-140.976-17.8-31.624-36.2-64.324-58.08-92.959-31.3-40.961-65.958-60.871-105.956-60.871-30.1,0-63.707,10.589-108.972,34.331-49.321,25.873-97.626,49.093-146.333,49.09-34.725,0-67.17-11.883-99.192-36.319-18.569-14.17-37.2-32.813-56.915-52.554C390.153,290.765,348.036,248.6,297.4,235.512l-2.592-.669v711l.631.611c8.509,8.22,16.532,15.458,24.528,22.124a386.287,386.287,0,0,0,44.92,31.774ZM1496.5,996.515H366.557a380.446,380.446,0,0,1-43.94-31.121c-7.716-6.434-15.462-13.409-23.664-21.309V240.229c48.405,13.57,89.363,54.567,128.993,94.24,19.822,19.841,38.54,38.58,57.33,52.919,32.772,25.008,66.041,37.168,101.712,37.171,49.65,0,98.465-23.446,148.264-49.565,44.637-23.413,77.65-33.855,107.041-33.855,39.154,0,71.773,18.826,102.661,59.239,21.7,28.406,40.031,60.978,57.756,92.473,28.8,51.166,58.566,104.074,104.119,142.126,43.757,36.554,95.277,39.582,148.637,39.582,5.522,0,11.049-.033,16.58-.069l5.912-.033q5.362-.029,10.718-.033c6.811,0,12.469.052,17.813.163,96.592,2.013,214.167,13.971,266.44,89.2,24.757,35.625,27.382,76.658,7.8,121.954C1565.384,921.223,1537.047,958.49,1496.5,996.515Z" transform="translate(-294.803 -234.843)" fill="#46d5ff"/>
              </g>
              <g id="Group_121" data-name="Group 121" transform="translate(0 992.724)" opacity="0.1" style="mix-blend-mode: overlay;isolation: isolate">
                <path id="Path_420" data-name="Path 420" d="M485.774,799.357H1135.39l.606-.589c43.663-42.554,77.73-91.309,101.245-144.905,29.579-67.412,31.1-153.078,3.793-213.175-19.269-42.4-52.043-71.914-94.771-85.356a140.3,140.3,0,0,0-42.7-6.425c-44.153,0-88.677,19.1-131.74,37.574-43.544,18.682-88.577,38-133.671,38h-.014c-4.36,0-8.72-.18-12.955-.536-34.595-2.92-64.7-19.885-93.822-36.288-29.482-16.614-57.327-32.3-87.518-32.3-24.757,0-48.466,10.827-72.487,33.1-18.494,17.145-34.227,39.272-49.437,60.669-11.259,15.84-22.9,32.219-35.627,46.541l-.523.589ZM1133.7,795.21H489.924V497.818c12.665-14.349,24.212-30.59,35.383-46.3C540.4,430.29,556,408.34,574.182,391.485,597.4,369.961,620.189,359.5,643.848,359.5c29.1,0,56.486,15.43,85.479,31.771,29.507,16.622,60.016,33.814,95.51,36.806,4.355.368,8.831.553,13.307.553h.014c45.946,0,91.374-19.487,135.309-38.332,42.676-18.309,86.8-37.24,130.1-37.24a136.131,136.131,0,0,1,41.447,6.237c41.578,13.075,73.472,41.813,92.24,83.114,26.852,59.085,25.322,143.4-3.812,209.793C1210.249,705.057,1176.694,753.168,1133.7,795.21Z" transform="translate(-485.774 -348.907)" fill="#46d5ff"/>
              </g>
              <g id="Group_122" data-name="Group 122" transform="translate(7.166 130.89)" opacity="0.05" style="mix-blend-mode: overlay;isolation: isolate">
                <path id="Path_421" data-name="Path 421" d="M21.042,1349.479H429.585l.592-.534c11.343-10.252,22.563-20.653,33.419-30.712,21.8-20.2,42.393-39.286,62.345-55.783,41.306-34.162,88.262-50.771,143.553-50.771,90.279,0,184.823,43.9,276.258,86.36,42.313,19.647,82.281,38.207,119.7,51.258l.88.182h297.3l.509-.321c3.01-1.9,5.453-3.509,7.685-5.049,64.216-44.406,100.542-113.992,135.674-181.288,11.387-21.809,23.161-44.362,35.6-65.416,34.753-58.805,66.78-83.9,107.1-83.9,17.62,0,36.4,4.938,57.4,15.09,38.188,18.455,73.2,44.226,107.057,69.143,44.795,32.971,91.114,67.061,145.633,84.958,21.886,7.18,42.333,10.824,60.771,10.824,50.422,0,87.841-25.674,117.766-80.8l.252-.462V156.244l-.29-.489c-29.762-50.207-64.481-100.4-132.149-114.431-36.861-7.642-75.912-4.662-115.8,8.834-64.888,21.958-131.986,70.772-199.43,145.082-89.521,98.638-187.341,148.1-306.676,192.018-42.333,15.58-87.451,22.835-141.981,22.835-46.458,0-94.381-5.433-140.728-10.683-36.147-4.1-73.522-8.333-110.468-10.067q-7.681-.361-15.761-.769c-25.2-1.25-53.758-2.668-82.853-2.668-79.55,0-191.081,9.6-241.016,92.581-26.365,43.812-30.312,94.715-34.13,143.946-3.358,43.278-6.83,88.027-25.618,127.445-30.4,63.785-99.77,79.133-168.216,89.39-13.694,2.049-27.062,3.89-39.989,5.671-68.216,9.39-127.125,17.5-194.78,50.077C100.77,937.6,27.61,1024.6-1.715,1122.041c-24.411,81.118-16.543,161.53,22.154,226.427Zm406.944-4.147H23.405c-37.577-63.71-45.091-142.528-21.147-222.094,29-96.366,101.328-182.385,188.751-224.485,67.065-32.3,125.679-40.364,193.546-49.706,12.939-1.781,26.318-3.622,40.037-5.679,69.549-10.421,140.07-26.083,171.347-91.71,19.119-40.11,22.624-85.251,26.008-128.908C625.731,574,629.64,523.6,655.5,480.626c48.85-81.184,158.92-90.573,237.461-90.573,28.993,0,57.5,1.416,82.648,2.663q8.08.4,15.769.769c36.811,1.728,74.117,5.955,110.2,10.045,46.46,5.267,94.5,10.708,141.193,10.711,55.039,0,100.611-7.335,143.42-23.092,119.908-44.13,218.226-93.858,308.313-193.121,66.965-73.782,133.477-122.211,197.69-143.94,39.182-13.26,77.484-16.194,113.619-8.7,65.8,13.644,99.909,62.751,129.134,112v953.828c-29.078,53.325-65.272,78.17-113.868,78.17-18,0-38.011-3.572-59.477-10.62-53.888-17.684-99.936-51.578-144.465-84.355-34.011-25.027-69.179-50.914-107.713-69.536-21.587-10.435-40.952-15.505-59.211-15.505-53.083,0-87.031,45.924-110.673,85.934-12.5,21.148-24.3,43.751-35.71,65.61-34.9,66.848-70.982,135.972-134.357,179.789-2.058,1.424-4.3,2.906-7.035,4.637H1066.686c-37.306-13.036-77.082-31.5-119.185-51.056-91.842-42.642-186.812-86.744-278.006-86.744-56.3,0-104.119,16.918-146.2,51.719-20.038,16.578-40.673,35.7-62.517,55.941C450.12,1325.066,439.107,1335.273,427.986,1345.332Z" transform="translate(15.64 -37.195)" fill="#46d5ff"/>
              </g>
            </g>
            <g id="Group_124" data-name="Group 124" transform="translate(2.075 2.074)">
              <path id="Path_422" data-name="Path 422" d="M1149.572-9.4c2.537,1.958,5.1,3.871,7.605,5.884,77.141,62.143,157.413,155.757,175.575,256.306,15.827,87.637-51.559,108.008-125.524,98.652-78.966-9.987-176.169-53.92-254.389-21.06C880.2,360.9,864.752,453.632,829.883,515.531c-44.693,79.345-115.119,93.128-200.733,86.318-64.777-5.154-127.576-12.038-186.76,2.618V47.648c31.651-20.46,64.2-39.592,96.81-57.044Z" transform="translate(-442.39 9.396)" fill="#65dcff" opacity="0.2" style="mix-blend-mode: overlay;isolation: isolate"/>
              <path id="Path_423" data-name="Path 423" d="M262.106,356.236c64.644,29.2,113.868,82.608,177.34,113.19,61.064,29.429,129.466,26.96,194.669,14.792,107.212-20.017,196.7-80.045,299.361-67.487V825.045H79.753C39.479,782.66,9.3,729.221-5.994,661.093-46.03,482.705,50.066,260.467,262.106,356.236Z" transform="translate(1224.271 613.982)" fill="#65dcff" opacity="0.2" style="mix-blend-mode: overlay;isolation: isolate"/>
              <path id="Path_424" data-name="Path 424" d="M2128.434-9.4V703.28c-94.735-22.7-144.319-136.373-215.011-195.773q-2.535-2.128-5.115-4.247c-66.963-54.948-148.195-97.361-237.029-83.412-85.661,13.448-150.007,73.207-224.218,112.659C1314.987,602.723,1183,517.364,1083.4,427.144c-105.281-95.368-186-235.451-345.207-238.025-135.015-2.187-256.17,60.508-388.082,68.712C214.4,266.272,90.59,191.757,20.119,77.66A288.993,288.993,0,0,1-14.89-9.4Z" transform="translate(29.312 9.396)" fill="#fffead" opacity="0.2" style="mix-blend-mode: overlay;isolation: isolate"/>
              <path id="Path_425" data-name="Path 425" d="M136.413,1342.453V40c57.634,21.342,98.893,60.135,138.93,113.895,59.82,80.327,24.915,143,5.287,234.1-6.238,28.953-12.61,56.621-15.542,83.473-5.121,46.9.249,91.314,35.145,135.726,41.035,52.23,91.471,71.283,152.8,86.578,57,14.217,130.323,24.557,161.928,80.957,15.478,27.623,23.186,67.595,29.305,98.442,12.153,61.274,29.081,149.694,76.5,194.2,48.956,45.949,121.153,48.744,183.429,35.5,103.1-21.92,196.138-44.061,280.762,36.6,42.081,40.107,74.108,81.546,134.656,92.39,88.029,15.76,160.2-27.872,242.521-50.248,84.9-23.072,167.7-25.472,242.905,26.286,47.788,32.891,71.348,83.41,70.52,134.545Z" transform="translate(-136.413 96.574)" fill="#fffead" opacity="0.15" style="mix-blend-mode: overlay;isolation: isolate"/>
              <path id="Path_426" data-name="Path 426" d="M1438.242-9.4V507.178c-119.985,2.6-175.857-74.919-237.087-169.136-8.916-13.719-17.963-26.791-27.253-39.056-60.591-80.006-131.455-125.654-243.207-92.727-117.16,34.519-236.871,54.183-331.972-41.815C566.386,131.8,544.191,90.868,501.49,69.916,448.3,43.819,382.623,48.085,325.636,55.163,198.995,70.9,75.5,93.981-14.89-9.4Z" transform="translate(719.504 9.396)" fill="#fffead" opacity="0.15" style="mix-blend-mode: overlay;isolation: isolate"/>
              <path id="Path_427" data-name="Path 427" d="M1926.639-9.4c16.187,54.329,11.76,111.3-24.7,168.276-81.487,127.335-220.812,120.981-356.2,111.44-83.216-5.867-177.661-20.963-255.988,16.3-74.825,35.6-111.818,113.768-163.765,173.731C1063.126,532.922,981.891,569.229,885.3,561.2c-103.818-8.629-196.539-58.324-289.963-99.894-66.122-29.421-130.7-51.263-197.1-11.142C301.39,508.679,212,638.646,102.452,674.083V-9.4Z" transform="translate(-102.452 9.396)" fill="#65dcff" opacity="0.07" style="mix-blend-mode: overlay;isolation: isolate"/>
              <path id="Path_428" data-name="Path 428" d="M993.312,944.432H-14.89c4.017-23.357,6.795-47.912,9.284-73.3,11.362-115.85,44.5-193.249,171.458-202.3,115.946-8.261,239.458,26.376,352.975-7.916,76.12-22.99,115.4-86.794,156.024-149.359,6.449-9.931,12.931-19.829,19.595-29.531,61.2-89.042,156.478-213.338,275.951-216.443a156.611,156.611,0,0,1,22.915,1.064Z" transform="translate(1164.434 494.595)" fill="#65dcff" opacity="0.1" style="mix-blend-mode: overlay;isolation: isolate"/>
              <path id="Path_429" data-name="Path 429" d="M1496,996.88H364.645a384.042,384.042,0,0,1-44.679-31.6c-8.275-6.9-16.408-14.289-24.411-22.019V235.811c74.761,19.329,133.057,105.031,189.656,148.22,85.476,65.228,161.756,32.526,247.752-12.583,83.16-43.618,150.026-55.551,212.313,25.962,56.89,74.449,88.192,172.977,161.562,234.267,49.193,41.1,109.611,39.322,169.784,39,9.55-.052,19.092-.069,28.586.13,87.139,1.816,213.132,10.985,268.1,90.09C1629.012,841.048,1564.7,932.625,1496,996.88Z" transform="translate(-295.555 442.147)" fill="#65dcff" opacity="0.05" style="mix-blend-mode: overlay;isolation: isolate"/>
              <path id="Path_430" data-name="Path 430" d="M1133.171,795.959h-646.7V495.706c30.044-33.828,52.978-77.451,84.922-107.066,94.226-87.355,156.027,27.928,252.242,36.043,109.6,9.24,213.777-102.294,320.624-68.7,122.06,38.387,133.283,196.4,89.7,295.719C1209.764,706.862,1175.1,755.1,1133.171,795.959Z" transform="translate(-486.473 643.068)" fill="#fffead" opacity="0.1" style="mix-blend-mode: overlay;isolation: isolate"/>
              <path id="Path_431" data-name="Path 431" d="M188.83,895.58C269.2,856.878,338.325,852.7,423,840.013c65.579-9.826,138.382-24.671,169.782-90.548,40.324-84.6,10.383-189.333,59.654-271.211,64.381-106.994,231.421-93.136,337.754-88.143,133.77,6.279,266.6,44.672,393.994-2.209,123.551-45.471,219.437-95.547,307.491-192.571,51.371-56.6,121.2-118.332,198.561-144.51,36.916-12.494,75.547-16.89,114.707-8.77,65.718,13.628,99.956,61.443,130.788,113.458v954.926c-33.425,61.57-83.4,99.41-176.067,68.994-95.385-31.306-163.582-111.055-252.433-154-79.719-38.531-125.925-.221-167.195,69.616-50.35,85.2-85.877,187.417-170.672,246.054-2.52,1.739-5.063,3.39-7.613,5h-296.7l-.2-.066c-161.958-56.483-379.865-220.184-541.519-86.49-30.11,24.9-62.1,56.065-95.834,86.556H20.94C-72.041,1190.171,27.262,973.386,188.83,895.58Z" transform="translate(22.012 92.924)" fill="#fffead" opacity="0.05" style="mix-blend-mode: overlay;isolation: isolate"/>
            </g>
          </g>
          <g id="Group_136" data-name="Group 136" transform="translate(136.62 -178.393)">
            <g transform="matrix(1, 0, 0, 1, 75.38, 955.64)" filter="url(#Path_1788)">
              <path id="Path_1788-2" data-name="Path 1788" d="M10.3,10.3l107.861-.032-.032,107.861-107.861.032Z" transform="translate(217.91 298.27) rotate(-135)" fill="url(#linear-gradient-3)"/>
            </g>
            <g id="Group_126" data-name="Group 126" transform="translate(1168.177 1220.062)">
              <g transform="matrix(1, 0, 0, 1, -1092.8, -264.42)" filter="url(#Path_1789)">
                <path id="Path_1789-2" data-name="Path 1789" d="M7.658,7.658l80.218-.024-.024,80.218-80.218.024Z" transform="matrix(-0.71, -0.71, 0.71, -0.71, 1177.1, 432.29)" fill="url(#linear-gradient-3)"/>
              </g>
              <g transform="matrix(1, 0, 0, 1, -1092.8, -264.42)" filter="url(#Path_1790)">
                <path id="Path_1790-2" data-name="Path 1790" d="M11.377,11.377l119.181-.035-.035,119.181-119.181.035Z" transform="translate(1177.1 465.1) rotate(-135)" fill="none" stroke="#707070" stroke-width="1"/>
              </g>
            </g>
            <g id="Group_127" data-name="Group 127" transform="translate(1662.502 0)" opacity="0.6">
              <g transform="matrix(1, 0, 0, 1, -1587.12, 955.64)" filter="url(#Path_1791)">
                <path id="Path_1791-2" data-name="Path 1791" d="M15.953,15.953l167.112-.05-.05,167.112-167.112.05Z" transform="translate(1762.73 -605.92) rotate(-135)" fill="url(#linear-gradient-5)"/>
              </g>
              <g transform="matrix(1, 0, 0, 1, -1587.12, 955.64)" filter="url(#Path_1792)">
                <path id="Path_1792-2" data-name="Path 1792" d="M23.7,23.7l248.288-.074-.074,248.288-248.288.074Z" transform="matrix(-0.71, -0.71, 0.71, -0.71, 1762.75, -537.57)" fill="none" stroke="#707070" stroke-width="1"/>
              </g>
            </g>
            <g id="Group_128" data-name="Group 128" transform="translate(0 257.636)" opacity="0.15">
              <g transform="matrix(1, 0, 0, 1, 75.38, 698.01)" filter="url(#Path_1793)">
                <path id="Path_1793-2" data-name="Path 1793" d="M28.576,28.576l299.348-.089-.089,299.348-299.348.089Z" transform="matrix(-0.71, -0.71, 0.71, -0.71, 239.19, -71.54)" fill="url(#linear-gradient-6)"/>
              </g>
              <g transform="matrix(1, 0, 0, 1, 75.38, 698.01)" filter="url(#Path_1794)">
                <path id="Path_1794-2" data-name="Path 1794" d="M42.458,42.458l444.759-.132-.132,444.759-444.759.132Z" transform="matrix(-0.71, -0.71, 0.71, -0.71, 239.21, 50.88)" fill="none" stroke="#707070" stroke-width="1"/>
              </g>
            </g>
            <g id="Group_129" data-name="Group 129" transform="translate(1522.343 703.646)" opacity="0.15">
              <g transform="matrix(1, 0, 0, 1, -1446.96, 252)" filter="url(#Path_1795)">
                <path id="Path_1795-2" data-name="Path 1795" d="M7.963,7.963l83.419-.025-.025,83.419-83.419.025Z" transform="translate(1534.62 -77.42) rotate(-135)" fill="url(#linear-gradient-7)"/>
              </g>
              <g transform="matrix(1, 0, 0, 1, -1446.96, 252)" filter="url(#Path_1796)">
                <path id="Path_1796-2" data-name="Path 1796" d="M11.832,11.832l123.94-.037-.037,123.94-123.94.037Z" transform="matrix(-0.71, -0.71, 0.71, -0.71, 1534.63, -43.31)" fill="none" stroke="#707070" stroke-width="1"/>
              </g>
            </g>
            <g id="Group_130" data-name="Group 130" transform="translate(676.044 403.327)" opacity="0.6">
              <g transform="matrix(1, 0, 0, 1, -600.66, 552.32)" filter="url(#Path_1797)">
                <path id="Path_1797-2" data-name="Path 1797" d="M6.8,6.8l71.2-.021-.021,71.2-71.2.021Z" transform="translate(675.48 -403.31) rotate(-135)" fill="url(#linear-gradient-8)"/>
              </g>
              <g transform="matrix(1, 0, 0, 1, -600.66, 552.32)" filter="url(#Path_1798)">
                <path id="Path_1798-2" data-name="Path 1798" d="M10.1,10.1l105.784-.031-.031,105.784-105.784.031Z" transform="translate(675.49 -374.2) rotate(-135)" fill="none" stroke="#707070" stroke-width="1"/>
              </g>
            </g>
            <g id="Group_131" data-name="Group 131" transform="translate(1618.587 659.75)" opacity="0.4">
              <g transform="matrix(1, 0, 0, 1, -1543.21, 295.89)" filter="url(#Path_1799)">
                <path id="Path_1799-2" data-name="Path 1799" d="M11.92,11.92l124.866-.037-.037,124.866-124.866.037Z" transform="translate(1674.41 -59.62) rotate(-135)" fill="url(#linear-gradient-9)"/>
              </g>
              <g transform="matrix(1, 0, 0, 1, -1543.21, 295.89)" filter="url(#Path_432)">
                <path id="Path_432-2" data-name="Path 432" d="M152.1,173.946,20.888,305.1,152.1,436.237,283.325,305.1Z" transform="translate(1522.32 -469.84)" fill="none" stroke="#707070" stroke-miterlimit="10" stroke-width="1"/>
              </g>
            </g>
            <g id="Group_132" data-name="Group 132" transform="translate(619.643 504.608)" opacity="0.2">
              <g transform="matrix(1, 0, 0, 1, -544.26, 451.03)" filter="url(#Path_1800)">
                <path id="Path_1800-2" data-name="Path 1800" d="M11.92,11.92l124.866-.037-.037,124.866-124.866.037Z" transform="matrix(-0.71, -0.71, 0.71, -0.71, 675.47, -214.76)" fill="url(#linear-gradient-10)"/>
              </g>
              <g transform="matrix(1, 0, 0, 1, -544.26, 451.03)" filter="url(#Path_433)">
                <path id="Path_433-2" data-name="Path 433" d="M513.19,117.833,381.977,248.991,513.19,380.123,644.414,248.991Z" transform="translate(162.29 -568.87)" fill="none" stroke="#707070" stroke-miterlimit="10" stroke-width="1"/>
              </g>
            </g>
            <g id="Group_133" data-name="Group 133" transform="translate(1798.808 1395.641)" opacity="0.2">
              <g transform="matrix(1, 0, 0, 1, -1723.43, -440)" filter="url(#Path_1801)">
                <path id="Path_1801-2" data-name="Path 1801" d="M3.57,3.57l37.4-.011-.011,37.4-37.4.011Z" transform="translate(1762.72 518.26) rotate(-134.99)" fill="url(#linear-gradient-11)"/>
              </g>
              <g transform="matrix(1, 0, 0, 1, -1723.43, -440)" filter="url(#Path_1802)">
                <path id="Path_1802-2" data-name="Path 1802" d="M5.3,5.3l55.564-.016-.016,55.564-55.564.016Z" transform="matrix(-0.71, -0.71, 0.71, -0.71, 1762.73, 533.56)" fill="none" stroke="#707070" stroke-width="1"/>
              </g>
            </g>
            <g id="Group_134" data-name="Group 134" transform="translate(102.071 194.113)" opacity="0.2">
              <g transform="matrix(1, 0, 0, 1, -26.69, 761.53)" filter="url(#Path_434)">
                <path id="Path_434-2" data-name="Path 434" d="M722.813,73.838,669.361,20.4,615.9,73.838l53.466,53.421Z" transform="translate(-563.25 -740.82)" fill="url(#linear-gradient-12)"/>
              </g>
              <g transform="matrix(1, 0, 0, 1, -26.69, 761.53)" filter="url(#Path_1803)">
                <path id="Path_1803-2" data-name="Path 1803" d="M10.72,10.72l112.293-.033-.033,112.293-112.293.033Z" transform="translate(106.13 -572.45) rotate(-135.01)" fill="none" stroke="#707070" stroke-width="1"/>
              </g>
            </g>
            <g id="Group_135" data-name="Group 135" transform="translate(261.665 1125.453)">
              <g transform="matrix(1, 0, 0, 1, -186.29, -169.81)" filter="url(#Path_1804)">
                <path id="Path_1804-2" data-name="Path 1804" d="M2.873,2.873l30.1-.009-.009,30.1-30.1.009Z" transform="translate(217.91 232.8) rotate(-135)" fill="url(#linear-gradient-13)"/>
              </g>
              <g transform="matrix(1, 0, 0, 1, -186.29, -169.81)" filter="url(#Path_1805)">
                <path id="Path_1805-2" data-name="Path 1805" d="M4.269,4.269l44.718-.013-.013,44.719-44.719.013Z" transform="translate(217.92 245.11) rotate(-135.01)" fill="none" stroke="#707070" stroke-width="1"/>
              </g>
            </g>
          </g>
        </g>
      </g>
      <g id="Group_139" data-name="Group 139" transform="translate(118.212 1130.353)" opacity="0.45">
        <path id="Path_435" data-name="Path 435" d="M563.977,412.355a3.68,3.68,0,1,0,3.68-3.677A3.68,3.68,0,0,0,563.977,412.355Z" transform="translate(-174.349 -408.677)" fill="#46d5ff"/>
        <path id="Path_436" data-name="Path 436" d="M573.366,412.355a3.678,3.678,0,1,0,3.679-3.677A3.677,3.677,0,0,0,573.366,412.355Z" transform="translate(-209.71 -408.677)" fill="#46d5ff"/>
        <path id="Path_437" data-name="Path 437" d="M582.755,412.355a3.679,3.679,0,1,0,3.679-3.677A3.68,3.68,0,0,0,582.755,412.355Z" transform="translate(-245.076 -408.677)" fill="#46d5ff"/>
        <ellipse id="Ellipse_58" data-name="Ellipse 58" cx="3.68" cy="3.678" rx="3.68" ry="3.678" transform="translate(311.703)" fill="#46d5ff"/>
        <ellipse id="Ellipse_59" data-name="Ellipse 59" cx="3.68" cy="3.678" rx="3.68" ry="3.678" transform="translate(285.729)" fill="#46d5ff"/>
        <path id="Path_438" data-name="Path 438" d="M610.923,412.355a3.68,3.68,0,1,0,3.68-3.677A3.68,3.68,0,0,0,610.923,412.355Z" transform="translate(-351.17 -408.677)" fill="#46d5ff"/>
        <ellipse id="Ellipse_60" data-name="Ellipse 60" cx="3.68" cy="3.678" rx="3.68" ry="3.678" transform="translate(233.777)" fill="#46d5ff"/>
        <path id="Path_439" data-name="Path 439" d="M629.7,412.355a3.679,3.679,0,1,0,3.679-3.677A3.679,3.679,0,0,0,629.7,412.355Z" transform="translate(-421.897 -408.677)" fill="#46d5ff"/>
        <path id="Path_440" data-name="Path 440" d="M563.977,421.744a3.68,3.68,0,1,0,3.68-3.677A3.681,3.681,0,0,0,563.977,421.744Z" transform="translate(-174.349 -392.107)" fill="#46d5ff"/>
        <path id="Path_441" data-name="Path 441" d="M573.366,421.744a3.678,3.678,0,1,0,3.679-3.677A3.677,3.677,0,0,0,573.366,421.744Z" transform="translate(-209.71 -392.107)" fill="#46d5ff"/>
        <path id="Path_442" data-name="Path 442" d="M582.755,421.744a3.679,3.679,0,1,0,3.679-3.677A3.681,3.681,0,0,0,582.755,421.744Z" transform="translate(-245.076 -392.107)" fill="#46d5ff"/>
        <path id="Path_443" data-name="Path 443" d="M592.144,421.744a3.681,3.681,0,1,0,3.679-3.677A3.681,3.681,0,0,0,592.144,421.744Z" transform="translate(-280.442 -392.107)" fill="#46d5ff"/>
        <path id="Path_444" data-name="Path 444" d="M601.533,421.744a3.679,3.679,0,1,0,3.679-3.677A3.679,3.679,0,0,0,601.533,421.744Z" transform="translate(-315.802 -392.107)" fill="#46d5ff"/>
        <path id="Path_445" data-name="Path 445" d="M610.923,421.744a3.68,3.68,0,1,0,3.68-3.677A3.681,3.681,0,0,0,610.923,421.744Z" transform="translate(-351.17 -392.107)" fill="#46d5ff"/>
        <path id="Path_446" data-name="Path 446" d="M620.312,421.744a3.681,3.681,0,1,0,3.68-3.677A3.681,3.681,0,0,0,620.312,421.744Z" transform="translate(-386.536 -392.107)" fill="#46d5ff"/>
        <path id="Path_447" data-name="Path 447" d="M629.7,421.744a3.679,3.679,0,1,0,3.679-3.677A3.679,3.679,0,0,0,629.7,421.744Z" transform="translate(-421.897 -392.107)" fill="#46d5ff"/>
        <path id="Path_448" data-name="Path 448" d="M563.977,431.133a3.68,3.68,0,1,0,3.68-3.677A3.679,3.679,0,0,0,563.977,431.133Z" transform="translate(-174.349 -375.537)" fill="#46d5ff"/>
        <path id="Path_449" data-name="Path 449" d="M573.366,431.133a3.678,3.678,0,1,0,3.679-3.677A3.675,3.675,0,0,0,573.366,431.133Z" transform="translate(-209.71 -375.537)" fill="#46d5ff"/>
        <path id="Path_450" data-name="Path 450" d="M582.755,431.133a3.679,3.679,0,1,0,3.679-3.677A3.678,3.678,0,0,0,582.755,431.133Z" transform="translate(-245.076 -375.537)" fill="#46d5ff"/>
        <path id="Path_451" data-name="Path 451" d="M592.144,431.133a3.681,3.681,0,1,0,3.679-3.677A3.679,3.679,0,0,0,592.144,431.133Z" transform="translate(-280.442 -375.537)" fill="#46d5ff"/>
        <path id="Path_452" data-name="Path 452" d="M601.533,431.133a3.679,3.679,0,1,0,3.679-3.677A3.677,3.677,0,0,0,601.533,431.133Z" transform="translate(-315.802 -375.537)" fill="#46d5ff"/>
        <path id="Path_453" data-name="Path 453" d="M610.923,431.133a3.68,3.68,0,1,0,3.68-3.677A3.679,3.679,0,0,0,610.923,431.133Z" transform="translate(-351.17 -375.537)" fill="#46d5ff"/>
        <path id="Path_454" data-name="Path 454" d="M620.312,431.133a3.681,3.681,0,1,0,3.68-3.677A3.678,3.678,0,0,0,620.312,431.133Z" transform="translate(-386.536 -375.537)" fill="#46d5ff"/>
        <path id="Path_455" data-name="Path 455" d="M629.7,431.133a3.679,3.679,0,1,0,3.679-3.677A3.677,3.677,0,0,0,629.7,431.133Z" transform="translate(-421.897 -375.537)" fill="#46d5ff"/>
        <path id="Path_456" data-name="Path 456" d="M563.977,440.523a3.68,3.68,0,1,0,3.68-3.677A3.68,3.68,0,0,0,563.977,440.523Z" transform="translate(-174.349 -358.965)" fill="#46d5ff"/>
        <path id="Path_457" data-name="Path 457" d="M573.366,440.523a3.678,3.678,0,1,0,3.679-3.677A3.677,3.677,0,0,0,573.366,440.523Z" transform="translate(-209.71 -358.965)" fill="#46d5ff"/>
        <path id="Path_458" data-name="Path 458" d="M582.755,440.523a3.679,3.679,0,1,0,3.679-3.677A3.68,3.68,0,0,0,582.755,440.523Z" transform="translate(-245.076 -358.965)" fill="#46d5ff"/>
        <ellipse id="Ellipse_61" data-name="Ellipse 61" cx="3.68" cy="3.678" rx="3.68" ry="3.678" transform="translate(311.703 77.88)" fill="#46d5ff"/>
        <ellipse id="Ellipse_62" data-name="Ellipse 62" cx="3.68" cy="3.678" rx="3.68" ry="3.678" transform="translate(285.729 77.88)" fill="#46d5ff"/>
        <path id="Path_459" data-name="Path 459" d="M610.923,440.523a3.68,3.68,0,1,0,3.68-3.677A3.68,3.68,0,0,0,610.923,440.523Z" transform="translate(-351.17 -358.965)" fill="#46d5ff"/>
        <ellipse id="Ellipse_63" data-name="Ellipse 63" cx="3.68" cy="3.678" rx="3.68" ry="3.678" transform="translate(233.777 77.88)" fill="#46d5ff"/>
        <path id="Path_460" data-name="Path 460" d="M629.7,440.523a3.679,3.679,0,1,0,3.679-3.677A3.679,3.679,0,0,0,629.7,440.523Z" transform="translate(-421.897 -358.965)" fill="#46d5ff"/>
        <ellipse id="Ellipse_64" data-name="Ellipse 64" cx="3.68" cy="3.678" rx="3.68" ry="3.678" transform="translate(181.827)" fill="#46d5ff"/>
        <path id="Path_461" data-name="Path 461" d="M648.48,412.355a3.679,3.679,0,1,0,3.679-3.677A3.679,3.679,0,0,0,648.48,412.355Z" transform="translate(-492.627 -408.677)" fill="#46d5ff"/>
        <ellipse id="Ellipse_65" data-name="Ellipse 65" cx="3.68" cy="3.678" rx="3.68" ry="3.678" transform="translate(129.877)" fill="#46d5ff"/>
        <path id="Path_462" data-name="Path 462" d="M667.259,412.355a3.68,3.68,0,1,0,3.68-3.677A3.68,3.68,0,0,0,667.259,412.355Z" transform="translate(-563.358 -408.677)" fill="#46d5ff"/>
        <path id="Path_463" data-name="Path 463" d="M676.647,412.355a3.681,3.681,0,1,0,3.682-3.677A3.681,3.681,0,0,0,676.647,412.355Z" transform="translate(-598.721 -408.677)" fill="#46d5ff"/>
        <ellipse id="Ellipse_66" data-name="Ellipse 66" cx="3.68" cy="3.678" rx="3.68" ry="3.678" transform="translate(51.951)" fill="#46d5ff"/>
        <path id="Path_464" data-name="Path 464" d="M695.427,412.355a3.678,3.678,0,1,0,3.679-3.677A3.679,3.679,0,0,0,695.427,412.355Z" transform="translate(-669.45 -408.677)" fill="#46d5ff"/>
        <ellipse id="Ellipse_67" data-name="Ellipse 67" cx="3.68" cy="3.678" rx="3.68" ry="3.678" transform="translate(0.001)" fill="#46d5ff"/>
        <path id="Path_465" data-name="Path 465" d="M639.091,421.744a3.679,3.679,0,1,0,3.679-3.677A3.681,3.681,0,0,0,639.091,421.744Z" transform="translate(-457.264 -392.107)" fill="#46d5ff"/>
        <path id="Path_466" data-name="Path 466" d="M648.48,421.744a3.679,3.679,0,1,0,3.679-3.677A3.679,3.679,0,0,0,648.48,421.744Z" transform="translate(-492.627 -392.107)" fill="#46d5ff"/>
        <path id="Path_467" data-name="Path 467" d="M657.869,421.744a3.679,3.679,0,1,0,3.679-3.677A3.679,3.679,0,0,0,657.869,421.744Z" transform="translate(-527.991 -392.107)" fill="#46d5ff"/>
        <path id="Path_468" data-name="Path 468" d="M667.259,421.744a3.68,3.68,0,1,0,3.68-3.677A3.681,3.681,0,0,0,667.259,421.744Z" transform="translate(-563.358 -392.107)" fill="#46d5ff"/>
        <path id="Path_469" data-name="Path 469" d="M676.647,421.744a3.681,3.681,0,1,0,3.682-3.677A3.681,3.681,0,0,0,676.647,421.744Z" transform="translate(-598.721 -392.107)" fill="#46d5ff"/>
        <path id="Path_470" data-name="Path 470" d="M686.037,421.744a3.679,3.679,0,1,0,3.679-3.677A3.679,3.679,0,0,0,686.037,421.744Z" transform="translate(-634.085 -392.107)" fill="#46d5ff"/>
        <path id="Path_471" data-name="Path 471" d="M695.427,421.744a3.678,3.678,0,1,0,3.679-3.677A3.679,3.679,0,0,0,695.427,421.744Z" transform="translate(-669.45 -392.107)" fill="#46d5ff"/>
        <path id="Path_472" data-name="Path 472" d="M704.815,421.744a3.681,3.681,0,1,0,3.682-3.677A3.681,3.681,0,0,0,704.815,421.744Z" transform="translate(-704.815 -392.107)" fill="#46d5ff"/>
        <path id="Path_473" data-name="Path 473" d="M639.091,431.133a3.679,3.679,0,1,0,3.679-3.677A3.678,3.678,0,0,0,639.091,431.133Z" transform="translate(-457.264 -375.537)" fill="#46d5ff"/>
        <path id="Path_474" data-name="Path 474" d="M648.48,431.133a3.679,3.679,0,1,0,3.679-3.677A3.677,3.677,0,0,0,648.48,431.133Z" transform="translate(-492.627 -375.537)" fill="#46d5ff"/>
        <path id="Path_475" data-name="Path 475" d="M657.869,431.133a3.679,3.679,0,1,0,3.679-3.677A3.677,3.677,0,0,0,657.869,431.133Z" transform="translate(-527.991 -375.537)" fill="#46d5ff"/>
        <path id="Path_476" data-name="Path 476" d="M667.259,431.133a3.68,3.68,0,1,0,3.68-3.677A3.678,3.678,0,0,0,667.259,431.133Z" transform="translate(-563.358 -375.537)" fill="#46d5ff"/>
        <path id="Path_477" data-name="Path 477" d="M676.647,431.133a3.681,3.681,0,1,0,3.682-3.677A3.679,3.679,0,0,0,676.647,431.133Z" transform="translate(-598.721 -375.537)" fill="#46d5ff"/>
        <path id="Path_478" data-name="Path 478" d="M686.037,431.133a3.679,3.679,0,1,0,3.679-3.677A3.677,3.677,0,0,0,686.037,431.133Z" transform="translate(-634.085 -375.537)" fill="#46d5ff"/>
        <path id="Path_479" data-name="Path 479" d="M695.427,431.133a3.678,3.678,0,1,0,3.679-3.677A3.677,3.677,0,0,0,695.427,431.133Z" transform="translate(-669.45 -375.537)" fill="#46d5ff"/>
        <path id="Path_480" data-name="Path 480" d="M704.815,431.133a3.681,3.681,0,1,0,3.682-3.677A3.679,3.679,0,0,0,704.815,431.133Z" transform="translate(-704.815 -375.537)" fill="#46d5ff"/>
        <ellipse id="Ellipse_68" data-name="Ellipse 68" cx="3.68" cy="3.678" rx="3.68" ry="3.678" transform="translate(181.827 77.88)" fill="#46d5ff"/>
        <path id="Path_481" data-name="Path 481" d="M648.48,440.523a3.679,3.679,0,1,0,3.679-3.677A3.679,3.679,0,0,0,648.48,440.523Z" transform="translate(-492.627 -358.965)" fill="#46d5ff"/>
        <ellipse id="Ellipse_69" data-name="Ellipse 69" cx="3.68" cy="3.678" rx="3.68" ry="3.678" transform="translate(129.877 77.88)" fill="#46d5ff"/>
        <path id="Path_482" data-name="Path 482" d="M667.259,440.523a3.68,3.68,0,1,0,3.68-3.677A3.68,3.68,0,0,0,667.259,440.523Z" transform="translate(-563.358 -358.965)" fill="#46d5ff"/>
        <path id="Path_483" data-name="Path 483" d="M676.647,440.523a3.681,3.681,0,1,0,3.682-3.677A3.681,3.681,0,0,0,676.647,440.523Z" transform="translate(-598.721 -358.965)" fill="#46d5ff"/>
        <ellipse id="Ellipse_70" data-name="Ellipse 70" cx="3.68" cy="3.678" rx="3.68" ry="3.678" transform="translate(51.951 77.88)" fill="#46d5ff"/>
        <path id="Path_484" data-name="Path 484" d="M695.427,440.523a3.678,3.678,0,1,0,3.679-3.677A3.679,3.679,0,0,0,695.427,440.523Z" transform="translate(-669.45 -358.965)" fill="#46d5ff"/>
        <ellipse id="Ellipse_71" data-name="Ellipse 71" cx="3.68" cy="3.678" rx="3.68" ry="3.678" transform="translate(0.001 77.88)" fill="#46d5ff"/>
      </g>
      <g id="Group_142" data-name="Group 142" transform="translate(1496.798 346.144)">
        <g id="Group_140" data-name="Group 140" opacity="0.45">
          <path id="Path_485" data-name="Path 485" d="M65.659,128.719a3.679,3.679,0,1,0,3.679-3.677A3.678,3.678,0,0,0,65.659,128.719Z" transform="translate(323.97 -125.041)" fill="#46d5ff"/>
          <path id="Path_486" data-name="Path 486" d="M75.049,128.719a3.678,3.678,0,1,0,3.679-3.677A3.678,3.678,0,0,0,75.049,128.719Z" transform="translate(288.605 -125.041)" fill="#46d5ff"/>
          <ellipse id="Ellipse_72" data-name="Ellipse 72" cx="3.68" cy="3.678" rx="3.68" ry="3.678" transform="translate(337.678)" fill="#46d5ff"/>
          <ellipse id="Ellipse_73" data-name="Ellipse 73" cx="3.68" cy="3.678" rx="3.68" ry="3.678" transform="translate(311.702)" fill="#46d5ff"/>
          <ellipse id="Ellipse_74" data-name="Ellipse 74" cx="3.68" cy="3.678" rx="3.68" ry="3.678" transform="translate(285.728)" fill="#46d5ff"/>
          <path id="Path_487" data-name="Path 487" d="M112.6,128.719a3.681,3.681,0,1,0,3.682-3.677A3.681,3.681,0,0,0,112.6,128.719Z" transform="translate(147.146 -125.041)" fill="#46d5ff"/>
          <ellipse id="Ellipse_75" data-name="Ellipse 75" cx="3.68" cy="3.678" rx="3.68" ry="3.678" transform="translate(233.776)" fill="#46d5ff"/>
          <path id="Path_488" data-name="Path 488" d="M131.384,128.719a3.679,3.679,0,1,0,3.679-3.677A3.68,3.68,0,0,0,131.384,128.719Z" transform="translate(76.418 -125.041)" fill="#46d5ff"/>
          <path id="Path_489" data-name="Path 489" d="M65.659,138.108a3.679,3.679,0,1,0,3.679-3.677A3.677,3.677,0,0,0,65.659,138.108Z" transform="translate(323.97 -108.471)" fill="#46d5ff"/>
          <path id="Path_490" data-name="Path 490" d="M75.049,138.108a3.678,3.678,0,1,0,3.679-3.677A3.677,3.677,0,0,0,75.049,138.108Z" transform="translate(288.605 -108.471)" fill="#46d5ff"/>
          <path id="Path_491" data-name="Path 491" d="M84.438,138.108a3.679,3.679,0,1,0,3.679-3.677A3.678,3.678,0,0,0,84.438,138.108Z" transform="translate(253.239 -108.471)" fill="#46d5ff"/>
          <path id="Path_492" data-name="Path 492" d="M93.827,138.108a3.679,3.679,0,1,0,3.679-3.677A3.677,3.677,0,0,0,93.827,138.108Z" transform="translate(217.876 -108.471)" fill="#46d5ff"/>
          <path id="Path_493" data-name="Path 493" d="M103.216,138.108a3.679,3.679,0,1,0,3.679-3.677A3.678,3.678,0,0,0,103.216,138.108Z" transform="translate(182.512 -108.471)" fill="#46d5ff"/>
          <path id="Path_494" data-name="Path 494" d="M112.6,138.108a3.681,3.681,0,1,0,3.682-3.677A3.679,3.679,0,0,0,112.6,138.108Z" transform="translate(147.146 -108.471)" fill="#46d5ff"/>
          <path id="Path_495" data-name="Path 495" d="M122,138.108a3.679,3.679,0,1,0,3.679-3.677A3.677,3.677,0,0,0,122,138.108Z" transform="translate(111.781 -108.471)" fill="#46d5ff"/>
          <path id="Path_496" data-name="Path 496" d="M131.384,138.108a3.679,3.679,0,1,0,3.679-3.677A3.678,3.678,0,0,0,131.384,138.108Z" transform="translate(76.418 -108.471)" fill="#46d5ff"/>
          <path id="Path_497" data-name="Path 497" d="M65.659,147.5a3.679,3.679,0,1,0,3.679-3.677A3.678,3.678,0,0,0,65.659,147.5Z" transform="translate(323.97 -91.9)" fill="#46d5ff"/>
          <path id="Path_498" data-name="Path 498" d="M75.049,147.5a3.678,3.678,0,1,0,3.679-3.677A3.678,3.678,0,0,0,75.049,147.5Z" transform="translate(288.605 -91.9)" fill="#46d5ff"/>
          <ellipse id="Ellipse_76" data-name="Ellipse 76" cx="3.68" cy="3.678" rx="3.68" ry="3.678" transform="translate(337.678 51.919)" fill="#46d5ff"/>
          <ellipse id="Ellipse_77" data-name="Ellipse 77" cx="3.68" cy="3.678" rx="3.68" ry="3.678" transform="translate(311.702 51.919)" fill="#46d5ff"/>
          <ellipse id="Ellipse_78" data-name="Ellipse 78" cx="3.68" cy="3.678" rx="3.68" ry="3.678" transform="translate(285.728 51.919)" fill="#46d5ff"/>
          <path id="Path_499" data-name="Path 499" d="M112.6,147.5a3.681,3.681,0,1,0,3.682-3.677A3.681,3.681,0,0,0,112.6,147.5Z" transform="translate(147.146 -91.9)" fill="#46d5ff"/>
          <ellipse id="Ellipse_79" data-name="Ellipse 79" cx="3.68" cy="3.678" rx="3.68" ry="3.678" transform="translate(233.776 51.919)" fill="#46d5ff"/>
          <path id="Path_500" data-name="Path 500" d="M131.384,147.5a3.679,3.679,0,1,0,3.679-3.677A3.68,3.68,0,0,0,131.384,147.5Z" transform="translate(76.418 -91.9)" fill="#46d5ff"/>
          <path id="Path_501" data-name="Path 501" d="M65.659,156.889a3.679,3.679,0,1,0,3.679-3.68A3.678,3.678,0,0,0,65.659,156.889Z" transform="translate(323.97 -75.33)" fill="#46d5ff"/>
          <path id="Path_502" data-name="Path 502" d="M75.049,156.889a3.678,3.678,0,1,0,3.679-3.68A3.678,3.678,0,0,0,75.049,156.889Z" transform="translate(288.605 -75.33)" fill="#46d5ff"/>
          <path id="Path_503" data-name="Path 503" d="M84.438,156.889a3.679,3.679,0,1,0,3.679-3.68A3.68,3.68,0,0,0,84.438,156.889Z" transform="translate(253.239 -75.33)" fill="#46d5ff"/>
          <path id="Path_504" data-name="Path 504" d="M93.827,156.889a3.679,3.679,0,1,0,3.679-3.68A3.678,3.678,0,0,0,93.827,156.889Z" transform="translate(217.876 -75.33)" fill="#46d5ff"/>
          <path id="Path_505" data-name="Path 505" d="M103.216,156.889a3.679,3.679,0,1,0,3.679-3.68A3.68,3.68,0,0,0,103.216,156.889Z" transform="translate(182.512 -75.33)" fill="#46d5ff"/>
          <path id="Path_506" data-name="Path 506" d="M112.6,156.889a3.681,3.681,0,1,0,3.682-3.68A3.681,3.681,0,0,0,112.6,156.889Z" transform="translate(147.146 -75.33)" fill="#46d5ff"/>
          <path id="Path_507" data-name="Path 507" d="M122,156.889a3.679,3.679,0,1,0,3.679-3.68A3.678,3.678,0,0,0,122,156.889Z" transform="translate(111.781 -75.33)" fill="#46d5ff"/>
          <path id="Path_508" data-name="Path 508" d="M131.384,156.889a3.679,3.679,0,1,0,3.679-3.68A3.68,3.68,0,0,0,131.384,156.889Z" transform="translate(76.418 -75.33)" fill="#46d5ff"/>
          <ellipse id="Ellipse_80" data-name="Ellipse 80" cx="3.68" cy="3.678" rx="3.68" ry="3.678" transform="translate(181.826)" fill="#46d5ff"/>
          <path id="Path_509" data-name="Path 509" d="M150.163,128.719a3.678,3.678,0,1,0,3.679-3.677A3.678,3.678,0,0,0,150.163,128.719Z" transform="translate(5.69 -125.041)" fill="#46d5ff"/>
          <path id="Path_510" data-name="Path 510" d="M159.552,128.719a3.679,3.679,0,1,0,3.679-3.677A3.68,3.68,0,0,0,159.552,128.719Z" transform="translate(-29.676 -125.041)" fill="#46d5ff"/>
          <ellipse id="Ellipse_81" data-name="Ellipse 81" cx="3.68" cy="3.678" rx="3.68" ry="3.678" transform="translate(103.9)" fill="#46d5ff"/>
          <path id="Path_511" data-name="Path 511" d="M178.33,128.719a3.679,3.679,0,1,0,3.679-3.677A3.68,3.68,0,0,0,178.33,128.719Z" transform="translate(-100.403 -125.041)" fill="#46d5ff"/>
          <ellipse id="Ellipse_82" data-name="Ellipse 82" cx="3.68" cy="3.678" rx="3.68" ry="3.678" transform="translate(51.95)" fill="#46d5ff"/>
          <path id="Path_512" data-name="Path 512" d="M197.109,128.719a3.679,3.679,0,1,0,3.682-3.677A3.679,3.679,0,0,0,197.109,128.719Z" transform="translate(-171.134 -125.041)" fill="#46d5ff"/>
          <ellipse id="Ellipse_83" data-name="Ellipse 83" cx="3.68" cy="3.678" rx="3.68" ry="3.678" transform="translate(0 0)" fill="#46d5ff"/>
          <path id="Path_513" data-name="Path 513" d="M140.773,138.108a3.681,3.681,0,1,0,3.682-3.677A3.679,3.679,0,0,0,140.773,138.108Z" transform="translate(41.052 -108.471)" fill="#46d5ff"/>
          <path id="Path_514" data-name="Path 514" d="M150.163,138.108a3.678,3.678,0,1,0,3.679-3.677A3.677,3.677,0,0,0,150.163,138.108Z" transform="translate(5.69 -108.471)" fill="#46d5ff"/>
          <path id="Path_515" data-name="Path 515" d="M159.552,138.108a3.679,3.679,0,1,0,3.679-3.677A3.678,3.678,0,0,0,159.552,138.108Z" transform="translate(-29.676 -108.471)" fill="#46d5ff"/>
          <path id="Path_516" data-name="Path 516" d="M168.941,138.108a3.681,3.681,0,1,0,3.682-3.677A3.679,3.679,0,0,0,168.941,138.108Z" transform="translate(-65.043 -108.471)" fill="#46d5ff"/>
          <path id="Path_517" data-name="Path 517" d="M178.33,138.108a3.679,3.679,0,1,0,3.679-3.677A3.678,3.678,0,0,0,178.33,138.108Z" transform="translate(-100.403 -108.471)" fill="#46d5ff"/>
          <path id="Path_518" data-name="Path 518" d="M187.72,138.108a3.679,3.679,0,1,0,3.679-3.677A3.678,3.678,0,0,0,187.72,138.108Z" transform="translate(-135.771 -108.471)" fill="#46d5ff"/>
          <path id="Path_519" data-name="Path 519" d="M197.109,138.108a3.679,3.679,0,1,0,3.682-3.677A3.677,3.677,0,0,0,197.109,138.108Z" transform="translate(-171.134 -108.471)" fill="#46d5ff"/>
          <path id="Path_520" data-name="Path 520" d="M206.5,138.108a3.679,3.679,0,1,0,3.679-3.677A3.678,3.678,0,0,0,206.5,138.108Z" transform="translate(-206.497 -108.471)" fill="#46d5ff"/>
          <ellipse id="Ellipse_84" data-name="Ellipse 84" cx="3.68" cy="3.678" rx="3.68" ry="3.678" transform="translate(181.826 51.919)" fill="#46d5ff"/>
          <path id="Path_521" data-name="Path 521" d="M150.163,147.5a3.678,3.678,0,1,0,3.679-3.677A3.678,3.678,0,0,0,150.163,147.5Z" transform="translate(5.69 -91.9)" fill="#46d5ff"/>
          <path id="Path_522" data-name="Path 522" d="M159.552,147.5a3.679,3.679,0,1,0,3.679-3.677A3.68,3.68,0,0,0,159.552,147.5Z" transform="translate(-29.676 -91.9)" fill="#46d5ff"/>
          <ellipse id="Ellipse_85" data-name="Ellipse 85" cx="3.68" cy="3.678" rx="3.68" ry="3.678" transform="translate(103.9 51.919)" fill="#46d5ff"/>
          <path id="Path_523" data-name="Path 523" d="M178.33,147.5a3.679,3.679,0,1,0,3.679-3.677A3.68,3.68,0,0,0,178.33,147.5Z" transform="translate(-100.403 -91.9)" fill="#46d5ff"/>
          <ellipse id="Ellipse_86" data-name="Ellipse 86" cx="3.68" cy="3.678" rx="3.68" ry="3.678" transform="translate(51.95 51.919)" fill="#46d5ff"/>
          <path id="Path_524" data-name="Path 524" d="M197.109,147.5a3.679,3.679,0,1,0,3.682-3.677A3.679,3.679,0,0,0,197.109,147.5Z" transform="translate(-171.134 -91.9)" fill="#46d5ff"/>
          <ellipse id="Ellipse_87" data-name="Ellipse 87" cx="3.68" cy="3.678" rx="3.68" ry="3.678" transform="translate(0 51.919)" fill="#46d5ff"/>
          <path id="Path_525" data-name="Path 525" d="M140.773,156.889a3.681,3.681,0,1,0,3.682-3.68A3.681,3.681,0,0,0,140.773,156.889Z" transform="translate(41.052 -75.33)" fill="#46d5ff"/>
          <path id="Path_526" data-name="Path 526" d="M150.163,156.889a3.678,3.678,0,1,0,3.679-3.68A3.678,3.678,0,0,0,150.163,156.889Z" transform="translate(5.69 -75.33)" fill="#46d5ff"/>
          <path id="Path_527" data-name="Path 527" d="M159.552,156.889a3.679,3.679,0,1,0,3.679-3.68A3.68,3.68,0,0,0,159.552,156.889Z" transform="translate(-29.676 -75.33)" fill="#46d5ff"/>
          <path id="Path_528" data-name="Path 528" d="M168.941,156.889a3.681,3.681,0,1,0,3.682-3.68A3.681,3.681,0,0,0,168.941,156.889Z" transform="translate(-65.043 -75.33)" fill="#46d5ff"/>
          <path id="Path_529" data-name="Path 529" d="M178.33,156.889a3.679,3.679,0,1,0,3.679-3.68A3.68,3.68,0,0,0,178.33,156.889Z" transform="translate(-100.403 -75.33)" fill="#46d5ff"/>
          <path id="Path_530" data-name="Path 530" d="M187.72,156.889a3.679,3.679,0,1,0,3.679-3.68A3.68,3.68,0,0,0,187.72,156.889Z" transform="translate(-135.771 -75.33)" fill="#46d5ff"/>
          <path id="Path_531" data-name="Path 531" d="M197.109,156.889a3.679,3.679,0,1,0,3.682-3.68A3.679,3.679,0,0,0,197.109,156.889Z" transform="translate(-171.134 -75.33)" fill="#46d5ff"/>
          <path id="Path_532" data-name="Path 532" d="M206.5,156.889a3.679,3.679,0,1,0,3.679-3.68A3.68,3.68,0,0,0,206.5,156.889Z" transform="translate(-206.497 -75.33)" fill="#46d5ff"/>
        </g>
        <g id="Group_141" data-name="Group 141" transform="translate(0 103.86)" opacity="0.45">
          <path id="Path_533" data-name="Path 533" d="M65.659,166.283a3.679,3.679,0,1,0,3.679-3.677A3.679,3.679,0,0,0,65.659,166.283Z" transform="translate(323.97 -162.606)" fill="#46d5ff"/>
          <path id="Path_534" data-name="Path 534" d="M75.049,166.283a3.678,3.678,0,1,0,3.679-3.677A3.679,3.679,0,0,0,75.049,166.283Z" transform="translate(288.605 -162.606)" fill="#46d5ff"/>
          <ellipse id="Ellipse_88" data-name="Ellipse 88" cx="3.68" cy="3.678" rx="3.68" ry="3.678" transform="translate(337.678 0.001)" fill="#46d5ff"/>
          <ellipse id="Ellipse_89" data-name="Ellipse 89" cx="3.68" cy="3.678" rx="3.68" ry="3.678" transform="translate(311.702 0.001)" fill="#46d5ff"/>
          <ellipse id="Ellipse_90" data-name="Ellipse 90" cx="3.68" cy="3.678" rx="3.68" ry="3.678" transform="translate(285.728 0.001)" fill="#46d5ff"/>
          <path id="Path_535" data-name="Path 535" d="M112.6,166.283a3.681,3.681,0,1,0,3.682-3.677A3.681,3.681,0,0,0,112.6,166.283Z" transform="translate(147.146 -162.606)" fill="#46d5ff"/>
          <ellipse id="Ellipse_91" data-name="Ellipse 91" cx="3.68" cy="3.678" rx="3.68" ry="3.678" transform="translate(233.776 0.001)" fill="#46d5ff"/>
          <path id="Path_536" data-name="Path 536" d="M131.384,166.283a3.679,3.679,0,1,0,3.679-3.677A3.681,3.681,0,0,0,131.384,166.283Z" transform="translate(76.418 -162.606)" fill="#46d5ff"/>
          <path id="Path_537" data-name="Path 537" d="M65.659,175.673A3.679,3.679,0,1,0,69.338,172,3.678,3.678,0,0,0,65.659,175.673Z" transform="translate(323.97 -146.034)" fill="#46d5ff"/>
          <path id="Path_538" data-name="Path 538" d="M75.049,175.673A3.678,3.678,0,1,0,78.728,172,3.678,3.678,0,0,0,75.049,175.673Z" transform="translate(288.605 -146.034)" fill="#46d5ff"/>
          <ellipse id="Ellipse_92" data-name="Ellipse 92" cx="3.68" cy="3.678" rx="3.68" ry="3.678" transform="translate(337.678 25.962)" fill="#46d5ff"/>
          <ellipse id="Ellipse_93" data-name="Ellipse 93" cx="3.68" cy="3.678" rx="3.68" ry="3.678" transform="translate(311.702 25.962)" fill="#46d5ff"/>
          <ellipse id="Ellipse_94" data-name="Ellipse 94" cx="3.68" cy="3.678" rx="3.68" ry="3.678" transform="translate(285.728 25.962)" fill="#46d5ff"/>
          <path id="Path_539" data-name="Path 539" d="M112.6,175.673A3.681,3.681,0,1,0,116.287,172,3.681,3.681,0,0,0,112.6,175.673Z" transform="translate(147.146 -146.034)" fill="#46d5ff"/>
          <ellipse id="Ellipse_95" data-name="Ellipse 95" cx="3.68" cy="3.678" rx="3.68" ry="3.678" transform="translate(233.776 25.962)" fill="#46d5ff"/>
          <path id="Path_540" data-name="Path 540" d="M131.384,175.673A3.679,3.679,0,1,0,135.063,172,3.68,3.68,0,0,0,131.384,175.673Z" transform="translate(76.418 -146.034)" fill="#46d5ff"/>
          <path id="Path_541" data-name="Path 541" d="M65.659,185.062a3.679,3.679,0,1,0,3.679-3.677A3.678,3.678,0,0,0,65.659,185.062Z" transform="translate(323.97 -129.464)" fill="#46d5ff"/>
          <path id="Path_542" data-name="Path 542" d="M75.049,185.062a3.678,3.678,0,1,0,3.679-3.677A3.678,3.678,0,0,0,75.049,185.062Z" transform="translate(288.605 -129.464)" fill="#46d5ff"/>
          <path id="Path_543" data-name="Path 543" d="M84.438,185.062a3.679,3.679,0,1,0,3.679-3.677A3.68,3.68,0,0,0,84.438,185.062Z" transform="translate(253.239 -129.464)" fill="#46d5ff"/>
          <path id="Path_544" data-name="Path 544" d="M93.827,185.062a3.679,3.679,0,1,0,3.679-3.677A3.678,3.678,0,0,0,93.827,185.062Z" transform="translate(217.876 -129.464)" fill="#46d5ff"/>
          <path id="Path_545" data-name="Path 545" d="M103.216,185.062a3.679,3.679,0,1,0,3.679-3.677A3.68,3.68,0,0,0,103.216,185.062Z" transform="translate(182.512 -129.464)" fill="#46d5ff"/>
          <path id="Path_546" data-name="Path 546" d="M112.6,185.062a3.681,3.681,0,1,0,3.682-3.677A3.681,3.681,0,0,0,112.6,185.062Z" transform="translate(147.146 -129.464)" fill="#46d5ff"/>
          <path id="Path_547" data-name="Path 547" d="M122,185.062a3.679,3.679,0,1,0,3.679-3.677A3.678,3.678,0,0,0,122,185.062Z" transform="translate(111.781 -129.464)" fill="#46d5ff"/>
          <path id="Path_548" data-name="Path 548" d="M131.384,185.062a3.679,3.679,0,1,0,3.679-3.677A3.68,3.68,0,0,0,131.384,185.062Z" transform="translate(76.418 -129.464)" fill="#46d5ff"/>
          <path id="Path_549" data-name="Path 549" d="M65.659,194.454a3.679,3.679,0,1,0,3.679-3.68A3.678,3.678,0,0,0,65.659,194.454Z" transform="translate(323.97 -112.894)" fill="#46d5ff"/>
          <path id="Path_550" data-name="Path 550" d="M75.049,194.454a3.678,3.678,0,1,0,3.679-3.68A3.678,3.678,0,0,0,75.049,194.454Z" transform="translate(288.605 -112.894)" fill="#46d5ff"/>
          <ellipse id="Ellipse_96" data-name="Ellipse 96" cx="3.68" cy="3.678" rx="3.68" ry="3.678" transform="translate(337.678 77.881)" fill="#46d5ff"/>
          <ellipse id="Ellipse_97" data-name="Ellipse 97" cx="3.68" cy="3.678" rx="3.68" ry="3.678" transform="translate(311.702 77.881)" fill="#46d5ff"/>
          <ellipse id="Ellipse_98" data-name="Ellipse 98" cx="3.68" cy="3.678" rx="3.68" ry="3.678" transform="translate(285.728 77.881)" fill="#46d5ff"/>
          <path id="Path_551" data-name="Path 551" d="M112.6,194.454a3.681,3.681,0,1,0,3.682-3.68A3.681,3.681,0,0,0,112.6,194.454Z" transform="translate(147.146 -112.894)" fill="#46d5ff"/>
          <ellipse id="Ellipse_99" data-name="Ellipse 99" cx="3.68" cy="3.678" rx="3.68" ry="3.678" transform="translate(233.776 77.881)" fill="#46d5ff"/>
          <path id="Path_552" data-name="Path 552" d="M131.384,194.454a3.679,3.679,0,1,0,3.679-3.68A3.68,3.68,0,0,0,131.384,194.454Z" transform="translate(76.418 -112.894)" fill="#46d5ff"/>
          <ellipse id="Ellipse_100" data-name="Ellipse 100" cx="3.68" cy="3.678" rx="3.68" ry="3.678" transform="translate(181.826 0.001)" fill="#46d5ff"/>
          <path id="Path_553" data-name="Path 553" d="M150.163,166.283a3.678,3.678,0,1,0,3.679-3.677A3.679,3.679,0,0,0,150.163,166.283Z" transform="translate(5.69 -162.606)" fill="#46d5ff"/>
          <path id="Path_554" data-name="Path 554" d="M159.552,166.283a3.679,3.679,0,1,0,3.679-3.677A3.681,3.681,0,0,0,159.552,166.283Z" transform="translate(-29.676 -162.606)" fill="#46d5ff"/>
          <ellipse id="Ellipse_101" data-name="Ellipse 101" cx="3.68" cy="3.678" rx="3.68" ry="3.678" transform="translate(103.9 0.001)" fill="#46d5ff"/>
          <path id="Path_555" data-name="Path 555" d="M178.33,166.283a3.679,3.679,0,1,0,3.679-3.677A3.681,3.681,0,0,0,178.33,166.283Z" transform="translate(-100.403 -162.606)" fill="#46d5ff"/>
          <ellipse id="Ellipse_102" data-name="Ellipse 102" cx="3.68" cy="3.678" rx="3.68" ry="3.678" transform="translate(51.95 0.001)" fill="#46d5ff"/>
          <path id="Path_556" data-name="Path 556" d="M197.109,166.283a3.679,3.679,0,1,0,3.682-3.677A3.68,3.68,0,0,0,197.109,166.283Z" transform="translate(-171.134 -162.606)" fill="#46d5ff"/>
          <ellipse id="Ellipse_103" data-name="Ellipse 103" cx="3.68" cy="3.678" rx="3.68" ry="3.678" transform="translate(0 0.001)" fill="#46d5ff"/>
          <ellipse id="Ellipse_104" data-name="Ellipse 104" cx="3.68" cy="3.678" rx="3.68" ry="3.678" transform="translate(181.826 25.962)" fill="#46d5ff"/>
          <path id="Path_557" data-name="Path 557" d="M150.163,175.673A3.678,3.678,0,1,0,153.842,172,3.678,3.678,0,0,0,150.163,175.673Z" transform="translate(5.69 -146.034)" fill="#46d5ff"/>
          <path id="Path_558" data-name="Path 558" d="M159.552,175.673A3.679,3.679,0,1,0,163.231,172,3.68,3.68,0,0,0,159.552,175.673Z" transform="translate(-29.676 -146.034)" fill="#46d5ff"/>
          <ellipse id="Ellipse_105" data-name="Ellipse 105" cx="3.68" cy="3.678" rx="3.68" ry="3.678" transform="translate(103.9 25.962)" fill="#46d5ff"/>
          <path id="Path_559" data-name="Path 559" d="M178.33,175.673A3.679,3.679,0,1,0,182.009,172,3.68,3.68,0,0,0,178.33,175.673Z" transform="translate(-100.403 -146.034)" fill="#46d5ff"/>
          <ellipse id="Ellipse_106" data-name="Ellipse 106" cx="3.68" cy="3.678" rx="3.68" ry="3.678" transform="translate(51.95 25.962)" fill="#46d5ff"/>
          <path id="Path_560" data-name="Path 560" d="M197.109,175.673A3.679,3.679,0,1,0,200.791,172,3.679,3.679,0,0,0,197.109,175.673Z" transform="translate(-171.134 -146.034)" fill="#46d5ff"/>
          <ellipse id="Ellipse_107" data-name="Ellipse 107" cx="3.68" cy="3.678" rx="3.68" ry="3.678" transform="translate(0 25.962)" fill="#46d5ff"/>
          <path id="Path_561" data-name="Path 561" d="M140.773,185.062a3.681,3.681,0,1,0,3.682-3.677A3.681,3.681,0,0,0,140.773,185.062Z" transform="translate(41.052 -129.464)" fill="#46d5ff"/>
          <path id="Path_562" data-name="Path 562" d="M150.163,185.062a3.678,3.678,0,1,0,3.679-3.677A3.678,3.678,0,0,0,150.163,185.062Z" transform="translate(5.69 -129.464)" fill="#46d5ff"/>
          <path id="Path_563" data-name="Path 563" d="M159.552,185.062a3.679,3.679,0,1,0,3.679-3.677A3.68,3.68,0,0,0,159.552,185.062Z" transform="translate(-29.676 -129.464)" fill="#46d5ff"/>
          <path id="Path_564" data-name="Path 564" d="M168.941,185.062a3.681,3.681,0,1,0,3.682-3.677A3.681,3.681,0,0,0,168.941,185.062Z" transform="translate(-65.043 -129.464)" fill="#46d5ff"/>
          <path id="Path_565" data-name="Path 565" d="M178.33,185.062a3.679,3.679,0,1,0,3.679-3.677A3.68,3.68,0,0,0,178.33,185.062Z" transform="translate(-100.403 -129.464)" fill="#46d5ff"/>
          <path id="Path_566" data-name="Path 566" d="M187.72,185.062a3.679,3.679,0,1,0,3.679-3.677A3.68,3.68,0,0,0,187.72,185.062Z" transform="translate(-135.771 -129.464)" fill="#46d5ff"/>
          <path id="Path_567" data-name="Path 567" d="M197.109,185.062a3.679,3.679,0,1,0,3.682-3.677A3.679,3.679,0,0,0,197.109,185.062Z" transform="translate(-171.134 -129.464)" fill="#46d5ff"/>
          <path id="Path_568" data-name="Path 568" d="M206.5,185.062a3.679,3.679,0,1,0,3.679-3.677A3.68,3.68,0,0,0,206.5,185.062Z" transform="translate(-206.497 -129.464)" fill="#46d5ff"/>
          <ellipse id="Ellipse_108" data-name="Ellipse 108" cx="3.68" cy="3.678" rx="3.68" ry="3.678" transform="translate(181.826 77.881)" fill="#46d5ff"/>
          <path id="Path_569" data-name="Path 569" d="M150.163,194.454a3.678,3.678,0,1,0,3.679-3.68A3.678,3.678,0,0,0,150.163,194.454Z" transform="translate(5.69 -112.894)" fill="#46d5ff"/>
          <path id="Path_570" data-name="Path 570" d="M159.552,194.454a3.679,3.679,0,1,0,3.679-3.68A3.68,3.68,0,0,0,159.552,194.454Z" transform="translate(-29.676 -112.894)" fill="#46d5ff"/>
          <ellipse id="Ellipse_109" data-name="Ellipse 109" cx="3.68" cy="3.678" rx="3.68" ry="3.678" transform="translate(103.9 77.881)" fill="#46d5ff"/>
          <path id="Path_571" data-name="Path 571" d="M178.33,194.454a3.679,3.679,0,1,0,3.679-3.68A3.68,3.68,0,0,0,178.33,194.454Z" transform="translate(-100.403 -112.894)" fill="#46d5ff"/>
          <ellipse id="Ellipse_110" data-name="Ellipse 110" cx="3.68" cy="3.678" rx="3.68" ry="3.678" transform="translate(51.95 77.881)" fill="#46d5ff"/>
          <path id="Path_572" data-name="Path 572" d="M197.109,194.454a3.679,3.679,0,1,0,3.682-3.68A3.679,3.679,0,0,0,197.109,194.454Z" transform="translate(-171.134 -112.894)" fill="#46d5ff"/>
          <ellipse id="Ellipse_111" data-name="Ellipse 111" cx="3.68" cy="3.678" rx="3.68" ry="3.678" transform="translate(0 77.881)" fill="#46d5ff"/>
        </g>
      </g>
      <g id="Group_145" data-name="Group 145" transform="translate(205.446 258.951)">
        <g id="Group_143" data-name="Group 143" opacity="0.45">
          <path id="Path_573" data-name="Path 573" d="M607.559,97.182a3.679,3.679,0,1,0,3.679-3.677A3.681,3.681,0,0,0,607.559,97.182Z" transform="translate(-425.734 -93.505)" fill="#46d5ff"/>
          <path id="Path_574" data-name="Path 574" d="M616.948,97.182a3.678,3.678,0,1,0,3.679-3.677A3.677,3.677,0,0,0,616.948,97.182Z" transform="translate(-461.094 -93.505)" fill="#46d5ff"/>
          <path id="Path_575" data-name="Path 575" d="M626.337,97.182a3.679,3.679,0,1,0,3.679-3.677A3.681,3.681,0,0,0,626.337,97.182Z" transform="translate(-496.461 -93.505)" fill="#46d5ff"/>
          <path id="Path_576" data-name="Path 576" d="M635.727,97.182a3.68,3.68,0,1,0,3.68-3.677A3.681,3.681,0,0,0,635.727,97.182Z" transform="translate(-531.828 -93.505)" fill="#46d5ff"/>
          <path id="Path_577" data-name="Path 577" d="M645.115,97.182a3.679,3.679,0,1,0,3.679-3.677A3.679,3.679,0,0,0,645.115,97.182Z" transform="translate(-567.188 -93.505)" fill="#46d5ff"/>
          <path id="Path_578" data-name="Path 578" d="M654.5,97.182a3.679,3.679,0,1,0,3.679-3.677A3.681,3.681,0,0,0,654.5,97.182Z" transform="translate(-602.555 -93.505)" fill="#46d5ff"/>
          <path id="Path_579" data-name="Path 579" d="M663.894,97.182a3.681,3.681,0,1,0,3.68-3.677A3.681,3.681,0,0,0,663.894,97.182Z" transform="translate(-637.921 -93.505)" fill="#46d5ff"/>
          <path id="Path_580" data-name="Path 580" d="M673.283,97.182a3.679,3.679,0,1,0,3.679-3.677A3.679,3.679,0,0,0,673.283,97.182Z" transform="translate(-673.282 -93.505)" fill="#46d5ff"/>
          <ellipse id="Ellipse_112" data-name="Ellipse 112" cx="3.68" cy="3.678" rx="3.68" ry="3.678" transform="translate(181.826 25.959)" fill="#46d5ff"/>
          <path id="Path_581" data-name="Path 581" d="M616.948,106.571a3.678,3.678,0,1,0,3.679-3.677A3.677,3.677,0,0,0,616.948,106.571Z" transform="translate(-461.094 -76.935)" fill="#46d5ff"/>
          <path id="Path_582" data-name="Path 582" d="M626.337,106.571a3.679,3.679,0,1,0,3.679-3.677A3.68,3.68,0,0,0,626.337,106.571Z" transform="translate(-496.461 -76.935)" fill="#46d5ff"/>
          <path id="Path_583" data-name="Path 583" d="M635.727,106.571a3.68,3.68,0,1,0,3.68-3.677A3.68,3.68,0,0,0,635.727,106.571Z" transform="translate(-531.828 -76.935)" fill="#46d5ff"/>
          <ellipse id="Ellipse_113" data-name="Ellipse 113" cx="3.68" cy="3.678" rx="3.68" ry="3.678" transform="translate(77.926 25.959)" fill="#46d5ff"/>
          <path id="Path_584" data-name="Path 584" d="M654.5,106.571a3.679,3.679,0,1,0,3.679-3.677A3.68,3.68,0,0,0,654.5,106.571Z" transform="translate(-602.555 -76.935)" fill="#46d5ff"/>
          <ellipse id="Ellipse_114" data-name="Ellipse 114" cx="3.68" cy="3.678" rx="3.68" ry="3.678" transform="translate(25.974 25.959)" fill="#46d5ff"/>
          <ellipse id="Ellipse_115" data-name="Ellipse 115" cx="3.68" cy="3.678" rx="3.68" ry="3.678" transform="translate(0 25.959)" fill="#46d5ff"/>
          <ellipse id="Ellipse_116" data-name="Ellipse 116" cx="3.68" cy="3.678" rx="3.68" ry="3.678" transform="translate(181.826 51.917)" fill="#46d5ff"/>
          <path id="Path_585" data-name="Path 585" d="M616.948,115.96a3.678,3.678,0,1,0,3.679-3.677A3.677,3.677,0,0,0,616.948,115.96Z" transform="translate(-461.094 -60.365)" fill="#46d5ff"/>
          <path id="Path_586" data-name="Path 586" d="M626.337,115.96a3.679,3.679,0,1,0,3.679-3.677A3.68,3.68,0,0,0,626.337,115.96Z" transform="translate(-496.461 -60.365)" fill="#46d5ff"/>
          <path id="Path_587" data-name="Path 587" d="M635.727,115.96a3.68,3.68,0,1,0,3.68-3.677A3.68,3.68,0,0,0,635.727,115.96Z" transform="translate(-531.828 -60.365)" fill="#46d5ff"/>
          <ellipse id="Ellipse_117" data-name="Ellipse 117" cx="3.68" cy="3.678" rx="3.68" ry="3.678" transform="translate(77.926 51.917)" fill="#46d5ff"/>
          <path id="Path_588" data-name="Path 588" d="M654.5,115.96a3.679,3.679,0,1,0,3.679-3.677A3.68,3.68,0,0,0,654.5,115.96Z" transform="translate(-602.555 -60.365)" fill="#46d5ff"/>
          <ellipse id="Ellipse_118" data-name="Ellipse 118" cx="3.68" cy="3.678" rx="3.68" ry="3.678" transform="translate(25.974 51.917)" fill="#46d5ff"/>
          <ellipse id="Ellipse_119" data-name="Ellipse 119" cx="3.68" cy="3.678" rx="3.68" ry="3.678" transform="translate(0 51.917)" fill="#46d5ff"/>
          <ellipse id="Ellipse_120" data-name="Ellipse 120" cx="3.68" cy="3.678" rx="3.68" ry="3.678" transform="translate(181.826 77.881)" fill="#46d5ff"/>
          <path id="Path_589" data-name="Path 589" d="M616.948,125.35a3.678,3.678,0,1,0,3.679-3.677A3.675,3.675,0,0,0,616.948,125.35Z" transform="translate(-461.094 -43.793)" fill="#46d5ff"/>
          <path id="Path_590" data-name="Path 590" d="M626.337,125.35a3.679,3.679,0,1,0,3.679-3.677A3.678,3.678,0,0,0,626.337,125.35Z" transform="translate(-496.461 -43.793)" fill="#46d5ff"/>
          <path id="Path_591" data-name="Path 591" d="M635.727,125.35a3.68,3.68,0,1,0,3.68-3.677A3.678,3.678,0,0,0,635.727,125.35Z" transform="translate(-531.828 -43.793)" fill="#46d5ff"/>
          <ellipse id="Ellipse_121" data-name="Ellipse 121" cx="3.68" cy="3.678" rx="3.68" ry="3.678" transform="translate(77.926 77.881)" fill="#46d5ff"/>
          <path id="Path_592" data-name="Path 592" d="M654.5,125.35a3.679,3.679,0,1,0,3.679-3.677A3.678,3.678,0,0,0,654.5,125.35Z" transform="translate(-602.555 -43.793)" fill="#46d5ff"/>
          <ellipse id="Ellipse_122" data-name="Ellipse 122" cx="3.68" cy="3.678" rx="3.68" ry="3.678" transform="translate(25.974 77.881)" fill="#46d5ff"/>
          <ellipse id="Ellipse_123" data-name="Ellipse 123" cx="3.68" cy="3.678" rx="3.68" ry="3.678" transform="translate(0 77.881)" fill="#46d5ff"/>
        </g>
        <g id="Group_144" data-name="Group 144" transform="translate(0 103.861)" opacity="0.45">
          <ellipse id="Ellipse_124" data-name="Ellipse 124" cx="3.68" cy="3.678" rx="3.68" ry="3.678" transform="translate(181.826)" fill="#46d5ff"/>
          <path id="Path_593" data-name="Path 593" d="M616.948,134.747a3.678,3.678,0,1,0,3.679-3.677A3.677,3.677,0,0,0,616.948,134.747Z" transform="translate(-461.094 -131.069)" fill="#46d5ff"/>
          <path id="Path_594" data-name="Path 594" d="M626.337,134.747a3.679,3.679,0,1,0,3.679-3.677A3.68,3.68,0,0,0,626.337,134.747Z" transform="translate(-496.461 -131.069)" fill="#46d5ff"/>
          <path id="Path_595" data-name="Path 595" d="M635.727,134.747a3.68,3.68,0,1,0,3.68-3.677A3.68,3.68,0,0,0,635.727,134.747Z" transform="translate(-531.828 -131.069)" fill="#46d5ff"/>
          <ellipse id="Ellipse_125" data-name="Ellipse 125" cx="3.68" cy="3.678" rx="3.68" ry="3.678" transform="translate(77.926)" fill="#46d5ff"/>
          <path id="Path_596" data-name="Path 596" d="M654.5,134.747a3.679,3.679,0,1,0,3.679-3.677A3.68,3.68,0,0,0,654.5,134.747Z" transform="translate(-602.555 -131.069)" fill="#46d5ff"/>
          <ellipse id="Ellipse_126" data-name="Ellipse 126" cx="3.68" cy="3.678" rx="3.68" ry="3.678" transform="translate(25.974)" fill="#46d5ff"/>
          <ellipse id="Ellipse_127" data-name="Ellipse 127" cx="3.68" cy="3.678" rx="3.68" ry="3.678" fill="#46d5ff"/>
          <path id="Path_597" data-name="Path 597" d="M607.559,144.139a3.679,3.679,0,1,0,3.679-3.68A3.68,3.68,0,0,0,607.559,144.139Z" transform="translate(-425.734 -114.499)" fill="#46d5ff"/>
          <path id="Path_598" data-name="Path 598" d="M616.948,144.139a3.678,3.678,0,1,0,3.679-3.68A3.677,3.677,0,0,0,616.948,144.139Z" transform="translate(-461.094 -114.499)" fill="#46d5ff"/>
          <path id="Path_599" data-name="Path 599" d="M626.337,144.139a3.679,3.679,0,1,0,3.679-3.68A3.68,3.68,0,0,0,626.337,144.139Z" transform="translate(-496.461 -114.499)" fill="#46d5ff"/>
          <path id="Path_600" data-name="Path 600" d="M635.727,144.139a3.68,3.68,0,1,0,3.68-3.68A3.68,3.68,0,0,0,635.727,144.139Z" transform="translate(-531.828 -114.499)" fill="#46d5ff"/>
          <path id="Path_601" data-name="Path 601" d="M645.115,144.139a3.679,3.679,0,1,0,3.679-3.68A3.679,3.679,0,0,0,645.115,144.139Z" transform="translate(-567.188 -114.499)" fill="#46d5ff"/>
          <path id="Path_602" data-name="Path 602" d="M654.5,144.139a3.679,3.679,0,1,0,3.679-3.68A3.68,3.68,0,0,0,654.5,144.139Z" transform="translate(-602.555 -114.499)" fill="#46d5ff"/>
          <path id="Path_603" data-name="Path 603" d="M663.894,144.139a3.681,3.681,0,1,0,3.68-3.68A3.68,3.68,0,0,0,663.894,144.139Z" transform="translate(-637.921 -114.499)" fill="#46d5ff"/>
          <path id="Path_604" data-name="Path 604" d="M673.283,144.139a3.679,3.679,0,1,0,3.679-3.68A3.678,3.678,0,0,0,673.283,144.139Z" transform="translate(-673.282 -114.499)" fill="#46d5ff"/>
          <ellipse id="Ellipse_128" data-name="Ellipse 128" cx="3.68" cy="3.678" rx="3.68" ry="3.678" transform="translate(181.826 51.919)" fill="#46d5ff"/>
          <path id="Path_605" data-name="Path 605" d="M616.948,153.525a3.678,3.678,0,1,0,3.679-3.677A3.675,3.675,0,0,0,616.948,153.525Z" transform="translate(-461.094 -97.929)" fill="#46d5ff"/>
          <path id="Path_606" data-name="Path 606" d="M626.337,153.525a3.679,3.679,0,1,0,3.679-3.677A3.678,3.678,0,0,0,626.337,153.525Z" transform="translate(-496.461 -97.929)" fill="#46d5ff"/>
          <path id="Path_607" data-name="Path 607" d="M635.727,153.525a3.68,3.68,0,1,0,3.68-3.677A3.679,3.679,0,0,0,635.727,153.525Z" transform="translate(-531.828 -97.929)" fill="#46d5ff"/>
          <ellipse id="Ellipse_129" data-name="Ellipse 129" cx="3.68" cy="3.678" rx="3.68" ry="3.678" transform="translate(77.926 51.919)" fill="#46d5ff"/>
          <path id="Path_608" data-name="Path 608" d="M654.5,153.525a3.679,3.679,0,1,0,3.679-3.677A3.678,3.678,0,0,0,654.5,153.525Z" transform="translate(-602.555 -97.929)" fill="#46d5ff"/>
          <ellipse id="Ellipse_130" data-name="Ellipse 130" cx="3.68" cy="3.678" rx="3.68" ry="3.678" transform="translate(25.974 51.919)" fill="#46d5ff"/>
          <ellipse id="Ellipse_131" data-name="Ellipse 131" cx="3.68" cy="3.678" rx="3.68" ry="3.678" transform="translate(0 51.919)" fill="#46d5ff"/>
          <path id="Path_609" data-name="Path 609" d="M607.559,162.915a3.679,3.679,0,1,0,3.679-3.677A3.68,3.68,0,0,0,607.559,162.915Z" transform="translate(-425.734 -81.357)" fill="#46d5ff"/>
          <path id="Path_610" data-name="Path 610" d="M616.948,162.915a3.678,3.678,0,1,0,3.679-3.677A3.677,3.677,0,0,0,616.948,162.915Z" transform="translate(-461.094 -81.357)" fill="#46d5ff"/>
          <path id="Path_611" data-name="Path 611" d="M626.337,162.915a3.679,3.679,0,1,0,3.679-3.677A3.68,3.68,0,0,0,626.337,162.915Z" transform="translate(-496.461 -81.357)" fill="#46d5ff"/>
          <path id="Path_612" data-name="Path 612" d="M635.727,162.915a3.68,3.68,0,1,0,3.68-3.677A3.68,3.68,0,0,0,635.727,162.915Z" transform="translate(-531.828 -81.357)" fill="#46d5ff"/>
          <path id="Path_613" data-name="Path 613" d="M645.115,162.915a3.679,3.679,0,1,0,3.679-3.677A3.678,3.678,0,0,0,645.115,162.915Z" transform="translate(-567.188 -81.357)" fill="#46d5ff"/>
          <path id="Path_614" data-name="Path 614" d="M654.5,162.915a3.679,3.679,0,1,0,3.679-3.677A3.68,3.68,0,0,0,654.5,162.915Z" transform="translate(-602.555 -81.357)" fill="#46d5ff"/>
          <path id="Path_615" data-name="Path 615" d="M663.894,162.915a3.681,3.681,0,1,0,3.68-3.677A3.68,3.68,0,0,0,663.894,162.915Z" transform="translate(-637.921 -81.357)" fill="#46d5ff"/>
          <path id="Path_616" data-name="Path 616" d="M673.283,162.915a3.679,3.679,0,1,0,3.679-3.677A3.678,3.678,0,0,0,673.283,162.915Z" transform="translate(-673.282 -81.357)" fill="#46d5ff"/>
        </g>
      </g>
      <g id="Group_146" data-name="Group 146" transform="translate(1735.615 1100.831)" opacity="0.4">
        <path id="Path_617" data-name="Path 617" d="M124.249,408.219a5.109,5.109,0,1,0-5.112-5.107A5.109,5.109,0,0,0,124.249,408.219Z" transform="translate(-119.137 -398)" fill="#46d5ff"/>
        <path id="Path_618" data-name="Path 618" d="M124.249,421.265a5.109,5.109,0,1,0-5.112-5.109A5.111,5.111,0,0,0,124.249,421.265Z" transform="translate(-119.137 -374.976)" fill="#46d5ff"/>
        <path id="Path_619" data-name="Path 619" d="M124.249,434.311a5.109,5.109,0,1,0-5.112-5.109A5.111,5.111,0,0,0,124.249,434.311Z" transform="translate(-119.137 -351.952)" fill="#46d5ff"/>
        <path id="Path_620" data-name="Path 620" d="M124.249,447.354a5.108,5.108,0,1,0-5.112-5.109A5.11,5.11,0,0,0,124.249,447.354Z" transform="translate(-119.137 -328.928)" fill="#46d5ff"/>
        <path id="Path_621" data-name="Path 621" d="M111.2,408.219a5.109,5.109,0,1,0-5.112-5.107A5.111,5.111,0,0,0,111.2,408.219Z" transform="translate(-69.999 -398)" fill="#46d5ff"/>
        <path id="Path_622" data-name="Path 622" d="M111.2,421.265a5.109,5.109,0,1,0-5.112-5.109A5.113,5.113,0,0,0,111.2,421.265Z" transform="translate(-69.999 -374.976)" fill="#46d5ff"/>
        <path id="Path_623" data-name="Path 623" d="M111.2,434.311a5.109,5.109,0,1,0-5.112-5.109A5.113,5.113,0,0,0,111.2,434.311Z" transform="translate(-69.999 -351.952)" fill="#46d5ff"/>
        <path id="Path_624" data-name="Path 624" d="M111.2,447.354a5.108,5.108,0,1,0-5.112-5.109A5.111,5.111,0,0,0,111.2,447.354Z" transform="translate(-69.999 -328.928)" fill="#46d5ff"/>
        <path id="Path_625" data-name="Path 625" d="M98.155,408.219a5.109,5.109,0,1,0-5.11-5.107A5.111,5.111,0,0,0,98.155,408.219Z" transform="translate(-20.862 -398)" fill="#46d5ff"/>
        <path id="Path_626" data-name="Path 626" d="M98.155,421.265a5.109,5.109,0,1,0-5.11-5.109A5.114,5.114,0,0,0,98.155,421.265Z" transform="translate(-20.862 -374.976)" fill="#46d5ff"/>
        <path id="Path_627" data-name="Path 627" d="M98.155,434.311a5.109,5.109,0,1,0-5.11-5.109A5.114,5.114,0,0,0,98.155,434.311Z" transform="translate(-20.862 -351.952)" fill="#46d5ff"/>
        <path id="Path_628" data-name="Path 628" d="M98.155,447.354a5.108,5.108,0,1,0-5.11-5.109A5.112,5.112,0,0,0,98.155,447.354Z" transform="translate(-20.862 -328.928)" fill="#46d5ff"/>
        <path id="Path_629" data-name="Path 629" d="M85.112,408.219A5.109,5.109,0,1,0,80,403.112,5.109,5.109,0,0,0,85.112,408.219Z" transform="translate(28.272 -398)" fill="#46d5ff"/>
        <path id="Path_630" data-name="Path 630" d="M85.112,421.265A5.109,5.109,0,1,0,80,416.155,5.111,5.111,0,0,0,85.112,421.265Z" transform="translate(28.272 -374.976)" fill="#46d5ff"/>
        <path id="Path_631" data-name="Path 631" d="M85.112,434.311A5.109,5.109,0,1,0,80,429.2,5.111,5.111,0,0,0,85.112,434.311Z" transform="translate(28.272 -351.952)" fill="#46d5ff"/>
        <path id="Path_632" data-name="Path 632" d="M85.112,447.354A5.108,5.108,0,1,0,80,442.245,5.11,5.11,0,0,0,85.112,447.354Z" transform="translate(28.272 -328.928)" fill="#46d5ff"/>
      </g>
      <g id="Group_147" data-name="Group 147" transform="translate(1038 160.498)" opacity="0.4">
        <path id="Path_633" data-name="Path 633" d="M375.985,65a3.553,3.553,0,1,0-3.555-3.55A3.552,3.552,0,0,0,375.985,65Z" transform="translate(-372.43 -57.896)" fill="#46d5ff"/>
        <path id="Path_634" data-name="Path 634" d="M375.985,74.075a3.553,3.553,0,1,0-3.555-3.556A3.555,3.555,0,0,0,375.985,74.075Z" transform="translate(-372.43 -41.884)" fill="#46d5ff"/>
        <path id="Path_635" data-name="Path 635" d="M375.985,83.149a3.554,3.554,0,1,0-3.555-3.556A3.555,3.555,0,0,0,375.985,83.149Z" transform="translate(-372.43 -25.873)" fill="#46d5ff"/>
        <path id="Path_636" data-name="Path 636" d="M375.985,92.22a3.553,3.553,0,1,0-3.555-3.556A3.555,3.555,0,0,0,375.985,92.22Z" transform="translate(-372.43 -9.861)" fill="#46d5ff"/>
        <path id="Path_637" data-name="Path 637" d="M366.912,65a3.553,3.553,0,1,0-3.555-3.55A3.555,3.555,0,0,0,366.912,65Z" transform="translate(-338.259 -57.896)" fill="#46d5ff"/>
        <path id="Path_638" data-name="Path 638" d="M366.912,74.075a3.553,3.553,0,1,0-3.555-3.556A3.557,3.557,0,0,0,366.912,74.075Z" transform="translate(-338.259 -41.884)" fill="#46d5ff"/>
        <path id="Path_639" data-name="Path 639" d="M366.912,83.149a3.554,3.554,0,1,0-3.555-3.556A3.557,3.557,0,0,0,366.912,83.149Z" transform="translate(-338.259 -25.873)" fill="#46d5ff"/>
        <path id="Path_640" data-name="Path 640" d="M366.912,92.22a3.553,3.553,0,1,0-3.555-3.556A3.557,3.557,0,0,0,366.912,92.22Z" transform="translate(-338.259 -9.861)" fill="#46d5ff"/>
        <path id="Path_641" data-name="Path 641" d="M357.837,65a3.553,3.553,0,1,0-3.552-3.55A3.55,3.55,0,0,0,357.837,65Z" transform="translate(-304.084 -57.896)" fill="#46d5ff"/>
        <path id="Path_642" data-name="Path 642" d="M357.837,74.075a3.553,3.553,0,1,0-3.552-3.556A3.553,3.553,0,0,0,357.837,74.075Z" transform="translate(-304.084 -41.884)" fill="#46d5ff"/>
        <path id="Path_643" data-name="Path 643" d="M357.837,83.149a3.554,3.554,0,1,0-3.552-3.556A3.553,3.553,0,0,0,357.837,83.149Z" transform="translate(-304.084 -25.873)" fill="#46d5ff"/>
        <path id="Path_644" data-name="Path 644" d="M357.837,92.22a3.553,3.553,0,1,0-3.552-3.556A3.553,3.553,0,0,0,357.837,92.22Z" transform="translate(-304.084 -9.861)" fill="#46d5ff"/>
        <path id="Path_645" data-name="Path 645" d="M348.767,65a3.553,3.553,0,1,0-3.555-3.55A3.554,3.554,0,0,0,348.767,65Z" transform="translate(-269.914 -57.896)" fill="#46d5ff"/>
        <path id="Path_646" data-name="Path 646" d="M348.767,74.075a3.553,3.553,0,1,0-3.555-3.556A3.557,3.557,0,0,0,348.767,74.075Z" transform="translate(-269.914 -41.884)" fill="#46d5ff"/>
        <path id="Path_647" data-name="Path 647" d="M348.767,83.149a3.554,3.554,0,1,0-3.555-3.556A3.557,3.557,0,0,0,348.767,83.149Z" transform="translate(-269.914 -25.873)" fill="#46d5ff"/>
        <path id="Path_648" data-name="Path 648" d="M348.767,92.22a3.553,3.553,0,1,0-3.555-3.556A3.557,3.557,0,0,0,348.767,92.22Z" transform="translate(-269.914 -9.861)" fill="#46d5ff"/>
      </g>
    </g>
  </g>
</svg>
