<svg xmlns="http://www.w3.org/2000/svg" xmlns:xlink="http://www.w3.org/1999/xlink" width="1600" height="462" viewBox="0 0 1600 462">
  <defs>
    <linearGradient id="linear-gradient" x1="0.941" y1="-0.101" x2="0.005" y2="1.174" gradientUnits="objectBoundingBox">
      <stop offset="0" stop-color="#219cff"/>
      <stop offset="1" stop-color="#031a9b"/>
    </linearGradient>
    <clipPath id="clip-path">
      <rect id="Rectangle_76" data-name="Rectangle 76" width="1600" height="462" transform="translate(-340 543.72)" fill="url(#linear-gradient)"/>
    </clipPath>
    <clipPath id="clip-path-2">
      <rect id="Rectangle_96" data-name="Rectangle 96" width="2076" height="1384" transform="translate(-0.367 0.138)" fill="none"/>
    </clipPath>
    <linearGradient id="linear-gradient-3" x1="1.321" y1="-0.864" x2="-0.731" y2="2.546" gradientUnits="objectBoundingBox">
      <stop offset="0" stop-color="#3bb7ff"/>
      <stop offset="1" stop-color="#004fd4"/>
    </linearGradient>
    <filter id="Rectangle_78" x="1303.294" y="18.455" width="167.583" height="167.583" filterUnits="userSpaceOnUse">
      <feOffset dx="5" dy="5" input="SourceAlpha"/>
      <feGaussianBlur stdDeviation="2.5" result="blur"/>
      <feFlood flood-color="#1c3391" flood-opacity="0.149"/>
      <feComposite operator="in" in2="blur"/>
      <feComposite in="SourceGraphic"/>
    </filter>
    <filter id="Rectangle_79" x="363.662" y="195.401" width="128.48" height="128.48" filterUnits="userSpaceOnUse">
      <feOffset dx="5" dy="5" input="SourceAlpha"/>
      <feGaussianBlur stdDeviation="2.5" result="blur-2"/>
      <feFlood flood-color="#1c3391" flood-opacity="0.149"/>
      <feComposite operator="in" in2="blur-2"/>
      <feComposite in="SourceGraphic"/>
    </filter>
    <filter id="Rectangle_80" x="335.399" y="167.135" width="185.011" height="185.011" filterUnits="userSpaceOnUse">
      <feOffset dx="5" dy="5" input="SourceAlpha"/>
      <feGaussianBlur stdDeviation="2.5" result="blur-3"/>
      <feFlood flood-color="#1c3391" flood-opacity="0.149"/>
      <feComposite operator="in" in2="blur-3"/>
      <feComposite in="SourceGraphic"/>
    </filter>
    <linearGradient id="linear-gradient-5" x1="17.835" y1="3.285" x2="15.784" y2="6.695" xlink:href="#linear-gradient-3"/>
    <filter id="Rectangle_81" x="-283.433" y="-978.087" width="251.402" height="251.402" filterUnits="userSpaceOnUse">
      <feOffset dx="5" dy="5" input="SourceAlpha"/>
      <feGaussianBlur stdDeviation="2.5" result="blur-4"/>
      <feFlood flood-color="#1c3391" flood-opacity="0.149"/>
      <feComposite operator="in" in2="blur-4"/>
      <feComposite in="SourceGraphic"/>
    </filter>
    <filter id="Rectangle_82" x="-341.565" y="-1036.211" width="367.65" height="367.65" filterUnits="userSpaceOnUse">
      <feOffset dx="5" dy="5" input="SourceAlpha"/>
      <feGaussianBlur stdDeviation="2.5" result="blur-5"/>
      <feFlood flood-color="#1c3391" flood-opacity="0.149"/>
      <feComposite operator="in" in2="blur-5"/>
      <feComposite in="SourceGraphic"/>
    </filter>
    <linearGradient id="linear-gradient-6" x1="0.364" y1="-1.375" x2="-1.687" y2="2.035" xlink:href="#linear-gradient-3"/>
    <filter id="Rectangle_83" x="1146.577" y="-648.323" width="438.467" height="438.467" filterUnits="userSpaceOnUse">
      <feOffset dx="5" dy="5" input="SourceAlpha"/>
      <feGaussianBlur stdDeviation="2.5" result="blur-6"/>
      <feFlood flood-color="#1c3391" flood-opacity="0.149"/>
      <feComposite operator="in" in2="blur-6"/>
      <feComposite in="SourceGraphic"/>
    </filter>
    <filter id="Rectangle_84" x="1043.002" y="-751.882" width="645.585" height="645.585" filterUnits="userSpaceOnUse">
      <feOffset dx="5" dy="5" input="SourceAlpha"/>
      <feGaussianBlur stdDeviation="2.5" result="blur-7"/>
      <feFlood flood-color="#1c3391" flood-opacity="0.149"/>
      <feComposite operator="in" in2="blur-7"/>
      <feComposite in="SourceGraphic"/>
    </filter>
    <linearGradient id="linear-gradient-7" x1="28.937" y1="-6.918" x2="26.886" y2="-3.507" xlink:href="#linear-gradient-3"/>
    <filter id="Rectangle_85" x="3.874" y="-319.576" width="133.007" height="133.007" filterUnits="userSpaceOnUse">
      <feOffset dx="5" dy="5" input="SourceAlpha"/>
      <feGaussianBlur stdDeviation="2.5" result="blur-8"/>
      <feFlood flood-color="#1c3391" flood-opacity="0.149"/>
      <feComposite operator="in" in2="blur-8"/>
      <feComposite in="SourceGraphic"/>
    </filter>
    <filter id="Rectangle_86" x="-25.499" y="-348.945" width="191.743" height="191.743" filterUnits="userSpaceOnUse">
      <feOffset dx="5" dy="5" input="SourceAlpha"/>
      <feGaussianBlur stdDeviation="2.5" result="blur-9"/>
      <feFlood flood-color="#1c3391" flood-opacity="0.149"/>
      <feComposite operator="in" in2="blur-9"/>
      <feComposite in="SourceGraphic"/>
    </filter>
    <linearGradient id="linear-gradient-8" x1="9.551" y1="0.912" x2="7.499" y2="4.322" xlink:href="#linear-gradient-3"/>
    <filter id="Rectangle_87" x="871.658" y="-626.725" width="115.719" height="115.719" filterUnits="userSpaceOnUse">
      <feOffset dx="5" dy="5" input="SourceAlpha"/>
      <feGaussianBlur stdDeviation="2.5" result="blur-10"/>
      <feFlood flood-color="#1c3391" flood-opacity="0.149"/>
      <feComposite operator="in" in2="blur-10"/>
      <feComposite in="SourceGraphic"/>
    </filter>
    <filter id="Rectangle_88" x="846.484" y="-651.895" width="166.06" height="166.06" filterUnits="userSpaceOnUse">
      <feOffset dx="5" dy="5" input="SourceAlpha"/>
      <feGaussianBlur stdDeviation="2.5" result="blur-11"/>
      <feFlood flood-color="#1c3391" flood-opacity="0.149"/>
      <feComposite operator="in" in2="blur-11"/>
      <feComposite in="SourceGraphic"/>
    </filter>
    <linearGradient id="linear-gradient-9" x1="22.009" y1="-4.634" x2="19.957" y2="-1.224" xlink:href="#linear-gradient-3"/>
    <filter id="Rectangle_89" x="-165.24" y="-365.992" width="191.639" height="191.639" filterUnits="userSpaceOnUse">
      <feOffset dx="5" dy="5" input="SourceAlpha"/>
      <feGaussianBlur stdDeviation="2.5" result="blur-12"/>
      <feFlood flood-color="#1c3391" flood-opacity="0.149"/>
      <feComposite operator="in" in2="blur-12"/>
      <feComposite in="SourceGraphic"/>
    </filter>
    <filter id="Path_432" x="-208.852" y="-409.61" width="278.852" height="278.861" filterUnits="userSpaceOnUse">
      <feOffset dx="5" dy="5" input="SourceAlpha"/>
      <feGaussianBlur stdDeviation="2.5" result="blur-13"/>
      <feFlood flood-color="#1c3391" flood-opacity="0.149"/>
      <feComposite operator="in" in2="blur-13"/>
      <feComposite in="SourceGraphic"/>
    </filter>
    <linearGradient id="linear-gradient-10" x1="6.013" y1="-2.149" x2="3.962" y2="1.261" xlink:href="#linear-gradient-3"/>
    <filter id="Rectangle_90" x="833.705" y="-521.227" width="191.64" height="191.64" filterUnits="userSpaceOnUse">
      <feOffset dx="5" dy="5" input="SourceAlpha"/>
      <feGaussianBlur stdDeviation="2.5" result="blur-14"/>
      <feFlood flood-color="#1c3391" flood-opacity="0.149"/>
      <feComposite operator="in" in2="blur-14"/>
      <feComposite in="SourceGraphic"/>
    </filter>
    <filter id="Path_433" x="790.093" y="-564.843" width="278.851" height="278.86" filterUnits="userSpaceOnUse">
      <feOffset dx="5" dy="5" input="SourceAlpha"/>
      <feGaussianBlur stdDeviation="2.5" result="blur-15"/>
      <feFlood flood-color="#1c3391" flood-opacity="0.149"/>
      <feComposite operator="in" in2="blur-15"/>
      <feComposite in="SourceGraphic"/>
    </filter>
    <linearGradient id="linear-gradient-11" x1="75.116" y1="-48.305" x2="73.064" y2="-44.895" xlink:href="#linear-gradient-3"/>
    <filter id="Rectangle_91" x="-191.68" y="347.78" width="67.905" height="67.905" filterUnits="userSpaceOnUse">
      <feOffset dx="5" dy="5" input="SourceAlpha"/>
      <feGaussianBlur stdDeviation="2.5" result="blur-16"/>
      <feFlood flood-color="#1c3391" flood-opacity="0.149"/>
      <feComposite operator="in" in2="blur-16"/>
      <feComposite in="SourceGraphic"/>
    </filter>
    <filter id="Rectangle_92" x="-205.237" y="334.224" width="95.016" height="95.016" filterUnits="userSpaceOnUse">
      <feOffset dx="5" dy="5" input="SourceAlpha"/>
      <feGaussianBlur stdDeviation="2.5" result="blur-17"/>
      <feFlood flood-color="#1c3391" flood-opacity="0.149"/>
      <feComposite operator="in" in2="blur-17"/>
      <feComposite in="SourceGraphic"/>
    </filter>
    <linearGradient id="linear-gradient-12" x1="-4.088" y1="4.531" x2="-5.539" y2="6.943" xlink:href="#linear-gradient-3"/>
    <filter id="Path_434" x="1437.933" y="-833.687" width="121.918" height="121.924" filterUnits="userSpaceOnUse">
      <feOffset dx="5" dy="5" input="SourceAlpha"/>
      <feGaussianBlur stdDeviation="2.5" result="blur-18"/>
      <feFlood flood-color="#1c3391" flood-opacity="0.149"/>
      <feComposite operator="in" in2="blur-18"/>
      <feComposite in="SourceGraphic"/>
    </filter>
    <filter id="Rectangle_93" x="1411.249" y="-860.354" width="175.267" height="175.267" filterUnits="userSpaceOnUse">
      <feOffset dx="5" dy="5" input="SourceAlpha"/>
      <feGaussianBlur stdDeviation="2.5" result="blur-19"/>
      <feFlood flood-color="#1c3391" flood-opacity="0.149"/>
      <feComposite operator="in" in2="blur-19"/>
      <feComposite in="SourceGraphic"/>
    </filter>
    <linearGradient id="linear-gradient-13" x1="-9.607" y1="-41.245" x2="-11.658" y2="-37.835" xlink:href="#linear-gradient-3"/>
    <filter id="Rectangle_94" x="1358.296" y="73.459" width="57.578" height="57.578" filterUnits="userSpaceOnUse">
      <feOffset dx="5" dy="5" input="SourceAlpha"/>
      <feGaussianBlur stdDeviation="2.5" result="blur-20"/>
      <feFlood flood-color="#1c3391" flood-opacity="0.149"/>
      <feComposite operator="in" in2="blur-20"/>
      <feComposite in="SourceGraphic"/>
    </filter>
    <filter id="Rectangle_95" x="1347.247" y="62.411" width="79.674" height="79.674" filterUnits="userSpaceOnUse">
      <feOffset dx="5" dy="5" input="SourceAlpha"/>
      <feGaussianBlur stdDeviation="2.5" result="blur-21"/>
      <feFlood flood-color="#1c3391" flood-opacity="0.149"/>
      <feComposite operator="in" in2="blur-21"/>
      <feComposite in="SourceGraphic"/>
    </filter>
  </defs>
  <g id="Mask_Group_1" data-name="Mask Group 1" transform="translate(340 -543.72)" clip-path="url(#clip-path)">
    <g id="Group_148" data-name="Group 148" transform="translate(-603.456 -344.014)" opacity="0.5">
      <rect id="Rectangle_77" data-name="Rectangle 77" width="2076" height="1384" transform="translate(-0.544 -0.265)" fill="url(#linear-gradient)"/>
      <g id="Group_138" data-name="Group 138" transform="translate(-0.177 -0.403)">
        <g id="Group_137" data-name="Group 137" transform="translate(0 0)" clip-path="url(#clip-path-2)">
          <g id="Group_125" data-name="Group 125" transform="translate(-43.064 -27.55)">
            <g id="Group_123" data-name="Group 123">
              <g id="Group_113" data-name="Group 113" transform="translate(1265.061)" opacity="0.2" style="mix-blend-mode: overlay;isolation: isolate">
                <path id="Path_412" data-name="Path 412" d="M1338.477,608.807l-2.573-.636c-23.8-5.9-50.391-8.764-81.293-8.764-29.037,0-58.132,2.385-88.934,4.911q-7.913.651-15.869,1.289c-12.969,1.032-24.724,1.533-35.931,1.533-80.709,0-132.144-27.435-166.775-88.953-9.813-17.429-17.91-36.838-26.484-57.388-21.6-51.769-43.932-105.306-95.471-126.97-18.972-7.976-40.075-11.852-64.514-11.852-37.862,0-77.586,9.365-116,18.422-25.582,6.031-49.741,11.727-72.814,14.646a253.417,253.417,0,0,1-31.621,2.1c-37.951,0-66.534-10.2-82.657-29.493C442.893,310.11,438.333,285.3,444,253.906,466.037,131.819,574.643,33.014,620.315-3.8c1.726-1.389,3.483-2.733,5.243-4.078l2.955-2.269h611.6l.457.243c33.035,17.689,65.657,36.921,96.957,57.167l.949.614Zm-83.866-13.55c30.133,0,56.248,2.706,79.716,8.261V50.138c-30.772-19.866-62.81-38.747-95.255-56.135H629.926L628.075-4.58c-1.729,1.322-3.461,2.642-5.157,4.011-45.309,36.523-153.044,134.5-174.833,255.211-5.439,30.13-1.184,53.8,12.646,70.346,15.31,18.32,42.792,28.005,79.473,28.005a248.9,248.9,0,0,0,31.1-2.067c22.848-2.891,46.909-8.565,72.377-14.568,38.645-9.113,78.6-18.533,116.95-18.533,25,0,46.632,3.981,66.124,12.175,53.108,22.325,75.771,76.656,97.693,129.2,8.523,20.433,16.574,39.732,26.265,56.948,33.812,60.057,84.129,86.84,163.162,86.84,11.1,0,22.74-.5,35.6-1.519q7.951-.635,15.857-1.289C1196.227,597.65,1225.405,595.257,1254.611,595.257Z" transform="translate(-441.642 10.146)" fill="#46d5ff"/>
              </g>
              <g id="Group_114" data-name="Group 114" transform="translate(0 947.721)" opacity="0.2" style="mix-blend-mode: overlay;isolation: isolate">
                <path id="Path_413" data-name="Path 413" d="M841.048,828.736H-15.64V416.268l1.823-.221a236.285,236.285,0,0,1,28.65-1.729c53.838,0,103.978,17.459,157.061,35.939,36.529,12.715,74.3,25.864,114.283,33.333,30.719,5.74,57.944,8.526,83.229,8.526,41.815,0,77.849-7.575,110.158-23.155,30.523-14.715,58.281-35.148,85.125-54.906,28.849-21.238,58.683-43.2,92.259-58.373,34.149-15.431,66.761-23.255,96.935-23.255,49.678,0,93.081,21.412,125.515,61.93,51.628,64.489,70.678,169.964,48.53,268.708-14.455,64.445-43.481,119.969-86.267,165.026Zm-852.538-4.15H839.263c41.932-44.391,70.4-99.035,84.616-162.428,21.548-96.06,2.371-202.642-47.719-265.209-31.618-39.5-73.9-60.373-122.276-60.373-29.579,0-61.618,7.7-95.225,22.887-33.178,14.994-62.832,36.822-91.51,57.933-27,19.869-54.912,40.418-85.783,55.3-32.885,15.855-69.5,23.562-111.959,23.565-25.543,0-53.017-2.811-83.993-8.6-40.291-7.528-78.211-20.729-114.884-33.5-52.743-18.361-102.559-35.707-155.7-35.707a232.774,232.774,0,0,0-26.323,1.486Z" transform="translate(15.64 -332.427)" fill="#46d5ff"/>
              </g>
              <g id="Group_115" data-name="Group 115" opacity="0.2" style="mix-blend-mode: overlay;isolation: isolate">
                <path id="Path_414" data-name="Path 414" d="M-15.64,707.659v-717.8H2132.341l-.553,2.52a289.765,289.765,0,0,1-35.27,87.753c-33.607,54.444-79.431,100.005-132.525,131.765-54.843,32.808-116.508,50.148-178.325,50.148h-.017c-6.983,0-14.054-.219-21.025-.653-60.284-3.751-119.249-19.091-176.274-33.928-68.042-17.7-138.393-36.02-211.647-34.822-119.681,1.937-196.06,83.672-269.923,162.719-23.748,25.41-48.3,51.689-73.92,74.908C934.978,518.985,848.8,562.111,769.412,562.111c-35.475,0-69.989-8.789-102.578-26.124-22.9-12.181-45.171-26.489-66.716-40.33-48.159-30.94-97.961-62.929-156.848-72.183a219.8,219.8,0,0,0-34.014-2.653c-64.387,0-132.141,28.824-201.378,85.672q-2.569,2.108-5.1,4.235c-24.849,20.89-46.654,48.015-69.743,76.731-41.395,51.5-84.2,104.742-146.117,119.587ZM-11.49-6V702.372c59.175-15.365,100.913-67.281,141.3-117.509,22.2-27.609,45.143-56.157,70.3-77.312q2.544-2.137,5.135-4.266c70-57.474,138.639-86.613,204.011-86.613a223.925,223.925,0,0,1,34.656,2.706c59.753,9.387,109.926,41.619,158.45,72.789,21.473,13.794,43.677,28.058,66.42,40.155,31.983,17.014,65.842,25.64,100.631,25.64,78.314,0,163.579-42.775,260.661-130.771,25.493-23.106,49.988-49.318,73.677-74.667,74.454-79.68,151.443-162.069,272.891-164.036,73.729-1.17,144.449,17.185,212.756,34.954,56.835,14.787,115.6,30.077,175.489,33.8,6.883.429,13.869.645,20.765.645,122.887.008,237.779-67.259,307.334-179.943A285.449,285.449,0,0,0,2127.167-6Z" transform="translate(15.64 10.146)" fill="#46d5ff"/>
              </g>
              <g id="Group_116" data-name="Group 116" transform="translate(418.577 135.748)" opacity="0.15" style="mix-blend-mode: overlay;isolation: isolate">
                <path id="Path_415" data-name="Path 415" d="M1878.982,1347.2H135.718l-.033-2.042c-.885-54.8,25.145-104.5,71.419-136.365,41.359-28.484,86.937-42.33,139.334-42.33,31.92,0,66.359,5.146,105.292,15.736,22.846,6.213,45.132,14.137,66.68,21.8,45.94,16.336,89.332,31.765,137.309,31.762a213.773,213.773,0,0,0,37.621-3.325c50.143-8.985,81.069-39.829,113.816-72.482,6.374-6.357,12.966-12.933,19.772-19.423,41.185-39.276,87.315-57.57,145.182-57.57,41.688,0,84.776,9.19,130.4,18.917l7.046,1.5a299.7,299.7,0,0,0,62.108,6.858c49.7,0,89.894-14.087,119.468-41.865,46.217-43.4,63.042-128.365,75.331-190.4l.941-4.764c6.164-31.1,13.83-69.8,29.145-97.15,28.227-50.405,88.649-64.5,141.962-76.933,7.262-1.693,14.386-3.356,21.271-5.074,64.672-16.14,112.607-36.136,151.678-85.9,29.978-38.177,40.684-79.6,34.711-134.3-2.592-23.747-7.846-47.974-13.409-73.619l-2.1-9.694c-3.644-16.92-7.8-32.794-11.819-48.145-17.772-67.912-31.812-121.551,17.47-187.769,45.268-60.821,87.1-95.117,139.871-114.671l2.8-1.035Zm-1739.167-4.15H1874.832V44.9c-50.654,19.426-91.241,53.152-135.189,112.2-48.093,64.617-34.277,117.407-16.781,184.239,4.031,15.4,8.2,31.317,11.86,48.325l2.1,9.685c5.583,25.756,10.861,50.084,13.476,74.048,4.105,37.613,3.771,87.208-35.574,137.314-39.8,50.693-88.411,71.01-153.932,87.363-6.908,1.721-14.053,3.389-21.335,5.088-52.477,12.239-111.954,26.11-139.287,74.916-14.991,26.774-22.588,65.12-28.691,95.933l-.943,4.764c-12.4,62.589-29.372,148.305-76.56,192.622-30.37,28.522-71.519,42.985-122.309,42.988a303.833,303.833,0,0,1-62.971-6.949l-7.049-1.5c-45.4-9.683-88.281-18.826-129.532-18.826-56.732,0-101.956,17.93-142.319,56.425-6.77,6.457-13.346,13.013-19.706,19.357-33.22,33.126-64.594,64.412-116.015,73.627a217.841,217.841,0,0,1-38.352,3.392c-48.693,0-92.411-15.542-138.7-32-21.479-7.635-43.686-15.534-66.379-21.706-38.573-10.491-72.659-15.589-104.2-15.589-51.529,0-96.337,13.605-136.982,41.6C164.924,1242.884,139.622,1290.478,139.815,1343.055Z" transform="translate(-135.663 -38.923)" fill="#46d5ff"/>
              </g>
              <g id="Group_117" data-name="Group 117" opacity="0.15" style="mix-blend-mode: overlay;isolation: isolate">
                <path id="Path_416" data-name="Path 416" d="M-7.742,510.948c-1.934,0-3.9-.019-5.868-.064l-2.031-.044V-10.146H1444.135l-3.007,3.439c-47.838,54.746-107.284,79.163-192.738,79.163h-.017c-40.991,0-82.765-5.348-127-11.008q-11.271-1.44-22.594-2.863c-20.146-2.5-46.723-5.378-73.663-5.378-40.64,0-73.683,6.523-101.021,19.944-28.865,14.173-47.918,37.226-68.086,61.634-9.019,10.917-18.347,22.2-28.586,32.548C780.215,215.018,723.256,238.2,653.3,238.2c-56.049,0-114.9-15.227-159.905-28.5-24.121-7.11-47.2-10.717-68.584-10.717-65.427,0-118.591,31.693-172.382,102.761-8.844,11.686-17.73,24.428-27.167,38.96C160.518,440.386,105.908,510.948-7.742,510.948Zm-3.749-4.175q1.888.025,3.749.025c111.558,0,165.5-69.776,229.524-168.357,9.492-14.613,18.433-27.438,27.338-39.2,54.652-72.205,108.839-104.407,175.691-104.407,21.783,0,45.254,3.666,69.757,10.889,44.739,13.188,103.215,28.326,158.732,28.326,68.791,0,124.785-22.776,171.179-69.638,10.106-10.208,19.374-21.424,28.337-32.268,19.562-23.673,39.788-48.151,69.455-62.716,27.919-13.705,61.563-20.37,102.85-20.37,27.167,0,53.913,2.891,74.178,5.411q11.32,1.407,22.608,2.866C1166,62.975,1207.648,68.3,1248.373,68.306c82.344,0,140.111-22.953,186.574-74.3H-11.49Z" transform="translate(15.64 10.146)" fill="#46d5ff"/>
              </g>
              <g id="Group_118" data-name="Group 118" transform="translate(324.65)" opacity="0.07" style="mix-blend-mode: overlay;isolation: isolate">
                <path id="Path_417" data-name="Path 417" d="M1938.958,678.666l-2.714-.88c-65.2-21.1-123.366-75.542-179.622-128.188-39.691-37.148-77.179-72.233-116.588-96.058-24.052-14.541-48.953-21.609-76.133-21.609-37.522,0-74.731,13.144-119.056,32.877-14.447,6.432-29.136,13.18-43.345,19.7-78.256,35.937-159.175,73.1-247.29,80.424-8.808.73-17.636,1.1-26.234,1.1-84.447,0-157.189-34.562-216.2-102.728-15.155-17.506-29.267-36.866-42.911-55.584-33.223-45.572-67.574-92.7-120.173-117.733-34.6-16.469-74.991-24.138-127.12-24.138-30.868,0-62.119,2.639-92.34,5.19-11.727.99-23.853,2.017-35.494,2.836-32.49,2.291-67,4.529-100.285,4.529-85.194,0-191.487-13.3-257.805-116.986C101.426,107.916,93.035,50.689,110.707-8.663l.443-1.483H1938.958ZM1563.9,427.782c27.958,0,53.562,7.265,78.277,22.207,39.782,24.052,77.426,59.28,117.279,96.578,55.133,51.6,112.123,104.93,175.35,126.373V-6H114.248c-16.737,57.617-8.363,113.182,24.9,165.184C204,260.587,304.093,274.259,393.453,274.259c33.154,0,67.577-2.233,99.994-4.518,11.611-.819,23.183-1.8,35.436-2.83,30.307-2.559,61.646-5.206,92.688-5.206,52.771,0,93.728,7.8,128.9,24.539,53.551,25.49,88.218,73.046,121.744,119.039,13.6,18.649,27.656,37.934,42.7,55.31,58.187,67.214,129.87,101.295,213.06,101.295,8.485,0,17.2-.365,25.889-1.09,87.39-7.265,167.975-44.272,245.9-80.056,14.22-6.529,28.921-13.279,43.389-19.722C1487.969,441.07,1525.648,427.782,1563.9,427.782Z" transform="translate(-101.711 10.146)" fill="#46d5ff"/>
              </g>
              <g id="Group_119" data-name="Group 119" transform="translate(0 760.579)" opacity="0.1" style="mix-blend-mode: overlay;isolation: isolate">
                <path id="Path_418" data-name="Path 418" d="M997.1,948.232H-15.64v-682.1l1.826-.219A160,160,0,0,1,9.4,264.832c115.714,3.01,209.14,117.8,277.608,217.47,6.747,9.827,13.42,20.029,19.625,29.593l3.978,6.142c38.349,59.2,78,120.419,150.9,142.451,34.744,10.5,72.869,15.393,119.979,15.393,32.019,0,64.877-2.26,96.65-4.448,31.665-2.18,64.409-4.429,96.207-4.429,14.2,0,27.186.432,39.691,1.322,128.168,9.14,162.005,88.278,173.375,204.285,2.177,22.212,4.98,48.275,9.265,73.2ZM-11.49,944.083H992.18c-4.075-24.306-6.778-49.5-8.892-71.065-6.482-66.152-19.435-109.406-41.99-140.261-26.569-36.343-68.291-56.065-127.551-60.29-12.4-.885-25.291-1.314-39.395-1.314-31.657,0-64.329,2.246-95.922,4.421-31.845,2.188-64.772,4.457-96.935,4.457-47.528,0-86.035-4.947-121.177-15.57-74.36-22.472-114.433-84.336-153.185-144.167l-3.978-6.139c-6.191-9.539-12.845-19.717-19.565-29.5-67.909-98.86-160.456-212.712-274.3-215.672a154.053,154.053,0,0,0-20.785.841Z" transform="translate(15.64 -264.78)" fill="#46d5ff"/>
              </g>
              <g id="Group_120" data-name="Group 120" transform="translate(858.835 677.757)" opacity="0.05" style="mix-blend-mode: overlay;isolation: isolate">
                <path id="Path_419" data-name="Path 419" d="M1527.289,1001.116H394.526l-.6-.559c-41.284-38.634-70.15-76.584-85.794-112.792-20.193-46.726-17.434-89.131,8.194-126.035,53.346-76.811,172.188-89,269.765-91.034,5.372-.111,11.06-.163,17.9-.163q5.366,0,10.739.033l5.915.033c5.525.036,11.041.072,16.555.069,52.566,0,103.287-2.952,145.973-38.637,44.972-37.591,74.554-90.19,103.165-141.06,17.8-31.643,36.2-64.362,58.08-93.015,31.3-40.985,65.958-60.907,105.956-60.907,30.1,0,63.707,10.6,108.972,34.351,49.321,25.889,97.626,49.122,146.333,49.119,34.725,0,67.17-11.89,99.192-36.34,18.569-14.178,37.2-32.833,56.915-52.585,40.728-40.8,82.845-82.983,133.485-96.083l2.592-.669V946.268l-.631.611c-8.509,8.225-16.532,15.468-24.528,22.137a386.276,386.276,0,0,1-44.92,31.792Zm-1131.122-4.15H1526.11a380.465,380.465,0,0,0,43.94-31.14c7.716-6.438,15.462-13.417,23.664-21.321V240.232c-48.405,13.578-89.363,54.6-128.993,94.3-19.822,19.852-38.54,38.6-57.33,52.95-32.772,25.023-66.041,37.19-101.712,37.193-49.65,0-98.465-23.46-148.264-49.595-44.637-23.427-77.65-33.876-107.041-33.876-39.154,0-71.773,18.837-102.661,59.275C926.011,428.9,907.683,461.49,889.958,493c-28.8,51.2-58.566,104.136-104.119,142.211-43.757,36.576-95.278,39.6-148.637,39.6-5.522,0-11.049-.033-16.58-.069l-5.912-.033q-5.362-.029-10.717-.033c-6.811,0-12.469.053-17.813.163-96.592,2.014-214.167,13.979-266.44,89.25-24.757,35.646-27.383,76.7-7.8,122.027C327.284,921.63,355.621,958.919,396.166,996.967Z" transform="translate(-294.803 -234.843)" fill="#46d5ff"/>
              </g>
              <g id="Group_121" data-name="Group 121" transform="translate(1387.152 993.313)" opacity="0.1" style="mix-blend-mode: overlay;isolation: isolate">
                <path id="Path_420" data-name="Path 420" d="M1260.518,799.625H610.9l-.606-.589c-43.663-42.579-77.73-91.363-101.245-144.991-29.579-67.452-31.1-153.169-3.793-213.3,19.269-42.424,52.043-71.956,94.771-85.407a140.22,140.22,0,0,1,42.7-6.429c44.153,0,88.677,19.114,131.74,37.6,43.544,18.693,88.577,38.02,133.671,38.02h.014c4.36,0,8.72-.18,12.955-.537,34.595-2.921,64.7-19.9,93.822-36.31,29.482-16.624,57.327-32.323,87.518-32.323,24.757,0,48.466,10.833,72.487,33.115,18.494,17.155,34.227,39.3,49.437,60.7,11.259,15.849,22.9,32.238,35.627,46.568l.523.589Zm-647.929-4.15h643.779V497.907c-12.665-14.358-24.212-30.608-35.383-46.33-15.088-21.238-30.694-43.2-48.875-60.066-23.217-21.537-46.007-32.008-69.666-32.008-29.1,0-56.486,15.44-85.479,31.79-29.507,16.632-60.016,33.834-95.51,36.827-4.355.368-8.831.553-13.307.553h-.014c-45.946,0-91.374-19.5-135.309-38.354-42.676-18.32-86.8-37.262-130.1-37.262a136.057,136.057,0,0,0-41.447,6.241c-41.578,13.083-73.472,41.837-92.24,83.163-26.852,59.12-25.322,143.481,3.812,209.918C536.043,705.268,569.6,753.408,612.589,795.475Z" transform="translate(-485.774 -348.907)" fill="#46d5ff"/>
              </g>
              <g id="Group_122" data-name="Group 122" transform="translate(0 130.967)" opacity="0.05" style="mix-blend-mode: overlay;isolation: isolate">
                <path id="Path_421" data-name="Path 421" d="M2102.407,1350.258H1693.865l-.592-.534c-11.343-10.258-22.563-20.666-33.419-30.73-21.8-20.215-42.393-39.309-62.345-55.816-41.306-34.183-88.262-50.8-143.553-50.8-90.279,0-184.823,43.929-276.258,86.411-42.313,19.659-82.281,38.23-119.7,51.288l-.88.183h-297.3l-.509-.321c-3.01-1.9-5.453-3.511-7.685-5.052-64.216-44.433-100.542-114.059-135.674-181.4-11.387-21.822-23.161-44.388-35.6-65.455-34.753-58.84-66.78-83.946-107.1-83.946-17.62,0-36.4,4.941-57.4,15.1-38.188,18.466-73.2,44.253-107.057,69.184-44.795,32.99-91.114,67.1-145.633,85.008-21.886,7.185-42.333,10.831-60.771,10.831-50.422,0-87.841-25.69-117.766-80.85l-.252-.462V156.314l.29-.49C14.412,105.588,49.132,55.363,116.8,41.326c36.861-7.647,75.912-4.664,115.8,8.839,64.888,21.971,131.986,70.814,199.43,145.168,89.521,98.7,187.34,148.186,306.675,192.132,42.333,15.589,87.451,22.848,141.981,22.848,46.457,0,94.381-5.436,140.728-10.69,36.147-4.1,73.522-8.338,110.468-10.073q7.681-.361,15.761-.769c25.2-1.251,53.758-2.67,82.853-2.67,79.55,0,191.081,9.605,241.016,92.636,26.365,43.838,30.313,94.771,34.13,144.031,3.358,43.3,6.83,88.079,25.618,127.521,30.4,63.823,99.77,79.179,168.216,89.443,13.694,2.05,27.062,3.893,39.989,5.674,68.216,9.4,127.125,17.509,194.78,50.107,88.439,42.615,161.6,129.659,190.923,227.161,24.411,81.166,16.543,161.626-22.154,226.561Zm-406.944-4.15h404.581c37.577-63.748,45.091-142.612,21.147-222.226-29-96.423-101.328-182.494-188.751-224.619-67.065-32.315-125.679-40.388-193.546-49.736-12.939-1.782-26.318-3.624-40.037-5.682-69.549-10.427-140.07-26.1-171.347-91.764-19.119-40.133-22.624-85.3-26.008-128.984-3.785-48.776-7.693-99.211-33.549-142.208-48.85-81.232-158.92-90.627-237.461-90.627-28.993,0-57.5,1.417-82.648,2.664q-8.08.4-15.769.769c-36.811,1.729-74.117,5.959-110.2,10.051-46.46,5.27-94.5,10.715-141.193,10.717-55.039,0-100.611-7.339-143.42-23.106C617.358,347.2,519.04,297.444,428.953,198.121,361.987,124.3,295.476,75.837,231.263,54.1c-39.182-13.268-77.484-16.2-113.619-8.709C51.848,59.039,17.735,108.175-11.49,157.451v954.394c29.078,53.357,65.272,78.217,113.868,78.217,18,0,38.011-3.574,59.477-10.626,53.888-17.694,99.936-51.609,144.466-84.405,34.011-25.042,69.179-50.945,107.713-69.577,21.587-10.441,40.952-15.514,59.211-15.514,53.083,0,87.031,45.951,110.673,85.985,12.5,21.161,24.3,43.777,35.71,65.649,34.9,66.888,70.982,136.053,134.357,179.9,2.058,1.425,4.3,2.907,7.035,4.639h295.745c37.306-13.044,77.082-31.521,119.185-51.086,91.842-42.667,186.812-86.8,278.006-86.8,56.3,0,104.119,16.928,146.2,51.75,20.038,16.588,40.673,35.718,62.517,55.974C1673.329,1325.83,1684.343,1336.044,1695.464,1346.108Z" transform="translate(15.64 -37.195)" fill="#46d5ff"/>
              </g>
            </g>
            <g id="Group_124" data-name="Group 124" transform="translate(2.075 2.075)">
              <path id="Path_422" data-name="Path 422" d="M627.9-9.4c-2.537,1.959-5.1,3.873-7.605,5.887-77.14,62.179-157.413,155.85-175.575,256.458-15.827,87.689,51.559,108.073,125.524,98.711,78.966-9.992,176.169-53.952,254.389-21.072,72.639,30.536,88.087,123.319,122.956,185.255,44.693,79.392,115.119,93.183,200.733,86.37,64.777-5.157,127.576-12.045,186.76,2.62V47.682c-31.651-20.472-64.2-39.616-96.81-57.078Z" transform="translate(822.667 9.396)" fill="#65dcff" opacity="0.2" style="mix-blend-mode: overlay;isolation: isolate"/>
              <path id="Path_423" data-name="Path 423" d="M656.479,356.25c-64.644,29.214-113.868,82.657-177.34,113.257-61.064,29.446-129.466,26.976-194.669,14.8C177.259,464.278,87.769,404.215-14.89,416.78V825.337H838.832c40.274-42.41,70.457-95.88,85.747-164.049C964.615,482.794,868.519,260.424,656.479,356.25Z" transform="translate(14.89 614.544)" fill="#65dcff" opacity="0.2" style="mix-blend-mode: overlay;isolation: isolate"/>
              <path id="Path_424" data-name="Path 424" d="M-14.89-9.4V703.7C79.845,680.99,129.429,567.249,200.121,507.814q2.535-2.129,5.115-4.249C272.2,448.584,353.431,406.146,442.265,420.1c85.661,13.456,150.007,73.251,224.218,112.726,132.074,70.258,264.063-15.152,363.659-105.425,105.281-95.424,186-235.591,345.207-238.166,135.015-2.188,256.17,60.544,388.082,68.753,135.71,8.446,259.523-66.113,329.994-180.278A289.262,289.262,0,0,0,2128.435-9.4Z" transform="translate(14.89 9.396)" fill="#fffead" opacity="0.2" style="mix-blend-mode: overlay;isolation: isolate"/>
              <path id="Path_425" data-name="Path 425" d="M1875.582,1343.226V40c-57.634,21.354-98.893,60.171-138.93,113.962-59.82,80.375-24.915,143.085-5.287,234.241,6.238,28.971,12.61,56.655,15.542,83.523,5.121,46.931-.249,91.368-35.145,135.806-41.035,52.261-91.471,71.325-152.8,86.63-57,14.225-130.323,24.572-161.928,81.005-15.478,27.64-23.186,67.635-29.305,98.5-12.153,61.311-29.081,149.783-76.5,194.318-48.956,45.976-121.153,48.773-183.429,35.524-103.1-21.933-196.138-44.087-280.762,36.623-42.081,40.131-74.108,81.595-134.656,92.445-88.029,15.769-160.2-27.889-242.521-50.278-84.9-23.086-167.7-25.488-242.905,26.3-47.788,32.91-71.348,83.459-70.52,134.625Z" transform="translate(282.164 96.655)" fill="#fffead" opacity="0.15" style="mix-blend-mode: overlay;isolation: isolate"/>
              <path id="Path_426" data-name="Path 426" d="M-14.89-9.4V507.485c119.985,2.6,175.857-74.963,237.087-169.237,8.916-13.727,17.963-26.807,27.253-39.079,60.591-80.054,131.455-125.728,243.207-92.782,117.16,34.54,236.871,54.215,331.972-41.84,32.337-32.667,54.533-73.619,97.233-94.583C975.056,43.85,1040.729,48.119,1097.716,55.2c126.641,15.744,250.137,38.841,340.526-64.6Z" transform="translate(14.89 9.396)" fill="#fffead" opacity="0.15" style="mix-blend-mode: overlay;isolation: isolate"/>
              <path id="Path_427" data-name="Path 427" d="M111.387-9.4c-16.187,54.361-11.76,111.37,24.7,168.376,81.487,127.41,220.812,121.053,356.2,111.506,83.216-5.87,177.661-20.975,255.988,16.306C823.1,322.41,860.091,400.627,912.037,460.626c62.863,72.617,144.1,108.947,240.692,100.916,103.818-8.634,196.539-58.359,289.963-99.953,66.122-29.438,130.7-51.293,197.1-11.149,96.841,58.547,186.234,188.591,295.778,224.049V-9.4Z" transform="translate(222.173 9.396)" fill="#65dcff" opacity="0.07" style="mix-blend-mode: overlay;isolation: isolate"/>
              <path id="Path_428" data-name="Path 428" d="M-14.89,944.835h1008.2c-4.017-23.371-6.795-47.94-9.284-73.345-11.362-115.918-44.5-193.363-171.458-202.418-115.946-8.266-239.458,26.392-352.975-7.92-76.12-23-115.4-86.845-156.024-149.448-6.449-9.937-12.931-19.841-19.6-29.549C222.773,393.06,127.5,268.69,8.025,265.584a156.524,156.524,0,0,0-22.915,1.065Z" transform="translate(14.89 495.046)" fill="#65dcff" opacity="0.1" style="mix-blend-mode: overlay;isolation: isolate"/>
              <path id="Path_429" data-name="Path 429" d="M394.017,997.331H1525.371a384.051,384.051,0,0,0,44.679-31.621c8.275-6.905,16.408-14.3,24.411-22.032V235.811C1519.7,255.151,1461.4,340.9,1404.805,384.119c-85.476,65.267-161.756,32.545-247.752-12.59-83.16-43.644-150.026-55.584-212.313,25.977C887.85,472,856.547,570.585,783.178,631.913c-49.193,41.121-109.611,39.345-169.784,39.018-9.55-.052-19.091-.069-28.586.13-87.139,1.818-213.132,10.991-268.1,90.143C261,841.407,325.311,933.039,394.017,997.331Z" transform="translate(563.285 442.549)" fill="#65dcff" opacity="0.05" style="mix-blend-mode: overlay;isolation: isolate"/>
              <path id="Path_430" data-name="Path 430" d="M610.511,796.224h646.7V495.793c-30.044-33.848-52.978-77.5-84.922-107.129-94.226-87.407-156.027,27.944-252.242,36.064-109.6,9.246-213.777-102.354-320.624-68.736-122.06,38.41-133.283,196.514-89.7,295.895C533.918,707.074,568.582,755.338,610.511,796.224Z" transform="translate(900.538 643.657)" fill="#fffead" opacity="0.1" style="mix-blend-mode: overlay;isolation: isolate"/>
              <path id="Path_431" data-name="Path 431" d="M1932.015,896.089c-80.366-38.725-149.495-42.905-234.174-55.6-65.579-9.832-138.382-24.685-169.782-90.6-40.324-84.649-10.383-189.446-59.654-271.372-64.381-107.057-231.421-93.192-337.754-88.2-133.77,6.283-266.6,44.7-393.994-2.21-123.551-45.5-219.437-95.6-307.491-192.685C377.8,138.79,307.967,77.02,230.6,50.827c-36.916-12.5-75.547-16.9-114.707-8.775C50.18,55.688,15.942,103.532-14.89,155.577V1111.07c33.425,61.607,83.4,99.469,176.067,69.035,95.385-31.325,163.582-111.121,252.433-154.088,79.719-38.554,125.925-.221,167.195,69.657,50.35,85.249,85.877,187.529,170.672,246.2,2.52,1.74,5.063,3.392,7.613,5h296.7l.2-.066c161.958-56.516,379.865-220.314,541.519-86.541,30.11,24.917,62.1,56.1,95.834,86.607H2099.9C2192.885,1190.855,2093.583,973.941,1932.015,896.089Z" transform="translate(14.89 93.002)" fill="#fffead" opacity="0.05" style="mix-blend-mode: overlay;isolation: isolate"/>
            </g>
          </g>
          <g id="Group_136" data-name="Group 136" transform="translate(-74.725 -144.866)">
            <g transform="matrix(1, 0, 0, 1, 338.36, 1033)" filter="url(#Rectangle_78)">
              <rect id="Rectangle_78-2" data-name="Rectangle 78" width="107.893" height="107.893" transform="translate(1305.79 97.25) rotate(-45)" fill="url(#linear-gradient-3)"/>
            </g>
            <g id="Group_126" data-name="Group 126" transform="translate(676.964 1203.346)">
              <g transform="matrix(1, 0, 0, 1, -338.61, -170.34)" filter="url(#Rectangle_79)">
                <rect id="Rectangle_79-2" data-name="Rectangle 79" width="80.242" height="80.242" transform="translate(366.16 254.64) rotate(-45)" fill="url(#linear-gradient-3)"/>
              </g>
              <g transform="matrix(1, 0, 0, 1, -338.61, -170.34)" filter="url(#Rectangle_80)">
                <rect id="Rectangle_80-2" data-name="Rectangle 80" width="119.216" height="119.216" transform="translate(338.61 254.64) rotate(-45)" fill="none" stroke="#707070" stroke-miterlimit="10" stroke-width="1"/>
              </g>
            </g>
            <g id="Group_127" data-name="Group 127" transform="translate(0)" opacity="0.6">
              <g transform="matrix(1, 0, 0, 1, 338.36, 1033)" filter="url(#Rectangle_81)">
                <rect id="Rectangle_81-2" data-name="Rectangle 81" width="167.161" height="167.161" transform="translate(-280.93 -857.38) rotate(-45)" fill="url(#linear-gradient-5)"/>
              </g>
              <g transform="matrix(1, 0, 0, 1, 338.36, 1033)" filter="url(#Rectangle_82)">
                <rect id="Rectangle_82-2" data-name="Rectangle 82" width="248.362" height="248.362" transform="translate(-338.36 -857.39) rotate(-45)" fill="none" stroke="#707070" stroke-miterlimit="10" stroke-width="1"/>
              </g>
            </g>
            <g id="Group_128" data-name="Group 128" transform="translate(1384.567 284.329)" opacity="0.15">
              <g transform="matrix(1, 0, 0, 1, -1046.21, 748.68)" filter="url(#Rectangle_83)">
                <rect id="Rectangle_83-2" data-name="Rectangle 83" width="299.437" height="299.437" transform="translate(1149.08 -434.09) rotate(-45)" fill="url(#linear-gradient-6)"/>
              </g>
              <g transform="matrix(1, 0, 0, 1, -1046.21, 748.68)" filter="url(#Rectangle_84)">
                <rect id="Rectangle_84-2" data-name="Rectangle 84" width="444.891" height="444.891" transform="translate(1046.21 -434.1) rotate(-45)" fill="none" stroke="#707070" stroke-miterlimit="10" stroke-width="1"/>
              </g>
            </g>
            <g id="Group_129" data-name="Group 129" transform="translate(316.066 687.266)" opacity="0.15">
              <g transform="matrix(1, 0, 0, 1, 22.29, 345.74)" filter="url(#Rectangle_85)">
                <rect id="Rectangle_85-2" data-name="Rectangle 85" width="83.443" height="83.443" transform="translate(6.37 -258.07) rotate(-45)" fill="url(#linear-gradient-7)"/>
              </g>
              <g transform="matrix(1, 0, 0, 1, 22.29, 345.74)" filter="url(#Rectangle_86)">
                <rect id="Rectangle_86-2" data-name="Rectangle 86" width="123.976" height="123.976" transform="matrix(0.71, -0.71, 0.71, 0.71, -22.29, -258.08)" fill="none" stroke="#707070" stroke-miterlimit="10" stroke-width="1"/>
              </g>
            </g>
            <g id="Group_130" data-name="Group 130" transform="translate(1188.049 384.316)" opacity="0.6">
              <g transform="matrix(1, 0, 0, 1, -849.69, 648.69)" filter="url(#Rectangle_87)">
                <rect id="Rectangle_87-2" data-name="Rectangle 87" width="71.219" height="71.219" transform="translate(874.16 -573.86) rotate(-45)" fill="url(#linear-gradient-8)"/>
              </g>
              <g transform="matrix(1, 0, 0, 1, -849.69, 648.69)" filter="url(#Rectangle_88)">
                <rect id="Rectangle_88-2" data-name="Rectangle 88" width="105.816" height="105.816" transform="matrix(0.71, -0.71, 0.71, 0.71, 849.69, -573.87)" fill="none" stroke="#707070" stroke-miterlimit="10" stroke-width="1"/>
              </g>
            </g>
            <g id="Group_131" data-name="Group 131" transform="translate(132.713 626.602)" opacity="0.4">
              <g transform="matrix(1, 0, 0, 1, 205.64, 406.4)" filter="url(#Rectangle_89)">
                <rect id="Rectangle_89-2" data-name="Rectangle 89" width="124.903" height="124.903" transform="translate(-162.74 -275.17) rotate(-45)" fill="url(#linear-gradient-9)"/>
              </g>
              <g transform="matrix(1, 0, 0, 1, 205.64, 406.4)" filter="url(#Path_432)">
                <path id="Path_432-2" data-name="Path 432" d="M152.112,173.946,283.325,305.181,152.112,436.393,20.888,305.181Z" transform="translate(-226.53 -580.35)" fill="none" stroke="#707070" stroke-miterlimit="10" stroke-width="1"/>
              </g>
            </g>
            <g id="Group_132" data-name="Group 132" transform="translate(1131.658 471.368)" opacity="0.2">
              <g transform="matrix(1, 0, 0, 1, -793.3, 561.64)" filter="url(#Rectangle_90)">
                <rect id="Rectangle_90-2" data-name="Rectangle 90" width="124.903" height="124.903" transform="translate(836.2 -430.4) rotate(-45)" fill="url(#linear-gradient-10)"/>
              </g>
              <g transform="matrix(1, 0, 0, 1, -793.3, 561.64)" filter="url(#Path_433)">
                <path id="Path_433-2" data-name="Path 433" d="M513.2,117.834,644.414,249.068,513.2,380.279,381.977,249.068Z" transform="translate(411.32 -679.47)" fill="none" stroke="#707070" stroke-miterlimit="10" stroke-width="1"/>
              </g>
            </g>
            <g id="Group_133" data-name="Group 133" transform="translate(136.328 1370.435)" opacity="0.2">
              <g transform="matrix(1, 0, 0, 1, 202.03, -337.43)" filter="url(#Rectangle_91)">
                <rect id="Rectangle_91-2" data-name="Rectangle 91" width="37.409" height="37.409" transform="translate(-189.18 376.73) rotate(-45.01)" fill="url(#linear-gradient-11)"/>
              </g>
              <g transform="matrix(1, 0, 0, 1, 202.03, -337.43)" filter="url(#Rectangle_92)">
                <rect id="Rectangle_92-2" data-name="Rectangle 92" width="55.58" height="55.58" transform="translate(-202.03 376.73) rotate(-44.99)" fill="none" stroke="#707070" stroke-miterlimit="10" stroke-width="1"/>
              </g>
            </g>
            <g id="Group_134" data-name="Group 134" transform="translate(1752.814 175.857)" opacity="0.2">
              <g transform="matrix(1, 0, 0, 1, -1414.46, 857.15)" filter="url(#Path_434)">
                <path id="Path_434-2" data-name="Path 434" d="M615.9,73.87,669.347,20.4,722.813,73.87l-53.466,53.453Z" transform="translate(824.54 -851.59)" fill="url(#linear-gradient-12)"/>
              </g>
              <g transform="matrix(1, 0, 0, 1, -1414.46, 857.15)" filter="url(#Rectangle_93)">
                <rect id="Rectangle_93-2" data-name="Rectangle 93" width="112.326" height="112.326" transform="translate(1414.46 -777.73) rotate(-44.99)" fill="none" stroke="#707070" stroke-miterlimit="10" stroke-width="1"/>
              </g>
            </g>
            <g id="Group_135" data-name="Group 135" transform="translate(1688.812 1098.622)">
              <g transform="matrix(1, 0, 0, 1, -1350.45, -65.62)" filter="url(#Rectangle_94)">
                <rect id="Rectangle_94-2" data-name="Rectangle 94" width="30.107" height="30.107" transform="translate(1360.8 97.25) rotate(-45)" fill="url(#linear-gradient-13)"/>
              </g>
              <g transform="matrix(1, 0, 0, 1, -1350.45, -65.62)" filter="url(#Rectangle_95)">
                <rect id="Rectangle_95-2" data-name="Rectangle 95" width="44.732" height="44.732" transform="translate(1350.45 97.25) rotate(-44.99)" fill="none" stroke="#707070" stroke-miterlimit="10" stroke-width="1"/>
              </g>
            </g>
          </g>
        </g>
      </g>
      <g id="Group_139" data-name="Group 139" transform="translate(1560.257 1130.713)" opacity="0.45">
        <path id="Path_435" data-name="Path 435" d="M571.336,412.357a3.68,3.68,0,1,1-3.68-3.679A3.681,3.681,0,0,1,571.336,412.357Z" transform="translate(-563.977 -408.677)" fill="#46d5ff"/>
        <path id="Path_436" data-name="Path 436" d="M580.722,412.357a3.678,3.678,0,1,1-3.679-3.679A3.678,3.678,0,0,1,580.722,412.357Z" transform="translate(-547.391 -408.677)" fill="#46d5ff"/>
        <path id="Path_437" data-name="Path 437" d="M590.114,412.357a3.679,3.679,0,1,1-3.679-3.679A3.681,3.681,0,0,1,590.114,412.357Z" transform="translate(-530.806 -408.677)" fill="#46d5ff"/>
        <circle id="Ellipse_58" data-name="Ellipse 58" cx="3.68" cy="3.68" r="3.68" transform="translate(77.925)" fill="#46d5ff"/>
        <circle id="Ellipse_59" data-name="Ellipse 59" cx="3.68" cy="3.68" r="3.68" transform="translate(103.899)" fill="#46d5ff"/>
        <path id="Path_438" data-name="Path 438" d="M618.282,412.357a3.68,3.68,0,1,1-3.68-3.679A3.681,3.681,0,0,1,618.282,412.357Z" transform="translate(-481.048 -408.677)" fill="#46d5ff"/>
        <circle id="Ellipse_60" data-name="Ellipse 60" cx="3.68" cy="3.68" r="3.68" transform="translate(155.851)" fill="#46d5ff"/>
        <path id="Path_439" data-name="Path 439" d="M637.06,412.357a3.679,3.679,0,1,1-3.679-3.679A3.68,3.68,0,0,1,637.06,412.357Z" transform="translate(-447.877 -408.677)" fill="#46d5ff"/>
        <path id="Path_440" data-name="Path 440" d="M571.336,421.746a3.68,3.68,0,1,1-3.68-3.68A3.682,3.682,0,0,1,571.336,421.746Z" transform="translate(-563.977 -392.092)" fill="#46d5ff"/>
        <path id="Path_441" data-name="Path 441" d="M580.722,421.746a3.678,3.678,0,1,1-3.679-3.68A3.678,3.678,0,0,1,580.722,421.746Z" transform="translate(-547.391 -392.092)" fill="#46d5ff"/>
        <path id="Path_442" data-name="Path 442" d="M590.114,421.746a3.679,3.679,0,1,1-3.679-3.68A3.682,3.682,0,0,1,590.114,421.746Z" transform="translate(-530.806 -392.092)" fill="#46d5ff"/>
        <path id="Path_443" data-name="Path 443" d="M599.506,421.746a3.681,3.681,0,1,1-3.679-3.68A3.682,3.682,0,0,1,599.506,421.746Z" transform="translate(-514.221 -392.092)" fill="#46d5ff"/>
        <path id="Path_444" data-name="Path 444" d="M608.892,421.746a3.679,3.679,0,1,1-3.679-3.68A3.68,3.68,0,0,1,608.892,421.746Z" transform="translate(-497.635 -392.092)" fill="#46d5ff"/>
        <path id="Path_445" data-name="Path 445" d="M618.282,421.746a3.68,3.68,0,1,1-3.68-3.68A3.682,3.682,0,0,1,618.282,421.746Z" transform="translate(-481.048 -392.092)" fill="#46d5ff"/>
        <path id="Path_446" data-name="Path 446" d="M627.674,421.746a3.681,3.681,0,1,1-3.68-3.68A3.682,3.682,0,0,1,627.674,421.746Z" transform="translate(-464.462 -392.092)" fill="#46d5ff"/>
        <path id="Path_447" data-name="Path 447" d="M637.06,421.746a3.679,3.679,0,1,1-3.679-3.68A3.68,3.68,0,0,1,637.06,421.746Z" transform="translate(-447.877 -392.092)" fill="#46d5ff"/>
        <path id="Path_448" data-name="Path 448" d="M571.336,431.135a3.68,3.68,0,1,1-3.68-3.679A3.68,3.68,0,0,1,571.336,431.135Z" transform="translate(-563.977 -375.506)" fill="#46d5ff"/>
        <path id="Path_449" data-name="Path 449" d="M580.722,431.135a3.678,3.678,0,1,1-3.679-3.679A3.676,3.676,0,0,1,580.722,431.135Z" transform="translate(-547.391 -375.506)" fill="#46d5ff"/>
        <path id="Path_450" data-name="Path 450" d="M590.114,431.135a3.679,3.679,0,1,1-3.679-3.679A3.68,3.68,0,0,1,590.114,431.135Z" transform="translate(-530.806 -375.506)" fill="#46d5ff"/>
        <path id="Path_451" data-name="Path 451" d="M599.506,431.135a3.681,3.681,0,1,1-3.679-3.679A3.68,3.68,0,0,1,599.506,431.135Z" transform="translate(-514.221 -375.506)" fill="#46d5ff"/>
        <path id="Path_452" data-name="Path 452" d="M608.892,431.135a3.679,3.679,0,1,1-3.679-3.679A3.678,3.678,0,0,1,608.892,431.135Z" transform="translate(-497.635 -375.506)" fill="#46d5ff"/>
        <path id="Path_453" data-name="Path 453" d="M618.282,431.135a3.68,3.68,0,1,1-3.68-3.679A3.68,3.68,0,0,1,618.282,431.135Z" transform="translate(-481.048 -375.506)" fill="#46d5ff"/>
        <path id="Path_454" data-name="Path 454" d="M627.674,431.135a3.681,3.681,0,1,1-3.68-3.679A3.68,3.68,0,0,1,627.674,431.135Z" transform="translate(-464.462 -375.506)" fill="#46d5ff"/>
        <path id="Path_455" data-name="Path 455" d="M637.06,431.135a3.679,3.679,0,1,1-3.679-3.679A3.678,3.678,0,0,1,637.06,431.135Z" transform="translate(-447.877 -375.506)" fill="#46d5ff"/>
        <path id="Path_456" data-name="Path 456" d="M571.336,440.525a3.68,3.68,0,1,1-3.68-3.679A3.681,3.681,0,0,1,571.336,440.525Z" transform="translate(-563.977 -358.919)" fill="#46d5ff"/>
        <path id="Path_457" data-name="Path 457" d="M580.722,440.525a3.678,3.678,0,1,1-3.679-3.679A3.678,3.678,0,0,1,580.722,440.525Z" transform="translate(-547.391 -358.919)" fill="#46d5ff"/>
        <path id="Path_458" data-name="Path 458" d="M590.114,440.525a3.679,3.679,0,1,1-3.679-3.679A3.681,3.681,0,0,1,590.114,440.525Z" transform="translate(-530.806 -358.919)" fill="#46d5ff"/>
        <circle id="Ellipse_61" data-name="Ellipse 61" cx="3.68" cy="3.68" r="3.68" transform="translate(77.925 77.926)" fill="#46d5ff"/>
        <circle id="Ellipse_62" data-name="Ellipse 62" cx="3.68" cy="3.68" r="3.68" transform="translate(103.899 77.926)" fill="#46d5ff"/>
        <path id="Path_459" data-name="Path 459" d="M618.282,440.525a3.68,3.68,0,1,1-3.68-3.679A3.681,3.681,0,0,1,618.282,440.525Z" transform="translate(-481.048 -358.919)" fill="#46d5ff"/>
        <circle id="Ellipse_63" data-name="Ellipse 63" cx="3.68" cy="3.68" r="3.68" transform="translate(155.851 77.926)" fill="#46d5ff"/>
        <path id="Path_460" data-name="Path 460" d="M637.06,440.525a3.679,3.679,0,1,1-3.679-3.679A3.68,3.68,0,0,1,637.06,440.525Z" transform="translate(-447.877 -358.919)" fill="#46d5ff"/>
        <circle id="Ellipse_64" data-name="Ellipse 64" cx="3.68" cy="3.68" r="3.68" transform="translate(207.801)" fill="#46d5ff"/>
        <path id="Path_461" data-name="Path 461" d="M655.839,412.357a3.679,3.679,0,1,1-3.679-3.679A3.68,3.68,0,0,1,655.839,412.357Z" transform="translate(-414.704 -408.677)" fill="#46d5ff"/>
        <circle id="Ellipse_65" data-name="Ellipse 65" cx="3.68" cy="3.68" r="3.68" transform="translate(259.751)" fill="#46d5ff"/>
        <path id="Path_462" data-name="Path 462" d="M674.618,412.357a3.68,3.68,0,1,1-3.68-3.679A3.681,3.681,0,0,1,674.618,412.357Z" transform="translate(-381.531 -408.677)" fill="#46d5ff"/>
        <path id="Path_463" data-name="Path 463" d="M684.009,412.357a3.681,3.681,0,1,1-3.682-3.679A3.682,3.682,0,0,1,684.009,412.357Z" transform="translate(-364.948 -408.677)" fill="#46d5ff"/>
        <circle id="Ellipse_66" data-name="Ellipse 66" cx="3.68" cy="3.68" r="3.68" transform="translate(337.677)" fill="#46d5ff"/>
        <path id="Path_464" data-name="Path 464" d="M702.783,412.357a3.678,3.678,0,1,1-3.679-3.679A3.68,3.68,0,0,1,702.783,412.357Z" transform="translate(-331.773 -408.677)" fill="#46d5ff"/>
        <circle id="Ellipse_67" data-name="Ellipse 67" cx="3.68" cy="3.68" r="3.68" transform="translate(389.627)" fill="#46d5ff"/>
        <path id="Path_465" data-name="Path 465" d="M646.45,421.746a3.679,3.679,0,1,1-3.679-3.68A3.682,3.682,0,0,1,646.45,421.746Z" transform="translate(-431.29 -392.092)" fill="#46d5ff"/>
        <path id="Path_466" data-name="Path 466" d="M655.839,421.746a3.679,3.679,0,1,1-3.679-3.68A3.68,3.68,0,0,1,655.839,421.746Z" transform="translate(-414.704 -392.092)" fill="#46d5ff"/>
        <path id="Path_467" data-name="Path 467" d="M665.228,421.746a3.679,3.679,0,1,1-3.679-3.68A3.68,3.68,0,0,1,665.228,421.746Z" transform="translate(-398.119 -392.092)" fill="#46d5ff"/>
        <path id="Path_468" data-name="Path 468" d="M674.618,421.746a3.68,3.68,0,1,1-3.68-3.68A3.682,3.682,0,0,1,674.618,421.746Z" transform="translate(-381.531 -392.092)" fill="#46d5ff"/>
        <path id="Path_469" data-name="Path 469" d="M684.009,421.746a3.681,3.681,0,1,1-3.682-3.68A3.683,3.683,0,0,1,684.009,421.746Z" transform="translate(-364.948 -392.092)" fill="#46d5ff"/>
        <path id="Path_470" data-name="Path 470" d="M693.4,421.746a3.679,3.679,0,1,1-3.679-3.68A3.68,3.68,0,0,1,693.4,421.746Z" transform="translate(-348.36 -392.092)" fill="#46d5ff"/>
        <path id="Path_471" data-name="Path 471" d="M702.783,421.746a3.678,3.678,0,1,1-3.679-3.68A3.68,3.68,0,0,1,702.783,421.746Z" transform="translate(-331.773 -392.092)" fill="#46d5ff"/>
        <path id="Path_472" data-name="Path 472" d="M712.177,421.746a3.681,3.681,0,1,1-3.682-3.68A3.682,3.682,0,0,1,712.177,421.746Z" transform="translate(-315.189 -392.092)" fill="#46d5ff"/>
        <path id="Path_473" data-name="Path 473" d="M646.45,431.135a3.679,3.679,0,1,1-3.679-3.679A3.679,3.679,0,0,1,646.45,431.135Z" transform="translate(-431.29 -375.506)" fill="#46d5ff"/>
        <path id="Path_474" data-name="Path 474" d="M655.839,431.135a3.679,3.679,0,1,1-3.679-3.679A3.678,3.678,0,0,1,655.839,431.135Z" transform="translate(-414.704 -375.506)" fill="#46d5ff"/>
        <path id="Path_475" data-name="Path 475" d="M665.228,431.135a3.679,3.679,0,1,1-3.679-3.679A3.678,3.678,0,0,1,665.228,431.135Z" transform="translate(-398.119 -375.506)" fill="#46d5ff"/>
        <path id="Path_476" data-name="Path 476" d="M674.618,431.135a3.68,3.68,0,1,1-3.68-3.679A3.68,3.68,0,0,1,674.618,431.135Z" transform="translate(-381.531 -375.506)" fill="#46d5ff"/>
        <path id="Path_477" data-name="Path 477" d="M684.009,431.135a3.681,3.681,0,1,1-3.682-3.679A3.68,3.68,0,0,1,684.009,431.135Z" transform="translate(-364.948 -375.506)" fill="#46d5ff"/>
        <path id="Path_478" data-name="Path 478" d="M693.4,431.135a3.679,3.679,0,1,1-3.679-3.679A3.678,3.678,0,0,1,693.4,431.135Z" transform="translate(-348.36 -375.506)" fill="#46d5ff"/>
        <path id="Path_479" data-name="Path 479" d="M702.783,431.135a3.678,3.678,0,1,1-3.679-3.679A3.678,3.678,0,0,1,702.783,431.135Z" transform="translate(-331.773 -375.506)" fill="#46d5ff"/>
        <path id="Path_480" data-name="Path 480" d="M712.177,431.135a3.681,3.681,0,1,1-3.682-3.679A3.68,3.68,0,0,1,712.177,431.135Z" transform="translate(-315.189 -375.506)" fill="#46d5ff"/>
        <circle id="Ellipse_68" data-name="Ellipse 68" cx="3.68" cy="3.68" r="3.68" transform="translate(207.801 77.926)" fill="#46d5ff"/>
        <path id="Path_481" data-name="Path 481" d="M655.839,440.525a3.679,3.679,0,1,1-3.679-3.679A3.68,3.68,0,0,1,655.839,440.525Z" transform="translate(-414.704 -358.919)" fill="#46d5ff"/>
        <circle id="Ellipse_69" data-name="Ellipse 69" cx="3.68" cy="3.68" r="3.68" transform="translate(259.751 77.926)" fill="#46d5ff"/>
        <path id="Path_482" data-name="Path 482" d="M674.618,440.525a3.68,3.68,0,1,1-3.68-3.679A3.681,3.681,0,0,1,674.618,440.525Z" transform="translate(-381.531 -358.919)" fill="#46d5ff"/>
        <path id="Path_483" data-name="Path 483" d="M684.009,440.525a3.681,3.681,0,1,1-3.682-3.679A3.682,3.682,0,0,1,684.009,440.525Z" transform="translate(-364.948 -358.919)" fill="#46d5ff"/>
        <circle id="Ellipse_70" data-name="Ellipse 70" cx="3.68" cy="3.68" r="3.68" transform="translate(337.677 77.926)" fill="#46d5ff"/>
        <path id="Path_484" data-name="Path 484" d="M702.783,440.525a3.678,3.678,0,1,1-3.679-3.679A3.68,3.68,0,0,1,702.783,440.525Z" transform="translate(-331.773 -358.919)" fill="#46d5ff"/>
        <circle id="Ellipse_71" data-name="Ellipse 71" cx="3.68" cy="3.68" r="3.68" transform="translate(389.627 77.926)" fill="#46d5ff"/>
      </g>
      <g id="Group_142" data-name="Group 142" transform="translate(181.671 346.04)">
        <g id="Group_140" data-name="Group 140" opacity="0.45">
          <path id="Path_485" data-name="Path 485" d="M73.018,128.721a3.679,3.679,0,1,1-3.679-3.679A3.68,3.68,0,0,1,73.018,128.721Z" transform="translate(-65.659 -125.041)" fill="#46d5ff"/>
          <path id="Path_486" data-name="Path 486" d="M82.405,128.721a3.678,3.678,0,1,1-3.679-3.679A3.68,3.68,0,0,1,82.405,128.721Z" transform="translate(-49.072 -125.041)" fill="#46d5ff"/>
          <circle id="Ellipse_72" data-name="Ellipse 72" cx="3.68" cy="3.68" r="3.68" transform="translate(51.95)" fill="#46d5ff"/>
          <circle id="Ellipse_73" data-name="Ellipse 73" cx="3.68" cy="3.68" r="3.68" transform="translate(77.926)" fill="#46d5ff"/>
          <circle id="Ellipse_74" data-name="Ellipse 74" cx="3.68" cy="3.68" r="3.68" transform="translate(103.9)" fill="#46d5ff"/>
          <path id="Path_487" data-name="Path 487" d="M119.967,128.721a3.681,3.681,0,1,1-3.682-3.679A3.682,3.682,0,0,1,119.967,128.721Z" transform="translate(17.27 -125.041)" fill="#46d5ff"/>
          <circle id="Ellipse_75" data-name="Ellipse 75" cx="3.68" cy="3.68" r="3.68" transform="translate(155.853)" fill="#46d5ff"/>
          <path id="Path_488" data-name="Path 488" d="M138.743,128.721a3.679,3.679,0,1,1-3.679-3.679A3.681,3.681,0,0,1,138.743,128.721Z" transform="translate(50.443 -125.041)" fill="#46d5ff"/>
          <path id="Path_489" data-name="Path 489" d="M73.018,138.11a3.679,3.679,0,1,1-3.679-3.679A3.678,3.678,0,0,1,73.018,138.11Z" transform="translate(-65.659 -108.455)" fill="#46d5ff"/>
          <path id="Path_490" data-name="Path 490" d="M82.405,138.11a3.678,3.678,0,1,1-3.679-3.679A3.678,3.678,0,0,1,82.405,138.11Z" transform="translate(-49.072 -108.455)" fill="#46d5ff"/>
          <path id="Path_491" data-name="Path 491" d="M91.8,138.11a3.679,3.679,0,1,1-3.679-3.679A3.68,3.68,0,0,1,91.8,138.11Z" transform="translate(-32.486 -108.455)" fill="#46d5ff"/>
          <path id="Path_492" data-name="Path 492" d="M101.186,138.11a3.679,3.679,0,1,1-3.679-3.679A3.678,3.678,0,0,1,101.186,138.11Z" transform="translate(-15.901 -108.455)" fill="#46d5ff"/>
          <path id="Path_493" data-name="Path 493" d="M110.575,138.11a3.679,3.679,0,1,1-3.679-3.679A3.68,3.68,0,0,1,110.575,138.11Z" transform="translate(0.685 -108.455)" fill="#46d5ff"/>
          <path id="Path_494" data-name="Path 494" d="M119.967,138.11a3.681,3.681,0,1,1-3.682-3.679A3.68,3.68,0,0,1,119.967,138.11Z" transform="translate(17.27 -108.455)" fill="#46d5ff"/>
          <path id="Path_495" data-name="Path 495" d="M129.354,138.11a3.679,3.679,0,1,1-3.679-3.679A3.678,3.678,0,0,1,129.354,138.11Z" transform="translate(33.857 -108.455)" fill="#46d5ff"/>
          <path id="Path_496" data-name="Path 496" d="M138.743,138.11a3.679,3.679,0,1,1-3.679-3.679A3.68,3.68,0,0,1,138.743,138.11Z" transform="translate(50.443 -108.455)" fill="#46d5ff"/>
          <path id="Path_497" data-name="Path 497" d="M73.018,147.5a3.679,3.679,0,1,1-3.679-3.679A3.68,3.68,0,0,1,73.018,147.5Z" transform="translate(-65.659 -91.87)" fill="#46d5ff"/>
          <path id="Path_498" data-name="Path 498" d="M82.405,147.5a3.678,3.678,0,1,1-3.679-3.679A3.68,3.68,0,0,1,82.405,147.5Z" transform="translate(-49.072 -91.87)" fill="#46d5ff"/>
          <circle id="Ellipse_76" data-name="Ellipse 76" cx="3.68" cy="3.68" r="3.68" transform="translate(51.95 51.95)" fill="#46d5ff"/>
          <circle id="Ellipse_77" data-name="Ellipse 77" cx="3.68" cy="3.68" r="3.68" transform="translate(77.926 51.95)" fill="#46d5ff"/>
          <circle id="Ellipse_78" data-name="Ellipse 78" cx="3.68" cy="3.68" r="3.68" transform="translate(103.9 51.95)" fill="#46d5ff"/>
          <path id="Path_499" data-name="Path 499" d="M119.967,147.5a3.681,3.681,0,1,1-3.682-3.679A3.682,3.682,0,0,1,119.967,147.5Z" transform="translate(17.27 -91.87)" fill="#46d5ff"/>
          <circle id="Ellipse_79" data-name="Ellipse 79" cx="3.68" cy="3.68" r="3.68" transform="translate(155.853 51.95)" fill="#46d5ff"/>
          <path id="Path_500" data-name="Path 500" d="M138.743,147.5a3.679,3.679,0,1,1-3.679-3.679A3.681,3.681,0,0,1,138.743,147.5Z" transform="translate(50.443 -91.87)" fill="#46d5ff"/>
          <path id="Path_501" data-name="Path 501" d="M73.018,156.891a3.679,3.679,0,1,1-3.679-3.682A3.68,3.68,0,0,1,73.018,156.891Z" transform="translate(-65.659 -75.284)" fill="#46d5ff"/>
          <path id="Path_502" data-name="Path 502" d="M82.405,156.891a3.678,3.678,0,1,1-3.679-3.682A3.68,3.68,0,0,1,82.405,156.891Z" transform="translate(-49.072 -75.284)" fill="#46d5ff"/>
          <path id="Path_503" data-name="Path 503" d="M91.8,156.891a3.679,3.679,0,1,1-3.679-3.682A3.681,3.681,0,0,1,91.8,156.891Z" transform="translate(-32.486 -75.284)" fill="#46d5ff"/>
          <path id="Path_504" data-name="Path 504" d="M101.186,156.891a3.679,3.679,0,1,1-3.679-3.682A3.68,3.68,0,0,1,101.186,156.891Z" transform="translate(-15.901 -75.284)" fill="#46d5ff"/>
          <path id="Path_505" data-name="Path 505" d="M110.575,156.891a3.679,3.679,0,1,1-3.679-3.682A3.681,3.681,0,0,1,110.575,156.891Z" transform="translate(0.685 -75.284)" fill="#46d5ff"/>
          <path id="Path_506" data-name="Path 506" d="M119.967,156.891a3.681,3.681,0,1,1-3.682-3.682A3.682,3.682,0,0,1,119.967,156.891Z" transform="translate(17.27 -75.284)" fill="#46d5ff"/>
          <path id="Path_507" data-name="Path 507" d="M129.354,156.891a3.679,3.679,0,1,1-3.679-3.682A3.68,3.68,0,0,1,129.354,156.891Z" transform="translate(33.857 -75.284)" fill="#46d5ff"/>
          <path id="Path_508" data-name="Path 508" d="M138.743,156.891a3.679,3.679,0,1,1-3.679-3.682A3.681,3.681,0,0,1,138.743,156.891Z" transform="translate(50.443 -75.284)" fill="#46d5ff"/>
          <circle id="Ellipse_80" data-name="Ellipse 80" cx="3.68" cy="3.68" r="3.68" transform="translate(207.802)" fill="#46d5ff"/>
          <path id="Path_509" data-name="Path 509" d="M157.519,128.721a3.678,3.678,0,1,1-3.679-3.679A3.68,3.68,0,0,1,157.519,128.721Z" transform="translate(83.616 -125.041)" fill="#46d5ff"/>
          <path id="Path_510" data-name="Path 510" d="M166.911,128.721a3.679,3.679,0,1,1-3.679-3.679A3.681,3.681,0,0,1,166.911,128.721Z" transform="translate(100.201 -125.041)" fill="#46d5ff"/>
          <circle id="Ellipse_81" data-name="Ellipse 81" cx="3.68" cy="3.68" r="3.68" transform="translate(285.729)" fill="#46d5ff"/>
          <path id="Path_511" data-name="Path 511" d="M185.689,128.721a3.679,3.679,0,1,1-3.679-3.679A3.681,3.681,0,0,1,185.689,128.721Z" transform="translate(133.372 -125.041)" fill="#46d5ff"/>
          <circle id="Ellipse_82" data-name="Ellipse 82" cx="3.68" cy="3.68" r="3.68" transform="translate(337.678)" fill="#46d5ff"/>
          <path id="Path_512" data-name="Path 512" d="M204.468,128.721a3.679,3.679,0,1,1-3.682-3.679A3.68,3.68,0,0,1,204.468,128.721Z" transform="translate(166.545 -125.041)" fill="#46d5ff"/>
          <circle id="Ellipse_83" data-name="Ellipse 83" cx="3.68" cy="3.68" r="3.68" transform="translate(389.628 0)" fill="#46d5ff"/>
          <path id="Path_513" data-name="Path 513" d="M148.135,138.11a3.681,3.681,0,1,1-3.682-3.679A3.68,3.68,0,0,1,148.135,138.11Z" transform="translate(67.028 -108.455)" fill="#46d5ff"/>
          <path id="Path_514" data-name="Path 514" d="M157.519,138.11a3.678,3.678,0,1,1-3.679-3.679A3.678,3.678,0,0,1,157.519,138.11Z" transform="translate(83.616 -108.455)" fill="#46d5ff"/>
          <path id="Path_515" data-name="Path 515" d="M166.911,138.11a3.679,3.679,0,1,1-3.679-3.679A3.68,3.68,0,0,1,166.911,138.11Z" transform="translate(100.201 -108.455)" fill="#46d5ff"/>
          <path id="Path_516" data-name="Path 516" d="M176.3,138.11a3.681,3.681,0,1,1-3.682-3.679A3.68,3.68,0,0,1,176.3,138.11Z" transform="translate(116.787 -108.455)" fill="#46d5ff"/>
          <path id="Path_517" data-name="Path 517" d="M185.689,138.11a3.679,3.679,0,1,1-3.679-3.679A3.68,3.68,0,0,1,185.689,138.11Z" transform="translate(133.372 -108.455)" fill="#46d5ff"/>
          <path id="Path_518" data-name="Path 518" d="M195.079,138.11a3.679,3.679,0,1,1-3.679-3.679A3.68,3.68,0,0,1,195.079,138.11Z" transform="translate(149.959 -108.455)" fill="#46d5ff"/>
          <path id="Path_519" data-name="Path 519" d="M204.468,138.11a3.679,3.679,0,1,1-3.682-3.679A3.678,3.678,0,0,1,204.468,138.11Z" transform="translate(166.545 -108.455)" fill="#46d5ff"/>
          <path id="Path_520" data-name="Path 520" d="M213.857,138.11a3.679,3.679,0,1,1-3.679-3.679A3.68,3.68,0,0,1,213.857,138.11Z" transform="translate(183.13 -108.455)" fill="#46d5ff"/>
          <circle id="Ellipse_84" data-name="Ellipse 84" cx="3.68" cy="3.68" r="3.68" transform="translate(207.802 51.95)" fill="#46d5ff"/>
          <path id="Path_521" data-name="Path 521" d="M157.519,147.5a3.678,3.678,0,1,1-3.679-3.679A3.68,3.68,0,0,1,157.519,147.5Z" transform="translate(83.616 -91.87)" fill="#46d5ff"/>
          <path id="Path_522" data-name="Path 522" d="M166.911,147.5a3.679,3.679,0,1,1-3.679-3.679A3.681,3.681,0,0,1,166.911,147.5Z" transform="translate(100.201 -91.87)" fill="#46d5ff"/>
          <circle id="Ellipse_85" data-name="Ellipse 85" cx="3.68" cy="3.68" r="3.68" transform="translate(285.729 51.95)" fill="#46d5ff"/>
          <path id="Path_523" data-name="Path 523" d="M185.689,147.5a3.679,3.679,0,1,1-3.679-3.679A3.681,3.681,0,0,1,185.689,147.5Z" transform="translate(133.372 -91.87)" fill="#46d5ff"/>
          <circle id="Ellipse_86" data-name="Ellipse 86" cx="3.68" cy="3.68" r="3.68" transform="translate(337.678 51.95)" fill="#46d5ff"/>
          <path id="Path_524" data-name="Path 524" d="M204.468,147.5a3.679,3.679,0,1,1-3.682-3.679A3.68,3.68,0,0,1,204.468,147.5Z" transform="translate(166.545 -91.87)" fill="#46d5ff"/>
          <circle id="Ellipse_87" data-name="Ellipse 87" cx="3.68" cy="3.68" r="3.68" transform="translate(389.628 51.95)" fill="#46d5ff"/>
          <path id="Path_525" data-name="Path 525" d="M148.135,156.891a3.681,3.681,0,1,1-3.682-3.682A3.682,3.682,0,0,1,148.135,156.891Z" transform="translate(67.028 -75.284)" fill="#46d5ff"/>
          <path id="Path_526" data-name="Path 526" d="M157.519,156.891a3.678,3.678,0,1,1-3.679-3.682A3.68,3.68,0,0,1,157.519,156.891Z" transform="translate(83.616 -75.284)" fill="#46d5ff"/>
          <path id="Path_527" data-name="Path 527" d="M166.911,156.891a3.679,3.679,0,1,1-3.679-3.682A3.681,3.681,0,0,1,166.911,156.891Z" transform="translate(100.201 -75.284)" fill="#46d5ff"/>
          <path id="Path_528" data-name="Path 528" d="M176.3,156.891a3.681,3.681,0,1,1-3.682-3.682A3.682,3.682,0,0,1,176.3,156.891Z" transform="translate(116.787 -75.284)" fill="#46d5ff"/>
          <path id="Path_529" data-name="Path 529" d="M185.689,156.891a3.679,3.679,0,1,1-3.679-3.682A3.681,3.681,0,0,1,185.689,156.891Z" transform="translate(133.372 -75.284)" fill="#46d5ff"/>
          <path id="Path_530" data-name="Path 530" d="M195.079,156.891a3.679,3.679,0,1,1-3.679-3.682A3.681,3.681,0,0,1,195.079,156.891Z" transform="translate(149.959 -75.284)" fill="#46d5ff"/>
          <path id="Path_531" data-name="Path 531" d="M204.468,156.891a3.679,3.679,0,1,1-3.682-3.682A3.68,3.68,0,0,1,204.468,156.891Z" transform="translate(166.545 -75.284)" fill="#46d5ff"/>
          <path id="Path_532" data-name="Path 532" d="M213.857,156.891a3.679,3.679,0,1,1-3.679-3.682A3.681,3.681,0,0,1,213.857,156.891Z" transform="translate(183.13 -75.284)" fill="#46d5ff"/>
        </g>
        <g id="Group_141" data-name="Group 141" transform="translate(0 103.921)" opacity="0.45">
          <path id="Path_533" data-name="Path 533" d="M73.018,166.285a3.679,3.679,0,1,1-3.679-3.679A3.68,3.68,0,0,1,73.018,166.285Z" transform="translate(-65.659 -162.606)" fill="#46d5ff"/>
          <path id="Path_534" data-name="Path 534" d="M82.405,166.285a3.678,3.678,0,1,1-3.679-3.679A3.68,3.68,0,0,1,82.405,166.285Z" transform="translate(-49.072 -162.606)" fill="#46d5ff"/>
          <circle id="Ellipse_88" data-name="Ellipse 88" cx="3.68" cy="3.68" r="3.68" transform="translate(51.95 0.001)" fill="#46d5ff"/>
          <circle id="Ellipse_89" data-name="Ellipse 89" cx="3.68" cy="3.68" r="3.68" transform="translate(77.926 0.001)" fill="#46d5ff"/>
          <circle id="Ellipse_90" data-name="Ellipse 90" cx="3.68" cy="3.68" r="3.68" transform="translate(103.9 0.001)" fill="#46d5ff"/>
          <path id="Path_535" data-name="Path 535" d="M119.967,166.285a3.681,3.681,0,1,1-3.682-3.679A3.682,3.682,0,0,1,119.967,166.285Z" transform="translate(17.27 -162.606)" fill="#46d5ff"/>
          <circle id="Ellipse_91" data-name="Ellipse 91" cx="3.68" cy="3.68" r="3.68" transform="translate(155.853 0.001)" fill="#46d5ff"/>
          <path id="Path_536" data-name="Path 536" d="M138.743,166.285a3.679,3.679,0,1,1-3.679-3.679A3.682,3.682,0,0,1,138.743,166.285Z" transform="translate(50.443 -162.606)" fill="#46d5ff"/>
          <path id="Path_537" data-name="Path 537" d="M73.018,175.675A3.679,3.679,0,1,1,69.338,172,3.68,3.68,0,0,1,73.018,175.675Z" transform="translate(-65.659 -146.019)" fill="#46d5ff"/>
          <path id="Path_538" data-name="Path 538" d="M82.405,175.675A3.678,3.678,0,1,1,78.726,172,3.68,3.68,0,0,1,82.405,175.675Z" transform="translate(-49.072 -146.019)" fill="#46d5ff"/>
          <circle id="Ellipse_92" data-name="Ellipse 92" cx="3.68" cy="3.68" r="3.68" transform="translate(51.95 25.977)" fill="#46d5ff"/>
          <circle id="Ellipse_93" data-name="Ellipse 93" cx="3.68" cy="3.68" r="3.68" transform="translate(77.926 25.977)" fill="#46d5ff"/>
          <circle id="Ellipse_94" data-name="Ellipse 94" cx="3.68" cy="3.68" r="3.68" transform="translate(103.9 25.977)" fill="#46d5ff"/>
          <path id="Path_539" data-name="Path 539" d="M119.967,175.675A3.681,3.681,0,1,1,116.284,172,3.682,3.682,0,0,1,119.967,175.675Z" transform="translate(17.27 -146.019)" fill="#46d5ff"/>
          <circle id="Ellipse_95" data-name="Ellipse 95" cx="3.68" cy="3.68" r="3.68" transform="translate(155.853 25.977)" fill="#46d5ff"/>
          <path id="Path_540" data-name="Path 540" d="M138.743,175.675A3.679,3.679,0,1,1,135.063,172,3.681,3.681,0,0,1,138.743,175.675Z" transform="translate(50.443 -146.019)" fill="#46d5ff"/>
          <path id="Path_541" data-name="Path 541" d="M73.018,185.064a3.679,3.679,0,1,1-3.679-3.679A3.68,3.68,0,0,1,73.018,185.064Z" transform="translate(-65.659 -129.433)" fill="#46d5ff"/>
          <path id="Path_542" data-name="Path 542" d="M82.405,185.064a3.678,3.678,0,1,1-3.679-3.679A3.68,3.68,0,0,1,82.405,185.064Z" transform="translate(-49.072 -129.433)" fill="#46d5ff"/>
          <path id="Path_543" data-name="Path 543" d="M91.8,185.064a3.679,3.679,0,1,1-3.679-3.679A3.681,3.681,0,0,1,91.8,185.064Z" transform="translate(-32.486 -129.433)" fill="#46d5ff"/>
          <path id="Path_544" data-name="Path 544" d="M101.186,185.064a3.679,3.679,0,1,1-3.679-3.679A3.68,3.68,0,0,1,101.186,185.064Z" transform="translate(-15.901 -129.433)" fill="#46d5ff"/>
          <path id="Path_545" data-name="Path 545" d="M110.575,185.064a3.679,3.679,0,1,1-3.679-3.679A3.681,3.681,0,0,1,110.575,185.064Z" transform="translate(0.685 -129.433)" fill="#46d5ff"/>
          <path id="Path_546" data-name="Path 546" d="M119.967,185.064a3.681,3.681,0,1,1-3.682-3.679A3.682,3.682,0,0,1,119.967,185.064Z" transform="translate(17.27 -129.433)" fill="#46d5ff"/>
          <path id="Path_547" data-name="Path 547" d="M129.354,185.064a3.679,3.679,0,1,1-3.679-3.679A3.68,3.68,0,0,1,129.354,185.064Z" transform="translate(33.857 -129.433)" fill="#46d5ff"/>
          <path id="Path_548" data-name="Path 548" d="M138.743,185.064a3.679,3.679,0,1,1-3.679-3.679A3.681,3.681,0,0,1,138.743,185.064Z" transform="translate(50.443 -129.433)" fill="#46d5ff"/>
          <path id="Path_549" data-name="Path 549" d="M73.018,194.456a3.679,3.679,0,1,1-3.679-3.682A3.68,3.68,0,0,1,73.018,194.456Z" transform="translate(-65.659 -112.848)" fill="#46d5ff"/>
          <path id="Path_550" data-name="Path 550" d="M82.405,194.456a3.678,3.678,0,1,1-3.679-3.682A3.68,3.68,0,0,1,82.405,194.456Z" transform="translate(-49.072 -112.848)" fill="#46d5ff"/>
          <circle id="Ellipse_96" data-name="Ellipse 96" cx="3.68" cy="3.68" r="3.68" transform="translate(51.95 77.927)" fill="#46d5ff"/>
          <circle id="Ellipse_97" data-name="Ellipse 97" cx="3.68" cy="3.68" r="3.68" transform="translate(77.926 77.927)" fill="#46d5ff"/>
          <circle id="Ellipse_98" data-name="Ellipse 98" cx="3.68" cy="3.68" r="3.68" transform="translate(103.9 77.927)" fill="#46d5ff"/>
          <path id="Path_551" data-name="Path 551" d="M119.967,194.456a3.681,3.681,0,1,1-3.682-3.682A3.682,3.682,0,0,1,119.967,194.456Z" transform="translate(17.27 -112.848)" fill="#46d5ff"/>
          <circle id="Ellipse_99" data-name="Ellipse 99" cx="3.68" cy="3.68" r="3.68" transform="translate(155.853 77.927)" fill="#46d5ff"/>
          <path id="Path_552" data-name="Path 552" d="M138.743,194.456a3.679,3.679,0,1,1-3.679-3.682A3.681,3.681,0,0,1,138.743,194.456Z" transform="translate(50.443 -112.848)" fill="#46d5ff"/>
          <circle id="Ellipse_100" data-name="Ellipse 100" cx="3.68" cy="3.68" r="3.68" transform="translate(207.802 0.001)" fill="#46d5ff"/>
          <path id="Path_553" data-name="Path 553" d="M157.519,166.285a3.678,3.678,0,1,1-3.679-3.679A3.68,3.68,0,0,1,157.519,166.285Z" transform="translate(83.616 -162.606)" fill="#46d5ff"/>
          <path id="Path_554" data-name="Path 554" d="M166.911,166.285a3.679,3.679,0,1,1-3.679-3.679A3.682,3.682,0,0,1,166.911,166.285Z" transform="translate(100.201 -162.606)" fill="#46d5ff"/>
          <circle id="Ellipse_101" data-name="Ellipse 101" cx="3.68" cy="3.68" r="3.68" transform="translate(285.729 0.001)" fill="#46d5ff"/>
          <path id="Path_555" data-name="Path 555" d="M185.689,166.285a3.679,3.679,0,1,1-3.679-3.679A3.682,3.682,0,0,1,185.689,166.285Z" transform="translate(133.372 -162.606)" fill="#46d5ff"/>
          <circle id="Ellipse_102" data-name="Ellipse 102" cx="3.68" cy="3.68" r="3.68" transform="translate(337.678 0.001)" fill="#46d5ff"/>
          <path id="Path_556" data-name="Path 556" d="M204.468,166.285a3.679,3.679,0,1,1-3.682-3.679A3.681,3.681,0,0,1,204.468,166.285Z" transform="translate(166.545 -162.606)" fill="#46d5ff"/>
          <circle id="Ellipse_103" data-name="Ellipse 103" cx="3.68" cy="3.68" r="3.68" transform="translate(389.628 0.001)" fill="#46d5ff"/>
          <circle id="Ellipse_104" data-name="Ellipse 104" cx="3.68" cy="3.68" r="3.68" transform="translate(207.802 25.977)" fill="#46d5ff"/>
          <path id="Path_557" data-name="Path 557" d="M157.519,175.675A3.678,3.678,0,1,1,153.84,172,3.68,3.68,0,0,1,157.519,175.675Z" transform="translate(83.616 -146.019)" fill="#46d5ff"/>
          <path id="Path_558" data-name="Path 558" d="M166.911,175.675A3.679,3.679,0,1,1,163.231,172,3.681,3.681,0,0,1,166.911,175.675Z" transform="translate(100.201 -146.019)" fill="#46d5ff"/>
          <circle id="Ellipse_105" data-name="Ellipse 105" cx="3.68" cy="3.68" r="3.68" transform="translate(285.729 25.977)" fill="#46d5ff"/>
          <path id="Path_559" data-name="Path 559" d="M185.689,175.675A3.679,3.679,0,1,1,182.009,172,3.681,3.681,0,0,1,185.689,175.675Z" transform="translate(133.372 -146.019)" fill="#46d5ff"/>
          <circle id="Ellipse_106" data-name="Ellipse 106" cx="3.68" cy="3.68" r="3.68" transform="translate(337.678 25.977)" fill="#46d5ff"/>
          <path id="Path_560" data-name="Path 560" d="M204.468,175.675A3.679,3.679,0,1,1,200.786,172,3.68,3.68,0,0,1,204.468,175.675Z" transform="translate(166.545 -146.019)" fill="#46d5ff"/>
          <circle id="Ellipse_107" data-name="Ellipse 107" cx="3.68" cy="3.68" r="3.68" transform="translate(389.628 25.978)" fill="#46d5ff"/>
          <path id="Path_561" data-name="Path 561" d="M148.135,185.064a3.681,3.681,0,1,1-3.682-3.679A3.682,3.682,0,0,1,148.135,185.064Z" transform="translate(67.028 -129.433)" fill="#46d5ff"/>
          <path id="Path_562" data-name="Path 562" d="M157.519,185.064a3.678,3.678,0,1,1-3.679-3.679A3.68,3.68,0,0,1,157.519,185.064Z" transform="translate(83.616 -129.433)" fill="#46d5ff"/>
          <path id="Path_563" data-name="Path 563" d="M166.911,185.064a3.679,3.679,0,1,1-3.679-3.679A3.681,3.681,0,0,1,166.911,185.064Z" transform="translate(100.201 -129.433)" fill="#46d5ff"/>
          <path id="Path_564" data-name="Path 564" d="M176.3,185.064a3.681,3.681,0,1,1-3.682-3.679A3.682,3.682,0,0,1,176.3,185.064Z" transform="translate(116.787 -129.433)" fill="#46d5ff"/>
          <path id="Path_565" data-name="Path 565" d="M185.689,185.064a3.679,3.679,0,1,1-3.679-3.679A3.681,3.681,0,0,1,185.689,185.064Z" transform="translate(133.372 -129.433)" fill="#46d5ff"/>
          <path id="Path_566" data-name="Path 566" d="M195.079,185.064a3.679,3.679,0,1,1-3.679-3.679A3.681,3.681,0,0,1,195.079,185.064Z" transform="translate(149.959 -129.433)" fill="#46d5ff"/>
          <path id="Path_567" data-name="Path 567" d="M204.468,185.064a3.679,3.679,0,1,1-3.682-3.679A3.68,3.68,0,0,1,204.468,185.064Z" transform="translate(166.545 -129.433)" fill="#46d5ff"/>
          <path id="Path_568" data-name="Path 568" d="M213.857,185.064a3.679,3.679,0,1,1-3.679-3.679A3.681,3.681,0,0,1,213.857,185.064Z" transform="translate(183.13 -129.433)" fill="#46d5ff"/>
          <circle id="Ellipse_108" data-name="Ellipse 108" cx="3.68" cy="3.68" r="3.68" transform="translate(207.802 77.927)" fill="#46d5ff"/>
          <path id="Path_569" data-name="Path 569" d="M157.519,194.456a3.678,3.678,0,1,1-3.679-3.682A3.68,3.68,0,0,1,157.519,194.456Z" transform="translate(83.616 -112.848)" fill="#46d5ff"/>
          <path id="Path_570" data-name="Path 570" d="M166.911,194.456a3.679,3.679,0,1,1-3.679-3.682A3.681,3.681,0,0,1,166.911,194.456Z" transform="translate(100.201 -112.848)" fill="#46d5ff"/>
          <circle id="Ellipse_109" data-name="Ellipse 109" cx="3.68" cy="3.68" r="3.68" transform="translate(285.729 77.927)" fill="#46d5ff"/>
          <path id="Path_571" data-name="Path 571" d="M185.689,194.456a3.679,3.679,0,1,1-3.679-3.682A3.681,3.681,0,0,1,185.689,194.456Z" transform="translate(133.372 -112.848)" fill="#46d5ff"/>
          <circle id="Ellipse_110" data-name="Ellipse 110" cx="3.68" cy="3.68" r="3.68" transform="translate(337.678 77.927)" fill="#46d5ff"/>
          <path id="Path_572" data-name="Path 572" d="M204.468,194.456a3.679,3.679,0,1,1-3.682-3.682A3.68,3.68,0,0,1,204.468,194.456Z" transform="translate(166.545 -112.848)" fill="#46d5ff"/>
          <circle id="Ellipse_111" data-name="Ellipse 111" cx="3.68" cy="3.68" r="3.68" transform="translate(389.628 77.927)" fill="#46d5ff"/>
        </g>
      </g>
      <g id="Group_145" data-name="Group 145" transform="translate(1680.825 258.794)">
        <g id="Group_143" data-name="Group 143" opacity="0.45">
          <path id="Path_573" data-name="Path 573" d="M614.918,97.184a3.679,3.679,0,1,1-3.679-3.679A3.682,3.682,0,0,1,614.918,97.184Z" transform="translate(-607.558 -93.505)" fill="#46d5ff"/>
          <path id="Path_574" data-name="Path 574" d="M624.3,97.184a3.678,3.678,0,1,1-3.679-3.679A3.678,3.678,0,0,1,624.3,97.184Z" transform="translate(-590.972 -93.505)" fill="#46d5ff"/>
          <path id="Path_575" data-name="Path 575" d="M633.7,97.184a3.679,3.679,0,1,1-3.679-3.679A3.682,3.682,0,0,1,633.7,97.184Z" transform="translate(-574.387 -93.505)" fill="#46d5ff"/>
          <path id="Path_576" data-name="Path 576" d="M643.086,97.184a3.68,3.68,0,1,1-3.68-3.679A3.682,3.682,0,0,1,643.086,97.184Z" transform="translate(-557.8 -93.505)" fill="#46d5ff"/>
          <path id="Path_577" data-name="Path 577" d="M652.474,97.184a3.679,3.679,0,1,1-3.679-3.679A3.68,3.68,0,0,1,652.474,97.184Z" transform="translate(-541.216 -93.505)" fill="#46d5ff"/>
          <path id="Path_578" data-name="Path 578" d="M661.864,97.184a3.679,3.679,0,1,1-3.679-3.679A3.682,3.682,0,0,1,661.864,97.184Z" transform="translate(-524.629 -93.505)" fill="#46d5ff"/>
          <path id="Path_579" data-name="Path 579" d="M671.256,97.184a3.681,3.681,0,1,1-3.68-3.679A3.682,3.682,0,0,1,671.256,97.184Z" transform="translate(-508.043 -93.505)" fill="#46d5ff"/>
          <path id="Path_580" data-name="Path 580" d="M680.642,97.184a3.679,3.679,0,1,1-3.679-3.679A3.68,3.68,0,0,1,680.642,97.184Z" transform="translate(-491.458 -93.505)" fill="#46d5ff"/>
          <circle id="Ellipse_112" data-name="Ellipse 112" cx="3.68" cy="3.68" r="3.68" transform="translate(0 25.974)" fill="#46d5ff"/>
          <path id="Path_581" data-name="Path 581" d="M624.3,106.573a3.678,3.678,0,1,1-3.679-3.679A3.678,3.678,0,0,1,624.3,106.573Z" transform="translate(-590.972 -76.92)" fill="#46d5ff"/>
          <path id="Path_582" data-name="Path 582" d="M633.7,106.573a3.679,3.679,0,1,1-3.679-3.679A3.681,3.681,0,0,1,633.7,106.573Z" transform="translate(-574.387 -76.92)" fill="#46d5ff"/>
          <path id="Path_583" data-name="Path 583" d="M643.086,106.573a3.68,3.68,0,1,1-3.68-3.679A3.681,3.681,0,0,1,643.086,106.573Z" transform="translate(-557.8 -76.92)" fill="#46d5ff"/>
          <circle id="Ellipse_113" data-name="Ellipse 113" cx="3.68" cy="3.68" r="3.68" transform="translate(103.9 25.974)" fill="#46d5ff"/>
          <path id="Path_584" data-name="Path 584" d="M661.864,106.573a3.679,3.679,0,1,1-3.679-3.679A3.681,3.681,0,0,1,661.864,106.573Z" transform="translate(-524.629 -76.92)" fill="#46d5ff"/>
          <circle id="Ellipse_114" data-name="Ellipse 114" cx="3.68" cy="3.68" r="3.68" transform="translate(155.852 25.974)" fill="#46d5ff"/>
          <circle id="Ellipse_115" data-name="Ellipse 115" cx="3.68" cy="3.68" r="3.68" transform="translate(181.826 25.974)" fill="#46d5ff"/>
          <circle id="Ellipse_116" data-name="Ellipse 116" cx="3.68" cy="3.68" r="3.68" transform="translate(0 51.948)" fill="#46d5ff"/>
          <path id="Path_585" data-name="Path 585" d="M624.3,115.962a3.678,3.678,0,1,1-3.679-3.679A3.678,3.678,0,0,1,624.3,115.962Z" transform="translate(-590.972 -60.334)" fill="#46d5ff"/>
          <path id="Path_586" data-name="Path 586" d="M633.7,115.962a3.679,3.679,0,1,1-3.679-3.679A3.681,3.681,0,0,1,633.7,115.962Z" transform="translate(-574.387 -60.334)" fill="#46d5ff"/>
          <path id="Path_587" data-name="Path 587" d="M643.086,115.962a3.68,3.68,0,1,1-3.68-3.679A3.681,3.681,0,0,1,643.086,115.962Z" transform="translate(-557.8 -60.334)" fill="#46d5ff"/>
          <circle id="Ellipse_117" data-name="Ellipse 117" cx="3.68" cy="3.68" r="3.68" transform="translate(103.9 51.948)" fill="#46d5ff"/>
          <path id="Path_588" data-name="Path 588" d="M661.864,115.962a3.679,3.679,0,1,1-3.679-3.679A3.681,3.681,0,0,1,661.864,115.962Z" transform="translate(-524.629 -60.334)" fill="#46d5ff"/>
          <circle id="Ellipse_118" data-name="Ellipse 118" cx="3.68" cy="3.68" r="3.68" transform="translate(155.852 51.948)" fill="#46d5ff"/>
          <circle id="Ellipse_119" data-name="Ellipse 119" cx="3.68" cy="3.68" r="3.68" transform="translate(181.826 51.948)" fill="#46d5ff"/>
          <circle id="Ellipse_120" data-name="Ellipse 120" cx="3.68" cy="3.68" r="3.68" transform="translate(0 77.927)" fill="#46d5ff"/>
          <path id="Path_589" data-name="Path 589" d="M624.3,125.352a3.678,3.678,0,1,1-3.679-3.679A3.676,3.676,0,0,1,624.3,125.352Z" transform="translate(-590.972 -43.747)" fill="#46d5ff"/>
          <path id="Path_590" data-name="Path 590" d="M633.7,125.352a3.679,3.679,0,1,1-3.679-3.679A3.679,3.679,0,0,1,633.7,125.352Z" transform="translate(-574.387 -43.747)" fill="#46d5ff"/>
          <path id="Path_591" data-name="Path 591" d="M643.086,125.352a3.68,3.68,0,1,1-3.68-3.679A3.68,3.68,0,0,1,643.086,125.352Z" transform="translate(-557.8 -43.747)" fill="#46d5ff"/>
          <circle id="Ellipse_121" data-name="Ellipse 121" cx="3.68" cy="3.68" r="3.68" transform="translate(103.9 77.927)" fill="#46d5ff"/>
          <path id="Path_592" data-name="Path 592" d="M661.864,125.352a3.679,3.679,0,1,1-3.679-3.679A3.68,3.68,0,0,1,661.864,125.352Z" transform="translate(-524.629 -43.747)" fill="#46d5ff"/>
          <circle id="Ellipse_122" data-name="Ellipse 122" cx="3.68" cy="3.68" r="3.68" transform="translate(155.852 77.927)" fill="#46d5ff"/>
          <circle id="Ellipse_123" data-name="Ellipse 123" cx="3.68" cy="3.68" r="3.68" transform="translate(181.826 77.927)" fill="#46d5ff"/>
        </g>
        <g id="Group_144" data-name="Group 144" transform="translate(0 103.922)" opacity="0.45">
          <circle id="Ellipse_124" data-name="Ellipse 124" cx="3.68" cy="3.68" r="3.68" fill="#46d5ff"/>
          <path id="Path_593" data-name="Path 593" d="M624.3,134.749a3.678,3.678,0,1,1-3.679-3.679A3.678,3.678,0,0,1,624.3,134.749Z" transform="translate(-590.972 -131.069)" fill="#46d5ff"/>
          <path id="Path_594" data-name="Path 594" d="M633.7,134.749a3.679,3.679,0,1,1-3.679-3.679A3.681,3.681,0,0,1,633.7,134.749Z" transform="translate(-574.387 -131.069)" fill="#46d5ff"/>
          <path id="Path_595" data-name="Path 595" d="M643.086,134.749a3.68,3.68,0,1,1-3.68-3.679A3.681,3.681,0,0,1,643.086,134.749Z" transform="translate(-557.8 -131.069)" fill="#46d5ff"/>
          <circle id="Ellipse_125" data-name="Ellipse 125" cx="3.68" cy="3.68" r="3.68" transform="translate(103.9)" fill="#46d5ff"/>
          <path id="Path_596" data-name="Path 596" d="M661.864,134.749a3.679,3.679,0,1,1-3.679-3.679A3.681,3.681,0,0,1,661.864,134.749Z" transform="translate(-524.629 -131.069)" fill="#46d5ff"/>
          <circle id="Ellipse_126" data-name="Ellipse 126" cx="3.68" cy="3.68" r="3.68" transform="translate(155.852)" fill="#46d5ff"/>
          <circle id="Ellipse_127" data-name="Ellipse 127" cx="3.68" cy="3.68" r="3.68" transform="translate(181.826)" fill="#46d5ff"/>
          <path id="Path_597" data-name="Path 597" d="M614.918,144.141a3.679,3.679,0,1,1-3.679-3.682A3.681,3.681,0,0,1,614.918,144.141Z" transform="translate(-607.558 -114.484)" fill="#46d5ff"/>
          <path id="Path_598" data-name="Path 598" d="M624.3,144.141a3.678,3.678,0,1,1-3.679-3.682A3.678,3.678,0,0,1,624.3,144.141Z" transform="translate(-590.972 -114.484)" fill="#46d5ff"/>
          <path id="Path_599" data-name="Path 599" d="M633.7,144.141a3.679,3.679,0,1,1-3.679-3.682A3.681,3.681,0,0,1,633.7,144.141Z" transform="translate(-574.387 -114.484)" fill="#46d5ff"/>
          <path id="Path_600" data-name="Path 600" d="M643.086,144.141a3.68,3.68,0,1,1-3.68-3.682A3.681,3.681,0,0,1,643.086,144.141Z" transform="translate(-557.8 -114.484)" fill="#46d5ff"/>
          <path id="Path_601" data-name="Path 601" d="M652.474,144.141a3.679,3.679,0,1,1-3.679-3.682A3.68,3.68,0,0,1,652.474,144.141Z" transform="translate(-541.216 -114.484)" fill="#46d5ff"/>
          <path id="Path_602" data-name="Path 602" d="M661.864,144.141a3.679,3.679,0,1,1-3.679-3.682A3.681,3.681,0,0,1,661.864,144.141Z" transform="translate(-524.629 -114.484)" fill="#46d5ff"/>
          <path id="Path_603" data-name="Path 603" d="M671.256,144.141a3.681,3.681,0,1,1-3.68-3.682A3.681,3.681,0,0,1,671.256,144.141Z" transform="translate(-508.043 -114.484)" fill="#46d5ff"/>
          <path id="Path_604" data-name="Path 604" d="M680.642,144.141a3.679,3.679,0,1,1-3.679-3.682A3.679,3.679,0,0,1,680.642,144.141Z" transform="translate(-491.458 -114.484)" fill="#46d5ff"/>
          <circle id="Ellipse_128" data-name="Ellipse 128" cx="3.68" cy="3.68" r="3.68" transform="translate(0 51.95)" fill="#46d5ff"/>
          <path id="Path_605" data-name="Path 605" d="M624.3,153.527a3.678,3.678,0,1,1-3.679-3.679A3.676,3.676,0,0,1,624.3,153.527Z" transform="translate(-590.972 -97.898)" fill="#46d5ff"/>
          <path id="Path_606" data-name="Path 606" d="M633.7,153.527a3.679,3.679,0,1,1-3.679-3.679A3.68,3.68,0,0,1,633.7,153.527Z" transform="translate(-574.387 -97.898)" fill="#46d5ff"/>
          <path id="Path_607" data-name="Path 607" d="M643.086,153.527a3.68,3.68,0,1,1-3.68-3.679A3.68,3.68,0,0,1,643.086,153.527Z" transform="translate(-557.8 -97.898)" fill="#46d5ff"/>
          <circle id="Ellipse_129" data-name="Ellipse 129" cx="3.68" cy="3.68" r="3.68" transform="translate(103.9 51.95)" fill="#46d5ff"/>
          <path id="Path_608" data-name="Path 608" d="M661.864,153.527a3.679,3.679,0,1,1-3.679-3.679A3.68,3.68,0,0,1,661.864,153.527Z" transform="translate(-524.629 -97.898)" fill="#46d5ff"/>
          <circle id="Ellipse_130" data-name="Ellipse 130" cx="3.68" cy="3.68" r="3.68" transform="translate(155.852 51.95)" fill="#46d5ff"/>
          <circle id="Ellipse_131" data-name="Ellipse 131" cx="3.68" cy="3.68" r="3.68" transform="translate(181.826 51.95)" fill="#46d5ff"/>
          <path id="Path_609" data-name="Path 609" d="M614.918,162.917a3.679,3.679,0,1,1-3.679-3.679A3.681,3.681,0,0,1,614.918,162.917Z" transform="translate(-607.558 -81.311)" fill="#46d5ff"/>
          <path id="Path_610" data-name="Path 610" d="M624.3,162.917a3.678,3.678,0,1,1-3.679-3.679A3.678,3.678,0,0,1,624.3,162.917Z" transform="translate(-590.972 -81.311)" fill="#46d5ff"/>
          <path id="Path_611" data-name="Path 611" d="M633.7,162.917a3.679,3.679,0,1,1-3.679-3.679A3.681,3.681,0,0,1,633.7,162.917Z" transform="translate(-574.387 -81.311)" fill="#46d5ff"/>
          <path id="Path_612" data-name="Path 612" d="M643.086,162.917a3.68,3.68,0,1,1-3.68-3.679A3.681,3.681,0,0,1,643.086,162.917Z" transform="translate(-557.8 -81.311)" fill="#46d5ff"/>
          <path id="Path_613" data-name="Path 613" d="M652.474,162.917a3.679,3.679,0,1,1-3.679-3.679A3.68,3.68,0,0,1,652.474,162.917Z" transform="translate(-541.216 -81.311)" fill="#46d5ff"/>
          <path id="Path_614" data-name="Path 614" d="M661.864,162.917a3.679,3.679,0,1,1-3.679-3.679A3.681,3.681,0,0,1,661.864,162.917Z" transform="translate(-524.629 -81.311)" fill="#46d5ff"/>
          <path id="Path_615" data-name="Path 615" d="M671.256,162.917a3.681,3.681,0,1,1-3.68-3.679A3.681,3.681,0,0,1,671.256,162.917Z" transform="translate(-508.043 -81.311)" fill="#46d5ff"/>
          <path id="Path_616" data-name="Path 616" d="M680.642,162.917a3.679,3.679,0,1,1-3.679-3.679A3.679,3.679,0,0,1,680.642,162.917Z" transform="translate(-491.458 -81.311)" fill="#46d5ff"/>
        </g>
      </g>
      <g id="Group_146" data-name="Group 146" transform="translate(221.345 1101.174)" opacity="0.4">
        <path id="Path_617" data-name="Path 617" d="M124.249,408.225a5.112,5.112,0,1,1,5.112-5.11A5.111,5.111,0,0,1,124.249,408.225Z" transform="translate(-10.865 -398)" fill="#46d5ff"/>
        <path id="Path_618" data-name="Path 618" d="M124.249,421.271a5.112,5.112,0,1,1,5.112-5.112A5.113,5.113,0,0,1,124.249,421.271Z" transform="translate(-10.865 -374.954)" fill="#46d5ff"/>
        <path id="Path_619" data-name="Path 619" d="M124.249,434.317a5.112,5.112,0,1,1,5.112-5.112A5.113,5.113,0,0,1,124.249,434.317Z" transform="translate(-10.865 -351.909)" fill="#46d5ff"/>
        <path id="Path_620" data-name="Path 620" d="M124.249,447.36a5.111,5.111,0,1,1,5.112-5.113A5.111,5.111,0,0,1,124.249,447.36Z" transform="translate(-10.865 -328.864)" fill="#46d5ff"/>
        <path id="Path_621" data-name="Path 621" d="M111.2,408.225a5.112,5.112,0,1,1,5.112-5.11A5.112,5.112,0,0,1,111.2,408.225Z" transform="translate(-33.911 -398)" fill="#46d5ff"/>
        <path id="Path_622" data-name="Path 622" d="M111.2,421.271a5.112,5.112,0,1,1,5.112-5.112A5.115,5.115,0,0,1,111.2,421.271Z" transform="translate(-33.911 -374.954)" fill="#46d5ff"/>
        <path id="Path_623" data-name="Path 623" d="M111.2,434.317a5.112,5.112,0,1,1,5.112-5.112A5.115,5.115,0,0,1,111.2,434.317Z" transform="translate(-33.911 -351.909)" fill="#46d5ff"/>
        <path id="Path_624" data-name="Path 624" d="M111.2,447.36a5.111,5.111,0,1,1,5.112-5.113A5.113,5.113,0,0,1,111.2,447.36Z" transform="translate(-33.911 -328.864)" fill="#46d5ff"/>
        <path id="Path_625" data-name="Path 625" d="M98.16,408.225a5.112,5.112,0,1,1,5.11-5.11A5.113,5.113,0,0,1,98.16,408.225Z" transform="translate(-56.956 -398)" fill="#46d5ff"/>
        <path id="Path_626" data-name="Path 626" d="M98.16,421.271a5.112,5.112,0,1,1,5.11-5.112A5.115,5.115,0,0,1,98.16,421.271Z" transform="translate(-56.956 -374.954)" fill="#46d5ff"/>
        <path id="Path_627" data-name="Path 627" d="M98.16,434.317a5.112,5.112,0,1,1,5.11-5.112A5.115,5.115,0,0,1,98.16,434.317Z" transform="translate(-56.956 -351.909)" fill="#46d5ff"/>
        <path id="Path_628" data-name="Path 628" d="M98.16,447.36a5.111,5.111,0,1,1,5.11-5.113A5.113,5.113,0,0,1,98.16,447.36Z" transform="translate(-56.956 -328.864)" fill="#46d5ff"/>
        <path id="Path_629" data-name="Path 629" d="M85.112,408.225a5.112,5.112,0,1,1,5.112-5.11A5.111,5.111,0,0,1,85.112,408.225Z" transform="translate(-80 -398)" fill="#46d5ff"/>
        <path id="Path_630" data-name="Path 630" d="M85.112,421.271a5.112,5.112,0,1,1,5.112-5.112A5.113,5.113,0,0,1,85.112,421.271Z" transform="translate(-80 -374.954)" fill="#46d5ff"/>
        <path id="Path_631" data-name="Path 631" d="M85.112,434.317a5.112,5.112,0,1,1,5.112-5.112A5.113,5.113,0,0,1,85.112,434.317Z" transform="translate(-80 -351.909)" fill="#46d5ff"/>
        <path id="Path_632" data-name="Path 632" d="M85.112,447.36a5.111,5.111,0,1,1,5.112-5.113A5.111,5.111,0,0,1,85.112,447.36Z" transform="translate(-80 -328.864)" fill="#46d5ff"/>
      </g>
      <g id="Group_147" data-name="Group 147" transform="translate(955.048 160.283)" opacity="0.4">
        <path id="Path_633" data-name="Path 633" d="M375.985,65.006a3.555,3.555,0,1,1,3.555-3.552A3.553,3.553,0,0,1,375.985,65.006Z" transform="translate(-297.132 -57.896)" fill="#46d5ff"/>
        <path id="Path_634" data-name="Path 634" d="M375.985,74.079a3.555,3.555,0,1,1,3.555-3.558A3.556,3.556,0,0,1,375.985,74.079Z" transform="translate(-297.132 -41.869)" fill="#46d5ff"/>
        <path id="Path_635" data-name="Path 635" d="M375.985,83.154A3.556,3.556,0,1,1,379.54,79.6,3.556,3.556,0,0,1,375.985,83.154Z" transform="translate(-297.132 -25.843)" fill="#46d5ff"/>
        <path id="Path_636" data-name="Path 636" d="M375.985,92.224a3.555,3.555,0,1,1,3.555-3.558A3.556,3.556,0,0,1,375.985,92.224Z" transform="translate(-297.132 -9.816)" fill="#46d5ff"/>
        <path id="Path_637" data-name="Path 637" d="M366.915,65.006a3.555,3.555,0,1,1,3.555-3.552A3.556,3.556,0,0,1,366.915,65.006Z" transform="translate(-313.159 -57.896)" fill="#46d5ff"/>
        <path id="Path_638" data-name="Path 638" d="M366.915,74.079a3.555,3.555,0,1,1,3.555-3.558A3.559,3.559,0,0,1,366.915,74.079Z" transform="translate(-313.159 -41.869)" fill="#46d5ff"/>
        <path id="Path_639" data-name="Path 639" d="M366.915,83.154A3.556,3.556,0,1,1,370.47,79.6,3.559,3.559,0,0,1,366.915,83.154Z" transform="translate(-313.159 -25.843)" fill="#46d5ff"/>
        <path id="Path_640" data-name="Path 640" d="M366.915,92.224a3.555,3.555,0,1,1,3.555-3.558A3.559,3.559,0,0,1,366.915,92.224Z" transform="translate(-313.159 -9.816)" fill="#46d5ff"/>
        <path id="Path_641" data-name="Path 641" d="M357.84,65.006a3.555,3.555,0,1,1,3.552-3.552A3.551,3.551,0,0,1,357.84,65.006Z" transform="translate(-329.185 -57.896)" fill="#46d5ff"/>
        <path id="Path_642" data-name="Path 642" d="M357.84,74.079a3.555,3.555,0,1,1,3.552-3.558A3.554,3.554,0,0,1,357.84,74.079Z" transform="translate(-329.185 -41.869)" fill="#46d5ff"/>
        <path id="Path_643" data-name="Path 643" d="M357.84,83.154a3.556,3.556,0,1,1,3.552-3.558A3.554,3.554,0,0,1,357.84,83.154Z" transform="translate(-329.185 -25.843)" fill="#46d5ff"/>
        <path id="Path_644" data-name="Path 644" d="M357.84,92.224a3.555,3.555,0,1,1,3.552-3.558A3.554,3.554,0,0,1,357.84,92.224Z" transform="translate(-329.185 -9.816)" fill="#46d5ff"/>
        <path id="Path_645" data-name="Path 645" d="M348.767,65.006a3.555,3.555,0,1,1,3.555-3.552A3.555,3.555,0,0,1,348.767,65.006Z" transform="translate(-345.212 -57.896)" fill="#46d5ff"/>
        <path id="Path_646" data-name="Path 646" d="M348.767,74.079a3.555,3.555,0,1,1,3.555-3.558A3.558,3.558,0,0,1,348.767,74.079Z" transform="translate(-345.212 -41.869)" fill="#46d5ff"/>
        <path id="Path_647" data-name="Path 647" d="M348.767,83.154a3.556,3.556,0,1,1,3.555-3.558A3.558,3.558,0,0,1,348.767,83.154Z" transform="translate(-345.212 -25.843)" fill="#46d5ff"/>
        <path id="Path_648" data-name="Path 648" d="M348.767,92.224a3.555,3.555,0,1,1,3.555-3.558A3.558,3.558,0,0,1,348.767,92.224Z" transform="translate(-345.212 -9.816)" fill="#46d5ff"/>
      </g>
    </g>
  </g>
</svg>
