<svg xmlns="http://www.w3.org/2000/svg" width="349.792" height="709.029" viewBox="0 0 349.792 709.029">
  <g id="whatsapp-device" transform="translate(-936.989 -813.992)">
    <rect id="Screen_Object" data-name="Screen Object" width="310.857" height="674.822" rx="32" transform="translate(956.116 830.997)" fill="#4caf50"/>
    <path id="Bezel" d="M1283.15,976.837V865.692c0-28.539-22.729-51.7-50.756-51.7H991.1c-28.027,0-50.741,23.156-50.741,51.7v44A5.031,5.031,0,0,0,937,914.451v17.573a5.036,5.036,0,0,0,3.363,4.772V957.26A5.037,5.037,0,0,0,937,962.032v44.629a5.016,5.016,0,0,0,3.363,4.757v13.077a5.031,5.031,0,0,0-3.363,4.756v44.629a5.036,5.036,0,0,0,3.363,4.772v392.669c0,28.55,22.718,51.7,50.741,51.7h241.3c28.032,0,50.756-23.152,50.756-51.71V1061.35a5.014,5.014,0,0,0,3.633-4.848v-74.82a5.014,5.014,0,0,0-3.639-4.845Zm-6.711,495.1c0,24.746-19.7,44.813-43.986,44.813h-241.4c-24.3,0-44-20.066-44-44.813V865.08c0-24.746,19.7-44.812,44-44.812h241.4c24.29,0,43.986,20.066,43.986,44.813Z" transform="translate(-0.008)"/>
    <path id="Bezel-2" data-name="Bezel" d="M1259.62,836H1018.67c-24.26,0-43.919,20.055-43.919,44.787V1487.3c0,24.733,19.66,44.788,43.919,44.788h240.949c24.245,0,43.9-20.055,43.9-44.788V880.783C1303.53,856.05,1283.87,836,1259.62,836Zm34.419,652.525c0,18.083-14.37,32.742-32.112,32.742H1016.35c-17.726,0-32.1-14.659-32.1-32.742V879.56c0-18.083,14.37-32.742,32.1-32.742h33.071v.275a4.658,4.658,0,0,1,4.6,4.693,19.972,19.972,0,0,0,5.679,14,19.154,19.154,0,0,0,13.711,5.793H1204.03a19.594,19.594,0,0,0,19.39-19.8,4.742,4.742,0,0,1,1.364-3.317,4.553,4.553,0,0,1,3.251-1.376v-.275h33.9c17.742,0,32.112,14.659,32.112,32.742Z" transform="translate(-27.265 -15.882)" fill="#010003"/>
    <path id="Shape_5" data-name="Shape 5" d="M0,166.036V119.347a3.721,3.721,0,0,1,3.676-3.765V169.8A3.721,3.721,0,0,1,0,166.036Zm346.111-98.5a3.721,3.721,0,0,1,3.675,3.765v77.319a3.721,3.721,0,0,1-3.675,3.765ZM0,98.281V51.592a3.721,3.721,0,0,1,3.676-3.765v54.22A3.721,3.721,0,0,1,0,98.281ZM0,23.5V3.765A3.721,3.721,0,0,1,3.676,0V27.266A3.721,3.721,0,0,1,0,23.5Z" transform="translate(936.989 908.788)"/>
    <path id="Shape_6" data-name="Shape 6" d="M55.08,17.217a2.823,2.823,0,1,1,0-5.645h36.9a2.823,2.823,0,1,1,0,5.645Zm-.419-9.6a3.81,3.81,0,0,1,0-7.62H92.4a3.81,3.81,0,1,1,0,7.62Z" transform="translate(1037.535 827.759)" fill="#484450"/>
    <g id="whatsapp" transform="translate(0 23.536)">
      <text id="WhatsApp-2" data-name="WhatsApp" transform="translate(1030.54 1247.997)" fill="#fff" font-size="36" font-family="Barlow-Medium, Barlow" font-weight="500"><tspan x="0" y="0">WhatsApp</tspan></text>
      <path id="whatsapp-3" data-name="whatsapp" d="M127.782,21.8A74.346,74.346,0,0,0,10.8,111.484L.25,150l39.4-10.336a74.25,74.25,0,0,0,35.52,9.047h.03A74.361,74.361,0,0,0,127.782,21.8ZM75.2,136.158h-.026a61.7,61.7,0,0,1-31.448-8.613l-2.251-1.337L18.1,132.341l6.241-22.8L22.872,107.2A61.779,61.779,0,1,1,75.2,136.158Zm33.887-46.27c-1.857-.93-10.988-5.422-12.691-6.042s-2.941-.928-4.178.93-4.8,6.043-5.881,7.281-2.166,1.4-4.024.465A50.727,50.727,0,0,1,67.381,83.3,56.022,56.022,0,0,1,57.049,70.439c-1.082-1.86-.009-2.769.815-3.79A52.533,52.533,0,0,0,62.507,60.3a3.416,3.416,0,0,0-.156-3.254c-.463-.929-4.178-10.071-5.725-13.791-1.509-3.62-3.039-3.131-4.179-3.188C51.365,40.01,50.126,40,48.887,40a6.821,6.821,0,0,0-4.953,2.325,20.83,20.83,0,0,0-6.5,15.493c0,9.142,6.655,17.973,7.583,19.212s13.1,20,31.727,28.042a106.31,106.31,0,0,0,10.588,3.913,25.461,25.461,0,0,0,11.7.736c3.569-.534,10.987-4.493,12.536-8.831s1.547-8.057,1.082-8.832-1.7-1.239-3.559-2.169Zm0,0" transform="translate(1037.285 1034.461)" fill="#fff" fill-rule="evenodd"/>
    </g>
    <circle id="Ellipse_382" data-name="Ellipse 382" cx="7.5" cy="7.5" r="7.5" transform="translate(1039.948 836.021)" fill="#484450"/>
    <circle id="Ellipse_383" data-name="Ellipse 383" cx="7.5" cy="7.5" r="7.5" transform="translate(1171.948 836.021)" fill="#484450"/>
  </g>
</svg>
