<svg xmlns="http://www.w3.org/2000/svg" width="79.378" height="51.062" viewBox="0 0 79.378 51.062">
  <path id="What_we_do" data-name="What we do" d="M87.971,111.9a.964.964,0,0,0-1.322-.329l-7.628,4.582a.964.964,0,0,0-.426.554l-1.625,5.557c-.058-.026-.116-.053-.175-.077L54.182,110.349a.964.964,0,0,0-1.066.119c-.053.045-5.248,4.45-9.687,7.953a5.743,5.743,0,0,1-6.726.519l7.622-10.473a11.945,11.945,0,0,1,10.651-4.852L66.7,104.881a.964.964,0,0,0,.719-.217l7.01-5.846A.964.964,0,0,0,73.2,97.34l-6.7,5.582L55.158,101.7a13.876,13.876,0,0,0-7.921,1.7l-15.522.177L25,97.8a.964.964,0,0,0-1.254,1.46l6.991,6.008a.964.964,0,0,0,.628.233h.011l13.15-.151a13.726,13.726,0,0,0-1.767,1.98l-8.2,11.276a.964.964,0,0,0,.161,1.3,7.784,7.784,0,0,0,9.9.022c3.668-2.889,7.844-6.389,9.25-7.579l22.129,11.576a3.835,3.835,0,0,1,.927.533l.022.018a3.978,3.978,0,0,1,1.476,2.57,3.355,3.355,0,0,1-1.256,3.212,3.665,3.665,0,0,1-1.5.684c-3.427.707-11.867-2.769-14.833-4.176a.965.965,0,0,0-.825,1.744c.363.172,7.227,3.39,12.429,4.237a6.492,6.492,0,0,1-2.2,3.909,3.784,3.784,0,0,1-3.12.454A110.3,110.3,0,0,1,55.9,133.851a.964.964,0,0,0-.642,1.81c.056.021,5.3,1.887,10.59,3.135-.3,1.323-1.372,3.763-5.285,3.657a17.66,17.66,0,0,1-9.055-2.494.964.964,0,0,0-1.124,1.556,16.725,16.725,0,0,0,6.024,2.372c-1.8,1.494-5.224,3.546-8.94,1.659C45.925,144.763,45,144.29,44.446,144l-.018-.016a19.915,19.915,0,0,0,3-2.37.94.94,0,0,0,.2-.3,4.979,4.979,0,0,0-.112-3.893,5.6,5.6,0,0,0-3.652-2.7c-.421-1.285-1.718-4.346-4.665-4.914a5.4,5.4,0,0,0-1.081-2.663,8.257,8.257,0,0,0-5.367-2.817c-.241-2.248-3.212-4.357-4.979-5.268h0c-3.069-1.575-10.129,1.346-13.132,2.73l-4.211-4.4a.964.964,0,1,0-1.389,1.33l3.906,4.087a3.651,3.651,0,0,0-1.285,4.249,9.478,9.478,0,0,0,4.58,4.273,6.092,6.092,0,0,0,1.683.357c.564,1.974,2.144,4.919,5.073,5.735a6.864,6.864,0,0,0,6.328,4.93c.532,1.884,2.351,4.424,6.676,4.424h.313a14.8,14.8,0,0,0,6.217-1.7c.074.055.161.111.255.172l-.01.022.161.072c.671.4,1.805.981,3.644,1.916a8.512,8.512,0,0,0,3.9.949c3.568,0,6.7-2.215,8.351-3.952.533.055,1.081.1,1.661.117h.363c4.582,0,6.4-2.986,6.883-5.232.18.014.36.026.535.026a5.282,5.282,0,0,0,3.064-.931c2.448-1.691,2.981-5.07,3.013-5.29.1,0,.207.008.307.008a6.828,6.828,0,0,0,1.394-.128,5.555,5.555,0,0,0,2.282-1.044,5.3,5.3,0,0,0,1.983-5,5.96,5.96,0,0,0-1.683-3.373l1.694-5.8,7.307-4.388a.964.964,0,0,0,.329-1.327ZM13.433,126.319c-.459-1.1.694-2.1,1.394-2.494,3.764-1.8,8.19-3.3,10.68-3.3a3.112,3.112,0,0,1,1.381.252c2.348,1.2,3.944,2.952,3.962,3.829,0,.106,0,.321-.451.583l-.533.305c-2.57,1.473-9.406,5.383-12.941,4.041A7.753,7.753,0,0,1,13.433,126.319Zm6.487,5.3c4.007-.522,8.608-3.151,10.9-4.465l.524-.3a3.13,3.13,0,0,0,.843-.681c4.452.7,5.068,3,5.125,3.967-2.751,1.779-9.326,5.576-12.707,5.576-2.849,0-4.177-2.676-4.68-4.094Zm5.211,6c4.529-.352,11.857-4.979,13.386-5.966,2.04.2,3.072,2.409,3.456,3.488-1.739,1.285-7.493,5.292-11.867,5.317h-.05a5.026,5.026,0,0,1-4.919-2.835Zm11.123,7.227c-3.273.116-4.482-1.46-4.929-2.552,4.9-.628,10.458-4.6,11.971-5.743a3.822,3.822,0,0,1,2.492,1.71,2.958,2.958,0,0,1,.124,2.13c-.819.771-4.911,4.333-9.652,4.463Z" transform="translate(-8.733 -97.153)" fill="#219ebc"/>
</svg>
