<svg xmlns="http://www.w3.org/2000/svg" width="61.522" height="58.004" viewBox="0 0 61.522 58.004">
  <path id="why_choose_us" data-name="why choose us" d="M104.949,112.835H99.725V87.711h5.224a.777.777,0,1,0,0-1.554h-6a.777.777,0,0,0-.777.777v9.85H96.38a31.45,31.45,0,0,0-15.369-7.923l-.022-2A13.812,13.812,0,0,0,71,73.664,8.837,8.837,0,0,0,67.128,56.89h-.039A8.837,8.837,0,0,0,63.309,73.7,13.809,13.809,0,0,0,53.43,86.979l.02,3.4c-.322-.17-.625-.331-.907-.476a5.789,5.789,0,0,0-6.96.879,2.7,2.7,0,0,0-.878,2.053A2.769,2.769,0,0,0,45.7,94.9L64.458,110.53a9.869,9.869,0,0,0,6.353,2.31c.289,0,.592-.014.889-.04l20.752-1.831h5.719v2.648a.777.777,0,0,0,.777.777h6a.777.777,0,0,0,0-1.554ZM59.841,65.764a7.292,7.292,0,0,1,7.253-7.313h.035a7.283,7.283,0,0,1,.027,14.566h-.027a7.29,7.29,0,0,1-7.287-7.26Zm-4.862,21.2A12.246,12.246,0,0,1,67.16,74.692h.051A12.244,12.244,0,0,1,79.437,86.874l.016,1.665c-2.342-.443-4.41-.656-5.959-.814l-.6-.062a6.385,6.385,0,0,0-4.909,1.389,3.086,3.086,0,0,0,.546,5.107c2.622,1.359,4.964,2.6,6.555,3.442l-6.99.905c-1.34-.759-8.317-4.71-13.092-7.3Zm37.4,22.448-20.822,1.834a8.315,8.315,0,0,1-6.1-1.91L46.693,93.7a1.211,1.211,0,0,1-.433-.91,1.126,1.126,0,0,1,.368-.866,4.231,4.231,0,0,1,5.2-.653c4.684,2.439,15.62,8.65,15.73,8.712a.8.8,0,0,0,.484.1l9.405-1.219,4.7,2.563a.777.777,0,0,0,.745-1.364L77.97,97.375h0s-3.883-2.094-8.714-4.6a1.507,1.507,0,0,1-.816-1.2,1.484,1.484,0,0,1,.537-1.326A4.88,4.88,0,0,1,72.742,89.2l.6.064c4.838.5,14.9,1.529,22.172,8.839a.78.78,0,0,0,.55.23h2.1v11.076Z" transform="translate(-44.455 -56.64)" fill="#3a6bea" stroke="#3a6bea" stroke-width="0.5"/>
</svg>
