<svg xmlns="http://www.w3.org/2000/svg" width="38" height="38" viewBox="0 0 38 38">
  <g id="Experience" transform="translate(-327 -257)">
    <rect id="Rectangle_568" data-name="Rectangle 568" width="38" height="38" rx="5" transform="translate(327 257)" fill="#e2eafe"/>
    <path id="Path_3071" data-name="Path 3071" d="M13.113,966.362a1.692,1.692,0,0,0-.9.242,1.213,1.213,0,0,0-.562,1.013v1.255H6.379a.418.418,0,0,0-.379.418v9.625a2.514,2.514,0,0,0,2.511,2.511H21.9a2.514,2.514,0,0,0,2.511-2.511v-9.625c0-.013,0-.026,0-.039a.418.418,0,0,0-.19-.307.388.388,0,0,0-.039-.026l-.039-.013a.427.427,0,0,0-.078-.026h-.039l-.033-.006H18.762v-1.255A1.213,1.213,0,0,0,18.2,966.6a1.693,1.693,0,0,0-.9-.242H13.113Zm0,.837H17.3a.987.987,0,0,1,.458.118.288.288,0,0,1,.17.3v1.255h-5.44v-1.255a.288.288,0,0,1,.17-.3.987.987,0,0,1,.458-.118ZM6.837,969.71H23.575v2.9a.229.229,0,0,0-.033.026,1.146,1.146,0,0,1-.32.19,3.6,3.6,0,0,1-1.321.236H16.67v-.419a1.262,1.262,0,0,0-1.255-1.255H15a1.262,1.262,0,0,0-1.255,1.255v.419H8.511a3.6,3.6,0,0,1-1.321-.236,1.146,1.146,0,0,1-.32-.19.229.229,0,0,0-.033-.026v-2.9ZM15,972.22h.418a.409.409,0,0,1,.418.418v1.674a.409.409,0,0,1-.418.418H15a.409.409,0,0,1-.418-.418v-1.674A.409.409,0,0,1,15,972.22Zm-8.16,1.36.033.013a4.333,4.333,0,0,0,1.641.3h5.231v.419A1.262,1.262,0,0,0,15,975.568h.418a1.262,1.262,0,0,0,1.255-1.255v-.419H21.9a4.333,4.333,0,0,0,1.641-.3l.033-.013v5.335a1.661,1.661,0,0,1-1.674,1.674H8.511a1.661,1.661,0,0,1-1.674-1.674V973.58Z" transform="translate(330.588 -697.063)" fill="#1f3c88"/>
  </g>
</svg>
