<svg xmlns="http://www.w3.org/2000/svg" width="38" height="38" viewBox="0 0 38 38">
  <g id="Job_role" data-name="Job role" transform="translate(-302 -258)">
    <path id="Path_3072" data-name="Path 3072" d="M25.344,18.144v-.936a3.984,3.984,0,0,0-2.376-3.636l-3.168-1.4a3.211,3.211,0,0,0,.864-2.16l.864-.432A1.084,1.084,0,0,0,22.14,8.6V8.352a1.061,1.061,0,0,0-1.08-1.08H20.7V4.752a1.783,1.783,0,0,0-1.8-1.8h-.18a1.689,1.689,0,0,1-1.26-.54L16.848,1.8,14.8,2.484a2.7,2.7,0,0,0-.72.36l-.288.216a2.525,2.525,0,0,0-1.044,2.052v2.16h-.36a1.061,1.061,0,0,0-1.08,1.08V8.64a1.061,1.061,0,0,0,.612.972l.864.432a3.281,3.281,0,0,0,.864,2.16l-3.168,1.4A3.984,3.984,0,0,0,8.1,17.244v6.228H25.02a1.061,1.061,0,0,0,1.08-1.08v-3.24A1.131,1.131,0,0,0,25.344,18.144ZM20.664,7.992h.36a.34.34,0,0,1,.36.36V8.64a.346.346,0,0,1-.216.324l-.5.252Zm-7.92,1.224-.5-.252a.414.414,0,0,1-.216-.324V8.352a.34.34,0,0,1,.36-.36h.36Zm8.1,4.212-1.656,1.656L17.5,13.644c.18-.072.324-.144.468-.216l1.08-.648c.036,0,.036-.036.072-.072Zm-7.38-8.316a1.726,1.726,0,0,1,.72-1.44l.288-.216a1.33,1.33,0,0,1,.5-.252l1.62-.54.288.288a2.563,2.563,0,0,0,1.8.756h.18a1.061,1.061,0,0,1,1.08,1.08V6.3a1.279,1.279,0,0,0-.36-.072H17.316a1.568,1.568,0,0,1-1.26-.648l-.108-.108a1.079,1.079,0,0,0-1.476-.252l-1.008.648Zm.756,7.56c.036,0,.036.036.072.072l1.08.648a1.364,1.364,0,0,0,.468.216l-1.692,1.44-1.656-1.656Zm2.124,10.08h-3.96v-3.96h-.72v3.96H8.784v-5.58a3.184,3.184,0,0,1,1.944-2.952l1.116-.5,2.3,2.3,2.2-1.872Zm-.576-9.972-1.08-.648a2.523,2.523,0,0,1-1.224-2.16V6.948a.444.444,0,0,1,.144-.288l1.26-.864a.392.392,0,0,1,.5.072l.108.108a2.428,2.428,0,0,0,1.836.936h2.268a.34.34,0,0,1,.36.36v2.7a2.523,2.523,0,0,1-1.224,2.16l-1.08.648A1.757,1.757,0,0,1,15.768,12.78Zm3.168,9.972H17.064V14.184l2.2,1.872,2.3-2.3,1.116.5a3.222,3.222,0,0,1,1.944,2.952v.864H23.9v-.36a1.061,1.061,0,0,0-1.08-1.08H22.1a1.061,1.061,0,0,0-1.08,1.08v.36h-1.08a1.061,1.061,0,0,0-1.08,1.08v3.24A1.279,1.279,0,0,0,18.936,22.752Zm4.248-5.04v.36h-1.44v-.36a.34.34,0,0,1,.36-.36h.72A.34.34,0,0,1,23.184,17.712Zm2.16,4.68a.34.34,0,0,1-.36.36h-5.04a.34.34,0,0,1-.36-.36v-1.8H22.1v.72h.72v-.72h2.52Zm0-2.52h-5.76v-.72a.34.34,0,0,1,.36-.36h5.04a.34.34,0,0,1,.36.36Z" transform="translate(303.9 264.2)" fill="#219ebc"/>
    <rect id="Rectangle_40" data-name="Rectangle 40" width="38" height="38" rx="5" transform="translate(302 258)" fill="#219ebc" opacity="0.1"/>
  </g>
</svg>
