<svg xmlns="http://www.w3.org/2000/svg" width="38" height="38" viewBox="0 0 38 38">
  <g id="Qualification" transform="translate(-327 -259)">
    <rect id="Rectangle_569" data-name="Rectangle 569" width="38" height="38" rx="5" transform="translate(327 259)" fill="#fceddd"/>
    <g id="icon-136-document-edit" transform="translate(338 270)">
      <path id="document-edit" d="M16.805,8.388l-6.646,6.654h0L8.625,13.508l6.65-6.651,1.531,1.531Zm.416-.417L18.24,6.952a.59.59,0,0,0,0-.834l-.695-.693a.59.59,0,0,0-.834,0L15.691,6.441l1.531,1.531ZM8.243,13.96l-.377,1.833,1.846-.364L8.243,13.96Zm5.946-6.837h0L10.655,3H4.179A1.181,1.181,0,0,0,3,4.182V17.718A1.178,1.178,0,0,0,4.176,18.9h8.836a1.177,1.177,0,0,0,1.176-1.172V11.833l4.464-4.464A1.18,1.18,0,0,0,18.658,5.7l-.695-.695a1.174,1.174,0,0,0-1.667.006L14.189,7.122Zm-.589,5.3v5.3a.587.587,0,0,1-.589.585H4.178a.59.59,0,0,1-.589-.586V4.175a.59.59,0,0,1,.586-.586h5.891V6.53a1.175,1.175,0,0,0,1.177,1.181H13.6L7.711,13.6l-.589,2.944,2.944-.589L13.6,12.422ZM10.655,3.883V6.528a.592.592,0,0,0,.587.594h2.181L10.655,3.883Z" transform="translate(-3 -3)" fill="#fb8500" fill-rule="evenodd"/>
    </g>
  </g>
</svg>
