<svg id="apple" xmlns="http://www.w3.org/2000/svg" width="29" height="29" viewBox="0 0 29 29">
  <path id="Path_2598" data-name="Path 2598" d="M0,0H29V29H0Z" fill="none"/>
  <path id="Path_2599" data-name="Path 2599" d="M14.163,8.659c-1.118,0-2.85-1.221-4.673-1.176a6.944,6.944,0,0,0-5.853,3.412C1.14,15.056,2.994,21.2,5.43,24.585c1.2,1.647,2.6,3.5,4.474,3.441,1.793-.074,2.467-1.118,4.642-1.118,2.16,0,2.773,1.118,4.673,1.073,1.93-.029,3.156-1.676,4.336-3.338a14.513,14.513,0,0,0,1.961-3.868,6.042,6.042,0,0,1-3.8-5.5,6.091,6.091,0,0,1,3.064-5.162A6.73,6.73,0,0,0,19.6,7.423c-2.359-.176-4.336,1.235-5.439,1.235Zm3.984-3.47A5.792,5.792,0,0,0,19.617.85,6.465,6.465,0,0,0,15.45,2.909a5.547,5.547,0,0,0-1.5,4.206,5.369,5.369,0,0,0,4.2-1.926Z" transform="translate(0)"/>
</svg>
