<svg id="Spotify" xmlns="http://www.w3.org/2000/svg" width="29.094" height="29.094" viewBox="0 0 29.094 29.094">
  <path id="Path_2600" data-name="Path 2600" d="M29.094,14.547A14.547,14.547,0,1,1,14.547,0,14.546,14.546,0,0,1,29.094,14.547Z" fill="#2ebd59"/>
  <path id="Path_2601" data-name="Path 2601" d="M116.01,158.225a.8.8,0,0,1-1.1.264c-3.011-1.839-6.8-2.254-11.253-1.234a.8.8,0,1,1-.359-1.559c4.884-1.116,9.066-.634,12.447,1.43a.8.8,0,0,1,.264,1.1m1.57-3.487a1,1,0,0,1-1.374.331,16.793,16.793,0,0,0-12.767-1.491,1,1,0,1,1-.578-1.912,18.673,18.673,0,0,1,14.393,1.7.991.991,0,0,1,.325,1.368m.135-3.633c-4.132-2.45-10.945-2.68-14.886-1.48a1.2,1.2,0,0,1-.7-2.293c4.525-1.374,12.049-1.11,16.8,1.716a1.2,1.2,0,1,1-1.217,2.058" transform="translate(-95.391 -138.118)" fill="#fff"/>
</svg>
