<svg xmlns="http://www.w3.org/2000/svg" width="17.846" height="19.986" viewBox="0 0 17.846 19.986">
  <path id="notificatio" d="M11.751,17.726a2.9,2.9,0,0,1-5.656,0H1.918a1.916,1.916,0,0,1-.479-3.772,16.623,16.623,0,0,0,.542-2.373A20.113,20.113,0,0,0,2.26,8.5,6.628,6.628,0,0,1,4.217,3.8,6.7,6.7,0,0,1,6.052,2.5a2.9,2.9,0,0,1,5.743,0,6.7,6.7,0,0,1,1.834,1.3A6.628,6.628,0,0,1,15.586,8.5a20.113,20.113,0,0,0,.279,3.077,16.623,16.623,0,0,0,.542,2.373,1.916,1.916,0,0,1-.479,3.772H11.751ZM6.025,16.45h9.9a.64.64,0,0,0,0-1.279H1.918a.64.64,0,0,0,0,1.279H6.025Zm-3.24-2.556H15.061a19.229,19.229,0,0,1-.455-2.11,21.816,21.816,0,0,1-.3-3.28,5.387,5.387,0,0,0-10.774,0,21.816,21.816,0,0,1-.3,3.28,19.229,19.229,0,0,1-.455,2.11ZM10.256,1.977a1.226,1.226,0,0,0-.186-.226,1.629,1.629,0,0,0-2.293,0,1.323,1.323,0,0,0-.186.223,6.762,6.762,0,0,1,1.333-.133,6.521,6.521,0,0,1,1.333.136Zm-.186,16.261a1.7,1.7,0,0,0,.346-.512H7.434a1.622,1.622,0,0,0,2.635.512Z" transform="translate(0 0)"/>
</svg>
