<svg xmlns="http://www.w3.org/2000/svg" xmlns:xlink="http://www.w3.org/1999/xlink" width="1110" height="138" viewBox="0 0 1110 138">
  <defs>
    <clipPath id="clip-path">
      <path id="Path_2918" data-name="Path 2918" d="M10,0H1100a10,10,0,0,1,10,10V128a10,10,0,0,1-10,10H10A10,10,0,0,1,0,128V10A10,10,0,0,1,10,0Z" transform="translate(245 374)" fill="#3a6bea"/>
    </clipPath>
    <clipPath id="clip-path-2">
      <rect id="Rectangle_498" data-name="Rectangle 498" width="1110" height="234" rx="12" transform="translate(245 130)" fill="#3a6bea"/>
    </clipPath>
    <linearGradient id="linear-gradient" x1="1.321" y1="1.864" x2="-0.731" y2="-1.546" gradientUnits="objectBoundingBox">
      <stop offset="0" stop-color="#3bb7ff"/>
      <stop offset="1" stop-color="#004fd4"/>
    </linearGradient>
    <filter id="Path_1788" x="891.5" y="-24.5" width="77" height="77" filterUnits="userSpaceOnUse">
      <feOffset dx="5" dy="5" input="SourceAlpha"/>
      <feGaussianBlur stdDeviation="2.5" result="blur"/>
      <feFlood flood-color="#1c3391" flood-opacity="0.149"/>
      <feComposite operator="in" in2="blur"/>
      <feComposite in="SourceGraphic"/>
    </filter>
    <linearGradient id="linear-gradient-2" x1="-9.607" y1="42.245" x2="-11.658" y2="38.835" xlink:href="#linear-gradient"/>
    <filter id="Path_1804" x="913.85" y="-2.15" width="32.301" height="32.301" filterUnits="userSpaceOnUse">
      <feOffset dx="5" dy="5" input="SourceAlpha"/>
      <feGaussianBlur stdDeviation="2.5" result="blur-2"/>
      <feFlood flood-color="#1c3391" flood-opacity="0.149"/>
      <feComposite operator="in" in2="blur-2"/>
      <feComposite in="SourceGraphic"/>
    </filter>
    <filter id="Path_1805" x="908.941" y="-7.059" width="42.119" height="42.119" filterUnits="userSpaceOnUse">
      <feOffset dx="5" dy="5" input="SourceAlpha"/>
      <feGaussianBlur stdDeviation="2.5" result="blur-3"/>
      <feFlood flood-color="#1c3391" flood-opacity="0.149"/>
      <feComposite operator="in" in2="blur-3"/>
      <feComposite in="SourceGraphic"/>
    </filter>
  </defs>
  <g id="Faq_search_button_pattern" data-name="Faq search button pattern" transform="translate(-245 -374)" clip-path="url(#clip-path)">
    <g id="Mask_Group_2" data-name="Mask Group 2" transform="translate(0 196)" clip-path="url(#clip-path-2)">
      <g id="Group_1071" data-name="Group 1071">
        <g id="Group_146" data-name="Group 146" transform="translate(245.999 156.812)" opacity="0.4">
          <path id="Path_617" data-name="Path 617" d="M121.726,403.174a2.587,2.587,0,1,0-2.589-2.586A2.587,2.587,0,0,0,121.726,403.174Z" transform="translate(-119.137 -398)" fill="#46d5ff"/>
          <path id="Path_618" data-name="Path 618" d="M121.726,416.22a2.587,2.587,0,1,0-2.589-2.587A2.588,2.588,0,0,0,121.726,416.22Z" transform="translate(-119.137 -392.782)" fill="#46d5ff"/>
          <path id="Path_619" data-name="Path 619" d="M121.726,429.266a2.587,2.587,0,1,0-2.589-2.587A2.588,2.588,0,0,0,121.726,429.266Z" transform="translate(-119.137 -387.564)" fill="#46d5ff"/>
          <path id="Path_620" data-name="Path 620" d="M121.726,442.311a2.586,2.586,0,1,0-2.589-2.587A2.587,2.587,0,0,0,121.726,442.311Z" transform="translate(-119.137 -382.346)" fill="#46d5ff"/>
          <path id="Path_621" data-name="Path 621" d="M108.68,403.174a2.587,2.587,0,1,0-2.589-2.586A2.588,2.588,0,0,0,108.68,403.174Z" transform="translate(-87.816 -398)" fill="#46d5ff"/>
          <path id="Path_622" data-name="Path 622" d="M108.68,416.22a2.587,2.587,0,1,0-2.589-2.587A2.589,2.589,0,0,0,108.68,416.22Z" transform="translate(-87.816 -392.782)" fill="#46d5ff"/>
          <path id="Path_623" data-name="Path 623" d="M108.68,429.266a2.587,2.587,0,1,0-2.589-2.587A2.589,2.589,0,0,0,108.68,429.266Z" transform="translate(-87.816 -387.564)" fill="#46d5ff"/>
          <path id="Path_624" data-name="Path 624" d="M108.68,442.311a2.586,2.586,0,1,0-2.589-2.587A2.588,2.588,0,0,0,108.68,442.311Z" transform="translate(-87.816 -382.346)" fill="#46d5ff"/>
          <path id="Path_625" data-name="Path 625" d="M95.632,403.174a2.587,2.587,0,1,0-2.587-2.586A2.588,2.588,0,0,0,95.632,403.174Z" transform="translate(-56.495 -398)" fill="#46d5ff"/>
          <path id="Path_626" data-name="Path 626" d="M95.632,416.22a2.587,2.587,0,1,0-2.587-2.587A2.589,2.589,0,0,0,95.632,416.22Z" transform="translate(-56.495 -392.782)" fill="#46d5ff"/>
          <path id="Path_627" data-name="Path 627" d="M95.632,429.266a2.587,2.587,0,1,0-2.587-2.587A2.589,2.589,0,0,0,95.632,429.266Z" transform="translate(-56.495 -387.564)" fill="#46d5ff"/>
          <path id="Path_628" data-name="Path 628" d="M95.632,442.311a2.586,2.586,0,1,0-2.587-2.587A2.588,2.588,0,0,0,95.632,442.311Z" transform="translate(-56.495 -382.346)" fill="#46d5ff"/>
          <path id="Path_629" data-name="Path 629" d="M82.589,403.174A2.587,2.587,0,1,0,80,400.589,2.587,2.587,0,0,0,82.589,403.174Z" transform="translate(-25.177 -398)" fill="#46d5ff"/>
          <path id="Path_630" data-name="Path 630" d="M82.589,416.22A2.587,2.587,0,1,0,80,413.633,2.588,2.588,0,0,0,82.589,416.22Z" transform="translate(-25.177 -392.782)" fill="#46d5ff"/>
          <path id="Path_631" data-name="Path 631" d="M82.589,429.266A2.587,2.587,0,1,0,80,426.679,2.588,2.588,0,0,0,82.589,429.266Z" transform="translate(-25.177 -387.564)" fill="#46d5ff"/>
          <path id="Path_632" data-name="Path 632" d="M82.589,442.311A2.586,2.586,0,1,0,80,439.724,2.587,2.587,0,0,0,82.589,442.311Z" transform="translate(-25.177 -382.346)" fill="#46d5ff"/>
        </g>
        <g id="Group_125" data-name="Group 125" transform="translate(245 77.33)" opacity="0.39">
          <g id="Group_123" data-name="Group 123">
            <g id="Group_113" data-name="Group 113" transform="translate(0)" opacity="0.2" style="mix-blend-mode: overlay;isolation: isolate">
              <path id="Path_412" data-name="Path 412" d="M441.642,260.224l1.125-.278c10.4-2.576,22.025-3.828,35.531-3.828,12.691,0,25.408,1.042,38.871,2.145q3.459.285,6.936.563c5.669.451,10.806.669,15.7.669,35.276,0,57.757-11.984,72.893-38.856,4.289-7.613,7.828-16.092,11.575-25.068,9.439-22.614,19.2-46,41.728-55.463,8.292-3.484,17.516-5.177,28.2-5.177,16.549,0,33.911,4.091,50.7,8.047,11.181,2.634,21.741,5.123,31.825,6.4a110.826,110.826,0,0,0,13.821.917c16.587,0,29.08-4.456,36.127-12.883,6.4-7.662,8.4-18.5,5.921-32.212-9.632-53.33-57.1-96.49-77.064-112.571-.754-.607-1.522-1.194-2.291-1.781l-1.291-.991H484.634l-.2.106C470-2.313,455.737,6.088,442.057,14.932l-.415.268ZM478.3,254.3a150.743,150.743,0,0,0-34.842,3.608V16.187C456.905,7.509,470.909-.738,485.09-8.333H751.334l.809.619c.756.578,1.513,1.154,2.254,1.752,19.8,15.954,66.892,58.752,76.416,111.481,2.377,13.161.518,23.5-5.527,30.728-6.692,8-18.7,12.233-34.736,12.233a108.851,108.851,0,0,1-13.595-.9c-9.987-1.263-20.5-3.741-31.634-6.364-16.891-3.981-34.356-8.1-51.116-8.1-10.928,0-20.382,1.739-28.9,5.318-23.212,9.752-33.118,33.485-42.7,56.437-3.725,8.926-7.244,17.356-11.48,24.876-14.779,26.234-36.771,37.933-71.314,37.933-4.85,0-9.939-.218-15.561-.663q-3.475-.277-6.931-.563C503.816,255.35,491.063,254.3,478.3,254.3Z" transform="translate(-441.642 10.146)" fill="#46d5ff"/>
            </g>
            <g id="Group_114" data-name="Group 114" transform="translate(693.608 428.133)" opacity="0.2" style="mix-blend-mode: overlay;isolation: isolate">
              <path id="Path_413" data-name="Path 413" d="M26.314,549.224H400.752V369.05l-.8-.1a103.338,103.338,0,0,0-12.522-.755c-23.532,0-45.447,7.627-68.648,15.7-15.966,5.554-32.475,11.3-49.951,14.561a197.729,197.729,0,0,1-36.378,3.724c-18.277,0-34.026-3.309-48.148-10.115-13.341-6.428-25.473-15.353-37.206-23.984-12.609-9.277-25.649-18.87-40.325-25.5-14.926-6.741-29.18-10.158-42.368-10.158-21.713,0-40.684,9.353-54.86,27.052-22.565,28.17-30.892,74.243-21.211,117.377,6.318,28.151,19,52.4,37.705,72.086Zm372.625-1.813H27.094C8.766,528.02-3.676,504.151-9.89,476.46c-9.418-41.961-1.036-88.518,20.857-115.848,13.82-17.253,32.3-26.372,53.444-26.372,12.928,0,26.932,3.363,41.621,10,14.5,6.55,27.463,16.084,40,25.306,11.8,8.679,24,17.655,37.494,24.158,14.373,6.926,30.379,10.292,48.935,10.294a199.642,199.642,0,0,0,36.711-3.755c17.61-3.288,34.184-9.055,50.213-14.632,23.053-8.02,44.826-15.6,68.052-15.6a101.793,101.793,0,0,1,11.505.649Z" transform="translate(15.64 -332.427)" fill="#46d5ff"/>
            </g>
            <g id="Group_115" data-name="Group 115" transform="translate(6.082)" opacity="0.2" style="mix-blend-mode: overlay;isolation: isolate">
              <path id="Path_414" data-name="Path 414" d="M1088.278,303.4V-10.146H-15.64l.284,1.1A116.518,116.518,0,0,0,2.771,29.287,191.492,191.492,0,0,0,70.88,86.844a203.131,203.131,0,0,0,91.647,21.906h.008c3.589,0,7.223-.1,10.806-.285,30.982-1.639,61.286-8.34,90.593-14.82C298.9,85.912,335.059,77.91,372.706,78.433c61.508.846,100.762,36.55,138.722,71.079,12.2,11.1,24.823,22.579,37.99,32.721,50.306,38.755,94.593,57.593,135.4,57.593a127.16,127.16,0,0,0,52.718-11.411c11.767-5.321,23.215-11.571,34.288-17.617,24.75-13.515,50.345-27.489,80.61-31.531a132.517,132.517,0,0,1,17.481-1.159c33.09,0,67.911,12.591,103.494,37.423q1.32.921,2.62,1.85c12.77,9.125,23.977,20.974,35.843,33.518,21.274,22.494,43.275,45.753,75.095,52.238ZM1086.145-8.333V301.095c-30.412-6.712-51.863-29.389-72.616-51.33-11.407-12.06-23.2-24.53-36.132-33.771q-1.307-.934-2.639-1.863C938.784,189.025,903.507,176.3,869.91,176.3a135,135,0,0,0-17.811,1.182c-30.709,4.1-56.495,18.18-81.433,31.8-11.036,6.025-22.447,12.256-34.136,17.541a124.739,124.739,0,0,1-51.717,11.2c-40.248,0-84.069-18.685-133.962-57.123-13.1-10.093-25.69-21.543-37.865-32.616-38.264-34.806-77.831-70.795-140.248-71.654C334.847,76.109,298.5,84.128,263.4,91.889c-29.209,6.459-59.412,13.138-90.189,14.766-3.537.187-7.127.282-10.672.282-63.156,0-122.2-29.38-157.949-78.6A114.971,114.971,0,0,1-12.981-8.333Z" transform="translate(15.64 10.146)" fill="#46d5ff"/>
            </g>
            <g id="Group_116" data-name="Group 116" transform="translate(0 59.297)" opacity="0.15" style="mix-blend-mode: overlay;isolation: isolate">
              <path id="Path_415" data-name="Path 415" d="M135.663,624.556h978.158l.019-.914c.5-24.528-14.109-46.778-40.074-61.042-23.207-12.75-48.781-18.948-78.181-18.948-17.91,0-37.235,2.3-59.08,7.044-12.819,2.781-25.324,6.328-37.415,9.758-25.777,7.313-50.125,14.219-77.045,14.218a149.594,149.594,0,0,1-21.11-1.489c-28.135-4.022-45.488-17.829-63.863-32.445-3.577-2.846-7.276-5.789-11.094-8.695-23.109-17.581-48.993-25.77-81.463-25.77-23.391,0-47.568,4.114-73.167,8.468l-3.954.672a209.224,209.224,0,0,1-34.849,3.07c-27.885,0-50.44-6.306-67.034-18.74-25.933-19.428-35.374-57.461-42.269-85.231l-.528-2.132c-3.458-13.921-7.76-31.247-16.353-43.488-15.838-22.563-49.742-28.873-79.656-34.438-4.075-.758-8.072-1.5-11.936-2.271-36.288-7.225-63.184-16.176-85.107-38.45-16.821-17.089-22.828-35.63-19.477-60.118,1.454-10.63,4.4-21.475,7.524-32.954l1.177-4.339c2.044-7.574,4.374-14.68,6.632-21.551,9.972-30.4,17.85-54.41-9.8-84.052-25.4-27.226-48.872-42.578-78.482-51.331l-1.569-.463Zm975.859-1.858H137.992V41.6c28.422,8.7,51.2,23.793,75.856,50.226,26.985,28.925,19.233,52.555,9.416,82.472-2.262,6.892-4.6,14.018-6.655,21.632l-1.177,4.336c-3.133,11.529-6.094,22.42-7.561,33.146-2.3,16.837-2.116,39.037,19.961,61.467,22.333,22.692,49.608,31.787,86.373,39.107,3.876.77,7.885,1.517,11.971,2.277,29.445,5.479,62.818,11.688,78.155,33.535,8.412,11.985,12.674,29.15,16.1,42.943l.529,2.132c6.956,28.017,16.481,66.387,42.958,86.224,17.041,12.768,40.13,19.242,68.628,19.243a212.114,212.114,0,0,0,35.333-3.111l3.955-.672c25.475-4.334,49.535-8.427,72.681-8.427,31.833,0,57.208,8.026,79.856,25.258,3.8,2.89,7.488,5.825,11.057,8.665,18.64,14.828,36.245,28.833,65.1,32.958a152.45,152.45,0,0,0,21.519,1.518c27.322,0,51.853-6.957,77.824-14.326,12.052-3.418,24.512-6.953,37.246-9.716,21.644-4.7,40.769-6.978,58.47-6.978,28.913,0,54.056,6.09,76.862,18.62C1097.434,577.858,1111.631,599.163,1111.522,622.7Z" transform="translate(-135.663 -38.923)" fill="#46d5ff"/>
            </g>
            <g id="Group_117" data-name="Group 117" transform="translate(471.965)" opacity="0.15" style="mix-blend-mode: overlay;isolation: isolate">
              <path id="Path_416" data-name="Path 416" d="M618.943,217.477c.845,0,1.7-.008,2.565-.028l.888-.019V-10.146H-15.64l1.314,1.5C6.583,15.27,32.566,25.936,69.916,25.936h.007c17.916,0,36.175-2.336,55.507-4.808q4.926-.629,9.875-1.251a264.868,264.868,0,0,1,32.2-2.349c17.763,0,32.205,2.85,44.154,8.712C224.272,32.43,232.6,42.5,241.414,53.162c3.942,4.769,8.019,9.7,12.494,14.217,20.636,20.83,45.531,30.956,76.107,30.956,24.5,0,50.219-6.651,69.891-12.448a106.749,106.749,0,0,1,29.976-4.682c28.6,0,51.833,13.844,75.344,44.888,3.866,5.1,7.75,10.671,11.874,17.019C545.4,186.655,569.269,217.477,618.943,217.477Zm1.638-1.824q-.825.011-1.638.011c-48.76,0-72.336-30.48-100.32-73.541-4.149-6.383-8.057-11.985-11.949-17.124C482.787,93.459,459.1,79.393,429.883,79.393a108.545,108.545,0,0,0-30.489,4.756c-19.555,5.761-45.113,12.373-69.378,12.373-30.067,0-54.541-9.949-74.818-30.419-4.417-4.459-8.468-9.358-12.385-14.1-8.55-10.341-17.39-21.033-30.357-27.4-12.2-5.987-26.908-8.9-44.953-8.9a266.417,266.417,0,0,0-32.421,2.364q-4.948.615-9.881,1.252c-19.272,2.464-37.476,4.791-55.276,4.793C33.932,24.123,8.684,14.1-11.624-8.333H620.581Z" transform="translate(15.64 10.146)" fill="#46d5ff"/>
            </g>
            <g id="Group_118" data-name="Group 118" transform="translate(0)" opacity="0.07" style="mix-blend-mode: overlay;isolation: isolate">
              <path id="Path_417" data-name="Path 417" d="M101.711,290.74l1.505-.384c36.169-9.218,68.439-33,99.648-55.995,22.019-16.227,42.817-31.553,64.679-41.96a96.153,96.153,0,0,1,42.236-9.439c20.816,0,41.458,5.741,66.048,14.361,8.014,2.81,16.164,5.757,24.046,8.607,43.414,15.7,88.305,31.93,137.188,35.131,4.887.319,9.784.481,14.554.481,46.848,0,87.2-15.1,119.941-44.873,8.407-7.647,16.236-16.1,23.805-24.28,18.431-19.907,37.488-40.492,66.668-51.428,19.194-7.194,41.6-10.544,70.522-10.544,17.125,0,34.461,1.153,51.227,2.267,6.506.433,13.233.881,19.691,1.239,18.024,1,37.167,1.978,55.635,1.978,47.263,0,106.231-5.808,143.022-51.1,18.985-23.373,23.64-48.371,13.836-74.3l-.245-.648H101.711ZM309.78,181.149a98.865,98.865,0,0,0-43.426,9.7c-22.07,10.506-42.953,25.895-65.063,42.187-30.586,22.54-62.2,45.835-97.279,55.2V-8.333H1114c9.285,25.168,4.64,49.44-13.811,72.155-35.978,44.293-91.508,50.265-141.082,50.265-18.392,0-37.489-.975-55.474-1.973-6.441-.358-12.861-.784-19.659-1.236-16.813-1.118-34.2-2.274-51.42-2.274-29.275,0-52,3.407-71.51,10.719-29.708,11.135-48.94,31.908-67.54,52-7.543,8.146-15.343,16.57-23.687,24.161-32.28,29.36-72.047,44.247-118.2,44.247-4.707,0-9.54-.16-14.362-.476-48.481-3.173-93.187-19.339-136.419-34.97-7.889-2.852-16.044-5.8-24.071-8.615C351.9,186.953,331,181.149,309.78,181.149Z" transform="translate(-101.711 10.146)" fill="#46d5ff"/>
            </g>
            <g id="Group_119" data-name="Group 119" transform="translate(667.354 346.386)" opacity="0.1" style="mix-blend-mode: overlay;isolation: isolate">
              <path id="Path_418" data-name="Path 418" d="M-15.64,563.325H427.005V265.371l-.8-.1a69.968,69.968,0,0,0-10.147-.472c-50.576,1.315-91.41,51.458-121.336,94.995-2.949,4.292-5.866,8.749-8.578,12.927l-1.739,2.683c-16.761,25.861-34.094,52.6-65.956,62.225-15.186,4.587-31.849,6.724-52.44,6.724-13.995,0-28.356-.987-42.243-1.943-13.84-.952-28.152-1.935-42.05-1.935-6.208,0-11.882.189-17.348.578C8.35,445.049-6.439,479.618-11.409,530.292c-.952,9.7-2.176,21.087-4.05,31.973Zm440.832-1.813H-13.49c1.781-10.617,2.962-21.623,3.886-31.043,2.833-28.9,8.494-47.791,18.353-61.268,11.613-15.875,29.848-24.49,55.75-26.336,5.422-.387,11.054-.574,17.218-.574,13.836,0,28.117.981,41.925,1.931,13.919.956,28.31,1.947,42.368,1.947,20.773,0,37.6-2.161,52.964-6.8,32.5-9.816,50.016-36.84,66.954-62.975l1.739-2.682c2.706-4.167,5.614-8.613,8.551-12.887,29.681-43.184,70.132-92.916,119.889-94.209a67.365,67.365,0,0,1,9.085.367Z" transform="translate(15.64 -264.78)" fill="#46d5ff"/>
            </g>
            <g id="Group_120" data-name="Group 120" transform="translate(0 310.208)" opacity="0.05" style="mix-blend-mode: overlay;isolation: isolate">
              <path id="Path_419" data-name="Path 419" d="M325.65,569.565H820.755l.261-.244c18.044-16.876,30.661-33.453,37.5-49.27,8.826-20.411,7.62-38.934-3.581-55.055-23.316-33.553-75.26-38.876-117.908-39.765-2.348-.048-4.834-.071-7.823-.071q-2.345,0-4.694.014l-2.585.015c-2.415.016-4.826.031-7.236.03-22.975,0-45.144-1.289-63.8-16.877-19.656-16.42-32.586-39.4-45.091-61.618-7.779-13.822-15.821-28.115-25.385-40.63-13.681-17.9-28.829-26.605-46.311-26.605-13.156,0-27.845,4.628-47.629,15.005C464.912,305.8,443.8,315.952,422.51,315.95c-15.177,0-29.359-5.194-43.355-15.874-8.116-6.193-16.257-14.342-24.876-22.97-17.8-17.821-36.21-36.249-58.343-41.971l-1.133-.292V545.607l.276.267c3.719,3.593,7.226,6.756,10.72,9.67a168.834,168.834,0,0,0,19.633,13.888Zm494.388-1.813H326.165a166.281,166.281,0,0,1-19.205-13.6c-3.372-2.812-6.758-5.861-10.343-9.313V237.2c21.157,5.931,39.059,23.85,56.38,41.19,8.664,8.672,16.845,16.863,25.058,23.13,14.324,10.93,28.865,16.245,44.456,16.246,21.7,0,43.037-10.248,64.8-21.664,19.51-10.233,33.939-14.8,46.785-14.8,17.113,0,31.371,8.228,44.871,25.892,9.486,12.416,17.5,26.652,25.244,40.418,12.586,22.364,25.6,45.488,45.508,62.12,19.125,15.977,41.644,17.3,64.966,17.3,2.414,0,4.829-.015,7.247-.03l2.584-.014q2.343-.013,4.684-.014c2.977,0,5.45.023,7.786.071,42.218.88,93.608,6.106,116.455,38.986,10.821,15.571,11.968,33.505,3.409,53.3C850.145,534.844,837.76,551.133,820.038,567.753Z" transform="translate(-294.803 -234.843)" fill="#46d5ff"/>
            </g>
            <g id="Group_121" data-name="Group 121" transform="translate(0 448.049)" opacity="0.1" style="mix-blend-mode: overlay;isolation: isolate">
              <path id="Path_420" data-name="Path 420" d="M485.774,545.789H769.707l.265-.257A201.168,201.168,0,0,0,814.223,482.2c12.928-29.464,13.595-66.907,1.658-93.174-8.422-18.532-22.747-31.432-41.422-37.307a61.32,61.32,0,0,0-18.661-2.808c-19.3,0-38.759,8.349-57.581,16.423-19.032,8.165-38.715,16.608-58.424,16.608h-.006c-1.906,0-3.811-.079-5.663-.234-15.121-1.276-28.28-8.691-41.008-15.861-12.886-7.262-25.056-14.12-38.252-14.12-10.821,0-21.183,4.732-31.683,14.465-8.083,7.494-14.96,17.165-21.608,26.517A240.232,240.232,0,0,1,486,413.047l-.229.257Zm283.2-1.813H487.588V413.993a245.733,245.733,0,0,0,15.465-20.238c6.595-9.277,13.416-18.871,21.362-26.238,10.147-9.408,20.108-13.982,30.449-13.982,12.719,0,24.689,6.744,37.361,13.886,12.9,7.265,26.232,14.779,41.745,16.087,1.9.161,3.86.242,5.816.242h.006c20.082,0,39.938-8.517,59.14-16.754,18.652-8,37.94-16.277,56.865-16.277a59.5,59.5,0,0,1,18.116,2.726c18.173,5.715,32.113,18.275,40.316,36.327,11.736,25.825,11.068,62.675-1.666,91.7A199.32,199.32,0,0,1,768.969,543.976Z" transform="translate(-485.774 -348.907)" fill="#46d5ff"/>
            </g>
            <g id="Group_122" data-name="Group 122" transform="translate(3.132 57.209)" opacity="0.05" style="mix-blend-mode: overlay;isolation: isolate">
              <path id="Path_421" data-name="Path 421" d="M3.2,624.916H213.069l.3-.239c5.827-4.591,11.591-9.25,17.167-13.755,11.2-9.048,21.777-17.594,32.026-24.983,21.219-15.3,45.339-22.738,73.742-22.738,46.375,0,94.942,19.662,141.911,38.677,21.736,8.8,42.267,17.112,61.49,22.956l.452.082H692.882l.261-.144c1.546-.852,2.8-1.571,3.948-2.261,32.987-19.888,51.648-51.052,69.695-81.192,5.849-9.767,11.9-19.868,18.29-29.3,17.852-26.337,34.3-37.574,55.016-37.574,9.051,0,18.7,2.212,29.488,6.758,19.617,8.265,37.6,19.807,54.994,30.967,23.011,14.766,46.8,30.034,74.811,38.049a114.7,114.7,0,0,0,31.218,4.848c25.9,0,45.123-11.5,60.5-36.188l.129-.207V90.512l-.149-.219c-15.289-22.486-33.124-44.966-67.884-51.249-18.935-3.423-39-2.088-59.484,3.956-33.332,9.834-67.8,31.7-102.446,64.977-45.986,44.176-96.235,66.328-157.537,86-21.746,6.978-44.923,10.227-72.935,10.227-23.865,0-48.483-2.433-72.291-4.785-18.568-1.835-37.768-3.732-56.747-4.508q-3.946-.162-8.1-.344c-12.944-.56-27.615-1.195-42.561-1.195-40.864,0-98.157,4.3-123.808,41.463-13.543,19.622-15.571,42.419-17.532,64.468-1.725,19.383-3.509,39.424-13.16,57.078-15.618,28.567-51.251,35.44-86.411,40.034-7.034.918-13.9,1.742-20.542,2.54-35.042,4.205-65.3,7.837-100.057,22.427C44.159,440.453,6.577,479.414-8.487,523.055c-12.54,36.33-8.5,72.343,11.38,101.408Zm209.044-1.857H4.417c-19.3-28.533-23.163-63.833-10.863-99.468,14.9-43.158,52.051-81.683,96.96-100.538,34.451-14.464,64.56-18.077,99.423-22.262,6.647-.8,13.519-1.622,20.567-2.543,35.727-4.667,71.953-11.682,88.02-41.073,9.821-17.964,11.622-38.181,13.36-57.733,1.944-21.832,3.952-44.407,17.234-63.652,25.094-36.359,81.636-40.564,121.982-40.564,14.893,0,29.536.634,42.456,1.192q4.15.18,8.1.344c18.909.774,38.073,2.667,56.608,4.5,23.866,2.359,48.545,4.8,72.53,4.8,28.273,0,51.683-3.285,73.674-10.342,61.6-19.764,112.1-42.035,158.378-86.492C897.244,76.181,931.41,54.491,964.4,44.76c20.127-5.939,39.8-7.253,58.365-3.9,33.8,6.111,51.322,28.1,66.335,50.16V518.2c-14.937,23.882-33.53,35.009-58.493,35.009a112.228,112.228,0,0,1-30.553-4.756c-27.682-7.92-51.336-23.1-74.211-37.779-17.471-11.209-35.536-22.8-55.331-31.142-11.089-4.673-21.037-6.944-30.416-6.944-27.268,0-44.707,20.568-56.852,38.487-6.421,9.471-12.482,19.594-18.344,29.384-17.926,29.939-36.463,60.9-69.018,80.521-1.057.638-2.211,1.3-3.614,2.077H540.342c-19.164-5.839-39.6-14.109-61.225-22.866-47.178-19.1-95.964-38.849-142.81-38.849-28.92,0-53.485,7.577-75.1,23.163-10.293,7.425-20.893,15.987-32.115,25.054C223.617,613.982,217.96,618.554,212.247,623.059Z" transform="translate(15.64 -37.195)" fill="#46d5ff"/>
            </g>
          </g>
          <g id="Group_124" data-name="Group 124" transform="translate(0.907 0.906)">
            <path id="Path_422" data-name="Path 422" d="M751.483-9.4c1.109.856,2.231,1.692,3.324,2.572,33.716,27.161,68.8,68.078,76.74,112.026,6.918,38.3-22.535,47.208-54.864,43.119-34.514-4.365-77-23.567-111.188-9.2-31.749,13.339-38.5,53.868-53.741,80.923-19.534,34.68-50.316,40.7-87.736,37.728-28.313-2.253-55.761-5.262-81.628,1.144V15.537C456.224,6.594,470.449-1.768,484.7-9.4Z" transform="translate(-442.39 9.396)" fill="#65dcff" opacity="0.2" style="mix-blend-mode: overlay;isolation: isolate"/>
            <path id="Path_423" data-name="Path 423" d="M106.179,343.255c28.255,12.761,49.769,36.106,77.511,49.473,26.69,12.863,56.587,11.784,85.085,6.465,46.86-8.749,85.974-34.986,130.844-29.5V548.161H26.477C8.873,529.636-4.319,506.279-11,476.5-28.5,398.532,13.5,301.4,106.179,343.255Z" transform="translate(708.567 94.956)" fill="#65dcff" opacity="0.2" style="mix-blend-mode: overlay;isolation: isolate"/>
            <path id="Path_424" data-name="Path 424" d="M1086.993-9.4V302.1c-48.7-9.921-74.194-59.606-110.537-85.568q-1.3-.93-2.63-1.856c-34.425-24.017-76.187-42.554-121.857-36.458-44.038,5.878-77.118,32-115.27,49.241-67.9,30.69-135.755-6.619-186.957-46.052C495.617,139.723,454.121,78.5,372.271,77.371c-69.411-.956-131.7,26.447-199.513,30.032C102.99,111.092,39.337,78.523,3.108,28.654a116.369,116.369,0,0,1-18-38.05Z" transform="translate(21.194 9.396)" fill="#fffead" opacity="0.2" style="mix-blend-mode: overlay;isolation: isolate"/>
            <path id="Path_425" data-name="Path 425" d="M136.413,623.425V40c32.356,9.56,55.519,26.937,78,51.018C247.992,127,228.4,155.075,217.377,195.883c-3.5,12.969-7.079,25.363-8.725,37.391-2.875,21.01.14,40.9,19.731,60.8,23.037,23.4,51.352,31.931,85.785,38.782,32,6.368,73.164,11,90.907,36.264,8.69,12.374,13.017,30.279,16.452,44.1,6.823,27.447,16.326,67.054,42.947,86.992,27.484,20.582,68.015,21.835,102.977,15.9,57.878-9.819,110.112-19.737,157.62,16.4,23.624,17.966,41.6,36.528,75.6,41.385,49.42,7.059,89.938-12.485,136.152-22.508,47.662-10.335,94.15-11.41,136.368,11.774,26.828,14.733,40.055,37.363,39.59,60.268Z" transform="translate(-136.413 19.693)" fill="#fffead" opacity="0.15" style="mix-blend-mode: overlay;isolation: isolate"/>
            <path id="Path_426" data-name="Path 426" d="M620.241-9.4V216.387c-52.443,1.136-76.863-32.745-103.625-73.926-3.9-6-7.851-11.71-11.912-17.071-26.483-34.969-57.456-54.92-106.3-40.529-51.208,15.087-103.531,23.682-145.1-18.277-14.134-14.269-23.835-32.158-42.5-41.316-23.25-11.407-51.954-9.542-76.862-6.448C78.594,25.7,24.617,35.788-14.89-9.4Z" transform="translate(487.945 9.396)" fill="#fffead" opacity="0.15" style="mix-blend-mode: overlay;isolation: isolate"/>
            <path id="Path_427" data-name="Path 427" d="M1114.933-9.4c8.984,23.746,6.527,48.649-13.709,73.55-45.228,55.655-122.558,52.878-197.7,48.708-46.187-2.564-98.607-9.162-142.081,7.123-41.53,15.559-62.063,49.725-90.894,75.934-34.891,31.721-79.979,47.59-133.592,44.082-57.622-3.772-109.085-25.492-160.939-43.661-36.7-12.859-72.544-22.406-109.4-4.87-53.75,25.574-103.366,82.38-164.166,97.869V-9.4Z" transform="translate(-102.452 9.396)" fill="#65dcff" opacity="0.07" style="mix-blend-mode: overlay;isolation: isolate"/>
            <path id="Path_428" data-name="Path 428" d="M425.772,562.262H-14.89c1.756-10.209,2.97-20.941,4.058-32.038,4.966-50.635,19.451-84.465,74.94-88.42,50.677-3.611,104.662,11.529,154.278-3.46,33.27-10.048,50.44-37.936,68.195-65.282,2.819-4.341,5.652-8.667,8.565-12.907,26.75-38.918,68.393-93.245,120.612-94.6a68.451,68.451,0,0,1,10.016.465Z" transform="translate(682.414 80.855)" fill="#65dcff" opacity="0.1" style="mix-blend-mode: overlay;isolation: isolate"/>
            <path id="Path_429" data-name="Path 429" d="M820.242,568.457H325.753a167.847,167.847,0,0,1-19.528-13.812c-3.617-3.016-7.172-6.245-10.67-9.624V235.811c32.677,8.448,58.156,45.907,82.894,64.784,37.36,28.51,70.7,14.216,108.287-5.5,36.348-19.064,65.573-24.28,92.8,11.347,24.865,32.54,38.547,75.6,70.615,102.393,21.5,17.962,47.908,17.187,74.209,17.044,4.174-.023,8.344-.03,12.494.057,38.086.794,93.155,4.8,117.18,39.376C878.379,500.347,850.272,540.373,820.242,568.457Z" transform="translate(-295.555 74.661)" fill="#65dcff" opacity="0.05" style="mix-blend-mode: overlay;isolation: isolate"/>
            <path id="Path_430" data-name="Path 430" d="M769.13,544.726H486.473V413.492c13.132-14.785,23.155-33.852,37.118-46.8,41.184-38.181,68.2,12.207,110.249,15.753,47.9,4.039,93.437-44.71,140.138-30.025,53.35,16.778,58.255,85.841,39.207,129.252A200.446,200.446,0,0,1,769.13,544.726Z" transform="translate(-486.473 98.392)" fill="#fffead" opacity="0.1" style="mix-blend-mode: overlay;isolation: isolate"/>
            <path id="Path_431" data-name="Path 431" d="M89.789,422.069c41.3-17.334,76.816-19.206,120.328-24.888,33.7-4.4,71.106-11.05,87.24-40.556,20.72-37.891,5.335-84.8,30.652-121.474,33.082-47.922,118.913-41.715,173.551-39.479,68.736,2.812,136.991,20.008,202.449-.989,63.485-20.366,112.755-42.8,158-86.252,26.4-25.35,62.277-53,102.028-64.725,18.969-5.6,38.819-7.565,58.941-3.928,33.768,6.1,51.361,27.52,67.2,50.817V518.3c-17.175,27.577-42.852,44.525-90.47,30.9C950.7,535.181,915.659,499.462,870,480.229c-40.963-17.258-64.7-.1-85.911,31.181-25.872,38.16-44.127,83.943-87.7,110.206-1.295.779-2.6,1.518-3.912,2.24H540.027l-.1-.03c-83.22-25.3-195.189-98.619-278.253-38.738-15.472,11.154-31.91,25.111-49.243,38.768H3.521C-44.256,554.015,6.769,456.918,89.789,422.069Z" transform="translate(18.003 19.262)" fill="#fffead" opacity="0.05" style="mix-blend-mode: overlay;isolation: isolate"/>
          </g>
          <g id="Group_139" data-name="Group 139" transform="translate(939.801 191.648)" opacity="0.45">
            <path id="Path_435" data-name="Path 435" d="M571.336,412.357a3.68,3.68,0,1,1-3.68-3.679A3.681,3.681,0,0,1,571.336,412.357Z" transform="translate(-563.977 -408.677)" fill="#46d5ff"/>
            <path id="Path_436" data-name="Path 436" d="M580.722,412.357a3.678,3.678,0,1,1-3.679-3.679A3.678,3.678,0,0,1,580.722,412.357Z" transform="translate(-547.391 -408.677)" fill="#46d5ff"/>
            <path id="Path_437" data-name="Path 437" d="M590.114,412.357a3.679,3.679,0,1,1-3.679-3.679A3.681,3.681,0,0,1,590.114,412.357Z" transform="translate(-530.806 -408.677)" fill="#46d5ff"/>
            <circle id="Ellipse_58" data-name="Ellipse 58" cx="3.68" cy="3.68" r="3.68" transform="translate(77.925)" fill="#46d5ff"/>
            <circle id="Ellipse_59" data-name="Ellipse 59" cx="3.68" cy="3.68" r="3.68" transform="translate(103.899)" fill="#46d5ff"/>
            <path id="Path_438" data-name="Path 438" d="M618.282,412.357a3.68,3.68,0,1,1-3.68-3.679A3.681,3.681,0,0,1,618.282,412.357Z" transform="translate(-481.048 -408.677)" fill="#46d5ff"/>
            <circle id="Ellipse_60" data-name="Ellipse 60" cx="3.68" cy="3.68" r="3.68" transform="translate(155.851)" fill="#46d5ff"/>
            <path id="Path_439" data-name="Path 439" d="M637.06,412.357a3.679,3.679,0,1,1-3.679-3.679A3.68,3.68,0,0,1,637.06,412.357Z" transform="translate(-447.877 -408.677)" fill="#46d5ff"/>
            <path id="Path_440" data-name="Path 440" d="M571.336,421.746a3.68,3.68,0,1,1-3.68-3.68A3.682,3.682,0,0,1,571.336,421.746Z" transform="translate(-563.977 -392.092)" fill="#46d5ff"/>
            <path id="Path_441" data-name="Path 441" d="M580.722,421.746a3.678,3.678,0,1,1-3.679-3.68A3.678,3.678,0,0,1,580.722,421.746Z" transform="translate(-547.391 -392.092)" fill="#46d5ff"/>
            <path id="Path_442" data-name="Path 442" d="M590.114,421.746a3.679,3.679,0,1,1-3.679-3.68A3.682,3.682,0,0,1,590.114,421.746Z" transform="translate(-530.806 -392.092)" fill="#46d5ff"/>
            <path id="Path_443" data-name="Path 443" d="M599.506,421.746a3.681,3.681,0,1,1-3.679-3.68A3.682,3.682,0,0,1,599.506,421.746Z" transform="translate(-514.221 -392.092)" fill="#46d5ff"/>
            <path id="Path_444" data-name="Path 444" d="M608.892,421.746a3.679,3.679,0,1,1-3.679-3.68A3.68,3.68,0,0,1,608.892,421.746Z" transform="translate(-497.635 -392.092)" fill="#46d5ff"/>
            <path id="Path_445" data-name="Path 445" d="M618.282,421.746a3.68,3.68,0,1,1-3.68-3.68A3.682,3.682,0,0,1,618.282,421.746Z" transform="translate(-481.048 -392.092)" fill="#46d5ff"/>
            <path id="Path_446" data-name="Path 446" d="M627.674,421.746a3.681,3.681,0,1,1-3.68-3.68A3.682,3.682,0,0,1,627.674,421.746Z" transform="translate(-464.462 -392.092)" fill="#46d5ff"/>
            <path id="Path_447" data-name="Path 447" d="M637.06,421.746a3.679,3.679,0,1,1-3.679-3.68A3.68,3.68,0,0,1,637.06,421.746Z" transform="translate(-447.877 -392.092)" fill="#46d5ff"/>
            <path id="Path_448" data-name="Path 448" d="M571.336,431.135a3.68,3.68,0,1,1-3.68-3.679A3.68,3.68,0,0,1,571.336,431.135Z" transform="translate(-563.977 -375.506)" fill="#46d5ff"/>
            <path id="Path_449" data-name="Path 449" d="M580.722,431.135a3.678,3.678,0,1,1-3.679-3.679A3.676,3.676,0,0,1,580.722,431.135Z" transform="translate(-547.391 -375.506)" fill="#46d5ff"/>
            <path id="Path_450" data-name="Path 450" d="M590.114,431.135a3.679,3.679,0,1,1-3.679-3.679A3.68,3.68,0,0,1,590.114,431.135Z" transform="translate(-530.806 -375.506)" fill="#46d5ff"/>
            <path id="Path_451" data-name="Path 451" d="M599.506,431.135a3.681,3.681,0,1,1-3.679-3.679A3.68,3.68,0,0,1,599.506,431.135Z" transform="translate(-514.221 -375.506)" fill="#46d5ff"/>
            <path id="Path_452" data-name="Path 452" d="M608.892,431.135a3.679,3.679,0,1,1-3.679-3.679A3.678,3.678,0,0,1,608.892,431.135Z" transform="translate(-497.635 -375.506)" fill="#46d5ff"/>
            <path id="Path_453" data-name="Path 453" d="M618.282,431.135a3.68,3.68,0,1,1-3.68-3.679A3.68,3.68,0,0,1,618.282,431.135Z" transform="translate(-481.048 -375.506)" fill="#46d5ff"/>
            <path id="Path_454" data-name="Path 454" d="M627.674,431.135a3.681,3.681,0,1,1-3.68-3.679A3.68,3.68,0,0,1,627.674,431.135Z" transform="translate(-464.462 -375.506)" fill="#46d5ff"/>
            <path id="Path_455" data-name="Path 455" d="M637.06,431.135a3.679,3.679,0,1,1-3.679-3.679A3.678,3.678,0,0,1,637.06,431.135Z" transform="translate(-447.877 -375.506)" fill="#46d5ff"/>
            <path id="Path_456" data-name="Path 456" d="M571.336,440.525a3.68,3.68,0,1,1-3.68-3.679A3.681,3.681,0,0,1,571.336,440.525Z" transform="translate(-563.977 -358.919)" fill="#46d5ff"/>
            <path id="Path_457" data-name="Path 457" d="M580.722,440.525a3.678,3.678,0,1,1-3.679-3.679A3.678,3.678,0,0,1,580.722,440.525Z" transform="translate(-547.391 -358.919)" fill="#46d5ff"/>
            <path id="Path_458" data-name="Path 458" d="M590.114,440.525a3.679,3.679,0,1,1-3.679-3.679A3.681,3.681,0,0,1,590.114,440.525Z" transform="translate(-530.806 -358.919)" fill="#46d5ff"/>
            <circle id="Ellipse_61" data-name="Ellipse 61" cx="3.68" cy="3.68" r="3.68" transform="translate(77.925 77.926)" fill="#46d5ff"/>
            <circle id="Ellipse_62" data-name="Ellipse 62" cx="3.68" cy="3.68" r="3.68" transform="translate(103.899 77.926)" fill="#46d5ff"/>
            <path id="Path_459" data-name="Path 459" d="M618.282,440.525a3.68,3.68,0,1,1-3.68-3.679A3.681,3.681,0,0,1,618.282,440.525Z" transform="translate(-481.048 -358.919)" fill="#46d5ff"/>
            <circle id="Ellipse_63" data-name="Ellipse 63" cx="3.68" cy="3.68" r="3.68" transform="translate(155.851 77.926)" fill="#46d5ff"/>
            <path id="Path_460" data-name="Path 460" d="M637.06,440.525a3.679,3.679,0,1,1-3.679-3.679A3.68,3.68,0,0,1,637.06,440.525Z" transform="translate(-447.877 -358.919)" fill="#46d5ff"/>
            <circle id="Ellipse_64" data-name="Ellipse 64" cx="3.68" cy="3.68" r="3.68" transform="translate(207.801)" fill="#46d5ff"/>
            <path id="Path_461" data-name="Path 461" d="M655.839,412.357a3.679,3.679,0,1,1-3.679-3.679A3.68,3.68,0,0,1,655.839,412.357Z" transform="translate(-414.704 -408.677)" fill="#46d5ff"/>
            <circle id="Ellipse_65" data-name="Ellipse 65" cx="3.68" cy="3.68" r="3.68" transform="translate(259.751)" fill="#46d5ff"/>
            <path id="Path_462" data-name="Path 462" d="M674.618,412.357a3.68,3.68,0,1,1-3.68-3.679A3.681,3.681,0,0,1,674.618,412.357Z" transform="translate(-381.531 -408.677)" fill="#46d5ff"/>
            <path id="Path_463" data-name="Path 463" d="M684.009,412.357a3.681,3.681,0,1,1-3.682-3.679A3.682,3.682,0,0,1,684.009,412.357Z" transform="translate(-364.948 -408.677)" fill="#46d5ff"/>
            <circle id="Ellipse_66" data-name="Ellipse 66" cx="3.68" cy="3.68" r="3.68" transform="translate(337.677)" fill="#46d5ff"/>
            <path id="Path_464" data-name="Path 464" d="M702.783,412.357a3.678,3.678,0,1,1-3.679-3.679A3.68,3.68,0,0,1,702.783,412.357Z" transform="translate(-331.773 -408.677)" fill="#46d5ff"/>
            <circle id="Ellipse_67" data-name="Ellipse 67" cx="3.68" cy="3.68" r="3.68" transform="translate(389.627)" fill="#46d5ff"/>
            <path id="Path_465" data-name="Path 465" d="M646.45,421.746a3.679,3.679,0,1,1-3.679-3.68A3.682,3.682,0,0,1,646.45,421.746Z" transform="translate(-431.29 -392.092)" fill="#46d5ff"/>
            <path id="Path_466" data-name="Path 466" d="M655.839,421.746a3.679,3.679,0,1,1-3.679-3.68A3.68,3.68,0,0,1,655.839,421.746Z" transform="translate(-414.704 -392.092)" fill="#46d5ff"/>
            <path id="Path_467" data-name="Path 467" d="M665.228,421.746a3.679,3.679,0,1,1-3.679-3.68A3.68,3.68,0,0,1,665.228,421.746Z" transform="translate(-398.119 -392.092)" fill="#46d5ff"/>
            <path id="Path_468" data-name="Path 468" d="M674.618,421.746a3.68,3.68,0,1,1-3.68-3.68A3.682,3.682,0,0,1,674.618,421.746Z" transform="translate(-381.531 -392.092)" fill="#46d5ff"/>
            <path id="Path_469" data-name="Path 469" d="M684.009,421.746a3.681,3.681,0,1,1-3.682-3.68A3.683,3.683,0,0,1,684.009,421.746Z" transform="translate(-364.948 -392.092)" fill="#46d5ff"/>
            <path id="Path_470" data-name="Path 470" d="M693.4,421.746a3.679,3.679,0,1,1-3.679-3.68A3.68,3.68,0,0,1,693.4,421.746Z" transform="translate(-348.36 -392.092)" fill="#46d5ff"/>
            <path id="Path_471" data-name="Path 471" d="M702.783,421.746a3.678,3.678,0,1,1-3.679-3.68A3.68,3.68,0,0,1,702.783,421.746Z" transform="translate(-331.773 -392.092)" fill="#46d5ff"/>
            <path id="Path_472" data-name="Path 472" d="M712.177,421.746a3.681,3.681,0,1,1-3.682-3.68A3.682,3.682,0,0,1,712.177,421.746Z" transform="translate(-315.189 -392.092)" fill="#46d5ff"/>
            <path id="Path_473" data-name="Path 473" d="M646.45,431.135a3.679,3.679,0,1,1-3.679-3.679A3.679,3.679,0,0,1,646.45,431.135Z" transform="translate(-431.29 -375.506)" fill="#46d5ff"/>
            <path id="Path_474" data-name="Path 474" d="M655.839,431.135a3.679,3.679,0,1,1-3.679-3.679A3.678,3.678,0,0,1,655.839,431.135Z" transform="translate(-414.704 -375.506)" fill="#46d5ff"/>
            <path id="Path_475" data-name="Path 475" d="M665.228,431.135a3.679,3.679,0,1,1-3.679-3.679A3.678,3.678,0,0,1,665.228,431.135Z" transform="translate(-398.119 -375.506)" fill="#46d5ff"/>
            <path id="Path_476" data-name="Path 476" d="M674.618,431.135a3.68,3.68,0,1,1-3.68-3.679A3.68,3.68,0,0,1,674.618,431.135Z" transform="translate(-381.531 -375.506)" fill="#46d5ff"/>
            <path id="Path_477" data-name="Path 477" d="M684.009,431.135a3.681,3.681,0,1,1-3.682-3.679A3.68,3.68,0,0,1,684.009,431.135Z" transform="translate(-364.948 -375.506)" fill="#46d5ff"/>
            <path id="Path_478" data-name="Path 478" d="M693.4,431.135a3.679,3.679,0,1,1-3.679-3.679A3.678,3.678,0,0,1,693.4,431.135Z" transform="translate(-348.36 -375.506)" fill="#46d5ff"/>
            <path id="Path_479" data-name="Path 479" d="M702.783,431.135a3.678,3.678,0,1,1-3.679-3.679A3.678,3.678,0,0,1,702.783,431.135Z" transform="translate(-331.773 -375.506)" fill="#46d5ff"/>
            <path id="Path_480" data-name="Path 480" d="M712.177,431.135a3.681,3.681,0,1,1-3.682-3.679A3.68,3.68,0,0,1,712.177,431.135Z" transform="translate(-315.189 -375.506)" fill="#46d5ff"/>
            <circle id="Ellipse_68" data-name="Ellipse 68" cx="3.68" cy="3.68" r="3.68" transform="translate(207.801 77.926)" fill="#46d5ff"/>
            <path id="Path_481" data-name="Path 481" d="M655.839,440.525a3.679,3.679,0,1,1-3.679-3.679A3.68,3.68,0,0,1,655.839,440.525Z" transform="translate(-414.704 -358.919)" fill="#46d5ff"/>
            <circle id="Ellipse_69" data-name="Ellipse 69" cx="3.68" cy="3.68" r="3.68" transform="translate(259.751 77.926)" fill="#46d5ff"/>
            <path id="Path_482" data-name="Path 482" d="M674.618,440.525a3.68,3.68,0,1,1-3.68-3.679A3.681,3.681,0,0,1,674.618,440.525Z" transform="translate(-381.531 -358.919)" fill="#46d5ff"/>
            <path id="Path_483" data-name="Path 483" d="M684.009,440.525a3.681,3.681,0,1,1-3.682-3.679A3.682,3.682,0,0,1,684.009,440.525Z" transform="translate(-364.948 -358.919)" fill="#46d5ff"/>
            <circle id="Ellipse_70" data-name="Ellipse 70" cx="3.68" cy="3.68" r="3.68" transform="translate(337.677 77.926)" fill="#46d5ff"/>
            <path id="Path_484" data-name="Path 484" d="M702.783,440.525a3.678,3.678,0,1,1-3.679-3.679A3.68,3.68,0,0,1,702.783,440.525Z" transform="translate(-331.773 -358.919)" fill="#46d5ff"/>
            <circle id="Ellipse_71" data-name="Ellipse 71" cx="3.68" cy="3.68" r="3.68" transform="translate(389.627 77.926)" fill="#46d5ff"/>
          </g>
        </g>
        <g id="Group_1070" data-name="Group 1070" transform="translate(696.584 15.515)" opacity="0.6">
          <g transform="matrix(1, 0, 0, 1, -451.58, 162.48)" filter="url(#Path_1788)">
            <path id="Path_1788-2" data-name="Path 1788" d="M.013.013,43.84,0l-.013,43.827L0,43.84Z" transform="translate(925 40) rotate(-135)" fill="url(#linear-gradient)"/>
          </g>
          <g id="Group_135" data-name="Group 135" transform="translate(460.564 158.633)">
            <g transform="matrix(1, 0, 0, 1, -912.15, 3.85)" filter="url(#Path_1804)">
              <path id="Path_1804-2" data-name="Path 1804" d="M0,0l12.23,0,0,12.23L0,12.234Z" transform="translate(925 17.65) rotate(-135)" fill="url(#linear-gradient-2)"/>
            </g>
            <g transform="matrix(1, 0, 0, 1, -912.15, 3.85)" filter="url(#Path_1805)">
              <path id="Path_1805-2" data-name="Path 1805" d="M.005.005,18.176,0l-.005,18.171L0,18.176Z" transform="translate(925 21.85) rotate(-135.01)" fill="none" stroke="#707070" stroke-width="1"/>
            </g>
          </g>
        </g>
      </g>
    </g>
  </g>
</svg>
